<svg xmlns="http://www.w3.org/2000/svg" xmlns:xlink="http://www.w3.org/1999/xlink" width="1030" height="450.476" viewBox="0 0 1030 450.476">
  <defs>
    <clipPath id="clip-path">
      <path id="Path_608976" data-name="Path 608976" d="M16,0h998a15.8,15.8,0,0,1,16,15.6V434.875a15.8,15.8,0,0,1-16,15.6H16a15.8,15.8,0,0,1-16-15.6V15.6A15.8,15.8,0,0,1,16,0Z" fill="#d9e6ff"/>
    </clipPath>
    <radialGradient id="radial-gradient" cx="0.5" cy="0.5" r="0.5" gradientUnits="objectBoundingBox">
      <stop offset="0" stop-color="#fff"/>
      <stop offset="0.679" stop-color="#fffffb"/>
      <stop offset="1" stop-color="#fffceb"/>
    </radialGradient>
    <clipPath id="clip-path-2">
      <rect id="Rectangle_407301" data-name="Rectangle 407301" width="600.987" height="375.891" fill="none"/>
    </clipPath>
  </defs>
  <g id="Group_1118023" data-name="Group 1118023" transform="translate(-284.711 -3040)">
    <g id="Group_1117633" data-name="Group 1117633">
      <g id="Group_1116936" data-name="Group 1116936" transform="translate(0.043 1921)">
        <g id="Mask_Group_1098656" data-name="Mask Group 1098656" transform="translate(284.668 1119)" clip-path="url(#clip-path)">
          <path id="Path_874294" data-name="Path 874294" d="M0,0H1030V471.927H0Z" transform="translate(0.289 -11.701)" fill="url(#radial-gradient)"/>
        </g>
      </g>
      <g id="Group_1116939" data-name="Group 1116939" transform="translate(499.711 3077)">
        <path id="Path_893501" data-name="Path 893501" d="M12.638,551.79l8.3,23.378,8.255-23.378h7.362v32.37h-5.83v-20.8l-7.617,20.8H18.765l-7.659-20.888V584.16H5.319V551.79Z" transform="translate(-2.1 -217.861)"/>
        <path id="Path_893502" data-name="Path 893502" d="M60.726,550.037H66.6v5.856H60.726Zm5.7,33.431h-5.49v-23.7h5.49Z" transform="translate(-23.976 -217.169)"/>
        <g id="Group_1116938" data-name="Group 1116938">
          <g id="Group_1116937" data-name="Group 1116937" clip-path="url(#clip-path-2)">
            <path id="Path_893503" data-name="Path 893503" d="M86.921,550.551h6.17q5.008,0,7.221,1A7.546,7.546,0,0,1,103.8,554.8a10.673,10.673,0,0,1,1.278,5.37,9.536,9.536,0,0,1-1.673,5.764,8.652,8.652,0,0,1-4.54,3.2,24.167,24.167,0,0,1-6.129.517v14.027H86.921ZM92.739,563.5h1.849a9.259,9.259,0,0,0,3.033-.339,2.734,2.734,0,0,0,1.34-1.118,3.489,3.489,0,0,0,.488-1.886,3.085,3.085,0,0,0-1.371-2.8,7.291,7.291,0,0,0-3.7-.655H92.739Z" transform="translate(-34.319 -217.372)"/>
            <path id="Path_893504" data-name="Path 893504" d="M121.193,564.8h5.735v11.8a17.634,17.634,0,0,0,.438,4.784,4.171,4.171,0,0,0,1.406,2.083,3.8,3.8,0,0,0,2.385.743,3.933,3.933,0,0,0,2.406-.732,4.281,4.281,0,0,0,1.469-2.15,17.825,17.825,0,0,0,.354-4.526v-12h5.672V575.18q0,6.417-.935,8.781a9.444,9.444,0,0,1-3.366,4.424,9.7,9.7,0,0,1-5.652,1.543,8.834,8.834,0,0,1-9.246-6.823,32.858,32.858,0,0,1-.665-8.105Z" transform="translate(-47.85 -222.998)"/>
            <path id="Path_893505" data-name="Path 893505" d="M181.3,578.417H163.079a6.728,6.728,0,0,0,2.109,4.154,6.289,6.289,0,0,0,4.374,1.542,7.271,7.271,0,0,0,5.464-2.409l4.779,2.431a11.61,11.61,0,0,1-4.28,4.064,12.516,12.516,0,0,1-5.922,1.317,11.233,11.233,0,0,1-8.664-3.637,12.938,12.938,0,0,1-3.345-9.108,13.391,13.391,0,0,1,3.335-9.31,10.781,10.781,0,0,1,8.363-3.7,11.161,11.161,0,0,1,8.685,3.7,14.039,14.039,0,0,1,3.345,9.783Zm-5.672-4.841a6.173,6.173,0,0,0-2.217-3.332,6.089,6.089,0,0,0-3.84-1.284,6.444,6.444,0,0,0-4.162,1.442,8.022,8.022,0,0,0-2.081,3.174Z" transform="translate(-62.222 -222.587)"/>
            <path id="Path_893506" data-name="Path 893506" d="M205.91,549.174v12.159a10.7,10.7,0,0,1,3.324-2.5,8.944,8.944,0,0,1,3.823-.833,9.548,9.548,0,0,1,7.522,3.625,13.816,13.816,0,0,1,3.1,9.3,13.456,13.456,0,0,1-3.2,9.153,9.752,9.752,0,0,1-7.584,3.682,8.785,8.785,0,0,1-3.636-.755,11.073,11.073,0,0,1-3.345-2.465v2.59h-5.631V549.174Zm5.963,14.5a5.705,5.705,0,0,0-4.447,1.981,7.494,7.494,0,0,0-1.766,5.179,7.721,7.721,0,0,0,1.766,5.28,5.664,5.664,0,0,0,4.447,2.015,5.566,5.566,0,0,0,4.374-2.049,8.543,8.543,0,0,0,.031-10.391,5.578,5.578,0,0,0-4.4-2.015" transform="translate(-79.075 -216.828)"/>
            <rect id="Rectangle_407297" data-name="Rectangle 407297" width="5.672" height="33.953" transform="translate(146.203 332.346)"/>
            <path id="Path_893507" data-name="Path 893507" d="M265.3,563.758a11.282,11.282,0,0,1,6.015,1.734,12.082,12.082,0,0,1,4.4,4.706,13.479,13.479,0,0,1,1.578,6.417A13.709,13.709,0,0,1,275.7,583.1a11.994,11.994,0,0,1-4.333,4.717,11.252,11.252,0,0,1-6.046,1.7,10.861,10.861,0,0,1-8.3-3.749,13.751,13.751,0,0,1,.447-18.677,10.887,10.887,0,0,1,7.833-3.332m.094,5.787a5.628,5.628,0,0,0-4.4,1.993,7.422,7.422,0,0,0-1.759,5.1,7.562,7.562,0,0,0,1.738,5.178,5.6,5.6,0,0,0,4.4,1.982,5.666,5.666,0,0,0,4.433-2,8.408,8.408,0,0,0,.031-10.278,5.66,5.66,0,0,0-4.443-1.97" transform="translate(-100.119 -222.586)"/>
            <path id="Path_893508" data-name="Path 893508" d="M294.258,596.745h5.66v4.474a6.878,6.878,0,0,1-1.766,5.164,6.425,6.425,0,0,1-4.66,1.706v-2.72q2.937,0,2.936-3.459h-2.17Z" transform="translate(-115.878 -235.611)"/>
            <path id="Path_893509" data-name="Path 893509" d="M326.4,551.79l8.3,23.378,8.255-23.378h7.362v32.37h-5.83v-20.8l-7.617,20.8h-4.341l-7.659-20.888V584.16h-5.787V551.79Z" transform="translate(-125.984 -217.861)"/>
            <path id="Path_893510" data-name="Path 893510" d="M374.493,550.037h5.873v5.856h-5.873Zm5.7,33.431h-5.49v-23.7h5.49Z" transform="translate(-147.86 -217.169)"/>
            <path id="Path_893511" data-name="Path 893511" d="M400.688,550.551h6.17q5.008,0,7.221,1a7.546,7.546,0,0,1,3.491,3.242,10.673,10.673,0,0,1,1.277,5.37,9.536,9.536,0,0,1-1.673,5.764,8.652,8.652,0,0,1-4.54,3.2,24.166,24.166,0,0,1-6.129.517v14.027h-5.818Zm5.818,12.946h1.849a9.259,9.259,0,0,0,3.033-.339,2.734,2.734,0,0,0,1.34-1.118,3.489,3.489,0,0,0,.488-1.886,3.085,3.085,0,0,0-1.371-2.8,7.291,7.291,0,0,0-3.7-.655h-1.641Z" transform="translate(-158.202 -217.372)"/>
            <path id="Path_893512" data-name="Path 893512" d="M432.8,564.39h4.862v3.085a6.49,6.49,0,0,1,2.1-2.769,4.79,4.79,0,0,1,2.867-.946,4.984,4.984,0,0,1,2.306.631l-1.766,5.291a3.678,3.678,0,0,0-1.642-.54q-1.308,0-2.212,1.756t-.9,6.89l.021,1.193v9.907H432.8Z" transform="translate(-170.88 -222.587)"/>
            <path id="Path_893513" data-name="Path 893513" d="M463.3,563.758a11.282,11.282,0,0,1,6.015,1.734,12.077,12.077,0,0,1,4.395,4.706,13.473,13.473,0,0,1,1.579,6.417A13.7,13.7,0,0,1,473.7,583.1a11.989,11.989,0,0,1-4.332,4.717,11.251,11.251,0,0,1-6.046,1.7,10.861,10.861,0,0,1-8.3-3.749,13.751,13.751,0,0,1,.447-18.677,10.886,10.886,0,0,1,7.833-3.332m.093,5.787a5.627,5.627,0,0,0-4.4,1.993,7.422,7.422,0,0,0-1.759,5.1,7.562,7.562,0,0,0,1.738,5.178,5.6,5.6,0,0,0,4.4,1.982,5.666,5.666,0,0,0,4.433-2,8.408,8.408,0,0,0,.031-10.278,5.661,5.661,0,0,0-4.444-1.97" transform="translate(-178.297 -222.586)"/>
            <path id="Path_893514" data-name="Path 893514" d="M510.345,549.174h5.672v33.954h-5.672v-2.59A11.131,11.131,0,0,1,507.014,583a8.7,8.7,0,0,1-3.622.755,9.736,9.736,0,0,1-7.575-3.682,13.465,13.465,0,0,1-3.2-9.153,13.823,13.823,0,0,1,3.092-9.3A9.531,9.531,0,0,1,503.226,558a8.922,8.922,0,0,1,3.818.833,10.468,10.468,0,0,1,3.3,2.5Zm-5.963,14.5a5.53,5.53,0,0,0-4.369,2.015,8.568,8.568,0,0,0,.03,10.391,5.54,5.54,0,0,0,4.36,2.049,5.636,5.636,0,0,0,4.431-2.015,7.739,7.739,0,0,0,1.76-5.28,7.511,7.511,0,0,0-1.76-5.179,5.7,5.7,0,0,0-4.452-1.981" transform="translate(-194.5 -216.828)"/>
            <path id="Path_893515" data-name="Path 893515" d="M536.644,564.8h5.735v11.8a17.632,17.632,0,0,0,.438,4.784,4.171,4.171,0,0,0,1.406,2.083,3.8,3.8,0,0,0,2.385.743,3.933,3.933,0,0,0,2.406-.732,4.28,4.28,0,0,0,1.469-2.15,17.824,17.824,0,0,0,.354-4.526v-12h5.672V575.18q0,6.417-.935,8.781a9.445,9.445,0,0,1-3.366,4.424,9.7,9.7,0,0,1-5.652,1.543,8.834,8.834,0,0,1-9.246-6.823,32.854,32.854,0,0,1-.665-8.105Z" transform="translate(-211.881 -222.998)"/>
            <path id="Path_893516" data-name="Path 893516" d="M596.207,569.342l-4.722,2.814a8.089,8.089,0,0,0-2.631-2.094,7.375,7.375,0,0,0-3.048-.585,6.8,6.8,0,0,0-5.149,2.056,7.321,7.321,0,0,0-1.966,5.272,7.076,7.076,0,0,0,1.893,5.1,6.567,6.567,0,0,0,4.971,1.978,7,7,0,0,0,5.929-2.814l4.473,3.318a11.849,11.849,0,0,1-10.264,5.125q-5.963,0-9.34-3.828a13.12,13.12,0,0,1-3.376-8.961,13.4,13.4,0,0,1,1.642-6.552,12.034,12.034,0,0,1,4.581-4.706,12.833,12.833,0,0,1,6.576-1.711,12.484,12.484,0,0,1,6.046,1.452,11.807,11.807,0,0,1,4.384,4.132" transform="translate(-226.226 -222.586)"/>
            <path id="Path_893517" data-name="Path 893517" d="M614.965,549.881h5.672v9.029H624V564.2h-3.366v19.205h-5.672V564.2h-2.909V558.91h2.909Z" transform="translate(-241.656 -217.107)"/>
            <path id="Path_893518" data-name="Path 893518" d="M642.631,563.758a11.282,11.282,0,0,1,6.015,1.734,12.076,12.076,0,0,1,4.395,4.706,13.472,13.472,0,0,1,1.579,6.417,13.7,13.7,0,0,1-1.589,6.484,11.989,11.989,0,0,1-4.333,4.717,11.251,11.251,0,0,1-6.046,1.7,10.861,10.861,0,0,1-8.3-3.749,13.751,13.751,0,0,1,.447-18.677,10.886,10.886,0,0,1,7.833-3.332m.093,5.787a5.628,5.628,0,0,0-4.4,1.993,7.422,7.422,0,0,0-1.759,5.1,7.562,7.562,0,0,0,1.738,5.178,5.6,5.6,0,0,0,4.4,1.982,5.666,5.666,0,0,0,4.433-2,8.408,8.408,0,0,0,.032-10.278,5.661,5.661,0,0,0-4.444-1.97" transform="translate(-249.101 -222.586)"/>
            <path id="Path_893519" data-name="Path 893519" d="M671.592,596.745h5.66v4.474a6.878,6.878,0,0,1-1.766,5.164,6.425,6.425,0,0,1-4.66,1.706v-2.72q2.937,0,2.936-3.459h-2.17Z" transform="translate(-264.86 -235.611)"/>
            <path id="Path_893520" data-name="Path 893520" d="M703.738,551.79l8.3,23.378,8.255-23.378h7.362v32.37h-5.83v-20.8l-7.617,20.8h-4.341l-7.659-20.888V584.16h-5.787V551.79Z" transform="translate(-274.965 -217.861)"/>
            <path id="Path_893521" data-name="Path 893521" d="M751.827,550.037H757.7v5.856h-5.873Zm5.7,33.431h-5.49v-23.7h5.49Z" transform="translate(-296.841 -217.169)"/>
            <path id="Path_893522" data-name="Path 893522" d="M790.793,549.174a14.626,14.626,0,0,1,11.155,5.089,17.684,17.684,0,0,1,4.668,12.405,17.491,17.491,0,0,1-4.605,12.271,15.1,15.1,0,0,1-22.61-.135,17.89,17.89,0,0,1-4.553-12.249,18.3,18.3,0,0,1,2.121-8.736A16.409,16.409,0,0,1,782.8,551.5a14.761,14.761,0,0,1,7.994-2.33m-.062,6.169a9.241,9.241,0,0,0-7.134,3.2,11.658,11.658,0,0,0-2.891,8.128,10.973,10.973,0,0,0,3.64,8.691,9.516,9.516,0,0,0,6.489,2.5,9.14,9.14,0,0,0,7.051-3.242,12.407,12.407,0,0,0-.021-16,9.225,9.225,0,0,0-7.134-3.276" transform="translate(-305.93 -216.828)"/>
            <path id="Path_893523" data-name="Path 893523" d="M829.1,564.39h4.862v3.085a6.491,6.491,0,0,1,2.1-2.769,4.789,4.789,0,0,1,2.867-.946,4.984,4.984,0,0,1,2.306.631l-1.766,5.291a3.678,3.678,0,0,0-1.642-.54q-1.308,0-2.213,1.756t-.9,6.89l.021,1.193v9.907H829.1Z" transform="translate(-327.351 -222.587)"/>
            <path id="Path_893524" data-name="Path 893524" d="M865.763,564.39h5.652v20.984q0,6.215-2.306,9.141-3.1,3.962-9.329,3.963a15.207,15.207,0,0,1-5.589-.9,10.005,10.005,0,0,1-3.823-2.646,11,11,0,0,1-2.306-4.244h6.254a5.18,5.18,0,0,0,2.141,1.565,8.249,8.249,0,0,0,3.1.529,7.627,7.627,0,0,0,3.678-.766,4.426,4.426,0,0,0,1.963-1.981,10.8,10.8,0,0,0,.571-4.188,9.406,9.406,0,0,1-3.137,2.33,9.284,9.284,0,0,1-3.719.709,9.864,9.864,0,0,1-7.688-3.557,14.678,14.678,0,0,1,.187-18.372,9.539,9.539,0,0,1,7.189-3.2,8.919,8.919,0,0,1,3.688.776,11.678,11.678,0,0,1,3.48,2.556Zm-5.88,5.111a5.683,5.683,0,0,0-4.426,1.948,7.063,7.063,0,0,0-1.745,4.9,7.16,7.16,0,0,0,1.786,5.02,5.817,5.817,0,0,0,4.488,1.96,5.59,5.59,0,0,0,4.354-1.914,7.244,7.244,0,0,0,1.714-5.021,7.151,7.151,0,0,0-1.725-4.976,5.714,5.714,0,0,0-4.446-1.914" transform="translate(-334.836 -222.587)"/>
            <path id="Path_893525" data-name="Path 893525" d="M892.015,564.8h5.735v11.8a17.633,17.633,0,0,0,.438,4.784,4.171,4.171,0,0,0,1.406,2.083,3.8,3.8,0,0,0,2.385.743,3.933,3.933,0,0,0,2.406-.732,4.281,4.281,0,0,0,1.469-2.15,17.823,17.823,0,0,0,.354-4.526v-12h5.672V575.18q0,6.417-.935,8.781a9.444,9.444,0,0,1-3.366,4.424,9.7,9.7,0,0,1-5.652,1.543,8.834,8.834,0,0,1-9.246-6.823,32.858,32.858,0,0,1-.665-8.105Z" transform="translate(-352.191 -222.998)"/>
            <rect id="Rectangle_407298" data-name="Rectangle 407298" width="5.672" height="33.953" transform="translate(562.289 332.346)"/>
            <rect id="Rectangle_407299" data-name="Rectangle 407299" width="5.672" height="33.953" transform="translate(570.023 332.346)"/>
            <path id="Path_893526" data-name="Path 893526" d="M965.625,563.758a11.282,11.282,0,0,1,6.015,1.734,12.075,12.075,0,0,1,4.395,4.706,13.472,13.472,0,0,1,1.579,6.417,13.7,13.7,0,0,1-1.589,6.484,11.988,11.988,0,0,1-4.332,4.717,11.252,11.252,0,0,1-6.046,1.7,10.861,10.861,0,0,1-8.3-3.749,13.751,13.751,0,0,1,.447-18.677,10.886,10.886,0,0,1,7.833-3.332m.093,5.787a5.627,5.627,0,0,0-4.4,1.993,7.422,7.422,0,0,0-1.759,5.1,7.562,7.562,0,0,0,1.738,5.178,5.6,5.6,0,0,0,4.4,1.982,5.667,5.667,0,0,0,4.433-2,8.408,8.408,0,0,0,.031-10.278,5.661,5.661,0,0,0-4.444-1.97" transform="translate(-376.627 -222.586)"/>
            <path id="Path_893527" data-name="Path 893527" d="M505.083,55.764a16.542,16.542,0,1,1-16.541-16.541,16.541,16.541,0,0,1,16.541,16.541" transform="translate(-186.358 -15.486)" fill="gray"/>
            <path id="Path_893528" data-name="Path 893528" d="M421.117,0A289.652,289.652,0,0,0,300.208,26.265a5.965,5.965,0,0,1,.683-.042,6.053,6.053,0,0,1,2.217.422l84.531,33.3q9.339-1.418,18.912-2.082A22.593,22.593,0,1,1,435.2,57.6q8.626.443,17.082,1.494l85.659-34.656A289.732,289.732,0,0,0,421.117,0" transform="translate(-118.53 0)" fill="#fef100"/>
            <path id="Path_893529" data-name="Path 893529" d="M629.7,48.889l-79.076,87.952L524,91.655Z" transform="translate(-206.889 -19.303)" fill="gray"/>
            <path id="Path_893530" data-name="Path 893530" d="M407.844,95.292l-25.283,45.187L301.333,53.334Z" transform="translate(-118.974 -21.057)" fill="gray"/>
            <path id="Path_893531" data-name="Path 893531" d="M694.644,212.667a10.778,10.778,0,1,1-10.778-10.778,10.778,10.778,0,0,1,10.778,10.778" transform="translate(-265.753 -79.711)" fill="#cacaca"/>
            <path id="Path_893532" data-name="Path 893532" d="M706.971,236.052l17.35,29.442,51.524-57.308Z" transform="translate(-279.131 -82.198)" fill="#cacaca"/>
            <path id="Path_893533" data-name="Path 893533" d="M786.7,210.222h-7.738q1.1,1.117,2.181,2.248Z" transform="translate(-307.556 -83.001)" fill="#0053a3"/>
            <path id="Path_893534" data-name="Path 893534" d="M860.8,210.222h-41a5.431,5.431,0,0,1-1.307,2.471l-13.624,15.154a233.785,233.785,0,0,1,35.993,62.527h58.127A289.529,289.529,0,0,0,860.8,210.222" transform="translate(-317.783 -83.001)" fill="#0053a3"/>
            <path id="Path_893535" data-name="Path 893535" d="M726.614,145.98h7.738l15.409-6.234a5.463,5.463,0,0,1,2.155-.445c.112,0,.224,0,.336.011a5.427,5.427,0,0,1,4.969,6.668h41A292.019,292.019,0,0,0,684.008,47.513a6.045,6.045,0,0,1-1.489,4.879L646.372,92.6a234.392,234.392,0,0,1,80.242,53.384" transform="translate(-255.205 -18.759)" fill="#fef100"/>
            <path id="Path_893536" data-name="Path 893536" d="M631.286,238.423l-16.473,29.442-52.927-56.782Z" transform="translate(-221.847 -83.341)" fill="#cacaca"/>
            <path id="Path_893537" data-name="Path 893537" d="M291.977,212.667A10.778,10.778,0,1,1,281.2,201.889a10.778,10.778,0,0,1,10.778,10.778" transform="translate(-106.769 -79.711)" fill="#cacaca"/>
            <path id="Path_893538" data-name="Path 893538" d="M304.3,236.052l17.35,29.442,51.524-57.308Z" transform="translate(-120.147 -82.198)" fill="#cacaca"/>
            <path id="Path_893539" data-name="Path 893539" d="M228.619,238.423l-16.473,29.442-52.927-56.782Z" transform="translate(-62.864 -83.341)" fill="#cacaca"/>
            <path id="Path_893540" data-name="Path 893540" d="M108.008,214.457a5.441,5.441,0,0,1-1.436-4.235H77.791a289.535,289.535,0,0,0-38.185,80.152h62.018a233.508,233.508,0,0,1,28.3-52.4Z" transform="translate(-15.637 -83.001)" fill="#0053a3"/>
            <path id="Path_893541" data-name="Path 893541" d="M201.859,218.208q3.655-4.079,7.492-7.986H181.588Z" transform="translate(-71.696 -83.001)" fill="#0053a3"/>
            <path id="Path_893542" data-name="Path 893542" d="M132.4,142.866a5.442,5.442,0,0,1,6.5-2l11.541,4.546h27.763a234.473,234.473,0,0,1,76.572-51.88l-36.3-38.939a6.009,6.009,0,0,1,.279-8.521A291.992,291.992,0,0,0,102.7,145.411h28.781a5.429,5.429,0,0,1,.919-2.545" transform="translate(-40.55 -18.19)" fill="#fef100"/>
            <path id="Path_893543" data-name="Path 893543" d="M141.617,378.667h17.505l22.507,64.692,22.833-64.692h17.483l-32.229,91.065H173.3Z" transform="translate(-55.914 -149.507)"/>
            <line id="Line_3231" data-name="Line 3231" x2="0.003" transform="translate(166.032 229.159)" fill="#fff"/>
            <path id="Path_893544" data-name="Path 893544" d="M274.354,386.667h0Z" transform="translate(-108.322 -152.666)" fill="#fff"/>
            <path id="Path_893545" data-name="Path 893545" d="M311.141,375.111q18.452,0,31.73,13.965t13.279,34.047q0,19.9-13.1,33.676t-31.79,13.779q-19.577,0-32.529-14.151a48.1,48.1,0,0,1-12.953-33.614,48.822,48.822,0,0,1,6.032-23.975A45.7,45.7,0,0,1,288.4,381.507a43.111,43.111,0,0,1,22.741-6.4m-.177,16.931a26.714,26.714,0,0,0-20.294,8.774q-8.224,8.774-8.224,22.307,0,15.078,10.355,23.851a27.634,27.634,0,0,0,18.459,6.859,26.4,26.4,0,0,0,20.057-8.9q8.284-8.9,8.284-21.935a31.111,31.111,0,0,0-8.343-21.967,26.655,26.655,0,0,0-20.294-8.99" transform="translate(-104.936 -148.104)"/>
            <path id="Path_893546" data-name="Path 893546" d="M45.364,375.111q18.452,0,31.73,13.965t13.279,34.047q0,19.9-13.1,33.676t-31.79,13.779q-19.577,0-32.529-14.151A48.1,48.1,0,0,1,0,422.814a48.822,48.822,0,0,1,6.032-23.975,45.7,45.7,0,0,1,16.591-17.332,43.111,43.111,0,0,1,22.741-6.4m-.177,16.931a26.714,26.714,0,0,0-20.294,8.774q-8.224,8.774-8.224,22.307,0,15.078,10.355,23.851a27.634,27.634,0,0,0,18.459,6.859,26.4,26.4,0,0,0,20.057-8.9q8.284-8.9,8.284-21.935a31.111,31.111,0,0,0-8.343-21.967,26.655,26.655,0,0,0-20.294-8.99" transform="translate(0 -148.104)"/>
            <path id="Path_893547" data-name="Path 893547" d="M422.222,379.556h18.444q14.965,0,21.58,2.733a21.9,21.9,0,0,1,10.433,8.847,27.1,27.1,0,0,1,3.819,14.653q0,9.461-5,15.727a25.954,25.954,0,0,1-13.569,8.724q-5.03,1.414-18.32,1.413v38.275H422.222Zm17.388,35.325h5.527q6.52,0,9.067-.924a8.056,8.056,0,0,0,4.005-3.051,8.88,8.88,0,0,0,1.46-5.148q0-5.24-4.1-7.644-2.981-1.786-11.053-1.787H439.61Z" transform="translate(-166.704 -149.859)"/>
            <path id="Path_893548" data-name="Path 893548" d="M572.7,379.378a27.447,27.447,0,0,1,16.256-10.331l56.722-62.605,57.747,61.938a4.827,4.827,0,0,1,1.828,1.961l9.445,10.131,2.374-7.448L644.974,249.309,572.587,379.242c.035.046.075.09.11.136" transform="translate(-226.072 -98.434)" fill="#cacaca"/>
            <path id="Path_893549" data-name="Path 893549" d="M880.365,411.788a15.406,15.406,0,0,1,1.454,2.111v-3.454a4.842,4.842,0,0,1,4.841-4.841H894.8a4.842,4.842,0,0,1,4.841,4.841v15.869h2.406l6.526-18.053a4.842,4.842,0,0,1,4.553-3.2h8.035a4.842,4.842,0,0,1,4.555,3.2l6.508,18.049H934.6c0-.09,0-.179,0-.269a290.786,290.786,0,0,0-12.134-83.38H864.345a232.911,232.911,0,0,1,14.97,67.972c.365.367.718.746,1.05,1.15" transform="translate(-341.266 -135.294)" fill="#e6001a"/>
            <path id="Path_893550" data-name="Path 893550" d="M777.323,453.65l10.723,33.47,10.666-33.47h11.3V499.8h-8.63V487.184l.86-21.775L790.971,499.8h-5.906L773.825,465.44l.86,21.743V499.8h-8.6V453.65Z" transform="translate(-302.47 -179.113)"/>
            <path id="Path_893551" data-name="Path 893551" d="M594.212,454.978a21.379,21.379,0,0,1,15.712,6.615,22.008,22.008,0,0,1,6.575,16.125,21.765,21.765,0,0,1-6.487,15.951,22.477,22.477,0,0,1-31.848-.176,22.621,22.621,0,0,1,16.049-38.516M594.124,463a13.515,13.515,0,0,0-10.049,4.156A14.471,14.471,0,0,0,580,477.718a13.769,13.769,0,0,0,5.127,11.3,14.055,14.055,0,0,0,9.141,3.249,13.347,13.347,0,0,0,9.931-4.214,15.188,15.188,0,0,0-.03-20.794A13.474,13.474,0,0,0,594.124,463" transform="translate(-225.742 -179.637)"/>
            <path id="Path_893552" data-name="Path 893552" d="M651.556,454.983h8.1V491.1h11.8v8.009h-19.9Z" transform="translate(-257.251 -179.639)"/>
            <path id="Path_893553" data-name="Path 893553" d="M709.477,454.978a21.379,21.379,0,0,1,15.712,6.615,22.007,22.007,0,0,1,6.575,16.125,21.765,21.765,0,0,1-6.487,15.951,22.477,22.477,0,0,1-31.848-.176,22.621,22.621,0,0,1,16.049-38.516M709.389,463a13.514,13.514,0,0,0-10.049,4.156,14.471,14.471,0,0,0-4.072,10.565,13.769,13.769,0,0,0,5.127,11.3,14.055,14.055,0,0,0,9.141,3.249,13.347,13.347,0,0,0,9.932-4.214,15.188,15.188,0,0,0-.03-20.794A13.474,13.474,0,0,0,709.389,463" transform="translate(-271.252 -179.637)"/>
            <path id="Path_893554" data-name="Path 893554" d="M849.146,499.114V454.983h6.918a35.757,35.757,0,0,1,8.8.78,11.792,11.792,0,0,1,6.289,3.9,10.276,10.276,0,0,1,2.336,6.72,9.815,9.815,0,0,1-1.062,4.575,11.64,11.64,0,0,1-3.454,3.854,13.777,13.777,0,0,1,5.862,4.726,11.97,11.97,0,0,1,1.855,6.7,12.515,12.515,0,0,1-1.917,6.78,12.251,12.251,0,0,1-4.94,4.575,18.926,18.926,0,0,1-8.354,1.515Zm8.375-36.12v9.3h1.832A6.8,6.8,0,0,0,863.9,471a4.408,4.408,0,0,0,1.486-3.51,4.113,4.113,0,0,0-1.411-3.285,6.453,6.453,0,0,0-4.293-1.215Zm0,16.8V491.1h2.1q5.219,0,7.033-1.32a4.452,4.452,0,0,0,1.815-3.84,5.387,5.387,0,0,0-2.13-4.5q-2.13-1.65-7.078-1.65Z" transform="translate(-335.265 -179.639)"/>
            <rect id="Rectangle_407300" data-name="Rectangle 407300" width="8.137" height="43.862" transform="translate(545.933 275.613)"/>
            <path id="Path_893555" data-name="Path 893555" d="M935.364,454.539H943.4l16.009,44.4h-8.235l-3.256-9.145H930.933l-3.386,9.145h-8.235Zm4.067,11.772-5.584,15.242h11.136Z" transform="translate(-362.969 -179.464)"/>
            <path id="Path_893556" data-name="Path 893556" d="M533.493,486.719a15.091,15.091,0,0,1-1.141,1.331,13.348,13.348,0,0,1-9.932,4.214,14.052,14.052,0,0,1-9.141-3.249,13.768,13.768,0,0,1-5.127-11.3,14.47,14.47,0,0,1,4.072-10.565,14.1,14.1,0,0,1,20.1.1c.116.119.214.246.325.367h9.765a22.676,22.676,0,0,0-4.339-6.03,21.38,21.38,0,0,0-15.712-6.615,22.534,22.534,0,0,0-19.475,11.239,23.012,23.012,0,0,0,3.426,27.277,22.478,22.478,0,0,0,31.849.176,22.066,22.066,0,0,0,4.734-6.95Z" transform="translate(-197.374 -179.637)"/>
            <path id="Path_893557" data-name="Path 893557" d="M444.859,112,358.3,267.373a46.11,46.11,0,0,1,18.344,8.79l69.292-76.479L560.555,322.622a27.085,27.085,0,0,1,4.762-3.918Z" transform="translate(-141.466 -44.221)" fill="gray"/>
            <path id="Path_893558" data-name="Path 893558" d="M252.436,306.442l15.381,16.5a47.454,47.454,0,0,1,5.354-1.4l.362-.068c.46-.088.922-.171,1.385-.246.171-.028.343-.053.514-.079q.624-.094,1.252-.171.294-.037.59-.07c.4-.045.8-.083,1.209-.117.2-.018.407-.037.61-.051.422-.031.845-.054,1.269-.074.182-.008.363-.021.545-.027.6-.022,1.207-.035,1.814-.035.747,0,1.488.022,2.224.054.167.007.335.013.5.021q.956.052,1.9.14c.3.027.594.057.89.09.379.042.755.09,1.13.14q.873.115,1.735.263c.137.023.272.047.409.072q1.277.229,2.531.526h0l-42.306-72.6-57.939,104,4.489,12.9,13.131-14.493,9.083-25.735a4.841,4.841,0,0,1,4.565-3.23h12.595Z" transform="translate(-76.516 -98.434)" fill="#cacaca"/>
            <path id="Path_893559" data-name="Path 893559" d="M57.221,357.1a46.572,46.572,0,0,1,32.133,12.456,232.49,232.49,0,0,1,8.491-26.891H35.827q-3.348,11.2-5.795,22.772c.637-.425,1.28-.842,1.94-1.241a48.084,48.084,0,0,1,25.25-7.1" transform="translate(-11.857 -135.294)" fill="#e6001a"/>
          </g>
        </g>
      </g>
    </g>
  </g>
</svg>
