<svg xmlns="http://www.w3.org/2000/svg" xmlns:xlink="http://www.w3.org/1999/xlink" width="400" height="298" viewBox="0 0 400 298">
  <defs>
    <clipPath id="clip-path">
      <path id="Path_608976" data-name="Path 608976" d="M6.214,0H393.786C397.218,0,400,4.621,400,10.32V287.68c0,5.7-2.782,10.32-6.214,10.32H6.214C2.782,298,0,293.379,0,287.68V10.32C0,4.621,2.782,0,6.214,0Z" fill="#d9e6ff"/>
    </clipPath>
    <radialGradient id="radial-gradient" cx="0.5" cy="0.5" r="0.5" gradientUnits="objectBoundingBox">
      <stop offset="0" stop-color="#fff"/>
      <stop offset="0.679" stop-color="#fffffb"/>
      <stop offset="1" stop-color="#fffceb"/>
    </radialGradient>
    <clipPath id="clip-path-2">
      <rect id="Rectangle_407301" data-name="Rectangle 407301" width="347.711" height="217.478" fill="none"/>
    </clipPath>
  </defs>
  <g id="Group_1118024" data-name="Group 1118024" transform="translate(8454 8296)">
    <g id="Group_1117634" data-name="Group 1117634" transform="translate(-10124.711 -11544)">
      <g id="Group_1116936" data-name="Group 1116936" transform="translate(1670.711 3248)">
        <g id="Mask_Group_1098656" data-name="Mask Group 1098656" transform="translate(0)" clip-path="url(#clip-path)">
          <path id="Path_874294" data-name="Path 874294" d="M0,0H400V312.19H0Z" transform="translate(0.112 -7.74)" fill="url(#radial-gradient)"/>
        </g>
      </g>
      <g id="Group_1116939" data-name="Group 1116939" transform="translate(1696.711 3289.17)">
        <path id="Path_893501" data-name="Path 893501" d="M9.553,551.79l4.8,13.526,4.776-13.526H23.39v18.728H20.017V558.486L15.61,570.518H13.1L8.667,558.433v12.085H5.319V551.79Z" transform="translate(-3.456 -358.591)"/>
        <path id="Path_893502" data-name="Path 893502" d="M60.726,550.037h3.4v3.388h-3.4Zm3.3,19.342H60.849V555.666h3.176Z" transform="translate(-39.464 -357.451)"/>
        <g id="Group_1116938" data-name="Group 1116938" transform="translate(0 0)">
          <g id="Group_1116937" data-name="Group 1116937" clip-path="url(#clip-path-2)">
            <path id="Path_893503" data-name="Path 893503" d="M86.921,550.551h3.57a10.915,10.915,0,0,1,4.178.58,4.366,4.366,0,0,1,2.02,1.876,6.175,6.175,0,0,1,.739,3.107,5.517,5.517,0,0,1-.968,3.335,5.005,5.005,0,0,1-2.627,1.85,13.98,13.98,0,0,1-3.546.3v8.116H86.921Zm3.366,7.49h1.07a5.359,5.359,0,0,0,1.755-.2,1.582,1.582,0,0,0,.776-.647,2.019,2.019,0,0,0,.283-1.091,1.785,1.785,0,0,0-.793-1.621,4.218,4.218,0,0,0-2.14-.379h-.95Z" transform="translate(-56.487 -357.785)"/>
            <path id="Path_893504" data-name="Path 893504" d="M121.193,564.8h3.318v6.826a10.2,10.2,0,0,0,.253,2.768,2.413,2.413,0,0,0,.813,1.205,2.2,2.2,0,0,0,1.38.43,2.275,2.275,0,0,0,1.392-.423,2.476,2.476,0,0,0,.85-1.244,10.312,10.312,0,0,0,.2-2.618V564.8h3.282v6.005a15.886,15.886,0,0,1-.541,5.08,5.464,5.464,0,0,1-1.947,2.56,5.611,5.611,0,0,1-3.27.893,5.111,5.111,0,0,1-5.349-3.947,19.01,19.01,0,0,1-.385-4.689Z" transform="translate(-78.759 -367.045)"/>
            <path id="Path_893505" data-name="Path 893505" d="M171.309,572.24H160.767a3.893,3.893,0,0,0,1.22,2.4,3.639,3.639,0,0,0,2.53.892,4.207,4.207,0,0,0,3.161-1.394l2.765,1.407a6.717,6.717,0,0,1-2.476,2.352,7.242,7.242,0,0,1-3.426.762,6.5,6.5,0,0,1-5.013-2.1,7.485,7.485,0,0,1-1.936-5.269,7.747,7.747,0,0,1,1.93-5.386,6.238,6.238,0,0,1,4.839-2.143,6.457,6.457,0,0,1,5.025,2.143,8.123,8.123,0,0,1,1.936,5.66Zm-3.282-2.8a3.571,3.571,0,0,0-1.283-1.928,3.523,3.523,0,0,0-2.222-.743,3.728,3.728,0,0,0-2.408.834,4.642,4.642,0,0,0-1.2,1.836Z" transform="translate(-102.414 -366.368)"/>
            <path id="Path_893506" data-name="Path 893506" d="M203.537,549.174v7.035a6.187,6.187,0,0,1,1.923-1.446,5.174,5.174,0,0,1,2.212-.482,5.524,5.524,0,0,1,4.352,2.1,7.993,7.993,0,0,1,1.791,5.38,7.785,7.785,0,0,1-1.851,5.3,5.642,5.642,0,0,1-4.388,2.13,5.082,5.082,0,0,1-2.1-.437,6.406,6.406,0,0,1-1.936-1.426v1.5h-3.258V549.174Zm3.45,8.389a3.3,3.3,0,0,0-2.573,1.146,4.336,4.336,0,0,0-1.022,3,4.467,4.467,0,0,0,1.022,3.055,3.277,3.277,0,0,0,2.573,1.166,3.22,3.22,0,0,0,2.53-1.186,4.943,4.943,0,0,0,.018-6.012,3.227,3.227,0,0,0-2.548-1.166" transform="translate(-130.155 -356.89)"/>
            <rect id="Rectangle_407297" data-name="Rectangle 407297" width="3.282" height="19.644" transform="translate(84.588 192.284)"/>
            <path id="Path_893507" data-name="Path 893507" d="M260.358,563.758a6.528,6.528,0,0,1,3.48,1,6.991,6.991,0,0,1,2.543,2.723,7.8,7.8,0,0,1,.913,3.713,7.931,7.931,0,0,1-.919,3.751,6.94,6.94,0,0,1-2.507,2.729,6.51,6.51,0,0,1-3.5.984,6.284,6.284,0,0,1-4.8-2.169,7.956,7.956,0,0,1,.258-10.806,6.3,6.3,0,0,1,4.532-1.928m.054,3.348a3.256,3.256,0,0,0-2.547,1.153,4.294,4.294,0,0,0-1.017,2.951,4.375,4.375,0,0,0,1.006,3,3.239,3.239,0,0,0,2.547,1.147,3.278,3.278,0,0,0,2.565-1.16,4.865,4.865,0,0,0,.018-5.946,3.275,3.275,0,0,0-2.571-1.14" transform="translate(-164.792 -366.368)"/>
            <path id="Path_893508" data-name="Path 893508" d="M293.935,596.745h3.274v2.588a3.979,3.979,0,0,1-1.022,2.988,3.717,3.717,0,0,1-2.7.987v-1.574q1.7,0,1.7-2h-1.256Z" transform="translate(-190.731 -387.805)"/>
            <path id="Path_893509" data-name="Path 893509" d="M323.32,551.79l4.8,13.526L332.9,551.79h4.259v18.728h-3.373V558.486l-4.407,12.032h-2.511l-4.431-12.085v12.085h-3.348V551.79Z" transform="translate(-207.363 -358.59)"/>
            <path id="Path_893510" data-name="Path 893510" d="M374.493,550.037h3.4v3.388h-3.4Zm3.3,19.342h-3.176V555.666h3.176Z" transform="translate(-243.371 -357.451)"/>
            <path id="Path_893511" data-name="Path 893511" d="M400.688,550.551h3.57a10.915,10.915,0,0,1,4.178.58,4.366,4.366,0,0,1,2.02,1.876,6.175,6.175,0,0,1,.739,3.107,5.517,5.517,0,0,1-.968,3.335,5.005,5.005,0,0,1-2.627,1.85,13.98,13.98,0,0,1-3.546.3v8.116h-3.366Zm3.366,7.49h1.07a5.359,5.359,0,0,0,1.755-.2,1.582,1.582,0,0,0,.776-.647,2.019,2.019,0,0,0,.283-1.091,1.785,1.785,0,0,0-.793-1.621,4.218,4.218,0,0,0-2.14-.379h-.95Z" transform="translate(-260.394 -357.785)"/>
            <path id="Path_893512" data-name="Path 893512" d="M432.8,564.124h2.813v1.785a3.755,3.755,0,0,1,1.214-1.6,2.771,2.771,0,0,1,1.659-.547,2.883,2.883,0,0,1,1.334.365l-1.022,3.061a2.127,2.127,0,0,0-.95-.313q-.757,0-1.28,1.016a10,10,0,0,0-.523,3.986l.012.69V578.3H432.8Z" transform="translate(-281.26 -366.368)"/>
            <path id="Path_893513" data-name="Path 893513" d="M458.364,563.758a6.528,6.528,0,0,1,3.48,1,6.988,6.988,0,0,1,2.543,2.723,7.8,7.8,0,0,1,.913,3.713,7.928,7.928,0,0,1-.919,3.751,6.936,6.936,0,0,1-2.507,2.729,6.51,6.51,0,0,1-3.5.984,6.284,6.284,0,0,1-4.8-2.169,7.956,7.956,0,0,1,.258-10.806,6.3,6.3,0,0,1,4.532-1.928m.054,3.348a3.256,3.256,0,0,0-2.547,1.153,4.294,4.294,0,0,0-1.017,2.951,4.375,4.375,0,0,0,1.006,3,3.239,3.239,0,0,0,2.547,1.147,3.279,3.279,0,0,0,2.565-1.16,4.865,4.865,0,0,0,.018-5.946,3.275,3.275,0,0,0-2.571-1.14" transform="translate(-293.469 -366.368)"/>
            <path id="Path_893514" data-name="Path 893514" d="M502.875,549.174h3.282v19.645h-3.282v-1.5a6.439,6.439,0,0,1-1.927,1.426,5.033,5.033,0,0,1-2.1.437,5.633,5.633,0,0,1-4.383-2.13,7.79,7.79,0,0,1-1.849-5.3,8,8,0,0,1,1.789-5.38,5.514,5.514,0,0,1,4.347-2.1,5.161,5.161,0,0,1,2.209.482,6.057,6.057,0,0,1,1.91,1.446Zm-3.45,8.389a3.2,3.2,0,0,0-2.528,1.166,4.957,4.957,0,0,0,.018,6.012,3.2,3.2,0,0,0,2.522,1.186A3.261,3.261,0,0,0,502,564.761a4.478,4.478,0,0,0,1.018-3.055,4.346,4.346,0,0,0-1.018-3,3.3,3.3,0,0,0-2.576-1.146" transform="translate(-320.138 -356.89)"/>
            <path id="Path_893515" data-name="Path 893515" d="M536.644,564.8h3.318v6.826a10.2,10.2,0,0,0,.253,2.768,2.414,2.414,0,0,0,.813,1.205,2.2,2.2,0,0,0,1.38.43,2.275,2.275,0,0,0,1.392-.423,2.476,2.476,0,0,0,.85-1.244,10.311,10.311,0,0,0,.2-2.618V564.8h3.282v6.005a15.888,15.888,0,0,1-.541,5.08,5.464,5.464,0,0,1-1.947,2.56,5.611,5.611,0,0,1-3.27.893,5.111,5.111,0,0,1-5.349-3.947,19.007,19.007,0,0,1-.385-4.689Z" transform="translate(-348.747 -367.045)"/>
            <path id="Path_893516" data-name="Path 893516" d="M586.417,566.989l-2.732,1.628a4.68,4.68,0,0,0-1.522-1.211,4.267,4.267,0,0,0-1.763-.338,3.932,3.932,0,0,0-2.979,1.19,4.236,4.236,0,0,0-1.137,3.05,4.094,4.094,0,0,0,1.1,2.953,3.8,3.8,0,0,0,2.876,1.144,4.05,4.05,0,0,0,3.43-1.628l2.588,1.92a7.551,7.551,0,0,1-11.342.751,7.591,7.591,0,0,1-1.953-5.185,7.754,7.754,0,0,1,.95-3.791,6.962,6.962,0,0,1,2.651-2.723,7.424,7.424,0,0,1,3.8-.99,7.222,7.222,0,0,1,3.5.84,6.831,6.831,0,0,1,2.536,2.39" transform="translate(-372.359 -366.368)"/>
            <path id="Path_893517" data-name="Path 893517" d="M613.739,549.881h3.282V555.1h1.947v3.061h-1.947v11.112h-3.282V558.166h-1.683V555.1h1.683Z" transform="translate(-397.755 -357.349)"/>
            <path id="Path_893518" data-name="Path 893518" d="M637.692,563.758a6.527,6.527,0,0,1,3.48,1,6.988,6.988,0,0,1,2.543,2.723,7.8,7.8,0,0,1,.913,3.713,7.928,7.928,0,0,1-.919,3.751,6.936,6.936,0,0,1-2.507,2.729,6.51,6.51,0,0,1-3.5.984,6.284,6.284,0,0,1-4.8-2.169,7.956,7.956,0,0,1,.258-10.806,6.3,6.3,0,0,1,4.532-1.928m.054,3.348a3.256,3.256,0,0,0-2.547,1.153,4.294,4.294,0,0,0-1.017,2.951,4.375,4.375,0,0,0,1.006,3,3.239,3.239,0,0,0,2.547,1.147,3.278,3.278,0,0,0,2.565-1.16,4.865,4.865,0,0,0,.018-5.946,3.275,3.275,0,0,0-2.571-1.14" transform="translate(-410.009 -366.368)"/>
            <path id="Path_893519" data-name="Path 893519" d="M671.269,596.745h3.274v2.588a3.979,3.979,0,0,1-1.022,2.988,3.717,3.717,0,0,1-2.7.987v-1.574q1.7,0,1.7-2h-1.256Z" transform="translate(-435.947 -387.805)"/>
            <path id="Path_893520" data-name="Path 893520" d="M700.654,551.79l4.8,13.526,4.776-13.526h4.259v18.728h-3.373V558.486l-4.407,12.032H704.2l-4.431-12.085v12.085h-3.348V551.79Z" transform="translate(-452.58 -358.59)"/>
            <path id="Path_893521" data-name="Path 893521" d="M751.827,550.037h3.4v3.388h-3.4Zm3.3,19.342H751.95V555.666h3.176Z" transform="translate(-488.587 -357.451)"/>
            <path id="Path_893522" data-name="Path 893522" d="M784.072,549.174a8.462,8.462,0,0,1,6.454,2.944,10.231,10.231,0,0,1,2.7,7.177,10.12,10.12,0,0,1-2.665,7.1,8.738,8.738,0,0,1-13.082-.078,10.351,10.351,0,0,1-2.634-7.087,10.591,10.591,0,0,1,1.227-5.054,9.493,9.493,0,0,1,3.374-3.654,8.54,8.54,0,0,1,4.625-1.348m-.036,3.569a5.347,5.347,0,0,0-4.128,1.85,6.745,6.745,0,0,0-1.672,4.7,6.348,6.348,0,0,0,2.106,5.028,5.506,5.506,0,0,0,3.754,1.446,5.288,5.288,0,0,0,4.079-1.876,7.178,7.178,0,0,0-.012-9.256,5.337,5.337,0,0,0-4.127-1.9" transform="translate(-503.547 -356.89)"/>
            <path id="Path_893523" data-name="Path 893523" d="M829.1,564.124h2.813v1.785a3.755,3.755,0,0,1,1.214-1.6,2.771,2.771,0,0,1,1.659-.547,2.884,2.884,0,0,1,1.334.365l-1.022,3.061a2.127,2.127,0,0,0-.95-.313q-.757,0-1.28,1.016a10,10,0,0,0-.523,3.986l.012.69V578.3H829.1Z" transform="translate(-538.805 -366.368)"/>
            <path id="Path_893524" data-name="Path 893524" d="M858.3,564.124h3.27v12.14q0,3.6-1.334,5.289a6.428,6.428,0,0,1-5.4,2.293,8.8,8.8,0,0,1-3.234-.521,5.788,5.788,0,0,1-2.212-1.531,6.367,6.367,0,0,1-1.334-2.455h3.618a3,3,0,0,0,1.238.906,4.773,4.773,0,0,0,1.791.306,4.412,4.412,0,0,0,2.128-.443,2.56,2.56,0,0,0,1.136-1.146,6.25,6.25,0,0,0,.331-2.423,5.443,5.443,0,0,1-1.815,1.348,5.372,5.372,0,0,1-2.152.41,5.707,5.707,0,0,1-4.448-2.058,8.492,8.492,0,0,1,.108-10.63,5.519,5.519,0,0,1,4.159-1.85,5.161,5.161,0,0,1,2.134.449,6.757,6.757,0,0,1,2.014,1.479Zm-3.4,2.957a3.288,3.288,0,0,0-2.56,1.127,4.087,4.087,0,0,0-1.01,2.834,4.142,4.142,0,0,0,1.034,2.9,3.366,3.366,0,0,0,2.6,1.134,3.234,3.234,0,0,0,2.519-1.107,4.191,4.191,0,0,0,.992-2.905,4.138,4.138,0,0,0-1-2.879,3.306,3.306,0,0,0-2.572-1.107" transform="translate(-551.126 -366.368)"/>
            <path id="Path_893525" data-name="Path 893525" d="M892.015,564.8h3.318v6.826a10.2,10.2,0,0,0,.253,2.768,2.413,2.413,0,0,0,.813,1.205,2.2,2.2,0,0,0,1.38.43,2.276,2.276,0,0,0,1.392-.423,2.476,2.476,0,0,0,.85-1.244,10.311,10.311,0,0,0,.2-2.618V564.8h3.282v6.005a15.886,15.886,0,0,1-.541,5.08,5.464,5.464,0,0,1-1.947,2.56,5.611,5.611,0,0,1-3.27.893,5.111,5.111,0,0,1-5.349-3.947,19.011,19.011,0,0,1-.385-4.689Z" transform="translate(-579.691 -367.045)"/>
            <rect id="Rectangle_407298" data-name="Rectangle 407298" width="3.282" height="19.644" transform="translate(325.322 192.284)"/>
            <rect id="Rectangle_407299" data-name="Rectangle 407299" width="3.282" height="19.644" transform="translate(329.797 192.284)"/>
            <path id="Path_893526" data-name="Path 893526" d="M960.686,563.758a6.528,6.528,0,0,1,3.48,1,6.986,6.986,0,0,1,2.543,2.723,7.794,7.794,0,0,1,.914,3.713,7.928,7.928,0,0,1-.919,3.751,6.936,6.936,0,0,1-2.507,2.729,6.51,6.51,0,0,1-3.5.984,6.284,6.284,0,0,1-4.8-2.169,7.956,7.956,0,0,1,.258-10.806,6.3,6.3,0,0,1,4.532-1.928m.054,3.348a3.256,3.256,0,0,0-2.547,1.153,4.294,4.294,0,0,0-1.017,2.951,4.375,4.375,0,0,0,1.006,3,3.239,3.239,0,0,0,2.547,1.147,3.279,3.279,0,0,0,2.565-1.16,4.865,4.865,0,0,0,.018-5.946,3.275,3.275,0,0,0-2.571-1.14" transform="translate(-619.912 -366.368)"/>
            <path id="Path_893527" data-name="Path 893527" d="M491.141,48.793a9.57,9.57,0,1,1-9.57-9.57,9.57,9.57,0,0,1,9.57,9.57" transform="translate(-306.737 -25.49)" fill="gray"/>
            <path id="Path_893528" data-name="Path 893528" d="M370.162,0a167.583,167.583,0,0,0-69.954,15.2,3.451,3.451,0,0,1,.395-.024,3.5,3.5,0,0,1,1.283.244l48.907,19.266q5.4-.82,10.942-1.2a13.072,13.072,0,1,1,16.577-.155q4.99.256,9.883.864l49.559-20.051A167.629,167.629,0,0,0,370.162,0" transform="translate(-195.095 0)" fill="#fef100"/>
            <path id="Path_893529" data-name="Path 893529" d="M585.156,48.889,539.406,99.775,524,73.632Z" transform="translate(-340.53 -31.771)" fill="gray"/>
            <path id="Path_893530" data-name="Path 893530" d="M362.957,77.609l-14.628,26.143-47-50.419Z" transform="translate(-195.826 -34.66)" fill="gray"/>
            <path id="Path_893531" data-name="Path 893531" d="M685.56,208.125a6.236,6.236,0,1,1-6.236-6.236,6.236,6.236,0,0,1,6.236,6.236" transform="translate(-437.418 -131.201)" fill="#cacaca"/>
            <path id="Path_893532" data-name="Path 893532" d="M706.971,224.309l10.038,17.034,29.81-33.156Z" transform="translate(-459.437 -135.294)" fill="#cacaca"/>
            <path id="Path_893533" data-name="Path 893533" d="M783.443,210.222h-4.477q.635.646,1.262,1.3Z" transform="translate(-506.224 -136.616)" fill="#0053a3"/>
            <path id="Path_893534" data-name="Path 893534" d="M837.231,210.222H813.507a3.142,3.142,0,0,1-.756,1.43l-7.882,8.767A135.261,135.261,0,0,1,825.693,256.6h33.63a167.51,167.51,0,0,0-22.093-46.373" transform="translate(-523.058 -136.616)" fill="#0053a3"/>
            <path id="Path_893535" data-name="Path 893535" d="M692.8,104.483h4.477l8.915-3.607a3.161,3.161,0,0,1,1.247-.257c.065,0,.13,0,.194.006a3.14,3.14,0,0,1,2.875,3.858h23.723a168.952,168.952,0,0,0-66.082-56.97,3.5,3.5,0,0,1-.861,2.823L646.372,73.6A135.612,135.612,0,0,1,692.8,104.483" transform="translate(-420.056 -30.877)" fill="#fef100"/>
            <path id="Path_893536" data-name="Path 893536" d="M602.038,226.9l-9.531,17.034-30.622-32.852Z" transform="translate(-365.151 -137.176)" fill="#cacaca"/>
            <path id="Path_893537" data-name="Path 893537" d="M282.893,208.125a6.236,6.236,0,1,1-6.236-6.236,6.236,6.236,0,0,1,6.236,6.236" transform="translate(-175.738 -131.201)" fill="#cacaca"/>
            <path id="Path_893538" data-name="Path 893538" d="M304.3,224.309l10.038,17.034,29.81-33.156Z" transform="translate(-197.757 -135.294)" fill="#cacaca"/>
            <path id="Path_893539" data-name="Path 893539" d="M199.371,226.9l-9.531,17.034-30.622-32.852Z" transform="translate(-103.471 -137.176)" fill="#cacaca"/>
            <path id="Path_893540" data-name="Path 893540" d="M79.181,212.672a3.148,3.148,0,0,1-.831-2.45H61.7A167.515,167.515,0,0,0,39.606,256.6H75.488a135.1,135.1,0,0,1,16.374-30.319Z" transform="translate(-25.739 -136.616)" fill="#0053a3"/>
            <path id="Path_893541" data-name="Path 893541" d="M193.316,214.842q2.114-2.36,4.335-4.62H181.588Z" transform="translate(-118.008 -136.616)" fill="#0053a3"/>
            <path id="Path_893542" data-name="Path 893542" d="M119.887,102.073a3.149,3.149,0,0,1,3.759-1.158l6.677,2.63h16.063a135.658,135.658,0,0,1,44.3-30.016L169.689,51a3.476,3.476,0,0,1,.161-4.93A168.937,168.937,0,0,0,102.7,103.546h16.652a3.141,3.141,0,0,1,.532-1.472" transform="translate(-66.743 -29.94)" fill="#fef100"/>
            <path id="Path_893543" data-name="Path 893543" d="M141.617,378.667h10.128L164.767,416.1l13.211-37.429h10.115l-18.647,52.687h-9.5Z" transform="translate(-92.032 -246.083)"/>
            <line id="Line_3231" data-name="Line 3231" x2="0.002" transform="translate(96.06 132.584)" fill="#fff"/>
            <path id="Path_893544" data-name="Path 893544" d="M274.354,386.667h0Z" transform="translate(-178.294 -251.282)" fill="#fff"/>
            <path id="Path_893545" data-name="Path 893545" d="M292.023,375.111a24.461,24.461,0,0,1,18.358,8.08,27.526,27.526,0,0,1,7.683,19.7,27.22,27.22,0,0,1-7.58,19.484,25.465,25.465,0,0,1-37.213-.215,27.831,27.831,0,0,1-7.494-19.448,28.247,28.247,0,0,1,3.49-13.871,26.443,26.443,0,0,1,9.6-10.028,24.943,24.943,0,0,1,13.157-3.7m-.1,9.8a15.456,15.456,0,0,0-11.742,5.077,18.122,18.122,0,0,0-4.758,12.906q0,8.724,5.991,13.8a15.988,15.988,0,0,0,10.68,3.968,15.275,15.275,0,0,0,11.6-5.148,19.172,19.172,0,0,0-.034-25.4,15.422,15.422,0,0,0-11.741-5.2" transform="translate(-172.72 -243.772)"/>
            <path id="Path_893546" data-name="Path 893546" d="M26.246,375.111a24.461,24.461,0,0,1,18.358,8.08,27.526,27.526,0,0,1,7.683,19.7,27.22,27.22,0,0,1-7.58,19.484,24.437,24.437,0,0,1-18.393,7.972,24.436,24.436,0,0,1-18.82-8.187A27.831,27.831,0,0,1,0,402.71a28.246,28.246,0,0,1,3.49-13.871,26.443,26.443,0,0,1,9.6-10.028,24.943,24.943,0,0,1,13.157-3.7m-.1,9.8A15.456,15.456,0,0,0,14.4,389.983a18.122,18.122,0,0,0-4.758,12.906q0,8.724,5.991,13.8a15.988,15.988,0,0,0,10.68,3.968,15.275,15.275,0,0,0,11.6-5.148,19.172,19.172,0,0,0-.034-25.4,15.422,15.422,0,0,0-11.741-5.2" transform="translate(0 -243.772)"/>
            <path id="Path_893547" data-name="Path 893547" d="M422.222,379.556h10.671q8.658,0,12.485,1.581a12.668,12.668,0,0,1,6.036,5.119,15.681,15.681,0,0,1,2.209,8.478,14.134,14.134,0,0,1-2.892,9.1,15.016,15.016,0,0,1-7.85,5.048q-2.91.818-10.6.818v22.145h-10.06Zm10.06,20.438h3.2a17.46,17.46,0,0,0,5.246-.535,4.661,4.661,0,0,0,2.317-1.765,5.137,5.137,0,0,0,.845-2.978,4.749,4.749,0,0,0-2.371-4.423q-1.725-1.034-6.4-1.034h-2.839Z" transform="translate(-274.388 -246.661)"/>
            <path id="Path_893548" data-name="Path 893548" d="M572.651,324.563a15.88,15.88,0,0,1,9.405-5.977l32.817-36.221,33.41,35.835a2.793,2.793,0,0,1,1.058,1.134l5.465,5.862,1.373-4.309-41.712-71.577-41.881,75.175c.02.027.043.052.064.078" transform="translate(-372.105 -162.018)" fill="#cacaca"/>
            <path id="Path_893549" data-name="Path 893549" d="M873.614,382.658a8.909,8.909,0,0,1,.841,1.221v-2a2.8,2.8,0,0,1,2.8-2.8h4.708a2.8,2.8,0,0,1,2.8,2.8v9.181h1.392l3.776-10.445a2.8,2.8,0,0,1,2.634-1.849h4.649a2.8,2.8,0,0,1,2.635,1.851l3.766,10.442h1.378c0-.052,0-.1,0-.155a168.24,168.24,0,0,0-7.021-48.241h-33.63a134.756,134.756,0,0,1,8.661,39.327c.211.212.416.431.607.665" transform="translate(-561.709 -222.687)" fill="#e6001a"/>
            <path id="Path_893550" data-name="Path 893550" d="M772.586,453.65l6.2,19.365,6.171-19.365H791.5v26.7H786.5v-7.3l.5-12.6-6.52,19.9h-3.417l-6.5-19.878.5,12.58v7.3h-4.976v-26.7Z" transform="translate(-497.852 -294.812)"/>
            <path id="Path_893551" data-name="Path 893551" d="M584.746,454.978a12.369,12.369,0,0,1,9.09,3.827,12.733,12.733,0,0,1,3.8,9.33,12.592,12.592,0,0,1-3.753,9.229,13,13,0,0,1-18.426-.1,13.088,13.088,0,0,1,9.285-22.284m-.051,4.64a7.819,7.819,0,0,0-5.814,2.4,8.373,8.373,0,0,0-2.356,6.113,7.966,7.966,0,0,0,2.966,6.536,8.132,8.132,0,0,0,5.288,1.88,7.722,7.722,0,0,0,5.746-2.438,8.787,8.787,0,0,0-.017-12.031,7.8,7.8,0,0,0-5.814-2.464" transform="translate(-371.561 -295.675)"/>
            <path id="Path_893552" data-name="Path 893552" d="M651.556,454.983h4.687v20.9h6.829v4.634H651.556Z" transform="translate(-423.424 -295.678)"/>
            <path id="Path_893553" data-name="Path 893553" d="M700.011,454.978a12.369,12.369,0,0,1,9.09,3.827,12.732,12.732,0,0,1,3.8,9.33,12.592,12.592,0,0,1-3.753,9.229,13,13,0,0,1-18.426-.1,13.088,13.088,0,0,1,9.285-22.284m-.051,4.64a7.819,7.819,0,0,0-5.814,2.4,8.372,8.372,0,0,0-2.356,6.113,7.966,7.966,0,0,0,2.966,6.536,8.132,8.132,0,0,0,5.288,1.88,7.722,7.722,0,0,0,5.746-2.438,8.787,8.787,0,0,0-.017-12.031,7.8,7.8,0,0,0-5.814-2.464" transform="translate(-446.468 -295.675)"/>
            <path id="Path_893554" data-name="Path 893554" d="M849.146,480.516V454.983h4a20.686,20.686,0,0,1,5.094.451,6.822,6.822,0,0,1,3.639,2.257,5.945,5.945,0,0,1,1.352,3.888,5.679,5.679,0,0,1-.615,2.647,6.735,6.735,0,0,1-2,2.23,7.971,7.971,0,0,1,3.392,2.734,6.926,6.926,0,0,1,1.073,3.879,7.241,7.241,0,0,1-1.109,3.923,7.088,7.088,0,0,1-2.858,2.647,10.95,10.95,0,0,1-4.834.876Zm4.846-20.9V465h1.06a3.935,3.935,0,0,0,2.632-.746,2.55,2.55,0,0,0,.86-2.031,2.38,2.38,0,0,0-.817-1.9,3.733,3.733,0,0,0-2.484-.7Zm0,9.72v6.544h1.215q3.019,0,4.069-.764a2.576,2.576,0,0,0,1.05-2.222,3.116,3.116,0,0,0-1.232-2.6,6.789,6.789,0,0,0-4.1-.955Z" transform="translate(-551.832 -295.678)"/>
            <rect id="Rectangle_407300" data-name="Rectangle 407300" width="4.708" height="25.377" transform="translate(315.858 159.461)"/>
            <path id="Path_893555" data-name="Path 893555" d="M928.6,454.539h4.649l9.262,25.689h-4.764l-1.884-5.291h-9.827l-1.959,5.291h-4.764Zm2.353,6.811-3.231,8.819h6.443Z" transform="translate(-597.43 -295.39)"/>
            <path id="Path_893556" data-name="Path 893556" d="M519.336,473.342a8.732,8.732,0,0,1-.66.77,7.723,7.723,0,0,1-5.746,2.438,8.13,8.13,0,0,1-5.288-1.88,7.966,7.966,0,0,1-2.966-6.536,8.372,8.372,0,0,1,2.356-6.113,8.161,8.161,0,0,1,11.628.059c.067.069.124.143.188.213H524.5a13.12,13.12,0,0,0-2.51-3.489,12.37,12.37,0,0,0-9.091-3.827,13.038,13.038,0,0,0-11.268,6.5,13.314,13.314,0,0,0,1.982,15.782,13,13,0,0,0,18.426.1,12.766,12.766,0,0,0,2.739-4.021Z" transform="translate(-324.868 -295.675)"/>
            <path id="Path_893557" data-name="Path 893557" d="M408.38,112,358.3,201.894a26.677,26.677,0,0,1,10.613,5.085L409,162.73l66.315,71.128a15.671,15.671,0,0,1,2.755-2.267Z" transform="translate(-232.847 -72.785)" fill="gray"/>
            <path id="Path_893558" data-name="Path 893558" d="M227.723,282.365l8.9,9.545a27.457,27.457,0,0,1,3.1-.81l.209-.04c.266-.051.533-.1.8-.142l.3-.046q.361-.054.724-.1l.341-.041c.232-.026.466-.048.7-.068.118-.01.235-.021.353-.03.244-.018.489-.031.734-.043.105,0,.21-.012.315-.016.348-.013.7-.02,1.049-.02.432,0,.861.013,1.287.031l.29.012q.553.03,1.1.081c.172.015.343.033.515.052.219.024.437.052.654.081q.505.067,1,.152l.236.042q.739.132,1.464.3h0l-24.477-42L193.8,309.479l2.6,7.465,7.6-8.385,5.255-14.889a2.8,2.8,0,0,1,2.641-1.869h7.287Z" transform="translate(-125.942 -162.018)" fill="#cacaca"/>
            <path id="Path_893559" data-name="Path 893559" d="M45.763,351.017a26.945,26.945,0,0,1,18.591,7.207,134.514,134.514,0,0,1,4.912-15.558H33.385q-1.937,6.481-3.353,13.175c.368-.246.741-.487,1.122-.718a27.82,27.82,0,0,1,14.609-4.106" transform="translate(-19.517 -222.687)" fill="#e6001a"/>
          </g>
        </g>
      </g>
    </g>
  </g>
</svg>
