<svg xmlns="http://www.w3.org/2000/svg" xmlns:xlink="http://www.w3.org/1999/xlink" width="295" height="244.699" viewBox="0 0 295 244.699">
  <defs>
    <clipPath id="clip-path">
      <rect id="Rectangle_407282" data-name="Rectangle 407282" width="259.215" height="244.699" fill="none"/>
    </clipPath>
    <clipPath id="clip-path-3">
      <rect id="Rectangle_407277" data-name="Rectangle 407277" width="61.582" height="139.836" fill="none"/>
    </clipPath>
    <clipPath id="clip-path-4">
      <rect id="Rectangle_407278" data-name="Rectangle 407278" width="63.545" height="141.164" fill="none"/>
    </clipPath>
    <clipPath id="clip-path-5">
      <path id="Path_893381" data-name="Path 893381" d="M208.744,141.992l-.783,11.678,10.661,6.5,10.66-6.5-.784-11.678Z" transform="translate(-207.961 -141.992)" fill="none"/>
    </clipPath>
    <clipPath id="clip-path-7">
      <path id="Path_893434" data-name="Path 893434" d="M198.133,30.512l-1.166,7.871c3.848,1.186,7.64,2.61,11.56,3.561a19.692,19.692,0,0,0,10.876,0c3.915-.95,7.707-2.374,11.555-3.561L229.8,30.512c.154-3.468-6.93-6.325-15.834-6.325s-15.989,2.857-15.83,6.325" transform="translate(-196.967 -24.187)" fill="none"/>
    </clipPath>
  </defs>
  <g id="Group_1099442" data-name="Group 1099442" transform="translate(-284.903 -3616.5)">
    <path id="Path_893294" data-name="Path 893294" d="M30,0H265c16.569,0,30,12.034,30,26.878V146.035c0,14.844-13.431,26.878-30,26.878H30c-16.569,0-30-12.034-30-26.878V26.878C0,12.034,13.431,0,30,0Z" transform="translate(284.903 3686.5)" fill="#afbefc"/>
    <g id="Group_1116903" data-name="Group 1116903" transform="translate(302.903 3616.5)">
      <g id="Group_1116902" data-name="Group 1116902" clip-path="url(#clip-path)">
        <g id="Group_1116893" data-name="Group 1116893">
          <g id="Group_1116892" data-name="Group 1116892" clip-path="url(#clip-path)">
            <path id="Path_893332" data-name="Path 893332" d="M250.219,87.885c-3.23-.76-4.553-1.683-15.041-1.243-38.963,1.639-68.762,8.641-103.076,8.641-17.156,0-33.422-1.788-50.216-3.765-16.5-1.948-33.446-4.062-52.865-4.875C18.528,86.2,5.154,89.166,1.935,89.926A94.89,94.89,0,0,0,4.417,77.348c2.013-18.268,1.366-40.143.688-52.964a16.733,16.733,0,0,1,10.689-16.5c4.9-1.893,10.663-3.408,15.732-2.872,18.944,2,35.477,7.2,51.583,11.978,16.385,4.858,32.252,9.264,48.993,9.264,33.482,0,62.551-17.222,100.57-21.242,5.07-.536,10.83.979,15.734,2.873A16.733,16.733,0,0,1,259.1,24.383c-.676,12.821-1.594,22.455-6.228,48.275-.666,3.711-4.635,2.6-2.648,15.228" transform="translate(-0.82 -2.079)" fill="#f2bb07"/>
            <path id="Path_893333" data-name="Path 893333" d="M254.033,207.823c-7.708-2.108-30.917-13.718-68.318-13.605-63.11.2-137.331,19.621-183.409,14.074,2.714-23.018-5.094-42.971-1.192-58.341,3.219-.76,16.593-3.724,27.086-3.284,19.42.814,36.362,2.928,52.865,4.875,16.794,1.978,33.06,3.765,50.217,3.765,34.313,0,64.113-7,103.076-8.641,10.487-.44,11.81.483,15.04,1.244,3.872,15.262,1.879,37.083,4.635,59.911" transform="translate(0 -62.105)" fill="#2063ce"/>
            <path id="Path_893334" data-name="Path 893334" d="M253.636,284.961S226.5,270.9,185.918,271.035c-62.776.19-136.749,19.936-181.876,13.926a143.955,143.955,0,0,1-.662-41.618c46.077,5.547,120.154-13.878,183.263-14.074,37.4-.113,60.046,11.5,67.754,13.6a144.849,144.849,0,0,1-.76,42.087" transform="translate(-0.927 -97.157)" fill="#de3142"/>
            <g id="Group_1116888" data-name="Group 1116888" transform="translate(23.242 48.699)" opacity="0.2">
              <g id="Group_1116887" data-name="Group 1116887">
                <g id="Group_1116886" data-name="Group 1116886" clip-path="url(#clip-path-3)">
                  <path id="Path_893335" data-name="Path 893335" d="M99.513,218.7c-21,2.488-41.32,4.757-59.178,5.648,5.35-7.186,24.8-36.047,37.271-75.426,6.307-19.93,14.115-64.583,20.287-64.41,7.53.211,2.315,118.938,1.62,134.188" transform="translate(-40.335 -84.513)" fill="#1e1157"/>
                </g>
              </g>
            </g>
            <g id="Group_1116891" data-name="Group 1116891" transform="translate(174.644 38.326)" opacity="0.2">
              <g id="Group_1116890" data-name="Group 1116890">
                <g id="Group_1116889" data-name="Group 1116889" clip-path="url(#clip-path-4)">
                  <path id="Path_893336" data-name="Path 893336" d="M366.625,207.676c-16.111-3.005-35.43-5.671-53.2-5.612q-3.331.009-6.758.1c-.564-23.416-8.206-130.887.695-135.525,5.472-2.851,14.395,44.48,20.886,64.41a295.727,295.727,0,0,0,38.375,76.631" transform="translate(-303.08 -66.512)" fill="#1e1157"/>
                </g>
              </g>
            </g>
            <path id="Path_893337" data-name="Path 893337" d="M232.283,186.5l6.193-11.576-8.073.783a31.853,31.853,0,0,0-29.957-21.05H185.695A31.853,31.853,0,0,0,155.738,175.7l-8.067-.783,6.188,11.566v.01l1.585,18.885s-2.844,15.083-1.585,19.918c.421,1.615,3.717,5.553,3.717,5.553h70.99s3.3-3.937,3.718-5.553c1.259-4.835-1.586-19.918-1.586-19.918Z" transform="translate(-62.578 -65.538)" fill="#fff"/>
            <path id="Path_893338" data-name="Path 893338" d="M196.025,251.157l4.284,1.321c1.441.394,2.892.753,4.337,1.132,1.464.3,2.92.634,4.392.886,1.477.219,2.947.494,4.438.61.743.063,1.483.179,2.23.2l2.236.1,2.238-.015c.747,0,1.489-.088,2.234-.123s1.481-.167,2.223-.246c.735-.118,1.471-.245,2.2-.41a16.391,16.391,0,0,0,4.195-1.471l0,.124a17.606,17.606,0,0,0-4.015-1.166c-1.378-.263-2.77-.458-4.166-.611s-2.8-.262-4.2-.345-2.807-.131-4.212-.173a.045.045,0,0,1-.043-.046.047.047,0,0,1,.045-.043c.7-.024,1.409-.06,2.114-.073l2.116-.007c.706,0,1.412.024,2.119.035s1.412.074,2.118.122c1.412.109,2.824.259,4.236.481.705.115,1.411.24,2.117.412.354.078.7.186,1.056.3q.264.084.531.188a4.929,4.929,0,0,1,.578.259.683.683,0,0,1,.029,1.191l-.015.009a13.051,13.051,0,0,1-2.195.976l-1.106.356-1.118.29c-.748.18-1.5.319-2.258.449-.758.091-1.514.233-2.276.28a45.125,45.125,0,0,1-9.094-.26c-1.509-.139-2.994-.418-4.476-.7-1.477-.3-2.935-.693-4.4-1.039-1.445-.419-2.888-.844-4.309-1.326-1.411-.518-2.821-1.029-4.213-1.581a.044.044,0,0,1-.027-.057.046.046,0,0,1,.055-.028" transform="translate(-83.045 -106.282)" fill="#1e1157"/>
            <path id="Path_893339" data-name="Path 893339" d="M226.365,179.18l.482,20.707c.082,3.451.192,6.9.307,10.349.1,3.449.214,6.9.369,10.346a.263.263,0,0,1-.058.176l-.008.009a3.33,3.33,0,0,0-.729,2.051,3.767,3.767,0,0,0,.732,2.113,8.575,8.575,0,0,1,1.1,4.731,21.2,21.2,0,0,1-.688,4.783,31.526,31.526,0,0,1-1.507,4.573,35.58,35.58,0,0,0,1.319-4.616,22.893,22.893,0,0,0,.539-4.741,8.2,8.2,0,0,0-1.13-4.489,4.241,4.241,0,0,1-.859-2.349,3.766,3.766,0,0,1,.837-2.4l-.065.186c-.18-3.452-.319-6.9-.443-10.353q-.157-5.177-.241-10.357c-.068-3.453-.076-6.907-.076-10.36s.047-6.907.118-10.359" transform="translate(-95.871 -75.931)" fill="#1e1157"/>
            <path id="Path_893340" data-name="Path 893340" d="M238.7,374.631H146.166c.986-11.229,2.078-21.006,3.3-28.941l4.739-37.518h76.471l4.74,37.518c1.217,7.924,2.31,17.712,3.29,28.941" transform="translate(-61.94 -130.593)" fill="#fff"/>
            <path id="Path_893341" data-name="Path 893341" d="M183.256,339.614c10.226-2.35,20.79-1.964,31.191-2.384a131.489,131.489,0,0,0,15.469-1.672q1.536-.294,3.089-.541c.052-.01.073.076.018.087a102.324,102.324,0,0,1-24.785,3.189c-4.174.084-8.347.078-12.515.262a120.387,120.387,0,0,0-12.455,1.147.045.045,0,0,1-.013-.088" transform="translate(-77.643 -141.969)" fill="#1e1157"/>
            <path id="Path_893342" data-name="Path 893342" d="M183.573,348.893a333.261,333.261,0,0,0,49.381-7.02.044.044,0,0,1,.019.086c-1,.294-2,.577-3.013.841a193.508,193.508,0,0,1-30.762,5.48c-3.086.323-6.268.492-9.362.653-2.087.043-4.171.123-6.26.047a.044.044,0,0,1,0-.089" transform="translate(-77.775 -144.874)" fill="#1e1157"/>
            <path id="Path_893343" data-name="Path 893343" d="M225.662,308.172c.052,6.1-.2,12.552.5,18.609l-.081-.146a3.518,3.518,0,0,1,.888,3.068,6.3,6.3,0,0,1-1.113,2.531c-.783,1.93-.652,4.225-.819,6.3-.349,12.25.182,24.514.629,36.758-.647-12.245-1.293-24.5-1.025-36.772a27.291,27.291,0,0,1,.659-6.148,8.328,8.328,0,0,0,1.183-2.745,3.059,3.059,0,0,0-.764-2.626c-.987-6.2-.573-12.587-.054-18.83" transform="translate(-95.167 -130.593)" fill="#1e1157"/>
            <path id="Path_893344" data-name="Path 893344" d="M236.89,317.354a156.94,156.94,0,0,1-19.653,2.344c-3.291.241-6.587.348-9.883.474-3.3.092-6.593.129-9.89.152-3.3-.027-6.594-.058-9.89-.155-3.295-.124-6.592-.234-9.882-.475a157.7,157.7,0,0,1-19.653-2.34c6.539.742,13.117,1.068,19.69,1.311s13.156.316,19.735.312,13.159-.08,19.735-.312,13.151-.569,19.691-1.311" transform="translate(-66.971 -134.484)" fill="#de3142"/>
            <path id="Path_893345" data-name="Path 893345" d="M236.89,313.463c-8.45,1.015-22.952,1.687-39.426,1.687s-30.975-.671-39.426-1.687l.879-5.291c8.558.4,22.632.653,38.547.653s29.99-.255,38.548-.653Z" transform="translate(-66.971 -130.593)" fill="#ad1e33"/>
            <path id="Path_893346" data-name="Path 893346" d="M236.658,303.041c-8.558.4-22.632.653-38.547.653s-29.99-.256-38.548-.653l1.063-6.443c8.741-.327,23.226-.534,37.484-.534s28.742.207,37.484.534Z" transform="translate(-67.618 -125.462)" fill="#c6283f"/>
            <path id="Path_893347" data-name="Path 893347" d="M236.376,291.072c-8.741-.327-23.226-.535-37.485-.535s-28.742.208-37.484.535l1.11-6.687c8.658-.831,21.741-1.36,36.373-1.36s27.716.528,36.374,1.36Z" transform="translate(-68.4 -119.937)" fill="#ad1e33"/>
            <path id="Path_893348" data-name="Path 893348" d="M396.759,59.923a10.8,10.8,0,0,1-5.122-9.684s13.594,2.6,17.878,11.806c0,0-5.781,2.407-12.755-2.123" transform="translate(-165.954 -21.29)" fill="#1e1157"/>
            <path id="Path_893349" data-name="Path 893349" d="M421.949,28.633s-2.406,7.075-11.864,11.434l-15.6-8.228,8.077-18.391Z" transform="translate(-167.17 -5.699)" fill="#f48161"/>
            <path id="Path_893350" data-name="Path 893350" d="M411.707,5.144c1.162-4.444,6.7-5.838,9.034-4.53,1.2.67,3.735,3.86,5.162,5.723.668-.258,1.165-.256,2.244.694,1.284,1.132,1.6,4.09,1.6,4.09h0a17.192,17.192,0,0,1,3.5,3.473c.753,1.431.039,4.958-1.233,6.943-.636.992-1.638,2.527-4.651,1.88s-6.521,1.86-8.288.709-1.478-5.054-1.478-5.054-7.052-9.484-5.89-13.929" transform="translate(-174.413 -0.061)" fill="#f2bb07"/>
            <path id="Path_893351" data-name="Path 893351" d="M412.939,3.387A7.11,7.11,0,0,1,416.231.64,7.028,7.028,0,0,1,420.5.145a3.58,3.58,0,0,1,1.017.429,6.376,6.376,0,0,1,.842.7c.524.5,1.01,1.035,1.484,1.578.947,1.089,1.844,2.215,2.726,3.354l-.134-.037a1.747,1.747,0,0,1,.913-.139,2.157,2.157,0,0,1,.837.373,3.9,3.9,0,0,1,1.237,1.28,7.191,7.191,0,0,1,.657,1.641,11.7,11.7,0,0,1,.343,1.727.1.1,0,0,1-.085.109.127.127,0,0,1-.036,0l.085-.173c.789.647,1.563,1.314,2.29,2.034a9.606,9.606,0,0,1,1.017,1.157,2.77,2.77,0,0,1,.489,1.469,9.262,9.262,0,0,1-.352,3.045,10.426,10.426,0,0,1-1.193,2.82.059.059,0,0,1-.1-.055l0-.009a12.073,12.073,0,0,0,.838-2.877,10.618,10.618,0,0,0,.134-1.462,6.561,6.561,0,0,0-.068-1.4,2.839,2.839,0,0,0-.163-.595,1.717,1.717,0,0,0-.281-.449,9.249,9.249,0,0,0-.979-.984c-.735-.638-1.513-1.266-2.3-1.869a.961.961,0,0,1,.777-1.705l.056.012-1.187,1.045a10.836,10.836,0,0,0-.367-1.536,6.258,6.258,0,0,0-.568-1.365,2.127,2.127,0,0,0-.358-.459,4.234,4.234,0,0,0-.541-.427,1.051,1.051,0,0,0-.368-.176c-.029-.007-.084-.016-.3.063l-.038.014a1.037,1.037,0,0,1-1.184-.358c-.848-1.144-1.745-2.25-2.62-3.352-.443-.544-.9-1.079-1.362-1.558a7.731,7.731,0,0,0-.669-.626,2.53,2.53,0,0,0-.707-.357,6.65,6.65,0,0,0-3.812.169,7.19,7.19,0,0,0-3.425,2.254l-.007.008a.059.059,0,0,1-.094-.07" transform="translate(-174.987 0)" fill="#fff"/>
            <path id="Path_893352" data-name="Path 893352" d="M432.253,11.7a14.613,14.613,0,0,1-.236,3.856c-.105.637-.273,1.258-.441,1.881s-.4,1.226-.623,1.834a17.836,17.836,0,0,1-1.827,3.429,11.646,11.646,0,0,1-2.7,2.8l-.007,0a.044.044,0,0,1-.062-.009.045.045,0,0,1,0-.055,20.466,20.466,0,0,0,2.155-3.088,27.52,27.52,0,0,0,1.606-3.409,35.633,35.633,0,0,0,1.214-3.571,33.317,33.317,0,0,0,.826-3.682.044.044,0,0,1,.051-.037.045.045,0,0,1,.037.04Z" transform="translate(-180.675 -4.938)" fill="#1e1157"/>
            <path id="Path_893353" data-name="Path 893353" d="M437.521,22.25a8.817,8.817,0,0,1-.725,3.378,11.673,11.673,0,0,1-.787,1.558,8,8,0,0,1-.492.727,7.447,7.447,0,0,1-.538.7,12.9,12.9,0,0,1-1.25,1.246c-.226.19-.475.353-.711.528l-.358.256-.391.211a7.787,7.787,0,0,1-3.314,1.026h-.008a.044.044,0,0,1-.048-.04.045.045,0,0,1,.028-.045,12.327,12.327,0,0,0,5.374-3.76,15.691,15.691,0,0,0,3.133-5.8.044.044,0,0,1,.086.012Z" transform="translate(-181.754 -9.406)" fill="#1e1157"/>
            <path id="Path_893354" data-name="Path 893354" d="M422.894,4.582a8.1,8.1,0,0,1,2.319,3.928,20.889,20.889,0,0,1,.7,4.474l.092,1.056a3.133,3.133,0,0,0,.07.419c.009.044.032.075-.009.015a.526.526,0,0,0-.2-.156.6.6,0,0,0-.354-.039c-.136.038-.132.067-.129.059a.627.627,0,0,0,.075-.081,2.126,2.126,0,0,0,.221-.356,9.662,9.662,0,0,0,.4-.936L427.526,8.8l0-.009a.044.044,0,0,1,.085.021,32.427,32.427,0,0,1-.829,4.361,8.667,8.667,0,0,1-.364,1.056,3.17,3.17,0,0,1-.264.5.851.851,0,0,1-.459.388.3.3,0,0,1-.322-.131.942.942,0,0,1-.127-.276,3.693,3.693,0,0,1-.111-.557c-.05-.371-.075-.74-.1-1.109a29.607,29.607,0,0,0-.49-4.391,9.616,9.616,0,0,0-1.725-4.015.044.044,0,0,1,.064-.061Z" transform="translate(-179.175 -1.935)" fill="#1e1157"/>
            <path id="Path_893355" data-name="Path 893355" d="M394.462,30.675c-.414-6.422,3.571-11.91,3.571-11.91s1.435-6.073,2.859-7.178c1.9-1.476,6.317-.681,8.708-.605a1.287,1.287,0,0,1,1.192.913c.382,1.238.7,3.455-1.447,4.4a12.419,12.419,0,0,1-4.432.584l-.048,1.4s5.316,5.143,4.293,12.621l-3.467,5.7Z" transform="translate(-167.147 -4.535)" fill="#f48161"/>
            <path id="Path_893356" data-name="Path 893356" d="M418.445,12.727a4.738,4.738,0,0,1,.5,2.455,2.858,2.858,0,0,1-.428,1.307,3.385,3.385,0,0,1-1.008.992,6.933,6.933,0,0,1-2.5.834,16.485,16.485,0,0,1-2.524.181l.806-.743-.032,1.4-.239-.592a14.471,14.471,0,0,1,2.2,2.893,15.179,15.179,0,0,1,1.444,3.286c.186.569.29,1.163.418,1.744a14.485,14.485,0,0,1,.157,1.78c.007.3.013.593-.008.889l-.086.882a11.713,11.713,0,0,1-.337,1.719.044.044,0,0,1-.051.036.047.047,0,0,1-.037-.048,14.689,14.689,0,0,0,.022-3.423,15.712,15.712,0,0,0-.281-1.691c-.157-.55-.286-1.108-.5-1.64a16.352,16.352,0,0,0-1.479-3.086,16.578,16.578,0,0,0-2.074-2.715l0,0a.084.084,0,0,1-.023-.061l.053-1.4a.08.08,0,0,1,.083-.077,16.379,16.379,0,0,0,2.395-.087,6.413,6.413,0,0,0,2.288-.618,2.8,2.8,0,0,0,.891-.758,2.659,2.659,0,0,0,.459-1.078,5.029,5.029,0,0,0-.2-2.354.044.044,0,0,1,.082-.032Z" transform="translate(-174.758 -5.38)" fill="#1e1157"/>
            <path id="Path_893357" data-name="Path 893357" d="M405.669,53.592c-.851,3.6-2.881,8.188-4.17,12.2L384.061,55.576c2.522-4.292,4.885-8.225,6.007-10.214Z" transform="translate(-162.753 -19.223)" fill="#f48161"/>
            <path id="Path_893358" data-name="Path 893358" d="M347.761,63.888c-3.07,9.969-6.93,19.7-10.879,29.472-3.344,8.272-7.538,16.856-14.48,22.723-7.1,6-16.767,10.139-25.17,13.97-5.517,2.512-22.646,9.572-28.353,11.608-2.91,1.04-13.917,5.917-20.765-9.244-3.569-7.9-2.625-14.959,1.283-17.5,4.234-2.756,13.44-6.5,18.06-8.51,10.861-4.715,34.527-15.025,35.34-15.582,2.019-1.39,10.155-12.893,12.56-16.539,2.684-4.085,9.011-13.35,12.949-19.7,3.573,9.738,16.953,11.007,19.455,9.3" transform="translate(-104.2 -23.132)" fill="#fff"/>
            <path id="Path_893359" data-name="Path 893359" d="M299.555,183.506q-1.342,2.412-2.825,4.7c-.972,1.537-1.986,3.04-2.964,4.549-.464.762-.983,1.508-1.383,2.263a6.375,6.375,0,0,0-.482,1.091c-.126.387-.216.825-.308,1.254-.2.866-.353,1.758-.535,2.649-.082.447-.2.892-.288,1.341s-.187.9-.3,1.347l0,.009a.044.044,0,0,1-.086-.013c.089-1.82.214-3.639.47-5.447.073-.451.142-.9.259-1.348a5.7,5.7,0,0,1,.513-1.28,27.248,27.248,0,0,1,1.413-2.346c2.031-3.029,4.224-5.94,6.452-8.822a.044.044,0,0,1,.074.049Z" transform="translate(-123.053 -77.734)" fill="#1e1157"/>
            <path id="Path_893360" data-name="Path 893360" d="M344.1,119.71a27.384,27.384,0,0,0,1.89,4.549,25.8,25.8,0,0,0,2.553,4.138,15.6,15.6,0,0,0,3.3,3.354,6.8,6.8,0,0,0,.928.545,5.352,5.352,0,0,0,1.032.283,9.731,9.731,0,0,0,2.274.149,4.458,4.458,0,0,0,1.03-.157.5.5,0,0,0,.365-.857,3.969,3.969,0,0,0-.56-.844,23.837,23.837,0,0,0-3.647-3.086c-.657-.5-1.346-.972-2-1.571-.623-.584-1.2-1.178-1.771-1.789-1.1-1.25-2.211-2.485-3.236-3.8l0,0a.044.044,0,0,1,.067-.058c1.149,1.191,2.31,2.371,3.5,3.524.595.574,1.195,1.145,1.821,1.681s1.33.974,2.01,1.444a21.848,21.848,0,0,1,3.886,3.1,4.431,4.431,0,0,1,.71,1.041,1.692,1.692,0,0,1,.124,1.265,1.469,1.469,0,0,1-1,.783,5.267,5.267,0,0,1-1.242.208,10.414,10.414,0,0,1-2.492-.183,6.161,6.161,0,0,1-1.208-.35,6.917,6.917,0,0,1-1.077-.647,15.218,15.218,0,0,1-3.382-3.64,25.9,25.9,0,0,1-3.958-9.067.044.044,0,0,1,.085-.024Z" transform="translate(-145.782 -50.714)" fill="#1e1157"/>
            <path id="Path_893361" data-name="Path 893361" d="M380.84,67.144a19.135,19.135,0,0,0,1.648,2.759,21.913,21.913,0,0,0,2,2.473,19.257,19.257,0,0,0,4.972,3.851,16.774,16.774,0,0,0,2.884,1.26c.493.188,1,.313,1.511.461.516.108,1.027.251,1.55.332a30.017,30.017,0,0,0,6.39.38,20.383,20.383,0,0,1-6.493.308,17.1,17.1,0,0,1-11.335-6.134,16.572,16.572,0,0,1-3.133-5.69" transform="translate(-161.388 -28.453)" fill="#1e1157"/>
            <path id="Path_893362" data-name="Path 893362" d="M288.879,177.763a2.195,2.195,0,0,1-.5-.46,3.43,3.43,0,0,1-.362-.565,3.771,3.771,0,0,1-.232-.59,29.626,29.626,0,0,0-.848-7.833,46.687,46.687,0,0,0-2.5-7.5,48.563,48.563,0,0,0-3.682-6.989,28.143,28.143,0,0,0-5.014-6.065,31.211,31.211,0,0,1,4.7,6.26,54.076,54.076,0,0,1,3.477,7.012,51.509,51.509,0,0,1,2.429,7.426,33.892,33.892,0,0,1,1.044,7.749,2.994,2.994,0,0,0,.335.7,2.751,2.751,0,0,0,.477.566,2.382,2.382,0,0,0,.61.406,2.091,2.091,0,0,0,.692.184,2.431,2.431,0,0,1-.628-.3" transform="translate(-116.852 -62.616)" fill="#1e1157"/>
            <path id="Path_893363" data-name="Path 893363" d="M43.005,59.923a10.8,10.8,0,0,0,5.122-9.684s-13.594,2.6-17.878,11.806c0,0,5.781,2.407,12.755-2.123" transform="translate(-12.819 -21.29)" fill="#1e1157"/>
            <path id="Path_893364" data-name="Path 893364" d="M10.78,28.633s2.406,7.075,11.863,11.434l15.6-8.228L30.168,13.448Z" transform="translate(-4.568 -5.699)" fill="#f48161"/>
            <path id="Path_893365" data-name="Path 893365" d="M25.059,5.144C23.9.7,18.359-.695,16.025.613c-1.2.67-3.735,3.86-5.161,5.723-.668-.258-1.166-.256-2.245.694-1.284,1.132-1.6,4.09-1.6,4.09h0a17.222,17.222,0,0,0-3.5,3.473c-.753,1.431-.038,4.958,1.233,6.943.636.992,1.639,2.527,4.651,1.88s6.521,1.86,8.288.709,1.478-5.054,1.478-5.054,7.052-9.484,5.89-13.929" transform="translate(-1.361 -0.061)" fill="#f2bb07"/>
            <path id="Path_893366" data-name="Path 893366" d="M24.244,3.45A7.189,7.189,0,0,0,20.818,1.2a6.643,6.643,0,0,0-3.811-.169,2.522,2.522,0,0,0-.707.356,7.739,7.739,0,0,0-.669.626c-.466.479-.92,1.014-1.362,1.558-.875,1.1-1.772,2.208-2.62,3.353a1.037,1.037,0,0,1-1.182.359l-.039-.014c-.22-.079-.273-.07-.3-.063a1.06,1.06,0,0,0-.368.176,4.228,4.228,0,0,0-.539.428,2.112,2.112,0,0,0-.36.459A6.277,6.277,0,0,0,8.29,9.629a10.8,10.8,0,0,0-.366,1.535l-1.2-1.042.055-.012a.961.961,0,0,1,.788,1.7c-.789.6-1.567,1.231-2.3,1.869a9.268,9.268,0,0,0-.98.984,1.728,1.728,0,0,0-.28.449,2.778,2.778,0,0,0-.163.6,6.553,6.553,0,0,0-.069,1.4,10.518,10.518,0,0,0,.134,1.462,12.149,12.149,0,0,0,.837,2.878l0,.009a.059.059,0,0,1-.031.078.061.061,0,0,1-.073-.023,10.429,10.429,0,0,1-1.193-2.821A9.243,9.243,0,0,1,3.1,15.643a2.77,2.77,0,0,1,.489-1.469,9.381,9.381,0,0,1,1.017-1.157c.727-.72,1.5-1.388,2.289-2.034l.086.173a.1.1,0,0,1-.12-.069.105.105,0,0,1,0-.037,11.947,11.947,0,0,1,.343-1.728,7.244,7.244,0,0,1,.657-1.642A3.9,3.9,0,0,1,9.1,6.4a2.163,2.163,0,0,1,.837-.373,1.752,1.752,0,0,1,.913.139l-.133.037C11.6,5.066,12.5,3.94,13.442,2.851c.475-.542.96-1.078,1.484-1.578a6.294,6.294,0,0,1,.841-.7A3.578,3.578,0,0,1,16.785.146a7.023,7.023,0,0,1,4.269.495,7.111,7.111,0,0,1,3.292,2.747.059.059,0,0,1-.019.081.058.058,0,0,1-.075-.012Z" transform="translate(-1.306 0)" fill="#fff"/>
            <path id="Path_893367" data-name="Path 893367" d="M16.4,11.692a33.175,33.175,0,0,0,.825,3.682,35.78,35.78,0,0,0,1.215,3.571,27.479,27.479,0,0,0,1.606,3.409A20.465,20.465,0,0,0,22.2,25.442a.044.044,0,0,1-.061.064L22.13,25.5a11.633,11.633,0,0,1-2.7-2.8,17.772,17.772,0,0,1-1.827-3.429c-.221-.607-.449-1.212-.623-1.834s-.335-1.244-.441-1.881a14.612,14.612,0,0,1-.236-3.856V11.7a.044.044,0,0,1,.047-.04.044.044,0,0,1,.04.037" transform="translate(-6.894 -4.939)" fill="#1e1157"/>
            <path id="Path_893368" data-name="Path 893368" d="M9.152,22.229a15.691,15.691,0,0,0,3.133,5.8,12.305,12.305,0,0,0,5.374,3.76.044.044,0,0,1,.025.058.044.044,0,0,1-.045.028h-.008a7.789,7.789,0,0,1-3.314-1.026l-.39-.211-.359-.256c-.235-.176-.485-.339-.71-.528a13.025,13.025,0,0,1-1.25-1.247,7.452,7.452,0,0,1-.537-.7,7.845,7.845,0,0,1-.492-.727,11.789,11.789,0,0,1-.788-1.558,8.815,8.815,0,0,1-.724-3.378v-.009a.044.044,0,0,1,.086-.012" transform="translate(-3.842 -9.406)" fill="#1e1157"/>
            <path id="Path_893369" data-name="Path 893369" d="M26.573,4.638a9.627,9.627,0,0,0-1.725,4.015,29.686,29.686,0,0,0-.49,4.391c-.023.369-.048.739-.1,1.109a3.59,3.59,0,0,1-.111.557.941.941,0,0,1-.127.276.305.305,0,0,1-.322.131.85.85,0,0,1-.459-.388,3.192,3.192,0,0,1-.264-.5,8.7,8.7,0,0,1-.364-1.056,32.4,32.4,0,0,1-.829-4.361.045.045,0,0,1,.038-.05.043.043,0,0,1,.047.029l0,.009,1.449,4.166a9.583,9.583,0,0,0,.4.937,2.117,2.117,0,0,0,.22.356.733.733,0,0,0,.075.081c0,.009.007-.021-.129-.059a.592.592,0,0,0-.353.039.535.535,0,0,0-.2.157c-.041.059-.018.028-.009-.016a3.1,3.1,0,0,0,.07-.419l.093-1.056a20.85,20.85,0,0,1,.7-4.475A8.1,8.1,0,0,1,26.5,4.582l.006-.005a.044.044,0,0,1,.062,0,.045.045,0,0,1,0,.056" transform="translate(-9.231 -1.935)" fill="#1e1157"/>
            <path id="Path_893370" data-name="Path 893370" d="M46.231,30.675c.414-6.422-3.571-11.91-3.571-11.91s-1.435-6.073-2.859-7.178c-1.9-1.476-6.317-.681-8.708-.605a1.289,1.289,0,0,0-1.192.913c-.381,1.238-.7,3.455,1.447,4.4a12.419,12.419,0,0,0,4.432.584l.048,1.4S30.512,23.421,31.535,30.9L35,36.6Z" transform="translate(-12.554 -4.535)" fill="#f48161"/>
            <path id="Path_893371" data-name="Path 893371" d="M29.738,12.754a5.029,5.029,0,0,0-.2,2.354A2.668,2.668,0,0,0,30,16.186a2.8,2.8,0,0,0,.891.758,6.4,6.4,0,0,0,2.289.618,16.375,16.375,0,0,0,2.394.088.079.079,0,0,1,.083.076l.053,1.4a.083.083,0,0,1-.023.061l0,0A16.548,16.548,0,0,0,33.607,21.9a16.38,16.38,0,0,0-1.479,3.086c-.21.533-.34,1.091-.5,1.641a15.705,15.705,0,0,0-.28,1.69,14.663,14.663,0,0,0,.022,3.423.045.045,0,0,1-.04.048.046.046,0,0,1-.048-.036,11.719,11.719,0,0,1-.337-1.719l-.086-.882c-.021-.3-.015-.591-.008-.888a14.488,14.488,0,0,1,.157-1.781c.128-.581.232-1.174.418-1.744a15.165,15.165,0,0,1,1.444-3.286,14.457,14.457,0,0,1,2.2-2.893l-.239.592-.032-1.4.806.743a16.546,16.546,0,0,1-2.523-.181,6.933,6.933,0,0,1-2.5-.835,3.388,3.388,0,0,1-1.008-.992,2.854,2.854,0,0,1-.428-1.307,4.741,4.741,0,0,1,.5-2.456l0-.005a.044.044,0,0,1,.082.032" transform="translate(-12.348 -5.381)" fill="#1e1157"/>
            <path id="Path_893372" data-name="Path 893372" d="M31.368,53.592c.851,3.6,2.881,8.188,4.17,12.2L52.976,55.576c-2.522-4.292-4.884-8.225-6.007-10.214Z" transform="translate(-13.293 -19.223)" fill="#f48161"/>
            <path id="Path_893373" data-name="Path 893373" d="M30.25,63.888c3.07,9.969,6.93,19.7,10.879,29.472,3.343,8.272,7.538,16.856,14.48,22.723,7.1,6,16.767,10.139,25.17,13.97,5.517,2.512,22.647,9.572,28.354,11.608,2.91,1.04,13.917,5.917,20.765-9.244,3.569-7.9,2.625-14.959-1.283-17.5-4.234-2.756-13.439-6.5-18.06-8.51-10.861-4.715-34.527-15.025-35.34-15.582-2.019-1.39-10.155-12.893-12.56-16.539-2.684-4.085-9.011-13.35-12.949-19.7-3.573,9.738-16.953,11.007-19.455,9.3" transform="translate(-12.819 -23.132)" fill="#fff"/>
            <path id="Path_893374" data-name="Path 893374" d="M146.687,183.452a47.223,47.223,0,0,1,3.737,4.035,52.5,52.5,0,0,1,3.3,4.4,23.272,23.272,0,0,1,1.441,2.411,5.483,5.483,0,0,1,.542,1.433,14.227,14.227,0,0,1,.219,1.425,25.606,25.606,0,0,1-.138,5.54v.007a.044.044,0,0,1-.088,0c-.105-1.816-.248-3.634-.519-5.43a7.22,7.22,0,0,0-.78-2.573c-.42-.8-.926-1.56-1.411-2.328-2-3.037-4.174-5.965-6.379-8.861a.044.044,0,0,1,.009-.062.044.044,0,0,1,.057,0Z" transform="translate(-62.127 -77.734)" fill="#1e1157"/>
            <path id="Path_893375" data-name="Path 893375" d="M97.783,119.728a21.416,21.416,0,0,1-1.212,4.869,26.4,26.4,0,0,1-2.284,4.521,15.576,15.576,0,0,1-1.532,2.063,12.565,12.565,0,0,1-1.913,1.811,6.95,6.95,0,0,1-1.2.728,6.761,6.761,0,0,1-1.351.4,10.957,10.957,0,0,1-2.667.206,6.009,6.009,0,0,1-1.415-.246,2.966,2.966,0,0,1-.767-.365,1.772,1.772,0,0,1-.68-.852,2.372,2.372,0,0,1,.15-1.793,4.785,4.785,0,0,1,.83-1.2,13.772,13.772,0,0,1,1.984-1.717c.682-.511,1.393-.959,2.1-1.4s1.418-.859,2.027-1.335c.632-.5,1.249-1.046,1.869-1.588,1.267-1.062,2.478-2.193,3.746-3.268l0,0a.045.045,0,0,1,.061.065c-1.144,1.2-2.3,2.383-3.484,3.542-.594.578-1.191,1.152-1.82,1.7s-1.336.988-2.015,1.461a21.716,21.716,0,0,0-3.845,3.1,4.28,4.28,0,0,0-.68,1.006,1.534,1.534,0,0,0-.115,1.142,1.312,1.312,0,0,0,.9.676,5.15,5.15,0,0,0,1.2.195,10.341,10.341,0,0,0,2.45-.171,5.916,5.916,0,0,0,1.175-.334,6.743,6.743,0,0,0,1.051-.626,15.074,15.074,0,0,0,3.363-3.589A25.782,25.782,0,0,0,97.7,119.71a.044.044,0,0,1,.053-.033.045.045,0,0,1,.035.048Z" transform="translate(-35.024 -50.714)" fill="#1e1157"/>
            <path id="Path_893376" data-name="Path 893376" d="M56.673,67.144a16.572,16.572,0,0,1-3.133,5.69,17.1,17.1,0,0,1-11.334,6.134,20.384,20.384,0,0,1-6.493-.308,30.014,30.014,0,0,0,6.39-.38c.523-.081,1.034-.225,1.55-.332.507-.148,1.019-.273,1.511-.461a16.775,16.775,0,0,0,2.884-1.26,19.257,19.257,0,0,0,4.972-3.851,21.912,21.912,0,0,0,2-2.473,19.135,19.135,0,0,0,1.648-2.759" transform="translate(-15.134 -28.453)" fill="#1e1157"/>
            <path id="Path_893377" data-name="Path 893377" d="M153.929,177.763a2.2,2.2,0,0,0,.5-.46,3.432,3.432,0,0,0,.362-.565,3.766,3.766,0,0,0,.232-.59,29.628,29.628,0,0,1,.848-7.833,46.69,46.69,0,0,1,2.5-7.5,48.563,48.563,0,0,1,3.682-6.989,28.143,28.143,0,0,1,5.014-6.065,31.212,31.212,0,0,0-4.7,6.26,54.077,54.077,0,0,0-3.477,7.012,51.5,51.5,0,0,0-2.429,7.426,33.891,33.891,0,0,0-1.044,7.749,3.016,3.016,0,0,1-.334.7,2.772,2.772,0,0,1-.477.566,2.383,2.383,0,0,1-.61.406,2.091,2.091,0,0,1-.692.184,2.431,2.431,0,0,0,.628-.3" transform="translate(-64.964 -62.616)" fill="#1e1157"/>
            <path id="Path_893378" data-name="Path 893378" d="M216.2,147.752c-3.489,0-13.942,0-13.942,0l-.009,6.983h27.9l-.009-6.983s-10.453,0-13.942,0" transform="translate(-85.707 -62.613)" fill="#1e1157"/>
            <path id="Path_893379" data-name="Path 893379" d="M229.282,153.67l-10.66,6.5-10.66-6.5.783-11.679H228.5Z" transform="translate(-88.127 -60.171)" fill="#f48161"/>
          </g>
        </g>
        <g id="Group_1116895" data-name="Group 1116895" transform="translate(119.834 81.82)">
          <g id="Group_1116894" data-name="Group 1116894" clip-path="url(#clip-path-5)">
            <path id="Path_893380" data-name="Path 893380" d="M231.505,149.013c-.862.071-1.76.113-2.686.113-8.5,0-15.981-3.343-16.723-7.463a3.263,3.263,0,0,1-.05-.445h18.935Z" transform="translate(-209.693 -141.664)" fill="#1e1157"/>
          </g>
        </g>
        <g id="Group_1116897" data-name="Group 1116897">
          <g id="Group_1116896" data-name="Group 1116896" clip-path="url(#clip-path)">
            <path id="Path_893382" data-name="Path 893382" d="M233.045,159.283l-6.583,8.215,10.614-4.35Z" transform="translate(-95.967 -67.499)" fill="#1e1157"/>
            <path id="Path_893383" data-name="Path 893383" d="M212.072,159.284l-4.03,3.865,10.614,4.35Z" transform="translate(-88.161 -67.499)" fill="#1e1157"/>
            <path id="Path_893384" data-name="Path 893384" d="M248.108,160.879a11.5,11.5,0,0,1-4.454,4.335l-2.18-7.239a13.875,13.875,0,0,0,.968-1.484Z" transform="translate(-102.329 -66.315)" fill="#1e1157"/>
            <path id="Path_893385" data-name="Path 893385" d="M231.077,163.578l2.118,4.273a13.478,13.478,0,0,0,6.053-1.545l-2.181-7.243a13.267,13.267,0,0,1-5.99,4.515" transform="translate(-97.923 -67.406)" fill="#de3142"/>
            <path id="Path_893386" data-name="Path 893386" d="M199.937,160.879a11.5,11.5,0,0,0,4.454,4.335l2.18-7.239a13.875,13.875,0,0,1-.968-1.484Z" transform="translate(-84.727 -66.315)" fill="#1e1157"/>
            <path id="Path_893387" data-name="Path 893387" d="M215.837,163.578l-2.118,4.273a13.478,13.478,0,0,1-6.053-1.545l2.181-7.243a13.267,13.267,0,0,0,5.99,4.515" transform="translate(-88.002 -67.406)" fill="#de3142"/>
            <path id="Path_893388" data-name="Path 893388" d="M207.815,172.418s-7.273,5.409-9.119,8.221-8.884,11.681-8.306,26.07a48.7,48.7,0,0,0,9.693-9.837,13.691,13.691,0,0,0,2.541-7.344,50.568,50.568,0,0,0,4.076-8.5,20.607,20.607,0,0,0,1.116-8.615" transform="translate(-80.667 -73.065)" fill="#de3142"/>
            <path id="Path_893389" data-name="Path 893389" d="M213.568,181.543a26.834,26.834,0,0,1-.794,2.929c-.3.957-.655,1.894-1.01,2.828-.375.927-.744,1.854-1.166,2.764a30.29,30.29,0,0,1-1.367,2.706l0,.006a.031.031,0,0,1-.043.012.033.033,0,0,1-.014-.037c.605-1.915,1.282-3.807,2-5.682q1.11-2.8,2.337-5.552a.032.032,0,0,1,.042-.016.033.033,0,0,1,.018.036Z" transform="translate(-88.639 -76.913)" fill="#1e1157"/>
            <path id="Path_893390" data-name="Path 893390" d="M197.7,200.924c.112-.949.333-1.874.536-2.805q.356-1.382.791-2.745c.266-.918.645-1.794,1-2.682l.564-1.317.614-1.3c.211-.429.461-.84.7-1.256s.471-.835.742-1.233l.788-1.205c.283-.39.584-.767.886-1.14.286-.385.647-.716.966-1.074l.493-.526c.174-.166.357-.324.539-.481a12.608,12.608,0,0,1,1.132-.892c.4-.267.806-.521,1.212-.764a.031.031,0,0,1,.044.009.033.033,0,0,1-.008.043,18.686,18.686,0,0,0-3.984,3.982,32.451,32.451,0,0,0-2.943,4.826,48.687,48.687,0,0,0-2.275,5.183,54.305,54.305,0,0,0-1.73,5.392.032.032,0,0,1-.062-.012Z" transform="translate(-83.78 -76.913)" fill="#1e1157"/>
            <path id="Path_893391" data-name="Path 893391" d="M232.217,172.418s7.273,5.409,9.119,8.221,8.884,11.681,8.306,26.07a48.7,48.7,0,0,1-9.693-9.837,13.691,13.691,0,0,1-2.541-7.344,50.564,50.564,0,0,1-4.076-8.5,20.607,20.607,0,0,1-1.116-8.615" transform="translate(-98.376 -73.065)" fill="#de3142"/>
            <path id="Path_893392" data-name="Path 893392" d="M236.175,181.517a19.1,19.1,0,0,1,1.574,2.608c.465.9.862,1.824,1.238,2.759a23.256,23.256,0,0,1,1.528,5.867v.006a.031.031,0,0,1-.028.035.031.031,0,0,1-.033-.021c-.625-1.907-1.321-3.79-2.059-5.655q-1.08-2.809-2.277-5.572a.032.032,0,0,1,.055-.032Z" transform="translate(-100.058 -76.913)" fill="#1e1157"/>
            <path id="Path_893393" data-name="Path 893393" d="M247.06,200.938c-.349-.884-.668-1.771-1.04-2.64-.337-.879-.685-1.754-1.064-2.612-.742-1.723-1.459-3.454-2.354-5.092a36.961,36.961,0,0,0-2.807-4.816c-.238-.4-.546-.749-.818-1.127l-.422-.557c-.149-.178-.313-.341-.465-.517a12.377,12.377,0,0,0-.938-1.042c-.345-.313-.685-.641-1.023-.978l0,0a.031.031,0,0,1,0-.044.032.032,0,0,1,.04,0,18.759,18.759,0,0,1,4.024,3.977,32.56,32.56,0,0,1,2.98,4.825,48.575,48.575,0,0,1,2.251,5.207,54.312,54.312,0,0,1,1.7,5.41.032.032,0,0,1-.022.039.032.032,0,0,1-.037-.019Z" transform="translate(-100.058 -76.913)" fill="#1e1157"/>
            <path id="Path_893394" data-name="Path 893394" d="M227.332,163.18c-.761-.733-2.671-1.062-4.984-1.062-1.642,0-3.986.169-4.984,1.062-1.613,1.443.133,7.488,1.955,8.522a18.678,18.678,0,0,0,6.057,0c1.822-1.035,3.515-7.021,1.956-8.522" transform="translate(-91.842 -68.7)" fill="#de3142"/>
            <path id="Path_893395" data-name="Path 893395" d="M231.7,172.434a4.478,4.478,0,0,0,1.4-1.814,11.463,11.463,0,0,0,.784-2.188,10.321,10.321,0,0,0,.35-2.295,3.142,3.142,0,0,0-.58-2.175.032.032,0,0,1,0-.045.032.032,0,0,1,.041,0,1.517,1.517,0,0,1,.456.432l.183.272.131.291a4.049,4.049,0,0,1,.266,1.234,7.8,7.8,0,0,1-.234,2.446,8.271,8.271,0,0,1-.95,2.251,3.659,3.659,0,0,1-1.813,1.647h0a.032.032,0,0,1-.028-.056" transform="translate(-98.181 -69.459)" fill="#1e1157"/>
            <path id="Path_893396" data-name="Path 893396" d="M217.039,163.962a1.929,1.929,0,0,0-.515,1.01,4.882,4.882,0,0,0-.093,1.155,10,10,0,0,0,.361,2.3,11.72,11.72,0,0,0,.791,2.193,4.382,4.382,0,0,0,1.4,1.814.031.031,0,0,1-.027.056h0a3.626,3.626,0,0,1-1.821-1.647,8.434,8.434,0,0,1-.958-2.253,7.613,7.613,0,0,1-.248-2.451,4.3,4.3,0,0,1,.266-1.24,1.906,1.906,0,0,1,.8-.982l.007,0a.032.032,0,0,1,.042.014.031.031,0,0,1-.006.036" transform="translate(-91.496 -69.459)" fill="#1e1157"/>
            <path id="Path_893397" data-name="Path 893397" d="M222.469,165.638a11.886,11.886,0,0,0,.182,4.135,8.48,8.48,0,0,0,.682,1.954,6.871,6.871,0,0,0,1.211,1.677.032.032,0,0,1,0,.044.031.031,0,0,1-.036.006l-.007,0a4.4,4.4,0,0,1-1.611-1.492,6.438,6.438,0,0,1-.858-2.044,7.667,7.667,0,0,1-.153-2.181,5.76,5.76,0,0,1,.528-2.1l0-.007a.032.032,0,0,1,.042-.015.033.033,0,0,1,.017.032" transform="translate(-94.015 -70.177)" fill="#1e1157"/>
            <path id="Path_893398" data-name="Path 893398" d="M229.523,162.353a6.757,6.757,0,0,1,.406,1.956,9.468,9.468,0,0,1-.067,1.985,6.978,6.978,0,0,1-.568,1.945,2.926,2.926,0,0,1-1.374,1.528l-.009,0a.032.032,0,0,1-.041-.017.031.031,0,0,1,.008-.035,3.716,3.716,0,0,0,.943-1.641,10.612,10.612,0,0,0,.412-1.876,22.528,22.528,0,0,0,.226-3.847.031.031,0,0,1,.06-.012Z" transform="translate(-96.563 -68.788)" fill="#1e1157"/>
            <path id="Path_893399" data-name="Path 893399" d="M200.652,147.758l-1.964,5.134a25.726,25.726,0,0,0,.6,9.888l8.725-8.382Z" transform="translate(-84.1 -62.615)" fill="#fff"/>
            <path id="Path_893400" data-name="Path 893400" d="M198.309,156.641a28.8,28.8,0,0,0-.179,4.968,19.976,19.976,0,0,0,.812,4.888l-.14-.036,8.754-8.354a.044.044,0,0,1,.062,0,.044.044,0,0,1,0,.056l0,.006c-.3.414-.617.814-.941,1.2s-.637.792-.966,1.177c-.659.77-1.338,1.518-2.024,2.259s-1.388,1.466-2.106,2.175-1.429,1.423-2.173,2.1l-.956.875-.343-1.208a15.031,15.031,0,0,1-.521-2.553,17.407,17.407,0,0,1-.123-2.565,19.305,19.305,0,0,1,.21-2.537,17.625,17.625,0,0,1,.546-2.476l0-.006a.044.044,0,0,1,.086.02" transform="translate(-83.676 -66.358)" fill="#1e1157"/>
            <path id="Path_893401" data-name="Path 893401" d="M245.245,147.758l1.964,5.134a25.726,25.726,0,0,1-.6,9.888l-8.725-8.382Z" transform="translate(-100.809 -62.615)" fill="#fff"/>
            <path id="Path_893402" data-name="Path 893402" d="M247.221,156.628a17.59,17.59,0,0,1,.545,2.476,19.2,19.2,0,0,1,.21,2.537,17.486,17.486,0,0,1-.122,2.565,15.026,15.026,0,0,1-.521,2.553l-.343,1.208-.956-.875c-.744-.681-1.452-1.4-2.172-2.1s-1.411-1.443-2.106-2.175-1.365-1.49-2.024-2.259c-.329-.385-.644-.785-.966-1.177s-.64-.789-.941-1.2l0-.006a.044.044,0,0,1,.066-.058l8.754,8.354-.14.036a20.04,20.04,0,0,0,.812-4.888,28.8,28.8,0,0,0-.179-4.968.045.045,0,0,1,.039-.05.044.044,0,0,1,.047.03Z" transform="translate(-100.777 -66.358)" fill="#1e1157"/>
            <path id="Path_893403" data-name="Path 893403" d="M230.14,43.963c-5.275-1.275-15.732,3.593-19.993,4.778-2.976.824-6.246,1.951-9.828,1.951s-6.852-1.127-9.828-1.951c-4.262-1.185-14.718-6.053-19.994-4.778-7.556,1.826-5.753,11.485-4.946,13.979,3.4,10.532,20.18,17.5,34.768,17.5s31.362-6.968,34.767-17.5c.806-2.493,2.61-12.153-4.946-13.979" transform="translate(-69.823 -18.541)" fill="#fff"/>
            <path id="Path_893404" data-name="Path 893404" d="M231.076,83.209a45.259,45.259,0,0,1-14.057,5.236,46.177,46.177,0,0,1-19.228,0,45.259,45.259,0,0,1-14.057-5.236l-2.245-2.272c4.777,3.563,10.653,5.629,16.451,6.784a48.512,48.512,0,0,0,18.93,0c5.8-1.155,11.673-3.221,16.45-6.784Z" transform="translate(-76.909 -34.298)" fill="#1e1157"/>
            <path id="Path_893405" data-name="Path 893405" d="M175.014,102.134c2.843,3.464,7.464,3.958,10.284,1.1,2.8-2.844,2.734-7.9-.116-11.284-2.828-3.358-7.357-3.833-10.153-1.067-2.814,2.783-2.836,7.819-.016,11.256" transform="translate(-73.273 -37.749)" fill="#f48161"/>
            <path id="Path_893406" data-name="Path 893406" d="M179.373,96.786s6.079-.648,6.737,6.275Z" transform="translate(-76.012 -41.008)" fill="#1e1157"/>
            <path id="Path_893407" data-name="Path 893407" d="M267.286,102.134c-2.843,3.464-7.464,3.958-10.284,1.1-2.8-2.844-2.734-7.9.116-11.284,2.828-3.358,7.357-3.833,10.153-1.067,2.813,2.783,2.836,7.819.016,11.256" transform="translate(-108.035 -37.749)" fill="#f48161"/>
            <path id="Path_893408" data-name="Path 893408" d="M268.6,96.786s-6.08-.648-6.737,6.275Z" transform="translate(-110.969 -41.008)" fill="#1e1157"/>
            <path id="Path_893409" data-name="Path 893409" d="M211.56,107.819h0A20.208,20.208,0,0,1,191.3,87.276l.384-16.767c.24-10.5,9.182-18.9,19.877-18.9s19.636,8.4,19.877,18.9l.384,16.767a20.208,20.208,0,0,1-20.26,20.543" transform="translate(-81.065 -21.869)" fill="#f48161"/>
            <path id="Path_893410" data-name="Path 893410" d="M230.118,95.766l.388,1.688c.133.539.282,1.054.443,1.546a8.59,8.59,0,0,0,.625,1.358,5.688,5.688,0,0,0,.882,1.121l.12.129a.661.661,0,0,1-.031.935l-.017.015c-.207.182-.426.351-.651.515s-.444.332-.68.485a9.7,9.7,0,0,1-1.482.846l-.014.006a.043.043,0,0,1-.057-.021.044.044,0,0,1,.009-.048L231.971,102l.007.11a4.971,4.971,0,0,1-1.167-1.294,6.366,6.366,0,0,1-.643-1.617,9.509,9.509,0,0,1-.139-3.445.043.043,0,0,1,.084,0Z" transform="translate(-97.314 -40.561)" fill="#1e1157"/>
            <path id="Path_893411" data-name="Path 893411" d="M221.59,113.9c-2.962,0-5.518.52-6.627,1.269a7.225,7.225,0,0,0,13.255,0c-1.109-.749-3.665-1.269-6.627-1.269" transform="translate(-91.094 -48.268)" fill="#1e1157"/>
            <path id="Path_893412" data-name="Path 893412" d="M227.975,114.729a10.346,10.346,0,0,1-11.456,0,20.376,20.376,0,0,1,11.456,0" transform="translate(-91.754 -48.27)" fill="#fff"/>
            <path id="Path_893413" data-name="Path 893413" d="M206.845,95.752a4.758,4.758,0,0,1,.791-2.862,2.788,2.788,0,0,1,1.192-.952,3.4,3.4,0,0,1,1.507-.236,3.1,3.1,0,0,1,1.456.46,3.482,3.482,0,0,1,1.07,1.078,6.139,6.139,0,0,1,.9,2.832l-.148.012a13.441,13.441,0,0,0-1.729-2.2,2.494,2.494,0,0,0-1.645-.706,3.134,3.134,0,0,0-.879.07,2.028,2.028,0,0,0-.769.352,7.621,7.621,0,0,0-1.6,2.146Z" transform="translate(-87.654 -38.858)" fill="#1e1157"/>
            <path id="Path_893414" data-name="Path 893414" d="M240.845,95.749a7.636,7.636,0,0,0-1.6-2.146,2.013,2.013,0,0,0-.768-.352,3.11,3.11,0,0,0-.879-.07,2.5,2.5,0,0,0-1.646.706,13.5,13.5,0,0,0-1.728,2.2l-.148-.012a6.141,6.141,0,0,1,.9-2.832,3.484,3.484,0,0,1,1.07-1.078,3.1,3.1,0,0,1,1.456-.46,3.41,3.41,0,0,1,1.506.236,2.782,2.782,0,0,1,1.192.952,4.758,4.758,0,0,1,.792,2.862Z" transform="translate(-99.193 -38.858)" fill="#1e1157"/>
            <path id="Path_893415" data-name="Path 893415" d="M225.028,126.908a5.8,5.8,0,0,0-1.948.364,2.429,2.429,0,0,0,3.9,0,5.8,5.8,0,0,0-1.948-.364" transform="translate(-94.534 -53.78)" fill="#1e1157"/>
            <path id="Path_893416" data-name="Path 893416" d="M211.443,50.262h0c-10.989,0-20.178,8.635-20.425,19.424l.43,5.406h0s3.024-3.746,3.582-7.492c.5-3.391,2.534-6.535,7.526-7.007.451-.043,1.4-.078,2.167-.1a6.356,6.356,0,0,0,1.159,4.194l4.47-4.224-.532,4.44,5.61-4.44-1.871,4.368s5.509-1.135,6.838-4.246l0,.008c4.959.744,6.951,3.616,7.452,7.007.558,3.746,3.582,7.492,3.582,7.492h0l.43-5.406c-.247-10.789-9.436-19.424-20.425-19.424" transform="translate(-80.947 -21.299)" fill="#1e1157"/>
            <path id="Path_893417" data-name="Path 893417" d="M230.958,38.383c-3.848,1.187-7.64,2.61-11.555,3.561a19.706,19.706,0,0,1-10.876,0c-3.92-.951-7.712-2.374-11.56-3.561l1.166-7.871c-.159-3.468,6.931-6.325,15.83-6.325s15.989,2.857,15.835,6.325Z" transform="translate(-83.468 -10.25)" fill="#fff"/>
          </g>
        </g>
        <g id="Group_1116899" data-name="Group 1116899" transform="translate(113.499 13.937)">
          <g id="Group_1116898" data-name="Group 1116898" clip-path="url(#clip-path-7)">
            <path id="Path_893418" data-name="Path 893418" d="M236.856,27.078a44.3,44.3,0,0,0-4.829-.547c-.152-2.206-.3-3.672-.3-3.712l4.767-.18c.017.186.192,1.929.361,4.44" transform="translate(-211.698 -23.531)" fill="#1e1157"/>
            <path id="Path_893419" data-name="Path 893419" d="M232.681,47.192c1.743.034,3.34.1,4.784.175-.017,2.047-.1,4.067-.293,5.861l-4.768-.192a57.167,57.167,0,0,0,.277-5.845" transform="translate(-211.984 -33.936)" fill="#1e1157"/>
            <path id="Path_893420" data-name="Path 893420" d="M237.356,35.189c-1.49-.158-3.1-.277-4.8-.344-.062-1.439-.135-2.793-.214-3.983a45.057,45.057,0,0,1,4.824.559c.073,1.151.135,2.426.186,3.769" transform="translate(-211.959 -27.015)" fill="#1e1157"/>
            <path id="Path_893421" data-name="Path 893421" d="M237.624,43.157c-1.535-.085-3.154-.147-4.784-.18-.006-1.258-.034-2.516-.074-3.735,1.738.074,3.34.192,4.8.35.04,1.168.062,2.364.062,3.566" transform="translate(-212.137 -30.567)" fill="#1e1157"/>
            <path id="Path_893422" data-name="Path 893422" d="M252.255,31.537a14.447,14.447,0,0,0-3.763-1.777c-.2-2.008-.378-3.43-.384-3.469l3.605.1c.028.2.3,2.381.542,5.151" transform="translate(-218.639 -25.078)" fill="#1e1157"/>
            <path id="Path_893423" data-name="Path 893423" d="M249.509,48.171a26.6,26.6,0,0,1,3.6.592,18.8,18.8,0,0,1-.248,3.052l-3.582-.666a17.9,17.9,0,0,0,.226-2.979" transform="translate(-219.137 -34.351)" fill="#1e1157"/>
            <path id="Path_893424" data-name="Path 893424" d="M252.859,38.349a17.654,17.654,0,0,0-3.667-1.14c-.079-1.156-.175-2.3-.271-3.323A11.383,11.383,0,0,1,252.7,35.9c.062.8.119,1.625.164,2.448" transform="translate(-218.983 -28.298)" fill="#1e1157"/>
            <path id="Path_893425" data-name="Path 893425" d="M253.209,44.96a27.582,27.582,0,0,0-3.616-.6c-.005-1.01-.051-2.087-.112-3.17a14.032,14.032,0,0,1,3.667,1.23c.04.869.062,1.726.062,2.539" transform="translate(-219.22 -31.393)" fill="#1e1157"/>
            <path id="Path_893426" data-name="Path 893426" d="M216.511,42.978c-1.63.034-3.249.1-4.784.18,0-1.2.022-2.4.062-3.565,1.456-.158,3.058-.277,4.8-.35-.039,1.218-.067,2.477-.073,3.735" transform="translate(-203.222 -30.567)" fill="#1e1157"/>
            <path id="Path_893427" data-name="Path 893427" d="M216.8,53.037l-4.767.192c-.192-1.794-.277-3.814-.293-5.862,1.444-.079,3.041-.141,4.784-.174a57.151,57.151,0,0,0,.277,5.844" transform="translate(-203.226 -33.936)" fill="#1e1157"/>
            <path id="Path_893428" data-name="Path 893428" d="M216.678,34.849c-1.692.067-3.306.186-4.8.344.051-1.337.113-2.606.18-3.752a45.629,45.629,0,0,1,4.829-.569c-.079,1.185-.152,2.544-.214,3.977" transform="translate(-203.288 -27.02)" fill="#1e1157"/>
            <path id="Path_893429" data-name="Path 893429" d="M217.422,22.818c0,.04-.147,1.506-.3,3.712a44.3,44.3,0,0,0-4.829.547c.169-2.511.345-4.254.361-4.44Z" transform="translate(-203.462 -23.531)" fill="#1e1157"/>
            <path id="Path_893430" data-name="Path 893430" d="M200.588,44.361a27.671,27.671,0,0,0-3.616.6c0-.812.022-1.67.062-2.539a14.03,14.03,0,0,1,3.667-1.23c-.062,1.083-.107,2.16-.113,3.17" transform="translate(-196.969 -31.393)" fill="#1e1157"/>
            <path id="Path_893431" data-name="Path 893431" d="M200.822,51.151l-3.582.666a18.922,18.922,0,0,1-.248-3.052,25.473,25.473,0,0,1,3.605-.592,17.85,17.85,0,0,0,.225,2.979" transform="translate(-196.977 -34.351)" fill="#1e1157"/>
            <path id="Path_893432" data-name="Path 893432" d="M200.835,37.227a17.656,17.656,0,0,0-3.667,1.14c.045-.824.1-1.647.164-2.443v-.005a11.54,11.54,0,0,1,3.769-1.992c-.1,1.021-.186,2.15-.265,3.3" transform="translate(-197.052 -28.314)" fill="#1e1157"/>
            <path id="Path_893433" data-name="Path 893433" d="M201.765,26.289c-.006.04-.186,1.462-.384,3.47a14.443,14.443,0,0,0-3.763,1.777c.237-2.771.513-4.948.542-5.151Z" transform="translate(-197.243 -25.078)" fill="#1e1157"/>
          </g>
        </g>
        <g id="Group_1116901" data-name="Group 1116901">
          <g id="Group_1116900" data-name="Group 1116900" clip-path="url(#clip-path)">
            <path id="Path_893435" data-name="Path 893435" d="M230.808,54.544v5.642c-3.574.67-7.6,1.892-9.556,2.173a46.725,46.725,0,0,1-6.854.705,46.635,46.635,0,0,1-6.848-.705c-1.959-.281-5.988-1.5-9.556-2.173V54.544Z" transform="translate(-83.903 -23.114)" fill="#fff"/>
            <path id="Path_893436" data-name="Path 893436" d="M226.41,70.961c3.9-2.326,7.719-5.6,8.462-10.308.777-4.925-2.036-8.888-7.232-8.6-5.36.293-10.372,3.043-15.428,4.578a40.122,40.122,0,0,1-9.473,1.629,40.122,40.122,0,0,1-9.473-1.629c-5.056-1.536-10.068-4.285-15.428-4.578-5.2-.285-8.008,3.679-7.232,8.6.743,4.712,4.565,7.983,8.463,10.308l-2.245-2.272a14.547,14.547,0,0,1-5.073-6.01c-.891-2.27-1.061-5.46.373-7.534,2.975-4.3,9.651-1.583,13.413-.194a84.983,84.983,0,0,0,12.2,3.923,21.577,21.577,0,0,0,10.009,0,84.937,84.937,0,0,0,12.2-3.923c3.762-1.389,10.438-4.106,13.413.194,1.435,2.074,1.265,5.264.374,7.534a14.544,14.544,0,0,1-5.073,6.01Z" transform="translate(-72.243 -22.051)" fill="#1e1157"/>
            <path id="Path_893437" data-name="Path 893437" d="M231.577,42.572a12.627,12.627,0,0,0-7.518-.642c-6.414,1.038-12.391,3.779-18.688,5.311a19.617,19.617,0,0,1-10.875,0c-6.3-1.532-12.274-4.273-18.688-5.311a12.625,12.625,0,0,0-7.518.642c-3.345,1.589-4.685,5.031-4.394,8.592a25.234,25.234,0,0,0,1.27,5.89,32.189,32.189,0,0,1-.278-5.889c.216-2.89,1.354-5.66,4.276-6.679,2.832-.987,6.063-.038,8.809.822,5.274,1.652,10.3,3.94,15.649,5.365a22,22,0,0,0,12.624,0c5.351-1.425,10.375-3.713,15.649-5.365,2.746-.86,5.977-1.809,8.809-.822,2.922,1.018,4.06,3.788,4.276,6.679a32.188,32.188,0,0,1-.278,5.889,25.234,25.234,0,0,0,1.27-5.89c.291-3.562-1.049-7-4.394-8.592" transform="translate(-69.438 -17.652)" fill="#1e1157"/>
          </g>
        </g>
      </g>
    </g>
  </g>
</svg>
