<svg xmlns="http://www.w3.org/2000/svg" xmlns:xlink="http://www.w3.org/1999/xlink" width="178" height="178" viewBox="0 0 178 178">
  <defs>
    <clipPath id="clip-path">
      <rect id="Rectangle_407497" data-name="Rectangle 407497" width="97.902" height="90.448" fill="none"/>
    </clipPath>
    <clipPath id="clip-path-2">
      <rect id="Rectangle_407496" data-name="Rectangle 407496" width="97.903" height="90.447" fill="none"/>
    </clipPath>
    <clipPath id="clip-path-3">
      <rect id="Rectangle_407472" data-name="Rectangle 407472" width="94.572" height="64.642" fill="none"/>
    </clipPath>
    <clipPath id="clip-path-4">
      <rect id="Rectangle_407475" data-name="Rectangle 407475" width="34.948" height="34.948" fill="none"/>
    </clipPath>
    <clipPath id="clip-path-5">
      <rect id="Rectangle_407478" data-name="Rectangle 407478" width="27.45" height="27.45" fill="none"/>
    </clipPath>
    <clipPath id="clip-path-6">
      <rect id="Rectangle_407481" data-name="Rectangle 407481" width="25.677" height="25.677" fill="none"/>
    </clipPath>
    <clipPath id="clip-path-7">
      <rect id="Rectangle_407483" data-name="Rectangle 407483" width="20.412" height="20.412" fill="none"/>
    </clipPath>
    <clipPath id="clip-path-8">
      <rect id="Rectangle_407485" data-name="Rectangle 407485" width="24.856" height="24.856" fill="none"/>
    </clipPath>
    <clipPath id="clip-path-9">
      <rect id="Rectangle_407487" data-name="Rectangle 407487" width="26.307" height="26.307" fill="none"/>
    </clipPath>
    <clipPath id="clip-path-10">
      <rect id="Rectangle_407489" data-name="Rectangle 407489" width="39.918" height="39.918" fill="none"/>
    </clipPath>
    <clipPath id="clip-path-11">
      <rect id="Rectangle_407491" data-name="Rectangle 407491" width="11.384" height="36.799" fill="none"/>
    </clipPath>
    <clipPath id="clip-path-12">
      <rect id="Rectangle_407492" data-name="Rectangle 407492" width="16.173" height="33.92" fill="none"/>
    </clipPath>
    <clipPath id="clip-path-13">
      <rect id="Rectangle_407493" data-name="Rectangle 407493" width="10.747" height="10.748" fill="none"/>
    </clipPath>
  </defs>
  <g id="Group_1117915" data-name="Group 1117915" transform="translate(-1064.785 -2480.084)">
    <g id="Group_1116836" data-name="Group 1116836" transform="translate(1064.785 2480.085)">
      <path id="Path_882862" data-name="Path 882862" d="M89,0A89.047,89.047,0,1,1,0,89,89,89,0,0,1,89,0Z" transform="translate(0 -0.001)" fill="#f6ae5c"/>
      <path id="Path_882863" data-name="Path 882863" d="M78.668,0A78.668,78.668,0,1,1,0,78.668,78.668,78.668,0,0,1,78.668,0Z" transform="translate(10.332 10.331)" fill="#f3f9ff"/>
    </g>
    <g id="Group_1116837" data-name="Group 1116837" transform="translate(1103.785 2519.085)">
      <rect id="Rectangle_401104" data-name="Rectangle 401104" width="99.117" height="100.574" fill="none"/>
      <g id="Group_1117224" data-name="Group 1117224" transform="translate(1.215 5.063)">
        <g id="Group_1117223" data-name="Group 1117223" clip-path="url(#clip-path)">
          <g id="Group_1117222" data-name="Group 1117222" transform="translate(0 0)">
            <g id="Group_1117221" data-name="Group 1117221" clip-path="url(#clip-path-2)">
              <path id="Path_895446" data-name="Path 895446" d="M39.5,58.9a14.835,14.835,0,0,0,0-6.147l5.965-6.01-2.343-4.057-8.183,2.169a14.9,14.9,0,0,0-5.324-3.077l-2.227-8.171H22.718L20.489,41.78a14.941,14.941,0,0,0-5.322,3.077L6.986,42.689,4.641,46.746l5.965,6.01a14.835,14.835,0,0,0,0,6.147L4.641,64.915l2.345,4.054L15.167,66.8a14.851,14.851,0,0,0,5.322,3.075l2.229,8.172h4.665l2.227-8.172a14.873,14.873,0,0,0,2.824-1.258,15.03,15.03,0,0,0,2.5-1.817l8.183,2.168,2.343-4.054Zm-9.544,5.433a9.813,9.813,0,1,1,4.922-8.508,9.823,9.823,0,0,1-4.922,8.508" transform="translate(0.372 2.693)" fill="#f6ae5c"/>
              <path id="Path_895447" data-name="Path 895447" d="M85.231,42.769a31.19,31.19,0,0,0,8.494-2.628,28.173,28.173,0,0,0,.006-4.588,31.253,31.253,0,0,0-8.5-2.634A21.163,21.163,0,0,0,82.7,26.8a31.548,31.548,0,0,0,4.143-7.868A28.178,28.178,0,0,0,83.6,15.691a31.474,31.474,0,0,0-7.867,4.147,20.891,20.891,0,0,0-6.111-2.531,31.337,31.337,0,0,0-2.629-8.5,28.187,28.187,0,0,0-4.59,0A31.444,31.444,0,0,0,59.768,17.3a21.287,21.287,0,0,0-6.115,2.532,31.427,31.427,0,0,0-7.867-4.141,27.654,27.654,0,0,0-3.243,3.248,31.347,31.347,0,0,0,4.146,7.867,22.283,22.283,0,0,0-1.511,2.952,22.678,22.678,0,0,0-1.021,3.159,31.25,31.25,0,0,0-8.5,2.63,27.919,27.919,0,0,0,0,4.587,31.266,31.266,0,0,0,8.494,2.633,23.319,23.319,0,0,0,1.024,3.158,23.664,23.664,0,0,0,1.509,2.959,31.276,31.276,0,0,0-4.143,7.867A28.074,28.074,0,0,0,45.79,60a31.3,31.3,0,0,0,7.867-4.148,21.916,21.916,0,0,0,2.954,1.509,22.229,22.229,0,0,0,3.157,1.022,31.251,31.251,0,0,0,2.632,8.5,27.906,27.906,0,0,0,4.586,0,31.385,31.385,0,0,0,2.638-8.491,23.211,23.211,0,0,0,3.153-1.028,22.924,22.924,0,0,0,2.959-1.5A31.487,31.487,0,0,0,83.606,60a28.323,28.323,0,0,0,3.243-3.247A31.4,31.4,0,0,0,82.7,48.883a22.376,22.376,0,0,0,1.509-2.955,22.064,22.064,0,0,0,1.021-3.158m-15.3,7.725a13.693,13.693,0,1,1,7.41-7.411,13.678,13.678,0,0,1-7.41,7.411" transform="translate(2.851 0.698)" fill="#f6ae5c"/>
              <g id="Group_1117190" data-name="Group 1117190" transform="translate(0 11.87)" opacity="0.4">
                <g id="Group_1117189" data-name="Group 1117189">
                  <g id="Group_1117188" data-name="Group 1117188" clip-path="url(#clip-path-3)">
                    <path id="Path_895448" data-name="Path 895448" d="M1.146,75.4,0,74.251,25.931,48.32a.81.81,0,0,1,1.146,0l8.5,8.5L59.411,32.982a.81.81,0,0,1,1.146,0L65.878,38.3,90.263,13.918l1.145,1.145L66.451,40.021a.81.81,0,0,1-1.146,0L59.985,34.7,36.148,58.537a.809.809,0,0,1-1.145,0l-8.5-8.5Z" transform="translate(0 -10.755)" fill="#fff"/>
                    <path id="Path_895449" data-name="Path 895449" d="M83.532,15.548,80.875,14.9l.021-.094,3.762-1.622,3.432-2.195q-1.1,1.716-2.195,3.433l-1.621,3.762-.086.028Z" transform="translate(6.482 -10.989)" fill="#fff"/>
                  </g>
                </g>
              </g>
              <g id="Group_1117193" data-name="Group 1117193" transform="translate(14.037 39.187)" opacity="0.4">
                <g id="Group_1117192" data-name="Group 1117192">
                  <g id="Group_1117191" data-name="Group 1117191" clip-path="url(#clip-path-4)">
                    <rect id="Rectangle_407473" data-name="Rectangle 407473" width="1.621" height="1.08" transform="translate(0 34.185) rotate(-45)" fill="#fff"/>
                    <path id="Path_895450" data-name="Path 895450" d="M17.53,66.6l-.764-.764,2.195-2.195.764.764Zm5.122-5.122-.764-.764,2.2-2.2.764.764Zm5.122-5.122L27.01,55.6l2.2-2.2.764.764ZM32.9,51.237l-.764-.764,2.195-2.195.764.764Zm5.122-5.122-.764-.764,2.195-2.195.764.764Z" transform="translate(-12.693 -35.728)" fill="#fff"/>
                    <rect id="Rectangle_407474" data-name="Rectangle 407474" width="1.621" height="1.08" transform="matrix(0.707, -0.707, 0.707, 0.707, 29.685, 4.5)" fill="#fff"/>
                    <path id="Path_895451" data-name="Path 895451" d="M41.327,40.838l-2.656-.647.019-.094,3.762-1.622,3.433-2.195Q44.788,38,43.69,39.713l-1.622,3.762-.085.028Z" transform="translate(-10.938 -36.279)" fill="#fff"/>
                  </g>
                </g>
              </g>
              <g id="Group_1117196" data-name="Group 1117196" transform="translate(2.985 16.233)" opacity="0.4">
                <g id="Group_1117195" data-name="Group 1117195">
                  <g id="Group_1117194" data-name="Group 1117194" clip-path="url(#clip-path-5)">
                    <rect id="Rectangle_407476" data-name="Rectangle 407476" width="1.62" height="2.16" transform="matrix(0.707, -0.707, 0.707, 0.707, 0, 25.922)" fill="#fff"/>
                    <path id="Path_895452" data-name="Path 895452" d="M8.41,37.477,6.883,35.949,9.362,33.47,10.889,35ZM14.2,31.693l-1.527-1.527,2.479-2.479,1.527,1.527Zm5.784-5.784-1.527-1.527,2.479-2.48,1.527,1.527Z" transform="translate(-2.433 -14.479)" fill="#fff"/>
                    <rect id="Rectangle_407477" data-name="Rectangle 407477" width="1.62" height="2.16" transform="matrix(0.707, -0.707, 0.707, 0.707, 21.804, 4.118)" fill="#fff"/>
                    <path id="Path_895453" data-name="Path 895453" d="M24.153,19.588,21.5,18.941l.018-.094,3.762-1.622,3.433-2.195q-1.1,1.716-2.195,3.433l-1.622,3.762-.085.028Z" transform="translate(-1.262 -15.029)" fill="#fff"/>
                  </g>
                </g>
              </g>
              <g id="Group_1117199" data-name="Group 1117199" transform="translate(51.752 54.986)" opacity="0.4">
                <g id="Group_1117198" data-name="Group 1117198">
                  <g id="Group_1117197" data-name="Group 1117197" clip-path="url(#clip-path-6)">
                    <rect id="Rectangle_407479" data-name="Rectangle 407479" width="1.621" height="1.08" transform="translate(0 24.913) rotate(-45)" fill="#fff"/>
                    <path id="Path_895454" data-name="Path 895454" d="M52.354,72.315l-.764-.764,2.12-2.12.764.764ZM57.3,67.366l-.764-.764,2.121-2.121.764.764Zm4.948-4.948-.764-.764,2.121-2.121.764.764ZM67.2,57.469l-.764-.764,2.12-2.12.764.764Z" transform="translate(-47.617 -50.611)" fill="#fff"/>
                    <rect id="Rectangle_407480" data-name="Rectangle 407480" width="1.621" height="1.08" transform="translate(23.768 1.146) rotate(-45)" fill="#fff"/>
                  </g>
                </g>
              </g>
              <g id="Group_1117202" data-name="Group 1117202" transform="translate(64.722 12.111)" opacity="0.4">
                <g id="Group_1117201" data-name="Group 1117201">
                  <g id="Group_1117200" data-name="Group 1117200" clip-path="url(#clip-path-7)">
                    <rect id="Rectangle_407482" data-name="Rectangle 407482" width="27.786" height="1.08" transform="matrix(0.707, -0.707, 0.707, 0.707, 0, 19.648)" fill="#fff"/>
                  </g>
                </g>
              </g>
              <g id="Group_1117205" data-name="Group 1117205" transform="translate(70.032 54.811)" opacity="0.4">
                <g id="Group_1117204" data-name="Group 1117204">
                  <g id="Group_1117203" data-name="Group 1117203" clip-path="url(#clip-path-8)">
                    <rect id="Rectangle_407484" data-name="Rectangle 407484" width="33.531" height="1.62" transform="translate(0 23.71) rotate(-45)" fill="#fff"/>
                  </g>
                </g>
              </g>
              <g id="Group_1117208" data-name="Group 1117208" transform="translate(59.101 35.353)" opacity="0.4">
                <g id="Group_1117207" data-name="Group 1117207">
                  <g id="Group_1117206" data-name="Group 1117206" clip-path="url(#clip-path-9)">
                    <rect id="Rectangle_407486" data-name="Rectangle 407486" width="31.381" height="1.08" transform="translate(0 25.543) rotate(-45)" fill="#fff"/>
                    <path id="Path_895455" data-name="Path 895455" d="M75.048,37.289l-2.655-.647.018-.094,3.762-1.622,3.433-2.195q-1.1,1.716-2.195,3.433l-1.622,3.762-.085.028Z" transform="translate(-53.299 -32.73)" fill="#fff"/>
                  </g>
                </g>
              </g>
              <g id="Group_1117211" data-name="Group 1117211" transform="translate(21.254 0)" opacity="0.4">
                <g id="Group_1117210" data-name="Group 1117210" transform="translate(0 0)">
                  <g id="Group_1117209" data-name="Group 1117209" clip-path="url(#clip-path-10)">
                    <rect id="Rectangle_407488" data-name="Rectangle 407488" width="50.628" height="1.08" transform="matrix(0.707, -0.707, 0.707, 0.707, 0, 39.154)" fill="#fff"/>
                    <path id="Path_895456" data-name="Path 895456" d="M52.609,4.558l-2.655-.647.018-.094,3.762-1.622L57.167,0q-1.1,1.716-2.195,3.433L53.35,7.195l-.085.028Z" transform="translate(-17.25 0)" fill="#fff"/>
                  </g>
                </g>
              </g>
              <path id="Path_895459" data-name="Path 895459" d="M48.924,7.288A22.83,22.83,0,0,1,67.734,43.07l-.009.012c-.257.334-1.594,1.989-2.193,2.7-6.409,7.641-7.714,14.547-9.1,21.859q-.068.361-.137.723H41.554l-.133-.7c-1.38-7.32-2.685-14.234-9.106-21.891-.611-.72-1.959-2.4-2.2-2.7h0A22.826,22.826,0,0,1,48.924,7.288m0-2.16A24.987,24.987,0,0,0,28.341,44.3c-.021,0,1.654,2.078,2.327,2.872,6.739,8.037,7.5,15.247,9.1,23.354H58.082c1.6-8.107,2.364-15.317,9.107-23.354.665-.794,2.346-2.872,2.322-2.872A24.99,24.99,0,0,0,48.924,5.128" transform="translate(1.917 0.411)" fill="#685700"/>
              <path id="Path_895460" data-name="Path 895460" d="M51.049,79.953H44.26l-4.485-2.895H55.53Z" transform="translate(3.188 6.176)" fill="#8e9093"/>
              <path id="Path_895461" data-name="Path 895461" d="M55.626,68.1H39.871l-1.277-2.425H56.906Z" transform="translate(3.093 5.263)" fill="#8e9093"/>
              <rect id="Rectangle_407490" data-name="Rectangle 407490" width="15.755" height="9.873" transform="translate(42.964 73.361)" fill="#a9adae"/>
              <path id="Path_895462" data-name="Path 895462" d="M39.552,69.991c2.761-.375,5.538-.583,8.324-.742s5.577-.235,8.381-.133c.355.018.629.247.611.523a.565.565,0,0,1-.525.462c-2.76.4-5.541.6-8.327.749s-5.571.218-8.377.132c-.36-.014-.631-.243-.618-.517a.558.558,0,0,1,.53-.473" transform="translate(3.128 5.536)" fill="#8e9093"/>
              <path id="Path_895463" data-name="Path 895463" d="M39.338,72.5c2.761-.379,5.538-.585,8.324-.746,2.787-.144,5.576-.231,8.381-.129.355.016.629.247.61.523a.562.562,0,0,1-.524.462c-2.76.4-5.541.6-8.327.742s-5.571.223-8.377.134c-.36-.013-.632-.242-.618-.513a.557.557,0,0,1,.53-.473" transform="translate(3.11 5.737)" fill="#8e9093"/>
              <path id="Path_895464" data-name="Path 895464" d="M39.125,75c2.761-.377,5.538-.581,8.323-.74,2.788-.144,5.576-.235,8.382-.131a.569.569,0,0,1,.61.525.559.559,0,0,1-.524.458c-2.762.4-5.545.6-8.327.749-2.785.131-5.574.22-8.378.131-.36-.014-.632-.243-.618-.516A.567.567,0,0,1,39.125,75" transform="translate(3.093 5.938)" fill="#8e9093"/>
              <path id="Path_895465" data-name="Path 895465" d="M48.918,10.894c1.048-.84,4.03-1,4.813.474,2.861-.238,5.413,2.057,5.055,4.578,1.765.287,3,3.625,2.146,4.674,1.191.335,3.2,4.054,1.955,6.3,1.241.763.935,5.959-.715,6.9,1.049,2.969-.049,5.83-1.812,5.972.525,1.431-1.24,4.626-3.768,4.722-.19,2.614-4.291,3.338-5.485,2.479-.714.572-3.194-.715-2.908-3.1-1.131.026-1.436-4.95,0-5.484-1.131-.617-1.724-4.248,0-5.533-1.245-.684-1.675-4.72,0-5.626-1.484-.8-1.532-4.2,0-5.628-1.052-.666-1.716-3.433-.334-5.436-.718-.715-1.1-3.564,1.052-5.291" transform="translate(3.773 0.822)" fill="#dfdfdf"/>
              <path id="Path_895466" data-name="Path 895466" d="M49.632,35.545a.215.215,0,0,1-.09-.412c3.471-1.582,4.351-3.434,3.041-6.392a.216.216,0,0,1,.394-.175c1.413,3.193.441,5.273-3.256,6.959a.22.22,0,0,1-.09.019" transform="translate(3.961 2.279)" fill="#a9adae"/>
              <path id="Path_895467" data-name="Path 895467" d="M52.528,32.984a.216.216,0,0,1-.125-.391,5.174,5.174,0,0,1,3.607-.661.215.215,0,0,1,.186.241.218.218,0,0,1-.241.186,4.814,4.814,0,0,0-3.3.585.23.23,0,0,1-.126.04" transform="translate(4.193 2.554)" fill="#a9adae"/>
              <path id="Path_895468" data-name="Path 895468" d="M55.911,22.936a.216.216,0,0,1-.148-.058c-.44-.417-1.045-.361-1.743-.295a4.841,4.841,0,0,1-1.89-.084,4.6,4.6,0,0,1-3.059-3.7,3.945,3.945,0,0,1,1.858-3.979,3.627,3.627,0,0,1,3.3-.019.215.215,0,0,1,.121.28.217.217,0,0,1-.28.121,3.137,3.137,0,0,0-2.9-.021A3.531,3.531,0,0,0,49.5,18.733a4.162,4.162,0,0,0,2.758,3.353,4.379,4.379,0,0,0,1.725.068,2.438,2.438,0,0,1,2.08.41.214.214,0,0,1-.148.372" transform="translate(3.929 1.153)" fill="#a9adae"/>
              <path id="Path_895469" data-name="Path 895469" d="M56.74,30.632a.215.215,0,0,1-.019-.429,5.658,5.658,0,0,0,5.2-4.547.215.215,0,0,1,.251-.173.218.218,0,0,1,.173.253,6.085,6.085,0,0,1-5.582,4.9H56.74" transform="translate(4.53 2.042)" fill="#a9adae"/>
              <path id="Path_895470" data-name="Path 895470" d="M53.455,38.962a2.776,2.776,0,0,1-.579-.058,1.492,1.492,0,0,1-1.147-.876.218.218,0,0,1,.118-.282.214.214,0,0,1,.28.119,1.072,1.072,0,0,0,.839.619A3.646,3.646,0,0,0,55.88,37.6c.828-.792,1.474-1.526,2.045-2.177.967-1.1,1.663-1.895,2.533-2.12a.215.215,0,1,1,.108.417c-.741.192-1.4.945-2.318,1.989-.575.655-1.228,1.4-2.07,2.2a4.2,4.2,0,0,1-2.723,1.051" transform="translate(4.145 2.668)" fill="#a9adae"/>
              <path id="Path_895471" data-name="Path 895471" d="M50.825,44.767a.216.216,0,0,1-.214-.2,3.63,3.63,0,0,1,.638-2.5,4.978,4.978,0,0,1,2.437-1.357.215.215,0,1,1,0,.431,4.792,4.792,0,0,0-2.121,1.218,3.2,3.2,0,0,0-.525,2.17.216.216,0,0,1-.2.234h-.019" transform="translate(4.055 3.263)" fill="#a9adae"/>
              <path id="Path_895472" data-name="Path 895472" d="M49.455,27.391a.211.211,0,0,1-.107-.028.217.217,0,0,1-.08-.294,4.54,4.54,0,0,1,4.357-2.158,5.024,5.024,0,0,1,2.753,1.108,3.63,3.63,0,0,0,1.353.709,1.225,1.225,0,0,0,1.007-.321,4.719,4.719,0,0,0,1.421-3.714.216.216,0,0,1,.432,0,5.154,5.154,0,0,1-1.585,4.051,1.642,1.642,0,0,1-1.374.4,4.035,4.035,0,0,1-1.507-.78,4.613,4.613,0,0,0-2.544-1.028,4.112,4.112,0,0,0-3.941,1.942.212.212,0,0,1-.187.109" transform="translate(3.947 1.801)" fill="#a9adae"/>
              <path id="Path_895473" data-name="Path 895473" d="M56.74,21.789a.215.215,0,0,1-.164-.353,3.354,3.354,0,0,0,.183-3.693.215.215,0,0,1,.346-.255,3.757,3.757,0,0,1-.2,4.224.214.214,0,0,1-.165.077" transform="translate(4.53 1.394)" fill="#a9adae"/>
              <path id="Path_895474" data-name="Path 895474" d="M60.122,20.111a.219.219,0,0,1-.073-.013,4.676,4.676,0,0,0-2.562-.288.215.215,0,1,1-.161-.4,5.006,5.006,0,0,1,2.87.283.216.216,0,0,1-.073.418" transform="translate(4.584 1.546)" fill="#a9adae"/>
              <path id="Path_895475" data-name="Path 895475" d="M47.469,14.372a.215.215,0,0,1-.153-.366,4.141,4.141,0,0,1,1.679-.636c.657-.162,1.472-.364,1.63-.62a.738.738,0,0,0,.082-.7.668.668,0,0,0-.547-.354.217.217,0,0,1-.186-.243.214.214,0,0,1,.241-.185,1.1,1.1,0,0,1,.879.6,1.153,1.153,0,0,1-.1,1.111c-.25.407-1.048.6-1.892.813a4.332,4.332,0,0,0-1.475.521.216.216,0,0,1-.153.064" transform="translate(3.787 0.902)" fill="#a9adae"/>
              <path id="Path_895476" data-name="Path 895476" d="M50.467,21.215a.2.2,0,0,1-.051-.005.216.216,0,0,1-.159-.26,4.428,4.428,0,0,1,1.689-2.779.216.216,0,0,1,.2.383,4.126,4.126,0,0,0-1.468,2.5.216.216,0,0,1-.21.164" transform="translate(4.028 1.454)" fill="#a9adae"/>
              <path id="Path_895477" data-name="Path 895477" d="M46.45,10.894c-1.048-.84-4.03-1-4.813.474-2.861-.238-5.413,2.057-5.055,4.578-1.765.287-3,3.625-2.146,4.674-1.191.335-3.2,4.054-1.955,6.3-1.24.763-.935,5.959.715,6.9-1.049,2.969.049,5.83,1.812,5.972-.525,1.431,1.24,4.626,3.768,4.722.191,2.614,4.291,3.338,5.485,2.479.714.572,3.2-.715,2.908-3.1,1.131.026,1.436-4.95,0-5.484,1.131-.617,1.724-4.248,0-5.533,1.245-.684,1.676-4.72,0-5.626,1.484-.8,1.531-4.2,0-5.628,1.052-.666,1.717-3.433.335-5.436.717-.715,1.1-3.564-1.053-5.291" transform="translate(2.542 0.822)" fill="#dfdfdf"/>
              <g id="Group_1117214" data-name="Group 1117214" transform="translate(50.841 11.08)" opacity="0.07">
                <g id="Group_1117213" data-name="Group 1117213">
                  <g id="Group_1117212" data-name="Group 1117212" clip-path="url(#clip-path-11)">
                    <path id="Path_895478" data-name="Path 895478" d="M49.347,44.75a7.132,7.132,0,0,1,0-3.239,3.842,3.842,0,0,0-.021-2.3,5.015,5.015,0,0,1-.026-3.225,3.362,3.362,0,0,0,.024-2.305,5.429,5.429,0,0,1-.058-3.363,3.053,3.053,0,0,0-.013-2.21,4.829,4.829,0,0,1,.089-3.339A3.253,3.253,0,0,0,49.3,22.43a4.9,4.9,0,0,1-.118-2.992,7.049,7.049,0,0,0,.079-2.607,4.327,4.327,0,0,1,1.578-3.977,4.431,4.431,0,0,1,3.719-.406,20.785,20.785,0,0,0,2.521.969,5.036,5.036,0,0,1,1.37.5,4.849,4.849,0,0,0-4.721-2.552c-.783-1.479-3.765-1.315-4.813-.474-2.153,1.725-1.771,4.576-1.053,5.291-1.383,2-.718,4.769.335,5.436-1.532,1.431-1.484,4.827,0,5.628-1.676.906-1.245,4.943,0,5.626-1.724,1.284-1.131,4.916,0,5.533-1.437.534-1.131,5.51,0,5.484a2.945,2.945,0,0,0,2.021,3.165,2.853,2.853,0,0,1-.11-.6c-.026-.335-.569-.94-.764-1.709" transform="translate(-47.069 -10.258)" fill="#62717a"/>
                  </g>
                </g>
              </g>
              <g id="Group_1117217" data-name="Group 1117217" transform="translate(34.263 11.08)" opacity="0.07">
                <g id="Group_1117216" data-name="Group 1117216">
                  <g id="Group_1117215" data-name="Group 1117215" clip-path="url(#clip-path-12)">
                    <path id="Path_895479" data-name="Path 895479" d="M36.062,41.728a4.909,4.909,0,0,1-.912-3.933,5.054,5.054,0,0,0-.533-2.5,8.506,8.506,0,0,1-.479-4.547,11.036,11.036,0,0,0,.257-2.618,6.6,6.6,0,0,1,1.267-4,5.033,5.033,0,0,0,.817-2.3,4.869,4.869,0,0,1,1.185-2.579,5.73,5.73,0,0,0,1.316-2.139,4.609,4.609,0,0,1,3.526-3.068,20.834,20.834,0,0,0,2.521-.97,4.753,4.753,0,0,1,2.866-.014A4.227,4.227,0,0,0,46.45,10.9c-1.048-.84-4.03-1-4.812.474-2.862-.239-5.414,2.057-5.056,4.578-1.764.286-3,3.625-2.145,4.674-1.192.334-3.2,4.053-1.956,6.3-1.24.763-.935,5.96.715,6.9-1.048,2.969.049,5.831,1.812,5.973-.428,1.17.671,3.515,2.467,4.386a3.759,3.759,0,0,1-.239-.89c-.066-.5-.637-.976-1.174-1.56" transform="translate(-31.72 -10.258)" fill="#62717a"/>
                  </g>
                </g>
              </g>
              <path id="Path_895480" data-name="Path 895480" d="M44.815,35.545a.215.215,0,0,0,.09-.412c-3.471-1.582-4.351-3.434-3.041-6.392a.216.216,0,0,0-.394-.175c-1.413,3.193-.44,5.273,3.256,6.959a.22.22,0,0,0,.09.019" transform="translate(3.274 2.279)" fill="#a9adae"/>
              <path id="Path_895481" data-name="Path 895481" d="M41.9,32.984a.216.216,0,0,0,.125-.391,5.173,5.173,0,0,0-3.607-.661.216.216,0,0,0-.186.241.218.218,0,0,0,.241.186,4.812,4.812,0,0,1,3.3.585.227.227,0,0,0,.126.04" transform="translate(3.064 2.554)" fill="#a9adae"/>
              <path id="Path_895482" data-name="Path 895482" d="M38.753,22.936a.216.216,0,0,0,.148-.058c.44-.417,1.045-.361,1.744-.295a4.842,4.842,0,0,0,1.89-.084,4.6,4.6,0,0,0,3.059-3.7,3.948,3.948,0,0,0-1.859-3.979,3.627,3.627,0,0,0-3.3-.019.216.216,0,1,0,.16.4,3.135,3.135,0,0,1,2.9-.021,3.531,3.531,0,0,1,1.668,3.557,4.163,4.163,0,0,1-2.757,3.353,4.385,4.385,0,0,1-1.726.068,2.438,2.438,0,0,0-2.08.41.216.216,0,0,0-.008.306.212.212,0,0,0,.156.066" transform="translate(3.089 1.153)" fill="#a9adae"/>
              <path id="Path_895483" data-name="Path 895483" d="M37.83,30.632a.215.215,0,0,0,.019-.429,5.655,5.655,0,0,1-5.2-4.547.216.216,0,1,0-.424.08,6.085,6.085,0,0,0,5.582,4.9h.019" transform="translate(2.583 2.042)" fill="#a9adae"/>
              <path id="Path_895484" data-name="Path 895484" d="M41.352,38.962a2.776,2.776,0,0,0,.579-.058,1.492,1.492,0,0,0,1.147-.876.215.215,0,1,0-.4-.163,1.07,1.07,0,0,1-.838.619,3.648,3.648,0,0,1-2.915-.885c-.828-.792-1.474-1.526-2.045-2.177-.966-1.1-1.663-1.895-2.532-2.12a.215.215,0,1,0-.108.417c.74.192,1.4.945,2.317,1.989.576.655,1.228,1.4,2.071,2.2a4.191,4.191,0,0,0,2.723,1.051" transform="translate(2.731 2.668)" fill="#a9adae"/>
              <path id="Path_895485" data-name="Path 895485" d="M43.558,44.767a.217.217,0,0,0,.215-.2,3.631,3.631,0,0,0-.639-2.5A4.973,4.973,0,0,0,40.7,40.712a.215.215,0,1,0,0,.431,4.787,4.787,0,0,1,2.121,1.218,3.2,3.2,0,0,1,.525,2.17.216.216,0,0,0,.2.234h.019" transform="translate(3.245 3.263)" fill="#a9adae"/>
              <path id="Path_895486" data-name="Path 895486" d="M45.524,27.391a.211.211,0,0,0,.107-.028.216.216,0,0,0,.08-.294,4.54,4.54,0,0,0-4.356-2.158A5.017,5.017,0,0,0,38.6,26.019a3.646,3.646,0,0,1-1.353.709,1.228,1.228,0,0,1-1.008-.321,4.722,4.722,0,0,1-1.421-3.714.215.215,0,0,0-.431,0,5.154,5.154,0,0,0,1.583,4.051,1.642,1.642,0,0,0,1.374.4,4.035,4.035,0,0,0,1.507-.78A4.617,4.617,0,0,1,41.4,25.339a4.112,4.112,0,0,1,3.941,1.942.212.212,0,0,0,.187.109" transform="translate(2.756 1.801)" fill="#a9adae"/>
              <path id="Path_895487" data-name="Path 895487" d="M37.483,21.789a.215.215,0,0,0,.164-.353,3.354,3.354,0,0,1-.183-3.693.215.215,0,0,0-.346-.255,3.759,3.759,0,0,0,.2,4.224.214.214,0,0,0,.165.077" transform="translate(2.929 1.394)" fill="#a9adae"/>
              <path id="Path_895488" data-name="Path 895488" d="M34.25,20.111a.219.219,0,0,0,.073-.013,4.676,4.676,0,0,1,2.562-.288.215.215,0,1,0,.161-.4,5,5,0,0,0-2.87.283.216.216,0,0,0,.073.418" transform="translate(2.728 1.546)" fill="#a9adae"/>
              <path id="Path_895489" data-name="Path 895489" d="M46.961,14.372a.215.215,0,0,0,.153-.366,4.141,4.141,0,0,0-1.679-.636c-.657-.162-1.472-.364-1.63-.62a.735.735,0,0,1-.081-.7.665.665,0,0,1,.545-.354.216.216,0,1,0-.056-.428,1.1,1.1,0,0,0-.878.6,1.153,1.153,0,0,0,.1,1.111c.25.407,1.047.6,1.892.813a4.332,4.332,0,0,1,1.475.521.218.218,0,0,0,.153.064" transform="translate(3.466 0.902)" fill="#a9adae"/>
              <path id="Path_895490" data-name="Path 895490" d="M43.82,21.215a.2.2,0,0,0,.051-.005.216.216,0,0,0,.159-.26A4.437,4.437,0,0,0,42.34,18.17a.216.216,0,0,0-.2.383,4.126,4.126,0,0,1,1.468,2.5.216.216,0,0,0,.21.164" transform="translate(3.368 1.454)" fill="#a9adae"/>
              <path id="Path_895491" data-name="Path 895491" d="M17.5,71.323a13.6,13.6,0,1,0,13.6-13.6,13.6,13.6,0,0,0-13.6,13.6" transform="translate(1.403 4.626)" fill="#f5f5f5"/>
              <path id="Path_895492" data-name="Path 895492" d="M16.671,71.389a14.426,14.426,0,0,0,4.107,10.094c.136.148.279.285.422.422a14.487,14.487,0,1,0-4.529-10.516m5.367,8.833a12.521,12.521,0,1,1,.422.422c-.143-.136-.286-.28-.422-.422" transform="translate(1.336 4.56)" fill="#1e2ad5"/>
              <path id="Path_895493" data-name="Path 895493" d="M20.6,71.075A10.259,10.259,0,1,1,30.853,81.334,10.268,10.268,0,0,1,20.6,71.075m.594,0a9.664,9.664,0,1,0,9.663-9.663,9.674,9.674,0,0,0-9.663,9.663" transform="translate(1.651 4.874)" fill="#1e2ad5"/>
              <path id="Path_895494" data-name="Path 895494" d="M23.967,70.8a6.616,6.616,0,1,1,6.616,6.615A6.624,6.624,0,0,1,23.967,70.8m.6,0a6.021,6.021,0,1,0,6.021-6.021A6.028,6.028,0,0,0,24.562,70.8" transform="translate(1.921 5.144)" fill="#1e2ad5"/>
              <path id="Path_895495" data-name="Path 895495" d="M27.616,70.512a2.675,2.675,0,1,0,2.674-2.674,2.675,2.675,0,0,0-2.674,2.674" transform="translate(2.213 5.437)" fill="#1e2ad5"/>
              <g id="Group_1117220" data-name="Group 1117220" transform="translate(22.113 75.717)" opacity="0.2">
                <g id="Group_1117219" data-name="Group 1117219">
                  <g id="Group_1117218" data-name="Group 1117218" clip-path="url(#clip-path-13)">
                    <path id="Path_895496" data-name="Path 895496" d="M20.472,80.425c.136.148.28.285.422.422l.631-.63.63-.631,9.065-9.066L30.8,70.1l-9.067,9.066L21.1,79.8Z" transform="translate(-20.472 -70.099)"/>
                  </g>
                </g>
              </g>
              <path id="Path_895497" data-name="Path 895497" d="M20.749,64.35l3.5-.139L19.7,59.662l-3.5.139Z" transform="translate(1.298 4.781)" fill="#634419"/>
              <path id="Path_895498" data-name="Path 895498" d="M24.128,60.97l-.14,3.5-4.549-4.55.14-3.5Z" transform="translate(1.558 4.522)" fill="#a9adae"/>
              <rect id="Rectangle_407494" data-name="Rectangle 407494" width="0.387" height="17.519" transform="translate(19.884 63.876) rotate(-45)" fill="#efefef"/>
              <rect id="Rectangle_407495" data-name="Rectangle 407495" width="0.386" height="17.518" transform="matrix(0.706, -0.709, 0.709, 0.706, 20.146, 63.615)" fill="#dcdcdc"/>
              <path id="Path_895499" data-name="Path 895499" d="M29.792,70.394a.38.38,0,1,0,.38-.38.381.381,0,0,0-.38.38" transform="translate(2.388 5.611)" fill="#e6e6e6"/>
              <path id="Path_895500" data-name="Path 895500" d="M18.114,58.779a.445.445,0,1,0,.444-.444.445.445,0,0,0-.444.444" transform="translate(1.452 4.675)" fill="#e6e6e6"/>
            </g>
          </g>
        </g>
      </g>
    </g>
  </g>
</svg>
