<svg xmlns="http://www.w3.org/2000/svg" xmlns:xlink="http://www.w3.org/1999/xlink" width="178" height="178" viewBox="0 0 178 178">
  <defs>
    <clipPath id="clip-path">
      <rect id="Rectangle_407541" data-name="Rectangle 407541" width="103.387" height="78.185" fill="none"/>
    </clipPath>
  </defs>
  <g id="Group_1117917" data-name="Group 1117917" transform="translate(-10.074 9219.916)">
    <g id="Group_1117127" data-name="Group 1117127" transform="translate(10.074 -9219.915)">
      <path id="Path_882862" data-name="Path 882862" d="M89,0A89.047,89.047,0,1,1,0,89,89,89,0,0,1,89,0Z" transform="translate(0 -0.001)" fill="#f6ae5c"/>
      <path id="Path_882863" data-name="Path 882863" d="M78.668,0A78.668,78.668,0,1,1,0,78.668,78.668,78.668,0,0,1,78.668,0Z" transform="translate(10.332 10.331)" fill="#f3f9ff"/>
    </g>
    <g id="Group_1117130" data-name="Group 1117130" transform="translate(49.074 -9180.915)">
      <rect id="Rectangle_401104" data-name="Rectangle 401104" width="88.117" height="100.574" fill="none"/>
      <g id="Group_1117281" data-name="Group 1117281" transform="translate(-3.211 9.58)">
        <g id="Group_1117280" data-name="Group 1117280" transform="translate(0 0)" clip-path="url(#clip-path)">
          <path id="Path_895566" data-name="Path 895566" d="M21.364,30.286a4.991,4.991,0,0,1,.535-2.21l-9.861-.057a.657.657,0,0,0-.656.652l-.175,28.666A.657.657,0,0,0,11.86,58l9.384.055A5.2,5.2,0,0,1,21.2,57.4a5,5,0,0,1,9.992.061,5.135,5.135,0,0,1-.052.655l9.386.057a.654.654,0,0,0,.656-.651l.057-9.338a4.99,4.99,0,0,0,.063-9.978l.053-9.351a.654.654,0,0,0-.652-.661l-9.857-.058a4.994,4.994,0,1,1-9.486,2.152" transform="translate(6.91 17.278)" fill="#050c68"/>
          <path id="Path_895567" data-name="Path 895567" d="M35.058,49.774a4.993,4.993,0,0,1-2.212-.522v9.861a.653.653,0,0,0,.653.652l28.668.01a.656.656,0,0,0,.66-.656V49.734a5.523,5.523,0,0,1-.656.045,5,5,0,0,1,0-9.992,5.445,5.445,0,0,1,.653.049l0-9.388a.654.654,0,0,0-.656-.651l-9.339,0a4.989,4.989,0,0,0-9.978,0H33.509a.654.654,0,0,0-.656.655l0,9.858a4.994,4.994,0,1,1,2.207,9.473" transform="translate(20.254 15.339)" fill="#634419"/>
          <path id="Path_895568" data-name="Path 895568" d="M11.91,26.313a4.966,4.966,0,0,1-2.2-.567l-.2,9.86a.654.654,0,0,0,.64.666l28.661.59a.655.655,0,0,0,.673-.642l.191-9.383a5.2,5.2,0,0,1-.656.032,5,5,0,0,1,.207-9.991,5.8,5.8,0,0,1,.653.061l.194-9.384a.651.651,0,0,0-.642-.664L30.092,6.7a4.989,4.989,0,0,0-9.975-.207L10.767,6.3a.656.656,0,0,0-.669.642L9.9,16.8a4.995,4.995,0,1,1,2.014,9.517" transform="translate(5.863 1.036)" fill="#1e2ad5"/>
          <path id="Path_895569" data-name="Path 895569" d="M53.615,8.686c-.234.239-.113-7.262,1.8-6.7s5.655,1.662,5.71,3.988.1,4.793-1.284,5.781c0,0-1.212-8.17-6.222-3.068" transform="translate(33.006 1.206)" fill="#53424d"/>
          <path id="Path_895570" data-name="Path 895570" d="M51.809,14.395c-.424-.322-5.891-2.341-6.171-4.1-.2-1.276,3.55-2.957,3.55-2.957s-.078,1.76,4.551,2.921c3.9.978-1.93,4.135-1.93,4.135" transform="translate(28.136 4.525)" fill="#ffbe9e"/>
          <path id="Path_895571" data-name="Path 895571" d="M45.6,13.2c-.221-2.949,2.522-11.379,2.522-11.379l1.261,1.491-.23,10.148s-3.33,2.688-3.553-.259" transform="translate(28.11 1.125)" fill="#ffbe9e"/>
          <path id="Path_895572" data-name="Path 895572" d="M48.912,4.9a2.781,2.781,0,0,1,.6-.247,3.508,3.508,0,0,0,.964-.715c.163-.154.684-.286.656-.572-.05-.469-.858-.013-1.064.023a.468.468,0,0,1-.506-.2.594.594,0,0,1-.008-.375,12.025,12.025,0,0,1,.37-1.164c.066-.2.12-.4.173-.608a2.315,2.315,0,0,0,.155-.5c0-.123-.107-.255-.241-.225s-.123.149-.168.242q-.148.318-.31.63c-.023.045-.1.268-.157.28-.272.057-.073-.545-.047-.642a1.236,1.236,0,0,0,.045-.748A.117.117,0,0,0,49.317,0c-.053-.018-.1.034-.129.081-.167.273-.23.6-.4.873-.029.044-.07.091-.12.086-.21-.016-.163-.433-.158-.572,0-.087,0-.2-.084-.231a.149.149,0,0,0-.157.042.472.472,0,0,0-.081.149,4.612,4.612,0,0,0-.176.48c-.018.078-.055.315-.167.314a.078.078,0,0,1-.053-.032.416.416,0,0,1-.066-.225C47.712.888,47.678.8,47.6.778c-.1-.027-.179.066-.225.154a3.618,3.618,0,0,0-.293,1.025q-.109.55-.168,1.109c-.074.7,0,1.416-.136,2.1a1.231,1.231,0,0,0-.042.314A.812.812,0,0,0,47.015,6a1.292,1.292,0,0,0,1.046.37c.118-.016.365-.032.425-.141a.938.938,0,0,0,.026-.338,2.765,2.765,0,0,1,.053-.383,1.138,1.138,0,0,1,.346-.611" transform="translate(28.819 0)" fill="#ffbe9e"/>
          <path id="Path_895573" data-name="Path 895573" d="M60.274,13.9c1.7,1.164,2.881,2.9,1.959,4.407-.524.858-2.485,1.334-3.767,1.014C56,18.706,50.6,16.16,47.726,12.87c-1.052-1.206.336-5.094,2.944-4.248,3.424,1.109,7.209,3.641,9.6,5.278" transform="translate(29.211 5.243)" fill="#050c68"/>
          <path id="Path_895574" data-name="Path 895574" d="M2.9,0A13.7,13.7,0,0,1,5.111,2.168c.385,1.344-2.7,4.788-4.388,5.3C.486,7.536.039,7.407,0,6.714S1.306,3.709.395,3.05,2.9,0,2.9,0" transform="matrix(0.891, 0.454, -0.454, 0.891, 96.762, 70.425)" fill="#e8a32b"/>
          <path id="Path_895575" data-name="Path 895575" d="M9.72,22.274s.028-15.2-.417-17.66C8.649.994,4.669-1.44,1.179.957-1.22,2.6-.014,24.831,5.311,26.846,9.469,28.42,9.72,22.274,9.72,22.274" transform="matrix(0.891, 0.454, -0.454, 0.891, 95.887, 31.564)" fill="#2f7edd"/>
          <path id="Path_895576" data-name="Path 895576" d="M15.1,19.286C11.312,16.554.788,6.719.075,3.157-.693-.7,4.588-1.145,8.264,2.488,10.647,4.844,18.61,12.928,20.616,15.27c.486.568-1.215,2.148-2.114,2.9-.023.018-2.3,1.906-3.4,1.116" transform="matrix(0.891, 0.454, -0.454, 0.891, 89.06, 49.496)" fill="#2f7edd"/>
          <path id="Path_895577" data-name="Path 895577" d="M54.643,44.993a14.387,14.387,0,0,1,.289,3.235c-.606,1.339-5.416,1.993-7.115,1.251-.236-.105-.506-.512-.066-1.093s3.089-1.515,2.81-2.663,4.082-.731,4.082-.731" transform="translate(29.3 27.699)" fill="#e8a32b"/>
          <path id="Path_895578" data-name="Path 895578" d="M56.3,39.47s8.086-9.213,9.407-11.484c1.94-3.338.414-7.994-4.008-8.452-3.041-.315-17.348,18.184-14.314,23.515C49.7,47.1,56.3,39.47,56.3,39.47" transform="translate(28.962 12.043)" fill="#2f7edd"/>
          <path id="Path_895579" data-name="Path 895579" d="M48.832,54.659c-1.172-4.764-2.9-19.792-1.039-23.126,2-3.6,6.534-.369,7,5.039.3,3.5,1.169,15.389,1.18,18.627,0,.786-2.629.9-3.86.888-.031,0-2.942-.05-3.282-1.427" transform="translate(28.966 18.505)" fill="#2f7edd"/>
          <path id="Path_895580" data-name="Path 895580" d="M59.559,23.586c.647,1.133,2.394,3.917,4.017,2.933.218-.133.053-.5-.167-.364-1.347.816-2.941-1.78-3.487-2.735-.126-.221-.491-.058-.364.167" transform="translate(36.709 14.376)" fill="#2566bb"/>
          <path id="Path_895581" data-name="Path 895581" d="M56.37,23.981c-1.052.773-3.78,2.606-4.863,1.046-.145-.209.154-.477.3-.265.9,1.295,3.409-.43,4.3-1.082.205-.15.474.147.265.3" transform="translate(31.736 14.577)" fill="#2566bb"/>
          <path id="Path_895582" data-name="Path 895582" d="M57.648,25.055a4.615,4.615,0,0,0-.469,4.074c.118.341-.422.49-.538.15a4.982,4.982,0,0,1,.606-4.615c.218-.285.618.108.4.391" transform="translate(34.739 15.148)" fill="#2566bb"/>
          <path id="Path_895583" data-name="Path 895583" d="M52.067,13.958c.459-3.587,6.738-3.636,11.009-3.741,2.881-.073,4.691.931,5.458,6.082.3,2.026,1.516,8.148,1.1,11.42-.076.588-.813,1.242-1.182,1.707C66.339,32.1,52.368,32.234,52.344,29a57.708,57.708,0,0,1-.276-15.046" transform="translate(31.874 6.299)" fill="#050c68"/>
          <path id="Path_895584" data-name="Path 895584" d="M59.37,6.916s-4.124,1.521-3.838,1.835S55.5,9.824,55.59,10.5a3.885,3.885,0,0,1-.834,2.422c-.385.585.519,1.091,1.263,1.124,3.207.142,5.013-1.306,4.208-2.223a5.424,5.424,0,0,1-.857-4.91" transform="translate(33.707 4.265)" fill="#ffbe9e"/>
          <path id="Path_895585" data-name="Path 895585" d="M55.358,10.548c-.086-.679.23-1.439-.058-1.752s4.163-1.954,4.163-1.954a3.344,3.344,0,0,0-.561,1.9,8.541,8.541,0,0,1-3.859,3.311,3.513,3.513,0,0,0,.315-1.505" transform="translate(33.941 4.219)" fill="#ff9c81"/>
          <path id="Path_895586" data-name="Path 895586" d="M55.059,4.572c-1.494,1.5-2.3,6.077-.249,7.909,1.125,1.006,4.452-.708,5.739-3.43a5.432,5.432,0,0,0-.736-4.172c-.522-.858-3.2-1.869-4.754-.306" transform="translate(33.037 2.316)" fill="#ffbe9e"/>
          <path id="Path_895587" data-name="Path 895587" d="M53.615,8.864c.04.268,0-2.7,1.607-3.127.655-.176.6.546,1.385.495.666-.047,2.454-1.655,2.254,2.383-.01.192.2.39.312.546.137.194-.129.719-.091.954s.618-.566.635-.338c.029.344-.427,1.384.084,1.445.247.029.485-.4.64-.551a8.765,8.765,0,0,0,1.309-1.293,3.786,3.786,0,0,0,.567-1.988,3.565,3.565,0,0,0-.458-1.99,2.632,2.632,0,0,0-1.736-1.185,9.65,9.65,0,0,1-1.28-.157c-.359-.116-.732-.107-1.094-.223a1.455,1.455,0,0,1-.619-.443A2.012,2.012,0,0,0,55.4,2.849a1.674,1.674,0,0,0-1.3,1.216c-.079.346-.533,3.828-.514,4.09.016.238,0,.472.034.71" transform="translate(33.039 1.738)" fill="#53424d"/>
          <path id="Path_895588" data-name="Path 895588" d="M56.858,7.443s1.056-1.235,1.765-1.025.034,2.161-1.379,2.106-.718-.74-.386-1.082" transform="translate(34.774 3.943)" fill="#ffbe9e"/>
          <path id="Path_895589" data-name="Path 895589" d="M56.143,6.94c.029-.021-.032.019-.044.026a.724.724,0,0,1-.152.06c-.209.048-.323-.078-.4-.249-.047-.107-.215-.021-.168.087a.557.557,0,0,0,.891.209c.1-.07-.031-.2-.129-.133" transform="translate(34.144 4.149)" fill="#201714"/>
          <path id="Path_895590" data-name="Path 895590" d="M54.874,6.621a.667.667,0,0,1-.16.141c-.194.118-.327.006-.427-.167-.06-.1-.226-.016-.168.086a.482.482,0,0,0,.564.294.766.766,0,0,0,.351-.257c.074-.094-.086-.189-.16-.1" transform="translate(33.363 4.039)" fill="#201714"/>
          <path id="Path_895591" data-name="Path 895591" d="M54.347,6.135a.563.563,0,0,1,.715.291c.07.128.262,0,.191-.123a.777.777,0,0,0-.975-.385.114.114,0,0,0,.07.217" transform="translate(33.422 3.619)" fill="#4d2f20"/>
          <path id="Path_895592" data-name="Path 895592" d="M55.538,6.479a.562.562,0,0,1,.766.086c.1.105.254-.065.152-.17a.778.778,0,0,0-1.044-.105c-.12.084.006.273.126.189" transform="translate(34.139 3.784)" fill="#4d2f20"/>
          <path id="Path_895593" data-name="Path 895593" d="M55.238,6.463a1.136,1.136,0,0,1,.048.63c-.078.294-.4.433-.577.681-.239.338.015.527.42.629.1.026.141-.1.042-.123-.909-.228.128-.724.254-1.106a1.2,1.2,0,0,0-.034-.745c-.027-.079-.181-.047-.154.034" transform="translate(33.678 3.937)" fill="#7c4930"/>
          <path id="Path_895594" data-name="Path 895594" d="M54.8,8.868s-.474-.622.068-.978a.754.754,0,0,1,.981.192Z" transform="translate(33.673 4.792)" fill="#faffff"/>
          <path id="Path_895595" data-name="Path 895595" d="M56.49,7.924a.441.441,0,1,1-.294-.55.441.441,0,0,1,.294.55" transform="translate(34.301 4.536)" fill="#ff9c81"/>
          <path id="Path_895596" data-name="Path 895596" d="M53.912,7.148a.447.447,0,1,1-.049.63.448.448,0,0,1,.049-.63" transform="translate(33.147 4.342)" fill="#ff9c81"/>
          <path id="Path_895597" data-name="Path 895597" d="M52.6,2.962A5.361,5.361,0,0,0,52.021.6L62.581.5a.7.7,0,0,1,.706.694l.294,30.7a.7.7,0,0,1-.7.713L52.834,32.7a5.924,5.924,0,0,0,.044-.7,5.352,5.352,0,1,0-10.7.1,5.866,5.866,0,0,0,.058.7l-10.054.1a.7.7,0,0,1-.7-.7l-.1-10a5.344,5.344,0,0,1-.1-10.686L31.179,1.5a.7.7,0,0,1,.7-.71l10.558-.1A5.349,5.349,0,1,0,52.6,2.962" transform="translate(16.07 0.309)" fill="#ffc811"/>
          <path id="Path_895598" data-name="Path 895598" d="M60.205,19.024c-.373.378-3.081,5.539-4.861,5.59-1.29.037-2.475-3.9-2.475-3.9s1.736.3,3.484-4.137c1.473-3.741,3.852,2.448,3.852,2.448" transform="translate(32.6 9.481)" fill="#ffbe9e"/>
          <path id="Path_895599" data-name="Path 895599" d="M58.273,23.007c-2.952-.162-10.959-3.967-10.959-3.967l1.641-1.057,10.033,1.534s2.237,3.65-.715,3.49" transform="translate(29.175 11.089)" fill="#ffbe9e"/>
          <path id="Path_895600" data-name="Path 895600" d="M50.466,18.789a2.759,2.759,0,0,1-.168-.632,3.479,3.479,0,0,0-.584-1.048c-.133-.179-.2-.715-.483-.723-.47-.013-.123.847-.115,1.059a.466.466,0,0,1-.262.474.582.582,0,0,1-.375-.042,11.854,11.854,0,0,1-1.107-.516c-.189-.092-.383-.17-.58-.251a2.238,2.238,0,0,0-.47-.217.216.216,0,0,0-.254.21c.011.124.131.141.218.2.2.124.391.255.585.388.042.029.254.134.257.192.021.278-.55,0-.642-.036a1.248,1.248,0,0,0-.737-.142.114.114,0,0,0-.086.052c-.024.049.021.1.063.136.251.2.567.306.813.512.04.034.081.081.071.131-.044.205-.453.105-.588.084-.087-.015-.2-.023-.241.052a.147.147,0,0,0,.023.16.45.45,0,0,0,.137.1,4.13,4.13,0,0,0,.451.236c.076.029.307.1.291.207a.084.084,0,0,1-.039.05.435.435,0,0,1-.233.034.211.211,0,0,0-.2.1c-.039.091.042.184.123.242a3.626,3.626,0,0,0,.978.422q.533.179,1.078.31c.684.163,1.4.183,2.071.407a1.27,1.27,0,0,0,.306.079.817.817,0,0,0,.55-.207,1.3,1.3,0,0,0,.5-.989c0-.121.015-.369-.086-.441a1.009,1.009,0,0,0-.331-.07,2.862,2.862,0,0,1-.372-.1,1.161,1.161,0,0,1-.563-.422" transform="translate(28.152 10.105)" fill="#ffbe9e"/>
          <path id="Path_895601" data-name="Path 895601" d="M60.861,12.506c1.373-1.537,3.243-2.483,4.622-1.374.784.629,1,2.635.521,3.865-.926,2.362-4.148,7.393-7.782,9.819-1.33.889-5.007-.989-3.833-3.468,1.541-3.253,4.539-6.678,6.473-8.843" transform="translate(33.396 6.567)" fill="#050c68"/>
          <path id="Path_895602" data-name="Path 895602" d="M9.039,14.755a2.432,2.432,0,0,0-1.009-3.11c-.689-.3-1.536.391-2.187,1.09C4.277,14.414.751,22.3,2.715,24.279c1.853,1.864,5.2-5.906,6.324-9.524" transform="translate(1.317 7.136)" fill="#fbb99d"/>
          <path id="Path_895603" data-name="Path 895603" d="M6.038,20.218S9.667,22,9.958,22.227c1.861,1.484,3.06,1.84,2.653,2.082-.752.443-3.269-.727-3.649-.9A17.07,17.07,0,0,1,7,22.318a7.815,7.815,0,0,1-.96-2.1" transform="translate(3.723 12.467)" fill="#fbb99d"/>
          <path id="Path_895604" data-name="Path 895604" d="M2.774,20.666C4.525,22.35,11.274,25,11.274,25V23.023L4.565,17.67s-3.54,1.311-1.791,3" transform="translate(1.411 10.896)" fill="#fbb99d"/>
          <path id="Path_895605" data-name="Path 895605" d="M15.554,44.068s-.6,3.023-.377,3.516c.661,1.466,6.056,2.267,7.975,1.489.268-.11.577-.548.092-1.187s-3.448-1.706-3.115-2.949-4.575-.87-4.575-.87" transform="translate(9.328 27.141)" fill="#e8a32b"/>
          <path id="Path_895606" data-name="Path 895606" d="M17.252,19.273,8.314,23.161a75.056,75.056,0,0,0,4.593,11.978l-.024,0,3.009,6.232a6.482,6.482,0,0,1,.595,2.069L18.248,59a2.226,2.226,0,0,0,1.1,1.717,6.85,6.85,0,0,0,5.081.677c3.2-.865,1.7-19.891,1.044-22.238a114.718,114.718,0,0,0-4.312-11.308Z" transform="translate(5.127 11.885)" fill="#685700"/>
          <path id="Path_895607" data-name="Path 895607" d="M1.927,43.135S-.031,45.5.019,46.051,6.13,51.564,6.13,51.564a.854.854,0,0,0,.614-1c-.124-.821-2.163-3.324-1.318-4.25s-3.5-3.177-3.5-3.177" transform="translate(0.011 26.598)" fill="#ca8623"/>
          <path id="Path_895608" data-name="Path 895608" d="M.417,44.668c1.339-.124,6.717,5.239,6,5.818-1.061.855-4.848-1.99-5.873-3.673C-.6,44.936.417,44.668.417,44.668" transform="translate(0 27.542)" fill="#e8a32b"/>
          <path id="Path_895609" data-name="Path 895609" d="M17.41,21.657,9.288,19.714A81.453,81.453,0,0,0,6.81,32.864l-.023-.01-.252,7.013A6.527,6.527,0,0,1,6.1,41.985L.475,56.5a2.353,2.353,0,0,0,.168,2.074,7.255,7.255,0,0,0,4.106,3.235c3.182.91,10.631-16.5,11.145-18.9a119.19,119.19,0,0,0,1.453-12.131Z" transform="translate(0.191 12.157)" fill="#685700"/>
          <path id="Path_895610" data-name="Path 895610" d="M13.379,21.843c.5,1.494,1.912,5.2,4.064,4.412.289-.105.181-.577-.112-.47-1.785.651-3.06-2.8-3.482-4.053-.1-.293-.569-.184-.47.112" transform="translate(8.242 13.294)" fill="#f6ae5c"/>
          <path id="Path_895611" data-name="Path 895611" d="M9.963,25.382a11.025,11.025,0,0,0,.98,4.732c.142.33.634.065.493-.264A10.415,10.415,0,0,1,10.52,25.4a.279.279,0,0,0-.558-.019" transform="translate(6.139 15.491)" fill="#f6ae5c"/>
          <path id="Path_895612" data-name="Path 895612" d="M13.234,5.46c.6,1.436,1.284,6.193-1.71,6.381-1.277.081-3.219-2.32-3.558-4.627-.147-.951.7-2.355,2.265-3.081a2.259,2.259,0,0,1,3,1.327" transform="translate(4.901 2.442)" fill="#fbb99d"/>
          <path id="Path_895613" data-name="Path 895613" d="M12.861,7.942s-1.715,2.04,0,3.72-4.5.867-4.5.867l.711-6.049Z" transform="translate(5.158 3.996)" fill="#fbb99d"/>
          <path id="Path_895614" data-name="Path 895614" d="M3.083,16.26s2.22-7.1,5.4-6.14-.37,8.355-.37,8.355-3.654-.433-5.028-2.215" transform="translate(1.901 6.186)" fill="#fec44f"/>
          <path id="Path_895615" data-name="Path 895615" d="M15.868,9.747a14.92,14.92,0,0,0-8.937.622c-4.305,1.735-.356,8.651.06,9.761,2.166,5.779-1.335,5.432-.647,6.736,1.233,2.341,7.223,2.63,10.99,1.318,1.473-.514,2.656-1.465,2.291-2.118-2.595-4.645-.525-6.953-.651-10.02-.131-3.144-.283-5.621-3.106-6.3" transform="translate(3.045 5.757)" fill="#feb801"/>
          <path id="Path_895616" data-name="Path 895616" d="M15.391,12.314a2.433,2.433,0,0,0-3.162-.833c-.629.417-.5,1.5-.265,2.431.566,2.224,4.738,8.975,7.9,8.933,2.627-.036-2.034-7.632-4.472-10.532" transform="translate(7.258 6.884)" fill="#fbb99d"/>
          <path id="Path_895617" data-name="Path 895617" d="M13.642,18.012s-4.772-5.7-2.252-7.86,6.833,4.826,6.833,4.826-2.341,2.84-4.582,3.034" transform="translate(6.57 6.005)" fill="#feb801"/>
          <path id="Path_895618" data-name="Path 895618" d="M14,2.987c2.278.183,3,1.912,2.024,3.867-1.544,3.106,2.6,1.964.419,5.335-1.725,2.672-.234,2.119.367,5.364.69,3.723-6.808,7-11.86,2.551C2.478,17.92-.221,14.9,4.861,10.006,6.434,8.493,7.829,8.652,8.971,5.86,9.648,4.2,10.654,2.719,14,2.987" transform="translate(1.222 1.823)" fill="#29283b"/>
          <path id="Path_895619" data-name="Path 895619" d="M20.278,16.139S22.422,13.672,22.992,14s-1.229,1.7-1.229,1.7Z" transform="translate(12.504 8.612)" fill="#fbb99d"/>
          <path id="Path_895620" data-name="Path 895620" d="M19.431,16.97s3.458-2.094,3.809-2.213c2.254-.765,2.716-1.14,2.7-.666-.032.873-1.879,2.126-2.226,2.354a15.057,15.057,0,0,1-1.995.852,7.821,7.821,0,0,1-2.286-.327" transform="translate(11.982 8.56)" fill="#fbb99d"/>
          <path id="Path_895621" data-name="Path 895621" d="M17.737,20.438c2.847-.719,8.023-4.863,8.023-4.863l-1.5-.611-7.989,2.364s-.894,3.705,1.461,3.11" transform="translate(9.933 9.228)" fill="#fbb99d"/>
        </g>
      </g>
    </g>
  </g>
</svg>
