<svg xmlns="http://www.w3.org/2000/svg" xmlns:xlink="http://www.w3.org/1999/xlink" width="105.336" height="105.336" viewBox="0 0 105.336 105.336">
  <defs>
    <clipPath id="clip-path">
      <rect id="Rectangle_401492" data-name="Rectangle 401492" width="98.986" height="98.987" transform="translate(0 0)" fill="#fff" stroke="#707070" stroke-width="1"/>
    </clipPath>
    <clipPath id="clip-path-2">
      <rect id="Rectangle_401491" data-name="Rectangle 401491" width="78.626" height="90.827" fill="#fff"/>
    </clipPath>
    <clipPath id="clip-path-3">
      <rect id="Rectangle_406251" data-name="Rectangle 406251" width="105" height="105" fill="#1e2ad5"/>
    </clipPath>
    <clipPath id="clip-path-4">
      <rect id="Rectangle_401492-2" data-name="Rectangle 401492" width="97.621" height="97.622" transform="translate(0 0)" fill="#fffceb" stroke="#707070" stroke-width="1"/>
    </clipPath>
    <clipPath id="clip-path-5">
      <rect id="Rectangle_407543" data-name="Rectangle 407543" width="62.254" height="53.605" fill="#fff"/>
    </clipPath>
  </defs>
  <g id="Group_1116345" data-name="Group 1116345" transform="translate(-313 -7638)">
    <g id="Group_1115376" data-name="Group 1115376" transform="translate(319.35 7641.083)">
      <rect id="Rectangle_401104" data-name="Rectangle 401104" width="92.228" height="93.717" transform="translate(3.379 0)" fill="none"/>
      <g id="Mask_Group_1098697" data-name="Mask Group 1098697" transform="translate(0 0.001)" clip-path="url(#clip-path)">
        <g id="Group_1100236" data-name="Group 1100236" transform="translate(13.462 4.038)">
          <g id="Group_1100235" data-name="Group 1100235" clip-path="url(#clip-path-2)">
            <path id="Path_873786" data-name="Path 873786" d="M69.95,73.053c.224,0,.449,0,.673,0,1.369-.008,2.738-.035,4.107-.013a2.764,2.764,0,0,1,1.174.248,1.708,1.708,0,0,1,.92,1.677,15.314,15.314,0,0,1-3.113,9.277,15.759,15.759,0,0,1-10.091,6.3,16.356,16.356,0,0,1-2.99.274q-25.131.024-50.261,0a9.8,9.8,0,0,1-9.35-5.811A10.022,10.022,0,0,1,.091,81.16C.03,80.3,0,79.428,0,78.561Q0,42.449.02,6.337A8.2,8.2,0,0,1,.5,3.434,5.247,5.247,0,0,1,5.673,0c.068,0,.136,0,.2,0Q33.141,0,60.407,0a5.618,5.618,0,0,1,3.925,1.393A5.31,5.31,0,0,1,66.113,5.23c.018.352.016.705.016,1.057q0,18.555,0,37.109a.809.809,0,0,0,.294.556,24.021,24.021,0,0,0,10.123,4.468,4.023,4.023,0,0,1,.9.257,1.528,1.528,0,0,1,.944,1.239,27.632,27.632,0,0,1,.236,3.12,25.982,25.982,0,0,1-6.764,17.936c-.612.683-1.288,1.309-1.934,1.961.007.04.015.08.022.119M50.1,55.205c0-1.09-.03-2.12.01-3.147a14.046,14.046,0,0,1,.246-2.216,1.607,1.607,0,0,1,1.415-1.328c.48-.081.958-.174,1.438-.262a19.8,19.8,0,0,0,9.131-4.27.92.92,0,0,0,.266-.619c.024-.718-.016-1.437-.016-2.156q.011-17.781.034-35.562a1.875,1.875,0,0,0-2.061-2.08c-3.361.051-6.723.016-10.084.016H5.465A1.65,1.65,0,0,0,3.627,5.135a5.319,5.319,0,0,0-.043.851q0,37.19.005,74.379a10.743,10.743,0,0,0,.164,1.818,6.272,6.272,0,0,0,5.3,5.026,6.156,6.156,0,0,0,6.776-4.081,9.392,9.392,0,0,0,.342-3.258c-.008-1.641-.01-3.282.015-4.922a1.77,1.77,0,0,1,1.759-1.9,5.075,5.075,0,0,1,.568-.027q19.8.01,39.605.021c.232,0,.464-.032.8-.057A26.458,26.458,0,0,1,50.7,58.76c-.136-.008-.256-.02-.375-.02q-11.345,0-22.69,0a8.382,8.382,0,0,1-.893-.037,1.8,1.8,0,0,1-1.672-1.733,1.85,1.85,0,0,1,1.667-1.714,10.388,10.388,0,0,1,1.1-.052q10.471,0,20.941,0H50.1M73.2,76.529h-.78q-11.1,0-22.2-.006-15.043,0-30.087,0c-.358,0-.465.1-.459.459.021,1.369.028,2.739.006,4.109a9.492,9.492,0,0,1-2.124,5.971.748.748,0,0,0-.067.178h.479q21.65,0,43.3,0a8.768,8.768,0,0,0,1.539-.1,12.42,12.42,0,0,0,9.355-7.045,10.761,10.761,0,0,0,1.037-3.56m-19.49-24.8a24.021,24.021,0,0,0,.427,6.368A22.755,22.755,0,0,0,63.82,72.4c.541.371.551.378,1.1,0,7.1-4.921,10.426-11.73,10.171-20.337-.009-.307-.112-.41-.4-.478a27.184,27.184,0,0,1-8.042-3.292c-.768-.474-1.512-.985-2.266-1.479a24.079,24.079,0,0,1-10.672,4.91" transform="translate(0 0)" fill="#fff"/>
            <path id="Path_873787" data-name="Path 873787" d="M51.693,50.362H30.064a5.66,5.66,0,0,1-.649-.023A1.8,1.8,0,0,1,27.63,48.37q-.011-9.6,0-19.2A1.827,1.827,0,0,1,29.544,27.2c.392-.023.786-.006,1.179-.006q21.344,0,42.689,0a4.382,4.382,0,0,1,.967.094,1.913,1.913,0,0,1,1.476,1.78c.009.135.005.271.005.407q0,9.3,0,18.591a1.991,1.991,0,0,1-2.255,2.29c-4.282.016-8.565.008-12.847.008H51.693M72.26,30.7h-2.3q-19.172,0-38.344-.005c-.394,0-.5.1-.494.5q.021,7.629,0,15.258c0,.311.085.384.387.383,2.453-.014,4.907-.012,7.36-.013l32.936-.008c.144,0,.289-.012.452-.02Z" transform="translate(-18.603 -18.307)" fill="#fff"/>
            <path id="Path_873788" data-name="Path 873788" d="M40.064,175.247c0,1.342-.057,2.687.015,4.024A2.043,2.043,0,0,1,37.8,181.54c-1.625,0-3.251.008-4.876,0-1.191-.009-2.384-.019-3.573-.076a1.732,1.732,0,0,1-1.722-1.8q-.03-4.411-.009-8.822a1.693,1.693,0,0,1,1.682-1.782c.417-.038.839-.026,1.259-.027,2.37,0,4.74-.007,7.11,0a4.277,4.277,0,0,1,1.122.131,1.75,1.75,0,0,1,1.274,1.73q0,2.175,0,4.35m-3.593-2.677c-1.7,0-3.352.006-5-.005-.3,0-.358.111-.355.386.017,1.56.014,3.119.021,4.679a2.733,2.733,0,0,0,.032.3h5.307Z" transform="translate(-18.591 -113.828)" fill="#fff"/>
            <path id="Path_873789" data-name="Path 873789" d="M40.076,120.788c0,1.451,0,2.9,0,4.352a1.747,1.747,0,0,1-1.828,1.849q-4.349,0-8.7,0a1.745,1.745,0,0,1-1.915-1.883q-.021-4.311,0-8.622a1.763,1.763,0,0,1,1.908-1.864c2.845,0,5.69,0,8.535-.008a1.848,1.848,0,0,1,1.8,1.017,1.593,1.593,0,0,1,.186.686c.016,1.491.008,2.982.008,4.473m-3.6-2.564a1.471,1.471,0,0,0-.171-.022c-1.624-.008-3.248-.008-4.872-.028-.314,0-.307.162-.305.384.008,1.435.01,2.871.014,4.306,0,.171,0,.342,0,.514h5.334Z" transform="translate(-18.603 -77.183)" fill="#fff"/>
            <path id="Path_873790" data-name="Path 873790" d="M91.882,114.622q6.545,0,13.09,0a3.467,3.467,0,0,1,.763.081,1.714,1.714,0,0,1,.138,3.281,4.628,4.628,0,0,1-1.274.212q-12.46.018-24.919,0a7.085,7.085,0,0,1-1.451-.14,1.729,1.729,0,0,1,.4-3.434c2.412-.005,4.824,0,7.235,0h6.016Z" transform="translate(-51.667 -77.189)" fill="#fff"/>
            <path id="Path_873791" data-name="Path 873791" d="M86.558,196.366q3.943,0,7.887,0a1.776,1.776,0,0,1,1.877,1.963,1.712,1.712,0,0,1-1.232,1.462,3.772,3.772,0,0,1-1,.15q-7.135.014-14.269,0c-.474,0-.948-.03-1.42-.077a1.908,1.908,0,0,1-1.681-1.8,1.928,1.928,0,0,1,1.868-1.7q3.984-.006,7.968,0" transform="translate(-51.666 -132.237)" fill="#fff"/>
            <path id="Path_873792" data-name="Path 873792" d="M86.584,145.122q-3.983,0-7.965,0a1.752,1.752,0,0,1-1.587-.881,1.54,1.54,0,0,1,.487-2.2,3.2,3.2,0,0,1,1.516-.48c5.012-.035,10.024-.025,15.037-.012a3.474,3.474,0,0,1,1.069.209,1.715,1.715,0,0,1,1.2,2,1.741,1.741,0,0,1-1.745,1.359c-2.425.007-4.85,0-7.275,0h-.732" transform="translate(-51.692 -95.314)" fill="#fff"/>
            <path id="Path_873793" data-name="Path 873793" d="M182.493,173.286c.835-.84,1.646-1.654,2.455-2.471.848-.856,1.677-1.732,2.545-2.568a1.755,1.755,0,0,1,2.985.752,1.725,1.725,0,0,1-.569,1.8c-.6.625-1.222,1.23-1.836,1.842q-2.072,2.066-4.146,4.129a1.964,1.964,0,0,1-1.45.708,1.537,1.537,0,0,1-1.106-.423c-.888-.873-1.79-1.734-2.652-2.633a1.715,1.715,0,0,1-.154-2.3,1.8,1.8,0,0,1,2.575-.176c.451.407.866.854,1.353,1.339" transform="translate(-120.002 -112.926)" fill="#fff"/>
          </g>
        </g>
      </g>
    </g>
    <g id="Group_1115379" data-name="Group 1115379" transform="translate(313 7638)">
      <g id="Group_1115374" data-name="Group 1115374" transform="translate(0)">
        <g id="Group_1113673" data-name="Group 1113673">
          <g id="Group_1113672" data-name="Group 1113672" clip-path="url(#clip-path-3)">
            <path id="Path_886855" data-name="Path 886855" d="M77.487,91.81c52.974-5.3,23.189-97.065-29.4-91.573C25.781,2.566,7.479,20,1.893,42.456c-4.738,19.049-.528,40.678,12.068,55.212,16.648,19.208,39.287-3.433,63.527-5.859" transform="translate(0 0)" fill="#1e2ad5"/>
          </g>
        </g>
      </g>
      <g id="Group_1115378" data-name="Group 1115378" transform="translate(63.368 61.449)">
        <path id="Path_886575" data-name="Path 886575" d="M2.3.08A1.992,1.992,0,0,0,.007,1.718,1.959,1.959,0,0,0,1.932,3.745,1.956,1.956,0,0,0,3.825,1.69C3.707.655,3.31-.284,2.3.08" transform="translate(24.008 0) rotate(19)" fill="#ffc811"/>
        <path id="Path_886576" data-name="Path 886576" d="M3.331.074C-.965-.863-.081,7.339.469,9.4a3.178,3.178,0,0,0,.463,1.1,2.28,2.28,0,0,0,2.443.667A3.762,3.762,0,0,0,5.387,9.5C6.945,7.014,7.3.942,3.331.074" transform="translate(14.172 7.033) rotate(19)" fill="#ffc811"/>
        <path id="Path_886577" data-name="Path 886577" d="M2.762,4.49c2.919-1.363.3-6.145-1.969-3.9A2.874,2.874,0,0,0,0,2.7a2.273,2.273,0,0,0,.25,1.043,2,2,0,0,0,2.511.744" transform="translate(27.898 7.145) rotate(19)" fill="#ffc811"/>
        <path id="Path_886578" data-name="Path 886578" d="M3.921,7.266C5.3,6.007,7.039,2.479,5.533.831,4.12-.712,1.827.079.977,1.69A10.442,10.442,0,0,0,.07,5.136,2.417,2.417,0,0,0,.248,6.852a2.543,2.543,0,0,0,.636.584,2.862,2.862,0,0,0,1.11.577,2.362,2.362,0,0,0,1.926-.747" transform="translate(20.618 17.257) rotate(19)" fill="#ffc811"/>
        <path id="Path_886579" data-name="Path 886579" d="M1.044,4.482a1.9,1.9,0,0,0,2.38-.213C5.484,2.212,1.874-1.766.3.878a2.883,2.883,0,0,0,0,2.565,2.451,2.451,0,0,0,.74,1.04" transform="translate(36.058 16.485) rotate(19)" fill="#ffc811"/>
        <path id="Path_886580" data-name="Path 886580" d="M.027.846A1.715,1.715,0,0,0,.469,2.24a1.911,1.911,0,0,0,.745.593,1.394,1.394,0,0,0,1.452-.281C4.349.907.476-1.2.027.846" transform="translate(35.28 24.662) rotate(19)" fill="#ffc811"/>
        <path id="Path_886581" data-name="Path 886581" d="M1,.785A3.852,3.852,0,0,0,.114,2.918,5.435,5.435,0,0,0,.275,5.784a2.681,2.681,0,0,0,2.2,1.744A2.835,2.835,0,0,0,5.12,5.547C5.856,3.5,3.741-2.037,1,.785" transform="translate(27.712 28.297) rotate(19)" fill="#ffc811"/>
        <path id="Path_886582" data-name="Path 886582" d="M.617,2.99a1.852,1.852,0,0,0,2.149.042C5.156,1.315,1.484-1.5.174.97A1.654,1.654,0,0,0,.617,2.99" transform="translate(9.087 20.713) rotate(19)" fill="#ffc811"/>
        <path id="Path_886583" data-name="Path 886583" d="M1.875.187A2.421,2.421,0,0,0,.7.948,3.136,3.136,0,0,0,.173,2.5,19.859,19.859,0,0,0,0,4.65,4.8,4.8,0,0,0,.352,6.883,2.08,2.08,0,0,0,2.181,8.115,2.445,2.445,0,0,0,3.966,6.993C5.321,5.148,6.055-1.159,1.875.187" transform="translate(2.642 25.923) rotate(19)" fill="#ffc811"/>
        <path id="Path_886584" data-name="Path 886584" d="M4.874.8C3.853.1,2.108-.417,1.139.472.278,1.263.084,2.976.02,4.044A5.626,5.626,0,0,0,.581,7.208,2.9,2.9,0,0,0,3.337,8.724a3.144,3.144,0,0,0,1.57-.761C7.085,6.127,7.351,2.486,4.874.8" transform="translate(13.438 33.458) rotate(19)" fill="#ffc811"/>
      </g>
    </g>
    <g id="Group_1115380" data-name="Group 1115380" transform="translate(316.726 7641.881)">
      <rect id="Rectangle_401104-2" data-name="Rectangle 401104" width="90.956" height="92.424" transform="translate(3.332 0)" fill="none"/>
      <g id="Mask_Group_1098697-2" data-name="Mask Group 1098697" transform="translate(0 0.001)" clip-path="url(#clip-path-4)">
        <g id="Group_1117286" data-name="Group 1117286" transform="translate(15.683 21.009)">
          <g id="Group_1117285" data-name="Group 1117285" clip-path="url(#clip-path-5)">
            <path id="Path_895625" data-name="Path 895625" d="M2.629.05,59.132,0a3.205,3.205,0,0,1,3.121,3.121v49.42l-.271.977L.355,53.6l-.274-.439L0,2.95A3.238,3.238,0,0,1,2.629.05M60.463,10.173V2.593c0-.3-1.415-1.181-1.866-.988H3.828c-.487-.235-2.044.633-2.044.988v7.58Zm0,1.605H1.784V52.087H60.463Z" fill="#fff"/>
            <path id="Path_895626" data-name="Path 895626" d="M146.6,239.707a1.6,1.6,0,0,1,.426.912,26.641,26.641,0,0,1-.018,4.277,1.71,1.71,0,0,1-1.338,1.338l-30.492.014a1.678,1.678,0,0,1-1.5-1.352,25.966,25.966,0,0,1,.037-4.584c.147-.649,1.045-1.1,1.662-1.188l30.362.105a3.205,3.205,0,0,1,.862.476m-24.016,1.187h-7.313v3.745h7.313Zm22.829,0H124.191v3.745h21.224Z" transform="translate(-93.335 -196.477)" fill="#fff"/>
            <path id="Path_895627" data-name="Path 895627" d="M115.029,132.27h22.747a2.086,2.086,0,0,1,1.516,1.516,19.807,19.807,0,0,1,0,4.02,2.011,2.011,0,0,1-1.649,1.561l-22.8-.042a1.821,1.821,0,0,1-1.159-1.159,26.988,26.988,0,0,1-.045-4.429,1.8,1.8,0,0,1,1.387-1.467m13.96,1.742H115.255v3.478l.268.268h13.466Zm8.561,0h-6.777v3.745h6.777Z" transform="translate(-93.317 -108.679)" fill="#fff"/>
            <path id="Path_895628" data-name="Path 895628" d="M91.517,85.541a2.724,2.724,0,0,1-1.626.6c-5.5.515-11.851-.364-17.443-.05a1.983,1.983,0,0,1-1.7-1.514,19.264,19.264,0,0,1,0-4.019A1.731,1.731,0,0,1,72.219,79l18.519.046a1.748,1.748,0,0,1,1.187,1.31,26.64,26.64,0,0,1,.018,4.277,1.6,1.6,0,0,1-.426.912M76.775,80.609h-4.28v3.745h4.28Zm13.555,0H78.558v3.745H90.33Z" transform="translate(-58.047 -64.907)" fill="#fff"/>
            <path id="Path_895629" data-name="Path 895629" d="M181.839,186.253h18.295c1.642.368,1.492,3.4,1.382,4.695-.126,1.474-.481,2.226-2.057,2.4-5.209.582-11.452-.441-16.773.006a1.937,1.937,0,0,1-2.053-1.871,24.582,24.582,0,0,1,.017-3.924,1.962,1.962,0,0,1,1.189-1.308m3.8,1.567h-3.121l-.268.268v3.478h3.389Zm14.09,0H187.419v3.745h12.306Z" transform="translate(-148.359 -153.033)" fill="#fff"/>
            <path id="Path_895630" data-name="Path 895630" d="M25.177,239.156c4.544-.5,5.309,6.414,1.187,7.081-5.142.833-5.982-6.554-1.187-7.081m-.192,1.781a1.878,1.878,0,0,0,.226,3.635c2.817.526,2.942-4.366-.226-3.635" transform="translate(-18.081 -196.48)" fill="#fff"/>
            <path id="Path_895631" data-name="Path 895631" d="M24.663,78.88c6.509-1.107,5.313,8.756-.31,6.823-3.4-1.17-2.837-6.288.31-6.823m2.31,2.152c-1.636-1.767-4.543.755-2.72,2.632,1.683,1.733,4.327-.9,2.72-2.632" transform="translate(-18.11 -64.74)" fill="#fff"/>
            <path id="Path_895632" data-name="Path 895632" d="M25.046,132.073c4.638-.658,5.6,6.311,1.34,7.05-5.068.878-5.872-6.407-1.34-7.05m-.787,4.892c1.761,1.756,4.426-1.073,2.623-2.712-1.753-1.594-4.338,1-2.623,2.712" transform="translate(-18.135 -108.481)" fill="#fff"/>
            <path id="Path_895633" data-name="Path 895633" d="M24.41,185.931c3.358-.622,5.8,2.777,3.792,5.576a3.593,3.593,0,0,1-6.379-2.991,4,4,0,0,1,2.587-2.585m.72,1.6a1.866,1.866,0,0,0,.3,3.719c2.6-.145,2.02-3.984-.3-3.719" transform="translate(-17.859 -152.708)" fill="#fff"/>
            <path id="Path_895634" data-name="Path 895634" d="M29.226,29.08a.973.973,0,0,1,.44-1.525c.836-.242,4.915-.429,3.887,1.392-.306.517-3.96.5-4.327.133" transform="translate(-23.831 -22.516)" fill="#fff"/>
            <path id="Path_895635" data-name="Path 895635" d="M72,27.855a14.153,14.153,0,0,1,3.134,0,.871.871,0,0,1,.408,1.581,12.5,12.5,0,0,1-3.721.127c-.933-.272-.785-1.484.179-1.708" transform="translate(-58.499 -22.815)" fill="#fff"/>
          </g>
        </g>
      </g>
    </g>
  </g>
</svg>
