<svg xmlns="http://www.w3.org/2000/svg" xmlns:xlink="http://www.w3.org/1999/xlink" width="105.336" height="105.336" viewBox="0 0 105.336 105.336">
  <defs>
    <clipPath id="clip-path">
      <rect id="Rectangle_401492" data-name="Rectangle 401492" width="98.986" height="98.987" transform="translate(0 0)" fill="#fff" stroke="#707070" stroke-width="1"/>
    </clipPath>
    <clipPath id="clip-path-2">
      <rect id="Rectangle_401491" data-name="Rectangle 401491" width="78.626" height="90.827" fill="#fff"/>
    </clipPath>
    <clipPath id="clip-path-3">
      <rect id="Rectangle_406251" data-name="Rectangle 406251" width="105" height="105" fill="#1e2ad5"/>
    </clipPath>
    <clipPath id="clip-path-4">
      <rect id="Rectangle_401492-2" data-name="Rectangle 401492" width="97.621" height="97.622" transform="translate(0 0)" fill="#fffceb" stroke="#707070" stroke-width="1"/>
    </clipPath>
    <clipPath id="clip-path-5">
      <rect id="Rectangle_407542" data-name="Rectangle 407542" width="62.926" height="62.814" fill="#fff"/>
    </clipPath>
  </defs>
  <g id="Group_1115393" data-name="Group 1115393" transform="translate(-313 -7638)">
    <g id="Group_1115376" data-name="Group 1115376" transform="translate(319.35 7641.083)">
      <rect id="Rectangle_401104" data-name="Rectangle 401104" width="92.228" height="93.717" transform="translate(3.379 0)" fill="none"/>
      <g id="Mask_Group_1098697" data-name="Mask Group 1098697" transform="translate(0 0.001)" clip-path="url(#clip-path)">
        <g id="Group_1100236" data-name="Group 1100236" transform="translate(13.462 4.038)">
          <g id="Group_1100235" data-name="Group 1100235" clip-path="url(#clip-path-2)">
            <path id="Path_873786" data-name="Path 873786" d="M69.95,73.053c.224,0,.449,0,.673,0,1.369-.008,2.738-.035,4.107-.013a2.764,2.764,0,0,1,1.174.248,1.708,1.708,0,0,1,.92,1.677,15.314,15.314,0,0,1-3.113,9.277,15.759,15.759,0,0,1-10.091,6.3,16.356,16.356,0,0,1-2.99.274q-25.131.024-50.261,0a9.8,9.8,0,0,1-9.35-5.811A10.022,10.022,0,0,1,.091,81.16C.03,80.3,0,79.428,0,78.561Q0,42.449.02,6.337A8.2,8.2,0,0,1,.5,3.434,5.247,5.247,0,0,1,5.673,0c.068,0,.136,0,.2,0Q33.141,0,60.407,0a5.618,5.618,0,0,1,3.925,1.393A5.31,5.31,0,0,1,66.113,5.23c.018.352.016.705.016,1.057q0,18.555,0,37.109a.809.809,0,0,0,.294.556,24.021,24.021,0,0,0,10.123,4.468,4.023,4.023,0,0,1,.9.257,1.528,1.528,0,0,1,.944,1.239,27.632,27.632,0,0,1,.236,3.12,25.982,25.982,0,0,1-6.764,17.936c-.612.683-1.288,1.309-1.934,1.961.007.04.015.08.022.119M50.1,55.205c0-1.09-.03-2.12.01-3.147a14.046,14.046,0,0,1,.246-2.216,1.607,1.607,0,0,1,1.415-1.328c.48-.081.958-.174,1.438-.262a19.8,19.8,0,0,0,9.131-4.27.92.92,0,0,0,.266-.619c.024-.718-.016-1.437-.016-2.156q.011-17.781.034-35.562a1.875,1.875,0,0,0-2.061-2.08c-3.361.051-6.723.016-10.084.016H5.465A1.65,1.65,0,0,0,3.627,5.135a5.319,5.319,0,0,0-.043.851q0,37.19.005,74.379a10.743,10.743,0,0,0,.164,1.818,6.272,6.272,0,0,0,5.3,5.026,6.156,6.156,0,0,0,6.776-4.081,9.392,9.392,0,0,0,.342-3.258c-.008-1.641-.01-3.282.015-4.922a1.77,1.77,0,0,1,1.759-1.9,5.075,5.075,0,0,1,.568-.027q19.8.01,39.605.021c.232,0,.464-.032.8-.057A26.458,26.458,0,0,1,50.7,58.76c-.136-.008-.256-.02-.375-.02q-11.345,0-22.69,0a8.382,8.382,0,0,1-.893-.037,1.8,1.8,0,0,1-1.672-1.733,1.85,1.85,0,0,1,1.667-1.714,10.388,10.388,0,0,1,1.1-.052q10.471,0,20.941,0H50.1M73.2,76.529h-.78q-11.1,0-22.2-.006-15.043,0-30.087,0c-.358,0-.465.1-.459.459.021,1.369.028,2.739.006,4.109a9.492,9.492,0,0,1-2.124,5.971.748.748,0,0,0-.067.178h.479q21.65,0,43.3,0a8.768,8.768,0,0,0,1.539-.1,12.42,12.42,0,0,0,9.355-7.045,10.761,10.761,0,0,0,1.037-3.56m-19.49-24.8a24.021,24.021,0,0,0,.427,6.368A22.755,22.755,0,0,0,63.82,72.4c.541.371.551.378,1.1,0,7.1-4.921,10.426-11.73,10.171-20.337-.009-.307-.112-.41-.4-.478a27.184,27.184,0,0,1-8.042-3.292c-.768-.474-1.512-.985-2.266-1.479a24.079,24.079,0,0,1-10.672,4.91" transform="translate(0 0)" fill="#fff"/>
            <path id="Path_873787" data-name="Path 873787" d="M51.693,50.362H30.064a5.66,5.66,0,0,1-.649-.023A1.8,1.8,0,0,1,27.63,48.37q-.011-9.6,0-19.2A1.827,1.827,0,0,1,29.544,27.2c.392-.023.786-.006,1.179-.006q21.344,0,42.689,0a4.382,4.382,0,0,1,.967.094,1.913,1.913,0,0,1,1.476,1.78c.009.135.005.271.005.407q0,9.3,0,18.591a1.991,1.991,0,0,1-2.255,2.29c-4.282.016-8.565.008-12.847.008H51.693M72.26,30.7h-2.3q-19.172,0-38.344-.005c-.394,0-.5.1-.494.5q.021,7.629,0,15.258c0,.311.085.384.387.383,2.453-.014,4.907-.012,7.36-.013l32.936-.008c.144,0,.289-.012.452-.02Z" transform="translate(-18.603 -18.307)" fill="#fff"/>
            <path id="Path_873788" data-name="Path 873788" d="M40.064,175.247c0,1.342-.057,2.687.015,4.024A2.043,2.043,0,0,1,37.8,181.54c-1.625,0-3.251.008-4.876,0-1.191-.009-2.384-.019-3.573-.076a1.732,1.732,0,0,1-1.722-1.8q-.03-4.411-.009-8.822a1.693,1.693,0,0,1,1.682-1.782c.417-.038.839-.026,1.259-.027,2.37,0,4.74-.007,7.11,0a4.277,4.277,0,0,1,1.122.131,1.75,1.75,0,0,1,1.274,1.73q0,2.175,0,4.35m-3.593-2.677c-1.7,0-3.352.006-5-.005-.3,0-.358.111-.355.386.017,1.56.014,3.119.021,4.679a2.733,2.733,0,0,0,.032.3h5.307Z" transform="translate(-18.591 -113.828)" fill="#fff"/>
            <path id="Path_873789" data-name="Path 873789" d="M40.076,120.788c0,1.451,0,2.9,0,4.352a1.747,1.747,0,0,1-1.828,1.849q-4.349,0-8.7,0a1.745,1.745,0,0,1-1.915-1.883q-.021-4.311,0-8.622a1.763,1.763,0,0,1,1.908-1.864c2.845,0,5.69,0,8.535-.008a1.848,1.848,0,0,1,1.8,1.017,1.593,1.593,0,0,1,.186.686c.016,1.491.008,2.982.008,4.473m-3.6-2.564a1.471,1.471,0,0,0-.171-.022c-1.624-.008-3.248-.008-4.872-.028-.314,0-.307.162-.305.384.008,1.435.01,2.871.014,4.306,0,.171,0,.342,0,.514h5.334Z" transform="translate(-18.603 -77.183)" fill="#fff"/>
            <path id="Path_873790" data-name="Path 873790" d="M91.882,114.622q6.545,0,13.09,0a3.467,3.467,0,0,1,.763.081,1.714,1.714,0,0,1,.138,3.281,4.628,4.628,0,0,1-1.274.212q-12.46.018-24.919,0a7.085,7.085,0,0,1-1.451-.14,1.729,1.729,0,0,1,.4-3.434c2.412-.005,4.824,0,7.235,0h6.016Z" transform="translate(-51.667 -77.189)" fill="#fff"/>
            <path id="Path_873791" data-name="Path 873791" d="M86.558,196.366q3.943,0,7.887,0a1.776,1.776,0,0,1,1.877,1.963,1.712,1.712,0,0,1-1.232,1.462,3.772,3.772,0,0,1-1,.15q-7.135.014-14.269,0c-.474,0-.948-.03-1.42-.077a1.908,1.908,0,0,1-1.681-1.8,1.928,1.928,0,0,1,1.868-1.7q3.984-.006,7.968,0" transform="translate(-51.666 -132.237)" fill="#fff"/>
            <path id="Path_873792" data-name="Path 873792" d="M86.584,145.122q-3.983,0-7.965,0a1.752,1.752,0,0,1-1.587-.881,1.54,1.54,0,0,1,.487-2.2,3.2,3.2,0,0,1,1.516-.48c5.012-.035,10.024-.025,15.037-.012a3.474,3.474,0,0,1,1.069.209,1.715,1.715,0,0,1,1.2,2,1.741,1.741,0,0,1-1.745,1.359c-2.425.007-4.85,0-7.275,0h-.732" transform="translate(-51.692 -95.314)" fill="#fff"/>
            <path id="Path_873793" data-name="Path 873793" d="M182.493,173.286c.835-.84,1.646-1.654,2.455-2.471.848-.856,1.677-1.732,2.545-2.568a1.755,1.755,0,0,1,2.985.752,1.725,1.725,0,0,1-.569,1.8c-.6.625-1.222,1.23-1.836,1.842q-2.072,2.066-4.146,4.129a1.964,1.964,0,0,1-1.45.708,1.537,1.537,0,0,1-1.106-.423c-.888-.873-1.79-1.734-2.652-2.633a1.715,1.715,0,0,1-.154-2.3,1.8,1.8,0,0,1,2.575-.176c.451.407.866.854,1.353,1.339" transform="translate(-120.002 -112.926)" fill="#fff"/>
          </g>
        </g>
      </g>
    </g>
    <g id="Group_1115379" data-name="Group 1115379" transform="translate(313 7638)">
      <g id="Group_1115374" data-name="Group 1115374" transform="translate(0)">
        <g id="Group_1113673" data-name="Group 1113673">
          <g id="Group_1113672" data-name="Group 1113672" clip-path="url(#clip-path-3)">
            <path id="Path_886855" data-name="Path 886855" d="M77.487,91.81c52.974-5.3,23.189-97.065-29.4-91.573C25.781,2.566,7.479,20,1.893,42.456c-4.738,19.049-.528,40.678,12.068,55.212,16.648,19.208,39.287-3.433,63.527-5.859" transform="translate(0 0)" fill="#1e2ad5"/>
          </g>
        </g>
      </g>
    </g>
    <g id="Group_1115380" data-name="Group 1115380" transform="translate(316.726 7641.881)">
      <rect id="Rectangle_401104-2" data-name="Rectangle 401104" width="90.956" height="92.424" transform="translate(3.332 0)" fill="none"/>
      <g id="Mask_Group_1098697-2" data-name="Mask Group 1098697" transform="translate(0 0.001)" clip-path="url(#clip-path-4)">
        <g id="Group_1117283" data-name="Group 1117283" transform="translate(15.347 13.788)">
          <g id="Group_1117282" data-name="Group 1117282" clip-path="url(#clip-path-5)">
            <path id="Path_895622" data-name="Path 895622" d="M32.35,5.419V17.158h5.5l.279-.279V12.593c-3.711-1.545-1.613-6.933,2.116-5.283,1.682.744,1.943,3.419.59,4.635-.2.182-1.028.5-1.028.649v4.565H56.852c.464,0,1.77,1.524,1.77,1.956v34h3.633a1.772,1.772,0,0,1,.417.237,7.384,7.384,0,0,1-6.744,9.461L6.567,62.784A7.433,7.433,0,0,1,.351,53.355a1.772,1.772,0,0,1,.417-.237H4.4V36.256c-.569-.547-1.576-.187-2.333-.275C.676,35.818.2,34.525.108,33.282a49.43,49.43,0,0,1,0-6.536c.244-2.595,2.1-2.656,4.293-2.508V19.114c0-.432,1.306-1.956,1.77-1.956H23.22V12.593c0-.121-1.395-.723-1.718-1.636a2.769,2.769,0,0,1,2.749-3.87c3.195.144,3.477,4.372.646,5.505v4.285l.279.279h5.5V5.419C27.639,4.6,28.416,0,31.512,0s3.873,4.6.838,5.418M32.3,2.111c-.861-.857-2.578.365-1.535,1.443.951.983,2.4-.578,1.535-1.443M23.915,8.8a1.026,1.026,0,0,0,.319,2.025A1.026,1.026,0,0,0,23.915,8.8m14.905,0a1.026,1.026,0,1,0,.32,2.026c1.2-.17.982-2.228-.32-2.026M56.759,53.118V19.3l-.55-.382H6.815l-.55.382v4.938H7.756V20.977a1.663,1.663,0,0,1,.375-.37H54.893a1.663,1.663,0,0,1,.375.37V53.118Zm-26.644,0h23.2l.279-.279V22.468l-.279-.279H9.712c-.53.491-.2,1.384-.279,2.05h7.173c.7,0,1.654,1.294,1.758,1.968a51.879,51.879,0,0,1,.016,7.818C18.214,35.4,17.3,35.93,16.034,36.15c-.344.839.454,2.983-.742,3.181-1.091.18-2.059-1.672-2.783-2.425-.946-.984-1.748-1.36-3.077-.65V52.839l.279.279h5.5a7.192,7.192,0,0,1,6.521-6.523c-.517-.539-1.3-.648-1.87-1.2a4.061,4.061,0,0,1,.764-6.329,3.982,3.982,0,0,1,5.361,5.547,4.215,4.215,0,0,1-2.127,1.6c-.2.1-.35-.1-.265.389a7.342,7.342,0,0,1,6.521,6.522M16.513,26.1H2.259l-.279.279V34.02l.279.279H12.507l1.582,1.677c-.451-2.306,2.145-1.282,2.518-2.049ZM7.756,53.118V36.256l-.308-.25-1.182-.029V53.118ZM22.243,40.3c-3.246.611-1.59,5.718,1.452,4.073A2.208,2.208,0,0,0,22.243,40.3m6.008,12.821c-1.009-6.482-10.184-6.447-11.366,0Zm32.793,1.677H42.132c-.8,1.176.505,3.11-1.308,3.722l-18.9-.093c-1.437-.831-.245-2.533-1.029-3.629H1.98a5.428,5.428,0,0,0,4.394,6.133L56.807,60.9a5.432,5.432,0,0,0,4.237-6.1m-20.868,2.05L40.15,55.1l-.439-.306-16.688.082-.174,1.968Z" transform="translate(0 -0.001)" fill="#fff"/>
            <path id="Path_895623" data-name="Path 895623" d="M172.084,139.063h5.964c.039-.7-.262-2.255.651-2.423a35.785,35.785,0,0,1,5.228-.01c.672.079.759.4.831,1.032a35.09,35.09,0,0,1-.039,5c-.31,1.032-2.349.521-2.389.8l0,5.856c.848.01,2.21-.272,2.418.842a35.322,35.322,0,0,1-.093,5.3,1.115,1.115,0,0,1-.918.573,35.372,35.372,0,0,1-5-.049c-1.153-.332-.463-2.336-.8-2.386l-5.856,0c.025.8.164,2.225-.841,2.419a31.329,31.329,0,0,1-4.844,0c-.271-.029-.694-.064-.85-.31a31.907,31.907,0,0,1-.172-5.745c.169-.913,1.721-.612,2.423-.651l0-5.856c-.05-.336-2.054.354-2.386-.8a42.553,42.553,0,0,1,0-5.513.693.693,0,0,1,.334-.411,38.034,38.034,0,0,1,5.644-.053c.947.272.671,1.634.691,2.384m-1.862-.746h-2.888l-.279.279v2.888h3.168Zm12.67,0h-2.981v3.167h2.981Zm-4.844,2.609h-5.962c.235,2.051-.374,2.657-2.422,2.422v5.962c2.115-.268,2.622.339,2.422,2.422h5.962c-.237-2.142.282-2.659,2.422-2.422v-5.962c-2.083.2-2.69-.308-2.422-2.422m-7.826,10.248h-3.168v2.981h3.168Zm12.67,0h-2.981v2.981h2.981Z" transform="translate(-134.518 -111.098)" fill="#fff"/>
            <path id="Path_895624" data-name="Path 895624" d="M32.317,158.029a3.285,3.285,0,0,1-1.158.239,53.213,53.213,0,0,1-7.464,0c-1.516-.175-1.71-1.7-.185-1.868a55.726,55.726,0,0,1,8.21-.009.962.962,0,0,1,.6,1.64" transform="translate(-18.274 -127.129)" fill="#fff"/>
          </g>
        </g>
      </g>
    </g>
    <g id="Group_1117284" data-name="Group 1117284" transform="translate(378.408 7699.449)">
      <path id="Path_886575" data-name="Path 886575" d="M2.3.08A1.992,1.992,0,0,0,.007,1.718,1.959,1.959,0,0,0,1.932,3.745,1.956,1.956,0,0,0,3.825,1.69C3.707.655,3.31-.284,2.3.08" transform="translate(24.008 0) rotate(19)" fill="#ffc811"/>
      <path id="Path_886576" data-name="Path 886576" d="M3.331.074C-.965-.863-.081,7.339.469,9.4a3.178,3.178,0,0,0,.463,1.1,2.28,2.28,0,0,0,2.443.667A3.762,3.762,0,0,0,5.387,9.5C6.945,7.014,7.3.942,3.331.074" transform="translate(14.172 7.033) rotate(19)" fill="#ffc811"/>
      <path id="Path_886577" data-name="Path 886577" d="M2.762,4.49c2.919-1.363.3-6.145-1.969-3.9A2.874,2.874,0,0,0,0,2.7a2.273,2.273,0,0,0,.25,1.043,2,2,0,0,0,2.511.744" transform="translate(27.898 7.145) rotate(19)" fill="#ffc811"/>
      <path id="Path_886578" data-name="Path 886578" d="M3.921,7.266C5.3,6.007,7.039,2.479,5.533.831,4.12-.712,1.827.079.977,1.69A10.442,10.442,0,0,0,.07,5.136,2.417,2.417,0,0,0,.248,6.852a2.543,2.543,0,0,0,.636.584,2.862,2.862,0,0,0,1.11.577,2.362,2.362,0,0,0,1.926-.747" transform="translate(20.618 17.257) rotate(19)" fill="#ffc811"/>
      <path id="Path_886579" data-name="Path 886579" d="M1.044,4.482a1.9,1.9,0,0,0,2.38-.213C5.484,2.212,1.874-1.766.3.878a2.883,2.883,0,0,0,0,2.565,2.451,2.451,0,0,0,.74,1.04" transform="translate(36.058 16.485) rotate(19)" fill="#ffc811"/>
      <path id="Path_886580" data-name="Path 886580" d="M.027.846A1.715,1.715,0,0,0,.469,2.24a1.911,1.911,0,0,0,.745.593,1.394,1.394,0,0,0,1.452-.281C4.349.907.476-1.2.027.846" transform="translate(35.28 24.662) rotate(19)" fill="#ffc811"/>
      <path id="Path_886581" data-name="Path 886581" d="M1,.785A3.852,3.852,0,0,0,.114,2.918,5.435,5.435,0,0,0,.275,5.784a2.681,2.681,0,0,0,2.2,1.744A2.835,2.835,0,0,0,5.12,5.547C5.856,3.5,3.741-2.037,1,.785" transform="translate(27.712 28.297) rotate(19)" fill="#ffc811"/>
      <path id="Path_886582" data-name="Path 886582" d="M.617,2.99a1.852,1.852,0,0,0,2.149.042C5.156,1.315,1.484-1.5.174.97A1.654,1.654,0,0,0,.617,2.99" transform="translate(9.087 20.713) rotate(19)" fill="#ffc811"/>
      <path id="Path_886583" data-name="Path 886583" d="M1.875.187A2.421,2.421,0,0,0,.7.948,3.136,3.136,0,0,0,.173,2.5,19.859,19.859,0,0,0,0,4.65,4.8,4.8,0,0,0,.352,6.883,2.08,2.08,0,0,0,2.181,8.115,2.445,2.445,0,0,0,3.966,6.993C5.321,5.148,6.055-1.159,1.875.187" transform="translate(2.642 25.923) rotate(19)" fill="#ffc811"/>
      <path id="Path_886584" data-name="Path 886584" d="M4.874.8C3.853.1,2.108-.417,1.139.472.278,1.263.084,2.976.02,4.044A5.626,5.626,0,0,0,.581,7.208,2.9,2.9,0,0,0,3.337,8.724a3.144,3.144,0,0,0,1.57-.761C7.085,6.127,7.351,2.486,4.874.8" transform="translate(13.438 33.458) rotate(19)" fill="#ffc811"/>
    </g>
  </g>
</svg>
