<svg xmlns="http://www.w3.org/2000/svg" xmlns:xlink="http://www.w3.org/1999/xlink" width="104.668" height="126" viewBox="0 0 104.668 126">
  <defs>
    <clipPath id="clip-path">
      <rect id="Rectangle_400938" data-name="Rectangle 400938" width="85" height="85" transform="translate(-0.004)" fill="none"/>
    </clipPath>
    <clipPath id="clip-path-2">
      <rect id="Rectangle_401492" data-name="Rectangle 401492" width="52.101" height="52.101" transform="translate(-0.294 -0.317)" fill="#fff" stroke="#707070" stroke-width="1"/>
    </clipPath>
    <clipPath id="clip-path-3">
      <rect id="Rectangle_407556" data-name="Rectangle 407556" width="47.706" height="46.292" fill="#fff"/>
    </clipPath>
  </defs>
  <g id="Group_1118031" data-name="Group 1118031" transform="translate(-180.998 -5503)">
    <rect id="Rectangle_407422" data-name="Rectangle 407422" width="104.668" height="126" transform="translate(180.998 5503)" fill="#ffc811"/>
    <g id="Group_1117151" data-name="Group 1117151" transform="translate(-203.998 2774.992)">
      <g id="Group_1111452" data-name="Group 1111452" transform="translate(393 2749.008)">
        <g id="Group_1113606" data-name="Group 1113606" transform="translate(6.891 79.253) rotate(-90)">
          <path id="Union_11" data-name="Union 11" d="M35.5,70C15.9,70,0,54.333,0,35V0H35.5C55.107,0,71,15.672,71,35V70Z" transform="translate(0.254 0.105)" fill="#685700" stroke="rgba(0,0,0,0)" stroke-miterlimit="10" stroke-width="1"/>
          <g id="Group_1110743" data-name="Group 1110743" transform="translate(61.936 10.111) rotate(90)">
            <rect id="Rectangle_401104" data-name="Rectangle 401104" width="48.544" height="49.327" transform="translate(1.778)" fill="none"/>
            <g id="Group_1098697" data-name="Group 1098697" transform="translate(0 0)" clip-path="url(#clip-path-2)">
              <g id="Group_1117312" data-name="Group 1117312" transform="translate(1.706 2.682)">
                <g id="Group_1117311" data-name="Group 1117311" clip-path="url(#clip-path-3)">
                  <path id="Path_895718" data-name="Path 895718" d="M55.791,112.753v-3.889a2.265,2.265,0,0,0-.613-1.161c-1.223-1.028-2.829.052-1.706-2.864h-4.3c-.545,0-.967-1.288-.076-1.577a24.468,24.468,0,0,1,4.039-.066,1.977,1.977,0,0,1,1.842,2.728,3.005,3.005,0,0,1,2.319,2.661,47.325,47.325,0,0,1-.069,7.037c-.257.975-1.267,1.22-1.473,1.665-.161.348-.156,1-.311,1.463A7.471,7.471,0,0,1,52,122.913c.484,2.164,3.089,2.18,4.774,2.976a4.221,4.221,0,0,1,2.43,3.574c.048.6.175,2.024-.512,2.228-1.588.472-.992-1.925-1.161-2.738-.333-1.6-2.969-2.207-4.312-2.535-.4,1.125-3.293,2.942-4.307,2.285a.832.832,0,0,1-.044-1.309c.236-.187,1.192-.3,1.692-.561a3.81,3.81,0,0,0,1.257-1.075c.084-.321-1.357-1.56-1.285-2.23l-.124-.092a6.127,6.127,0,0,1-3.35-.04c.006.809-.9,1.713-1.565.951-.525-.6.177-1.215,0-1.495-.782-.458-3.6-2.4-2.032-3.259.722-.4,1.489.925,2.027,1.344a5.4,5.4,0,0,0,8.049-1.768,7.526,7.526,0,0,0,.612-1.571v-3.616a12.984,12.984,0,0,1-5.8-.815c-.428-.141-1.155-.667-1.56-.486-.568.254-1.051,1.651-1.64,2.191a4.012,4.012,0,0,1-1.889.908,8.342,8.342,0,0,1-4.239,5.933c.445,2.73,3.74,2.7,5.765,3.75,2.186,1.13,2.793,3.153,2.544,5.509-.048.452-.122.708-.626.742-1.279.088-.78-1.239-.876-2.108-.506-4.6-6.894-2.4-8.253-7.028-.716-2.44.448-1.937,1.906-3.142,2.744-2.268,2.258-5.138,2.261-8.364a3.187,3.187,0,0,1-2.058-2.677c-.721.312-2.215-.4-2.655-.362a7.005,7.005,0,0,1-.988.459,4.834,4.834,0,0,1-2.4-.487c-.195.012-.742.32-1.132.369-.467.058-.945-.015-1.412.021a3.187,3.187,0,0,1-2.058,2.677c-.091,3.462-.358,6.83,2.963,8.89a9.756,9.756,0,0,0,2.778.906c.913.306.725,1.65-.462,1.563-3.478-.255-6.555-3.637-6.895-7.032a31.438,31.438,0,0,1,.013-5.138c.158-.716,1.429-.564,1.937-1.474.43-.768.032-1.123.1-1.666.166-1.242,1.69-.26,2.363-.261.8,0,1.715-.725,2.176-.658.384.056.705.762,1.372.762s.987-.706,1.372-.762c.461-.067,1.373.657,2.176.658.676,0,2.193-.982,2.363.261.069.5-.324.88.043,1.592.43.834,2.029,1.039,2.029,1.518v3.889c1.042-.274,1.071-1.366,1.5-1.946.325-.444,1.034-.607,1.2-1.428.29-1.425-.687-1.689-.789-2.3-.122-.725.674-1.279.347-2.522-.306-1.162-1.669-1.09-1.912-1.636-.338-.758.252-1.755-.9-2.515-1.4-.929-2.147.215-3.056.063-.533-.089-.949-1.182-2.2-1.234-1.057-.044-1.506.7-2.176.7s-1.133-.735-2.183-.709c-1.235.031-1.643,1.149-2.191,1.241-.937.156-1.824-1.093-3.2.062-.987.826-.423,1.659-.748,2.39-.271.609-1.758.426-1.963,1.856-.153,1.068.456,1.561.4,2.159-.068.675-1.007,1.006-.811,2.323.179,1.2,1.493,1.309,1.6,2.5.117,1.25-1.82.829-2.6.682a19.222,19.222,0,0,1-4.882-1.952,7.106,7.106,0,0,1-2.157,1.94c0,2.1-.347,3.85.794,5.713A5.4,5.4,0,0,0,25.216,121c.458-.339,1.694-1.866,2.139-.471.382,1.2-2.02,1.985-2.1,2.41a2.509,2.509,0,0,0,1.853,1.934,10.447,10.447,0,0,0,2.9-.861c.548-.244,1.527-1.335,1.975-.338.357.794-.391.973-.286,1.365a2.92,2.92,0,0,0,.7.818,4.682,4.682,0,0,0,3.688,1.09c.606-.064,1.432-.642,1.9.008.884,1.217-1.559,1.6-2.307,1.634a6.375,6.375,0,0,1-4.563-1.725c-.508-.493-.6-1.242-1.386-1.089a12.813,12.813,0,0,0-3.887,1.713c-1.313,1.358-.5,2.832-.973,3.93-.168.394-1,.383-1.277.1a9.006,9.006,0,0,1-.1-2.836,5.356,5.356,0,0,1,1.875-2.9,3.993,3.993,0,0,1-1.636-2.389,6.971,6.971,0,0,1-8.326-4.428c-.17-.512-.2-1.309-.368-1.679-.256-.552-1.379-.686-1.54-2.007a46.576,46.576,0,0,1,0-6.828,2.656,2.656,0,0,1,1.049-1.68c.267-.172.677-.231.857-.371.205-.159.4-.733.633-1a6.081,6.081,0,0,1,3.164-2.021c.795-.178,3.319-.587,2.84.922-.258.813-1.612.468-2.3.573a4.3,4.3,0,0,0-2.616,1.75c-.211.3-.338.83-.529,1.04-.3.329-1.594.382-1.594,1.065v4.025a6.346,6.346,0,0,0,2.516-1.782c.269-.338.427-1.168.969-1.223a32.689,32.689,0,0,1,2.879,1.621,11.006,11.006,0,0,0,2.095.7A4.263,4.263,0,0,1,23.313,109c.083-.287.357-.618.388-.843.046-.328-.211-.81-.244-1.2a3.77,3.77,0,0,1,.893-2.788c.308-.334.884-.53,1.077-.833a11.552,11.552,0,0,0,.417-1.357,3.716,3.716,0,0,1,3.4-2.188c.425.008,1.111.351,1.476.255.2-.054.741-.61,1.151-.77a5.59,5.59,0,0,1,1.473-.311c.669,0,1.644.547,2.047.547.527,0,1.388-.577,2.3-.524,1.274.075,1.726.886,2.37,1.058.362.1,1.124-.264,1.6-.256a3.821,3.821,0,0,1,3.05,1.736c.342.6.383,1.395.647,1.809.362.567,1.212.677,1.7,1.845.613,1.461-.1,2.1.023,2.976.033.234.314.552.39.841a4.688,4.688,0,0,1,.186,2.127,13.5,13.5,0,0,0,5.054,1.365c1.089.046,2.234-.444,3.076.267" transform="translate(-11.542 -85.46)" fill="#fff"/>
                  <path id="Path_895719" data-name="Path 895719" d="M139.535,14.888c-.594.594-1.554-.4-2.175-.555-3.47-.876-2.816,3.815-.659,5.57a3.1,3.1,0,0,0,4.433.063,4.746,4.746,0,0,0,1.817-4.539c-.113-.5-1.049-1.205-.235-1.8.989-.719,1.792,1.135,1.886,1.92.666,5.553-6.386,9.723-10.137,4.27-2.142-3.114-1.5-7.7,3.114-7.071.785.108,2.9,1.2,1.958,2.138" transform="translate(-115.103 -10.96)" fill="#fff"/>
                  <path id="Path_895720" data-name="Path 895720" d="M7.513,284c.5.5-.2,1.1-.041,1.465.435.963,2.469,1.057,2.408,2.118-.11,1.891-3.638-.591-3.857-1.549-1.369.345-3.973.91-4.312,2.535-.171.822.429,3.207-1.161,2.738-.821-.242-.531-2.6-.332-3.276.735-2.488,3.212-2.795,5.28-3.589.551-.212,1.447-1.012,2.016-.442" transform="translate(0 -245.079)" fill="#fff"/>
                  <path id="Path_895721" data-name="Path 895721" d="M61.252,38.56a37.128,37.128,0,0,1,5.419-.021c1.088.171.943,1.451-.136,1.621a32.977,32.977,0,0,1-5.033,0c-.992-.155-1.161-1.4-.251-1.6" transform="translate(-52.379 -33.205)" fill="#fff"/>
                  <path id="Path_895722" data-name="Path 895722" d="M240.016,38.572a37.846,37.846,0,0,1,5.419-.02c1.043.164.894,1.46-.135,1.62a32.979,32.979,0,0,1-5.033,0c-1.023-.161-1.225-1.376-.251-1.6" transform="translate(-206.722 -33.217)" fill="#fff"/>
                  <path id="Path_895723" data-name="Path 895723" d="M158.118,226.235c.65-.017.957.931,2.1.584.471-.144,1.181-1.077,1.756-.268.776,1.093-1.393,1.965-2.24,1.965-.688,0-2.225-.548-2.367-1.327a.781.781,0,0,1,.754-.955" transform="translate(-135.88 -195.358)" fill="#fff"/>
                  <path id="Path_895724" data-name="Path 895724" d="M98.027,68.077a.8.8,0,0,1,.778,1.336A16.5,16.5,0,0,1,96.429,71a.809.809,0,0,1-.882-1.3,25.317,25.317,0,0,1,2.48-1.624" transform="translate(-82.33 -58.773)" fill="#fff"/>
                  <path id="Path_895725" data-name="Path 895725" d="M229.823.032c.887-.2,1.457.586.858,1.271a18.325,18.325,0,0,1-2.364,1.6.793.793,0,0,1-.919-1.2,13.389,13.389,0,0,1,2.425-1.67" transform="translate(-196.255 0.001)" fill="#fff"/>
                  <path id="Path_895726" data-name="Path 895726" d="M227.9,68.086a.812.812,0,0,1,.542.084c.175.067,2.183,1.42,2.282,1.54a.809.809,0,0,1-.882,1.3c-.145-.044-2.282-1.471-2.377-1.587a.955.955,0,0,1-.191-.851.973.973,0,0,1,.625-.485" transform="translate(-196.235 -58.782)" fill="#fff"/>
                  <path id="Path_895727" data-name="Path 895727" d="M96,.107c.652-.2,3.1,1.4,3.183,1.961a.8.8,0,0,1-1.053.917,10.656,10.656,0,0,1-2.581-1.945A.822.822,0,0,1,96,.107" transform="translate(-82.491 -0.078)" fill="#fff"/>
                </g>
              </g>
            </g>
          </g>
        </g>
      </g>
      <g id="Group_1115343" data-name="Group 1115343" transform="translate(456.03 2805.465)">
        <path id="Path_886575" data-name="Path 886575" d="M1.139.04A.987.987,0,0,0,0,.851.971.971,0,0,0,.958,1.857.97.97,0,0,0,1.9.838c-.059-.513-.255-.979-.758-.8" transform="translate(9.053 0) rotate(19)" fill="#ffefdb"/>
        <path id="Path_886576" data-name="Path 886576" d="M1.651.037C-.478-.428-.04,3.638.233,4.66a1.575,1.575,0,0,0,.229.547,1.13,1.13,0,0,0,1.211.331,1.865,1.865,0,0,0,1-.828C3.443,3.477,3.62.467,1.651.037" transform="translate(5.496 3.487) rotate(19)" fill="#ffefdb"/>
        <path id="Path_886577" data-name="Path 886577" d="M1.369,2.226C2.816,1.551,1.518-.82.393.293A1.425,1.425,0,0,0,0,1.34a1.127,1.127,0,0,0,.124.517.993.993,0,0,0,1.245.369" transform="translate(10.483 3.542) rotate(19)" fill="#ffefdb"/>
        <path id="Path_886578" data-name="Path 886578" d="M1.944,3.6c.684-.624,1.546-2.373.8-3.19A1.406,1.406,0,0,0,.484.838a5.177,5.177,0,0,0-.45,1.708A1.2,1.2,0,0,0,.123,3.4a1.261,1.261,0,0,0,.316.289,1.419,1.419,0,0,0,.55.286,1.171,1.171,0,0,0,.955-.37" transform="translate(7.717 8.555) rotate(19)" fill="#ffefdb"/>
        <path id="Path_886579" data-name="Path 886579" d="M.518,2.222A.944.944,0,0,0,1.7,2.116C2.719,1.1.929-.876.149.435a1.429,1.429,0,0,0,0,1.271,1.215,1.215,0,0,0,.367.515" transform="translate(13.495 8.172) rotate(19)" fill="#ffefdb"/>
        <path id="Path_886580" data-name="Path 886580" d="M.013.42a.85.85,0,0,0,.219.691A.947.947,0,0,0,.6,1.4a.691.691,0,0,0,.72-.139C2.156.45.236-.6.013.42" transform="translate(13.11 12.226) rotate(19)" fill="#ffefdb"/>
        <path id="Path_886581" data-name="Path 886581" d="M.5.389A1.91,1.91,0,0,0,.057,1.447a2.694,2.694,0,0,0,.08,1.421,1.329,1.329,0,0,0,1.092.864,1.405,1.405,0,0,0,1.31-.982C2.9,1.737,1.854-1.01.5.389" transform="translate(10.328 14.028) rotate(19)" fill="#ffefdb"/>
        <path id="Path_886582" data-name="Path 886582" d="M.306,1.482A.918.918,0,0,0,1.371,1.5C2.556.652.735-.742.086.481a.82.82,0,0,0,.22,1" transform="translate(3.516 10.268) rotate(19)" fill="#ffefdb"/>
        <path id="Path_886583" data-name="Path 886583" d="M.93.092A1.2,1.2,0,0,0,.345.47a1.555,1.555,0,0,0-.259.769A9.845,9.845,0,0,0,0,2.305,2.38,2.38,0,0,0,.175,3.412a1.031,1.031,0,0,0,.907.61,1.212,1.212,0,0,0,.885-.556C2.638,2.552,3-.574.93.092" transform="translate(1.31 12.851) rotate(19)" fill="#ffefdb"/>
        <path id="Path_886584" data-name="Path 886584" d="M2.416.395C1.91.049,1.045-.207.565.234A2.827,2.827,0,0,0,.01,2,2.789,2.789,0,0,0,.288,3.573a1.436,1.436,0,0,0,1.366.752,1.558,1.558,0,0,0,.778-.378A2.255,2.255,0,0,0,2.416.395" transform="translate(5.154 16.586) rotate(19)" fill="#ffefdb"/>
      </g>
      <g id="Group_1115350" data-name="Group 1115350" transform="translate(416.571 2779.005) rotate(180)">
        <path id="Path_886575-2" data-name="Path 886575" d="M1.139.04A.987.987,0,0,0,0,.851.971.971,0,0,0,.958,1.857.97.97,0,0,0,1.9.838c-.059-.513-.255-.979-.758-.8" transform="translate(9.053 0) rotate(19)" fill="#ffefdb"/>
        <path id="Path_886576-2" data-name="Path 886576" d="M1.651.037C-.478-.428-.04,3.638.233,4.66a1.575,1.575,0,0,0,.229.547,1.13,1.13,0,0,0,1.211.331,1.865,1.865,0,0,0,1-.828C3.443,3.477,3.62.467,1.651.037" transform="translate(5.496 3.487) rotate(19)" fill="#ffefdb"/>
        <path id="Path_886577-2" data-name="Path 886577" d="M1.369,2.226C2.816,1.551,1.518-.82.393.293A1.425,1.425,0,0,0,0,1.34a1.127,1.127,0,0,0,.124.517.993.993,0,0,0,1.245.369" transform="translate(10.483 3.542) rotate(19)" fill="#ffefdb"/>
        <path id="Path_886578-2" data-name="Path 886578" d="M1.944,3.6c.684-.624,1.546-2.373.8-3.19A1.406,1.406,0,0,0,.484.838a5.177,5.177,0,0,0-.45,1.708A1.2,1.2,0,0,0,.123,3.4a1.261,1.261,0,0,0,.316.289,1.419,1.419,0,0,0,.55.286,1.171,1.171,0,0,0,.955-.37" transform="translate(7.717 8.555) rotate(19)" fill="#ffefdb"/>
        <path id="Path_886579-2" data-name="Path 886579" d="M.518,2.222A.944.944,0,0,0,1.7,2.116C2.719,1.1.929-.876.149.435a1.429,1.429,0,0,0,0,1.271,1.215,1.215,0,0,0,.367.515" transform="translate(13.495 8.172) rotate(19)" fill="#ffefdb"/>
        <path id="Path_886580-2" data-name="Path 886580" d="M.013.42a.85.85,0,0,0,.219.691A.947.947,0,0,0,.6,1.4a.691.691,0,0,0,.72-.139C2.156.45.236-.6.013.42" transform="translate(13.11 12.226) rotate(19)" fill="#ffefdb"/>
        <path id="Path_886581-2" data-name="Path 886581" d="M.5.389A1.91,1.91,0,0,0,.057,1.447a2.694,2.694,0,0,0,.08,1.421,1.329,1.329,0,0,0,1.092.864,1.405,1.405,0,0,0,1.31-.982C2.9,1.737,1.854-1.01.5.389" transform="translate(10.328 14.028) rotate(19)" fill="#ffefdb"/>
        <path id="Path_886582-2" data-name="Path 886582" d="M.306,1.482A.918.918,0,0,0,1.371,1.5C2.556.652.735-.742.086.481a.82.82,0,0,0,.22,1" transform="translate(3.516 10.268) rotate(19)" fill="#ffefdb"/>
        <path id="Path_886583-2" data-name="Path 886583" d="M.93.092A1.2,1.2,0,0,0,.345.47a1.555,1.555,0,0,0-.259.769A9.845,9.845,0,0,0,0,2.305,2.38,2.38,0,0,0,.175,3.412a1.031,1.031,0,0,0,.907.61,1.212,1.212,0,0,0,.885-.556C2.638,2.552,3-.574.93.092" transform="translate(1.31 12.851) rotate(19)" fill="#ffefdb"/>
        <path id="Path_886584-2" data-name="Path 886584" d="M2.416.395C1.91.049,1.045-.207.565.234A2.827,2.827,0,0,0,.01,2,2.789,2.789,0,0,0,.288,3.573a1.436,1.436,0,0,0,1.366.752,1.558,1.558,0,0,0,.778-.378A2.255,2.255,0,0,0,2.416.395" transform="translate(5.154 16.586) rotate(19)" fill="#ffefdb"/>
      </g>
    </g>
  </g>
</svg>
