<svg xmlns="http://www.w3.org/2000/svg" xmlns:xlink="http://www.w3.org/1999/xlink" width="104.668" height="126" viewBox="0 0 104.668 126">
  <defs>
    <clipPath id="clip-path">
      <rect id="Rectangle_400938" data-name="Rectangle 400938" width="85" height="85" transform="translate(-0.004)" fill="none"/>
    </clipPath>
    <clipPath id="clip-path-2">
      <rect id="Rectangle_401492" data-name="Rectangle 401492" width="52.101" height="52.101" transform="translate(-0.294 -0.317)" fill="#fffceb" stroke="#707070" stroke-width="1"/>
    </clipPath>
    <clipPath id="clip-path-3">
      <rect id="Rectangle_407553" data-name="Rectangle 407553" width="45.868" height="46.021" fill="#fffceb"/>
    </clipPath>
  </defs>
  <g id="Group_1118030" data-name="Group 1118030" transform="translate(-810.998 -5333)">
    <rect id="Rectangle_407421" data-name="Rectangle 407421" width="104.668" height="126" transform="translate(810.998 5333)" fill="#ffc811"/>
    <g id="Group_1117150" data-name="Group 1117150" transform="translate(428.002 2604.992)">
      <g id="Group_1111452" data-name="Group 1111452" transform="translate(393 2749.008)">
        <g id="Group_1113606" data-name="Group 1113606" transform="translate(6.891 79.253) rotate(-90)">
          <path id="Union_11" data-name="Union 11" d="M35.5,70C15.9,70,0,54.333,0,35V0H35.5C55.107,0,71,15.672,71,35V70Z" transform="translate(0.254 0.105)" fill="#685700" stroke="rgba(0,0,0,0)" stroke-miterlimit="10" stroke-width="1"/>
          <g id="Group_1110743" data-name="Group 1110743" transform="translate(61.936 10.111) rotate(90)">
            <rect id="Rectangle_401104" data-name="Rectangle 401104" width="48.544" height="49.327" transform="translate(1.778)" fill="none"/>
            <g id="Mask_Group_1098697" data-name="Mask Group 1098697" transform="translate(0 0)" clip-path="url(#clip-path-2)">
              <g id="Group_1117306" data-name="Group 1117306" transform="translate(3.706 2.682)">
                <g id="Group_1117305" data-name="Group 1117305" clip-path="url(#clip-path-3)">
                  <path id="Path_895699" data-name="Path 895699" d="M35.22,42.325l-.453-.2-17.475.015c-2.648.9-5.276,2.635-7.868,3.564C6.588,46.717,6.1,44.136,5.132,42.19A4.986,4.986,0,0,1,0,37.731L.064,3.884A4.77,4.77,0,0,1,3.261.249,28.838,28.838,0,0,1,9.388.092c.4.057,1.26.588,1.26.974V3.693l.453.2,30.621-.005a4.69,4.69,0,0,1,4.145,4.264L45.8,42.134a4.606,4.606,0,0,1-3.226,3.607,26.348,26.348,0,0,1-6.1.185c-.4-.056-1.26-.588-1.26-.974ZM9.2,1.657H3.881a3.583,3.583,0,0,0-2.3,2.3V33.981c.475-.186.813-.526,1.316-.721a8.461,8.461,0,0,1,1.115-.33H9.2ZM41.987,5.467H10.648V33.521c0,.44-.982.918-1.391.974-1.746.237-4.963-.471-6.353.48a3.064,3.064,0,0,0,1.888,5.584,2.329,2.329,0,0,1,1.272-1.767l18.773-8.558c1.7-.14,3.473-.411,5.188-.463.982-.03,1.872-.2,2.493.671,1.04,1.464.107,2.187-.84,3.212-1.048,1.135-2.236,2.152-3.287,3.286l-7.624,3.61H35.22V12.5c0-.395.9-.891,1.28-.954,2.315-.389,5.975.927,7.4-1.539.968-1.68.032-4.215-1.909-4.537m2.3,36.595V11.906a8.423,8.423,0,0,1-1.355.813c-.15.06-1.144.369-1.207.369H36.665V44.362h5.322c.82,0,2.167-1.5,2.3-2.3M31.277,31.221l-4.86.4,1.446,3.415c.2.053.217-.052.329-.129a43.523,43.523,0,0,0,3.1-3.088c.167-.257.032-.324-.013-.594m-4.6,4.993c.073-.082-.408-1.461-.716-1.446l-4.8,2.183c-1.025.2-1.47-.838-.518-1.446,1.321-.844,3.391-1.36,4.79-2.177.052-.065-.485-1.344-.788-1.318l-13.735,6.24.716,1.351c.988-.245,5.343-2.714,5.988-2.542.76.2.681,1.079.039,1.5a47.526,47.526,0,0,1-4.947,2.283,1.1,1.1,0,0,1-.485.1,4.91,4.91,0,0,0,.493,1.277c.063.107-.031.215.225.168ZM9.586,38.983a15.061,15.061,0,0,0-2.709,1.148c-.484.327-.676.446-.506,1.08a28.907,28.907,0,0,0,1.272,2.8c.664,1,2.939-.654,3.779-1.031Z" transform="translate(0 0)" fill="#fffceb"/>
                  <path id="Path_895700" data-name="Path 895700" d="M118.129,74.216a1.831,1.831,0,0,1,.443.937,22.332,22.332,0,0,1,0,3.423c-.2,1.693-1.671,1.181-2.7,1.376a3.727,3.727,0,0,0-.986,1.388c-.049.516.7,1.134.782,1.71.184,1.225-.487,1.511-1.349,2.05-2.059,1.287-3.507,2.362-4.775-.554l-1.863.027c-.545,1.23-1.2,2.312-2.7,1.672a21.757,21.757,0,0,1-3.026-1.834c-.891-1.025.05-2,.451-2.959l-.722-1.369c-.456-.408-2.6.359-2.928-1.277a18.59,18.59,0,0,1,.074-4.072c.376-1.132,1.95-.94,2.9-.979l.679-1.477c-.628-1.315-1.466-2.144.007-3.288a29.758,29.758,0,0,1,2.843-1.623,1.577,1.577,0,0,1,1.8.638c.2.261.5,1.025.664,1.175.232.21,1.361.028,1.778.069.657-1.128,1.128-2.378,2.721-1.807a24.5,24.5,0,0,1,2.655,1.549,1.6,1.6,0,0,1,.767,1.8c-.1.478-.742,1.115-.761,1.486a5.344,5.344,0,0,0,.653,1.31c.427.436,1.832-.087,2.59.629M102.34,75.353h-2.168v2.694c0,.043.174.2.131.328h2.037c.42,0,.64.884.8,1.166.179.307.934,1.352.968,1.532.145.767-.575,1.474-.894,2.129l-.009.282,2.417,1.332c.589.007.84-1.894,1.719-1.972.3-.027.59.135.9.135a8.59,8.59,0,0,1,2.011-.04c.492.238.911,1.883,1.409,1.877l2.417-1.332c.2-.338-1.077-1.488-.9-2.411.034-.179.789-1.226.969-1.532.165-.282.384-1.166.8-1.166h2.168V75.353h-2.168c-.418,0-1.374-2.292-1.769-2.7-.322-.573,1.14-2.081.906-2.412l-2.541-1.315c-.558.529-.818,1.968-1.718,1.965-.459,0-1.021-.14-1.586-.14s-.889.374-1.43-.136c-.278-.262-.869-1.641-1.074-1.689l-2.54,1.315c-.233.331,1.228,1.839.906,2.412-.461.485-1.26,2.592-1.769,2.7" transform="translate(-85.713 -58.455)" fill="#fffceb"/>
                  <path id="Path_895701" data-name="Path 895701" d="M24.428,82.723a.841.841,0,0,1-1.414-.686V65.475a.793.793,0,1,1,1.582,0c-.351,5.352.458,11.281,0,16.564a1.178,1.178,0,0,1-.171.684" transform="translate(-19.99 -56.134)" fill="#fffceb"/>
                  <path id="Path_895702" data-name="Path 895702" d="M23.213,29.663c1.349-.245,1.13,2.579.634,2.878-1.577.95-1.69-2.686-.634-2.878" transform="translate(-19.563 -25.753)" fill="#fffceb"/>
                  <path id="Path_895703" data-name="Path 895703" d="M156.121,122.032c-2.947,2.893-7.447-2.078-3.961-4.683,3.046-2.277,6.687,2.006,3.961,4.683m-2.485-3.734a1.541,1.541,0,1,0,.858,2.96,1.541,1.541,0,0,0-.858-2.96" transform="translate(-131.066 -101.369)" fill="#fffceb"/>
                </g>
              </g>
            </g>
          </g>
        </g>
      </g>
      <g id="Group_1115343" data-name="Group 1115343" transform="translate(456.03 2805.465)">
        <path id="Path_886575" data-name="Path 886575" d="M1.139.04A.987.987,0,0,0,0,.851.971.971,0,0,0,.958,1.857.97.97,0,0,0,1.9.838c-.059-.513-.255-.979-.758-.8" transform="translate(9.053 0) rotate(19)" fill="#ffefdb"/>
        <path id="Path_886576" data-name="Path 886576" d="M1.651.037C-.478-.428-.04,3.638.233,4.66a1.575,1.575,0,0,0,.229.547,1.13,1.13,0,0,0,1.211.331,1.865,1.865,0,0,0,1-.828C3.443,3.477,3.62.467,1.651.037" transform="translate(5.496 3.487) rotate(19)" fill="#ffefdb"/>
        <path id="Path_886577" data-name="Path 886577" d="M1.369,2.226C2.816,1.551,1.518-.82.393.293A1.425,1.425,0,0,0,0,1.34a1.127,1.127,0,0,0,.124.517.993.993,0,0,0,1.245.369" transform="translate(10.483 3.542) rotate(19)" fill="#ffefdb"/>
        <path id="Path_886578" data-name="Path 886578" d="M1.944,3.6c.684-.624,1.546-2.373.8-3.19A1.406,1.406,0,0,0,.484.838a5.177,5.177,0,0,0-.45,1.708A1.2,1.2,0,0,0,.123,3.4a1.261,1.261,0,0,0,.316.289,1.419,1.419,0,0,0,.55.286,1.171,1.171,0,0,0,.955-.37" transform="translate(7.717 8.555) rotate(19)" fill="#ffefdb"/>
        <path id="Path_886579" data-name="Path 886579" d="M.518,2.222A.944.944,0,0,0,1.7,2.116C2.719,1.1.929-.876.149.435a1.429,1.429,0,0,0,0,1.271,1.215,1.215,0,0,0,.367.515" transform="translate(13.495 8.172) rotate(19)" fill="#ffefdb"/>
        <path id="Path_886580" data-name="Path 886580" d="M.013.42a.85.85,0,0,0,.219.691A.947.947,0,0,0,.6,1.4a.691.691,0,0,0,.72-.139C2.156.45.236-.6.013.42" transform="translate(13.11 12.226) rotate(19)" fill="#ffefdb"/>
        <path id="Path_886581" data-name="Path 886581" d="M.5.389A1.91,1.91,0,0,0,.057,1.447a2.694,2.694,0,0,0,.08,1.421,1.329,1.329,0,0,0,1.092.864,1.405,1.405,0,0,0,1.31-.982C2.9,1.737,1.854-1.01.5.389" transform="translate(10.328 14.028) rotate(19)" fill="#ffefdb"/>
        <path id="Path_886582" data-name="Path 886582" d="M.306,1.482A.918.918,0,0,0,1.371,1.5C2.556.652.735-.742.086.481a.82.82,0,0,0,.22,1" transform="translate(3.516 10.268) rotate(19)" fill="#ffefdb"/>
        <path id="Path_886583" data-name="Path 886583" d="M.93.092A1.2,1.2,0,0,0,.345.47a1.555,1.555,0,0,0-.259.769A9.845,9.845,0,0,0,0,2.305,2.38,2.38,0,0,0,.175,3.412a1.031,1.031,0,0,0,.907.61,1.212,1.212,0,0,0,.885-.556C2.638,2.552,3-.574.93.092" transform="translate(1.31 12.851) rotate(19)" fill="#ffefdb"/>
        <path id="Path_886584" data-name="Path 886584" d="M2.416.395C1.91.049,1.045-.207.565.234A2.827,2.827,0,0,0,.01,2,2.789,2.789,0,0,0,.288,3.573a1.436,1.436,0,0,0,1.366.752,1.558,1.558,0,0,0,.778-.378A2.255,2.255,0,0,0,2.416.395" transform="translate(5.154 16.586) rotate(19)" fill="#ffefdb"/>
      </g>
      <g id="Group_1115350" data-name="Group 1115350" transform="translate(416.571 2779.005) rotate(180)">
        <path id="Path_886575-2" data-name="Path 886575" d="M1.139.04A.987.987,0,0,0,0,.851.971.971,0,0,0,.958,1.857.97.97,0,0,0,1.9.838c-.059-.513-.255-.979-.758-.8" transform="translate(9.053 0) rotate(19)" fill="#ffefdb"/>
        <path id="Path_886576-2" data-name="Path 886576" d="M1.651.037C-.478-.428-.04,3.638.233,4.66a1.575,1.575,0,0,0,.229.547,1.13,1.13,0,0,0,1.211.331,1.865,1.865,0,0,0,1-.828C3.443,3.477,3.62.467,1.651.037" transform="translate(5.496 3.487) rotate(19)" fill="#ffefdb"/>
        <path id="Path_886577-2" data-name="Path 886577" d="M1.369,2.226C2.816,1.551,1.518-.82.393.293A1.425,1.425,0,0,0,0,1.34a1.127,1.127,0,0,0,.124.517.993.993,0,0,0,1.245.369" transform="translate(10.483 3.542) rotate(19)" fill="#ffefdb"/>
        <path id="Path_886578-2" data-name="Path 886578" d="M1.944,3.6c.684-.624,1.546-2.373.8-3.19A1.406,1.406,0,0,0,.484.838a5.177,5.177,0,0,0-.45,1.708A1.2,1.2,0,0,0,.123,3.4a1.261,1.261,0,0,0,.316.289,1.419,1.419,0,0,0,.55.286,1.171,1.171,0,0,0,.955-.37" transform="translate(7.717 8.555) rotate(19)" fill="#ffefdb"/>
        <path id="Path_886579-2" data-name="Path 886579" d="M.518,2.222A.944.944,0,0,0,1.7,2.116C2.719,1.1.929-.876.149.435a1.429,1.429,0,0,0,0,1.271,1.215,1.215,0,0,0,.367.515" transform="translate(13.495 8.172) rotate(19)" fill="#ffefdb"/>
        <path id="Path_886580-2" data-name="Path 886580" d="M.013.42a.85.85,0,0,0,.219.691A.947.947,0,0,0,.6,1.4a.691.691,0,0,0,.72-.139C2.156.45.236-.6.013.42" transform="translate(13.11 12.226) rotate(19)" fill="#ffefdb"/>
        <path id="Path_886581-2" data-name="Path 886581" d="M.5.389A1.91,1.91,0,0,0,.057,1.447a2.694,2.694,0,0,0,.08,1.421,1.329,1.329,0,0,0,1.092.864,1.405,1.405,0,0,0,1.31-.982C2.9,1.737,1.854-1.01.5.389" transform="translate(10.328 14.028) rotate(19)" fill="#ffefdb"/>
        <path id="Path_886582-2" data-name="Path 886582" d="M.306,1.482A.918.918,0,0,0,1.371,1.5C2.556.652.735-.742.086.481a.82.82,0,0,0,.22,1" transform="translate(3.516 10.268) rotate(19)" fill="#ffefdb"/>
        <path id="Path_886583-2" data-name="Path 886583" d="M.93.092A1.2,1.2,0,0,0,.345.47a1.555,1.555,0,0,0-.259.769A9.845,9.845,0,0,0,0,2.305,2.38,2.38,0,0,0,.175,3.412a1.031,1.031,0,0,0,.907.61,1.212,1.212,0,0,0,.885-.556C2.638,2.552,3-.574.93.092" transform="translate(1.31 12.851) rotate(19)" fill="#ffefdb"/>
        <path id="Path_886584-2" data-name="Path 886584" d="M2.416.395C1.91.049,1.045-.207.565.234A2.827,2.827,0,0,0,.01,2,2.789,2.789,0,0,0,.288,3.573a1.436,1.436,0,0,0,1.366.752,1.558,1.558,0,0,0,.778-.378A2.255,2.255,0,0,0,2.416.395" transform="translate(5.154 16.586) rotate(19)" fill="#ffefdb"/>
      </g>
    </g>
  </g>
</svg>
