<svg xmlns="http://www.w3.org/2000/svg" xmlns:xlink="http://www.w3.org/1999/xlink" width="99" height="99" viewBox="0 0 99 99">
  <defs>
    <clipPath id="clip-path">
      <rect id="Rectangle_401223" data-name="Rectangle 401223" width="99" height="99" transform="translate(0)" fill="#1e2ad5"/>
    </clipPath>
    <clipPath id="clip-path-2">
      <rect id="Rectangle_401223-2" data-name="Rectangle 401223" width="88.539" height="88.539" fill="#f3f9ff"/>
    </clipPath>
    <clipPath id="clip-path-3">
      <rect id="Rectangle_407645" data-name="Rectangle 407645" width="64.291" height="69.264" fill="none"/>
    </clipPath>
  </defs>
  <g id="Group_1100724" data-name="Group 1100724" transform="translate(-619.921 -5755.871)">
    <g id="Group_1100724-2" data-name="Group 1100724" transform="translate(619.921 5755.871)">
      <g id="Group_1099654" data-name="Group 1099654" transform="translate(0 0)">
        <g id="Group_1099652" data-name="Group 1099652" clip-path="url(#clip-path)">
          <path id="Path_873521" data-name="Path 873521" d="M99,77.066A22,22,0,0,1,77.066,99H21.934A22,22,0,0,1,0,77.066V21.933A22,22,0,0,1,21.934,0H77.066A22,22,0,0,1,99,21.934Z" transform="translate(0)" fill="#1e2ad5"/>
        </g>
      </g>
      <g id="Group_1099659" data-name="Group 1099659" transform="translate(4.77 5.723)">
        <g id="Group_1099652-2" data-name="Group 1099652" transform="translate(0 0)" clip-path="url(#clip-path-2)">
          <path id="Path_873521-2" data-name="Path 873521" d="M88.539,68.922A19.674,19.674,0,0,1,68.923,88.539H19.616A19.674,19.674,0,0,1,0,68.922V19.616A19.674,19.674,0,0,1,19.616,0H68.923A19.674,19.674,0,0,1,88.539,19.616Z" fill="#f3f9ff"/>
        </g>
      </g>
    </g>
    <g id="Group_1100725" data-name="Group 1100725" transform="translate(633.343 5767.871)">
      <rect id="Rectangle_401104" data-name="Rectangle 401104" width="75" height="75" transform="translate(-0.422 0)" fill="none"/>
      <g id="Group_1117399" data-name="Group 1117399" transform="translate(4.579 3)">
        <g id="Group_1117398" data-name="Group 1117398" clip-path="url(#clip-path-3)">
          <path id="Path_895945" data-name="Path 895945" d="M64.291,82.345A32.146,32.146,0,1,1,32.146,50.2,32.146,32.146,0,0,1,64.291,82.345" transform="translate(0 -45.227)" fill="#ffc811"/>
          <path id="Path_895946" data-name="Path 895946" d="M290.99,10.322A10.322,10.322,0,1,1,280.668,0,10.322,10.322,0,0,1,290.99,10.322" transform="translate(-243.565 0)" fill="#c3d8dd"/>
          <path id="Path_895947" data-name="Path 895947" d="M312.8,34.829a7.628,7.628,0,1,1-7.628-7.628,7.629,7.629,0,0,1,7.628,7.628" transform="translate(-268.07 -24.506)" fill="#92c1cc"/>
          <path id="Path_895948" data-name="Path 895948" d="M330.748,55a5.41,5.41,0,1,1-5.409-5.41A5.409,5.409,0,0,1,330.748,55" transform="translate(-288.236 -44.676)" fill="#c3d8dd"/>
          <path id="Path_895949" data-name="Path 895949" d="M297.753,31.573a8.6,8.6,0,0,1-3.41,3.311l.346.65a9.343,9.343,0,0,0,3.7-3.6ZM286.52,18.9a9.277,9.277,0,0,0-5.443,7.953l.733.039a8.558,8.558,0,0,1,5.011-7.325Z" transform="translate(-253.233 -17.023)" fill="#fff"/>
          <path id="Path_895950" data-name="Path 895950" d="M367.306,20.487V17.811a.9.9,0,1,0-1.787,0v2.676Z" transform="translate(-329.31 -15.165)" fill="#d2eef7"/>
          <path id="Path_895951" data-name="Path 895951" d="M328.391,53.191a5.7,5.7,0,1,1-5.7-5.7,5.7,5.7,0,0,1,5.7,5.7" transform="translate(-285.588 -42.786)" fill="#e8f5f9"/>
          <path id="Path_895952" data-name="Path 895952" d="M335.981,61.717a4.763,4.763,0,1,1-4.763-4.763,4.763,4.763,0,0,1,4.763,4.763" transform="translate(-294.115 -51.312)" fill="#cc8425"/>
          <path id="Path_895953" data-name="Path 895953" d="M344.64,71.442a3.694,3.694,0,1,1-3.695-3.694,3.695,3.695,0,0,1,3.695,3.694" transform="translate(-303.842 -61.037)" fill="#6d1d07"/>
          <path id="Path_895954" data-name="Path 895954" d="M66.132,116.8,95.76,146.426,74.665,167.52,49.52,142.375V133.41Z" transform="translate(-44.614 -105.228)" fill="#fff"/>
          <rect id="Rectangle_407638" data-name="Rectangle 407638" width="20.977" height="1.602" transform="matrix(0.707, -0.707, 0.707, 0.707, 17.832, 43.813)" fill="#bfdee0"/>
          <rect id="Rectangle_407639" data-name="Rectangle 407639" width="20.978" height="1.602" transform="matrix(0.707, -0.707, 0.707, 0.707, 20.237, 46.218)" fill="#bfdee0"/>
          <rect id="Rectangle_407640" data-name="Rectangle 407640" width="20.978" height="1.603" transform="translate(22.642 48.623) rotate(-45)" fill="#bfdee0"/>
          <rect id="Rectangle_407641" data-name="Rectangle 407641" width="20.978" height="1.603" transform="matrix(0.707, -0.707, 0.707, 0.707, 25.047, 51.028)" fill="#bfdee0"/>
          <rect id="Rectangle_407642" data-name="Rectangle 407642" width="20.978" height="1.602" transform="translate(27.452 53.433) rotate(-45)" fill="#bfdee0"/>
          <path id="Path_895955" data-name="Path 895955" d="M49.52,284.495,54,288.977,49.52,293.46Z" transform="translate(-44.614 -256.312)" fill="#aecdce"/>
          <path id="Path_895956" data-name="Path 895956" d="M281.054,249.619a1.246,1.246,0,0,1-1.6-.731l-10.795-28.864a1.246,1.246,0,0,1,.731-1.6l18.526-6.928a1.246,1.246,0,0,1,1.6.731l10.794,28.864a1.247,1.247,0,0,1-.731,1.6Z" transform="translate(-241.971 -190.47)" fill="#333"/>
          <rect id="Rectangle_407643" data-name="Rectangle 407643" width="17.779" height="27.117" transform="translate(29.284 30.09) rotate(-20.504)" fill="#f7f2ed"/>
          <path id="Path_895957" data-name="Path 895957" d="M473.073,537.284a1,1,0,1,1,.585-1.283,1,1,0,0,1-.585,1.283" transform="translate(-424.997 -482.32)" fill="#686868"/>
          <path id="Path_895958" data-name="Path 895958" d="M105.458,397.648a1.023,1.023,0,0,1-1.333.562l-.912-.348a1.023,1.023,0,0,1-.621-1.306l1.388-3.642a1.023,1.023,0,0,1,1.333-.561l.912.347a1.023,1.023,0,0,1,.621,1.306Z" transform="translate(-92.372 -353.421)" fill="#ff523b"/>
          <path id="Path_895959" data-name="Path 895959" d="M130.752,207.421l-6.531,17.139-1.433-.546,6.7-17.586.258.61.7-.246Z" transform="translate(-110.624 -185.979)" fill="#ffca07"/>
          <path id="Path_895960" data-name="Path 895960" d="M192.594,191.037l-.9,2.356-.308-.629-.7.246-.259-.61,1.689-1.542Z" transform="translate(-171.569 -171.95)" fill="#ffcb57"/>
          <path id="Path_895961" data-name="Path 895961" d="M208.325,183.25,207.5,184l.941.359Z" transform="translate(-186.944 -165.097)" fill="#333"/>
          <path id="Path_895962" data-name="Path 895962" d="M145.389,214.147l-6.7,17.586-1.433-.546,6.531-17.139.648-.264.308.629Z" transform="translate(-123.658 -192.605)" fill="#f77c0d"/>
          <path id="Path_895963" data-name="Path 895963" d="M204.787,195.126l-.647.265-.308-.629-.648.264.9-2.356.471.179Z" transform="translate(-183.056 -173.585)" fill="#f2b946"/>
          <rect id="Rectangle_407644" data-name="Rectangle 407644" width="3.221" height="3.067" transform="translate(11.017 41.044) rotate(-69.138)" fill="#686868"/>
        </g>
      </g>
    </g>
  </g>
</svg>
