<svg xmlns="http://www.w3.org/2000/svg" xmlns:xlink="http://www.w3.org/1999/xlink" width="99" height="99" viewBox="0 0 99 99">
  <defs>
    <clipPath id="clip-path">
      <rect id="Rectangle_401223" data-name="Rectangle 401223" width="99" height="99" transform="translate(0)" fill="#1e2ad5"/>
    </clipPath>
    <clipPath id="clip-path-2">
      <rect id="Rectangle_401223-2" data-name="Rectangle 401223" width="88.539" height="88.539" fill="#f3f9ff"/>
    </clipPath>
    <clipPath id="clip-path-3">
      <rect id="Rectangle_407654" data-name="Rectangle 407654" width="70.333" height="63.223" fill="none"/>
    </clipPath>
  </defs>
  <g id="Group_1100727" data-name="Group 1100727" transform="translate(-619.921 -5755.871)">
    <g id="Group_1100724" data-name="Group 1100724" transform="translate(619.921 5755.871)">
      <g id="Group_1099654" data-name="Group 1099654" transform="translate(0 0)">
        <g id="Group_1099652" data-name="Group 1099652" clip-path="url(#clip-path)">
          <path id="Path_873521" data-name="Path 873521" d="M99,77.066A22,22,0,0,1,77.066,99H21.934A22,22,0,0,1,0,77.066V21.933A22,22,0,0,1,21.934,0H77.066A22,22,0,0,1,99,21.934Z" transform="translate(0)" fill="#1e2ad5"/>
        </g>
      </g>
      <g id="Group_1099659" data-name="Group 1099659" transform="translate(4.77 5.723)">
        <g id="Group_1099652-2" data-name="Group 1099652" transform="translate(0 0)" clip-path="url(#clip-path-2)">
          <path id="Path_873521-2" data-name="Path 873521" d="M88.539,68.922A19.674,19.674,0,0,1,68.923,88.539H19.616A19.674,19.674,0,0,1,0,68.922V19.616A19.674,19.674,0,0,1,19.616,0H68.923A19.674,19.674,0,0,1,88.539,19.616Z" fill="#f3f9ff"/>
        </g>
      </g>
    </g>
    <g id="Group_1100725" data-name="Group 1100725" transform="translate(632.343 5767.234)">
      <rect id="Rectangle_401104" data-name="Rectangle 401104" width="75" height="75" transform="translate(-0.421 0.637)" fill="none"/>
      <g id="Group_1117401" data-name="Group 1117401" transform="translate(1.579 6.637)">
        <g id="Group_1117400" data-name="Group 1117400" clip-path="url(#clip-path-3)">
          <path id="Path_895964" data-name="Path 895964" d="M65.529,257.685c1.141,0,1.742,2.52-.659,2.7.932.127.685,2.2-.578,2.2H60.941a12.247,12.247,0,0,1-7.1.028h0q-.709-.185-1.492-.443l-.231-.078H50.949v-8.408h1.164c.5-.121.933-.231,1.334-.336.368-.1.7-.189,1.02-.282h0l.094-.027a31.882,31.882,0,0,0,4.922-2.011,11.187,11.187,0,0,1,5.947.359c1.841.748,2.12,2.315.482,2.977,1.256-.26,2.09,2.961-.383,3.32" transform="translate(-45.436 -223.65)" fill="#ffbf73"/>
          <path id="Path_895965" data-name="Path 895965" d="M87.038,201.779s-5.165,2.667-7.255,2.256a6.807,6.807,0,0,1,3.576-3.716c.513-.186,1.259-1.713,1.841-3.118.425-1.028.762-1.991.854-2.316a4.3,4.3,0,0,1,.574.166c1.762.656,1.343,2.281.41,6.728" transform="translate(-71.15 -173.798)" fill="#ffbf73"/>
          <path id="Path_895966" data-name="Path 895966" d="M131.4,195.675a1.476,1.476,0,0,1-1.411,1.533c-.047,0-.094,0-.139-.007.425-1.028.762-1.991.854-2.316a4.324,4.324,0,0,1,.574.166,1.633,1.633,0,0,1,.122.624" transform="translate(-115.795 -173.798)" fill="#ffd3a4"/>
          <path id="Path_895967" data-name="Path 895967" d="M63.066,340.232q-.709-.185-1.492-.443a1.672,1.672,0,0,1,.053-1.966,4.427,4.427,0,0,0,1.439,2.408" transform="translate(-54.667 -301.27)" fill="#f7a74f"/>
          <path id="Path_895968" data-name="Path 895968" d="M74.321,273.925a3.221,3.221,0,0,1-.39-1.795c.368-.1.7-.189,1.02-.282a2.386,2.386,0,0,0-.631,2.077" transform="translate(-65.92 -242.433)" fill="#f7a74f"/>
          <rect id="Rectangle_407646" data-name="Rectangle 407646" width="6.528" height="10.25" transform="translate(0 29.224)" fill="#050c68"/>
          <path id="Path_895969" data-name="Path 895969" d="M31.67,282.2a.751.751,0,1,1-.751-.751.751.751,0,0,1,.751.751" transform="translate(-26.903 -250.991)" fill="#d8c5b8"/>
          <path id="Path_895970" data-name="Path 895970" d="M144.708,55.264c.789.823-.615,3-2.406,1.392.553.761-1.115,2.017-1.989,1.1l-2.318-2.42a12.249,12.249,0,0,1-4.935-5.111h0c-.238-.427-.475-.887-.712-1.384l-.1-.221-.8-.84,6.072-5.817.8.84c.431.274.813.514,1.166.731.324.2.623.377.91.541h0l.085.049a31.889,31.889,0,0,0,4.857,2.163,11.184,11.184,0,0,1,3.855,4.543c.733,1.847-.206,3.132-1.816,2.408,1.057.727-.692,3.558-2.663,2.02" transform="translate(-117.217 -37.426)" fill="#ffbf73"/>
          <path id="Path_895971" data-name="Path 895971" d="M212.777,52.919s-5.5-1.884-6.648-3.677a6.806,6.806,0,0,1,5.157.011c.49.242,2.109-.275,3.525-.828,1.036-.4,1.965-.828,2.262-.986a4.25,4.25,0,0,1,.277.529c.746,1.726-.718,2.547-4.574,4.951" transform="translate(-183.825 -42.306)" fill="#ffbf73"/>
          <path id="Path_895972" data-name="Path 895972" d="M288.547,48.489a1.476,1.476,0,0,1-2.083.042c-.033-.034-.062-.07-.091-.106,1.036-.4,1.965-.828,2.262-.986a4.261,4.261,0,0,1,.277.529,1.624,1.624,0,0,1-.366.52" transform="translate(-255.386 -42.307)" fill="#ffd3a4"/>
          <path id="Path_895973" data-name="Path 895973" d="M140.546,96.023c-.238-.427-.475-.887-.712-1.384a1.672,1.672,0,0,1,1.456-1.321,4.426,4.426,0,0,0-.744,2.705" transform="translate(-124.703 -83.221)" fill="#f7a74f"/>
          <path id="Path_895974" data-name="Path 895974" d="M196.275,58.01a3.218,3.218,0,0,1,1.026-1.523c.324.2.623.377.91.541a2.387,2.387,0,0,0-1.936.982" transform="translate(-175.037 -50.375)" fill="#f7a74f"/>
          <path id="Path_896005" data-name="Path 896005" d="M0,0H10.25V6.528H0Z" transform="translate(9.663 7.091) rotate(-43.772)" fill="#050c68"/>
          <path id="Path_895975" data-name="Path 895975" d="M164.485,33.814a.751.751,0,1,1,.023-1.062.751.751,0,0,1-.023,1.062" transform="translate(-145.554 -29.002)" fill="#d8c5b8"/>
          <path id="Path_895976" data-name="Path 895976" d="M451.156,257.685c-1.141,0-1.742,2.52.659,2.7-.932.127-.685,2.2.579,2.2h3.351a12.247,12.247,0,0,0,7.1.028h0q.71-.185,1.492-.443l.231-.078h1.164v-8.408h-1.164c-.5-.121-.934-.231-1.334-.336-.368-.1-.7-.189-1.02-.282h0l-.094-.027a31.9,31.9,0,0,1-4.922-2.011,11.187,11.187,0,0,0-5.947.359c-1.841.748-2.12,2.315-.482,2.977-1.256-.26-2.091,2.961.383,3.32" transform="translate(-400.916 -223.65)" fill="#ffbf73"/>
          <path id="Path_895977" data-name="Path 895977" d="M496.537,201.779s5.164,2.667,7.255,2.256a6.806,6.806,0,0,0-3.576-3.716c-.513-.186-1.259-1.713-1.841-3.118-.425-1.028-.762-1.991-.853-2.316a4.3,4.3,0,0,0-.574.166c-1.762.656-1.343,2.281-.41,6.728" transform="translate(-442.091 -173.798)" fill="#ffbf73"/>
          <path id="Path_895978" data-name="Path 895978" d="M505.835,195.675a1.476,1.476,0,0,0,1.411,1.533c.047,0,.093,0,.139-.007-.425-1.028-.762-1.991-.854-2.316a4.316,4.316,0,0,0-.574.166,1.622,1.622,0,0,0-.122.624" transform="translate(-451.101 -173.798)" fill="#ffd3a4"/>
          <path id="Path_895979" data-name="Path 895979" d="M572.375,340.232q.71-.185,1.492-.443a1.672,1.672,0,0,0-.053-1.966,4.426,4.426,0,0,1-1.439,2.408" transform="translate(-510.441 -301.27)" fill="#f7a74f"/>
          <path id="Path_895980" data-name="Path 895980" d="M567.174,273.925a3.219,3.219,0,0,0,.389-1.795c-.368-.1-.7-.189-1.02-.282a2.388,2.388,0,0,1,.631,2.077" transform="translate(-505.241 -242.433)" fill="#f7a74f"/>
          <rect id="Rectangle_407648" data-name="Rectangle 407648" width="6.528" height="10.25" transform="translate(63.805 29.224)" fill="#050c68"/>
          <path id="Path_895981" data-name="Path 895981" d="M605.95,282.2a.751.751,0,1,0,.751-.751.751.751,0,0,0-.751.751" transform="translate(-540.383 -250.991)" fill="#d8c5b8"/>
          <path id="Path_895982" data-name="Path 895982" d="M356.934,55.264c-.789.823.615,3,2.406,1.392-.554.761,1.115,2.017,1.989,1.1l2.318-2.42a12.246,12.246,0,0,0,4.935-5.111h0c.238-.427.475-.887.712-1.384l.1-.221.8-.84-6.072-5.817-.8.84c-.431.274-.813.514-1.165.731-.325.2-.623.377-.91.541h0l-.085.049a31.874,31.874,0,0,1-4.857,2.163,11.186,11.186,0,0,0-3.854,4.543c-.734,1.847.206,3.132,1.816,2.408-1.057.727.692,3.558,2.663,2.02" transform="translate(-314.092 -37.426)" fill="#ffbf73"/>
          <path id="Path_895983" data-name="Path 895983" d="M343.183,52.919s5.5-1.884,6.648-3.677a6.806,6.806,0,0,0-5.157.011c-.489.242-2.109-.275-3.525-.828-1.036-.4-1.965-.828-2.263-.986a4.164,4.164,0,0,0-.277.529c-.746,1.726.718,2.547,4.574,4.951" transform="translate(-301.802 -42.306)" fill="#ffbf73"/>
          <path id="Path_895984" data-name="Path 895984" d="M340.524,48.489a1.476,1.476,0,0,0,2.083.042c.033-.034.063-.07.092-.106-1.036-.4-1.965-.828-2.263-.986a4.17,4.17,0,0,0-.277.529,1.622,1.622,0,0,0,.365.52" transform="translate(-303.352 -42.307)" fill="#ffd3a4"/>
          <path id="Path_895985" data-name="Path 895985" d="M497.456,96.023c.238-.427.475-.887.712-1.384a1.672,1.672,0,0,0-1.456-1.321,4.423,4.423,0,0,1,.744,2.705" transform="translate(-442.965 -83.221)" fill="#f7a74f"/>
          <path id="Path_895986" data-name="Path 895986" d="M437.772,58.01a3.223,3.223,0,0,0-1.026-1.523c-.325.2-.623.377-.91.541a2.387,2.387,0,0,1,1.936.982" transform="translate(-388.677 -50.375)" fill="#f7a74f"/>
          <rect id="Rectangle_407649" data-name="Rectangle 407649" width="6.528" height="10.25" transform="translate(48.752 4.714) rotate(-46.231)" fill="#050c68"/>
          <path id="Path_895987" data-name="Path 895987" d="M473.136,33.814a.751.751,0,1,0-.023-1.062.751.751,0,0,0,.023,1.062" transform="translate(-421.734 -29.002)" fill="#d8c5b8"/>
          <path id="Path_895988" data-name="Path 895988" d="M309.9,383.675l-3.032,5.707-3.4-1.265,4.063-4.739.984-6.072a1.453,1.453,0,0,1,1.229-1.339,1.573,1.573,0,0,1,.831.1l-.19,2.135Z" transform="translate(-270.633 -335.27)" fill="#f79e46"/>
          <path id="Path_895989" data-name="Path 895989" d="M313.343,382.118l-2.538,7.208-3.747,5.785-3.581-3.068,4.268-3.005,3.3-6.224a1.455,1.455,0,0,1,1.492-1,1.575,1.575,0,0,1,.811.3" transform="translate(-270.64 -340.498)" fill="#fcb363"/>
          <path id="Path_895990" data-name="Path 895990" d="M384.581,382.164l-.671,1.905a1.182,1.182,0,0,1-.456-1.462l.317-.744a1.575,1.575,0,0,1,.811.3" transform="translate(-341.878 -340.544)" fill="#ffe1c0"/>
          <path id="Path_895991" data-name="Path 895991" d="M360.944,378.2a1.181,1.181,0,0,1-.772-1.275l.131-.954a1.571,1.571,0,0,1,.83.1Z" transform="translate(-321.19 -335.271)" fill="#ffe1c0"/>
          <path id="Path_895992" data-name="Path 895992" d="M320.47,412.468l-.983,1.084-3.7,4.078-5.195,3.536-1.3-2.591,4.021-2.271,4.97-4.066a1.32,1.32,0,0,1,1.834-.163,1.366,1.366,0,0,1,.348.393" transform="translate(-275.831 -367.223)" fill="#fcb363"/>
          <path id="Path_895993" data-name="Path 895993" d="M197.926,371.858l-.832,1.719-2.5,5.16-4.37,5.328-15.282,6.066L172.2,384.7l5.828-2.864s.945-3.883,3.881-5.439l1.61-4.367.883-2.392a1.974,1.974,0,0,1,.922.121c.5.205.963.722.71,1.985-.481,2.4-.647,3.137-.647,3.137a20.517,20.517,0,0,1-.5,3.981l2.135,1.755,4.577-2.508,3.971-5.816a1.446,1.446,0,0,1,1.785-.772h0a1.52,1.52,0,0,1,.58.34" transform="translate(-153.563 -329.629)" fill="#ffc278"/>
          <path id="Path_895994" data-name="Path 895994" d="M278.606,369.756l-.507,1.486a1.181,1.181,0,0,1-1.3.785l.883-2.392a1.973,1.973,0,0,1,.922.121" transform="translate(-246.851 -329.629)" fill="#ffe1c0"/>
          <path id="Path_895995" data-name="Path 895995" d="M400.609,387.471l-.832,1.719a1.183,1.183,0,0,1-.14-1.4l.391-.66h0a1.519,1.519,0,0,1,.58.34" transform="translate(-356.246 -345.242)" fill="#ffe1c0"/>
          <path id="Path_895996" data-name="Path 895996" d="M403.979,414.9,403,415.987a1.182,1.182,0,0,1,.4-1.3l.232-.179a1.366,1.366,0,0,1,.348.393" transform="translate(-359.339 -369.658)" fill="#ffe1c0"/>
          <path id="Path_895997" data-name="Path 895997" d="M305.2,357.843v1.3H299.73v-1.3a.094.094,0,0,1,.094-.094H305.1a.094.094,0,0,1,.094.094" transform="translate(-267.298 -319.039)" fill="#e3e5e8"/>
          <rect id="Rectangle_407650" data-name="Rectangle 407650" width="5.468" height="0.527" transform="translate(32.433 40.105)" fill="#a9a9aa"/>
          <rect id="Rectangle_407651" data-name="Rectangle 407651" width="5.468" height="0.527" transform="translate(32.433 41.314)" fill="#a9a9aa"/>
          <rect id="Rectangle_407652" data-name="Rectangle 407652" width="5.469" height="0.681" transform="translate(32.432 40.632)" fill="#e3e5e8"/>
          <path id="Path_895998" data-name="Path 895998" d="M305.2,386.666v.5a.188.188,0,0,1-.195.181h-5.08a.188.188,0,0,1-.195-.181v-.5Z" transform="translate(-267.298 -344.827)" fill="#e3e5e8"/>
          <path id="Path_895999" data-name="Path 895999" d="M308.081,392.983c-.517,1.02-.8,2.034-1.942,2.034h-.788c-1.135,0-1.417-1-1.943-2.034Z" transform="translate(-270.578 -350.46)" fill="#5e5a5c"/>
          <path id="Path_896000" data-name="Path 896000" d="M308.08,392.983l-.2.386H303.6l-.2-.386Z" transform="translate(-270.578 -350.46)" fill="#3d3b3c"/>
          <path id="Path_896001" data-name="Path 896001" d="M263.139,193.927v17.727h-2.53c-1.11-4.232-5.194-5.556-4.967-10.3a7.548,7.548,0,0,1,7.5-7.425" transform="translate(-227.972 -172.943)" fill="#ffe9a2"/>
          <path id="Path_896002" data-name="Path 896002" d="M327.535,211.654h-2.53V193.927a7.546,7.546,0,0,1,7.5,7.425c.225,4.7-3.869,6.113-4.967,10.3" transform="translate(-289.838 -172.943)" fill="#ffc811"/>
          <rect id="Rectangle_407653" data-name="Rectangle 407653" width="6.528" height="10.25" transform="translate(16.682 54.542) rotate(-32.122)" fill="#050c68"/>
          <path id="Path_896003" data-name="Path 896003" d="M189.773,493.248a.751.751,0,1,1-1.036-.237.751.751,0,0,1,1.036.237" transform="translate(-168.001 -439.563)" fill="#d8c5b8"/>
          <path id="Path_896004" data-name="Path 896004" d="M287.394,231.083a1.127,1.127,0,1,1-1.127-1.127,1.127,1.127,0,0,1,1.127,1.127" transform="translate(-254.287 -205.074)" fill="#fff"/>
        </g>
      </g>
    </g>
  </g>
</svg>
