<svg xmlns="http://www.w3.org/2000/svg" xmlns:xlink="http://www.w3.org/1999/xlink" width="56" height="56" viewBox="0 0 56 56">
  <defs>
    <clipPath id="clip-path">
      <rect id="Rectangle_408341" data-name="Rectangle 408341" width="35" height="33" fill="#050c68"/>
    </clipPath>
  </defs>
  <g id="Group_1117941" data-name="Group 1117941" transform="translate(0.289 0.382)">
    <circle id="Ellipse_5614" data-name="Ellipse 5614" cx="28" cy="28" r="28" transform="translate(-0.289 -0.382)" fill="#fff"/>
    <g id="Group_1117959" data-name="Group 1117959" transform="translate(10.311 10.618)">
      <g id="Group_1117958" data-name="Group 1117958" transform="translate(0.4)" clip-path="url(#clip-path)">
        <path id="Path_918850" data-name="Path 918850" d="M28.545,101.323l1.9.77a7.325,7.325,0,0,1,1.093-.965,3.416,3.416,0,0,1,1.233-.36,20.1,20.1,0,0,1,5.284,1.245,3.208,3.208,0,0,1,1.261,2.026,24.023,24.023,0,0,1-.908,5.293,2.928,2.928,0,0,1-1.781,2.16,5.143,5.143,0,0,1-2.816-.048c-3.757,5.105-12.5,5.566-17.55,2.31a12.135,12.135,0,0,1-2.495-2.291,5.99,5.99,0,0,1-2.448.13,2.977,2.977,0,0,1-1.9-1.754,31.558,31.558,0,0,1-1.07-4.96,3.134,3.134,0,0,1,1.271-2.865,20.725,20.725,0,0,1,5.013-1.245,2.913,2.913,0,0,1,2.521,1.332l1.9-.715a11.184,11.184,0,0,0,.093-2.362,2.962,2.962,0,0,1,2.744-2.788,18.12,18.12,0,0,1,4.812.214c2.091.769,1.867,3.03,1.852,4.875m3.709,9.746a3.419,3.419,0,0,1-2.837-1.8c-.712-1.579.389-4.043.59-5.708l-1.474-.717a3.1,3.1,0,0,1-2.746,3.684A17.582,17.582,0,0,1,20.9,106.3a3.167,3.167,0,0,1-1.77-3.352l-1.486.572c.227,1.839,1.514,4.5.354,6.167a3.5,3.5,0,0,1-2.589,1.388c2.912,3.32,8.366,3.861,12.394,2.712a8.911,8.911,0,0,0,4.446-2.712" transform="translate(-6.283 -83.537)" fill="#050c68"/>
        <path id="Path_918851" data-name="Path 918851" d="M1.192,60.249c-3.527-3.483,1.546-8.986,5.178-5.684,3.808,3.461-1.542,9.275-5.178,5.684" transform="translate(1.273 -44.94)" fill="#050c68"/>
        <path id="Path_918852" data-name="Path 918852" d="M271.883,53.9c4.961-.473,5.6,7.376.624,7.72s-5.571-7.248-.624-7.72" transform="translate(-242.211 -45.235)" fill="#050c68"/>
        <path id="Path_918853" data-name="Path 918853" d="M139.533,6.658c-3.582,3.569-8.934-1.951-5.321-5.546C137.7-2.363,143.1,3.1,139.533,6.658" transform="translate(-119.363 3.549)" fill="#050c68"/>
      </g>
    </g>
  </g>
</svg>
