<svg xmlns="http://www.w3.org/2000/svg" xmlns:xlink="http://www.w3.org/1999/xlink" width="123.996" height="140" viewBox="0 0 123.996 140">
  <defs>
    <clipPath id="clip-path">
      <rect id="Rectangle_407680" data-name="Rectangle 407680" width="123.996" height="140" fill="none"/>
    </clipPath>
    <clipPath id="clip-path-3">
      <rect id="Rectangle_407673" data-name="Rectangle 407673" width="31.851" height="21.472" fill="none"/>
    </clipPath>
    <clipPath id="clip-path-4">
      <rect id="Rectangle_407675" data-name="Rectangle 407675" width="8.176" height="11.916" fill="none"/>
    </clipPath>
    <clipPath id="clip-path-5">
      <rect id="Rectangle_407676" data-name="Rectangle 407676" width="27.59" height="28.946" fill="none"/>
    </clipPath>
    <clipPath id="clip-path-6">
      <rect id="Rectangle_407677" data-name="Rectangle 407677" width="7.362" height="9.287" fill="none"/>
    </clipPath>
    <clipPath id="clip-path-7">
      <rect id="Rectangle_407678" data-name="Rectangle 407678" width="8.654" height="8.096" fill="none"/>
    </clipPath>
  </defs>
  <g id="Group_1117478" data-name="Group 1117478" transform="translate(16 -285)">
    <g id="Group_1117477" data-name="Group 1117477" transform="translate(-16 285)" clip-path="url(#clip-path)">
      <g id="Group_1117476" data-name="Group 1117476">
        <g id="Group_1117475" data-name="Group 1117475" clip-path="url(#clip-path)">
          <path id="Path_896013" data-name="Path 896013" d="M3.733,140A3.733,3.733,0,0,1,0,136.267V62a61.753,61.753,0,0,1,8.465-31.29c.034-.058.069-.114.106-.169A62.255,62.255,0,0,1,62,0a61.994,61.994,0,0,1,62,62v74.268A3.733,3.733,0,0,1,120.263,140Z" fill="#fff"/>
          <path id="Path_896014" data-name="Path 896014" d="M123.532,63.924v57.194l-2.342,3.125,2.342,2.648v11.3H7V97.182l1.234-2.621L7,91.463V63.924a58.024,58.024,0,0,1,7.952-29.4h.006a58.5,58.5,0,0,1,6.838-9.4c.374-.419,1.34-.5,1.729-.9.3-.319.027-.975.337-1.286A58.058,58.058,0,0,1,59.374,5.951h.006c.747-.075,1.487-.137,2.246-.18q1.8-.112,3.64-.112a58.313,58.313,0,0,1,53.772,35.8c.386.921.753,1.854,1.089,2.806.249.691.485,1.381.7,2.084.2.635.386,1.263.566,1.9.025.093.05.18.075.274.075.274.149.541.212.815.149.566-1.022,1.333-.892,1.905s1.561.951,1.669,1.529c.149.74.28,1.493.392,2.246a58.291,58.291,0,0,1,.678,8.9" transform="translate(-2.645 -2.138)" fill="#afbefc"/>
          <path id="Path_896015" data-name="Path 896015" d="M68.912,32.16H30.782c.666-.747,1.356-1.481,2.066-2.19a9.567,9.567,0,0,1,2.788,1.867c3.4-4.667,9.3-6.938,15.039-7.448a23.569,23.569,0,0,1,10.54,1.257c2.719,1.045,5.749,3.814,7.7,6.515" transform="translate(-11.629 -9.17)" fill="#fce8db"/>
          <path id="Path_896016" data-name="Path 896016" d="M33.235,148.072H7V142.3a25.2,25.2,0,0,1,8-1.991,23.491,23.491,0,0,1,10.54,1.257c2.713,1.045,5.749,3.814,7.691,6.508" transform="translate(-2.645 -52.96)" fill="#fce8db"/>
          <path id="Path_896017" data-name="Path 896017" d="M165.324,76.588H120.462a9.751,9.751,0,0,1,13.869-.33c3.4-4.66,9.3-6.938,15.039-7.442a23.481,23.481,0,0,1,10.54,1.257,15.61,15.61,0,0,1,4.636,3.08q.448,1.7.778,3.435" transform="translate(-45.508 -25.953)" fill="#fce8db"/>
          <path id="Path_896018" data-name="Path 896018" d="M169.288,189.911v5.65H128.122a9.759,9.759,0,0,1,13.869-.324c3.4-4.667,9.3-6.938,15.039-7.448a23.571,23.571,0,0,1,10.54,1.263,10.528,10.528,0,0,1,1.717.859" transform="translate(-48.402 -70.899)" fill="#fce8db"/>
          <path id="Path_896019" data-name="Path 896019" d="M118.9,77.242a13.121,13.121,0,0,1-2.521,3.8,2.309,2.309,0,0,0-.545.732,2.774,2.774,0,0,0-.059,1.088c.083,2.261-1.535,4.507-.819,6.653.446,1.337,1.765,2.471,1.517,3.859s-1.977,2.178-2.1,3.579a1.04,1.04,0,0,0,.111.615c.233.4.762.492,1.176.7a3.162,3.162,0,0,1,1.392,2.04,9.958,9.958,0,0,0,.8,2.4,18.909,18.909,0,0,0,2.069,2.223c.653.777,1.022,2,.357,2.771-.777.9-2.366.392-3-.612a7.731,7.731,0,0,1-.737-3.442,2.05,2.05,0,0,0-.35-1.115c-.563-.694-1.7-.446-2.434.057a5.842,5.842,0,0,1-2.288,1.337c-1.141.153-2.157-.742-3.3-.9a3.825,3.825,0,0,0-2.623.651c-1.613,1.117-4.14-.984-5.676.238a6.765,6.765,0,0,0-1.33,3.516c.021,2.038,1.518,2.368,2.824,2.376a6.616,6.616,0,0,1,2.428.226,1.431,1.431,0,0,1,.475,2.646c-1.022.717-2.366.69-3.6.908-1.417.251-3.015,1.183-2.647,2.8a2.1,2.1,0,0,0,.595,1.022c1.161,1.131,2.793,1.13,4.156,1.793a1.22,1.22,0,0,1,.71,1.124c-.056,1.128-1.807,1.144-2.235,2.124-.362.828.431,1.659.788,2.488a5.37,5.37,0,0,1-.111,3.444c-1.226,4.73-2.547,9.434-3.876,14.136a.792.792,0,0,1-1.206.45,3.139,3.139,0,0,0-1.626-.579c-.475-.027-.987.049-1.3-.546a1.643,1.643,0,0,1-.039-1.367l1.617-4.112a6.861,6.861,0,0,0,.6-2.284,2.324,2.324,0,0,0-.96-2.056c-.834-.515-1.912-.231-2.883-.365-1.861-.258-3.573-2.074-5.321-1.384a5.776,5.776,0,0,0-1.18.758,7.286,7.286,0,0,1-6.289,1.012,6.251,6.251,0,0,1-3.7-2.964c-.615-1.173-.819-2.6-1.749-3.537a9.909,9.909,0,0,0-2.957-1.574,3.463,3.463,0,0,1-1.831-2.281c-.465-1.827-1.487-4.026-3.415-4.395-.91-.174-1.977.07-2.679-.536-.308-.266-.487-.658-.8-.915-.795-.646-1.982-.161-2.989-.344-1.241-.226-2.068-1.442-3.25-1.884-1.9-.711-4.033.749-6,.255-1.5-.377-2.5-1.781-3.86-2.507-1.853-.987-4.38-.732-5.77-2.306-.736-.834-1.035-2.087-2.015-2.614-.315-.17-.675-.245-.983-.428a2.2,2.2,0,0,1-.6-2.813,5.966,5.966,0,0,1,2.236-2.177,7.558,7.558,0,0,0,2.366-2.056c.326-.514.515-1.105.844-1.617.841-1.312,2.422-1.891,3.761-2.689,1.988-1.183,3.68-3.277,3.484-5.582a15.064,15.064,0,0,0-.945-3.189,4.311,4.311,0,0,1,.295-3.311,10.431,10.431,0,0,0,1.264-3.259,3.609,3.609,0,0,0-1.024-3.279c-.3-.256-.681-.475-.791-.853-.274-.94,1.3-1.965.633-2.679a1.506,1.506,0,0,0-.673-.315A3.119,3.119,0,0,1,46.6,67.956c.538-1.017,1.651-1.713,1.925-2.829.25-1.017-.281-2.1.123-3.124a1.257,1.257,0,0,1,.924-.806c1.338-.222,1.9,2.117,3.305,1.9a1.315,1.315,0,0,0,.963-.779c.655-1.454-.625-2.961-.225-4.4a3.506,3.506,0,0,1,1.491-1.775A14.306,14.306,0,0,1,58.679,54.3c1.035-.36,2.223-.688,2.747-1.649.371-.68.312-1.533.688-2.211.388-.7,1.177-1.094,1.605-1.769.6-.935.389-2.211.965-3.158.714-1.175,2.3-1.393,3.671-1.489l5.625-.391a4.286,4.286,0,0,0,1.732-.366,7.763,7.763,0,0,0,1.379-1.184c1.558-1.378,3.819-1.6,5.626-2.627,1.681-.96,2.878-2.571,4.384-3.788,1.536-1.241,3.76-2.06,5.456-1.009a1.761,1.761,0,0,1,.859,1.126c.219,1.174-1.107,1.935-2.171,2.442A37.685,37.685,0,0,0,84.5,42.729c-1.474,1.146-3.017,2.382-3.665,4.132.4,1.834-.531,3.686-1.745,5.117A8.84,8.84,0,0,0,77.77,53.6a1.55,1.55,0,0,0,.262,1.913c.9.661,2.562-.207,3.122.76a2.234,2.234,0,0,1,.172.983,3.509,3.509,0,0,0,1.447,2.575c.578.411,1.361.752,1.454,1.456a1.888,1.888,0,0,1-.263,1.024c-.53,1.117-1.043,2.539-.256,3.491a6.958,6.958,0,0,0,1.154.894c.79.624,1.253,1.626,2.13,2.12a4.323,4.323,0,0,0,2.708.263,23.152,23.152,0,0,1,5.357-.47,5.138,5.138,0,0,1,4.338,2.747c.3.726.457,1.65,1.177,1.967a13.325,13.325,0,0,0,1.416.226c.86.273,1.247,1.348,2.089,1.674.949.368,1.991-.368,3-.254a7.312,7.312,0,0,1,1.629.6c2.252.829,4.645-.691,7.035-.915a3.393,3.393,0,0,1,2.412.548,1.711,1.711,0,0,1,.741,2.036" transform="translate(-13.835 -12.91)" fill="#634419"/>
          <path id="Path_896020" data-name="Path 896020" d="M35.148,108.545l.464-.374L23.887,80.046l-1.719-4.112L20.4,71.674,18.07,66.095l-.042-.1a.286.286,0,0,0-.529.22Z" transform="translate(-6.602 -24.865)" fill="#37004d"/>
          <path id="Path_896021" data-name="Path 896021" d="M49.364,55.18l-2.8-6.67L18.845,60.134l2.631,6.273S48.96,55.573,49.364,55.18" transform="translate(-7.119 -18.326)" fill="#ffb929"/>
          <rect id="Rectangle_407671" data-name="Rectangle 407671" width="30.06" height="10.678" transform="translate(14.356 48.082) rotate(-22.75)" fill="#475ecf"/>
          <g id="Group_1117462" data-name="Group 1117462" transform="translate(14.357 36.457)" opacity="0.38">
            <g id="Group_1117461" data-name="Group 1117461">
              <g id="Group_1117460" data-name="Group 1117460" clip-path="url(#clip-path-3)">
                <rect id="Rectangle_407672" data-name="Rectangle 407672" width="30.06" height="10.678" transform="translate(0 11.624) rotate(-22.75)" fill="#37004d"/>
              </g>
            </g>
          </g>
          <rect id="Rectangle_407674" data-name="Rectangle 407674" width="30.06" height="5.193" transform="translate(16.478 53.14) rotate(-22.75)" fill="#fb5226"/>
          <path id="Path_896022" data-name="Path 896022" d="M146.686,79.033c.024-.092.065-.251.116-.462a1.43,1.43,0,0,1-1.264-1.48c.02-3.674.791-7.251,1.254-10.88A85.873,85.873,0,0,0,147,55.179a1.413,1.413,0,0,1,1.027-1.42c-.072-.316-.149-.63-.231-.94-.118-.448-.249-.9-.392-1.332A42.878,42.878,0,0,0,135.436,33.48s-1.593-10.59-9.215-11.331-9.744,4.026-9.744,4.026l4.978,8.475a60.853,60.853,0,0,0,1.269,21.18c2.532,10.8,10.516,14.274,11.791,14.765.112.044.174.062.174.062s0,.2.006.56c.037,4.548.348,35.255,2.116,35.448,1.829.205.529-15.076.429-16.24.174,1.1,2.408,15.2,4.548,15.605,2.221.423.846-19.171.846-19.171s2.01,6.776,3.708,5.93.317-13.658.317-13.658.006-.031.025-.1" transform="translate(-44.002 -8.338)" fill="#fb5226"/>
          <path id="Path_896023" data-name="Path 896023" d="M145.234,98.5s-1.589,25.021-.238,25.736,2.462-14.457,2.462-14.457-.476,13.98,1.668,14.457,1.906-14.3,1.906-14.3.08,11.359,2.145,10.8-.477-17.713-.477-17.713Z" transform="translate(-54.571 -37.209)" fill="#475ecf"/>
          <path id="Path_896024" data-name="Path 896024" d="M157.93,105.679l-.081.355c-5.3-.983-10.926-5.805-12.2-6.956-.006-.361-.006-.56-.006-.56s-.062-.019-.174-.062l.628-2.638Z" transform="translate(-54.954 -36.198)" fill="#37004d"/>
          <path id="Path_896025" data-name="Path 896025" d="M122.682,28.494a5.035,5.035,0,0,1,2.242-3.434A6.907,6.907,0,0,1,128.947,24a2.366,2.366,0,0,1,.95.18.983.983,0,0,1,.58.73,7.7,7.7,0,0,1-.128.927,3.922,3.922,0,0,1,1.15.564,1.384,1.384,0,0,1,.57,1.1c-.03.613-.576,1.056-1.074,1.415a3.324,3.324,0,0,1-.567,3.478,5.667,5.667,0,0,1-3.2,1.768,3.137,3.137,0,0,1-2.345-.216,2.927,2.927,0,0,1-.925-1.072,13.116,13.116,0,0,1-1.2-3.792" transform="translate(-46.347 -9.064)" fill="#fce8db"/>
          <path id="Path_896026" data-name="Path 896026" d="M115.9,27.517s-2.185,3.1-1.867,6.275,3.336,5.64,3.336,5.64.238-3.1,1.032-3.5a3.028,3.028,0,0,0,3.773-.437s.04-3.972-1.271-4.925-5-3.058-5-3.058" transform="translate(-43.066 -10.395)" fill="#fce8db"/>
          <g id="Group_1117465" data-name="Group 1117465" transform="translate(70.931 17.122)" opacity="0.44">
            <g id="Group_1117464" data-name="Group 1117464">
              <g id="Group_1117463" data-name="Group 1117463" clip-path="url(#clip-path-4)">
                <path id="Path_896027" data-name="Path 896027" d="M122.173,35.5a3.044,3.044,0,0,1-3.771.442l-.006-.006c-.79.4-1.033,3.5-1.033,3.5s-3.018-2.464-3.335-5.644,1.867-6.272,1.867-6.272,1.45.821,2.85,1.68c.84.5,1.661,1.02,2.153,1.375,1.313.958,1.276,4.928,1.276,4.928" transform="translate(-113.997 -27.517)" fill="#ffd878"/>
              </g>
            </g>
          </g>
          <path id="Path_896028" data-name="Path 896028" d="M124.848,36.52a3.044,3.044,0,0,1-3.771.442,3.7,3.7,0,0,1,.2-.958,11.789,11.789,0,0,0,.429-3.553,11.276,11.276,0,0,0-.193-1.587,3.687,3.687,0,0,1-.093-.647c.84.5,1.661,1.02,2.153,1.375,1.313.958,1.276,4.928,1.276,4.928" transform="translate(-45.74 -11.415)" fill="#37004d"/>
          <path id="Path_896029" data-name="Path 896029" d="M130.42,29.872a1.377,1.377,0,1,1-1.377-1.377,1.377,1.377,0,0,1,1.377,1.377" transform="translate(-48.229 -10.765)" fill="#37004d"/>
          <path id="Path_896030" data-name="Path 896030" d="M156.309,86.916a75.229,75.229,0,0,1-2.109,13.807,33.127,33.127,0,0,1-16.209-15.531,36.158,36.158,0,0,1-1.624-3.7.557.557,0,0,0,.143.012c1-.025,1.6-1.1,1.991-2.022a26.284,26.284,0,0,0,1.711,4.1,1.73,1.73,0,0,0,.535.691,1.206,1.206,0,0,0,1.531-.392,3.363,3.363,0,0,0,.56-1.624c.392,1.462.859,3.2,2.091,4.082a.867.867,0,0,0,1.468-.255,4.508,4.508,0,0,0,.56-2.3,6.581,6.581,0,0,0,1.692,2.987c.516.529,1.338.983,1.966.585a1.574,1.574,0,0,0,.523-.678,4.578,4.578,0,0,0,.386-2.651,4.779,4.779,0,0,0,2.3,2.75,2.712,2.712,0,0,0,2.259.249,1.256,1.256,0,0,0,.224-.112" transform="translate(-51.516 -30.028)" fill="#475ecf"/>
          <path id="Path_896031" data-name="Path 896031" d="M154.686,76.8a75.229,75.229,0,0,1-2.109,13.807c-.006,0-.006-.006-.012-.006-.075-.031-.149-.062-.218-.093-.124-.05-.243-.106-.361-.162h-.012a.006.006,0,0,1-.006-.006,33.276,33.276,0,0,1-15.6-15.263,36.161,36.161,0,0,1-1.624-3.7A43.4,43.4,0,0,1,132.2,52.744c.006-.012,0-.019,0-.037a3.98,3.98,0,0,0,1.064,1.979,1.3,1.3,0,0,0,.933.46c.454-.031.759-.436.971-.865.044-.087.081-.174.118-.255a17.961,17.961,0,0,0,.218,1.811c.062.38.124.759.168,1.139a7.351,7.351,0,0,0,1,3.292c.224.33.572.653.958.585a1.1,1.1,0,0,0,.672-.554,5.214,5.214,0,0,0,.492-.964,4,4,0,0,0,.156-.46c.044.274.1.541.162.809v.006a9.514,9.514,0,0,0,1.114,2.657,2.258,2.258,0,0,0,.572.684.891.891,0,0,0,.846.143,1.113,1.113,0,0,0,.442-.373,4.207,4.207,0,0,0,.523-.84,2.978,2.978,0,0,0,.162-.386.3.3,0,0,0,.025-.068.546.546,0,0,0,.031.093V61.6c.025.1.05.193.087.3a.023.023,0,0,0,.006.019,9.334,9.334,0,0,0,1.437,2.893,1.582,1.582,0,0,0,1.17.734c.523-.012.908-.485,1.182-.933a8.069,8.069,0,0,0,.554-1.114c.037-.087.075-.174.106-.261.081.118.168.255.261.4.342.523.759,1.164,1.07,1.574a2.836,2.836,0,0,0,3.173,1.033,3.481,3.481,0,0,0,1.475-1.325c.118-.174.23-.348.33-.529a40.824,40.824,0,0,1,1,12.407" transform="translate(-49.893 -19.912)" fill="#ffb929"/>
          <path id="Path_896032" data-name="Path 896032" d="M154.324,91.2V91.2c-.006.012-.012.031-.019.044a.048.048,0,0,1-.025.025.1.1,0,0,1-.05.037.182.182,0,0,1-.056.012.125.125,0,0,1-.081-.025c-.075-.05-.149-.093-.224-.149a.023.023,0,0,1-.019-.006c-6.216-3.995-10.833-8.972-13.365-14.423-3.155-6.788-3.329-14.647-3.428-21.635.044-.087.081-.174.118-.255a17.956,17.956,0,0,0,.218,1.811c.118,6.552.479,13.714,3.372,19.948,2.377,5.1,6.6,9.8,12.276,13.652.324.218.653.436.989.647.006.012.012.012.025.019.044.031.087.062.137.093.019.012.044.025.062.037a.151.151,0,0,1,.068.162" transform="translate(-51.777 -20.712)" fill="#37004d"/>
          <path id="Path_896033" data-name="Path 896033" d="M156.651,94.344a.154.154,0,0,1-.05.1.176.176,0,0,1-.106.044.156.156,0,0,1-.112-.05c-.106-.118-.218-.23-.324-.348a.006.006,0,0,1-.006-.006c-.274-.3-.548-.6-.809-.9-7.747-8.78-12.214-19.644-12.357-30.1a4,4,0,0,0,.156-.46c.044.274.1.541.162.809v.006c.243,10.6,4.953,21.6,13.011,30.371a.288.288,0,0,0,.044.044c.044.05.093.106.143.156v.006c.044.044.081.087.124.131l.006.006c.025.025.044.05.068.075l.006.006a.174.174,0,0,1,.044.118" transform="translate(-53.98 -23.655)" fill="#37004d"/>
          <path id="Path_896034" data-name="Path 896034" d="M159.022,95.679a.157.157,0,0,1-.068.174.041.041,0,0,1-.037.006.059.059,0,0,1-.044.012.148.148,0,0,1-.075-.019.136.136,0,0,1-.062-.056c-.062-.112-.131-.218-.187-.33h-.006c0-.006-.006-.012-.006-.019a.006.006,0,0,1-.006-.006,77.337,77.337,0,0,1-9.514-28.1,2.976,2.976,0,0,0,.162-.386.221.221,0,0,1,.056.025v.006a.133.133,0,0,1,.056.093c.012.068.019.137.031.205a.023.023,0,0,0,.006.019,76.921,76.921,0,0,0,9.352,27.751c.106.193.218.386.33.579a.09.09,0,0,1,.012.044" transform="translate(-56.295 -25.295)" fill="#37004d"/>
          <path id="Path_896035" data-name="Path 896035" d="M161.854,96.641a.106.106,0,0,1-.006.044v.006a.161.161,0,0,1-.143.112H161.7a.037.037,0,0,1-.025-.006c-.006.006-.006.006-.006,0a.152.152,0,0,1-.124-.137v-.006a.212.212,0,0,0-.006-.062c-.006-.174-.019-.348-.031-.523A111.349,111.349,0,0,0,156.5,69.9c.037-.087.075-.174.106-.261.081.118.168.255.261.4a110.687,110.687,0,0,1,4.99,26.606" transform="translate(-59.121 -26.307)" fill="#37004d"/>
          <path id="Path_896036" data-name="Path 896036" d="M68.538,193.093h0a14.74,14.74,0,0,1-16.813-12.322l-.948-6.15,29.135-4.492.947,6.151a14.738,14.738,0,0,1-12.321,16.813" transform="translate(-19.182 -64.271)" fill="#fce8db"/>
          <path id="Path_896037" data-name="Path 896037" d="M79.618,170.784a11.081,11.081,0,0,1-1.557,1.066A35.056,35.056,0,0,1,65.435,175.9a38.259,38.259,0,0,1-9.456.38,13.29,13.29,0,0,1-4.687-1.125Z" transform="translate(-19.377 -64.518)" fill="#37004d"/>
          <g id="Group_1117468" data-name="Group 1117468" transform="translate(31.256 82.953)" opacity="0.42">
            <g id="Group_1117467" data-name="Group 1117467">
              <g id="Group_1117466" data-name="Group 1117466" clip-path="url(#clip-path-5)">
                <path id="Path_896038" data-name="Path 896038" d="M77.8,156.848a5.533,5.533,0,0,1-.142.848,35.051,35.051,0,0,1-12.625,4.045,38.259,38.259,0,0,1-9.456.38,10.415,10.415,0,0,1-1.282-.905c-.243-.2-.479-.415-.7-.637a11.444,11.444,0,0,1-3.069-5.372,7.76,7.76,0,0,1,.926-6.425A10.14,10.14,0,0,1,56.5,145.62a18.773,18.773,0,0,0,5.492-2.461c1.592-1.24,2.688-3.391,2.01-5.29a5.1,5.1,0,0,0-3.055-2.809,8.786,8.786,0,0,0-3.479-.623,13.69,13.69,0,0,1,10.311-.218,8.9,8.9,0,0,1,3.845,2.682,6.492,6.492,0,0,1-1.564,9.414c-2.916,1.911-6.8,1.208-10.127,2.257a5.642,5.642,0,0,0-3.162,2.2,1.924,1.924,0,0,0-.336,1.242c.114.8.949,1.272,1.722,1.491,2.28.644,4.716.082,6.979-.613s4.552-1.546,6.918-1.46,4.888,1.362,5.579,3.631a4.675,4.675,0,0,1,.167,1.783" transform="translate(-50.233 -133.317)" fill="#fff"/>
              </g>
            </g>
          </g>
          <path id="Path_896039" data-name="Path 896039" d="M96.156,175.223a6.961,6.961,0,0,1,5.945-3.983,4.947,4.947,0,0,1,4.57,2.292,4.69,4.69,0,0,1-.066,4.2,8.563,8.563,0,0,1-2.919,3.171,10.492,10.492,0,0,1-8.29,1.906" transform="translate(-36.038 -64.689)" fill="none" stroke="#fce8db" stroke-miterlimit="10" stroke-width="2.062"/>
          <path id="Path_896040" data-name="Path 896040" d="M74.287,205.278l.244,1.582,7.409-1.142-.41-2.662Z" transform="translate(-28.064 -76.71)" fill="#fce8db"/>
          <path id="Path_896041" data-name="Path 896041" d="M91.2,182.836a1.9,1.9,0,0,0,1.368,1.068,1.43,1.43,0,0,0,1.174-.6,3.131,3.131,0,0,0,.521-1.256c.3-1.343.085-6.078-2.285-5.664-1.116.195-1.473,1.843-1.57,2.758a6.051,6.051,0,0,0,.792,3.69" transform="translate(-34.143 -66.626)" fill="#fff"/>
          <path id="Path_896042" data-name="Path 896042" d="M92.086,193.2a1.332,1.332,0,0,0,.52.348,1.445,1.445,0,0,0,.738.128,1.183,1.183,0,0,0,.9-.763,1.963,1.963,0,0,0,.021-1.215,1.358,1.358,0,0,0-1.893-.895,1.954,1.954,0,0,0-.283,2.4" transform="translate(-34.68 -72.019)" fill="#fff"/>
          <path id="Path_896043" data-name="Path 896043" d="M83.537,32.742c0,2.264-1.282,4.151-2.982,4.56a2.438,2.438,0,0,1-.374.067,2.96,2.96,0,0,1-.324.019c-2.034,0-3.683-2.081-3.683-4.646,0-2.432,1.482-4.423,3.367-4.622a2.066,2.066,0,0,1,.315-.02.267.267,0,0,1,.055,0c2.007.035,3.624,2.1,3.624,4.638" transform="translate(-28.777 -10.616)" fill="#37004d"/>
          <g id="Group_1117471" data-name="Group 1117471" transform="translate(47.398 17.484)" opacity="0.31">
            <g id="Group_1117470" data-name="Group 1117470">
              <g id="Group_1117469" data-name="Group 1117469" clip-path="url(#clip-path-6)">
                <path id="Path_896044" data-name="Path 896044" d="M83.537,32.742c0,2.264-1.282,4.151-2.982,4.56a2.438,2.438,0,0,1-.374.067,2.96,2.96,0,0,1-.324.019c-2.034,0-3.683-2.081-3.683-4.646,0-2.432,1.482-4.423,3.367-4.622a2.066,2.066,0,0,1,.315-.02.267.267,0,0,1,.055,0c2.007.035,3.624,2.1,3.624,4.638" transform="translate(-76.175 -28.1)" fill="#fb5226"/>
              </g>
            </g>
          </g>
          <path id="Path_896045" data-name="Path 896045" d="M82.755,35.895A4.4,4.4,0,0,1,82.31,37.3a2.451,2.451,0,0,1-.374.067,3.938,3.938,0,0,0,.526-1.513,5.3,5.3,0,0,0-.39-2.693c-.133-.324-.3-.651-.452-.966a5.565,5.565,0,0,1-.8-2.588,2.843,2.843,0,0,1,.476-1.489,2.147,2.147,0,0,1,.315-.019.273.273,0,0,1,.055,0,2.588,2.588,0,0,0-.554,1.513,5.257,5.257,0,0,0,.768,2.451c.16.32.324.651.46.986a5.614,5.614,0,0,1,.413,2.841" transform="translate(-30.532 -10.616)" fill="#37004d"/>
          <path id="Path_896046" data-name="Path 896046" d="M97.994,28.869c1.819,1.349,2.571,3.5,1.888,5.111a2.515,2.515,0,0,1-.17.34,3.119,3.119,0,0,1-.177.271c-1.211,1.635-3.865,1.72-5.925.193-1.954-1.449-2.672-3.824-1.709-5.458a2.3,2.3,0,0,1,.172-.265.435.435,0,0,1,.035-.042c1.223-1.592,3.843-1.663,5.884-.151" transform="translate(-34.558 -10.494)" fill="#37004d"/>
          <g id="Group_1117474" data-name="Group 1117474" transform="translate(56.919 17.285)" opacity="0.31">
            <g id="Group_1117473" data-name="Group 1117473">
              <g id="Group_1117472" data-name="Group 1117472" clip-path="url(#clip-path-7)">
                <path id="Path_896047" data-name="Path 896047" d="M97.994,28.869c1.819,1.349,2.571,3.5,1.888,5.111a2.515,2.515,0,0,1-.17.34,3.119,3.119,0,0,1-.177.271c-1.211,1.635-3.865,1.72-5.925.193-1.954-1.449-2.672-3.824-1.709-5.458a2.3,2.3,0,0,1,.172-.265.435.435,0,0,1,.035-.042c1.223-1.592,3.843-1.663,5.884-.151" transform="translate(-91.477 -27.779)" fill="#fb5226"/>
              </g>
            </g>
          </g>
          <path id="Path_896048" data-name="Path 896048" d="M99.274,33.538a4.4,4.4,0,0,1,.866,1.2,2.512,2.512,0,0,1-.169.34,3.927,3.927,0,0,0-.9-1.323,5.292,5.292,0,0,0-2.4-1.29c-.339-.087-.7-.151-1.046-.213a5.55,5.55,0,0,1-2.555-.9,2.838,2.838,0,0,1-.913-1.269,2.221,2.221,0,0,1,.172-.265.308.308,0,0,1,.035-.042,2.589,2.589,0,0,0,.885,1.346,5.266,5.266,0,0,0,2.427.842c.352.062.716.128,1.066.217a5.619,5.619,0,0,1,2.529,1.36" transform="translate(-34.816 -11.248)" fill="#37004d"/>
        </g>
      </g>
    </g>
  </g>
</svg>
