<svg xmlns="http://www.w3.org/2000/svg" xmlns:xlink="http://www.w3.org/1999/xlink" width="1030" height="523.879" viewBox="0 0 1030 523.879">
  <defs>
    <clipPath id="clip-path">
      <path id="Path_608976" data-name="Path 608976" d="M16,0h998c8.837,0,16,8.123,16,18.143V505.736c0,10.02-7.163,18.143-16,18.143H16c-8.837,0-16-8.123-16-18.143V18.143C0,8.123,7.163,0,16,0Z" fill="#d9e6ff"/>
    </clipPath>
    <radialGradient id="radial-gradient" cx="0.5" cy="0.5" r="0.5" gradientUnits="objectBoundingBox">
      <stop offset="0" stop-color="#fff"/>
      <stop offset="0.679" stop-color="#fffffb"/>
      <stop offset="1" stop-color="#fffceb"/>
    </radialGradient>
    <clipPath id="clip-path-2">
      <rect id="Rectangle_406251" data-name="Rectangle 406251" width="130.843" height="102.722" fill="#685700"/>
    </clipPath>
    <clipPath id="clip-path-5">
      <rect id="Rectangle_408108" data-name="Rectangle 408108" width="142.266" height="174.938" fill="none"/>
    </clipPath>
    <clipPath id="clip-path-7">
      <rect id="Rectangle_408105" data-name="Rectangle 408105" width="2.93" height="3.1" fill="none"/>
    </clipPath>
    <clipPath id="clip-path-8">
      <rect id="Rectangle_408106" data-name="Rectangle 408106" width="1.615" height="2.987" fill="none"/>
    </clipPath>
    <clipPath id="clip-path-9">
      <rect id="Rectangle_408129" data-name="Rectangle 408129" width="192" height="207.184" fill="none"/>
    </clipPath>
    <clipPath id="clip-path-11">
      <rect id="Rectangle_408120" data-name="Rectangle 408120" width="20.327" height="31.725" fill="#afbefc"/>
    </clipPath>
    <clipPath id="clip-path-12">
      <rect id="Rectangle_408125" data-name="Rectangle 408125" width="5.254" height="5.886" fill="none"/>
    </clipPath>
    <clipPath id="clip-path-13">
      <rect id="Rectangle_408126" data-name="Rectangle 408126" width="2.82" height="2.821" fill="none"/>
    </clipPath>
    <clipPath id="clip-path-14">
      <rect id="Rectangle_408127" data-name="Rectangle 408127" width="0.864" height="2.405" fill="none"/>
    </clipPath>
    <clipPath id="clip-path-15">
      <rect id="Rectangle_408133" data-name="Rectangle 408133" width="108.006" height="171.141" fill="none"/>
    </clipPath>
    <clipPath id="clip-path-17">
      <rect id="Rectangle_408130" data-name="Rectangle 408130" width="96.492" height="93.967" fill="none"/>
    </clipPath>
    <clipPath id="clip-path-18">
      <rect id="Rectangle_408131" data-name="Rectangle 408131" width="53.695" height="51.61" fill="none"/>
    </clipPath>
  </defs>
  <g id="Group_1118037" data-name="Group 1118037" transform="translate(-284.855 -8101.333)">
    <g id="Group_1117628" data-name="Group 1117628" transform="translate(0 -16)">
      <g id="Group_1116936" data-name="Group 1116936" transform="translate(0.188 6998.333)">
        <g id="Mask_Group_1098656" data-name="Mask Group 1098656" transform="translate(284.668 1119)" clip-path="url(#clip-path)">
          <path id="Path_874294" data-name="Path 874294" d="M0,0H1030V548.826H0Z" transform="translate(0.289 -13.607)" fill="url(#radial-gradient)"/>
        </g>
      </g>
      <path id="Path_919016" data-name="Path 919016" d="M9,0H302a9,9,0,0,1,9,9V48a9,9,0,0,1-9,9H9a9,9,0,0,1-9-9V9A9,9,0,0,1,9,0Z" transform="translate(305.487 8143.5)" fill="#f6ae5c"/>
      <path id="Path_919017" data-name="Path 919017" d="M9,0H302a9,9,0,0,1,9,9V48a9,9,0,0,1-9,9H9a9,9,0,0,1-9-9V9A9,9,0,0,1,9,0Z" transform="translate(984.145 8473)" fill="#f6ae5c"/>
      <path id="Path_919018" data-name="Path 919018" d="M3.879,17,5.855,5.625,9.4,5.633a4.705,4.705,0,0,1,2.969.8,2.488,2.488,0,0,1,.9,2.242A2.865,2.865,0,0,1,11.277,11.2a1.911,1.911,0,0,1,1.055.879,2.63,2.63,0,0,1,.32,1.52,3.291,3.291,0,0,1-1.262,2.5A5,5,0,0,1,8.246,17Zm3.156-4.953L6.5,15.117l1.8.008a2.327,2.327,0,0,0,1.414-.418,1.658,1.658,0,0,0,.68-1.129,1.4,1.4,0,0,0-.191-1.1,1.269,1.269,0,0,0-1.012-.426Zm.281-1.656,1.555.016A2.475,2.475,0,0,0,10.289,10a1.575,1.575,0,0,0,.66-1.086q.2-1.375-1.445-1.383L7.816,7.523ZM18.613,17a2.281,2.281,0,0,1-.086-.766,2.863,2.863,0,0,1-2.156.922,2.594,2.594,0,0,1-1.84-.723,2.186,2.186,0,0,1-.684-1.746,2.527,2.527,0,0,1,1.16-2.121,5.266,5.266,0,0,1,2.965-.738L19,11.844l.109-.508a1.764,1.764,0,0,0,.023-.492.846.846,0,0,0-.277-.574.955.955,0,0,0-.629-.215,1.345,1.345,0,0,0-.875.254,1.231,1.231,0,0,0-.461.777l-2.211.008A2.457,2.457,0,0,1,15.8,9.129a4.312,4.312,0,0,1,2.613-.738,3.117,3.117,0,0,1,2.25.855,2.5,2.5,0,0,1,.68,2.121l-.648,4.047-.039.5a2.412,2.412,0,0,0,.133.938L20.777,17Zm-1.7-1.555a2.017,2.017,0,0,0,1.664-.828l.273-1.461-.766-.008a2.139,2.139,0,0,0-1.758.742,1.292,1.292,0,0,0-.242.633.75.75,0,0,0,.176.668A.891.891,0,0,0,16.918,15.445Zm8.906-.1a1.447,1.447,0,0,0,1.016-.332,1.632,1.632,0,0,0,.531-.926l2.07-.008a3.037,3.037,0,0,1-.559,1.6,3.394,3.394,0,0,1-1.344,1.109,3.847,3.847,0,0,1-1.77.375A3.123,3.123,0,0,1,23.332,16.1a3.965,3.965,0,0,1-.867-2.766l.023-.43.008-.086a5.284,5.284,0,0,1,1.391-3.27A3.761,3.761,0,0,1,26.8,8.391a3.047,3.047,0,0,1,2.27.934,3.3,3.3,0,0,1,.824,2.379H27.84a1.73,1.73,0,0,0-.3-1.07,1.128,1.128,0,0,0-.891-.422q-1.578-.047-1.914,2.3a7.782,7.782,0,0,0-.086,1.438Q24.73,15.32,25.824,15.344Zm8.125-1.711-1.023.891L32.5,17h-2.2L32.371,5h2.211l-1.141,6.516.43-.461,2.508-2.508h2.828l-3.7,3.633L37.863,17H35.449Zm8.258,1.711a1.447,1.447,0,0,0,1.016-.332,1.632,1.632,0,0,0,.531-.926l2.07-.008a3.037,3.037,0,0,1-.559,1.6,3.394,3.394,0,0,1-1.344,1.109,3.847,3.847,0,0,1-1.77.375A3.123,3.123,0,0,1,39.715,16.1a3.965,3.965,0,0,1-.867-2.766l.023-.43.008-.086a5.284,5.284,0,0,1,1.391-3.27,3.761,3.761,0,0,1,2.914-1.16,3.047,3.047,0,0,1,2.27.934,3.3,3.3,0,0,1,.824,2.379H44.223a1.73,1.73,0,0,0-.3-1.07,1.128,1.128,0,0,0-.891-.422q-1.578-.047-1.914,2.3a7.782,7.782,0,0,0-.086,1.438Q41.113,15.32,42.207,15.344ZM51.566,17a2.281,2.281,0,0,1-.086-.766,2.863,2.863,0,0,1-2.156.922,2.594,2.594,0,0,1-1.84-.723,2.186,2.186,0,0,1-.684-1.746,2.527,2.527,0,0,1,1.16-2.121,5.266,5.266,0,0,1,2.965-.738l1.031.016.109-.508a1.764,1.764,0,0,0,.023-.492.846.846,0,0,0-.277-.574.955.955,0,0,0-.629-.215,1.345,1.345,0,0,0-.875.254,1.231,1.231,0,0,0-.461.777l-2.211.008A2.457,2.457,0,0,1,48.75,9.129a4.312,4.312,0,0,1,2.613-.738,3.117,3.117,0,0,1,2.25.855,2.5,2.5,0,0,1,.68,2.121l-.648,4.047-.039.5a2.412,2.412,0,0,0,.133.938L53.73,17Zm-1.7-1.555a2.017,2.017,0,0,0,1.664-.828l.273-1.461-.766-.008a2.139,2.139,0,0,0-1.758.742,1.292,1.292,0,0,0-.242.633.75.75,0,0,0,.176.668A.891.891,0,0,0,49.871,15.445Zm10.1-.828q.125-.625-.867-.906l-.711-.18q-2.523-.7-2.453-2.453A2.428,2.428,0,0,1,57,9.129a3.942,3.942,0,0,1,2.457-.738,3.536,3.536,0,0,1,2.313.758,2.5,2.5,0,0,1,.9,1.977l-2.187-.008a.963.963,0,0,0-1.078-1.1,1.552,1.552,0,0,0-.895.258,1.061,1.061,0,0,0-.465.7q-.117.625.945.883l.313.07a6.285,6.285,0,0,1,1.648.59,2.488,2.488,0,0,1,.879.824,2.04,2.04,0,0,1,.285,1.18,2.251,2.251,0,0,1-.52,1.406,3.18,3.18,0,0,1-1.359.93,4.736,4.736,0,0,1-1.816.3,3.568,3.568,0,0,1-2.344-.809,2.607,2.607,0,0,1-.953-2.051l2.078.016a1.142,1.142,0,0,0,1.3,1.227,1.845,1.845,0,0,0,1-.25A.987.987,0,0,0,59.973,14.617ZM67.6,6.469,67.23,8.547h1.406L68.348,10.2H66.941l-.719,4.234a1.077,1.077,0,0,0,.063.609q.109.211.531.227.125.008.672-.039l-.156,1.727a3.706,3.706,0,0,1-1.266.18,1.985,1.985,0,0,1-1.617-.68,2.456,2.456,0,0,1-.437-1.8l.727-4.461h-1.2l.289-1.656h1.2l.359-2.078ZM70.777,17H68.559l1.469-8.453h2.219ZM70.285,6.4a1.1,1.1,0,0,1,.344-.867,1.323,1.323,0,0,1,1.734-.039,1.1,1.1,0,0,1,.383.828,1.132,1.132,0,0,1-.324.844,1.215,1.215,0,0,1-.887.375,1.235,1.235,0,0,1-.863-.3A1.091,1.091,0,0,1,70.285,6.4Zm5.844,2.141-.187,1A3.042,3.042,0,0,1,78.4,8.391a2.028,2.028,0,0,1,1.766.875,3.526,3.526,0,0,1,.414,2.359L79.691,17h-2.2l.906-5.4a2.528,2.528,0,0,0,.016-.555.9.9,0,0,0-1-.82,1.9,1.9,0,0,0-1.555.8L74.8,17H72.6l1.469-8.453Zm5.711,4.227a5.849,5.849,0,0,1,1.277-3.184,3.242,3.242,0,0,1,2.629-1.2,2.37,2.37,0,0,1,2.016.977l.289-.82,2.023.008-1.383,8.164a3.983,3.983,0,0,1-1.437,2.672,4.471,4.471,0,0,1-3,.953,4.168,4.168,0,0,1-1.672-.379,3.575,3.575,0,0,1-1.312-1l1.094-1.344a2.349,2.349,0,0,0,1.844.961,2.166,2.166,0,0,0,1.469-.449,2.4,2.4,0,0,0,.828-1.355l.125-.508a2.749,2.749,0,0,1-2.07.891,2.428,2.428,0,0,1-1.961-.918,3.947,3.947,0,0,1-.8-2.348A7.89,7.89,0,0,1,81.84,12.766ZM84,13.693a2.02,2.02,0,0,0,.309,1.178,1.08,1.08,0,0,0,.895.466,1.972,1.972,0,0,0,1.594-.767l.656-3.583a1.3,1.3,0,0,0-1.242-.767,1.728,1.728,0,0,0-1.43.681,3.561,3.561,0,0,0-.734,1.87A8.213,8.213,0,0,0,84,13.693Zm7.3,2.2a1.137,1.137,0,0,1,.363-.875,1.412,1.412,0,0,1,1.828,0,1.137,1.137,0,0,1,.363.875,1.121,1.121,0,0,1-.359.863,1.435,1.435,0,0,1-1.836,0A1.121,1.121,0,0,1,91.309,15.891Zm0-6.4a1.137,1.137,0,0,1,.363-.875,1.412,1.412,0,0,1,1.828,0,1.137,1.137,0,0,1,.363.875,1.121,1.121,0,0,1-.359.863,1.435,1.435,0,0,1-1.836,0A1.121,1.121,0,0,1,91.309,9.492Zm12.094,2.2a4.58,4.58,0,0,1-.168,1.324,2.959,2.959,0,0,1-.535.957q-.375.461-1.094,1.215a2.674,2.674,0,0,0-.8,1.527l-.016.289a1.752,1.752,0,0,0,.453,1.3,1.775,1.775,0,0,0,1.3.449,1.821,1.821,0,0,0,1.27-.441,1.48,1.48,0,0,0,.488-1.152h1.445a2.7,2.7,0,0,1-.895,2.055,3.85,3.85,0,0,1-4.676.012,2.85,2.85,0,0,1-.836-2.184,4.076,4.076,0,0,1,1.25-2.719l.852-.883a2.638,2.638,0,0,0,.516-1.75Zm.063-2.473a.869.869,0,0,1-.215.6.8.8,0,0,1-.637.243.817.817,0,0,1-.641-.243.86.86,0,0,1-.219-.6.821.821,0,0,1,.219-.581.832.832,0,0,1,.641-.235.819.819,0,0,1,.637.235A.83.83,0,0,1,103.465,9.215Zm12.922,2.465a7.026,7.026,0,0,1-.523,2.84,4.388,4.388,0,0,1-1.469,1.863l2.031,1.594-1.023.945L113,17.016a4.88,4.88,0,0,1-1.187.141,4.244,4.244,0,0,1-4-2.543,6.752,6.752,0,0,1-.59-2.832v-.82a6.953,6.953,0,0,1,.57-2.9,4.218,4.218,0,0,1,4-2.594,4.4,4.4,0,0,1,2.418.664,4.284,4.284,0,0,1,1.605,1.91,7.016,7.016,0,0,1,.563,2.91Zm-1.5-.734a5.162,5.162,0,0,0-.8-3.1,2.89,2.89,0,0,0-4.516-.008,5,5,0,0,0-.84,3v.836a5.147,5.147,0,0,0,.816,3.078,2.885,2.885,0,0,0,4.52.066,5.079,5.079,0,0,0,.82-3.035Zm8.8,5.219a3.07,3.07,0,0,1-2.477.992,2.628,2.628,0,0,1-2.059-.785,3.4,3.4,0,0,1-.715-2.324v-5.5h1.445v5.461q0,1.922,1.563,1.922a2.163,2.163,0,0,0,2.2-1.234V8.547H125.1V17h-1.375Zm7.109.992a3.693,3.693,0,0,1-2.8-1.129,4.19,4.19,0,0,1-1.078-3.02v-.266a5.073,5.073,0,0,1,.48-2.246,3.748,3.748,0,0,1,1.344-1.547,3.378,3.378,0,0,1,1.871-.559,3.166,3.166,0,0,1,2.563,1.086,4.7,4.7,0,0,1,.914,3.109v.6h-5.727a3,3,0,0,0,.73,2.02,2.3,2.3,0,0,0,1.777.77,2.517,2.517,0,0,0,1.3-.312,3.258,3.258,0,0,0,.93-.828l.883.688A3.55,3.55,0,0,1,130.8,17.156Zm-.18-7.578a1.928,1.928,0,0,0-1.469.637A3.1,3.1,0,0,0,128.418,12h4.234v-.109a2.753,2.753,0,0,0-.594-1.707A1.815,1.815,0,0,0,130.621,9.578Zm.7-4.578h1.75L130.98,7.3l-1.164,0Zm13.328,9.758a1.064,1.064,0,0,0-.441-.91,4.249,4.249,0,0,0-1.539-.559,7.277,7.277,0,0,1-1.742-.562,2.479,2.479,0,0,1-.953-.781,1.869,1.869,0,0,1-.309-1.078,2.193,2.193,0,0,1,.879-1.758,3.432,3.432,0,0,1,2.246-.719,3.532,3.532,0,0,1,2.332.742,2.357,2.357,0,0,1,.895,1.9h-1.453a1.3,1.3,0,0,0-.5-1.023,1.888,1.888,0,0,0-1.27-.43,1.976,1.976,0,0,0-1.234.344,1.082,1.082,0,0,0-.445.9.877.877,0,0,0,.414.789,5.1,5.1,0,0,0,1.5.508,7.8,7.8,0,0,1,1.754.578,2.558,2.558,0,0,1,1,.809,1.988,1.988,0,0,1,.324,1.152,2.163,2.163,0,0,1-.906,1.816,3.8,3.8,0,0,1-2.352.684,4.257,4.257,0,0,1-1.8-.359,2.922,2.922,0,0,1-1.223-1,2.42,2.42,0,0,1-.441-1.395h1.445a1.5,1.5,0,0,0,.582,1.152,2.258,2.258,0,0,0,1.434.426,2.331,2.331,0,0,0,1.316-.332A1.02,1.02,0,0,0,144.652,14.758Zm6.836,2.4a3.693,3.693,0,0,1-2.8-1.129,4.19,4.19,0,0,1-1.078-3.02v-.266a5.073,5.073,0,0,1,.48-2.246,3.748,3.748,0,0,1,1.344-1.547,3.378,3.378,0,0,1,1.871-.559,3.166,3.166,0,0,1,2.563,1.086,4.7,4.7,0,0,1,.914,3.109v.6h-5.727a3,3,0,0,0,.73,2.02,2.3,2.3,0,0,0,1.777.77,2.517,2.517,0,0,0,1.3-.312,3.258,3.258,0,0,0,.93-.828l.883.688A3.55,3.55,0,0,1,151.488,17.156Zm-.18-7.578a1.928,1.928,0,0,0-1.469.637A3.1,3.1,0,0,0,149.105,12h4.234v-.109a2.753,2.753,0,0,0-.594-1.707A1.815,1.815,0,0,0,151.309,9.578Zm16.25,3.289a5.062,5.062,0,0,1-.883,3.109,2.829,2.829,0,0,1-2.391,1.18,3.1,3.1,0,0,1-2.422-.977v4.07h-1.445V8.547h1.32l.07.938a2.977,2.977,0,0,1,2.453-1.094,2.882,2.882,0,0,1,2.41,1.148,5.117,5.117,0,0,1,.887,3.2Zm-1.445-.164a3.735,3.735,0,0,0-.609-2.258,1.963,1.963,0,0,0-1.672-.828,2.125,2.125,0,0,0-1.969,1.164V14.82a2.129,2.129,0,0,0,1.984,1.156,1.954,1.954,0,0,0,1.652-.824A4.077,4.077,0,0,0,166.113,12.7Zm8.5,3.461a3.07,3.07,0,0,1-2.477.992,2.628,2.628,0,0,1-2.059-.785,3.4,3.4,0,0,1-.715-2.324v-5.5h1.445v5.461q0,1.922,1.563,1.922a2.163,2.163,0,0,0,2.2-1.234V8.547h1.445V17h-1.375Zm7.109.992a3.693,3.693,0,0,1-2.8-1.129,4.19,4.19,0,0,1-1.078-3.02v-.266a5.073,5.073,0,0,1,.48-2.246,3.748,3.748,0,0,1,1.344-1.547,3.378,3.378,0,0,1,1.871-.559,3.166,3.166,0,0,1,2.563,1.086,4.7,4.7,0,0,1,.914,3.109v.6h-5.727a3,3,0,0,0,.73,2.02,2.3,2.3,0,0,0,1.777.77,2.517,2.517,0,0,0,1.3-.312,3.258,3.258,0,0,0,.93-.828l.883.688A3.55,3.55,0,0,1,181.723,17.156Zm-.18-7.578a1.928,1.928,0,0,0-1.469.637A3.1,3.1,0,0,0,179.34,12h4.234v-.109a2.753,2.753,0,0,0-.594-1.707A1.815,1.815,0,0,0,181.543,9.578Zm4.8,3.125a4.952,4.952,0,0,1,.922-3.129,3.137,3.137,0,0,1,4.766-.168V5h1.445V17h-1.328l-.07-.906a2.943,2.943,0,0,1-2.414,1.063,2.887,2.887,0,0,1-2.395-1.2,5.008,5.008,0,0,1-.926-3.141Zm1.445.164a3.749,3.749,0,0,0,.594,2.25,1.919,1.919,0,0,0,1.641.813,2.108,2.108,0,0,0,2.008-1.234V10.813a2.125,2.125,0,0,0-1.992-1.2,1.929,1.929,0,0,0-1.656.82A4.128,4.128,0,0,0,187.785,12.867Zm11.438,4.289a3.693,3.693,0,0,1-2.8-1.129,4.19,4.19,0,0,1-1.078-3.02v-.266a5.073,5.073,0,0,1,.48-2.246,3.748,3.748,0,0,1,1.344-1.547,3.378,3.378,0,0,1,1.871-.559,3.166,3.166,0,0,1,2.563,1.086,4.7,4.7,0,0,1,.914,3.109v.6h-5.727a3,3,0,0,0,.73,2.02,2.3,2.3,0,0,0,1.777.77,2.517,2.517,0,0,0,1.3-.312,3.258,3.258,0,0,0,.93-.828l.883.688A3.55,3.55,0,0,1,199.223,17.156Zm-.18-7.578a1.928,1.928,0,0,0-1.469.637A3.1,3.1,0,0,0,196.84,12h4.234v-.109a2.753,2.753,0,0,0-.594-1.707A1.815,1.815,0,0,0,199.043,9.578ZM209.6,9.57a3.073,3.073,0,0,1,2.5-1.18q2.68,0,2.7,3.023V17h-1.445V11.406a1.946,1.946,0,0,0-.418-1.352,1.675,1.675,0,0,0-1.277-.437,2.086,2.086,0,0,0-1.234.375,2.546,2.546,0,0,0-.828.984V17h-1.445V5H209.6ZM222.184,17a3.036,3.036,0,0,1-.2-.891,3.225,3.225,0,0,1-2.406,1.047,2.984,2.984,0,0,1-2.051-.707,2.287,2.287,0,0,1-.8-1.793,2.39,2.39,0,0,1,1-2.051,4.733,4.733,0,0,1,2.824-.73h1.406v-.664A1.623,1.623,0,0,0,221.5,10a1.821,1.821,0,0,0-1.336-.449,2.107,2.107,0,0,0-1.3.391,1.151,1.151,0,0,0-.523.945h-1.453a2,2,0,0,1,.449-1.223,3.066,3.066,0,0,1,1.219-.934,4.1,4.1,0,0,1,1.691-.344,3.342,3.342,0,0,1,2.289.73,2.635,2.635,0,0,1,.859,2.012v3.891a4.757,4.757,0,0,0,.3,1.852V17Zm-2.4-1.1a2.54,2.54,0,0,0,1.289-.352,2.127,2.127,0,0,0,.883-.914V12.9h-1.133q-2.656,0-2.656,1.555a1.316,1.316,0,0,0,.453,1.063A1.742,1.742,0,0,0,219.785,15.9Zm9.273.078a2.082,2.082,0,0,0,1.352-.469,1.649,1.649,0,0,0,.641-1.172h1.367a2.621,2.621,0,0,1-.5,1.383,3.293,3.293,0,0,1-1.23,1.047,3.55,3.55,0,0,1-1.629.391A3.482,3.482,0,0,1,226.313,16a4.59,4.59,0,0,1-1.02-3.152v-.242a5.089,5.089,0,0,1,.453-2.2,3.451,3.451,0,0,1,1.3-1.492,3.7,3.7,0,0,1,2-.531,3.39,3.39,0,0,1,2.363.852,3.043,3.043,0,0,1,1,2.211h-1.367a1.992,1.992,0,0,0-.621-1.348,1.932,1.932,0,0,0-1.379-.527,2.023,2.023,0,0,0-1.707.793,3.724,3.724,0,0,0-.605,2.293v.273a3.65,3.65,0,0,0,.6,2.25A2.033,2.033,0,0,0,229.059,15.977Zm8.492,1.18a3.693,3.693,0,0,1-2.8-1.129,4.19,4.19,0,0,1-1.078-3.02v-.266a5.073,5.073,0,0,1,.48-2.246A3.748,3.748,0,0,1,235.5,8.949a3.378,3.378,0,0,1,1.871-.559,3.166,3.166,0,0,1,2.563,1.086,4.7,4.7,0,0,1,.914,3.109v.6h-5.727a3,3,0,0,0,.73,2.02,2.3,2.3,0,0,0,1.777.77,2.517,2.517,0,0,0,1.3-.312,3.258,3.258,0,0,0,.93-.828l.883.688A3.55,3.55,0,0,1,237.551,17.156Zm-.18-7.578a1.928,1.928,0,0,0-1.469.637A3.1,3.1,0,0,0,235.168,12H239.4v-.109a2.753,2.753,0,0,0-.594-1.707A1.815,1.815,0,0,0,237.371,9.578Zm9.234.266a4.331,4.331,0,0,0-.711-.055A1.9,1.9,0,0,0,243.965,11v6H242.52V8.547h1.406l.023.977a2.251,2.251,0,0,1,2.016-1.133,1.477,1.477,0,0,1,.641.109Zm12.43,3.023a5.062,5.062,0,0,1-.883,3.109,2.829,2.829,0,0,1-2.391,1.18,3.1,3.1,0,0,1-2.422-.977v4.07h-1.445V8.547h1.32l.07.938a2.977,2.977,0,0,1,2.453-1.094,2.882,2.882,0,0,1,2.41,1.148,5.117,5.117,0,0,1,.887,3.2ZM257.59,12.7a3.735,3.735,0,0,0-.609-2.258,1.963,1.963,0,0,0-1.672-.828,2.125,2.125,0,0,0-1.969,1.164V14.82a2.129,2.129,0,0,0,1.984,1.156,1.954,1.954,0,0,0,1.652-.824A4.077,4.077,0,0,0,257.59,12.7Zm8.5,4.3a3.036,3.036,0,0,1-.2-.891,3.225,3.225,0,0,1-2.406,1.047,2.984,2.984,0,0,1-2.051-.707,2.288,2.288,0,0,1-.8-1.793,2.39,2.39,0,0,1,1-2.051,4.733,4.733,0,0,1,2.824-.73h1.406v-.664A1.623,1.623,0,0,0,265.41,10a1.821,1.821,0,0,0-1.336-.449,2.108,2.108,0,0,0-1.3.391,1.151,1.151,0,0,0-.523.945H260.8a2,2,0,0,1,.449-1.223,3.066,3.066,0,0,1,1.219-.934,4.1,4.1,0,0,1,1.691-.344,3.342,3.342,0,0,1,2.289.73,2.635,2.635,0,0,1,.859,2.012v3.891a4.757,4.757,0,0,0,.3,1.852V17Zm-2.4-1.1a2.54,2.54,0,0,0,1.289-.352,2.126,2.126,0,0,0,.883-.914V12.9H264.73q-2.656,0-2.656,1.555a1.316,1.316,0,0,0,.453,1.063A1.742,1.742,0,0,0,263.691,15.9Zm9.969-6.055a4.331,4.331,0,0,0-.711-.055A1.9,1.9,0,0,0,271.02,11v6h-1.445V8.547h1.406l.023.977a2.251,2.251,0,0,1,2.016-1.133,1.477,1.477,0,0,1,.641.109ZM279.895,17a3.036,3.036,0,0,1-.2-.891,3.225,3.225,0,0,1-2.406,1.047,2.984,2.984,0,0,1-2.051-.707,2.288,2.288,0,0,1-.8-1.793,2.39,2.39,0,0,1,1-2.051,4.733,4.733,0,0,1,2.824-.73h1.406v-.664A1.623,1.623,0,0,0,279.215,10a1.821,1.821,0,0,0-1.336-.449,2.108,2.108,0,0,0-1.3.391,1.151,1.151,0,0,0-.523.945h-1.453a2,2,0,0,1,.449-1.223,3.066,3.066,0,0,1,1.219-.934,4.1,4.1,0,0,1,1.691-.344,3.342,3.342,0,0,1,2.289.73,2.635,2.635,0,0,1,.859,2.012v3.891a4.757,4.757,0,0,0,.3,1.852V17Zm-2.4-1.1a2.54,2.54,0,0,0,1.289-.352,2.126,2.126,0,0,0,.883-.914V12.9h-1.133q-2.656,0-2.656,1.555a1.316,1.316,0,0,0,.453,1.063A1.742,1.742,0,0,0,277.5,15.9ZM21.715,37H20.27V25h1.445Zm1.93-4.3a4.993,4.993,0,0,1,.488-2.234,3.643,3.643,0,0,1,1.359-1.531,3.7,3.7,0,0,1,1.988-.539,3.565,3.565,0,0,1,2.793,1.2,4.6,4.6,0,0,1,1.066,3.18v.1a5.036,5.036,0,0,1-.473,2.215,3.589,3.589,0,0,1-1.352,1.527,3.743,3.743,0,0,1-2.02.547,3.556,3.556,0,0,1-2.785-1.2A4.575,4.575,0,0,1,23.645,32.8Zm1.453.172a3.616,3.616,0,0,0,.652,2.258,2.211,2.211,0,0,0,3.5-.012,3.955,3.955,0,0,0,.648-2.418,3.61,3.61,0,0,0-.66-2.254,2.1,2.1,0,0,0-1.754-.863,2.075,2.075,0,0,0-1.727.852A3.925,3.925,0,0,0,25.1,32.867Zm7.711-.164a4.968,4.968,0,0,1,.914-3.145,3.151,3.151,0,0,1,4.836-.074l.07-.937h1.32V36.8a3.439,3.439,0,0,1-.973,2.586,3.589,3.589,0,0,1-2.613.945,4.348,4.348,0,0,1-1.789-.391,3.08,3.08,0,0,1-1.336-1.07l.75-.867a2.826,2.826,0,0,0,2.273,1.148,2.214,2.214,0,0,0,1.645-.594,2.269,2.269,0,0,0,.59-1.672v-.727a2.971,2.971,0,0,1-2.367,1,2.887,2.887,0,0,1-2.4-1.2A5.224,5.224,0,0,1,32.809,32.7Zm1.453.164a3.79,3.79,0,0,0,.586,2.246,1.9,1.9,0,0,0,1.641.816A2.117,2.117,0,0,0,38.5,34.688V30.828A2.142,2.142,0,0,0,36.5,29.617a1.921,1.921,0,0,0-1.648.82A4.128,4.128,0,0,0,34.262,32.867Zm11.953-3.023a4.331,4.331,0,0,0-.711-.055A1.9,1.9,0,0,0,43.574,31v6H42.129V28.547h1.406l.023.977a2.251,2.251,0,0,1,2.016-1.133,1.477,1.477,0,0,1,.641.109ZM52.449,37a3.036,3.036,0,0,1-.2-.891,3.225,3.225,0,0,1-2.406,1.047,2.984,2.984,0,0,1-2.051-.707,2.287,2.287,0,0,1-.8-1.793,2.39,2.39,0,0,1,1-2.051,4.733,4.733,0,0,1,2.824-.73h1.406v-.664A1.623,1.623,0,0,0,51.77,30a1.821,1.821,0,0,0-1.336-.449,2.107,2.107,0,0,0-1.3.391,1.151,1.151,0,0,0-.523.945H47.16a2,2,0,0,1,.449-1.223,3.066,3.066,0,0,1,1.219-.934,4.1,4.1,0,0,1,1.691-.344,3.342,3.342,0,0,1,2.289.73,2.635,2.635,0,0,1,.859,2.012v3.891a4.757,4.757,0,0,0,.3,1.852V37Zm-2.4-1.1a2.54,2.54,0,0,0,1.289-.352,2.127,2.127,0,0,0,.883-.914V32.9H51.09q-2.656,0-2.656,1.555a1.316,1.316,0,0,0,.453,1.063A1.742,1.742,0,0,0,50.051,35.9Zm9.969-6.055a4.331,4.331,0,0,0-.711-.055A1.9,1.9,0,0,0,57.379,31v6H55.934V28.547H57.34l.023.977a2.251,2.251,0,0,1,2.016-1.133,1.477,1.477,0,0,1,.641.109Zm8.8,7.313a3.693,3.693,0,0,1-2.8-1.129,4.19,4.19,0,0,1-1.078-3.02v-.266a5.073,5.073,0,0,1,.48-2.246,3.748,3.748,0,0,1,1.344-1.547,3.378,3.378,0,0,1,1.871-.559A3.166,3.166,0,0,1,71.2,29.477a4.7,4.7,0,0,1,.914,3.109v.6H66.387a3,3,0,0,0,.73,2.02,2.3,2.3,0,0,0,1.777.77,2.517,2.517,0,0,0,1.3-.312,3.259,3.259,0,0,0,.93-.828l.883.688A3.55,3.55,0,0,1,68.816,37.156Zm-.18-7.578a1.928,1.928,0,0,0-1.469.637A3.1,3.1,0,0,0,66.434,32h4.234v-.109a2.753,2.753,0,0,0-.594-1.707A1.815,1.815,0,0,0,68.637,29.578ZM75.355,37H73.91V25h1.445Zm5.891-4.3a4.993,4.993,0,0,1,.488-2.234,3.643,3.643,0,0,1,1.359-1.531,3.7,3.7,0,0,1,1.988-.539,3.565,3.565,0,0,1,2.793,1.2,4.6,4.6,0,0,1,1.066,3.18v.1a5.036,5.036,0,0,1-.473,2.215,3.589,3.589,0,0,1-1.352,1.527,3.743,3.743,0,0,1-2.02.547,3.556,3.556,0,0,1-2.785-1.2A4.575,4.575,0,0,1,81.246,32.8Zm1.453.172a3.616,3.616,0,0,0,.652,2.258,2.211,2.211,0,0,0,3.5-.012A3.955,3.955,0,0,0,87.5,32.7a3.61,3.61,0,0,0-.66-2.254,2.1,2.1,0,0,0-1.754-.863,2.075,2.075,0,0,0-1.727.852A3.925,3.925,0,0,0,82.7,32.867Zm15.211,0a5.026,5.026,0,0,1-.891,3.113,2.846,2.846,0,0,1-2.391,1.176,2.947,2.947,0,0,1-2.477-1.133l-.07.977H90.754V25H92.2v4.477a2.93,2.93,0,0,1,2.414-1.086,2.863,2.863,0,0,1,2.418,1.164,5.177,5.177,0,0,1,.879,3.188ZM96.465,32.7a3.906,3.906,0,0,0-.57-2.281,1.888,1.888,0,0,0-1.641-.8A2.122,2.122,0,0,0,92.2,30.945V34.6a2.181,2.181,0,0,0,2.07,1.328,1.878,1.878,0,0,0,1.617-.8A4.153,4.153,0,0,0,96.465,32.7Zm4.758-4.156v9.43q0,2.438-2.211,2.438a2.7,2.7,0,0,1-.883-.14V39.125a2.794,2.794,0,0,0,.656.063.982.982,0,0,0,.738-.262,1.3,1.3,0,0,0,.254-.911V28.547ZM99.629,26.3a.867.867,0,0,1,.215-.59.79.79,0,0,1,.629-.246.819.819,0,0,1,.641.242.854.854,0,0,1,.219.594.826.826,0,0,1-.219.586.834.834,0,0,1-.641.234.808.808,0,0,1-.633-.234A.843.843,0,0,1,99.629,26.3Zm7.43,10.852a3.693,3.693,0,0,1-2.8-1.129,4.19,4.19,0,0,1-1.078-3.02v-.266a5.073,5.073,0,0,1,.48-2.246,3.748,3.748,0,0,1,1.344-1.547,3.378,3.378,0,0,1,1.871-.559,3.166,3.166,0,0,1,2.563,1.086,4.7,4.7,0,0,1,.914,3.109v.6h-5.727a3,3,0,0,0,.73,2.02,2.3,2.3,0,0,0,1.777.77,2.517,2.517,0,0,0,1.3-.312,3.259,3.259,0,0,0,.93-.828l.883.688A3.55,3.55,0,0,1,107.059,37.156Zm-.18-7.578a1.928,1.928,0,0,0-1.469.637A3.1,3.1,0,0,0,104.676,32h4.234v-.109a2.753,2.753,0,0,0-.594-1.707A1.815,1.815,0,0,0,106.879,29.578Zm7.109-3.078v2.047h1.578v1.117h-1.578v5.249a1.173,1.173,0,0,0,.211.763.888.888,0,0,0,.719.254,3.5,3.5,0,0,0,.688-.094V37a4.215,4.215,0,0,1-1.109.155,1.8,1.8,0,0,1-1.461-.586,2.517,2.517,0,0,1-.492-1.664V29.664H111V28.547h1.539V26.5ZM118.824,37h-1.445V28.547h1.445Zm-1.562-10.7a.863.863,0,0,1,.215-.594.807.807,0,0,1,.637-.242.819.819,0,0,1,.641.242.854.854,0,0,1,.219.594.826.826,0,0,1-.219.586.834.834,0,0,1-.641.234.821.821,0,0,1-.637-.234A.834.834,0,0,1,117.262,26.3Zm6.664,8.734,2.094-6.492H127.5L124.465,37h-1.1L120.3,28.547h1.477Zm4.461-2.344a4.993,4.993,0,0,1,.488-2.234,3.642,3.642,0,0,1,1.359-1.531,3.7,3.7,0,0,1,1.988-.539,3.565,3.565,0,0,1,2.793,1.2,4.6,4.6,0,0,1,1.066,3.18v.1a5.036,5.036,0,0,1-.473,2.215,3.589,3.589,0,0,1-1.352,1.527,3.743,3.743,0,0,1-2.02.547,3.556,3.556,0,0,1-2.785-1.2,4.575,4.575,0,0,1-1.066-3.164Zm1.453.172a3.616,3.616,0,0,0,.652,2.258,2.211,2.211,0,0,0,3.5-.012,3.954,3.954,0,0,0,.648-2.418,3.61,3.61,0,0,0-.66-2.254,2.1,2.1,0,0,0-1.754-.863,2.075,2.075,0,0,0-1.727.852A3.925,3.925,0,0,0,129.84,32.867Zm8-.484a12.079,12.079,0,0,1,.473-3.391,9.85,9.85,0,0,1,1.41-2.953,6,6,0,0,1,1.945-1.875l.3.953a6.222,6.222,0,0,0-1.871,2.672,11.583,11.583,0,0,0-.8,4.023l-.008.664a11.643,11.643,0,0,0,1.1,5.234,6.252,6.252,0,0,0,1.578,2.078l-.3.883a6.192,6.192,0,0,1-1.984-1.937A10.859,10.859,0,0,1,137.84,32.383Zm10.445,2.375a1.064,1.064,0,0,0-.441-.91,4.249,4.249,0,0,0-1.539-.559,7.277,7.277,0,0,1-1.742-.562,2.479,2.479,0,0,1-.953-.781,1.869,1.869,0,0,1-.309-1.078,2.193,2.193,0,0,1,.879-1.758,3.432,3.432,0,0,1,2.246-.719,3.532,3.532,0,0,1,2.332.742,2.357,2.357,0,0,1,.895,1.9H148.2a1.3,1.3,0,0,0-.5-1.023,1.888,1.888,0,0,0-1.27-.43,1.976,1.976,0,0,0-1.234.344,1.082,1.082,0,0,0-.445.9.877.877,0,0,0,.414.789,5.1,5.1,0,0,0,1.5.508,7.8,7.8,0,0,1,1.754.578,2.558,2.558,0,0,1,1,.809,1.988,1.988,0,0,1,.324,1.152,2.163,2.163,0,0,1-.906,1.816,3.8,3.8,0,0,1-2.352.684,4.257,4.257,0,0,1-1.8-.359,2.922,2.922,0,0,1-1.223-1,2.42,2.42,0,0,1-.441-1.395h1.445a1.5,1.5,0,0,0,.582,1.152,2.258,2.258,0,0,0,1.434.426,2.331,2.331,0,0,0,1.316-.332A1.02,1.02,0,0,0,148.285,34.758Zm8.547,1.406a3.07,3.07,0,0,1-2.477.992,2.628,2.628,0,0,1-2.059-.785,3.4,3.4,0,0,1-.715-2.324v-5.5h1.445v5.461q0,1.922,1.563,1.922a2.163,2.163,0,0,0,2.2-1.234V28.547h1.445V37h-1.375Zm7.109.992a3.693,3.693,0,0,1-2.8-1.129,4.19,4.19,0,0,1-1.078-3.02v-.266a5.073,5.073,0,0,1,.48-2.246,3.748,3.748,0,0,1,1.344-1.547,3.378,3.378,0,0,1,1.871-.559,3.166,3.166,0,0,1,2.563,1.086,4.7,4.7,0,0,1,.914,3.109v.6h-5.727a3,3,0,0,0,.73,2.02,2.3,2.3,0,0,0,1.777.77,2.517,2.517,0,0,0,1.3-.312,3.258,3.258,0,0,0,.93-.828l.883.688A3.55,3.55,0,0,1,163.941,37.156Zm-.18-7.578a1.928,1.928,0,0,0-1.469.637A3.1,3.1,0,0,0,161.559,32h4.234v-.109a2.753,2.753,0,0,0-.594-1.707A1.815,1.815,0,0,0,163.762,29.578Zm6.516-1.031.047,1.063a3.08,3.08,0,0,1,2.531-1.219q2.68,0,2.7,3.023V37h-1.445V31.406a1.946,1.946,0,0,0-.418-1.352,1.675,1.675,0,0,0-1.277-.437,2.086,2.086,0,0,0-1.234.375,2.546,2.546,0,0,0-.828.984V37H168.91V28.547Zm4.781-3.3a1.942,1.942,0,0,1-.48,1.367,1.561,1.561,0,0,1-1.2.523,1.759,1.759,0,0,1-.555-.078,2.993,2.993,0,0,1-.613-.32,2.656,2.656,0,0,0-.547-.293,1.338,1.338,0,0,0-.387-.051.717.717,0,0,0-.547.246.892.892,0,0,0-.227.629l-.969-.055a2.039,2.039,0,0,1,.473-1.383,1.516,1.516,0,0,1,1.2-.547,1.457,1.457,0,0,1,.492.078,3.587,3.587,0,0,1,.594.3,3.494,3.494,0,0,0,.574.3,1.319,1.319,0,0,0,.441.07.7.7,0,0,0,.559-.266.932.932,0,0,0,.223-.617Zm2.3,7.445a4.993,4.993,0,0,1,.488-2.234A3.642,3.642,0,0,1,179.2,28.93a3.7,3.7,0,0,1,1.988-.539,3.565,3.565,0,0,1,2.793,1.2,4.6,4.6,0,0,1,1.066,3.18v.1a5.036,5.036,0,0,1-.473,2.215,3.589,3.589,0,0,1-1.352,1.527,3.743,3.743,0,0,1-2.02.547,3.556,3.556,0,0,1-2.785-1.2,4.575,4.575,0,0,1-1.066-3.164Zm1.453.172a3.616,3.616,0,0,0,.652,2.258,2.211,2.211,0,0,0,3.5-.012,3.954,3.954,0,0,0,.648-2.418,3.61,3.61,0,0,0-.66-2.254,2.1,2.1,0,0,0-1.754-.863,2.075,2.075,0,0,0-1.727.852A3.925,3.925,0,0,0,178.809,32.867Zm15.406,3.109a2.082,2.082,0,0,0,1.352-.469,1.649,1.649,0,0,0,.641-1.172h1.367a2.621,2.621,0,0,1-.5,1.383,3.293,3.293,0,0,1-1.23,1.047,3.55,3.55,0,0,1-1.629.391A3.482,3.482,0,0,1,191.469,36a4.59,4.59,0,0,1-1.02-3.152v-.242a5.089,5.089,0,0,1,.453-2.2,3.451,3.451,0,0,1,1.3-1.492,3.7,3.7,0,0,1,2-.531,3.39,3.39,0,0,1,2.363.852,3.043,3.043,0,0,1,1,2.211h-1.367a1.992,1.992,0,0,0-.621-1.348,1.932,1.932,0,0,0-1.379-.527,2.023,2.023,0,0,0-1.707.793,3.724,3.724,0,0,0-.605,2.293v.273a3.65,3.65,0,0,0,.6,2.25A2.033,2.033,0,0,0,194.215,35.977Zm4.6-3.281a4.993,4.993,0,0,1,.488-2.234,3.642,3.642,0,0,1,1.359-1.531,3.7,3.7,0,0,1,1.988-.539,3.565,3.565,0,0,1,2.793,1.2,4.6,4.6,0,0,1,1.066,3.18v.1a5.036,5.036,0,0,1-.473,2.215,3.589,3.589,0,0,1-1.352,1.527,3.743,3.743,0,0,1-2.02.547,3.556,3.556,0,0,1-2.785-1.2,4.575,4.575,0,0,1-1.066-3.164Zm1.453.172a3.616,3.616,0,0,0,.652,2.258,2.211,2.211,0,0,0,3.5-.012,3.954,3.954,0,0,0,.648-2.418,3.61,3.61,0,0,0-.66-2.254,2.1,2.1,0,0,0-1.754-.863,2.075,2.075,0,0,0-1.727.852A3.925,3.925,0,0,0,200.27,32.867ZM209.895,37h-1.445V25h1.445Zm5.82.156a3.693,3.693,0,0,1-2.8-1.129,4.19,4.19,0,0,1-1.078-3.02v-.266a5.073,5.073,0,0,1,.48-2.246,3.748,3.748,0,0,1,1.344-1.547,3.378,3.378,0,0,1,1.871-.559,3.166,3.166,0,0,1,2.563,1.086,4.7,4.7,0,0,1,.914,3.109v.6h-5.727a3,3,0,0,0,.73,2.02,2.3,2.3,0,0,0,1.777.77,2.517,2.517,0,0,0,1.3-.312,3.258,3.258,0,0,0,.93-.828l.883.688A3.55,3.55,0,0,1,215.715,37.156Zm-.18-7.578a1.928,1.928,0,0,0-1.469.637A3.1,3.1,0,0,0,213.332,32h4.234v-.109a2.753,2.753,0,0,0-.594-1.707A1.815,1.815,0,0,0,215.535,29.578Zm8.539,6.4a2.082,2.082,0,0,0,1.352-.469,1.649,1.649,0,0,0,.641-1.172h1.367a2.621,2.621,0,0,1-.5,1.383,3.293,3.293,0,0,1-1.23,1.047,3.55,3.55,0,0,1-1.629.391A3.482,3.482,0,0,1,221.328,36a4.59,4.59,0,0,1-1.02-3.152v-.242a5.089,5.089,0,0,1,.453-2.2,3.451,3.451,0,0,1,1.3-1.492,3.7,3.7,0,0,1,2-.531,3.39,3.39,0,0,1,2.363.852,3.043,3.043,0,0,1,1,2.211h-1.367a1.992,1.992,0,0,0-.621-1.348,1.932,1.932,0,0,0-1.379-.527,2.023,2.023,0,0,0-1.707.793,3.724,3.724,0,0,0-.605,2.293v.273a3.65,3.65,0,0,0,.6,2.25A2.033,2.033,0,0,0,224.074,35.977ZM231.02,26.5v2.047H232.6v1.117H231.02v5.249a1.173,1.173,0,0,0,.211.763.888.888,0,0,0,.719.254,3.5,3.5,0,0,0,.688-.094V37a4.215,4.215,0,0,1-1.109.155,1.8,1.8,0,0,1-1.461-.586,2.517,2.517,0,0,1-.492-1.664V29.664h-1.539V28.547h1.539V26.5ZM235.855,37H234.41V28.547h1.445Zm-1.562-10.7a.863.863,0,0,1,.215-.594.807.807,0,0,1,.637-.242.819.819,0,0,1,.641.242A.854.854,0,0,1,236,26.3a.826.826,0,0,1-.219.586.834.834,0,0,1-.641.234.821.821,0,0,1-.637-.234A.834.834,0,0,1,234.293,26.3Zm6.664,8.734,2.094-6.492h1.477L241.5,37h-1.1l-3.062-8.453h1.477Zm4.461-2.344a4.993,4.993,0,0,1,.488-2.234,3.642,3.642,0,0,1,1.359-1.531,3.7,3.7,0,0,1,1.988-.539,3.565,3.565,0,0,1,2.793,1.2,4.6,4.6,0,0,1,1.066,3.18v.1a5.036,5.036,0,0,1-.473,2.215,3.589,3.589,0,0,1-1.352,1.527,3.743,3.743,0,0,1-2.02.547,3.556,3.556,0,0,1-2.785-1.2,4.575,4.575,0,0,1-1.066-3.164Zm1.453.172a3.616,3.616,0,0,0,.652,2.258,2.211,2.211,0,0,0,3.5-.012,3.954,3.954,0,0,0,.648-2.418,3.61,3.61,0,0,0-.66-2.254,2.1,2.1,0,0,0-1.754-.863,2.075,2.075,0,0,0-1.727.852A3.925,3.925,0,0,0,246.871,32.867Zm11.391-.406a12.085,12.085,0,0,1-.457,3.34,9.876,9.876,0,0,1-1.4,2.949,6.127,6.127,0,0,1-1.973,1.922l-.3-.883a6.281,6.281,0,0,0,1.934-2.863,12.387,12.387,0,0,0,.746-4.309v-.25a12.862,12.862,0,0,0-.344-3.051,10.3,10.3,0,0,0-.957-2.527,5.838,5.838,0,0,0-1.379-1.742l.3-.883A6.1,6.1,0,0,1,256.4,26.07a9.9,9.9,0,0,1,1.4,2.945A12.363,12.363,0,0,1,258.262,32.461Zm3.922,1.323a4.662,4.662,0,0,1,.211-1.466,3.761,3.761,0,0,1,.8-1.193l1.023-1.053a2.36,2.36,0,0,0,.656-1.59,1.814,1.814,0,0,0-.43-1.282,1.62,1.62,0,0,0-1.25-.464,1.881,1.881,0,0,0-1.281.422,1.426,1.426,0,0,0-.484,1.133H259.98a2.632,2.632,0,0,1,.9-2.043,3.374,3.374,0,0,1,2.309-.777,3.185,3.185,0,0,1,2.3.792,2.87,2.87,0,0,1,.824,2.172,3.926,3.926,0,0,1-1.266,2.691l-.852.842a2.623,2.623,0,0,0-.57,1.818Zm-.062,2.482a.861.861,0,0,1,.215-.6.81.81,0,0,1,.637-.241.822.822,0,0,1,.641.241.852.852,0,0,1,.219.6.824.824,0,0,1-.219.588.837.837,0,0,1-.641.233.774.774,0,0,1-.852-.82Z" transform="translate(313.987 8152)" fill="#12263f"/>
      <path id="Path_919019" data-name="Path 919019" d="M30.707,12.352H26.348L25.535,17H23.246L25.223,5.625h7.2l-.336,1.9H27.184l-.516,2.938h4.375Zm5.648-3.961a3.39,3.39,0,0,1,1.926.574A3.234,3.234,0,0,1,39.469,10.5a4.762,4.762,0,0,1,.27,2.176,5.143,5.143,0,0,1-1.4,3.262,3.96,3.96,0,0,1-3.02,1.215,3.38,3.38,0,0,1-1.906-.566,3.222,3.222,0,0,1-1.187-1.527,4.657,4.657,0,0,1-.273-2.156,5.3,5.3,0,0,1,1.422-3.328A3.878,3.878,0,0,1,36.355,8.391Zm-2.227,5.315a1.95,1.95,0,0,0,.352,1.182,1.168,1.168,0,0,0,.945.449A1.712,1.712,0,0,0,37.02,14.4a4.647,4.647,0,0,0,.539-2.531,2.122,2.122,0,0,0-.363-1.2,1.149,1.149,0,0,0-.949-.464,1.715,1.715,0,0,0-1.574.924A4.6,4.6,0,0,0,34.129,13.706ZM46.16,10.664a4.548,4.548,0,0,0-.742-.078,2.136,2.136,0,0,0-1.867.883L42.574,17h-2.2L41.84,8.547l2.07-.008-.2,1.031a2.325,2.325,0,0,1,1.969-1.2,3.214,3.214,0,0,1,.766.109Zm3.969,6.492a3.677,3.677,0,0,1-1.965-.543,3.292,3.292,0,0,1-1.277-1.469,4.093,4.093,0,0,1-.328-2.059l.023-.312a5.465,5.465,0,0,1,.719-2.266,4.341,4.341,0,0,1,1.547-1.59,3.827,3.827,0,0,1,2.094-.527,2.924,2.924,0,0,1,2.473,1.2,4.117,4.117,0,0,1,.637,2.962l-.125.962h-5.18a1.814,1.814,0,0,0,.4,1.313,1.521,1.521,0,0,0,1.172.508,2.7,2.7,0,0,0,2.109-.937l1.008,1.25a3.135,3.135,0,0,1-1.375,1.121A4.5,4.5,0,0,1,50.129,17.156Zm.7-6.945a1.565,1.565,0,0,0-1.082.383,3.363,3.363,0,0,0-.848,1.383h3.031l.047-.2a2.071,2.071,0,0,0,.008-.594,1.134,1.134,0,0,0-.383-.707A1.2,1.2,0,0,0,50.832,10.211Zm7.453,5.133a1.447,1.447,0,0,0,1.016-.332,1.632,1.632,0,0,0,.531-.926l2.07-.008a3.037,3.037,0,0,1-.559,1.6A3.394,3.394,0,0,1,60,16.789a3.847,3.847,0,0,1-1.77.375A3.123,3.123,0,0,1,55.793,16.1a3.965,3.965,0,0,1-.867-2.766l.023-.43.008-.086a5.284,5.284,0,0,1,1.391-3.27,3.761,3.761,0,0,1,2.914-1.16,3.047,3.047,0,0,1,2.27.934,3.3,3.3,0,0,1,.824,2.379H60.3a1.73,1.73,0,0,0-.3-1.07,1.128,1.128,0,0,0-.891-.422q-1.578-.047-1.914,2.3a7.782,7.782,0,0,0-.086,1.438Q57.191,15.32,58.285,15.344ZM67.645,17a2.281,2.281,0,0,1-.086-.766,2.863,2.863,0,0,1-2.156.922,2.594,2.594,0,0,1-1.84-.723,2.186,2.186,0,0,1-.684-1.746,2.527,2.527,0,0,1,1.16-2.121A5.266,5.266,0,0,1,67,11.828l1.031.016.109-.508a1.764,1.764,0,0,0,.023-.492.846.846,0,0,0-.277-.574.955.955,0,0,0-.629-.215,1.345,1.345,0,0,0-.875.254,1.231,1.231,0,0,0-.461.777l-2.211.008a2.457,2.457,0,0,1,1.113-1.965,4.312,4.312,0,0,1,2.613-.738,3.117,3.117,0,0,1,2.25.855,2.5,2.5,0,0,1,.68,2.121l-.648,4.047-.039.5a2.412,2.412,0,0,0,.133.938L69.809,17Zm-1.7-1.555a2.017,2.017,0,0,0,1.664-.828l.273-1.461-.766-.008a2.139,2.139,0,0,0-1.758.742,1.292,1.292,0,0,0-.242.633.75.75,0,0,0,.176.668A.891.891,0,0,0,65.949,15.445Zm10.1-.828q.125-.625-.867-.906l-.711-.18q-2.523-.7-2.453-2.453a2.428,2.428,0,0,1,1.059-1.949,3.942,3.942,0,0,1,2.457-.738,3.536,3.536,0,0,1,2.313.758,2.5,2.5,0,0,1,.9,1.977l-2.187-.008a.963.963,0,0,0-1.078-1.1,1.552,1.552,0,0,0-.895.258,1.061,1.061,0,0,0-.465.7q-.117.625.945.883l.313.07a6.285,6.285,0,0,1,1.648.59,2.488,2.488,0,0,1,.879.824,2.04,2.04,0,0,1,.285,1.18,2.251,2.251,0,0,1-.52,1.406,3.18,3.18,0,0,1-1.359.93,4.736,4.736,0,0,1-1.816.3,3.568,3.568,0,0,1-2.344-.809A2.607,2.607,0,0,1,71.2,14.3l2.078.016a1.142,1.142,0,0,0,1.3,1.227,1.845,1.845,0,0,0,1-.25A.987.987,0,0,0,76.051,14.617Zm7.625-8.148-.367,2.078h1.406L84.426,10.2H83.02L82.3,14.438a1.077,1.077,0,0,0,.063.609q.109.211.531.227.125.008.672-.039l-.156,1.727a3.706,3.706,0,0,1-1.266.18,1.985,1.985,0,0,1-1.617-.68,2.456,2.456,0,0,1-.437-1.8l.727-4.461h-1.2l.289-1.656h1.2l.359-2.078ZM86.855,17H84.637l1.469-8.453h2.219ZM86.363,6.4a1.1,1.1,0,0,1,.344-.867,1.323,1.323,0,0,1,1.734-.039,1.1,1.1,0,0,1,.383.828,1.132,1.132,0,0,1-.324.844,1.215,1.215,0,0,1-.887.375,1.235,1.235,0,0,1-.863-.3A1.091,1.091,0,0,1,86.363,6.4Zm5.844,2.141-.187,1A3.042,3.042,0,0,1,94.48,8.391a2.028,2.028,0,0,1,1.766.875,3.526,3.526,0,0,1,.414,2.359L95.77,17h-2.2l.906-5.4a2.528,2.528,0,0,0,.016-.555.9.9,0,0,0-1-.82,1.9,1.9,0,0,0-1.555.8L90.879,17h-2.2l1.469-8.453Zm5.711,4.227A5.849,5.849,0,0,1,99.2,9.582a3.242,3.242,0,0,1,2.629-1.2,2.37,2.37,0,0,1,2.016.977l.289-.82,2.023.008-1.383,8.164a3.983,3.983,0,0,1-1.437,2.672,4.471,4.471,0,0,1-3,.953,4.168,4.168,0,0,1-1.672-.379,3.575,3.575,0,0,1-1.312-1l1.094-1.344a2.349,2.349,0,0,0,1.844.961,2.166,2.166,0,0,0,1.469-.449,2.4,2.4,0,0,0,.828-1.355l.125-.508a2.749,2.749,0,0,1-2.07.891,2.428,2.428,0,0,1-1.961-.918,3.947,3.947,0,0,1-.8-2.348A7.89,7.89,0,0,1,97.918,12.766Zm2.164.927a2.02,2.02,0,0,0,.309,1.178,1.08,1.08,0,0,0,.895.466,1.972,1.972,0,0,0,1.594-.767l.656-3.583a1.3,1.3,0,0,0-1.242-.767,1.728,1.728,0,0,0-1.43.681,3.561,3.561,0,0,0-.734,1.87A8.213,8.213,0,0,0,100.082,13.693Zm7.3,2.2a1.137,1.137,0,0,1,.363-.875,1.412,1.412,0,0,1,1.828,0,1.137,1.137,0,0,1,.363.875,1.121,1.121,0,0,1-.359.863,1.435,1.435,0,0,1-1.836,0A1.121,1.121,0,0,1,107.387,15.891Zm0-6.4a1.137,1.137,0,0,1,.363-.875,1.412,1.412,0,0,1,1.828,0,1.137,1.137,0,0,1,.363.875,1.121,1.121,0,0,1-.359.863,1.435,1.435,0,0,1-1.836,0A1.121,1.121,0,0,1,107.387,9.492Zm12.094,2.2a4.58,4.58,0,0,1-.168,1.324,2.959,2.959,0,0,1-.535.957q-.375.461-1.094,1.215a2.674,2.674,0,0,0-.8,1.527l-.016.289a1.752,1.752,0,0,0,.453,1.3,1.775,1.775,0,0,0,1.3.449,1.821,1.821,0,0,0,1.27-.441,1.48,1.48,0,0,0,.488-1.152h1.445a2.7,2.7,0,0,1-.895,2.055,3.85,3.85,0,0,1-4.676.012,2.85,2.85,0,0,1-.836-2.184,4.076,4.076,0,0,1,1.25-2.719l.852-.883a2.638,2.638,0,0,0,.516-1.75Zm.063-2.473a.869.869,0,0,1-.215.6.8.8,0,0,1-.637.243.817.817,0,0,1-.641-.243.86.86,0,0,1-.219-.6.821.821,0,0,1,.219-.581.832.832,0,0,1,.641-.235.819.819,0,0,1,.637.235A.83.83,0,0,1,119.543,9.215Zm12.922,2.465a7.026,7.026,0,0,1-.523,2.84,4.388,4.388,0,0,1-1.469,1.863l2.031,1.594-1.023.945-2.4-1.906a4.88,4.88,0,0,1-1.187.141,4.244,4.244,0,0,1-4-2.543,6.752,6.752,0,0,1-.59-2.832v-.82a6.953,6.953,0,0,1,.57-2.9,4.218,4.218,0,0,1,4-2.594,4.4,4.4,0,0,1,2.418.664,4.284,4.284,0,0,1,1.605,1.91,7.016,7.016,0,0,1,.563,2.91Zm-1.5-.734a5.162,5.162,0,0,0-.8-3.1,2.89,2.89,0,0,0-4.516-.008,5,5,0,0,0-.84,3v.836a5.147,5.147,0,0,0,.816,3.078,2.885,2.885,0,0,0,4.52.066,5.079,5.079,0,0,0,.82-3.035Zm8.8,5.219a3.07,3.07,0,0,1-2.477.992,2.628,2.628,0,0,1-2.059-.785,3.4,3.4,0,0,1-.715-2.324v-5.5h1.445v5.461q0,1.922,1.563,1.922a2.163,2.163,0,0,0,2.2-1.234V8.547h1.445V17H139.8Zm7.109.992a3.693,3.693,0,0,1-2.8-1.129A4.19,4.19,0,0,1,143,13.008v-.266a5.073,5.073,0,0,1,.48-2.246,3.748,3.748,0,0,1,1.344-1.547,3.378,3.378,0,0,1,1.871-.559,3.166,3.166,0,0,1,2.563,1.086,4.7,4.7,0,0,1,.914,3.109v.6h-5.727a3,3,0,0,0,.73,2.02,2.3,2.3,0,0,0,1.777.77,2.517,2.517,0,0,0,1.3-.312,3.258,3.258,0,0,0,.93-.828l.883.688A3.55,3.55,0,0,1,146.879,17.156Zm-.18-7.578a1.928,1.928,0,0,0-1.469.637A3.1,3.1,0,0,0,144.5,12h4.234v-.109a2.753,2.753,0,0,0-.594-1.707A1.815,1.815,0,0,0,146.7,9.578ZM147.4,5h1.75l-2.094,2.3-1.164,0Zm13.328,9.758a1.064,1.064,0,0,0-.441-.91,4.249,4.249,0,0,0-1.539-.559,7.277,7.277,0,0,1-1.742-.562,2.479,2.479,0,0,1-.953-.781,1.869,1.869,0,0,1-.309-1.078,2.193,2.193,0,0,1,.879-1.758,3.432,3.432,0,0,1,2.246-.719,3.532,3.532,0,0,1,2.332.742,2.357,2.357,0,0,1,.895,1.9h-1.453a1.3,1.3,0,0,0-.5-1.023,1.888,1.888,0,0,0-1.27-.43,1.976,1.976,0,0,0-1.234.344,1.082,1.082,0,0,0-.445.9.877.877,0,0,0,.414.789,5.1,5.1,0,0,0,1.5.508,7.8,7.8,0,0,1,1.754.578,2.558,2.558,0,0,1,1,.809,1.988,1.988,0,0,1,.324,1.152,2.163,2.163,0,0,1-.906,1.816,3.8,3.8,0,0,1-2.352.684,4.257,4.257,0,0,1-1.8-.359,2.922,2.922,0,0,1-1.223-1,2.42,2.42,0,0,1-.441-1.395H156.9a1.5,1.5,0,0,0,.582,1.152,2.258,2.258,0,0,0,1.434.426,2.331,2.331,0,0,0,1.316-.332A1.02,1.02,0,0,0,160.73,14.758Zm6.836,2.4a3.693,3.693,0,0,1-2.8-1.129,4.19,4.19,0,0,1-1.078-3.02v-.266a5.073,5.073,0,0,1,.48-2.246,3.748,3.748,0,0,1,1.344-1.547,3.378,3.378,0,0,1,1.871-.559,3.166,3.166,0,0,1,2.563,1.086,4.7,4.7,0,0,1,.914,3.109v.6h-5.727a3,3,0,0,0,.73,2.02,2.3,2.3,0,0,0,1.777.77,2.517,2.517,0,0,0,1.3-.312,3.258,3.258,0,0,0,.93-.828l.883.688A3.55,3.55,0,0,1,167.566,17.156Zm-.18-7.578a1.928,1.928,0,0,0-1.469.637A3.1,3.1,0,0,0,165.184,12h4.234v-.109a2.753,2.753,0,0,0-.594-1.707A1.815,1.815,0,0,0,167.387,9.578Zm16.25,3.289a5.062,5.062,0,0,1-.883,3.109,2.829,2.829,0,0,1-2.391,1.18,3.1,3.1,0,0,1-2.422-.977v4.07H176.5V8.547h1.32l.07.938a2.977,2.977,0,0,1,2.453-1.094,2.882,2.882,0,0,1,2.41,1.148,5.117,5.117,0,0,1,.887,3.2Zm-1.445-.164a3.735,3.735,0,0,0-.609-2.258,1.963,1.963,0,0,0-1.672-.828,2.125,2.125,0,0,0-1.969,1.164V14.82a2.129,2.129,0,0,0,1.984,1.156,1.954,1.954,0,0,0,1.652-.824A4.077,4.077,0,0,0,182.191,12.7Zm8.5,3.461a3.07,3.07,0,0,1-2.477.992,2.628,2.628,0,0,1-2.059-.785,3.4,3.4,0,0,1-.715-2.324v-5.5h1.445v5.461q0,1.922,1.563,1.922a2.163,2.163,0,0,0,2.2-1.234V8.547H192.1V17h-1.375Zm7.109.992a3.693,3.693,0,0,1-2.8-1.129,4.19,4.19,0,0,1-1.078-3.02v-.266a5.073,5.073,0,0,1,.48-2.246,3.748,3.748,0,0,1,1.344-1.547,3.378,3.378,0,0,1,1.871-.559,3.166,3.166,0,0,1,2.563,1.086,4.7,4.7,0,0,1,.914,3.109v.6h-5.727a3,3,0,0,0,.73,2.02,2.3,2.3,0,0,0,1.777.77,2.517,2.517,0,0,0,1.3-.312,3.258,3.258,0,0,0,.93-.828l.883.688A3.55,3.55,0,0,1,197.8,17.156Zm-.18-7.578a1.928,1.928,0,0,0-1.469.637A3.1,3.1,0,0,0,195.418,12h4.234v-.109a2.753,2.753,0,0,0-.594-1.707A1.815,1.815,0,0,0,197.621,9.578Zm4.8,3.125a4.952,4.952,0,0,1,.922-3.129,3.137,3.137,0,0,1,4.766-.168V5h1.445V17h-1.328l-.07-.906a2.943,2.943,0,0,1-2.414,1.063,2.887,2.887,0,0,1-2.395-1.2,5.008,5.008,0,0,1-.926-3.141Zm1.445.164a3.749,3.749,0,0,0,.594,2.25,1.919,1.919,0,0,0,1.641.813,2.108,2.108,0,0,0,2.008-1.234V10.813a2.125,2.125,0,0,0-1.992-1.2,1.929,1.929,0,0,0-1.656.82A4.128,4.128,0,0,0,203.863,12.867ZM215.3,17.156a3.693,3.693,0,0,1-2.8-1.129,4.19,4.19,0,0,1-1.078-3.02v-.266a5.073,5.073,0,0,1,.48-2.246,3.748,3.748,0,0,1,1.344-1.547,3.378,3.378,0,0,1,1.871-.559,3.166,3.166,0,0,1,2.563,1.086,4.7,4.7,0,0,1,.914,3.109v.6h-5.727a3,3,0,0,0,.73,2.02,2.3,2.3,0,0,0,1.777.77,2.517,2.517,0,0,0,1.3-.312,3.258,3.258,0,0,0,.93-.828l.883.688A3.55,3.55,0,0,1,215.3,17.156Zm-.18-7.578a1.928,1.928,0,0,0-1.469.637A3.1,3.1,0,0,0,212.918,12h4.234v-.109a2.753,2.753,0,0,0-.594-1.707A1.815,1.815,0,0,0,215.121,9.578Zm10.555-.008a3.073,3.073,0,0,1,2.5-1.18q2.68,0,2.7,3.023V17h-1.445V11.406a1.946,1.946,0,0,0-.418-1.352,1.675,1.675,0,0,0-1.277-.437,2.086,2.086,0,0,0-1.234.375,2.546,2.546,0,0,0-.828.984V17H224.23V5h1.445ZM238.262,17a3.036,3.036,0,0,1-.2-.891,3.225,3.225,0,0,1-2.406,1.047,2.984,2.984,0,0,1-2.051-.707,2.287,2.287,0,0,1-.8-1.793,2.39,2.39,0,0,1,1-2.051,4.733,4.733,0,0,1,2.824-.73h1.406v-.664A1.623,1.623,0,0,0,237.582,10a1.821,1.821,0,0,0-1.336-.449,2.107,2.107,0,0,0-1.3.391,1.151,1.151,0,0,0-.523.945h-1.453a2,2,0,0,1,.449-1.223,3.066,3.066,0,0,1,1.219-.934,4.1,4.1,0,0,1,1.691-.344,3.342,3.342,0,0,1,2.289.73,2.635,2.635,0,0,1,.859,2.012v3.891a4.757,4.757,0,0,0,.3,1.852V17Zm-2.4-1.1a2.54,2.54,0,0,0,1.289-.352,2.127,2.127,0,0,0,.883-.914V12.9H236.9q-2.656,0-2.656,1.555a1.316,1.316,0,0,0,.453,1.063A1.742,1.742,0,0,0,235.863,15.9Zm9.273.078a2.082,2.082,0,0,0,1.352-.469,1.649,1.649,0,0,0,.641-1.172H248.5a2.621,2.621,0,0,1-.5,1.383,3.293,3.293,0,0,1-1.23,1.047,3.55,3.55,0,0,1-1.629.391A3.482,3.482,0,0,1,242.391,16a4.59,4.59,0,0,1-1.02-3.152v-.242a5.089,5.089,0,0,1,.453-2.2,3.451,3.451,0,0,1,1.3-1.492,3.7,3.7,0,0,1,2-.531,3.39,3.39,0,0,1,2.363.852,3.043,3.043,0,0,1,1,2.211h-1.367a1.992,1.992,0,0,0-.621-1.348,1.932,1.932,0,0,0-1.379-.527,2.023,2.023,0,0,0-1.707.793,3.724,3.724,0,0,0-.605,2.293v.273a3.65,3.65,0,0,0,.6,2.25A2.033,2.033,0,0,0,245.137,15.977Zm8.492,1.18a3.693,3.693,0,0,1-2.8-1.129,4.19,4.19,0,0,1-1.078-3.02v-.266a5.073,5.073,0,0,1,.48-2.246,3.748,3.748,0,0,1,1.344-1.547,3.378,3.378,0,0,1,1.871-.559,3.166,3.166,0,0,1,2.563,1.086,4.7,4.7,0,0,1,.914,3.109v.6H251.2a3,3,0,0,0,.73,2.02,2.3,2.3,0,0,0,1.777.77,2.517,2.517,0,0,0,1.3-.312,3.258,3.258,0,0,0,.93-.828l.883.688A3.55,3.55,0,0,1,253.629,17.156Zm-.18-7.578a1.928,1.928,0,0,0-1.469.637A3.1,3.1,0,0,0,251.246,12h4.234v-.109a2.753,2.753,0,0,0-.594-1.707A1.815,1.815,0,0,0,253.449,9.578Zm9.234.266a4.331,4.331,0,0,0-.711-.055A1.9,1.9,0,0,0,260.043,11v6H258.6V8.547H260l.023.977a2.251,2.251,0,0,1,2.016-1.133,1.477,1.477,0,0,1,.641.109ZM42.5,32.7a4.952,4.952,0,0,1,.922-3.129,3.137,3.137,0,0,1,4.766-.168V25h1.445V37H48.3l-.07-.906a2.943,2.943,0,0,1-2.414,1.063,2.887,2.887,0,0,1-2.395-1.2,5.008,5.008,0,0,1-.926-3.141Zm1.445.164a3.749,3.749,0,0,0,.594,2.25,1.919,1.919,0,0,0,1.641.813A2.108,2.108,0,0,0,48.184,34.7V30.813a2.125,2.125,0,0,0-1.992-1.2,1.929,1.929,0,0,0-1.656.82A4.128,4.128,0,0,0,43.941,32.867Zm11.438,4.289a3.693,3.693,0,0,1-2.8-1.129,4.19,4.19,0,0,1-1.078-3.02v-.266a5.073,5.073,0,0,1,.48-2.246,3.748,3.748,0,0,1,1.344-1.547,3.378,3.378,0,0,1,1.871-.559,3.166,3.166,0,0,1,2.563,1.086,4.7,4.7,0,0,1,.914,3.109v.6H52.949a3,3,0,0,0,.73,2.02,2.3,2.3,0,0,0,1.777.77,2.517,2.517,0,0,0,1.3-.312,3.258,3.258,0,0,0,.93-.828l.883.688A3.55,3.55,0,0,1,55.379,37.156Zm-.18-7.578a1.928,1.928,0,0,0-1.469.637A3.1,3.1,0,0,0,53,32H57.23v-.109a2.753,2.753,0,0,0-.594-1.707A1.815,1.815,0,0,0,55.2,29.578Zm10.07,5.18a1.064,1.064,0,0,0-.441-.91,4.249,4.249,0,0,0-1.539-.559,7.277,7.277,0,0,1-1.742-.562,2.479,2.479,0,0,1-.953-.781,1.869,1.869,0,0,1-.309-1.078,2.193,2.193,0,0,1,.879-1.758,3.432,3.432,0,0,1,2.246-.719,3.532,3.532,0,0,1,2.332.742,2.357,2.357,0,0,1,.895,1.9H65.184a1.3,1.3,0,0,0-.5-1.023,1.888,1.888,0,0,0-1.27-.43,1.976,1.976,0,0,0-1.234.344,1.082,1.082,0,0,0-.445.9.877.877,0,0,0,.414.789,5.1,5.1,0,0,0,1.5.508,7.8,7.8,0,0,1,1.754.578,2.558,2.558,0,0,1,1,.809,1.988,1.988,0,0,1,.324,1.152,2.163,2.163,0,0,1-.906,1.816,3.8,3.8,0,0,1-2.352.684,4.257,4.257,0,0,1-1.8-.359,2.922,2.922,0,0,1-1.223-1A2.42,2.42,0,0,1,60,34.4h1.445a1.5,1.5,0,0,0,.582,1.152,2.258,2.258,0,0,0,1.434.426,2.331,2.331,0,0,0,1.316-.332A1.02,1.02,0,0,0,65.27,34.758ZM68.246,32.7a4.952,4.952,0,0,1,.922-3.129,3.137,3.137,0,0,1,4.766-.168V25h1.445V37H74.051l-.07-.906a2.943,2.943,0,0,1-2.414,1.063,2.887,2.887,0,0,1-2.395-1.2,5.008,5.008,0,0,1-.926-3.141Zm1.445.164a3.749,3.749,0,0,0,.594,2.25,1.92,1.92,0,0,0,1.641.813A2.108,2.108,0,0,0,73.934,34.7V30.813a2.125,2.125,0,0,0-1.992-1.2,1.929,1.929,0,0,0-1.656.82A4.128,4.128,0,0,0,69.691,32.867Zm11.438,4.289a3.693,3.693,0,0,1-2.8-1.129,4.19,4.19,0,0,1-1.078-3.02v-.266a5.073,5.073,0,0,1,.48-2.246,3.748,3.748,0,0,1,1.344-1.547,3.378,3.378,0,0,1,1.871-.559,3.166,3.166,0,0,1,2.563,1.086,4.7,4.7,0,0,1,.914,3.109v.6H78.7a3,3,0,0,0,.73,2.02,2.3,2.3,0,0,0,1.777.77,2.517,2.517,0,0,0,1.3-.312,3.259,3.259,0,0,0,.93-.828l.883.688A3.55,3.55,0,0,1,81.129,37.156Zm-.18-7.578a1.928,1.928,0,0,0-1.469.637A3.1,3.1,0,0,0,78.746,32H82.98v-.109a2.753,2.753,0,0,0-.594-1.707A1.815,1.815,0,0,0,80.949,29.578ZM91.629,37H90.184V25h1.445Zm7.531,0a3.036,3.036,0,0,1-.2-.891,3.225,3.225,0,0,1-2.406,1.047,2.984,2.984,0,0,1-2.051-.707,2.288,2.288,0,0,1-.8-1.793,2.39,2.39,0,0,1,1-2.051,4.733,4.733,0,0,1,2.824-.73h1.406v-.664A1.623,1.623,0,0,0,98.48,30a1.821,1.821,0,0,0-1.336-.449,2.108,2.108,0,0,0-1.3.391,1.151,1.151,0,0,0-.523.945H93.871a2,2,0,0,1,.449-1.223,3.066,3.066,0,0,1,1.219-.934,4.1,4.1,0,0,1,1.691-.344,3.342,3.342,0,0,1,2.289.73,2.635,2.635,0,0,1,.859,2.012v3.891a4.757,4.757,0,0,0,.3,1.852V37Zm-2.4-1.1a2.54,2.54,0,0,0,1.289-.352,2.127,2.127,0,0,0,.883-.914V32.9H97.8q-2.656,0-2.656,1.555a1.316,1.316,0,0,0,.453,1.063A1.742,1.742,0,0,0,96.762,35.9Zm14.766-1.141a1.064,1.064,0,0,0-.441-.91,4.249,4.249,0,0,0-1.539-.559,7.277,7.277,0,0,1-1.742-.562,2.479,2.479,0,0,1-.953-.781,1.869,1.869,0,0,1-.309-1.078,2.193,2.193,0,0,1,.879-1.758,3.432,3.432,0,0,1,2.246-.719,3.532,3.532,0,0,1,2.332.742,2.357,2.357,0,0,1,.895,1.9h-1.453a1.3,1.3,0,0,0-.5-1.023,1.888,1.888,0,0,0-1.27-.43,1.976,1.976,0,0,0-1.234.344,1.082,1.082,0,0,0-.445.9.877.877,0,0,0,.414.789,5.1,5.1,0,0,0,1.5.508,7.8,7.8,0,0,1,1.754.578,2.558,2.558,0,0,1,1,.809,1.988,1.988,0,0,1,.324,1.152,2.163,2.163,0,0,1-.906,1.816,3.8,3.8,0,0,1-2.352.684,4.257,4.257,0,0,1-1.8-.359,2.922,2.922,0,0,1-1.223-1,2.42,2.42,0,0,1-.441-1.395H107.7a1.5,1.5,0,0,0,.582,1.152,2.258,2.258,0,0,0,1.434.426,2.331,2.331,0,0,0,1.316-.332A1.02,1.02,0,0,0,111.527,34.758Zm4.9,2.242H114.98V28.547h1.445Zm-1.562-10.7a.863.863,0,0,1,.215-.594.807.807,0,0,1,.637-.242.819.819,0,0,1,.641.242.854.854,0,0,1,.219.594.826.826,0,0,1-.219.586.834.834,0,0,1-.641.234.821.821,0,0,1-.637-.234A.834.834,0,0,1,114.863,26.3Zm5.836.2v2.047h1.578v1.117H120.7v5.249a1.173,1.173,0,0,0,.211.763.888.888,0,0,0,.719.254,3.5,3.5,0,0,0,.688-.094V37a4.215,4.215,0,0,1-1.109.155,1.8,1.8,0,0,1-1.461-.586,2.517,2.517,0,0,1-.492-1.664V29.664h-1.539V28.547h1.539V26.5Zm8.484,9.664a3.07,3.07,0,0,1-2.477.992,2.628,2.628,0,0,1-2.059-.785,3.4,3.4,0,0,1-.715-2.324v-5.5h1.445v5.461q0,1.922,1.563,1.922a2.163,2.163,0,0,0,2.2-1.234V28.547h1.445V37h-1.375ZM138,37a3.036,3.036,0,0,1-.2-.891,3.225,3.225,0,0,1-2.406,1.047,2.984,2.984,0,0,1-2.051-.707,2.287,2.287,0,0,1-.8-1.793,2.39,2.39,0,0,1,1-2.051,4.733,4.733,0,0,1,2.824-.73h1.406v-.664A1.623,1.623,0,0,0,137.324,30a1.821,1.821,0,0,0-1.336-.449,2.107,2.107,0,0,0-1.3.391,1.151,1.151,0,0,0-.523.945h-1.453a2,2,0,0,1,.449-1.223,3.066,3.066,0,0,1,1.219-.934,4.1,4.1,0,0,1,1.691-.344,3.342,3.342,0,0,1,2.289.73,2.635,2.635,0,0,1,.859,2.012v3.891a4.757,4.757,0,0,0,.3,1.852V37Zm-2.4-1.1a2.54,2.54,0,0,0,1.289-.352,2.127,2.127,0,0,0,.883-.914V32.9h-1.133q-2.656,0-2.656,1.555a1.316,1.316,0,0,0,.453,1.063A1.742,1.742,0,0,0,135.605,35.9Zm9.273.078a2.082,2.082,0,0,0,1.352-.469,1.649,1.649,0,0,0,.641-1.172h1.367a2.621,2.621,0,0,1-.5,1.383,3.293,3.293,0,0,1-1.23,1.047,3.55,3.55,0,0,1-1.629.391A3.482,3.482,0,0,1,142.133,36a4.59,4.59,0,0,1-1.02-3.152v-.242a5.089,5.089,0,0,1,.453-2.2,3.451,3.451,0,0,1,1.3-1.492,3.7,3.7,0,0,1,2-.531,3.39,3.39,0,0,1,2.363.852,3.043,3.043,0,0,1,1,2.211h-1.367a1.992,1.992,0,0,0-.621-1.348,1.932,1.932,0,0,0-1.379-.527,2.023,2.023,0,0,0-1.707.793,3.724,3.724,0,0,0-.605,2.293v.273a3.65,3.65,0,0,0,.6,2.25A2.033,2.033,0,0,0,144.879,35.977ZM151.434,37h-1.445V28.547h1.445Zm-1.562-10.7a.863.863,0,0,1,.215-.594.807.807,0,0,1,.637-.242.819.819,0,0,1,.641.242.854.854,0,0,1,.219.594.826.826,0,0,1-.219.586.834.834,0,0,1-.641.234.821.821,0,0,1-.637-.234A.834.834,0,0,1,149.871,26.3Zm3.492,6.391a4.993,4.993,0,0,1,.488-2.234,3.642,3.642,0,0,1,1.359-1.531,3.7,3.7,0,0,1,1.988-.539,3.565,3.565,0,0,1,2.793,1.2,4.6,4.6,0,0,1,1.066,3.18v.1a5.036,5.036,0,0,1-.473,2.215,3.589,3.589,0,0,1-1.352,1.527,3.743,3.743,0,0,1-2.02.547,3.556,3.556,0,0,1-2.785-1.2,4.575,4.575,0,0,1-1.066-3.164Zm1.453.172a3.616,3.616,0,0,0,.652,2.258,2.211,2.211,0,0,0,3.5-.012,3.954,3.954,0,0,0,.648-2.418,3.61,3.61,0,0,0-.66-2.254,2.1,2.1,0,0,0-1.754-.863,2.075,2.075,0,0,0-1.727.852A3.925,3.925,0,0,0,154.816,32.867ZM157.855,25h1.75l-2.094,2.3-1.164,0Zm6.383,3.547.047,1.063a3.08,3.08,0,0,1,2.531-1.219q2.68,0,2.7,3.023V37h-1.445V31.406a1.946,1.946,0,0,0-.418-1.352,1.675,1.675,0,0,0-1.277-.437,2.086,2.086,0,0,0-1.234.375,2.546,2.546,0,0,0-.828.984V37h-1.445V28.547Zm18.563,4.32a5.062,5.062,0,0,1-.883,3.109,2.829,2.829,0,0,1-2.391,1.18,3.1,3.1,0,0,1-2.422-.977v4.07H175.66v-11.7h1.32l.07.938a2.977,2.977,0,0,1,2.453-1.094,2.882,2.882,0,0,1,2.41,1.148,5.117,5.117,0,0,1,.887,3.2Zm-1.445-.164a3.735,3.735,0,0,0-.609-2.258,1.963,1.963,0,0,0-1.672-.828,2.125,2.125,0,0,0-1.969,1.164V34.82a2.129,2.129,0,0,0,1.984,1.156,1.954,1.954,0,0,0,1.652-.824A4.077,4.077,0,0,0,181.355,32.7Zm7.367-2.859a4.331,4.331,0,0,0-.711-.055A1.9,1.9,0,0,0,186.082,31v6h-1.445V28.547h1.406l.023.977a2.251,2.251,0,0,1,2.016-1.133,1.477,1.477,0,0,1,.641.109Zm4.836,7.313a3.693,3.693,0,0,1-2.8-1.129,4.19,4.19,0,0,1-1.078-3.02v-.266a5.073,5.073,0,0,1,.48-2.246,3.748,3.748,0,0,1,1.344-1.547,3.378,3.378,0,0,1,1.871-.559,3.166,3.166,0,0,1,2.563,1.086,4.7,4.7,0,0,1,.914,3.109v.6h-5.727a3,3,0,0,0,.73,2.02,2.3,2.3,0,0,0,1.777.77,2.517,2.517,0,0,0,1.3-.312,3.258,3.258,0,0,0,.93-.828l.883.688A3.55,3.55,0,0,1,193.559,37.156Zm-.18-7.578a1.928,1.928,0,0,0-1.469.637A3.1,3.1,0,0,0,191.176,32h4.234v-.109a2.753,2.753,0,0,0-.594-1.707A1.815,1.815,0,0,0,193.379,29.578Zm10.07,5.18a1.064,1.064,0,0,0-.441-.91,4.249,4.249,0,0,0-1.539-.559,7.277,7.277,0,0,1-1.742-.562,2.479,2.479,0,0,1-.953-.781,1.869,1.869,0,0,1-.309-1.078,2.193,2.193,0,0,1,.879-1.758,3.432,3.432,0,0,1,2.246-.719,3.532,3.532,0,0,1,2.332.742,2.357,2.357,0,0,1,.895,1.9h-1.453a1.3,1.3,0,0,0-.5-1.023,1.888,1.888,0,0,0-1.27-.43,1.976,1.976,0,0,0-1.234.344,1.082,1.082,0,0,0-.445.9.877.877,0,0,0,.414.789,5.1,5.1,0,0,0,1.5.508,7.8,7.8,0,0,1,1.754.578,2.558,2.558,0,0,1,1,.809,1.988,1.988,0,0,1,.324,1.152,2.163,2.163,0,0,1-.906,1.816,3.8,3.8,0,0,1-2.352.684,4.257,4.257,0,0,1-1.8-.359,2.922,2.922,0,0,1-1.223-1,2.42,2.42,0,0,1-.441-1.395h1.445a1.5,1.5,0,0,0,.582,1.152,2.258,2.258,0,0,0,1.434.426,2.331,2.331,0,0,0,1.316-.332A1.02,1.02,0,0,0,203.449,34.758Zm6.836,2.4a3.693,3.693,0,0,1-2.8-1.129,4.19,4.19,0,0,1-1.078-3.02v-.266a5.073,5.073,0,0,1,.48-2.246,3.748,3.748,0,0,1,1.344-1.547,3.378,3.378,0,0,1,1.871-.559,3.166,3.166,0,0,1,2.563,1.086,4.7,4.7,0,0,1,.914,3.109v.6h-5.727a3,3,0,0,0,.73,2.02,2.3,2.3,0,0,0,1.777.77,2.517,2.517,0,0,0,1.3-.312,3.258,3.258,0,0,0,.93-.828l.883.688A3.55,3.55,0,0,1,210.285,37.156Zm-.18-7.578a1.928,1.928,0,0,0-1.469.637A3.1,3.1,0,0,0,207.9,32h4.234v-.109a2.753,2.753,0,0,0-.594-1.707A1.815,1.815,0,0,0,210.105,29.578Zm6.516-1.031.047,1.063a3.08,3.08,0,0,1,2.531-1.219q2.68,0,2.7,3.023V37h-1.445V31.406a1.946,1.946,0,0,0-.418-1.352,1.675,1.675,0,0,0-1.277-.437,2.086,2.086,0,0,0-1.234.375,2.546,2.546,0,0,0-.828.984V37h-1.445V28.547Zm9.422-2.047v2.047h1.578v1.117h-1.578v5.249a1.173,1.173,0,0,0,.211.763.888.888,0,0,0,.719.254,3.5,3.5,0,0,0,.688-.094V37a4.215,4.215,0,0,1-1.109.155,1.8,1.8,0,0,1-1.461-.586,2.517,2.517,0,0,1-.492-1.664V29.664h-1.539V28.547H224.6V26.5Zm6.773,10.656a3.693,3.693,0,0,1-2.8-1.129,4.19,4.19,0,0,1-1.078-3.02v-.266a5.073,5.073,0,0,1,.48-2.246,3.748,3.748,0,0,1,1.344-1.547,3.378,3.378,0,0,1,1.871-.559,3.166,3.166,0,0,1,2.563,1.086,4.7,4.7,0,0,1,.914,3.109v.6h-5.727a3,3,0,0,0,.73,2.02,2.3,2.3,0,0,0,1.777.77,2.517,2.517,0,0,0,1.3-.312,3.258,3.258,0,0,0,.93-.828l.883.688A3.55,3.55,0,0,1,232.816,37.156Zm-.18-7.578a1.928,1.928,0,0,0-1.469.637A3.1,3.1,0,0,0,230.434,32h4.234v-.109a2.753,2.753,0,0,0-.594-1.707A1.815,1.815,0,0,0,232.637,29.578Zm6.844,4.206a4.663,4.663,0,0,1,.211-1.466,3.761,3.761,0,0,1,.8-1.193l1.023-1.053a2.36,2.36,0,0,0,.656-1.59,1.815,1.815,0,0,0-.43-1.282,1.62,1.62,0,0,0-1.25-.464,1.881,1.881,0,0,0-1.281.422,1.426,1.426,0,0,0-.484,1.133h-1.445a2.632,2.632,0,0,1,.9-2.043,3.374,3.374,0,0,1,2.309-.777,3.185,3.185,0,0,1,2.3.792,2.87,2.87,0,0,1,.824,2.172,3.926,3.926,0,0,1-1.266,2.691l-.852.842a2.623,2.623,0,0,0-.57,1.818Zm-.062,2.482a.861.861,0,0,1,.215-.6.81.81,0,0,1,.637-.241.822.822,0,0,1,.641.241.852.852,0,0,1,.219.6.824.824,0,0,1-.219.588.837.837,0,0,1-.641.233.774.774,0,0,1-.852-.82Z" transform="translate(992.645 8481.5)" fill="#12263f"/>
      <g id="Group_1117583" data-name="Group 1117583" transform="translate(326.195 8552.453)">
        <path id="Path_896353" data-name="Path 896353" d="M0,39.919,11.437,60.4,0,78.939H197.668L209.1,60.4,197.668,39.919Z" transform="translate(0 -27.237)" fill="#ffc811"/>
        <path id="Path_896354" data-name="Path 896354" d="M2462.557,39.92H2264.889l11.437,20.486L2264.889,78.94h197.668l11.437-18.534Z" transform="translate(-1545.376 -27.237)" fill="#ffc811"/>
        <path id="Path_896355" data-name="Path 896355" d="M2879.933,0l18.87,33.8-18.87,30.582h35.178l18.87-30.582L2915.111,0Z" transform="translate(-1965.032)" fill="#ffc811"/>
        <path id="Path_896356" data-name="Path 896356" d="M1151.82,39.92H640l11.437,20.486L640,78.94h511.82l11.437-18.534Z" transform="translate(-436.684 -27.237)" fill="#ffe9a2"/>
      </g>
      <path id="Path_919020" data-name="Path 919020" d="M13.512,12.992V17H11.168V5.625h4.438a5.134,5.134,0,0,1,2.254.469,3.454,3.454,0,0,1,1.5,1.332,3.714,3.714,0,0,1,.523,1.965,3.266,3.266,0,0,1-1.145,2.637,4.767,4.767,0,0,1-3.168.965Zm0-1.9h2.094a2.059,2.059,0,0,0,1.418-.437,1.591,1.591,0,0,0,.488-1.25,1.876,1.876,0,0,0-.492-1.352,1.839,1.839,0,0,0-1.359-.531H13.512Zm12.578-.43a6.134,6.134,0,0,0-.812-.062,1.654,1.654,0,0,0-1.68.867V17H21.34V8.547h2.133l.063,1.008a2.092,2.092,0,0,1,1.883-1.164,2.366,2.366,0,0,1,.7.1Zm4.977,6.492a4.15,4.15,0,0,1-3.027-1.141,4.054,4.054,0,0,1-1.168-3.039v-.219a5.106,5.106,0,0,1,.492-2.277,3.612,3.612,0,0,1,1.395-1.547,3.914,3.914,0,0,1,2.059-.543,3.508,3.508,0,0,1,2.73,1.094,4.444,4.444,0,0,1,1,3.1v.922H29.16a2.1,2.1,0,0,0,.66,1.328,2,2,0,0,0,1.395.5,2.437,2.437,0,0,0,2.039-.945l1.109,1.242a3.389,3.389,0,0,1-1.375,1.121A4.511,4.511,0,0,1,31.066,17.156Zm-.258-6.945a1.411,1.411,0,0,0-1.09.455,2.357,2.357,0,0,0-.535,1.3h3.141v-.181a1.681,1.681,0,0,0-.406-1.165A1.456,1.456,0,0,0,30.809,10.211ZM40.4,14.664a.727.727,0,0,0-.41-.652,4.659,4.659,0,0,0-1.316-.426q-3.016-.633-3.016-2.562a2.323,2.323,0,0,1,.934-1.879,3.766,3.766,0,0,1,2.441-.754,4.053,4.053,0,0,1,2.574.758,2.388,2.388,0,0,1,.965,1.969H40.316a1.092,1.092,0,0,0-.312-.8A1.322,1.322,0,0,0,39.027,10a1.351,1.351,0,0,0-.883.258.814.814,0,0,0-.312.656.7.7,0,0,0,.355.605,3.657,3.657,0,0,0,1.2.4,9.8,9.8,0,0,1,1.422.379A2.336,2.336,0,0,1,42.6,14.57a2.2,2.2,0,0,1-.992,1.871,4.28,4.28,0,0,1-2.562.715,4.47,4.47,0,0,1-1.887-.379,3.166,3.166,0,0,1-1.293-1.039,2.414,2.414,0,0,1-.469-1.426h2.141a1.179,1.179,0,0,0,.445.922,1.766,1.766,0,0,0,1.109.32,1.635,1.635,0,0,0,.98-.246A.766.766,0,0,0,40.4,14.664Zm7.539,2.492a4.15,4.15,0,0,1-3.027-1.141,4.054,4.054,0,0,1-1.168-3.039v-.219a5.106,5.106,0,0,1,.492-2.277,3.612,3.612,0,0,1,1.395-1.547,3.914,3.914,0,0,1,2.059-.543,3.508,3.508,0,0,1,2.73,1.094,4.444,4.444,0,0,1,1,3.1v.922H46.035a2.1,2.1,0,0,0,.66,1.328,2,2,0,0,0,1.395.5,2.437,2.437,0,0,0,2.039-.945l1.109,1.242a3.389,3.389,0,0,1-1.375,1.121A4.511,4.511,0,0,1,47.941,17.156Zm-.258-6.945a1.411,1.411,0,0,0-1.09.455,2.357,2.357,0,0,0-.535,1.3H49.2v-.181a1.681,1.681,0,0,0-.406-1.165A1.456,1.456,0,0,0,47.684,10.211Zm7.094-1.664.07.977a2.951,2.951,0,0,1,2.43-1.133,2.453,2.453,0,0,1,2,.789,3.682,3.682,0,0,1,.672,2.359V17H57.691V11.594a1.465,1.465,0,0,0-.312-1.043,1.4,1.4,0,0,0-1.039-.324,1.553,1.553,0,0,0-1.43.813V17H52.652V8.547Zm9.586-2.078V8.547h1.445V10.2H64.363v4.219a1.007,1.007,0,0,0,.18.672.9.9,0,0,0,.688.2,3.6,3.6,0,0,0,.664-.055v1.711a4.648,4.648,0,0,1-1.367.2,2.156,2.156,0,0,1-2.422-2.4V10.2H60.871V8.547h1.234V6.469Zm6.594,10.688a4.15,4.15,0,0,1-3.027-1.141,4.054,4.054,0,0,1-1.168-3.039v-.219a5.106,5.106,0,0,1,.492-2.277,3.612,3.612,0,0,1,1.395-1.547,3.914,3.914,0,0,1,2.059-.543,3.508,3.508,0,0,1,2.73,1.094,4.444,4.444,0,0,1,1,3.1v.922H69.051a2.1,2.1,0,0,0,.66,1.328,2,2,0,0,0,1.395.5,2.437,2.437,0,0,0,2.039-.945l1.109,1.242a3.389,3.389,0,0,1-1.375,1.121A4.511,4.511,0,0,1,70.957,17.156ZM70.7,10.211a1.411,1.411,0,0,0-1.09.455,2.357,2.357,0,0,0-.535,1.3h3.141v-.181a1.681,1.681,0,0,0-.406-1.165A1.456,1.456,0,0,0,70.7,10.211Z" transform="translate(390.145 8574.778)" fill="#12263f"/>
      <path id="Path_919021" data-name="Path 919021" d="M27.105,12.352h-4.5V17H20.262V5.625h7.406v1.9H22.605v2.938h4.5Zm6.664,3.789a2.831,2.831,0,0,1-2.312,1.016,2.67,2.67,0,0,1-2.074-.781,3.335,3.335,0,0,1-.73-2.289V8.547H30.91v5.467q0,1.322,1.2,1.322a1.63,1.63,0,0,0,1.578-.8V8.547h2.266V17H33.832Zm6.594-9.672V8.547h1.445V10.2H40.363v4.219a1.007,1.007,0,0,0,.18.672.9.9,0,0,0,.688.2,3.6,3.6,0,0,0,.664-.055v1.711a4.648,4.648,0,0,1-1.367.2,2.156,2.156,0,0,1-2.422-2.4V10.2H36.871V8.547h1.234V6.469Zm7.766,9.672a2.831,2.831,0,0,1-2.312,1.016,2.67,2.67,0,0,1-2.074-.781,3.335,3.335,0,0,1-.73-2.289V8.547H45.27v5.467q0,1.322,1.2,1.322a1.63,1.63,0,0,0,1.578-.8V8.547h2.266V17H48.191Zm8.641-5.477a6.134,6.134,0,0,0-.812-.062,1.654,1.654,0,0,0-1.68.867V17H52.02V8.547h2.133l.063,1.008A2.092,2.092,0,0,1,56.1,8.391a2.366,2.366,0,0,1,.7.1Zm.453,2.031a5.013,5.013,0,0,1,.484-2.242A3.546,3.546,0,0,1,59.1,8.93a4.069,4.069,0,0,1,2.113-.539,3.849,3.849,0,0,1,2.793,1.047,4.2,4.2,0,0,1,1.207,2.844l.016.578a4.418,4.418,0,0,1-1.086,3.121,4.209,4.209,0,0,1-5.832,0,4.5,4.5,0,0,1-1.09-3.187Zm2.258.16a3.16,3.16,0,0,0,.453,1.843,1.628,1.628,0,0,0,2.578.008,3.457,3.457,0,0,0,.461-2.015,3.128,3.128,0,0,0-.461-1.831,1.5,1.5,0,0,0-1.3-.649,1.474,1.474,0,0,0-1.281.646A3.516,3.516,0,0,0,59.48,12.856Z" transform="translate(1105.145 8574.778)" fill="#12263f"/>
      <g id="Group_1117584" data-name="Group 1117584" transform="translate(19 -23.974)">
        <g id="Group_1117580" data-name="Group 1117580" transform="translate(351 8462.612)">
          <g id="Group_1113673" data-name="Group 1113673">
            <g id="Group_1113672" data-name="Group 1113672" clip-path="url(#clip-path-2)">
              <path id="Path_886855" data-name="Path 886855" d="M96.251,89.531c65.8-5.17,28.8-94.657-36.521-89.3C32.024,2.5,9.29,19.5,2.351,41.4a51.587,51.587,0,0,0,14.99,53.842c20.679,18.732,48.8-3.348,78.91-5.714" transform="translate(0 0)" fill="#685700"/>
            </g>
          </g>
        </g>
        <g id="Group_1117581" data-name="Group 1117581" transform="translate(1118.157 8167.474)">
          <g id="Group_1113673-2" data-name="Group 1113673">
            <g id="Group_1113672-2" data-name="Group 1113672" clip-path="url(#clip-path-2)">
              <path id="Path_886855-2" data-name="Path 886855" d="M96.251,89.531c65.8-5.17,28.8-94.657-36.521-89.3C32.024,2.5,9.29,19.5,2.351,41.4a51.587,51.587,0,0,0,14.99,53.842c20.679,18.732,48.8-3.348,78.91-5.714" transform="translate(0 0)" fill="#685700"/>
            </g>
          </g>
        </g>
        <g id="Group_1117582" data-name="Group 1117582" transform="translate(908.523 8314.724)">
          <g id="Group_1113673-3" data-name="Group 1113673">
            <g id="Group_1113672-3" data-name="Group 1113672" clip-path="url(#clip-path-2)">
              <path id="Path_886855-3" data-name="Path 886855" d="M96.251,89.531c65.8-5.17,28.8-94.657-36.521-89.3C32.024,2.5,9.29,19.5,2.351,41.4a51.587,51.587,0,0,0,14.99,53.842c20.679,18.732,48.8-3.348,78.91-5.714" transform="translate(0 0)" fill="#685700"/>
            </g>
          </g>
        </g>
        <text id="Presente" transform="translate(373.843 8505.489)" fill="#fff" font-size="16" font-family="Roboto-Bold, Roboto" font-weight="700"><tspan x="10.152" y="17">Presente</tspan></text>
        <text id="Futuro" transform="translate(1144 8210.351)" fill="#fff" font-size="16" font-family="Roboto-Bold, Roboto" font-weight="700"><tspan x="19.246" y="17">Futuro</tspan></text>
        <text id="Futuro-2" data-name="Futuro" transform="translate(934.366 8357.601)" fill="#fff" font-size="16" font-family="Roboto-Bold, Roboto" font-weight="700"><tspan x="19.246" y="17">Futuro</tspan></text>
        <path id="Path_896357" data-name="Path 896357" d="M3149-3280l598.289-246.667" transform="translate(-2661.289 11745.974)" fill="none" stroke="#707070" stroke-width="3" stroke-dasharray="7"/>
        <path id="Path_896358" data-name="Path 896358" d="M16.889,179.093,370.74,0" transform="matrix(0.985, 0.174, -0.174, 0.985, 519.178, 8322.669)" fill="none" stroke="#707070" stroke-width="3" stroke-dasharray="7"/>
        <g id="Polygon_12" data-name="Polygon 12" transform="translate(1099.191 8205.059) rotate(69)" fill="#685700">
          <path d="M 18.1478157043457 16.5 L 0.8521844148635864 16.5 L 9.5 1.024961590766907 L 18.1478157043457 16.5 Z" stroke="none"/>
          <path d="M 9.5 2.049922943115234 L 1.704368591308594 16 L 17.29563140869141 16 L 9.5 2.049922943115234 M 9.5 0 L 19 17 L 0 17 L 9.5 0 Z" stroke="none" fill="#707070"/>
        </g>
        <g id="Polygon_13" data-name="Polygon 13" transform="matrix(0.259, 0.966, -0.966, 0.259, 897.771, 8374.264)" fill="#685700">
          <path d="M 16.18153953552246 14.74071979522705 L 0.8521875739097595 14.74071979522705 L 8.516863822937012 1.024962186813354 L 16.18153953552246 14.74071979522705 Z" stroke="none"/>
          <path d="M 8.516863822937012 2.049924850463867 L 1.704371452331543 14.24071979522705 L 15.32935619354248 14.24071979522705 L 8.516863822937012 2.049924850463867 M 8.516863822937012 -9.5367431640625e-07 L 17.03372383117676 15.24071979522705 L 3.814697265625e-06 15.24071979522705 L 8.516863822937012 -9.5367431640625e-07 Z" stroke="none" fill="#707070"/>
        </g>
        <path id="Path_896359" data-name="Path 896359" d="M3117.289-3344.361S3159-3327,3157-3277" transform="translate(-2661.289 11806.974)" fill="none" stroke="#ffc811" stroke-width="2" opacity="0.37"/>
      </g>
      <g id="Group_1117594" data-name="Group 1117594" transform="translate(1075.322 8283.658)">
        <g id="Group_1117593" data-name="Group 1117593" transform="translate(-705.322 -47)" clip-path="url(#clip-path-5)">
          <rect id="Rectangle_408101" data-name="Rectangle 408101" width="54.991" height="60.257" transform="translate(39.828 114.1)" fill="#fff2d2"/>
          <path id="Path_896360" data-name="Path 896360" d="M311.1,587.055H257.2v59.094H311.1Zm1.1,60.257H256.1V585.892h56.09Z" transform="translate(-216.825 -472.373)" fill="#bfa564"/>
          <g id="Group_1117592" data-name="Group 1117592">
            <g id="Group_1117591" data-name="Group 1117591" clip-path="url(#clip-path-5)">
              <path id="Path_896361" data-name="Path 896361" d="M621.515,18.429c0,10.178-7.8,18.429-17.417,18.429s-17.417-8.251-17.417-18.429S594.479,0,604.1,0s17.417,8.251,17.417,18.429" transform="translate(-586.681)" fill="#ffc811"/>
              <path id="Path_896362" data-name="Path 896362" d="M548.015,88.2l14.092,12.732-15.2-2.01Z" transform="translate(-519.99 -71.108)" fill="#ffc811"/>
              <path id="Path_896363" data-name="Path 896363" d="M645.535,62.664a1.067,1.067,0,0,1-1.922.052l-5.357-9.826a1.488,1.488,0,0,1,.5-1.97,1.322,1.322,0,0,1,1.862.529l3.856,7.071,7-14.5a1.384,1.384,0,0,1,1.8-.735,1.48,1.48,0,0,1,.661,1.975Z" transform="translate(-628.661 -34.802)" fill="#fff"/>
              <path id="Path_896364" data-name="Path 896364" d="M174.757,805.585l-3.186,17.89h24.59l-12.138-7.6.986-11.049Z" transform="translate(-85.313 -648.886)" fill="#013d55"/>
              <path id="Path_896365" data-name="Path 896365" d="M135.952,499.262l-11.61,46.619h16.525s32.6-61.026,6.228-67.033Z" transform="translate(-37.894 -386.07)" fill="#432b0a"/>
              <path id="Path_896366" data-name="Path 896366" d="M212.757,806.349l-3.186,17.89h24.59l-12.138-7.6.986-11.049Z" transform="translate(-130.271 -649.502)" fill="#007ba7"/>
              <path id="Path_896367" data-name="Path 896367" d="M157.483,453.284s-11.21,37.181,40.8,26.718l-8.759,47.553,13.824-.2s32.147-60.094,11.3-69.445Z" transform="translate(-108.062 -365.458)" fill="#634419"/>
              <path id="Path_896395" data-name="Path 896395" d="M.109,5.077l.767.016L.767.016,0,0Z" transform="translate(87.314 169.665) rotate(-114.15)" fill="#013d55"/>
              <path id="Path_896368" data-name="Path 896368" d="M194.856,435.733l4.908,5.774,17.213.2c-.183-5.758-10.438-8.339-10.438-8.339Z" transform="translate(-110.392 -349.402)" fill="#ff9498"/>
              <path id="Path_896369" data-name="Path 896369" d="M251.576,271.666l7.728,9.106,11.734-1.5c-.977-29.321-13.36-38.107-13.36-38.107Z" transform="translate(-174.84 -194.442)" fill="#a28d22"/>
              <path id="Path_896370" data-name="Path 896370" d="M310.68,226.849s12.259,3.811,11.72,25.382c-.311,12.42-.732,20.344-.732,20.344l-37.906.387,6.226-34.294Z" transform="translate(-232.113 -182.896)" fill="#a28d22"/>
              <rect id="Rectangle_408103" data-name="Rectangle 408103" width="21.036" height="3.832" transform="translate(88.395 90.239)" fill="#7a8ddf"/>
              <path id="Path_896371" data-name="Path 896371" d="M0,337.434H22.445l13.793-35.585H13.793Z" transform="translate(106.028 -243.364)" fill="#afbefc"/>
              <path id="Path_896396" data-name="Path 896396" d="M0,.549,27.319.643l0-.549L0,0Z" transform="translate(89.49 85.254) rotate(-93.576)" fill="#2a5044"/>
              <path id="Path_896372" data-name="Path 896372" d="M232.035,431.572s19.548-4.214,20.52,3.1c0,0,.3.843-.849.577,0,0,1.315,3.067-3.489,1.647,0,0,.674.643-1.851.8s-16.711,3.181-16.711,3.181Z" transform="translate(-152.378 -346.979)" fill="#ff9498"/>
              <path id="Path_896373" data-name="Path 896373" d="M228.865,440.172l.29-.062c.142-.03,14.2-3.027,16.685-3.177,1.7-.1,2-.433,2.084-.671a.379.379,0,0,0,.012-.045c1.692.457,2.805.381,3.3-.233a1.663,1.663,0,0,0,.2-1.45.7.7,0,0,0,.632-.215.847.847,0,0,0,.059-.768c-.762-3.088-4.5-4.563-11.08-4.347a57.849,57.849,0,0,0-9.592,1.227l-.109.025Zm18.115-4.638.578.553s.026.033.021.047-.131.313-1.76.412c-2.339.142-14.358,2.679-16.446,3.123l2.274-8.882c1.529-.332,18.478-3.834,20.139,2.887.039.106.079.306.007.4s-.287.106-.584.038l-.355-.082.15.35c0,.009.359.862-.043,1.356-.292.36-1.092.658-3.23.024Z" transform="translate(-151.843 -346.027)" fill="#974245"/>
              <path id="Path_896374" data-name="Path 896374" d="M257.666,460.715a.182.182,0,0,0,.149-.081.2.2,0,0,0-.041-.27c-.072-.054-1.8-1.331-5.1-.286a.2.2,0,0,0-.123.241.179.179,0,0,0,.228.13c3.114-.986,4.767.218,4.783.23a.176.176,0,0,0,.106.036" transform="translate(-161.829 -370.605)" fill="#974245"/>
              <path id="Path_896375" data-name="Path 896375" d="M243.477,451.7a.176.176,0,0,0,.066-.013.2.2,0,0,0,.1-.25c-.042-.115-1.09-2.834-6.7-3.4a.183.183,0,0,0-.2.175.191.191,0,0,0,.165.211c5.357.537,6.381,3.125,6.39,3.151a.184.184,0,0,0,.171.123" transform="translate(-144.747 -361.227)" fill="#974245"/>
              <path id="Path_896376" data-name="Path 896376" d="M238.32,442.023a.177.177,0,0,0,.13-.057.2.2,0,0,0,0-.274,13.864,13.864,0,0,0-4.722-3.155.182.182,0,0,0-.231.123.2.2,0,0,0,.117.244,13.756,13.756,0,0,1,4.579,3.063.179.179,0,0,0,.129.056" transform="translate(-138.993 -353.561)" fill="#974245"/>
              <path id="Path_896377" data-name="Path 896377" d="M365.521,222.818l-19.966,35.82,22.377,4.069-3.037,9.688c-32.366,6.29-33.074-10.85-33.074-10.85-2.843-49.063,32.669-39.477,33.7-38.727" transform="translate(-286.398 -178.647)" fill="#a28d22"/>
              <path id="Path_896378" data-name="Path 896378" d="M353.705,346.166l.064-.577L335.2,343.25a4.47,4.47,0,0,1-3.762-4.681L332,324.81l-.549-.024-.553,13.759a5.045,5.045,0,0,0,4.247,5.282Z" transform="translate(-272.095 -261.857)" fill="#2a5044"/>
              <path id="Path_896379" data-name="Path 896379" d="M344.578,270.532a3.666,3.666,0,0,0,.544-.04,4.439,4.439,0,0,0,3.006-2.221l-.454-.327a3.918,3.918,0,0,1-2.632,1.971c-1.385.211-3.079-.538-5.025-2.227l-.348.45c1.833,1.59,3.481,2.393,4.908,2.393" transform="translate(-268.061 -215.823)" fill="#2a5044"/>
              <path id="Path_896380" data-name="Path 896380" d="M335.9,183.915l.043.017a3.376,3.376,0,0,0,4.435-2.265l.519-1.675,2.527-7.215.476-1.364L333.12,167.2l-1.988,5.936a8.623,8.623,0,0,0,4.771,10.783" transform="translate(-262.187 -134.801)" fill="#ff9498"/>
              <path id="Path_896381" data-name="Path 896381" d="M333.269,179.016a15.166,15.166,0,0,0,6.47,9.2l2.07-5.913Z" transform="translate(-260.571 -144.331)" fill="#974245"/>
              <path id="Path_896382" data-name="Path 896382" d="M260.624,80.534c13.829-5.208,16.392,11.326,2.2,14.006Z" transform="translate(-177.766 -64.117)" fill="#013d55"/>
              <path id="Path_896383" data-name="Path 896383" d="M292.633,114.451l3.809,8.626s7.6,6.44,11.515,5.286c1.538-.45,2.805-2.5,3.648-5.262a24.343,24.343,0,0,0,.688-2.976,26.429,26.429,0,0,0-.527-11.648l-11.954.457Z" transform="translate(-224.015 -87.458)" fill="#ff9498"/>
              <path id="Path_896384" data-name="Path 896384" d="M324.244,81.755c-.312-.9-5.7,1.344-6.294,1.721-1.872,1.185-2.479,4.268-3.308,6.378-1.694,4.311-3.151,8.158-6.959,10.172-.366.194,1.46,15.319-3.782,16.648-2.8.71-5.329-1.907-5.919-5.015-.958-5.044.682-7.742,5.657-12.844-5.494-28.417,18.434-26.867,20.6-17.06" transform="translate(-236.496 -60.739)" fill="#013d55"/>
              <path id="Path_896385" data-name="Path 896385" d="M324.539,153.1a.669.669,0,1,1-.629-.837.745.745,0,0,1,.629.837" transform="translate(-241.463 -122.759)" fill="#013d55"/>
              <path id="Path_896386" data-name="Path 896386" d="M302.063,154.951a.669.669,0,1,1-.629-.837.745.745,0,0,1,.629.837" transform="translate(-214.871 -124.253)" fill="#013d55"/>
              <path id="Path_896387" data-name="Path 896387" d="M309.046,163.1a.21.21,0,0,0,.137-.051,1.734,1.734,0,0,0,.757-1.2c.02-.539-.383-.94-.811-1.365-.147-.145-.3-.3-.436-.458a.211.211,0,0,0-.31-.016.242.242,0,0,0-.015.328c.147.17.306.33.461.484.367.366.685.681.672,1.008a1.376,1.376,0,0,1-.592.858.24.24,0,0,0-.034.326.212.212,0,0,0,.171.087" transform="translate(-224.131 -128.955)" fill="#013d55"/>
              <path id="Path_896388" data-name="Path 896388" d="M323.856,142.651c.026.517-.674.493-1.533.541s-1.536.139-1.578-.368c-.051-.613,2.264-.61,2.6-.617a.711.711,0,0,1,.277.032.439.439,0,0,1,.232.412" transform="translate(-240.325 -114.652)" fill="#013d55"/>
              <path id="Path_896389" data-name="Path 896389" d="M296.134,144.151c-.037.527.507.559,1.174.677a3.023,3.023,0,0,0,.911.163.455.455,0,0,0,.15-.837,3.769,3.769,0,0,0-1.824-.416.418.418,0,0,0-.216.01c-.127.052-.182.233-.194.4" transform="translate(-210.544 -115.88)" fill="#013d55"/>
              <path id="Path_896390" data-name="Path 896390" d="M313.553,180.457a3.815,3.815,0,0,0,1-.153.2.2,0,0,0,.132-.236.184.184,0,0,0-.223-.139c-1.385.379-1.956.039-3.194-1.324a.177.177,0,0,0-.259-.006.2.2,0,0,0,0,.274c.934,1.028,1.565,1.584,2.549,1.584" transform="translate(-229.365 -143.951)" fill="#013d55"/>
              <g id="Group_1117587" data-name="Group 1117587" transform="translate(78.649 30.907)" opacity="0.5">
                <g id="Group_1117586" data-name="Group 1117586">
                  <g id="Group_1117585" data-name="Group 1117585" clip-path="url(#clip-path-7)">
                    <path id="Path_896391" data-name="Path 896391" d="M331.838,159.97a1.615,1.615,0,0,0,0,2.192,1.409,1.409,0,0,0,2.072,0,1.615,1.615,0,0,0,0-2.192,1.409,1.409,0,0,0-2.072,0" transform="translate(-331.409 -159.516)" fill="#ff6e73"/>
                  </g>
                </g>
              </g>
              <g id="Group_1117590" data-name="Group 1117590" transform="translate(86.662 32.655)" opacity="0.5">
                <g id="Group_1117589" data-name="Group 1117589">
                  <g id="Group_1117588" data-name="Group 1117588" clip-path="url(#clip-path-8)">
                    <path id="Path_896392" data-name="Path 896392" d="M295.258,171.178a1.474,1.474,0,0,0,.5.349,24.339,24.339,0,0,0,.689-2.976,1.369,1.369,0,0,0-1.187.442,1.608,1.608,0,0,0,0,2.186" transform="translate(-294.829 -168.539)" fill="#ff6e73"/>
                  </g>
                </g>
              </g>
              <path id="Path_896393" data-name="Path 896393" d="M294.066,105.372c-3.287,3.172-7.51,4-12.574,2.713l2.2-4.069,7.447.129Z" transform="translate(-203.346 -83.863)" fill="#013d55"/>
              <path id="Path_896394" data-name="Path 896394" d="M391.249,197.6a7.523,7.523,0,0,1-1.372.188,5.4,5.4,0,0,1-1.1-.072,3.809,3.809,0,0,1-.989-.3,1.582,1.582,0,0,1-.853-.9,1.482,1.482,0,0,0,.068,1.791,2.373,2.373,0,0,0,1.54.936,2.534,2.534,0,0,0,1.687-.3,2.116,2.116,0,0,0,1.023-1.345" transform="translate(-319.787 -158.44)" fill="#f5cc00"/>
            </g>
          </g>
        </g>
      </g>
      <g id="Group_1117610" data-name="Group 1117610" transform="translate(1081.711 8253.933)">
        <g id="Group_1117609" data-name="Group 1117609" clip-path="url(#clip-path-9)">
          <g id="Group_1117608" data-name="Group 1117608" transform="translate(0 0)">
            <g id="Group_1117607" data-name="Group 1117607" clip-path="url(#clip-path-9)">
              <path id="Path_896397" data-name="Path 896397" d="M797.981,502.168H798v-7.393h-.023l-25.076-26.439c-9.374-9.884-8.032-24.381,2.251-32.827A11.148,11.148,0,0,1,782.237,433l44.092.007a11.149,11.149,0,0,1,7.077,2.506c10.281,8.443,11.627,22.934,2.262,32.82l-25.051,26.441h-.07v7.393h.07l25.051,26.441c9.366,9.885,8.019,24.377-2.262,32.82a11.149,11.149,0,0,1-7.077,2.507l-44.092.007a11.149,11.149,0,0,1-7.081-2.507c-10.283-8.446-11.625-22.943-2.251-32.828Z" transform="translate(-757.606 -372.203)" fill="#d9e6ff"/>
              <path id="Path_896398" data-name="Path 896398" d="M836.666,581.37a2.651,2.651,0,0,1,2.675-1.521c18.385,1.575,28.872-15.916,40.349-14.593a8.689,8.689,0,0,1,7.08,11.666c-2.636,7.021-10.952,14.093-14,17.311l-10.636,11.195v18.793h-.016c.022.012.031.015.016,0v20.092a1.052,1.052,0,0,1-1.052,1.052h-1.1a1.052,1.052,0,0,1-1.052-1.052v-5.759a1.052,1.052,0,0,0-1.052-1.052,1.052,1.052,0,0,1-1.052-1.052V624.221l-.01-18.793L846.2,594.233c-3.755-3.96-11.047-9.33-9.531-12.864" transform="translate(-812.773 -485.827)" fill="#ffc811"/>
              <path id="Path_896399" data-name="Path 896399" d="M1018.179,1161.43h0a1.474,1.474,0,0,0,1.474-1.474v-3.932a1.474,1.474,0,1,0-2.949,0v3.932a1.474,1.474,0,0,0,1.474,1.474" transform="translate(-970.41 -992.438)" fill="#ffc811"/>
              <path id="Path_896400" data-name="Path 896400" d="M918.5,1281.652h20.079l9.595.231c-16.475-25.649-22.653-8.549-30.8-1.934Z" transform="translate(-884.978 -1090.145)" fill="#ffc811"/>
              <rect id="Rectangle_408109" data-name="Rectangle 408109" width="81.15" height="12.875" transform="translate(6.102 189.944)" fill="#1e2ad5"/>
              <rect id="Rectangle_408110" data-name="Rectangle 408110" width="81.15" height="6.418" transform="translate(6.102 196.4)" fill="#36295b"/>
              <path id="Path_896401" data-name="Path 896401" d="M705.85,1430.565h86.776a3.289,3.289,0,0,0,3.288-3.289v-.51a3.289,3.289,0,0,0-3.288-3.289H705.85a3.289,3.289,0,0,0-3.289,3.289v.51a3.289,3.289,0,0,0,3.289,3.289" transform="translate(-702.561 -1223.605)" fill="#1e2ad5"/>
              <rect id="Rectangle_408111" data-name="Rectangle 408111" width="48.863" height="0.842" transform="translate(108.364 123.958)" fill="#bfa564"/>
              <rect id="Rectangle_408112" data-name="Rectangle 408112" width="48.863" height="0.842" transform="translate(108.364 104.675)" fill="#bfa564"/>
              <rect id="Rectangle_408113" data-name="Rectangle 408113" width="48.863" height="0.842" transform="translate(108.364 143.616)" fill="#bfa564"/>
              <rect id="Rectangle_408114" data-name="Rectangle 408114" width="48.863" height="0.842" transform="translate(108.364 163.273)" fill="#bfa564"/>
              <rect id="Rectangle_408115" data-name="Rectangle 408115" width="48.863" height="0.842" transform="translate(108.364 182.931)" fill="#bfa564"/>
              <rect id="Rectangle_408116" data-name="Rectangle 408116" width="0.842" height="108.491" transform="translate(156.525 98.693)" fill="#bfa564"/>
              <rect id="Rectangle_408117" data-name="Rectangle 408117" width="0.842" height="108.491" transform="translate(108.223 98.693)" fill="#bfa564"/>
              <path id="Path_896402" data-name="Path 896402" d="M474.041,157.263c-13.386-.562-32.708,4.032-52.669,8.088l2.87,9.323,43.528-2.434Z" transform="translate(-341.207 -135.142)" fill="#f6ae5c"/>
              <path id="Path_896403" data-name="Path 896403" d="M447.141,791.449,449,804.569H432.034l7.723-6.344-1.292-6.928Z" transform="translate(-317.66 -680.19)" fill="#974245"/>
              <path id="Path_896404" data-name="Path 896404" d="M346.18,446l-10.8,11.09a9.452,9.452,0,0,0-2.174,9.643l9.647,28.3,15.628-.187-8.455-30.232,20.382-21.065Z" transform="translate(-225.129 -381.271)" fill="#050c68"/>
              <rect id="Rectangle_408118" data-name="Rectangle 408118" width="4.06" height="0.562" transform="translate(125.332 120.504) rotate(-146.623)" fill="#572628"/>
              <path id="Path_896405" data-name="Path 896405" d="M377.78,930.113l.552,12.965H361.368l7.724-6.344.827-7.172Z" transform="translate(-237.072 -799.041)" fill="#974245"/>
              <path id="Path_896406" data-name="Path 896406" d="M314.13,427.464a514.382,514.382,0,0,0-8.05,69.644H292.6l-2.949-36.226,6.318-38.332Z" transform="translate(-162.801 -363.219)" fill="#050c68"/>
              <rect id="Rectangle_408119" data-name="Rectangle 408119" width="4.934" height="0.561" transform="matrix(-0.782, -0.623, 0.623, -0.782, 135.702, 140.988)" fill="#572628"/>
              <path id="Path_896407" data-name="Path 896407" d="M433.765,573.256l.419-.042c-.028-.281-2.768-28.149-2.826-34.718-.058-6.554,4.223-25.68,4.266-25.873l.043-.192-4.4-1.32-.121.4,4.025,1.207c-.451,2.032-4.288,19.531-4.234,25.778.058,6.588,2.8,34.475,2.829,34.756" transform="translate(-304.175 -439.346)" fill="#013d55"/>
              <path id="Path_896408" data-name="Path 896408" d="M617.441,8.6c1.46-4.2,5.361-7.379,13.4-8.528,4.915-.7,12.047,4.013,15.192,14.067s.85,19.137-4.7,21.455c-7.156,2.989-11.811,2.807-15.045.843-3.74-1.63-7.424-6.306-9.344-12.446-1.891-6.047-1.566-11.9.492-15.391" transform="translate(-541.909 -0.004)" fill="#d9e6ff"/>
              <g id="Group_1117597" data-name="Group 1117597" transform="translate(73.788 5.338)" opacity="0.3">
                <g id="Group_1117596" data-name="Group 1117596" transform="translate(0)">
                  <g id="Group_1117595" data-name="Group 1117595" clip-path="url(#clip-path-11)">
                    <path id="Path_896409" data-name="Path 896409" d="M698.384,56.672c2.7,8.622,8.872,14.365,13.794,12.825s6.726-9.777,4.029-18.4-8.872-14.365-13.794-12.825-6.726,9.777-4.029,18.4" transform="translate(-697.132 -38.023)" fill="#afbefc"/>
                  </g>
                </g>
              </g>
              <path id="Path_896410" data-name="Path 896410" d="M698.136,181.019c-.8-1.043-1.436-2.247-.521-2.645l.018-.008a3.33,3.33,0,0,1,1.911-.068,7.264,7.264,0,0,0,1.918.238,5.264,5.264,0,0,0,2.7-1.34,9.009,9.009,0,0,1,2.569-1.675,2.675,2.675,0,0,1,2.8,1.11c.073,3.01-.155,8.591-4.334,8.592a8.367,8.367,0,0,1-5.583-2.564,15.635,15.635,0,0,1-1.479-1.642" transform="translate(-615.431 -150.798)" fill="#ffc811"/>
              <path id="Path_896411" data-name="Path 896411" d="M796.33,215.294c-.816.892-1.473,1.144-.75,2.282.748,1.177,1.39-.057,2.206-.95s1.152-1.914.75-2.282-1.39.058-2.206.95" transform="translate(-718.37 -184.135)" fill="#ffba9a"/>
              <path id="Path_896412" data-name="Path 896412" d="M806.008,203.453c-.657,1.015-1,1.5-.361,2.374.7.962,1.361-.287,2.018-1.3s.819-2.078.361-2.374-1.361.287-2.018,1.3" transform="translate(-729.36 -173.7)" fill="#ffba9a"/>
              <path id="Path_896413" data-name="Path 896413" d="M789.844,227.892c-.816.892-1.524,1.025-.672,2.353.7,1.1,1.468.014,2.284-.878s1.117-1.946.672-2.353-1.468-.014-2.284.878" transform="translate(-711.088 -195)" fill="#ffba9a"/>
              <path id="Path_896414" data-name="Path 896414" d="M783.622,242.406c-.861.61-1.3.979-2.056.4-.647-.5.2-1.2,1.061-1.807s1.781-.79,2.056-.4-.2,1.2-1.061,1.807" transform="translate(-702.47 -206.641)" fill="#ffba9a"/>
              <path id="Path_896415" data-name="Path 896415" d="M306.076,161.467l-16.424,6,4.317,36.052,30.279-.481-1.619-25.76Z" transform="translate(-172.918 -138.795)" fill="#f6ae5c"/>
              <path id="Path_896416" data-name="Path 896416" d="M333.176,166.911l-4.533-11.233c6.966-.187,16.7-1.685,16.889,20.594l-17.6,1.5s-25.485-9.558-27.521-10.484l-.375-10.835c9.84,3.305,33.137,10.461,33.137,10.461" transform="translate(-195.661 -133.743)" fill="#f6ae5c"/>
              <path id="Path_896417" data-name="Path 896417" d="M622.058,145.928a10.31,10.31,0,0,1,.211-2.668s-2.176-2.387.14-2.247a78.964,78.964,0,0,1,10.42,2.907l.373,10.622c-11.47-5.218-11-6.719-11.143-8.615" transform="translate(-528.445 -121.209)" fill="#ffba9a"/>
              <rect id="Rectangle_408121" data-name="Rectangle 408121" width="17.577" height="0.421" transform="translate(121.166 27.943) rotate(-163.365)" fill="#974245"/>
              <path id="Path_896418" data-name="Path 896418" d="M366.259,246.555a21.43,21.43,0,0,0,4.687-.521l6.094-1.365-.092-.411-6.094,1.365A20.884,20.884,0,0,1,358.4,244.6l-21.2-8.586-.158.391,21.2,8.586a21.315,21.315,0,0,0,8.013,1.567" transform="translate(-232.365 -202.873)" fill="#974245"/>
              <rect id="Rectangle_408122" data-name="Rectangle 408122" width="3.935" height="0.281" transform="matrix(-0.964, -0.268, 0.268, -0.964, 97.577, 23.24)" fill="#bf643a"/>
              <rect id="Rectangle_408123" data-name="Rectangle 408123" width="3.935" height="0.281" transform="matrix(-0.964, -0.268, 0.268, -0.964, 97.507, 24.854)" fill="#bf643a"/>
              <rect id="Rectangle_408124" data-name="Rectangle 408124" width="3.935" height="0.281" transform="matrix(-0.964, -0.268, 0.268, -0.964, 97.647, 26.68)" fill="#bf643a"/>
              <path id="Path_896419" data-name="Path 896419" d="M405.742,100.917v10.654a2.934,2.934,0,0,0,3.658,2.75,5.151,5.151,0,0,0,4.078-4.816l.247-8.587Z" transform="translate(-278.695 -86.748)" fill="#ffba9a"/>
              <g id="Group_1117600" data-name="Group 1117600" transform="translate(127.047 17.408)" opacity="0.5">
                <g id="Group_1117599" data-name="Group 1117599" transform="translate(0)">
                  <g id="Group_1117598" data-name="Group 1117598" clip-path="url(#clip-path-12)">
                    <path id="Path_896420" data-name="Path 896420" d="M425.179,123.985v5.886a9.22,9.22,0,0,0,5.254-5.191Z" transform="translate(-425.179 -123.984)" fill="#bf643a"/>
                  </g>
                </g>
              </g>
              <path id="Path_896421" data-name="Path 896421" d="M410.858,41.852a20.036,20.036,0,0,0,.332,2.405c.363,1.807.979,3.281,2.024,3.71,2.635,1.082,6.115-.459,7.475-2.272s1.74-10.8,1.74-10.8l-4.079-2.8L410.8,35.2a46.79,46.79,0,0,0,.06,6.653" transform="translate(-288.098 -27.592)" fill="#ffba9a"/>
              <path id="Path_896422" data-name="Path 896422" d="M403.911,32.888a7.226,7.226,0,0,1-2.795-5.288c-6.328,2.766-9.84,1.752-12.52-2.421a14.925,14.925,0,0,0,6.956-2.525c4.117-2.6,14.552-.266,10.322,10.007Z" transform="translate(-269.429 -18.634)" fill="#013d55"/>
              <path id="Path_896423" data-name="Path 896423" d="M389.917,77.195a2.256,2.256,0,1,0,3.276-1.014,2.44,2.44,0,0,0-3.276,1.014" transform="translate(-256.827 -65.226)" fill="#ffba9a"/>
              <path id="Path_896424" data-name="Path 896424" d="M458.345,92.044a.509.509,0,1,0,.5-.593.553.553,0,0,0-.5.593" transform="translate(-331.705 -78.611)" fill="#013d55"/>
              <path id="Path_896425" data-name="Path 896425" d="M481.414,92.694a.509.509,0,1,0,.5-.593.553.553,0,0,0-.5.593" transform="translate(-358.014 -79.169)" fill="#013d55"/>
              <path id="Path_896426" data-name="Path 896426" d="M475.132,100.655c-.17.117-.337.233-.5.361a1.811,1.811,0,0,0-.463.486.723.723,0,0,0,.02.744,1.466,1.466,0,0,0,.5.443l.085-.1a3.034,3.034,0,0,1-.323-.484.447.447,0,0,1,.013-.44,2.187,2.187,0,0,1,.362-.437,3.476,3.476,0,0,0,.409-.482Z" transform="translate(-349.792 -86.522)" fill="#013d55"/>
              <path id="Path_896427" data-name="Path 896427" d="M448.949,82.734c-.031.375.507.374,1.166.429s1.206-.048,1.221-.23c.037-.445-1.726-.5-1.986-.51a.575.575,0,0,0-.213.017.317.317,0,0,0-.187.294" transform="translate(-322.374 -70.849)" fill="#013d55"/>
              <path id="Path_896428" data-name="Path 896428" d="M482.568,83.327c.017.384-.4.394-.917.464s-.938-.024-.946-.211c-.02-.456,1.355-.544,1.558-.563a.339.339,0,0,1,.166.013c.1.041.135.173.14.3" transform="translate(-358.065 -71.357)" fill="#013d55"/>
              <path id="Path_896429" data-name="Path 896429" d="M457.471,121.1a2.191,2.191,0,0,1-.262-.534l3.171-.365a2.923,2.923,0,0,1-.282.595,5.909,5.909,0,0,1-2.626.3" transform="translate(-332.577 -103.328)" fill="#fff"/>
              <path id="Path_896430" data-name="Path 896430" d="M461.846,124.443c-.7,1.116-1.961,1.284-2.626.3a5.911,5.911,0,0,0,2.626-.3" transform="translate(-334.326 -106.97)" fill="#013d55"/>
              <g id="Group_1117603" data-name="Group 1117603" transform="translate(128.305 13.801)" opacity="0.6">
                <g id="Group_1117602" data-name="Group 1117602" transform="translate(0)">
                  <g id="Group_1117601" data-name="Group 1117601" clip-path="url(#clip-path-13)">
                    <path id="Path_896431" data-name="Path 896431" d="M433.545,99.7a1.41,1.41,0,1,0,1.41-1.41,1.41,1.41,0,0,0-1.41,1.41" transform="translate(-433.545 -98.292)" fill="#ff9498"/>
                  </g>
                </g>
              </g>
              <g id="Group_1117606" data-name="Group 1117606" transform="translate(122.76 14.26)" opacity="0.6">
                <g id="Group_1117605" data-name="Group 1117605" transform="translate(0)">
                  <g id="Group_1117604" data-name="Group 1117604" clip-path="url(#clip-path-14)">
                    <path id="Path_896432" data-name="Path 896432" d="M486.97,101.562a20.061,20.061,0,0,0,.332,2.405,1.387,1.387,0,0,0,.532-1.1,1.42,1.42,0,0,0-.864-1.305" transform="translate(-486.97 -101.562)" fill="#ff9498"/>
                  </g>
                </g>
              </g>
              <path id="Path_896433" data-name="Path 896433" d="M400.77,88.163a3.851,3.851,0,0,1,.5-.923,2.071,2.071,0,0,1,.828-.586l-.025-.129a1.327,1.327,0,0,0-1.063.506,1.838,1.838,0,0,0-.374,1.106Z" transform="translate(-266.357 -74.374)" fill="#013d55"/>
            </g>
          </g>
        </g>
      </g>
      <g id="Group_1117620" data-name="Group 1117620" transform="translate(547.57 8340.664) rotate(-90)">
        <g id="Group_1117619" data-name="Group 1117619" clip-path="url(#clip-path-15)">
          <g id="Group_1117618" data-name="Group 1117618">
            <g id="Group_1117617" data-name="Group 1117617" clip-path="url(#clip-path-15)">
              <g id="Group_1117613" data-name="Group 1117613" transform="translate(11.514 77.174)" opacity="0.3">
                <g id="Group_1117612" data-name="Group 1117612">
                  <g id="Group_1117611" data-name="Group 1117611" clip-path="url(#clip-path-17)">
                    <path id="Path_896434" data-name="Path 896434" d="M121.236,318.639a37.223,37.223,0,0,0,2.606-10.387l11.094-1.566-2.384-16.87-10.938,1.546a37.166,37.166,0,0,0-13.151-17.1l4.152-10.113-15.762-6.471L92.7,267.787a37.169,37.169,0,0,0-21.376,2.929l-6.7-8.786L51.079,272.26l6.793,8.91a37.343,37.343,0,0,0-8.109,20.269l-11.319,1.6,2.384,16.87,11.459-1.616A37.155,37.155,0,0,0,64.58,334.324l-4.221,10.281,17.14,7.037,4.221-10.281a37.15,37.15,0,0,0,20.013-2.772l7.018,9.2,13.55-10.328-6.931-9.091a37.119,37.119,0,0,0,5.867-9.733m-42.355,5.244a20.937,20.937,0,1,1,27.32-11.417,20.937,20.937,0,0,1-27.32,11.417" transform="translate(-38.444 -257.675)" fill="#bfa564"/>
                  </g>
                </g>
              </g>
              <g id="Group_1117616" data-name="Group 1117616" opacity="0.3">
                <g id="Group_1117615" data-name="Group 1117615">
                  <g id="Group_1117614" data-name="Group 1117614" clip-path="url(#clip-path-18)">
                    <path id="Path_896435" data-name="Path 896435" d="M44.948,36.408a20.992,20.992,0,0,0,2.331-5.572l6.32.064.1-9.609-6.23-.062a20.962,20.962,0,0,0-5.889-10.65l3.17-5.289L36.5.35l-3.17,5.289a20.961,20.961,0,0,0-12.168-.173L18.172,0,9.742,4.615l3.035,5.543A21.066,21.066,0,0,0,6.543,20.776L.1,20.711,0,30.32l6.527.067a20.955,20.955,0,0,0,5.5,9.981L8.8,45.744l8.964,5.372,3.223-5.376a20.957,20.957,0,0,0,11.395.146l3.136,5.725L43.951,47l-3.1-5.655a20.925,20.925,0,0,0,4.094-4.932m-24.064-.655a11.809,11.809,0,1,1,16.2-4.058,11.809,11.809,0,0,1-16.2,4.058" transform="translate(0.001)" fill="#bfa564"/>
                  </g>
                </g>
              </g>
            </g>
          </g>
        </g>
      </g>
      <g id="Group_1117627" data-name="Group 1117627" transform="translate(-44.486 -6.753)">
        <g id="Group_1117622" data-name="Group 1117622" transform="translate(881.598 8483.667)">
          <g id="Group_1117623" data-name="Group 1117623" transform="translate(0 0)">
            <path id="Path_896436" data-name="Path 896436" d="M205.325,13.514H119.741a1.476,1.476,0,1,1,0-2.951h85.584a1.476,1.476,0,0,1,0,2.951" transform="translate(-118.265 -10.563)" fill="#ece4ce"/>
            <path id="Path_896437" data-name="Path 896437" d="M221.582,45.515H181.741a1.476,1.476,0,1,1,0-2.951h39.841a1.476,1.476,0,0,1,0,2.951" transform="translate(-134.522 -18.954)" fill="#ece4ce"/>
            <path id="Path_896438" data-name="Path 896438" d="M148.515,45.515H119.741a1.476,1.476,0,1,1,0-2.951h28.774a1.476,1.476,0,1,1,0,2.951" transform="translate(-118.265 -18.954)" fill="#ece4ce"/>
            <path id="Path_896439" data-name="Path 896439" d="M205.325,77.515H119.741a1.476,1.476,0,1,1,0-2.951h85.584a1.476,1.476,0,0,1,0,2.951" transform="translate(-118.265 -27.344)" fill="#ece4ce"/>
          </g>
        </g>
        <g id="Group_1117624" data-name="Group 1117624" transform="translate(854.486 8476.359)">
          <path id="Path_896442" data-name="Path 896442" d="M0,8.808A8.808,8.808,0,1,0,8.807,0,8.808,8.808,0,0,0,0,8.808" transform="translate(0 0)" fill="#ece4ce"/>
          <path id="Path_896443" data-name="Path 896443" d="M29.021,30.525a.553.553,0,0,1-.972.025l-2.709-4.7a.689.689,0,1,1,1.194-.689l1.95,3.379,3.539-6.931a.716.716,0,0,1,.912-.351.69.69,0,0,1,.334.944Z" transform="translate(-20.488 -17.21)" fill="#fff"/>
        </g>
        <g id="Group_1117625" data-name="Group 1117625" transform="translate(854.486 8499.945)">
          <path id="Path_896442-2" data-name="Path 896442" d="M0,8.808A8.808,8.808,0,1,0,8.807,0,8.808,8.808,0,0,0,0,8.808" transform="translate(0 0)" fill="#ece4ce"/>
          <path id="Path_896443-2" data-name="Path 896443" d="M29.021,30.525a.553.553,0,0,1-.972.025l-2.709-4.7a.689.689,0,1,1,1.194-.689l1.95,3.379,3.539-6.931a.716.716,0,0,1,.912-.351.69.69,0,0,1,.334.944Z" transform="translate(-20.488 -17.21)" fill="#fff"/>
        </g>
        <g id="Group_1117626" data-name="Group 1117626" transform="translate(854.486 8523.53)">
          <path id="Path_896442-3" data-name="Path 896442" d="M0,8.808A8.808,8.808,0,1,0,8.807,0,8.808,8.808,0,0,0,0,8.808" transform="translate(0 0)" fill="#ece4ce"/>
          <path id="Path_896443-3" data-name="Path 896443" d="M29.021,30.525a.553.553,0,0,1-.972.025l-2.709-4.7a.689.689,0,1,1,1.194-.689l1.95,3.379,3.539-6.931a.716.716,0,0,1,.912-.351.69.69,0,0,1,.334.944Z" transform="translate(-20.488 -17.21)" fill="#fff"/>
        </g>
      </g>
    </g>
  </g>
</svg>
