<svg xmlns="http://www.w3.org/2000/svg" xmlns:xlink="http://www.w3.org/1999/xlink" width="178" height="178" viewBox="0 0 178 178">
  <defs>
    <clipPath id="clip-path">
      <rect id="Rectangle_408027" data-name="Rectangle 408027" width="97.086" height="101.539" fill="none"/>
    </clipPath>
  </defs>
  <g id="Group_1117932" data-name="Group 1117932" transform="translate(-4354.074 7578.916)">
    <g id="Group_1117497" data-name="Group 1117497" transform="translate(4354.074 -7578.915)">
      <path id="Path_882862" data-name="Path 882862" d="M89,0A89.047,89.047,0,1,1,0,89,89,89,0,0,1,89,0Z" transform="translate(0 -0.001)" fill="#f6ae5c"/>
      <path id="Path_882863" data-name="Path 882863" d="M78.668,0A78.668,78.668,0,1,1,0,78.668,78.668,78.668,0,0,1,78.668,0Z" transform="translate(10.332 10.331)" fill="#f3f9ff"/>
    </g>
    <g id="Group_1117498" data-name="Group 1117498" transform="translate(4393.074 -7539.915)">
      <rect id="Rectangle_401104" data-name="Rectangle 401104" width="99.117" height="100.574" transform="translate(-1.074 -2.085)" fill="none"/>
      <g id="Group_1117516" data-name="Group 1117516" transform="translate(-0.074 -2.085)">
        <g id="Group_1117515" data-name="Group 1117515" clip-path="url(#clip-path)">
          <path id="Path_896098" data-name="Path 896098" d="M173.48,0c1.4,1,1.988,2.749,2.379,4.362a33.113,33.113,0,0,1,.793,4.957,43.147,43.147,0,0,1-.595,10.113c-1.965.049-3.984.051-5.949,0a44.256,44.256,0,0,1-.595-10.113,32.893,32.893,0,0,1,.793-4.957C170.7,2.749,171.286,1,172.687,0Z" transform="translate(-124.549)" fill="#f6ae5c"/>
          <path id="Path_896099" data-name="Path 896099" d="M152.8,211.728c.022.014.018.345.207.479,2.567,1.811,4.9,4.454,5.544,7.651.274,1.361.048,2.9.394,4.265l1.192,21.711a47.768,47.768,0,0,1-48.78,6.345l.2-13.285c.543-.137.365.346.711.568,4.725,3.026,13.719,2.5,17.642-1.755.217-.236.317-.875.678-.6a1.435,1.435,0,0,0,.2.49c3.375,3.712,8.361,4.264,13.133,3.417,1.635-.291,7.017-1.543,4.829-4.118-1.13-1.329-3.061.007-4.432.351-4,1-10.217.9-11.8-3.753-.634-1.867-.23-3.958-.341-5.906,1.776-1.306,2.539-4.856,2.578-6.94a32.657,32.657,0,0,0,1.79,2.87c3.523,4.451,8.188,3.906,7.505-2.548a13.089,13.089,0,0,0-.967-3.3c8.121,5.866,11.351-1.2,5.156-7.337a17.21,17.21,0,0,1,3.924,1.34c.2.088.572.008.637.047M129.939,242.3a1.964,1.964,0,0,0-1.322,1.46,48.1,48.1,0,0,0-.016,7.33,1.792,1.792,0,0,0,3.562.183,48.136,48.136,0,0,0,.016-7.33,1.823,1.823,0,0,0-2.24-1.642" transform="translate(-81.856 -154.62)" fill="#cb8657"/>
          <path id="Path_896100" data-name="Path 896100" d="M82.83,210.339c-1.8,1.783-3.5,4.624-3.177,7.243.238,1.939,2.277,2.517,3.97,2.276a25.844,25.844,0,0,0-1.134,2.535,16.577,16.577,0,0,0-.651,3.315v11.6c.578.088.413-.489.913-.771,1.184-.669,3.137.549,4.472.839,4.489.974,11.1.389,11.666-5.324a29.9,29.9,0,0,0,0-4.46,3.069,3.069,0,0,0,3.569,0c.111,1.947-.293,4.039.341,5.906,1.58,4.654,7.8,4.759,11.8,3.754,1.37-.344,3.3-1.681,4.431-.352,2.188,2.574-3.194,3.827-4.829,4.118-4.772.847-9.758.3-13.133-3.417a1.436,1.436,0,0,1-.2-.49c-.361-.278-.461.362-.678.6-3.923,4.257-12.917,4.781-17.643,1.755-.347-.222-.168-.706-.711-.568l-.2,13.285a43.272,43.272,0,0,1-10.708-6.346c.173-1.481.105-2.986.191-4.469a2.56,2.56,0,0,1,.206-.588v-3.371c0-1.471.3-3.474.4-5.056.215-3.485.191-7.39.6-10.8a16.714,16.714,0,0,1,1.385-4.861c1.039-1.1,1.945-2.766,3.173-3.767a15.484,15.484,0,0,1,5.949-2.578" transform="translate(-52.142 -154.619)" fill="#bb784a"/>
          <path id="Path_896101" data-name="Path 896101" d="M247.718,35.832a16.588,16.588,0,0,1-3.665.2c-2.9-.222-6.554-2.38-8.044,1.481-.952,2.467-1.309,5.687-2.172,8.239-1.7-.195-3.7-.694-5.266-.8a1.707,1.707,0,0,0-1.079.2c-.016-.035-.442-.321-.6-.493a1.357,1.357,0,0,1-.192-.5,9.978,9.978,0,0,0,.2-2.974c.188-.052.308,0,.493-.193.839-.876-.212-4.758.112-6.064a1.111,1.111,0,0,0-1.2-1.08c1.035-1.737,4.115-7.59,2.329-9.268-1.694-1.592-5.517,2.495-6.493,3.716a19.873,19.873,0,0,0,.2-7.337,48.171,48.171,0,0,1,25.1,14.272,1.886,1.886,0,0,1,.283.6" transform="translate(-163.292 -15.408)" fill="#ffe9a2"/>
          <path id="Path_896102" data-name="Path 896102" d="M73.109,20.959a23.3,23.3,0,0,0,0,6.94c-1.049-1-4.944-5.143-6.434-3.162s1.44,7.242,2.468,9.111a1.111,1.111,0,0,0-1.2,1.08c.342,1.3-.715,5.2.112,6.064.184.192.3.14.493.193a9.969,9.969,0,0,0,.2,2.974,1.355,1.355,0,0,1-.192.5c-.159.172-.585.458-.6.493a1.705,1.705,0,0,0-1.079-.2c-1.563.1-3.568.6-5.266.8-.214-1-.528-1.986-.793-2.974-.334-1.249-.617-2.53-.992-3.767-.45-1.487-.708-3.249-2.564-3.682-1.84-.429-4.953.7-7.152.708a14.794,14.794,0,0,1-2.38-.2,1.909,1.909,0,0,1,.283-.6,48.35,48.35,0,0,1,25.1-14.272" transform="translate(-35.085 -15.407)" fill="#ffe9a2"/>
          <path id="Path_896103" data-name="Path 896103" d="M6.475,217.641a30.771,30.771,0,0,1,1.978,2.484c.714.757,3.976,4.07,4.715,4.224.425.089,1.805-.972,2.925-.971,1.081,0,2.571,1.033,2.929.981a24.9,24.9,0,0,0,3.516-2.751,16.7,16.7,0,0,0-1.385,4.861c-.407,3.414-.383,7.318-.6,10.8a9.006,9.006,0,0,1-2.982-4.256c-.17-.5-.317-2.012-.39-2.088s-1.528.049-1.851-.01c-.866,3.346-2.791,7.4-6.675,7.742a39.593,39.593,0,0,1-2.38-4.164,11.947,11.947,0,0,1,2.186-5.052c.211-.27,1.379-1.294,1.38-1.392,0-.433-1.35-.256-1.68-.3-1.692-.221-3.359-.632-5.058-.792a45.247,45.247,0,0,1-1.785-9.121c1.706-.48,3.492-1.43,5.156-.2" transform="translate(-0.97 -159.541)" fill="#a40f1e"/>
          <path id="Path_896104" data-name="Path 896104" d="M296.446,229.8a2.067,2.067,0,0,0,.188,1.3,30.737,30.737,0,0,0,2.586,2.57c.246.223.4.5.8.492a7.574,7.574,0,0,0-3.472,4.361c-.518,2.042-.532,8.386-.275,10.589a6.951,6.951,0,0,0,2.16,4.086,43.854,43.854,0,0,1-7.337,6.94L289.9,238.429c-.346-1.362-.12-2.9-.394-4.265.392,0,.55-.269.8-.492a30.741,30.741,0,0,0,2.585-2.57,2.067,2.067,0,0,0,.188-1.3,8.05,8.05,0,0,0,3.371,0" transform="translate(-212.814 -168.925)" fill="#8ce0f7"/>
          <path id="Path_896105" data-name="Path 896105" d="M280.182,75.421a45.75,45.75,0,0,1,7.138,10.113,120.01,120.01,0,0,1-15.178.4c-1.9-.078-3.968-.388-5.841-.6.863-2.552,1.22-5.772,2.172-8.239,1.49-3.86,5.147-1.7,8.044-1.481a16.588,16.588,0,0,0,3.665-.2" transform="translate(-195.756 -54.996)" fill="#634419"/>
          <path id="Path_896106" data-name="Path 896106" d="M327.649,223.659a46.436,46.436,0,0,1-10.906,24.588,6.952,6.952,0,0,1-2.16-4.086c-.257-2.2-.244-8.547.275-10.589a7.574,7.574,0,0,1,3.472-4.361c.089-.048.532.034.794-.089a52.533,52.533,0,0,0,5.457-5.261,2.3,2.3,0,0,0,.491-.8Z" transform="translate(-231.128 -163.973)" fill="#baeef7"/>
          <path id="Path_896107" data-name="Path 896107" d="M29.015,277.142c3.884-.341,5.809-4.4,6.675-7.742.323.059,1.778-.065,1.851.01s.22,1.587.39,2.088a9.007,9.007,0,0,0,2.982,4.256c-.1,1.583-.4,3.586-.4,5.057v3.371a2.583,2.583,0,0,0-.206.588c-.086,1.483-.018,2.988-.191,4.469a45.3,45.3,0,0,1-11.1-12.1" transform="translate(-21.329 -198.023)" fill="#e7f6f9"/>
          <path id="Path_896108" data-name="Path 896108" d="M4.91,152.945c.2,2.75.683,6.914,2.215,9.187.458.679,2.068,2.152,2.148,2.711a4.362,4.362,0,0,1-.307,1.776,15.738,15.738,0,0,1-1.081,2.19A7.6,7.6,0,0,1,5.5,169.8c-1.664-1.232-3.45-.282-5.156.2a44.675,44.675,0,0,1,1.388-18.045,3.24,3.24,0,0,0,3.173.992" transform="translate(0 -111.7)" fill="#ffe9a2"/>
          <path id="Path_896109" data-name="Path 896109" d="M339.953,171.386l-2.578-.595a1.639,1.639,0,0,0-.306-1.181,39.965,39.965,0,0,0-2.87-2.88c-.978-.45-1.724.313-2.376.888-.1-.871-.906-2.325-.6-3.173.052-.141,1.7-1.674,2.064-2.2,1.567-2.275,2.1-6.529,2.3-9.3a3.24,3.24,0,0,0,3.173-.992,44.071,44.071,0,0,1,1.19,19.433" transform="translate(-243.432 -111.7)" fill="#ffe9a2"/>
          <path id="Path_896110" data-name="Path 896110" d="M147.176,14.362a23.98,23.98,0,0,1,1.422,2.246c.431.746.709,1.579,1.156,2.314a44.256,44.256,0,0,0,.595,10.113c-1.781-.046-3.612-.282-5.354-.4a33.326,33.326,0,0,1-2.181-6.544,23.305,23.305,0,0,1,0-6.94c.669-2.615,2.734-2.658,4.362-.793" transform="translate(-104.788 -9.603)" fill="#1e2ad5"/>
          <path id="Path_896111" data-name="Path 896111" d="M201.977,15.108a19.867,19.867,0,0,1-.2,7.337,39.459,39.459,0,0,1-1.983,6.147c-.024.069-.178.137-.2.2a46.746,46.746,0,0,0-5.156.2,43.148,43.148,0,0,0,.595-10.113c.8-1.366,1.526-3.393,2.578-4.561,1.676-1.86,3.679-1.878,4.362.793" transform="translate(-142.933 -9.556)" fill="#1e2ad5"/>
          <path id="Path_896112" data-name="Path 896112" d="M44.293,111.693a5.721,5.721,0,0,0,0,2.776c-1.578.295-3.167.577-4.759.793-.957.13-2.694.546-3.371.595-3.535.254-7.488.246-11.1.2-.945-.012-2.114-.2-2.875-.2H18.614c-.161,0-1.17-.157-1.487-.2a3.739,3.739,0,0,0-1.586-.2c.485-1.1.8-1.86,1.388-2.974a84.458,84.458,0,0,0,11.3.4,92.369,92.369,0,0,0,9.716-.595c1.7-.195,3.7-.694,5.266-.8a1.707,1.707,0,0,1,1.079.2" transform="translate(-11.424 -81.949)" fill="#6d5a80"/>
          <path id="Path_896113" data-name="Path 896113" d="M248.694,112.288c1.874.215,3.938.526,5.841.6a120.068,120.068,0,0,0,15.178-.4c.581,1.115.905,1.854,1.388,2.974-.536.027-1.051.145-1.587.2a99.856,99.856,0,0,1-10.906.4c-1.011-.012-2.239-.2-3.073-.2h-3.371c-.209,0-1.078-.162-1.487-.2-1.181-.106-2.393-.243-3.569-.4-1.593-.207-3.181-.5-4.759-.793a5.728,5.728,0,0,0,0-2.776,1.7,1.7,0,0,1,1.079-.2c1.563.1,3.568.6,5.266.8" transform="translate(-178.149 -81.949)" fill="#6d5a80"/>
          <path id="Path_896114" data-name="Path 896114" d="M44.968,89.076c.374,1.237.657,2.518.992,3.767l-6.248.593q-2.329.007-4.658,0c-2.52,0-5.02-.1-7.535-.2.162-1.539,1.558-2.665,2.379-3.768h4.561a93.865,93.865,0,0,0,10.51-.4" transform="translate(-20.228 -65.479)" fill="#6d5a80"/>
          <path id="Path_896115" data-name="Path 896115" d="M22.566,104.743c2.515.094,5.015.195,7.535.2.02,1.359,1.3,1.991,1.983,2.974a84.551,84.551,0,0,1-11.3-.4,17.037,17.037,0,0,1,1.375-2.648.344.344,0,0,1,.41-.128" transform="translate(-15.276 -76.982)" fill="#8ce0f7"/>
          <path id="Path_896116" data-name="Path 896116" d="M11.228,262.038A48.373,48.373,0,0,1,8.055,254.5c1.7.16,3.366.57,5.058.792.33.043,1.684-.134,1.68.3,0,.1-1.169,1.122-1.38,1.392a11.944,11.944,0,0,0-2.185,5.052" transform="translate(-5.921 -187.084)" fill="#e7f6f9"/>
          <path id="Path_896117" data-name="Path 896117" d="M9.731,136.234a25.079,25.079,0,0,0,0,5.156,3.24,3.24,0,0,1-3.173-.992c.391-1.469.67-2.518,1.19-3.966Z" transform="translate(-4.821 -100.145)" fill="#cb8657"/>
          <path id="Path_896118" data-name="Path 896118" d="M349.875,136.388c.495,1.382.815,2.576,1.189,3.966a3.24,3.24,0,0,1-3.173.991,26.984,26.984,0,0,0,0-5.156,4.315,4.315,0,0,1,1.983.2" transform="translate(-255.733 -100.101)" fill="#eca270"/>
          <path id="Path_896119" data-name="Path 896119" d="M41.854,77.3l-.793,3.371H36.5A41.607,41.607,0,0,1,39.475,77.1a14.79,14.79,0,0,0,2.379.2" transform="translate(-26.831 -56.675)" fill="#8ce0f7"/>
          <path id="Path_896120" data-name="Path 896120" d="M163.38,16.468a32.866,32.866,0,0,0-.793,4.957c-.447-.735-.725-1.568-1.156-2.314a24.018,24.018,0,0,0-1.422-2.246Z" transform="translate(-117.622 -12.106)" fill="#fdef56"/>
          <path id="Path_896121" data-name="Path 896121" d="M197.064,16.865c-1.052,1.168-1.782,3.2-2.578,4.561a33.114,33.114,0,0,0-.793-4.957Z" transform="translate(-142.382 -12.106)" fill="#fdef56"/>
          <path id="Path_896122" data-name="Path 896122" d="M13.826,126.575c-.081.763-.662,1.693-.793,2.379l-1.983.2c.4-1.111.747-1.769,1.19-2.776a3.744,3.744,0,0,1,1.586.2" transform="translate(-8.123 -92.865)" fill="#553269"/>
          <path id="Path_896123" data-name="Path 896123" d="M346.484,126.5c.4.939.829,1.768,1.19,2.776a4.307,4.307,0,0,0-1.983-.2c-.134-.777-.594-1.61-.793-2.379.535-.054,1.05-.172,1.586-.2" transform="translate(-253.532 -92.992)" fill="#bb784a"/>
          <path id="Path_896124" data-name="Path 896124" d="M124.652,69.612c1.231.042,2.939.494,4.264.593.625.047,1.261-.039,1.883,0,1.742.115,3.573.35,5.354.4,1.965.051,3.984.049,5.949,0a46.747,46.747,0,0,1,5.156-.2c-.491,1.486-.744,3.713.2,5.058l2.183,2.08a127.04,127.04,0,0,1-12.889.4c-.692-.015-1.616-.2-2.082-.2H130.9c-.641,0-2.141-.127-2.875-.2a36.161,36.161,0,0,1-3.966-.595c-.188-.052-.308,0-.493-.193-.827-.864.23-4.762-.112-6.064a1.111,1.111,0,0,1,1.2-1.08" transform="translate(-90.593 -51.171)" fill="#baeef7"/>
          <path id="Path_896125" data-name="Path 896125" d="M222.128,123.553a7.1,7.1,0,0,0,0,3.371c-2.281,1.876-.081,5.427,2.777,4.56.11,1.327.228,2.7.454,4.009.445,2.588.68,3.9,2.328,6,.332.424,1.445,1.273,1.549,1.637a4.71,4.71,0,0,1-.761,2.831c-2.068-1.753-2.932-.171-4.362,1.388-.064-.04-.435.041-.637-.048a17.2,17.2,0,0,0-3.924-1.34,18.987,18.987,0,0,0-2.578-1.983,2.2,2.2,0,0,0-3.122-2.031,15.86,15.86,0,0,0-1.835,1.634c-1.958-.822-4.086-3.771-3.569-5.949.052-.22,1.9-2.086,2.263-2.6,1.907-2.689,2.428-7.4,2.695-10.69,1.138,0,2.137.183,3.077-.591.11-.09.862-.934.889-1,1.578.289,3.167.586,4.759.793" transform="translate(-153.169 -90.24)" fill="#ffe9a2"/>
          <path id="Path_896126" data-name="Path 896126" d="M206.909,228.13a13.09,13.09,0,0,1,.967,3.3c.683,6.454-3.983,7-7.506,2.548a32.678,32.678,0,0,1-1.79-2.87,12.489,12.489,0,0,0-.4-3.569,20.759,20.759,0,0,0,6.544-2.974,18.158,18.158,0,0,1,2.181,3.569" transform="translate(-145.684 -165.073)" fill="#ffc811"/>
          <path id="Path_896127" data-name="Path 896127" d="M175.065,235.79a12.488,12.488,0,0,1,.4,3.569c-.039,2.084-.8,5.634-2.578,6.94a3.07,3.07,0,0,1-3.569,0c-.068-.295-.727-.767-.957-1.125a10.78,10.78,0,0,1-1.62-5.815,12.506,12.506,0,0,1,.4-3.569c.357.08,1.88.4,2.082.4h3.767c.2,0,1.725-.317,2.082-.4" transform="translate(-122.565 -173.328)" fill="#a40f1e"/>
          <path id="Path_896128" data-name="Path 896128" d="M230.223,204.837c6.2,6.139,2.965,13.2-5.156,7.337a18.159,18.159,0,0,0-2.181-3.569c.874-.651,4.389-4.09,4.669-4.957a2.317,2.317,0,0,0,.09-.794,18.986,18.986,0,0,1,2.578,1.983" transform="translate(-163.842 -149.117)" fill="#afbefc"/>
          <path id="Path_896129" data-name="Path 896129" d="M272.16,208.205c1.666,1.413,3.318,3.631,4.957,5.156a2.064,2.064,0,0,1-.187,1.3,30.736,30.736,0,0,1-2.586,2.57c-.246.223-.4.5-.8.492-.644-3.2-2.977-5.84-5.544-7.651-.189-.134-.184-.465-.207-.479,1.431-1.559,2.294-3.142,4.362-1.388" transform="translate(-196.857 -152.485)" fill="#e7f6f9"/>
          <path id="Path_896130" data-name="Path 896130" d="M177.431,330.866a1.823,1.823,0,0,1,2.24,1.642,48.137,48.137,0,0,1-.016,7.33,1.792,1.792,0,0,1-3.562-.182,48.1,48.1,0,0,1,.016-7.33,1.964,1.964,0,0,1,1.322-1.46" transform="translate(-129.348 -243.182)" fill="#bb784a"/>
          <path id="Path_896131" data-name="Path 896131" d="M91.064,122.76c.028.061.78.9.889,1,.94.774,1.938.594,3.077.591.279,3.3.777,7.985,2.695,10.69.495.7,2.169,2.215,2.263,2.794.365,2.262-1.6,4.85-3.569,5.75a15.913,15.913,0,0,0-1.835-1.634,2.211,2.211,0,0,0-3.122,2.229,7.279,7.279,0,0,0-2.578,1.785,15.484,15.484,0,0,0-5.949,2.578,24.249,24.249,0,0,1-2.181-1.19,6.966,6.966,0,0,1-1.586-4.164v-.2a11.8,11.8,0,0,0,2.179-2.283c1.631-2.349,1.956-6.367,2.184-9.218,2.863.861,5.055-2.686,2.776-4.561a6.414,6.414,0,0,0,0-3.371c1.592-.215,3.181-.5,4.759-.793" transform="translate(-58.195 -90.24)" fill="#ffe9a2"/>
          <path id="Path_896132" data-name="Path 896132" d="M126.578,241.009a10.778,10.778,0,0,0,1.62,5.816c.23.358.889.83.957,1.125a29.931,29.931,0,0,1,0,4.46c-.564,5.713-7.177,6.3-11.666,5.324-1.335-.29-3.288-1.509-4.472-.839-.5.283-.335.859-.913.771v-11.6a16.6,16.6,0,0,1,.651-3.315,25.848,25.848,0,0,1,1.134-2.535c1.418-.2,3.106-1.514,4.362-2.181-1.173,2.758-2.2,9.5,2.631,8.677,2.5-.427,4.566-3.653,5.7-5.7" transform="translate(-82.406 -174.978)" fill="#cb8657"/>
          <path id="Path_896133" data-name="Path 896133" d="M109.5,203.6a2.177,2.177,0,0,0,.09.6c.287.873,3.79,4.3,4.669,4.956a18.26,18.26,0,0,0-2.181,3.569c-1.256.668-2.944,1.979-4.362,2.182-1.693.241-3.732-.337-3.97-2.276-.321-2.619,1.378-5.46,3.177-7.243A7.279,7.279,0,0,1,109.5,203.6" transform="translate(-76.232 -149.667)" fill="#afbefc"/>
          <path id="Path_896134" data-name="Path 896134" d="M23.161,215.579c3.593,5.3,10.952,5.049,14.673,0a24.242,24.242,0,0,0,2.181,1.19c-1.227,1-2.134,2.672-3.173,3.767a24.887,24.887,0,0,1-3.516,2.752c-.357.052-1.847-.981-2.929-.981-1.12,0-2.5,1.06-2.925.971-.738-.154-4-3.467-4.714-4.224a30.818,30.818,0,0,0-1.978-2.484,7.6,7.6,0,0,0,2.38-.992" transform="translate(-15.276 -158.471)" fill="#e7f6f9"/>
          <path id="Path_896135" data-name="Path 896135" d="M216.636,37.337c.975-1.221,4.8-5.307,6.493-3.716,1.786,1.678-1.294,7.531-2.329,9.268-1.233.042-2.938.5-4.264.593-.625.045-1.259-.024-1.883,0a39.514,39.514,0,0,0,1.983-6.147" transform="translate(-157.79 -24.448)" fill="#685700"/>
          <path id="Path_896136" data-name="Path 896136" d="M219.627,76.949a36.278,36.278,0,0,1-3.966.595c-.195.019-.4-.016-.595,0l-2.183-2.081c-.941-1.345-.688-3.573-.2-5.058.02-.061.174-.13.2-.2.624-.026,1.258.043,1.883,0,1.327-.1,3.032-.551,4.264-.593a1.111,1.111,0,0,1,1.2,1.08c-.324,1.306.727,5.188-.112,6.064-.185.193-.3.14-.493.193" transform="translate(-156.022 -51.171)" fill="#e7f6f9"/>
          <path id="Path_896137" data-name="Path 896137" d="M230.55,106.863a1.356,1.356,0,0,0,.192.5c.159.172.585.458.6.493a5.719,5.719,0,0,1,0,2.776c-.027.061-.78.9-.889,1-.94.774-1.938.594-3.077.591a26.732,26.732,0,0,0,0-5.949,7.769,7.769,0,0,1,1.436.051,18.075,18.075,0,0,1,1.737.544" transform="translate(-167.143 -78.111)" fill="#cb8657"/>
          <path id="Path_896138" data-name="Path 896138" d="M229.1,97.31a9.969,9.969,0,0,1-.2,2.974,18.07,18.07,0,0,0-1.737-.544,7.769,7.769,0,0,0-1.436-.051,13.621,13.621,0,0,1-.595-1.784,36.275,36.275,0,0,0,3.966-.595" transform="translate(-165.493 -71.532)" fill="#553269"/>
          <path id="Path_896139" data-name="Path 896139" d="M124.546,36.915a33.308,33.308,0,0,0,2.181,6.544c-.622-.041-1.258.045-1.883,0-1.326-.1-3.033-.551-4.264-.593-1.028-1.869-3.95-7.139-2.468-9.111s5.385,2.166,6.434,3.162" transform="translate(-86.521 -24.422)" fill="#685700"/>
          <path id="Path_896140" data-name="Path 896140" d="M64.226,78.587a93.865,93.865,0,0,1-10.51.4l.793-3.371c2.2-.012,5.312-1.137,7.152-.708,1.856.433,2.114,2.2,2.564,3.682" transform="translate(-39.486 -54.99)" fill="#e7f6f9"/>
          <path id="Path_896141" data-name="Path 896141" d="M66.868,103.3c.265.989.58,1.971.793,2.974a92.294,92.294,0,0,1-9.716.595c-.679-.983-1.963-1.615-1.983-2.974,1.55,0,3.106,0,4.658,0Z" transform="translate(-41.137 -75.934)" fill="#e7f6f9"/>
          <path id="Path_896142" data-name="Path 896142" d="M127.571,106.268a24.894,24.894,0,0,0,0,5.949c-1.138,0-2.137.183-3.077-.591-.11-.09-.862-.934-.889-1a5.727,5.727,0,0,1,0-2.776c.017-.035.442-.321.6-.493a1.36,1.36,0,0,0,.192-.5c.072-.056,1.517-.5,1.737-.544a7.565,7.565,0,0,1,1.436-.051" transform="translate(-90.736 -78.11)" fill="#cb8657"/>
          <path id="Path_896143" data-name="Path 896143" d="M130.256,97.9a13.491,13.491,0,0,1-.595,1.785,7.518,7.518,0,0,0-1.436.051c-.22.042-1.665.487-1.737.543a9.969,9.969,0,0,1-.2-2.974,36.165,36.165,0,0,0,3.966.595" transform="translate(-92.826 -71.532)" fill="#553269"/>
          <path id="Path_896144" data-name="Path 896144" d="M269.185,127.649a24.76,24.76,0,0,0-.595,4.957,4.163,4.163,0,0,0-2.854-.979c-1.042.111-3.02,1.465-1.915,2.476.858.785,1.526-.1,2.3-.128s1.483.828,2.472.217a34.04,34.04,0,0,0,.793,4.957c-.886.064-2.1.033-1.948,1.235a3.739,3.739,0,0,0,4.328,2.731c1.423,1.243,2.794,2.822,4.759,3.173-.311.848.5,2.3.595,3.173-1.681,1.483-3.132,3.4-4.759,4.957a8.06,8.06,0,0,1-3.371,0c-1.639-1.525-3.291-3.743-4.957-5.156a4.71,4.71,0,0,0,.761-2.831c-.1-.364-1.216-1.213-1.549-1.637-1.648-2.1-1.883-3.413-2.328-6-.226-1.312-.343-2.681-.453-4.009-2.858.867-5.058-2.684-2.777-4.56.984-.809,2.46-.432,2.751-.62.1-.068.537-2.028.819-2.354.409.037,1.278.2,1.487.2h3.371c.834,0,2.063.186,3.073.2" transform="translate(-188.726 -93.542)" fill="#eca270"/>
          <path id="Path_896145" data-name="Path 896145" d="M325.961,211.418a2.306,2.306,0,0,1-.491.8,52.5,52.5,0,0,1-5.457,5.261c-.263.123-.705.041-.794.089-.392,0-.55-.269-.8-.492a30.744,30.744,0,0,1-2.586-2.57,2.067,2.067,0,0,1-.188-1.3c1.627-1.555,3.078-3.474,4.759-4.957.652-.575,1.4-1.338,2.376-.888a40.029,40.029,0,0,1,2.87,2.88,1.638,1.638,0,0,1,.307,1.181" transform="translate(-232.018 -152.326)" fill="#e7f6f9"/>
          <path id="Path_896146" data-name="Path 896146" d="M26.876,127.649a45.492,45.492,0,0,0-.595,4.957c-1.011-1.5-4.884-1.082-4.97.688-.1,2.025,2.026.59,2.523.545.537-.048,1.526,1.031,2.447.353a20.224,20.224,0,0,0,.992,4.957c-1.822.1-2.792.368-1.628,2.322a3.032,3.032,0,0,0,3.809,1.445c.534.963,3.832,3.5,4.759,3.371v.2a8.891,8.891,0,0,1-9.593,1.363c-.732-.345-1.285-1.016-2.107-1.165-.079-.559-1.69-2.031-2.148-2.711-1.531-2.273-2.015-6.437-2.215-9.187a25.079,25.079,0,0,1,0-5.156c.131-.687.713-1.616.793-2.379.317.041,1.326.2,1.487.2H24c.761,0,1.93.186,2.875.2" transform="translate(-13.241 -93.542)" fill="#dc9563"/>
          <path id="Path_896147" data-name="Path 896147" d="M44.437,204.024c-3.721,5.049-11.081,5.3-14.674,0a15.768,15.768,0,0,0,1.081-2.19,4.367,4.367,0,0,0,.307-1.776c.821.149,1.374.82,2.107,1.165a8.891,8.891,0,0,0,9.593-1.363,6.965,6.965,0,0,0,1.586,4.164" transform="translate(-21.879 -146.916)" fill="#cb8657"/>
          <path id="Path_896148" data-name="Path 896148" d="M312.959,127.251c.2.769.659,1.6.793,2.38a26.946,26.946,0,0,1,0,5.156c-.2,2.773-.731,7.027-2.3,9.3-.362.525-2.012,2.058-2.064,2.2-1.964-.351-3.336-1.93-4.759-3.173a9.8,9.8,0,0,0,1.628-1.644c1.731-2.9-2.158-2.454-4.007-2.322a34.048,34.048,0,0,1-.793-4.957c-.015-.293-.008-1.266,0-1.586a24.76,24.76,0,0,1,.595-4.957,99.861,99.861,0,0,0,10.906-.4m-2.625,6.893c1.1-1.1-.769-2.363-1.892-2.484-1.3-.14-3.719.717-2.918,2.334.48.971,1.753,0,2.385-.02.684-.024,1.693.9,2.425.17" transform="translate(-221.594 -93.541)" fill="#fec6aa"/>
          <path id="Path_896149" data-name="Path 896149" d="M60.9,128a16.5,16.5,0,0,0,.595,2.181,18.3,18.3,0,0,1,0,5.156c-.228,2.851-.552,6.869-2.183,9.218a11.811,11.811,0,0,1-2.179,2.283c-.927.128-4.225-2.409-4.759-3.371.935-.336,2.6-2.159,2.091-3.173-.408-.808-3.413-.641-4.272-.594a20.212,20.212,0,0,1-.992-4.957c-.013-.219-.006-1.3,0-1.586A45.494,45.494,0,0,1,49.8,128.2c3.616.048,7.569.056,11.1-.2m-5.6,4.21c-1.143.183-3.206,1.6-1.647,2.543.985.6,1.362-.257,2.188-.228.677.024,1.683.925,2.3.137,1.139-1.443-1.455-2.674-2.845-2.452" transform="translate(-36.164 -94.092)" fill="#eca270"/>
          <path id="Path_896150" data-name="Path 896150" d="M96.76,125.754a6.414,6.414,0,0,1,0,3.371,3.929,3.929,0,0,0-2.776-.595,16.5,16.5,0,0,1-.595-2.181c.677-.049,2.414-.465,3.371-.595" transform="translate(-68.65 -92.441)" fill="#553269"/>
          <path id="Path_896151" data-name="Path 896151" d="M263.289,126.152c-.282.327-.714,2.287-.819,2.354-.29.188-1.766-.189-2.751.62a7.1,7.1,0,0,1,0-3.371c1.176.153,2.388.29,3.569.4" transform="translate(-190.761 -92.442)" fill="#bb784a"/>
          <path id="Path_896152" data-name="Path 896152" d="M186.472,99.544c.2-.016.4.019.595,0a13.578,13.578,0,0,0,.595,1.784,26.731,26.731,0,0,1,0,5.949c-.267,3.288-.788,8-2.695,10.69-.361.51-2.21,2.375-2.263,2.6-.124-.022-.3.032-.4,0a11.253,11.253,0,0,1-5.552-4.164,6.342,6.342,0,0,0,1.866-1.406c2.9-3.6-1.89-3.085-4.245-2.956a30.331,30.331,0,0,1-.992-5.949c-.018-.325.008-.958,0-1.388a21.631,21.631,0,0,1,.2-4.759,127.113,127.113,0,0,0,12.889-.4m-5.8,4.013c-1.212.2-3.336,1.649-1.727,2.821,1.1.8,1.53-.531,2.444-.437.648.066,1.7,1.335,2.526.264,1.323-1.717-1.774-2.886-3.243-2.647" transform="translate(-127.429 -73.171)" fill="#eca270"/>
          <path id="Path_896153" data-name="Path 896153" d="M147.86,99.953a21.632,21.632,0,0,0-.2,4.759c-1.2-1.67-5.562-1.542-5.574.693-.013,2.353,2.322.509,2.9.51.82,0,1.463,1.539,2.676.185a30.352,30.352,0,0,0,.992,5.949c-1.67.091-2.468.28-1.62,2.116.634,1.372,2.46,2.615,4,2.246a11.255,11.255,0,0,0,5.552,4.164c.021.434-.283.523-.568.721a10.024,10.024,0,0,1-10.347.774c-.77-.4-1.314-1.119-2.173-1.3-.093-.578-1.768-2.1-2.263-2.794-1.917-2.7-2.416-7.386-2.695-10.69a24.9,24.9,0,0,1,0-5.949,13.529,13.529,0,0,0,.595-1.785c.734.071,2.234.2,2.875.2h3.767c.467,0,1.39.184,2.082.2" transform="translate(-101.705 -73.183)" fill="#dc9563"/>
          <path id="Path_896154" data-name="Path 896154" d="M130.518,196.3c3.753,3.555,5.976,5.366,11.609,4.966,4.268-.3,6.179-2.291,9.013-4.966a15.91,15.91,0,0,1,1.835-1.634,2.2,2.2,0,0,1,3.122,2.031,2.312,2.312,0,0,1-.09.794c-.28.866-3.795,4.306-4.669,4.957a20.766,20.766,0,0,1-6.543,2.974c-.357.08-1.88.4-2.082.4h-3.768c-.2,0-1.725-.317-2.082-.4a20.768,20.768,0,0,1-6.544-2.974c-.879-.655-4.382-4.083-4.669-4.957a2.186,2.186,0,0,1-.09-.6,2.211,2.211,0,0,1,3.122-2.229,15.918,15.918,0,0,1,1.835,1.634" transform="translate(-92.295 -142.955)" fill="#e7f6f9"/>
          <path id="Path_896155" data-name="Path 896155" d="M161.343,178.886c-.517,2.178,1.611,5.126,3.569,5.949-2.834,2.675-4.746,4.663-9.013,4.966-5.633.4-7.856-1.411-11.609-4.966,1.968-.9,3.934-3.489,3.569-5.75.859.178,1.4.9,2.173,1.3a10.024,10.024,0,0,0,10.347-.774c.284-.2.589-.287.567-.721.1.032.273-.021.4,0" transform="translate(-106.067 -131.494)" fill="#cb8657"/>
          <path id="Path_896156" data-name="Path 896156" d="M141.315,227.536a12.487,12.487,0,0,0-.4,3.569c-1.131,2.049-3.2,5.275-5.7,5.7-4.833.827-3.8-5.919-2.631-8.677a18.243,18.243,0,0,1,2.181-3.569,20.765,20.765,0,0,0,6.544,2.974" transform="translate(-96.747 -165.074)" fill="#ffc811"/>
          <path id="Path_896157" data-name="Path 896157" d="M98.41,136.771c2.279,1.875.087,5.422-2.776,4.561a18.3,18.3,0,0,0,0-5.156,3.93,3.93,0,0,1,2.776.595" transform="translate(-70.3 -100.086)" fill="#cb8657"/>
          <path id="Path_896158" data-name="Path 896158" d="M299.035,171.874c1.849-.132,5.738-.575,4.007,2.322a9.789,9.789,0,0,1-1.628,1.644,3.74,3.74,0,0,1-4.328-2.731c-.152-1.2,1.062-1.172,1.948-1.235" transform="translate(-218.377 -126.267)" fill="#a40f1e"/>
          <path id="Path_896159" data-name="Path 896159" d="M287.346,144.7c-.008.32-.015,1.294,0,1.586-.99.611-1.7-.244-2.472-.217s-1.438.913-2.3.128c-1.1-1.011.873-2.365,1.915-2.476a4.163,4.163,0,0,1,2.854.979" transform="translate(-207.482 -105.637)" fill="#cb8657"/>
          <path id="Path_896160" data-name="Path 896160" d="M47.046,172.036c.859-.046,3.865-.214,4.272.594.512,1.014-1.157,2.837-2.091,3.173a3.032,3.032,0,0,1-3.809-1.446c-1.164-1.954-.194-2.224,1.628-2.322" transform="translate(-33.015 -126.429)" fill="#a40f1e"/>
          <path id="Path_896161" data-name="Path 896161" d="M35.426,144.914c-.006.286-.013,1.368,0,1.586-.921.678-1.91-.4-2.447-.353-.5.044-2.621,1.479-2.523-.545.086-1.77,3.958-2.191,4.97-.688" transform="translate(-22.386 -105.85)" fill="#bb784a"/>
          <path id="Path_896162" data-name="Path 896162" d="M321.2,146.338c-.732.731-1.741-.194-2.425-.17-.633.022-1.905.992-2.385.02-.8-1.618,1.614-2.474,2.918-2.334,1.123.121,2.993,1.385,1.892,2.484" transform="translate(-232.457 -105.735)" fill="#cb8657"/>
          <path id="Path_896163" data-name="Path 896163" d="M66.11,143.82c1.39-.222,3.985,1.009,2.845,2.452-.622.788-1.628-.113-2.3-.137-.826-.029-1.2.825-2.188.228-1.558-.944.5-2.36,1.647-2.543" transform="translate(-46.974 -105.702)" fill="#bb784a"/>
          <path id="Path_896164" data-name="Path 896164" d="M171.78,146.436c2.355-.129,7.146-.644,4.245,2.956a6.339,6.339,0,0,1-1.866,1.406c-1.539.369-3.366-.873-4-2.246-.848-1.836-.05-2.025,1.62-2.116" transform="translate(-124.832 -107.57)" fill="#a40f1e"/>
          <path id="Path_896165" data-name="Path 896165" d="M194.58,114.621c1.469-.238,4.566.931,3.243,2.647-.826,1.071-1.878-.2-2.526-.264-.914-.094-1.342,1.24-2.444.437-1.609-1.172.514-2.625,1.727-2.821" transform="translate(-141.339 -84.234)" fill="#bb784a"/>
          <path id="Path_896166" data-name="Path 896166" d="M158.016,115.872c.008.43-.018,1.063,0,1.388-1.212,1.354-1.856-.185-2.676-.185-.577,0-2.911,1.843-2.9-.51.012-2.235,4.373-2.363,5.574-.693" transform="translate(-112.059 -84.343)" fill="#bb784a"/>
        </g>
      </g>
    </g>
  </g>
</svg>
