<svg xmlns="http://www.w3.org/2000/svg" xmlns:xlink="http://www.w3.org/1999/xlink" width="1030" height="499.717" viewBox="0 0 1030 499.717">
  <defs>
    <clipPath id="clip-path">
      <path id="Path_608976" data-name="Path 608976" d="M16,0h998c8.837,0,16,7.748,16,17.306v465.1c0,9.558-7.163,17.306-16,17.306H16c-8.837,0-16-7.748-16-17.306V17.306C0,7.748,7.163,0,16,0Z" fill="#d9e6ff"/>
    </clipPath>
    <radialGradient id="radial-gradient" cx="0.5" cy="0.5" r="0.5" gradientUnits="objectBoundingBox">
      <stop offset="0" stop-color="#fff"/>
      <stop offset="0.679" stop-color="#fffffb"/>
      <stop offset="1" stop-color="#fffceb"/>
    </radialGradient>
    <clipPath id="clip-path-2">
      <rect id="Rectangle_408137" data-name="Rectangle 408137" width="254.566" height="142.02" fill="none"/>
    </clipPath>
    <clipPath id="clip-path-3">
      <rect id="Rectangle_408136" data-name="Rectangle 408136" width="1118.661" height="142.02" fill="none"/>
    </clipPath>
    <clipPath id="clip-path-4">
      <rect id="Rectangle_408265" data-name="Rectangle 408265" width="78" height="70.012" fill="#12263f"/>
    </clipPath>
    <clipPath id="clip-path-5">
      <rect id="Rectangle_408268" data-name="Rectangle 408268" width="70" height="86.495" fill="#12263f"/>
    </clipPath>
    <clipPath id="clip-path-6">
      <rect id="Rectangle_408270" data-name="Rectangle 408270" width="96.525" height="85.385" fill="#fff"/>
    </clipPath>
    <clipPath id="clip-path-7">
      <rect id="Rectangle_408272" data-name="Rectangle 408272" width="91.557" height="84.945" fill="#fff"/>
    </clipPath>
    <clipPath id="clip-path-8">
      <rect id="Rectangle_408274" data-name="Rectangle 408274" width="78" height="77.799" fill="#12263f"/>
    </clipPath>
  </defs>
  <g id="Group_1118044" data-name="Group 1118044" transform="translate(-285.711 -18027.951)">
    <g id="Group_1118042" data-name="Group 1118042">
      <g id="Group_1117934" data-name="Group 1117934">
        <g id="Group_1117757" data-name="Group 1117757" transform="translate(1 8833.288)">
          <g id="Group_1116936" data-name="Group 1116936" transform="translate(284.711 9194.663)">
            <g id="Mask_Group_1098656" data-name="Mask Group 1098656" transform="translate(0 0)" clip-path="url(#clip-path)">
              <path id="Path_874294" data-name="Path 874294" d="M0,0H1030V523.513H0Z" transform="translate(0.289 -12.98)" fill="url(#radial-gradient)"/>
            </g>
          </g>
          <g id="Group_1117641" data-name="Group 1117641" transform="translate(294.145 9552.361)">
            <g id="Group_1117640" data-name="Group 1117640" clip-path="url(#clip-path-2)">
              <g id="Group_1117639" data-name="Group 1117639">
                <g id="Group_1117638" data-name="Group 1117638" clip-path="url(#clip-path-3)">
                  <path id="Path_896447" data-name="Path 896447" d="M101.313,99.194c1.05-3.505,1.78-7.6-.332-10.583-1.8-2.543-5.247-3.486-8.334-3.079s-5.9,1.936-8.584,3.512a66.475,66.475,0,0,0,5.731-38.655c-.867-5.606-3.163-11.888-8.528-13.731-4.078-1.4-8.708.388-11.831,3.362s-5.048,6.958-6.908,10.849A73.844,73.844,0,0,0,59.4,13.963c-1.7-4.814-4.155-9.737-8.573-12.295-6.787-3.932-16.079-.493-20.6,5.918S25.081,22.419,26.075,30.2,29.5,45.528,30.5,53.309A29,29,0,0,0,9.611,50.867a13.916,13.916,0,0,0-7.39,4.214c-2.453,3-2.726,7.363-1.538,11.055s3.646,6.838,6.258,9.708A82.54,82.54,0,0,0,28.01,92.5c-5.294-.163-11.388.018-14.744,4.119-2.5,3.057-2.612,7.57-1.143,11.237s4.287,6.625,7.256,9.229c10.846,9.51,24.434,15.336,38.433,18.377,5.2,1.13,14.871,4.155,19.59,1.571,5.517-3.021,10.647-11.317,13.985-16.455a83.075,83.075,0,0,0,9.925-21.388" transform="translate(0 0)" fill="#7099ff"/>
                  <path id="Path_896448" data-name="Path 896448" d="M70.307,138.172a.168.168,0,0,0,.066-.014.171.171,0,0,0,.091-.223C70.179,137.266,41.873,70.165,35.357.5a.166.166,0,0,0-.186-.154.171.171,0,0,0-.154.186C41.54,70.251,69.866,137.4,70.152,138.069a.17.17,0,0,0,.156.1" transform="translate(5.111 0.051)" fill="#42353b"/>
                  <path id="Path_896449" data-name="Path 896449" d="M55,73.973a.171.171,0,0,0,.142-.076L82.509,32.627a.17.17,0,0,0-.283-.188L54.938,73.59,2.028,50.2a.17.17,0,1,0-.138.312L54.931,73.96a.184.184,0,0,0,.069.014" transform="translate(0.261 4.723)" fill="#42353b"/>
                  <path id="Path_896450" data-name="Path 896450" d="M68.081,112.161a.169.169,0,0,0,.136-.069L95.837,75.1a.17.17,0,1,0-.272-.2L68.023,111.786,10.162,88.955a.168.168,0,0,0-.22.1.17.17,0,0,0,.1.221l57.981,22.878a.146.146,0,0,0,.062.013" transform="translate(1.449 10.921)" fill="#42353b"/>
                  <path id="Path_896451" data-name="Path 896451" d="M42.273,35.147h.011a.167.167,0,0,0,.121-.064l15.136-19.2a.169.169,0,0,0-.028-.238.172.172,0,0,0-.239.028L42.255,34.726,22.867,16.26a.171.171,0,0,0-.236.246L42.155,35.1a.169.169,0,0,0,.118.047" transform="translate(3.295 2.278)" fill="#42353b"/>
                  <path id="Path_896452" data-name="Path 896452" d="M232.856,130.94H24.943A19.752,19.752,0,0,1,34.93,119.8c6.131-3.079,13.232-3.519,20.088-3.441a7.269,7.269,0,0,0,3.583-.556,7.54,7.54,0,0,0,2.522-3.065c5.264-9.275,13.492-17.386,23.828-20.012s22.689,1.475,27.436,11.021c3.777-7.735,8.525-15.186,15.225-20.58s15.626-8.512,24.048-6.752A24.08,24.08,0,0,1,170.274,97.9c.052.932.142,2.031.932,2.536a2.811,2.811,0,0,0,2.057.1c6.493-1.319,13.142-2.769,19.687-1.707s13.04,5.264,14.669,11.681c.492,1.915.866,4.347,2.755,4.9a5.61,5.61,0,0,0,2.937-.311,15.6,15.6,0,0,1,19.545,15.834" transform="translate(3.64 11.081)" fill="#ffb149"/>
                </g>
              </g>
            </g>
          </g>
        </g>
        <g id="Group_1117835" data-name="Group 1117835" transform="translate(-1254.289 11185.186)">
          <path id="Path_919034" data-name="Path 919034" d="M52,0H769a52,52,0,0,1,52,52V355a52,52,0,0,1-52,52H52A52,52,0,0,1,0,355V52A52,52,0,0,1,52,0Z" transform="translate(1733 6887)" fill="#050c68"/>
          <path id="Path_919035" data-name="Path 919035" d="M52,0H559a52,52,0,0,1,52,52V289a52,52,0,0,1-52,52H52A52,52,0,0,1,0,289V52A52,52,0,0,1,52,0Z" transform="translate(1933 6945)" fill="#1e2ad5"/>
          <path id="Path_919036" data-name="Path 919036" d="M41,0H326a41,41,0,0,1,41,41V219a41,41,0,0,1-41,41H41A41,41,0,0,1,0,219V41A41,41,0,0,1,41,0Z" transform="translate(2167 7017)" fill="#afbefc"/>
          <g id="Group_1117819" data-name="Group 1117819">
            <path id="Path_919064" data-name="Path 919064" d="M37,0h70a37,37,0,0,1,37,37v63a37,37,0,0,1-37,37H37A37,37,0,0,1,0,100V37A37,37,0,0,1,37,0Z" transform="translate(2378 7129)" fill="#d9e6ff"/>
            <path id="Path_919065" data-name="Path 919065" d="M9.427,13.742V18H6.937V5.914h4.715a5.455,5.455,0,0,1,2.395.5,3.67,3.67,0,0,1,1.59,1.415,3.946,3.946,0,0,1,.556,2.088,3.47,3.47,0,0,1-1.216,2.8,5.065,5.065,0,0,1-3.366,1.025Zm0-2.017h2.225a2.187,2.187,0,0,0,1.507-.465,1.691,1.691,0,0,0,.519-1.328A1.994,1.994,0,0,0,13.154,8.5a1.953,1.953,0,0,0-1.444-.564H9.427Zm13.364-.457a6.517,6.517,0,0,0-.863-.066,1.757,1.757,0,0,0-1.785.921V18h-2.4V9.019H20.01l.066,1.071a2.223,2.223,0,0,1,2-1.237,2.514,2.514,0,0,1,.747.108Zm.481,2.158a5.327,5.327,0,0,1,.515-2.382,3.768,3.768,0,0,1,1.482-1.619,4.323,4.323,0,0,1,2.245-.573,4.09,4.09,0,0,1,2.968,1.112,4.464,4.464,0,0,1,1.282,3.021l.017.614a4.694,4.694,0,0,1-1.154,3.316,4.011,4.011,0,0,1-3.1,1.249,4.031,4.031,0,0,1-3.1-1.245,4.777,4.777,0,0,1-1.158-3.387Zm2.4.17a3.357,3.357,0,0,0,.481,1.958,1.73,1.73,0,0,0,2.739.008,3.674,3.674,0,0,0,.49-2.141,3.324,3.324,0,0,0-.49-1.945,1.592,1.592,0,0,0-1.378-.69,1.566,1.566,0,0,0-1.361.686A3.735,3.735,0,0,0,25.672,13.6Zm7.213-.154a5.413,5.413,0,0,1,.942-3.345A3.057,3.057,0,0,1,36.4,8.853a2.751,2.751,0,0,1,2.167.979V5.25h2.407V18H38.812l-.116-.955a2.823,2.823,0,0,1-2.308,1.121,3.049,3.049,0,0,1-2.544-1.249A5.587,5.587,0,0,1,32.885,13.443Zm2.4.179a3.546,3.546,0,0,0,.44,1.937A1.433,1.433,0,0,0,37,16.232a1.605,1.605,0,0,0,1.569-.939v-3.55a1.582,1.582,0,0,0-1.552-.939Q35.284,10.8,35.284,13.621Zm12.933,3.465a3.008,3.008,0,0,1-2.457,1.079,2.837,2.837,0,0,1-2.2-.83A3.543,3.543,0,0,1,42.78,14.9V9.019h2.4v5.809q0,1.4,1.278,1.4a1.732,1.732,0,0,0,1.677-.848V9.019h2.407V18H48.283Zm7.869-.855a1.573,1.573,0,0,0,1.079-.365A1.28,1.28,0,0,0,57.6,14.9h2.25a3.077,3.077,0,0,1-.5,1.673,3.286,3.286,0,0,1-1.341,1.179,4.2,4.2,0,0,1-1.88.419,3.9,3.9,0,0,1-3.038-1.224,4.845,4.845,0,0,1-1.112-3.383V13.4a4.79,4.79,0,0,1,1.1-3.312,3.854,3.854,0,0,1,3.03-1.237,3.778,3.778,0,0,1,2.7.959,3.4,3.4,0,0,1,1.033,2.552H57.6a1.648,1.648,0,0,0-.432-1.139A1.6,1.6,0,0,0,54.8,11.4a3.541,3.541,0,0,0-.427,1.983v.249a3.586,3.586,0,0,0,.423,2A1.463,1.463,0,0,0,56.086,16.232Zm8-9.421V9.019h1.536v1.76H64.088v4.482a1.07,1.07,0,0,0,.191.714.959.959,0,0,0,.73.216,3.826,3.826,0,0,0,.706-.058V17.95a4.938,4.938,0,0,1-1.453.216,2.29,2.29,0,0,1-2.573-2.548V10.778H60.377V9.019h1.312V6.811Zm2.25,6.616a5.326,5.326,0,0,1,.515-2.382,3.768,3.768,0,0,1,1.482-1.619,4.323,4.323,0,0,1,2.245-.573,4.09,4.09,0,0,1,2.968,1.112,4.464,4.464,0,0,1,1.282,3.021l.017.614a4.694,4.694,0,0,1-1.154,3.316,4.472,4.472,0,0,1-6.2,0,4.777,4.777,0,0,1-1.158-3.387Zm2.4.17a3.357,3.357,0,0,0,.481,1.958,1.73,1.73,0,0,0,2.739.008,3.674,3.674,0,0,0,.49-2.141,3.324,3.324,0,0,0-.49-1.945,1.592,1.592,0,0,0-1.378-.69,1.566,1.566,0,0,0-1.361.686A3.736,3.736,0,0,0,68.736,13.6Zm12.451,1.922a.773.773,0,0,0-.436-.693,4.95,4.95,0,0,0-1.4-.452q-3.2-.672-3.2-2.723a2.468,2.468,0,0,1,.992-2,4,4,0,0,1,2.594-.8,4.307,4.307,0,0,1,2.735.805,2.538,2.538,0,0,1,1.025,2.092H81.1a1.161,1.161,0,0,0-.332-.851,1.405,1.405,0,0,0-1.038-.336,1.436,1.436,0,0,0-.938.274.865.865,0,0,0-.332.7.739.739,0,0,0,.378.643,3.885,3.885,0,0,0,1.274.423,10.407,10.407,0,0,1,1.511.4,2.482,2.482,0,0,1,1.9,2.416,2.343,2.343,0,0,1-1.054,1.988,4.548,4.548,0,0,1-2.723.76,4.75,4.75,0,0,1-2-.4,3.363,3.363,0,0,1-1.374-1.1,2.565,2.565,0,0,1-.5-1.515h2.274a1.252,1.252,0,0,0,.473.979,1.877,1.877,0,0,0,1.179.34,1.737,1.737,0,0,0,1.042-.261A.814.814,0,0,0,81.187,15.518ZM33.375,34.231a7.3,7.3,0,0,1-.631,3.129,4.751,4.751,0,0,1-1.805,2.075,5.335,5.335,0,0,1-5.375.008,4.8,4.8,0,0,1-1.826-2.063,7.087,7.087,0,0,1-.656-3.084v-.6a7.258,7.258,0,0,1,.643-3.142,4.79,4.79,0,0,1,1.818-2.083,5.327,5.327,0,0,1,5.371,0,4.79,4.79,0,0,1,1.818,2.083,7.237,7.237,0,0,1,.643,3.134Zm-2.523-.548a5.086,5.086,0,0,0-.681-2.889,2.4,2.4,0,0,0-3.876-.012,5.028,5.028,0,0,0-.689,2.86v.589a5.15,5.15,0,0,0,.681,2.872,2.383,2.383,0,0,0,3.885.037,5.12,5.12,0,0,0,.681-2.868ZM39.468,37l2.739-9.089h2.772L40.771,40h-2.6L33.981,27.914h2.764Zm16.469-2.772a7.3,7.3,0,0,1-.631,3.129A4.751,4.751,0,0,1,53.5,39.436a5.335,5.335,0,0,1-5.375.008A4.8,4.8,0,0,1,46.3,37.381a7.087,7.087,0,0,1-.656-3.084v-.6a7.258,7.258,0,0,1,.643-3.142A4.79,4.79,0,0,1,48.1,28.474a5.327,5.327,0,0,1,5.371,0,4.79,4.79,0,0,1,1.818,2.083,7.237,7.237,0,0,1,.643,3.134Zm-2.523-.548a5.086,5.086,0,0,0-.681-2.889,2.4,2.4,0,0,0-3.876-.012,5.028,5.028,0,0,0-.689,2.86v.589a5.15,5.15,0,0,0,.681,2.872,2.383,2.383,0,0,0,3.885.037,5.12,5.12,0,0,0,.681-2.868Zm6.823,2.059V40h-2.49V27.914h4.715a5.455,5.455,0,0,1,2.395.5,3.67,3.67,0,0,1,1.59,1.415A3.946,3.946,0,0,1,67,31.915a3.47,3.47,0,0,1-1.216,2.8,5.065,5.065,0,0,1-3.366,1.025Zm0-2.017h2.225a2.187,2.187,0,0,0,1.507-.465,1.691,1.691,0,0,0,.519-1.328,1.994,1.994,0,0,0-.523-1.436,1.953,1.953,0,0,0-1.444-.564H60.236Z" transform="translate(2405 7219.5)" fill="#12263f"/>
            <g id="Group_1117818" data-name="Group 1117818" transform="translate(2417 7144.488)">
              <g id="Group_1117817" data-name="Group 1117817" clip-path="url(#clip-path-4)">
                <path id="Path_918780" data-name="Path 918780" d="M58.615,0a92.365,92.365,0,0,0,8.068,19.457c3.382,5.851,7.413,10.261,9.3,17,1.86,6.65,2.356,17.372,1.809,24.283-.573,7.238-7.825,10.3-14.333,8.968-1.443-.3-5.922-3.692-6.929-3.535a6.921,6.921,0,0,1-5.381,3.583l-44.58.01C3.807,69.873,0,66.58,0,63.853V0ZM52.821,4.68H4.68v4.9h48.14Zm4.68,6.463V61.178l6.844,3.854c3.387.366,8.283.312,8.758-4.076a86.123,86.123,0,0,0-.958-20.885C70.452,31.881,65.509,27,61.7,19.985Zm-4.68,3.343H4.68V30.533L26.138,17.112l5.052-.05L52.821,30.533ZM50.813,34.771,30.078,21.739l-2.5-.066L6.69,34.879,27.426,48.017l2.79-.083Zm2.008,4.455L31.19,52.7l-5.052-.05L4.68,39.225V55.272h48.14Zm0,20.95H4.68V63.63c0,.414,1.3,1.612,1.889,1.454l44.144.006c.789.291,2.107-1.126,2.107-1.682Z" fill="#12263f"/>
                <path id="Path_918781" data-name="Path 918781" d="M83.209,133.254v-2.808c2.849-1.362,5.684-3.934,8.494-5.211A3.632,3.632,0,0,1,94.69,125c2.308,1.884,6.1,3.259,8.3,5.072.654.54.7,2.911.132,3.459l-8.938,5.324-2.2-.232Zm9.925-3.49a21.565,21.565,0,0,0-3.281,2.086c.84.477,2.97,2.3,3.837,2.077a22.445,22.445,0,0,0,3.286-2.077c-.884-.441-2.967-2.26-3.842-2.086" transform="translate(-64.664 -96.971)" fill="#12263f"/>
              </g>
            </g>
          </g>
          <path id="Path_919037" data-name="Path 919037" d="M13,0H159a13,13,0,0,1,13,13V46a13,13,0,0,1-13,13H13A13,13,0,0,1,0,46V13A13,13,0,0,1,13,0Z" transform="translate(2185 7171)" fill="#ffc811"/>
          <path id="Path_919038" data-name="Path 919038" d="M13,0H159a13,13,0,0,1,13,13V46a13,13,0,0,1-13,13H13A13,13,0,0,1,0,46V13A13,13,0,0,1,13,0Z" transform="translate(1975 7111)" fill="#ffc811"/>
          <path id="Path_919039" data-name="Path 919039" d="M13,0H145a13,13,0,0,1,13,13V46a13,13,0,0,1-13,13H13A13,13,0,0,1,0,46V13A13,13,0,0,1,13,0Z" transform="translate(1756 7053)" fill="#ffc811"/>
          <path id="Path_919040" data-name="Path 919040" d="M13,0H145a13,13,0,0,1,13,13V46a13,13,0,0,1-13,13H13A13,13,0,0,1,0,46V13A13,13,0,0,1,13,0Z" transform="translate(1556 6994)" fill="#ffc811"/>
          <g id="Group_1117820" data-name="Group 1117820" transform="translate(22 -11)">
            <g id="Group_1117821" data-name="Group 1117821" transform="translate(2.5 2.097)">
              <path id="Polygon_18" data-name="Polygon 18" d="M9.248,3.186a2,2,0,0,1,3.5,0l7.617,13.85A2,2,0,0,1,18.617,20H3.383A2,2,0,0,1,1.63,17.036Z" transform="translate(2373.5 7197.903) rotate(90)" fill="#f6ae5c"/>
              <rect id="Rectangle_408267" data-name="Rectangle 408267" width="21" height="11" rx="3" transform="translate(2336.5 7202.903)" fill="#f6ae5c"/>
            </g>
          </g>
          <g id="Group_1117824" data-name="Group 1117824" transform="translate(-188 -71)">
            <g id="Group_1117821-2" data-name="Group 1117821" transform="translate(2.5 2.097)">
              <path id="Polygon_18-2" data-name="Polygon 18" d="M9.248,3.186a2,2,0,0,1,3.5,0l7.617,13.85A2,2,0,0,1,18.617,20H3.383A2,2,0,0,1,1.63,17.036Z" transform="translate(2373.5 7197.903) rotate(90)" fill="#f6ae5c"/>
              <rect id="Rectangle_408267-2" data-name="Rectangle 408267" width="21" height="11" rx="3" transform="translate(2336.5 7202.903)" fill="#f6ae5c"/>
            </g>
          </g>
          <g id="Group_1117828" data-name="Group 1117828" transform="translate(-421 -129)">
            <g id="Group_1117821-3" data-name="Group 1117821" transform="translate(2.5 2.097)">
              <path id="Polygon_18-3" data-name="Polygon 18" d="M9.248,3.186a2,2,0,0,1,3.5,0l7.617,13.85A2,2,0,0,1,18.617,20H3.383A2,2,0,0,1,1.63,17.036Z" transform="translate(2373.5 7197.903) rotate(90)" fill="#f6ae5c"/>
              <rect id="Rectangle_408267-3" data-name="Rectangle 408267" width="21" height="11" rx="3" transform="translate(2336.5 7202.903)" fill="#f6ae5c"/>
            </g>
          </g>
          <g id="Group_1117832" data-name="Group 1117832" transform="translate(-621 -188)">
            <g id="Group_1117821-4" data-name="Group 1117821" transform="translate(2.5 2.097)">
              <path id="Polygon_18-4" data-name="Polygon 18" d="M9.248,3.186a2,2,0,0,1,3.5,0l7.617,13.85A2,2,0,0,1,18.617,20H3.383A2,2,0,0,1,1.63,17.036Z" transform="translate(2373.5 7197.903) rotate(90)" fill="#f6ae5c"/>
              <rect id="Rectangle_408267-4" data-name="Rectangle 408267" width="21" height="11" rx="3" transform="translate(2336.5 7202.903)" fill="#f6ae5c"/>
            </g>
          </g>
          <path id="Path_919041" data-name="Path 919041" d="M21.75,13.391a4.185,4.185,0,0,1-1.332,2.785,4.365,4.365,0,0,1-2.98.98,4.008,4.008,0,0,1-3.23-1.445,5.815,5.815,0,0,1-1.215-3.867V10.75a6.481,6.481,0,0,1,.566-2.789,4.231,4.231,0,0,1,1.605-1.848,4.47,4.47,0,0,1,2.406-.645A4.11,4.11,0,0,1,20.477,6.48a4.235,4.235,0,0,1,1.273,2.8H20.242a3.268,3.268,0,0,0-.848-1.975A2.565,2.565,0,0,0,17.57,6.7a2.684,2.684,0,0,0-2.254,1.063,4.882,4.882,0,0,0-.816,3.026v1.1a5.018,5.018,0,0,0,.773,2.948,2.5,2.5,0,0,0,2.164,1.095,2.886,2.886,0,0,0,1.918-.566,3.143,3.143,0,0,0,.887-1.973Zm1.438-.7a4.993,4.993,0,0,1,.488-2.234A3.643,3.643,0,0,1,25.035,8.93a3.7,3.7,0,0,1,1.988-.539,3.565,3.565,0,0,1,2.793,1.2,4.6,4.6,0,0,1,1.066,3.18v.1a5.036,5.036,0,0,1-.473,2.215,3.589,3.589,0,0,1-1.352,1.527,3.743,3.743,0,0,1-2.02.547,3.556,3.556,0,0,1-2.785-1.2A4.575,4.575,0,0,1,23.188,12.8Zm1.453.172a3.616,3.616,0,0,0,.652,2.258,2.211,2.211,0,0,0,3.5-.012,3.955,3.955,0,0,0,.648-2.418,3.61,3.61,0,0,0-.66-2.254,2.1,2.1,0,0,0-1.754-.863,2.075,2.075,0,0,0-1.727.852A3.925,3.925,0,0,0,24.641,12.867Zm9.414-4.32.039.938A3.122,3.122,0,0,1,36.6,8.391,2.417,2.417,0,0,1,39.016,9.75a3.2,3.2,0,0,1,1.1-.984,3.242,3.242,0,0,1,1.6-.375q2.781,0,2.828,2.945V17H43.094V11.422a1.941,1.941,0,0,0-.414-1.355,1.823,1.823,0,0,0-1.391-.449,1.917,1.917,0,0,0-1.336.48,1.949,1.949,0,0,0-.617,1.293V17H37.883V11.461a1.613,1.613,0,0,0-1.8-1.844,1.934,1.934,0,0,0-1.945,1.211V17H32.688V8.547Zm16.172,8.609a3.693,3.693,0,0,1-2.8-1.129,4.19,4.19,0,0,1-1.078-3.02v-.266a5.073,5.073,0,0,1,.48-2.246,3.748,3.748,0,0,1,1.344-1.547,3.378,3.378,0,0,1,1.871-.559,3.166,3.166,0,0,1,2.563,1.086,4.7,4.7,0,0,1,.914,3.109v.6H47.8a3,3,0,0,0,.73,2.02,2.3,2.3,0,0,0,1.777.77,2.517,2.517,0,0,0,1.3-.312,3.259,3.259,0,0,0,.93-.828l.883.688A3.55,3.55,0,0,1,50.227,17.156Zm-.18-7.578a1.928,1.928,0,0,0-1.469.637A3.1,3.1,0,0,0,47.844,12h4.234v-.109a2.753,2.753,0,0,0-.594-1.707A1.815,1.815,0,0,0,50.047,9.578Zm9.234.266a4.331,4.331,0,0,0-.711-.055A1.9,1.9,0,0,0,56.641,11v6H55.2V8.547H56.6l.023.977a2.251,2.251,0,0,1,2.016-1.133,1.477,1.477,0,0,1,.641.109Zm4.57,6.133a2.082,2.082,0,0,0,1.352-.469,1.649,1.649,0,0,0,.641-1.172h1.367a2.621,2.621,0,0,1-.5,1.383,3.293,3.293,0,0,1-1.23,1.047,3.55,3.55,0,0,1-1.629.391A3.482,3.482,0,0,1,61.105,16a4.59,4.59,0,0,1-1.02-3.152v-.242a5.089,5.089,0,0,1,.453-2.2,3.451,3.451,0,0,1,1.3-1.492,3.7,3.7,0,0,1,2-.531,3.39,3.39,0,0,1,2.363.852,3.043,3.043,0,0,1,1,2.211H65.844a1.992,1.992,0,0,0-.621-1.348,1.932,1.932,0,0,0-1.379-.527,2.023,2.023,0,0,0-1.707.793,3.724,3.724,0,0,0-.605,2.293v.273a3.65,3.65,0,0,0,.6,2.25A2.033,2.033,0,0,0,63.852,15.977ZM70.406,17H68.961V8.547h1.445ZM68.844,6.3a.863.863,0,0,1,.215-.594.807.807,0,0,1,.637-.242.819.819,0,0,1,.641.242.854.854,0,0,1,.219.594.826.826,0,0,1-.219.586.834.834,0,0,1-.641.234.821.821,0,0,1-.637-.234A.834.834,0,0,1,68.844,6.3ZM77.938,17a3.036,3.036,0,0,1-.2-.891,3.225,3.225,0,0,1-2.406,1.047,2.984,2.984,0,0,1-2.051-.707,2.288,2.288,0,0,1-.8-1.793,2.39,2.39,0,0,1,1-2.051,4.733,4.733,0,0,1,2.824-.73h1.406v-.664A1.623,1.623,0,0,0,77.258,10a1.821,1.821,0,0,0-1.336-.449,2.108,2.108,0,0,0-1.3.391,1.151,1.151,0,0,0-.523.945H72.648A2,2,0,0,1,73.1,9.668a3.066,3.066,0,0,1,1.219-.934,4.1,4.1,0,0,1,1.691-.344,3.342,3.342,0,0,1,2.289.73,2.635,2.635,0,0,1,.859,2.012v3.891a4.757,4.757,0,0,0,.3,1.852V17Zm-2.4-1.1a2.54,2.54,0,0,0,1.289-.352,2.127,2.127,0,0,0,.883-.914V12.9H76.578q-2.656,0-2.656,1.555a1.316,1.316,0,0,0,.453,1.063A1.742,1.742,0,0,0,75.539,15.9ZM82.992,17H81.547V5h1.445Zm3.883,0H85.43V8.547h1.445ZM85.313,6.3a.863.863,0,0,1,.215-.594.807.807,0,0,1,.637-.242.819.819,0,0,1,.641.242.854.854,0,0,1,.219.594.826.826,0,0,1-.219.586.834.834,0,0,1-.641.234.821.821,0,0,1-.637-.234A.834.834,0,0,1,85.313,6.3Zm5.234,9.516h4.945V17H88.781V15.938l4.664-6.2H88.852v-1.2h6.406V9.57ZM102.336,17a3.036,3.036,0,0,1-.2-.891,3.225,3.225,0,0,1-2.406,1.047,2.984,2.984,0,0,1-2.051-.707,2.288,2.288,0,0,1-.8-1.793,2.39,2.39,0,0,1,1-2.051,4.733,4.733,0,0,1,2.824-.73h1.406v-.664A1.623,1.623,0,0,0,101.656,10a1.821,1.821,0,0,0-1.336-.449,2.108,2.108,0,0,0-1.3.391,1.151,1.151,0,0,0-.523.945H97.047A2,2,0,0,1,97.5,9.668a3.066,3.066,0,0,1,1.219-.934,4.1,4.1,0,0,1,1.691-.344,3.342,3.342,0,0,1,2.289.73,2.635,2.635,0,0,1,.859,2.012v3.891a4.757,4.757,0,0,0,.3,1.852V17Zm-2.4-1.1a2.54,2.54,0,0,0,1.289-.352,2.127,2.127,0,0,0,.883-.914V12.9h-1.133q-2.656,0-2.656,1.555a1.316,1.316,0,0,0,.453,1.063A1.742,1.742,0,0,0,99.938,15.9Zm9.273.078a2.082,2.082,0,0,0,1.352-.469,1.649,1.649,0,0,0,.641-1.172h1.367a2.621,2.621,0,0,1-.5,1.383,3.293,3.293,0,0,1-1.23,1.047,3.55,3.55,0,0,1-1.629.391A3.482,3.482,0,0,1,106.465,16a4.59,4.59,0,0,1-1.02-3.152v-.242a5.089,5.089,0,0,1,.453-2.2,3.451,3.451,0,0,1,1.3-1.492,3.7,3.7,0,0,1,2-.531,3.39,3.39,0,0,1,2.363.852,3.043,3.043,0,0,1,1,2.211H111.2a1.992,1.992,0,0,0-.621-1.348,1.932,1.932,0,0,0-1.379-.527,2.023,2.023,0,0,0-1.707.793,3.724,3.724,0,0,0-.605,2.293v.273a3.65,3.65,0,0,0,.6,2.25A2.033,2.033,0,0,0,109.211,15.977ZM115.766,17H114.32V8.547h1.445ZM114.2,6.3a.863.863,0,0,1,.215-.594.807.807,0,0,1,.637-.242.819.819,0,0,1,.641.242.854.854,0,0,1,.219.594.826.826,0,0,1-.219.586.834.834,0,0,1-.641.234.821.821,0,0,1-.637-.234A.834.834,0,0,1,114.2,6.3ZM117.7,12.7a4.993,4.993,0,0,1,.488-2.234,3.643,3.643,0,0,1,1.359-1.531,3.7,3.7,0,0,1,1.988-.539,3.565,3.565,0,0,1,2.793,1.2,4.6,4.6,0,0,1,1.066,3.18v.1a5.036,5.036,0,0,1-.473,2.215,3.589,3.589,0,0,1-1.352,1.527,3.743,3.743,0,0,1-2.02.547,3.556,3.556,0,0,1-2.785-1.2A4.575,4.575,0,0,1,117.7,12.8Zm1.453.172a3.616,3.616,0,0,0,.652,2.258,2.211,2.211,0,0,0,3.5-.012,3.955,3.955,0,0,0,.648-2.418,3.61,3.61,0,0,0-.66-2.254,2.1,2.1,0,0,0-1.754-.863,2.075,2.075,0,0,0-1.727.852A3.925,3.925,0,0,0,119.148,12.867ZM122.188,5h1.75l-2.094,2.3-1.164,0Zm6.383,3.547.047,1.063a3.08,3.08,0,0,1,2.531-1.219q2.68,0,2.7,3.023V17h-1.445V11.406a1.946,1.946,0,0,0-.418-1.352,1.675,1.675,0,0,0-1.277-.437,2.086,2.086,0,0,0-1.234.375,2.546,2.546,0,0,0-.828.984V17H127.2V8.547ZM35.492,35.977a2.082,2.082,0,0,0,1.352-.469,1.649,1.649,0,0,0,.641-1.172h1.367a2.621,2.621,0,0,1-.5,1.383,3.293,3.293,0,0,1-1.23,1.047,3.55,3.55,0,0,1-1.629.391A3.482,3.482,0,0,1,32.746,36a4.59,4.59,0,0,1-1.02-3.152v-.242a5.089,5.089,0,0,1,.453-2.2,3.451,3.451,0,0,1,1.3-1.492,3.7,3.7,0,0,1,2-.531,3.39,3.39,0,0,1,2.363.852,3.043,3.043,0,0,1,1,2.211H37.484a1.992,1.992,0,0,0-.621-1.348,1.932,1.932,0,0,0-1.379-.527,2.023,2.023,0,0,0-1.707.793,3.724,3.724,0,0,0-.605,2.293v.273a3.65,3.65,0,0,0,.6,2.25A2.033,2.033,0,0,0,35.492,35.977Zm4.6-3.281a4.993,4.993,0,0,1,.488-2.234,3.643,3.643,0,0,1,1.359-1.531,3.7,3.7,0,0,1,1.988-.539,3.565,3.565,0,0,1,2.793,1.2,4.6,4.6,0,0,1,1.066,3.18v.1a5.036,5.036,0,0,1-.473,2.215,3.589,3.589,0,0,1-1.352,1.527,3.743,3.743,0,0,1-2.02.547,3.556,3.556,0,0,1-2.785-1.2A4.575,4.575,0,0,1,40.094,32.8Zm1.453.172a3.616,3.616,0,0,0,.652,2.258,2.211,2.211,0,0,0,3.5-.012,3.955,3.955,0,0,0,.648-2.418,3.61,3.61,0,0,0-.66-2.254,2.1,2.1,0,0,0-1.754-.863,2.075,2.075,0,0,0-1.727.852A3.925,3.925,0,0,0,41.547,32.867Zm9.414-4.32.039.938a3.122,3.122,0,0,1,2.508-1.094,2.417,2.417,0,0,1,2.414,1.359,3.2,3.2,0,0,1,1.1-.984,3.242,3.242,0,0,1,1.6-.375q2.781,0,2.828,2.945V37H60V31.422a1.941,1.941,0,0,0-.414-1.355,1.823,1.823,0,0,0-1.391-.449,1.916,1.916,0,0,0-1.336.48,1.949,1.949,0,0,0-.617,1.293V37H54.789V31.461a1.613,1.613,0,0,0-1.8-1.844,1.934,1.934,0,0,0-1.945,1.211V37H49.594V28.547Zm17.883,7.617a3.07,3.07,0,0,1-2.477.992,2.628,2.628,0,0,1-2.059-.785,3.4,3.4,0,0,1-.715-2.324v-5.5h1.445v5.461q0,1.922,1.563,1.922A2.163,2.163,0,0,0,68.8,34.7V28.547H70.25V37H68.875Zm4.969-7.617.047,1.063a3.08,3.08,0,0,1,2.531-1.219q2.68,0,2.7,3.023V37H77.648V31.406a1.946,1.946,0,0,0-.418-1.352,1.675,1.675,0,0,0-1.277-.437,2.086,2.086,0,0,0-1.234.375,2.546,2.546,0,0,0-.828.984V37H72.445V28.547ZM82.844,37H81.4V28.547h1.445ZM81.281,26.3a.863.863,0,0,1,.215-.594.807.807,0,0,1,.637-.242.819.819,0,0,1,.641.242.854.854,0,0,1,.219.594.826.826,0,0,1-.219.586.834.834,0,0,1-.641.234.821.821,0,0,1-.637-.234A.834.834,0,0,1,81.281,26.3Zm5.836.2v2.047H88.7v1.117H87.117v5.249a1.173,1.173,0,0,0,.211.763.888.888,0,0,0,.719.254,3.5,3.5,0,0,0,.688-.094V37a4.215,4.215,0,0,1-1.109.155,1.8,1.8,0,0,1-1.461-.586,2.517,2.517,0,0,1-.492-1.664V29.664H84.133V28.547h1.539V26.5ZM95.6,37a3.036,3.036,0,0,1-.2-.891,3.225,3.225,0,0,1-2.406,1.047,2.984,2.984,0,0,1-2.051-.707,2.288,2.288,0,0,1-.8-1.793,2.39,2.39,0,0,1,1-2.051,4.733,4.733,0,0,1,2.824-.73h1.406v-.664A1.623,1.623,0,0,0,94.922,30a1.821,1.821,0,0,0-1.336-.449,2.108,2.108,0,0,0-1.3.391,1.151,1.151,0,0,0-.523.945H90.313a2,2,0,0,1,.449-1.223,3.066,3.066,0,0,1,1.219-.934,4.1,4.1,0,0,1,1.691-.344,3.342,3.342,0,0,1,2.289.73,2.635,2.635,0,0,1,.859,2.012v3.891a4.757,4.757,0,0,0,.3,1.852V37Zm-2.4-1.1a2.54,2.54,0,0,0,1.289-.352,2.127,2.127,0,0,0,.883-.914V32.9H94.242q-2.656,0-2.656,1.555a1.316,1.316,0,0,0,.453,1.063A1.742,1.742,0,0,0,93.2,35.9Zm9.969-6.055a4.331,4.331,0,0,0-.711-.055A1.9,1.9,0,0,0,100.531,31v6H99.086V28.547h1.406l.023.977a2.251,2.251,0,0,1,2.016-1.133,1.477,1.477,0,0,1,.641.109ZM106.07,37h-1.445V28.547h1.445Zm-1.562-10.7a.863.863,0,0,1,.215-.594.807.807,0,0,1,.637-.242.819.819,0,0,1,.641.242.854.854,0,0,1,.219.594.826.826,0,0,1-.219.586.834.834,0,0,1-.641.234.821.821,0,0,1-.637-.234A.834.834,0,0,1,104.508,26.3ZM113.6,37a3.036,3.036,0,0,1-.2-.891,3.225,3.225,0,0,1-2.406,1.047,2.984,2.984,0,0,1-2.051-.707,2.288,2.288,0,0,1-.8-1.793,2.39,2.39,0,0,1,1-2.051,4.733,4.733,0,0,1,2.824-.73h1.406v-.664A1.623,1.623,0,0,0,112.922,30a1.821,1.821,0,0,0-1.336-.449,2.108,2.108,0,0,0-1.3.391,1.151,1.151,0,0,0-.523.945h-1.453a2,2,0,0,1,.449-1.223,3.066,3.066,0,0,1,1.219-.934,4.1,4.1,0,0,1,1.691-.344,3.342,3.342,0,0,1,2.289.73,2.635,2.635,0,0,1,.859,2.012v3.891a4.757,4.757,0,0,0,.3,1.852V37Zm-2.4-1.1a2.54,2.54,0,0,0,1.289-.352,2.127,2.127,0,0,0,.883-.914V32.9h-1.133q-2.656,0-2.656,1.555a1.316,1.316,0,0,0,.453,1.063A1.742,1.742,0,0,0,111.2,35.9Z" transform="translate(2198 7179.5)" fill="#12263f"/>
          <path id="Path_919042" data-name="Path 919042" d="M24.434,15.008l3.25-9.383h1.641L25.105,17H23.777L19.566,5.625H21.2ZM35.48,17a3.036,3.036,0,0,1-.2-.891,3.225,3.225,0,0,1-2.406,1.047,2.984,2.984,0,0,1-2.051-.707,2.287,2.287,0,0,1-.8-1.793,2.39,2.39,0,0,1,1-2.051,4.733,4.733,0,0,1,2.824-.73h1.406v-.664A1.623,1.623,0,0,0,34.8,10a1.821,1.821,0,0,0-1.336-.449,2.107,2.107,0,0,0-1.3.391,1.151,1.151,0,0,0-.523.945H30.191a2,2,0,0,1,.449-1.223,3.066,3.066,0,0,1,1.219-.934,4.1,4.1,0,0,1,1.691-.344,3.342,3.342,0,0,1,2.289.73,2.635,2.635,0,0,1,.859,2.012v3.891a4.757,4.757,0,0,0,.3,1.852V17Zm-2.4-1.1a2.54,2.54,0,0,0,1.289-.352,2.127,2.127,0,0,0,.883-.914V12.9H34.121q-2.656,0-2.656,1.555a1.316,1.316,0,0,0,.453,1.063A1.742,1.742,0,0,0,33.082,15.9ZM40.535,17H39.09V5h1.445Zm1.93-4.3a4.993,4.993,0,0,1,.488-2.234A3.643,3.643,0,0,1,44.313,8.93,3.7,3.7,0,0,1,46.3,8.391a3.565,3.565,0,0,1,2.793,1.2,4.6,4.6,0,0,1,1.066,3.18v.1a5.036,5.036,0,0,1-.473,2.215,3.589,3.589,0,0,1-1.352,1.527,3.743,3.743,0,0,1-2.02.547,3.556,3.556,0,0,1-2.785-1.2A4.575,4.575,0,0,1,42.465,12.8Zm1.453.172a3.616,3.616,0,0,0,.652,2.258,2.211,2.211,0,0,0,3.5-.012,3.955,3.955,0,0,0,.648-2.418,3.61,3.61,0,0,0-.66-2.254A2.1,2.1,0,0,0,46.3,9.578a2.075,2.075,0,0,0-1.727.852A3.925,3.925,0,0,0,43.918,12.867ZM56.059,9.844a4.331,4.331,0,0,0-.711-.055A1.9,1.9,0,0,0,53.418,11v6H51.973V8.547h1.406l.023.977a2.251,2.251,0,0,1,2.016-1.133,1.477,1.477,0,0,1,.641.109ZM66.566,17a3.036,3.036,0,0,1-.2-.891,3.225,3.225,0,0,1-2.406,1.047,2.984,2.984,0,0,1-2.051-.707,2.287,2.287,0,0,1-.8-1.793,2.39,2.39,0,0,1,1-2.051,4.733,4.733,0,0,1,2.824-.73H66.34v-.664A1.623,1.623,0,0,0,65.887,10a1.821,1.821,0,0,0-1.336-.449,2.107,2.107,0,0,0-1.3.391,1.151,1.151,0,0,0-.523.945H61.277a2,2,0,0,1,.449-1.223,3.066,3.066,0,0,1,1.219-.934,4.1,4.1,0,0,1,1.691-.344,3.342,3.342,0,0,1,2.289.73,2.635,2.635,0,0,1,.859,2.012v3.891a4.757,4.757,0,0,0,.3,1.852V17Zm-2.4-1.1a2.54,2.54,0,0,0,1.289-.352,2.127,2.127,0,0,0,.883-.914V12.9H65.207q-2.656,0-2.656,1.555A1.316,1.316,0,0,0,63,15.516,1.742,1.742,0,0,0,64.168,15.9Zm5.539-3.2a4.968,4.968,0,0,1,.914-3.145,3.151,3.151,0,0,1,4.836-.074l.07-.937h1.32V16.8a3.439,3.439,0,0,1-.973,2.586,3.589,3.589,0,0,1-2.613.945,4.348,4.348,0,0,1-1.789-.391,3.08,3.08,0,0,1-1.336-1.07l.75-.867a2.826,2.826,0,0,0,2.273,1.148,2.214,2.214,0,0,0,1.645-.594,2.269,2.269,0,0,0,.59-1.672v-.727a2.971,2.971,0,0,1-2.367,1,2.887,2.887,0,0,1-2.4-1.2A5.224,5.224,0,0,1,69.707,12.7Zm1.453.164a3.79,3.79,0,0,0,.586,2.246,1.9,1.9,0,0,0,1.641.816,2.117,2.117,0,0,0,2.008-1.242V10.828A2.142,2.142,0,0,0,73.4,9.617a1.921,1.921,0,0,0-1.648.82A4.128,4.128,0,0,0,71.16,12.867ZM83.113,9.844a4.331,4.331,0,0,0-.711-.055A1.9,1.9,0,0,0,80.473,11v6H79.027V8.547h1.406l.023.977a2.251,2.251,0,0,1,2.016-1.133,1.477,1.477,0,0,1,.641.109Zm4.836,7.313a3.693,3.693,0,0,1-2.8-1.129,4.19,4.19,0,0,1-1.078-3.02v-.266a5.073,5.073,0,0,1,.48-2.246A3.748,3.748,0,0,1,85.9,8.949a3.378,3.378,0,0,1,1.871-.559,3.166,3.166,0,0,1,2.563,1.086,4.7,4.7,0,0,1,.914,3.109v.6H85.52a3,3,0,0,0,.73,2.02,2.3,2.3,0,0,0,1.777.77,2.517,2.517,0,0,0,1.3-.312,3.259,3.259,0,0,0,.93-.828l.883.688A3.55,3.55,0,0,1,87.949,17.156Zm-.18-7.578a1.928,1.928,0,0,0-1.469.637A3.1,3.1,0,0,0,85.566,12H89.8v-.109a2.753,2.753,0,0,0-.594-1.707A1.815,1.815,0,0,0,87.77,9.578Zm4.8,3.125a4.968,4.968,0,0,1,.914-3.145,3.151,3.151,0,0,1,4.836-.074l.07-.937h1.32V16.8a3.439,3.439,0,0,1-.973,2.586,3.589,3.589,0,0,1-2.613.945,4.348,4.348,0,0,1-1.789-.391A3.08,3.08,0,0,1,93,18.867l.75-.867a2.826,2.826,0,0,0,2.273,1.148,2.214,2.214,0,0,0,1.645-.594,2.269,2.269,0,0,0,.59-1.672v-.727a2.971,2.971,0,0,1-2.367,1,2.887,2.887,0,0,1-2.4-1.2A5.224,5.224,0,0,1,92.574,12.7Zm1.453.164a3.79,3.79,0,0,0,.586,2.246,1.9,1.9,0,0,0,1.641.816,2.117,2.117,0,0,0,2.008-1.242V10.828A2.142,2.142,0,0,0,96.27,9.617a1.921,1.921,0,0,0-1.648.82A4.128,4.128,0,0,0,94.027,12.867ZM107.113,17a3.036,3.036,0,0,1-.2-.891,3.225,3.225,0,0,1-2.406,1.047,2.984,2.984,0,0,1-2.051-.707,2.288,2.288,0,0,1-.8-1.793,2.39,2.39,0,0,1,1-2.051,4.733,4.733,0,0,1,2.824-.73h1.406v-.664A1.623,1.623,0,0,0,106.434,10a1.821,1.821,0,0,0-1.336-.449,2.108,2.108,0,0,0-1.3.391,1.151,1.151,0,0,0-.523.945h-1.453a2,2,0,0,1,.449-1.223,3.066,3.066,0,0,1,1.219-.934,4.1,4.1,0,0,1,1.691-.344,3.342,3.342,0,0,1,2.289.73,2.635,2.635,0,0,1,.859,2.012v3.891a4.757,4.757,0,0,0,.3,1.852V17Zm-2.4-1.1A2.54,2.54,0,0,0,106,15.547a2.127,2.127,0,0,0,.883-.914V12.9h-1.133q-2.656,0-2.656,1.555a1.316,1.316,0,0,0,.453,1.063A1.742,1.742,0,0,0,104.715,15.9Zm5.531-3.2a4.952,4.952,0,0,1,.922-3.129,3.137,3.137,0,0,1,4.766-.168V5h1.445V17h-1.328l-.07-.906a2.943,2.943,0,0,1-2.414,1.063,2.887,2.887,0,0,1-2.395-1.2,5.008,5.008,0,0,1-.926-3.141Zm1.445.164a3.749,3.749,0,0,0,.594,2.25,1.92,1.92,0,0,0,1.641.813,2.108,2.108,0,0,0,2.008-1.234V10.813a2.125,2.125,0,0,0-1.992-1.2,1.929,1.929,0,0,0-1.656.82A4.128,4.128,0,0,0,111.691,12.867Zm7.547-.172a4.993,4.993,0,0,1,.488-2.234,3.643,3.643,0,0,1,1.359-1.531,3.7,3.7,0,0,1,1.988-.539,3.565,3.565,0,0,1,2.793,1.2,4.6,4.6,0,0,1,1.066,3.18v.1a5.036,5.036,0,0,1-.473,2.215,3.589,3.589,0,0,1-1.352,1.527,3.743,3.743,0,0,1-2.02.547,3.556,3.556,0,0,1-2.785-1.2,4.575,4.575,0,0,1-1.066-3.164Zm1.453.172a3.616,3.616,0,0,0,.652,2.258,2.211,2.211,0,0,0,3.5-.012,3.955,3.955,0,0,0,.648-2.418,3.61,3.61,0,0,0-.66-2.254,2.1,2.1,0,0,0-1.754-.863,2.075,2.075,0,0,0-1.727.852A3.925,3.925,0,0,0,120.691,12.867Z" transform="translate(1988 7130)" fill="#12263f"/>
          <path id="Path_919043" data-name="Path 919043" d="M15.234,12.547V17h-1.5V5.625h4.2a4.215,4.215,0,0,1,2.926.953A3.231,3.231,0,0,1,21.914,9.1a3.189,3.189,0,0,1-1.035,2.551,4.4,4.4,0,0,1-2.965.895Zm0-1.227h2.7a2.7,2.7,0,0,0,1.844-.567,2.075,2.075,0,0,0,.641-1.64,2.143,2.143,0,0,0-.641-1.628,2.525,2.525,0,0,0-1.758-.634H15.234ZM28.82,16.164a3.07,3.07,0,0,1-2.477.992,2.628,2.628,0,0,1-2.059-.785,3.4,3.4,0,0,1-.715-2.324v-5.5h1.445v5.461q0,1.922,1.563,1.922a2.163,2.163,0,0,0,2.2-1.234V8.547h1.445V17H28.852Zm4.969-7.617.047,1.063a3.08,3.08,0,0,1,2.531-1.219q2.68,0,2.7,3.023V17H37.625V11.406a1.946,1.946,0,0,0-.418-1.352,1.675,1.675,0,0,0-1.277-.437,2.086,2.086,0,0,0-1.234.375,2.546,2.546,0,0,0-.828.984V17H32.422V8.547ZM43.211,6.5V8.547h1.578V9.664H43.211v5.249a1.173,1.173,0,0,0,.211.763.888.888,0,0,0,.719.254,3.5,3.5,0,0,0,.688-.094V17a4.215,4.215,0,0,1-1.109.155,1.8,1.8,0,0,1-1.461-.586,2.517,2.517,0,0,1-.492-1.664V9.664H40.227V8.547h1.539V6.5Zm2.727,6.2a4.993,4.993,0,0,1,.488-2.234A3.643,3.643,0,0,1,47.785,8.93a3.7,3.7,0,0,1,1.988-.539,3.565,3.565,0,0,1,2.793,1.2,4.6,4.6,0,0,1,1.066,3.18v.1a5.036,5.036,0,0,1-.473,2.215,3.589,3.589,0,0,1-1.352,1.527,3.743,3.743,0,0,1-2.02.547A3.556,3.556,0,0,1,47,15.961,4.575,4.575,0,0,1,45.938,12.8Zm1.453.172a3.616,3.616,0,0,0,.652,2.258,2.211,2.211,0,0,0,3.5-.012,3.955,3.955,0,0,0,.648-2.418,3.61,3.61,0,0,0-.66-2.254,2.1,2.1,0,0,0-1.754-.863,2.075,2.075,0,0,0-1.727.852A3.925,3.925,0,0,0,47.391,12.867ZM59.055,12.7a4.952,4.952,0,0,1,.922-3.129,3.137,3.137,0,0,1,4.766-.168V5h1.445V17H64.859l-.07-.906a2.943,2.943,0,0,1-2.414,1.063,2.887,2.887,0,0,1-2.395-1.2,5.008,5.008,0,0,1-.926-3.141Zm1.445.164a3.749,3.749,0,0,0,.594,2.25,1.92,1.92,0,0,0,1.641.813A2.108,2.108,0,0,0,64.742,14.7V10.813a2.125,2.125,0,0,0-1.992-1.2,1.929,1.929,0,0,0-1.656.82A4.128,4.128,0,0,0,60.5,12.867Zm11.438,4.289a3.693,3.693,0,0,1-2.8-1.129,4.19,4.19,0,0,1-1.078-3.02v-.266a5.073,5.073,0,0,1,.48-2.246,3.748,3.748,0,0,1,1.344-1.547,3.378,3.378,0,0,1,1.871-.559A3.166,3.166,0,0,1,74.32,9.477a4.7,4.7,0,0,1,.914,3.109v.6H69.508a3,3,0,0,0,.73,2.02,2.3,2.3,0,0,0,1.777.77,2.517,2.517,0,0,0,1.3-.312,3.259,3.259,0,0,0,.93-.828l.883.688A3.55,3.55,0,0,1,71.938,17.156Zm-.18-7.578a1.928,1.928,0,0,0-1.469.637A3.1,3.1,0,0,0,69.555,12h4.234v-.109a2.753,2.753,0,0,0-.594-1.707A1.815,1.815,0,0,0,71.758,9.578Zm11.9,5.461L85.75,8.547h1.477L84.2,17h-1.1L80.031,8.547h1.477ZM90.188,17H88.742V8.547h1.445ZM88.625,6.3a.863.863,0,0,1,.215-.594.807.807,0,0,1,.637-.242.819.819,0,0,1,.641.242.854.854,0,0,1,.219.594.826.826,0,0,1-.219.586.834.834,0,0,1-.641.234.821.821,0,0,1-.637-.234A.834.834,0,0,1,88.625,6.3Zm8.8,8.453a1.064,1.064,0,0,0-.441-.91,4.249,4.249,0,0,0-1.539-.559,7.277,7.277,0,0,1-1.742-.562,2.479,2.479,0,0,1-.953-.781,1.869,1.869,0,0,1-.309-1.078,2.193,2.193,0,0,1,.879-1.758,3.432,3.432,0,0,1,2.246-.719,3.532,3.532,0,0,1,2.332.742,2.357,2.357,0,0,1,.895,1.9H97.336a1.3,1.3,0,0,0-.5-1.023,1.888,1.888,0,0,0-1.27-.43,1.976,1.976,0,0,0-1.234.344,1.082,1.082,0,0,0-.445.9.877.877,0,0,0,.414.789,5.1,5.1,0,0,0,1.5.508,7.8,7.8,0,0,1,1.754.578,2.558,2.558,0,0,1,1,.809,1.988,1.988,0,0,1,.324,1.152,2.163,2.163,0,0,1-.906,1.816,3.8,3.8,0,0,1-2.352.684,4.257,4.257,0,0,1-1.8-.359,2.922,2.922,0,0,1-1.223-1,2.42,2.42,0,0,1-.441-1.395h1.445a1.5,1.5,0,0,0,.582,1.152,2.258,2.258,0,0,0,1.434.426,2.331,2.331,0,0,0,1.316-.332A1.02,1.02,0,0,0,97.422,14.758ZM102.711,6.5V8.547h1.578V9.664h-1.578v5.249a1.173,1.173,0,0,0,.211.763.888.888,0,0,0,.719.254,3.5,3.5,0,0,0,.688-.094V17a4.215,4.215,0,0,1-1.109.155,1.8,1.8,0,0,1-1.461-.586,2.517,2.517,0,0,1-.492-1.664V9.664H99.727V8.547h1.539V6.5ZM111.2,17a3.036,3.036,0,0,1-.2-.891,3.225,3.225,0,0,1-2.406,1.047,2.984,2.984,0,0,1-2.051-.707,2.288,2.288,0,0,1-.8-1.793,2.39,2.39,0,0,1,1-2.051,4.733,4.733,0,0,1,2.824-.73h1.406v-.664A1.623,1.623,0,0,0,110.516,10a1.821,1.821,0,0,0-1.336-.449,2.108,2.108,0,0,0-1.3.391,1.151,1.151,0,0,0-.523.945h-1.453a2,2,0,0,1,.449-1.223,3.066,3.066,0,0,1,1.219-.934,4.1,4.1,0,0,1,1.691-.344,3.342,3.342,0,0,1,2.289.73,2.635,2.635,0,0,1,.859,2.012v3.891a4.757,4.757,0,0,0,.3,1.852V17Zm-2.4-1.1a2.54,2.54,0,0,0,1.289-.352,2.127,2.127,0,0,0,.883-.914V12.9h-1.133q-2.656,0-2.656,1.555a1.316,1.316,0,0,0,.453,1.063A1.742,1.742,0,0,0,108.8,15.9ZM34.961,35.977a2.082,2.082,0,0,0,1.352-.469,1.649,1.649,0,0,0,.641-1.172H38.32a2.621,2.621,0,0,1-.5,1.383,3.293,3.293,0,0,1-1.23,1.047,3.55,3.55,0,0,1-1.629.391A3.482,3.482,0,0,1,32.215,36a4.59,4.59,0,0,1-1.02-3.152v-.242a5.089,5.089,0,0,1,.453-2.2,3.451,3.451,0,0,1,1.3-1.492,3.7,3.7,0,0,1,2-.531,3.39,3.39,0,0,1,2.363.852,3.043,3.043,0,0,1,1,2.211H36.953a1.992,1.992,0,0,0-.621-1.348,1.932,1.932,0,0,0-1.379-.527,2.023,2.023,0,0,0-1.707.793,3.724,3.724,0,0,0-.605,2.293v.273a3.65,3.65,0,0,0,.6,2.25A2.033,2.033,0,0,0,34.961,35.977Zm4.6-3.281a4.993,4.993,0,0,1,.488-2.234A3.643,3.643,0,0,1,41.41,28.93a3.7,3.7,0,0,1,1.988-.539,3.565,3.565,0,0,1,2.793,1.2,4.6,4.6,0,0,1,1.066,3.18v.1a5.036,5.036,0,0,1-.473,2.215,3.589,3.589,0,0,1-1.352,1.527,3.743,3.743,0,0,1-2.02.547,3.556,3.556,0,0,1-2.785-1.2A4.575,4.575,0,0,1,39.563,32.8Zm1.453.172a3.616,3.616,0,0,0,.652,2.258,2.211,2.211,0,0,0,3.5-.012,3.955,3.955,0,0,0,.648-2.418,3.61,3.61,0,0,0-.66-2.254,2.1,2.1,0,0,0-1.754-.863,2.075,2.075,0,0,0-1.727.852A3.925,3.925,0,0,0,41.016,32.867Zm9.422-4.32.047,1.063a3.08,3.08,0,0,1,2.531-1.219q2.68,0,2.7,3.023V37H54.273V31.406a1.946,1.946,0,0,0-.418-1.352,1.675,1.675,0,0,0-1.277-.437,2.086,2.086,0,0,0-1.234.375,2.546,2.546,0,0,0-.828.984V37H49.07V28.547Zm14.211,6.492,2.094-6.492h1.477L65.188,37h-1.1l-3.062-8.453H62.5ZM74.711,37a3.036,3.036,0,0,1-.2-.891A3.225,3.225,0,0,1,72.1,37.156a2.984,2.984,0,0,1-2.051-.707,2.288,2.288,0,0,1-.8-1.793,2.39,2.39,0,0,1,1-2.051,4.733,4.733,0,0,1,2.824-.73h1.406v-.664A1.623,1.623,0,0,0,74.031,30a1.821,1.821,0,0,0-1.336-.449,2.108,2.108,0,0,0-1.3.391,1.151,1.151,0,0,0-.523.945H69.422a2,2,0,0,1,.449-1.223,3.066,3.066,0,0,1,1.219-.934,4.1,4.1,0,0,1,1.691-.344,3.342,3.342,0,0,1,2.289.73,2.635,2.635,0,0,1,.859,2.012v3.891a4.757,4.757,0,0,0,.3,1.852V37Zm-2.4-1.1a2.54,2.54,0,0,0,1.289-.352,2.127,2.127,0,0,0,.883-.914V32.9H73.352q-2.656,0-2.656,1.555a1.316,1.316,0,0,0,.453,1.063A1.742,1.742,0,0,0,72.313,35.9ZM79.766,37H78.32V25h1.445Zm1.93-4.3a4.993,4.993,0,0,1,.488-2.234,3.643,3.643,0,0,1,1.359-1.531,3.7,3.7,0,0,1,1.988-.539,3.565,3.565,0,0,1,2.793,1.2,4.6,4.6,0,0,1,1.066,3.18v.1a5.036,5.036,0,0,1-.473,2.215,3.589,3.589,0,0,1-1.352,1.527,3.743,3.743,0,0,1-2.02.547,3.556,3.556,0,0,1-2.785-1.2A4.575,4.575,0,0,1,81.7,32.8Zm1.453.172a3.616,3.616,0,0,0,.652,2.258,2.211,2.211,0,0,0,3.5-.012,3.955,3.955,0,0,0,.648-2.418,3.61,3.61,0,0,0-.66-2.254,2.1,2.1,0,0,0-1.754-.863,2.075,2.075,0,0,0-1.727.852A3.925,3.925,0,0,0,83.148,32.867Zm12.141-3.023a4.331,4.331,0,0,0-.711-.055A1.9,1.9,0,0,0,92.648,31v6H91.2V28.547h1.406l.023.977a2.251,2.251,0,0,1,2.016-1.133,1.477,1.477,0,0,1,.641.109Z" transform="translate(1773 7063)" fill="#12263f"/>
          <path id="Path_919044" data-name="Path 919044" d="M33.242,13.391a4.185,4.185,0,0,1-1.332,2.785,4.365,4.365,0,0,1-2.98.98,4.008,4.008,0,0,1-3.23-1.445,5.815,5.815,0,0,1-1.215-3.867V10.75a6.481,6.481,0,0,1,.566-2.789,4.231,4.231,0,0,1,1.605-1.848,4.47,4.47,0,0,1,2.406-.645A4.11,4.11,0,0,1,31.969,6.48a4.235,4.235,0,0,1,1.273,2.8H31.734a3.268,3.268,0,0,0-.848-1.975A2.565,2.565,0,0,0,29.063,6.7a2.684,2.684,0,0,0-2.254,1.063,4.882,4.882,0,0,0-.816,3.026v1.1a5.018,5.018,0,0,0,.773,2.948A2.5,2.5,0,0,0,28.93,15.93a2.886,2.886,0,0,0,1.918-.566,3.143,3.143,0,0,0,.887-1.973Zm1.438-.7a4.993,4.993,0,0,1,.488-2.234A3.643,3.643,0,0,1,36.527,8.93a3.7,3.7,0,0,1,1.988-.539,3.565,3.565,0,0,1,2.793,1.2,4.6,4.6,0,0,1,1.066,3.18v.1a5.036,5.036,0,0,1-.473,2.215,3.589,3.589,0,0,1-1.352,1.527,3.743,3.743,0,0,1-2.02.547,3.556,3.556,0,0,1-2.785-1.2A4.575,4.575,0,0,1,34.68,12.8Zm1.453.172a3.616,3.616,0,0,0,.652,2.258,2.211,2.211,0,0,0,3.5-.012A3.955,3.955,0,0,0,40.93,12.7a3.61,3.61,0,0,0-.66-2.254,2.1,2.1,0,0,0-1.754-.863,2.075,2.075,0,0,0-1.727.852A3.925,3.925,0,0,0,36.133,12.867Zm9.422-4.32L45.6,9.609a3.08,3.08,0,0,1,2.531-1.219q2.68,0,2.7,3.023V17H49.391V11.406a1.946,1.946,0,0,0-.418-1.352A1.675,1.675,0,0,0,47.7,9.617a2.086,2.086,0,0,0-1.234.375,2.546,2.546,0,0,0-.828.984V17H44.188V8.547Zm10.852,7.43a2.082,2.082,0,0,0,1.352-.469,1.649,1.649,0,0,0,.641-1.172h1.367a2.621,2.621,0,0,1-.5,1.383,3.293,3.293,0,0,1-1.23,1.047,3.55,3.55,0,0,1-1.629.391A3.482,3.482,0,0,1,53.66,16a4.59,4.59,0,0,1-1.02-3.152v-.242a5.089,5.089,0,0,1,.453-2.2,3.451,3.451,0,0,1,1.3-1.492,3.7,3.7,0,0,1,2-.531,3.39,3.39,0,0,1,2.363.852,3.043,3.043,0,0,1,1,2.211H58.4a1.992,1.992,0,0,0-.621-1.348A1.932,1.932,0,0,0,56.4,9.578a2.023,2.023,0,0,0-1.707.793,3.724,3.724,0,0,0-.605,2.293v.273a3.65,3.65,0,0,0,.6,2.25A2.033,2.033,0,0,0,56.406,15.977ZM62.961,17H61.516V8.547h1.445ZM61.4,6.3a.863.863,0,0,1,.215-.594.807.807,0,0,1,.637-.242.819.819,0,0,1,.641.242.854.854,0,0,1,.219.594.826.826,0,0,1-.219.586.834.834,0,0,1-.641.234.821.821,0,0,1-.637-.234A.834.834,0,0,1,61.4,6.3Zm7.383,10.852a3.693,3.693,0,0,1-2.8-1.129,4.19,4.19,0,0,1-1.078-3.02v-.266a5.073,5.073,0,0,1,.48-2.246A3.748,3.748,0,0,1,66.73,8.949,3.378,3.378,0,0,1,68.6,8.391a3.166,3.166,0,0,1,2.563,1.086,4.7,4.7,0,0,1,.914,3.109v.6H66.352a3,3,0,0,0,.73,2.02,2.3,2.3,0,0,0,1.777.77,2.517,2.517,0,0,0,1.3-.312,3.259,3.259,0,0,0,.93-.828l.883.688A3.55,3.55,0,0,1,68.781,17.156ZM68.6,9.578a1.928,1.928,0,0,0-1.469.637A3.1,3.1,0,0,0,66.4,12h4.234v-.109a2.753,2.753,0,0,0-.594-1.707A1.815,1.815,0,0,0,68.6,9.578Zm6.516-1.031.047,1.063A3.08,3.08,0,0,1,77.7,8.391q2.68,0,2.7,3.023V17H78.953V11.406a1.946,1.946,0,0,0-.418-1.352,1.675,1.675,0,0,0-1.277-.437,2.086,2.086,0,0,0-1.234.375,2.546,2.546,0,0,0-.828.984V17H73.75V8.547Zm10.852,7.43a2.082,2.082,0,0,0,1.352-.469,1.649,1.649,0,0,0,.641-1.172h1.367a2.621,2.621,0,0,1-.5,1.383,3.293,3.293,0,0,1-1.23,1.047,3.55,3.55,0,0,1-1.629.391A3.482,3.482,0,0,1,83.223,16a4.59,4.59,0,0,1-1.02-3.152v-.242a5.089,5.089,0,0,1,.453-2.2,3.451,3.451,0,0,1,1.3-1.492,3.7,3.7,0,0,1,2-.531,3.39,3.39,0,0,1,2.363.852,3.043,3.043,0,0,1,1,2.211H87.961a1.992,1.992,0,0,0-.621-1.348,1.932,1.932,0,0,0-1.379-.527,2.023,2.023,0,0,0-1.707.793,3.724,3.724,0,0,0-.605,2.293v.273a3.65,3.65,0,0,0,.6,2.25A2.033,2.033,0,0,0,85.969,15.977ZM92.523,17H91.078V8.547h1.445ZM90.961,6.3a.863.863,0,0,1,.215-.594.807.807,0,0,1,.637-.242.819.819,0,0,1,.641.242.854.854,0,0,1,.219.594.826.826,0,0,1-.219.586.834.834,0,0,1-.641.234.821.821,0,0,1-.637-.234A.834.834,0,0,1,90.961,6.3ZM100.055,17a3.036,3.036,0,0,1-.2-.891,3.225,3.225,0,0,1-2.406,1.047,2.984,2.984,0,0,1-2.051-.707,2.288,2.288,0,0,1-.8-1.793,2.39,2.39,0,0,1,1-2.051,4.733,4.733,0,0,1,2.824-.73h1.406v-.664A1.623,1.623,0,0,0,99.375,10a1.821,1.821,0,0,0-1.336-.449,2.108,2.108,0,0,0-1.3.391,1.151,1.151,0,0,0-.523.945H94.766a2,2,0,0,1,.449-1.223,3.066,3.066,0,0,1,1.219-.934,4.1,4.1,0,0,1,1.691-.344,3.342,3.342,0,0,1,2.289.73,2.635,2.635,0,0,1,.859,2.012v3.891a4.757,4.757,0,0,0,.3,1.852V17Zm-2.4-1.1a2.54,2.54,0,0,0,1.289-.352,2.127,2.127,0,0,0,.883-.914V12.9H98.7q-2.656,0-2.656,1.555a1.316,1.316,0,0,0,.453,1.063A1.742,1.742,0,0,0,97.656,15.9Z" transform="translate(1573 7014)" fill="#12263f"/>
          <path id="Path_919045" data-name="Path 919045" d="M25.03,13.742V18H22.54V5.914h4.715a5.455,5.455,0,0,1,2.395.5,3.67,3.67,0,0,1,1.59,1.415,3.946,3.946,0,0,1,.556,2.088,3.47,3.47,0,0,1-1.216,2.8,5.065,5.065,0,0,1-3.366,1.025Zm0-2.017h2.225a2.187,2.187,0,0,0,1.507-.465,1.691,1.691,0,0,0,.519-1.328A1.994,1.994,0,0,0,28.757,8.5a1.953,1.953,0,0,0-1.444-.564H25.03Zm13.364-.457a6.517,6.517,0,0,0-.863-.066,1.757,1.757,0,0,0-1.785.921V18h-2.4V9.019h2.266l.066,1.071a2.223,2.223,0,0,1,2-1.237,2.514,2.514,0,0,1,.747.108Zm.481,2.158a5.327,5.327,0,0,1,.515-2.382,3.767,3.767,0,0,1,1.482-1.619,4.323,4.323,0,0,1,2.245-.573,4.09,4.09,0,0,1,2.968,1.112,4.464,4.464,0,0,1,1.282,3.021l.017.614a4.694,4.694,0,0,1-1.154,3.316,4.472,4.472,0,0,1-6.2,0,4.777,4.777,0,0,1-1.158-3.387Zm2.4.17a3.357,3.357,0,0,0,.481,1.958,1.73,1.73,0,0,0,2.739.008,3.674,3.674,0,0,0,.49-2.141,3.324,3.324,0,0,0-.49-1.945,1.592,1.592,0,0,0-1.378-.69,1.566,1.566,0,0,0-1.361.686A3.735,3.735,0,0,0,41.274,13.6Zm7.213-.154A5.413,5.413,0,0,1,49.43,10.1a3.057,3.057,0,0,1,2.577-1.245,2.751,2.751,0,0,1,2.167.979V5.25h2.407V18H54.415l-.116-.955a2.823,2.823,0,0,1-2.308,1.121,3.049,3.049,0,0,1-2.544-1.249A5.587,5.587,0,0,1,48.488,13.443Zm2.4.179a3.546,3.546,0,0,0,.44,1.937,1.433,1.433,0,0,0,1.278.673,1.605,1.605,0,0,0,1.569-.939v-3.55a1.582,1.582,0,0,0-1.552-.939Q50.887,10.8,50.887,13.621Zm12.933,3.465a3.008,3.008,0,0,1-2.457,1.079,2.837,2.837,0,0,1-2.2-.83,3.543,3.543,0,0,1-.776-2.432V9.019h2.4v5.809q0,1.4,1.278,1.4a1.732,1.732,0,0,0,1.677-.848V9.019h2.407V18H63.886Zm7.869-.855a1.573,1.573,0,0,0,1.079-.365A1.28,1.28,0,0,0,73.2,14.9h2.25a3.077,3.077,0,0,1-.5,1.673,3.286,3.286,0,0,1-1.341,1.179,4.2,4.2,0,0,1-1.88.419,3.9,3.9,0,0,1-3.038-1.224,4.845,4.845,0,0,1-1.112-3.383V13.4a4.79,4.79,0,0,1,1.1-3.312,3.854,3.854,0,0,1,3.03-1.237,3.778,3.778,0,0,1,2.7.959,3.4,3.4,0,0,1,1.033,2.552H73.2a1.648,1.648,0,0,0-.432-1.139,1.6,1.6,0,0,0-2.362.173,3.541,3.541,0,0,0-.427,1.983v.249a3.586,3.586,0,0,0,.423,2A1.463,1.463,0,0,0,71.688,16.232Zm8-9.421V9.019h1.536v1.76H79.69v4.482a1.07,1.07,0,0,0,.191.714.959.959,0,0,0,.73.216,3.826,3.826,0,0,0,.706-.058V17.95a4.938,4.938,0,0,1-1.453.216,2.29,2.29,0,0,1-2.573-2.548V10.778H75.98V9.019h1.312V6.811Zm2.25,6.616a5.326,5.326,0,0,1,.515-2.382,3.768,3.768,0,0,1,1.482-1.619,4.323,4.323,0,0,1,2.245-.573,4.09,4.09,0,0,1,2.968,1.112,4.464,4.464,0,0,1,1.282,3.021l.017.614a4.694,4.694,0,0,1-1.154,3.316,4.472,4.472,0,0,1-6.2,0,4.777,4.777,0,0,1-1.158-3.387Zm2.4.17a3.357,3.357,0,0,0,.481,1.958,1.73,1.73,0,0,0,2.739.008,3.674,3.674,0,0,0,.49-2.141,3.324,3.324,0,0,0-.49-1.945,1.592,1.592,0,0,0-1.378-.69,1.566,1.566,0,0,0-1.361.686A3.736,3.736,0,0,0,84.339,13.6ZM96.79,15.518a.773.773,0,0,0-.436-.693,4.95,4.95,0,0,0-1.4-.452q-3.2-.672-3.2-2.723a2.468,2.468,0,0,1,.992-2,4,4,0,0,1,2.594-.8,4.307,4.307,0,0,1,2.735.805A2.538,2.538,0,0,1,99.1,11.75H96.7a1.161,1.161,0,0,0-.332-.851,1.405,1.405,0,0,0-1.038-.336,1.436,1.436,0,0,0-.938.274.865.865,0,0,0-.332.7.739.739,0,0,0,.378.643,3.885,3.885,0,0,0,1.274.423,10.407,10.407,0,0,1,1.511.4,2.482,2.482,0,0,1,1.9,2.416,2.343,2.343,0,0,1-1.054,1.988,4.548,4.548,0,0,1-2.723.76,4.75,4.75,0,0,1-2-.4,3.363,3.363,0,0,1-1.374-1.1,2.565,2.565,0,0,1-.5-1.515h2.274a1.252,1.252,0,0,0,.473.979,1.877,1.877,0,0,0,1.179.34,1.737,1.737,0,0,0,1.042-.261A.814.814,0,0,0,96.79,15.518Zm16.195-1.926a5.387,5.387,0,0,1-.942,3.324,3.021,3.021,0,0,1-2.544,1.249,2.8,2.8,0,0,1-2.2-.946v4.233h-2.4V9.019h2.225l.083.88a2.819,2.819,0,0,1,2.274-1.046,3.041,3.041,0,0,1,2.582,1.229,5.532,5.532,0,0,1,.921,3.387Zm-2.4-.174a3.535,3.535,0,0,0-.444-1.934,1.446,1.446,0,0,0-1.291-.681,1.571,1.571,0,0,0-1.552.863v3.677a1.6,1.6,0,0,0,1.569.888Q110.586,16.232,110.586,13.418Zm3.511.008a5.326,5.326,0,0,1,.515-2.382,3.768,3.768,0,0,1,1.482-1.619,4.323,4.323,0,0,1,2.245-.573,4.09,4.09,0,0,1,2.968,1.112,4.464,4.464,0,0,1,1.282,3.021l.017.614a4.694,4.694,0,0,1-1.154,3.316,4.472,4.472,0,0,1-6.2,0,4.777,4.777,0,0,1-1.158-3.387Zm2.4.17a3.357,3.357,0,0,0,.481,1.958,1.73,1.73,0,0,0,2.739.008,3.674,3.674,0,0,0,.49-2.141,3.324,3.324,0,0,0-.49-1.945,1.592,1.592,0,0,0-1.378-.69,1.566,1.566,0,0,0-1.361.686A3.736,3.736,0,0,0,116.5,13.6Zm10.459-6.786V9.019h1.536v1.76h-1.536v4.482a1.07,1.07,0,0,0,.191.714.959.959,0,0,0,.73.216,3.826,3.826,0,0,0,.706-.058V17.95a4.939,4.939,0,0,1-1.453.216,2.29,2.29,0,0,1-2.573-2.548V10.778h-1.312V9.019h1.312V6.811Zm7.006,11.355a4.409,4.409,0,0,1-3.217-1.212,4.308,4.308,0,0,1-1.241-3.229v-.232a5.426,5.426,0,0,1,.523-2.42,3.838,3.838,0,0,1,1.482-1.644,4.159,4.159,0,0,1,2.187-.577,3.727,3.727,0,0,1,2.9,1.162,4.722,4.722,0,0,1,1.058,3.3v.979h-5.719a2.228,2.228,0,0,0,.7,1.411,2.12,2.12,0,0,0,1.482.531,2.589,2.589,0,0,0,2.167-1l1.179,1.32A3.6,3.6,0,0,1,136,17.739,4.793,4.793,0,0,1,133.961,18.166Zm-.274-7.379a1.5,1.5,0,0,0-1.158.484,2.5,2.5,0,0,0-.569,1.384H135.3v-.192a1.786,1.786,0,0,0-.432-1.238A1.547,1.547,0,0,0,133.687,10.787Zm7.537-1.768.075,1.038a3.136,3.136,0,0,1,2.582-1.2,2.606,2.606,0,0,1,2.125.838,3.912,3.912,0,0,1,.714,2.507V18h-2.4V12.256a1.556,1.556,0,0,0-.332-1.108,1.486,1.486,0,0,0-1.1-.344,1.65,1.65,0,0,0-1.519.863V18h-2.4V9.019Zm11.048,7.213a1.573,1.573,0,0,0,1.079-.365,1.28,1.28,0,0,0,.432-.971h2.25a3.077,3.077,0,0,1-.5,1.673,3.286,3.286,0,0,1-1.341,1.179,4.2,4.2,0,0,1-1.88.419,3.9,3.9,0,0,1-3.038-1.224,4.845,4.845,0,0,1-1.112-3.383V13.4a4.79,4.79,0,0,1,1.1-3.312,3.854,3.854,0,0,1,3.03-1.237,3.778,3.778,0,0,1,2.7.959,3.4,3.4,0,0,1,1.033,2.552h-2.25a1.648,1.648,0,0,0-.432-1.139,1.6,1.6,0,0,0-2.362.173,3.541,3.541,0,0,0-.427,1.983v.249a3.586,3.586,0,0,0,.423,2A1.463,1.463,0,0,0,152.272,16.232ZM159.934,18h-2.407V9.019h2.407ZM157.386,6.694a1.181,1.181,0,0,1,.361-.888,1.556,1.556,0,0,1,1.963,0,1.175,1.175,0,0,1,.365.888,1.178,1.178,0,0,1-.369.9,1.539,1.539,0,0,1-1.951,0A1.178,1.178,0,0,1,157.386,6.694ZM167.114,18a2.664,2.664,0,0,1-.241-.805,2.9,2.9,0,0,1-2.266.971,3.189,3.189,0,0,1-2.187-.764,2.456,2.456,0,0,1-.867-1.926,2.538,2.538,0,0,1,1.058-2.191,5.222,5.222,0,0,1,3.059-.772h1.1V12a1.48,1.48,0,0,0-.32-1,1.257,1.257,0,0,0-1.009-.374,1.429,1.429,0,0,0-.95.291.987.987,0,0,0-.344.8h-2.4a2.41,2.41,0,0,1,.481-1.444,3.182,3.182,0,0,1,1.361-1.042,4.961,4.961,0,0,1,1.976-.378,3.92,3.92,0,0,1,2.635.834,2.918,2.918,0,0,1,.975,2.345v3.893a4.294,4.294,0,0,0,.357,1.934V18Zm-1.984-1.668a2.066,2.066,0,0,0,.979-.237,1.554,1.554,0,0,0,.664-.635V13.916h-.9q-1.8,0-1.917,1.245l-.008.141a.96.96,0,0,0,.315.739A1.225,1.225,0,0,0,165.13,16.332ZM173.556,18h-2.407V5.25h2.407Zm6.109.166a4.409,4.409,0,0,1-3.217-1.212,4.308,4.308,0,0,1-1.241-3.229v-.232a5.426,5.426,0,0,1,.523-2.42,3.838,3.838,0,0,1,1.482-1.644,4.159,4.159,0,0,1,2.187-.577,3.727,3.727,0,0,1,2.9,1.162,4.722,4.722,0,0,1,1.058,3.3v.979H177.64a2.228,2.228,0,0,0,.7,1.411,2.12,2.12,0,0,0,1.482.531,2.589,2.589,0,0,0,2.167-1l1.179,1.32a3.6,3.6,0,0,1-1.461,1.191A4.793,4.793,0,0,1,179.665,18.166Zm-.274-7.379a1.5,1.5,0,0,0-1.158.484,2.5,2.5,0,0,0-.569,1.384H181v-.192a1.786,1.786,0,0,0-.432-1.238A1.547,1.547,0,0,0,179.391,10.787Zm10.193,4.731a.773.773,0,0,0-.436-.693,4.95,4.95,0,0,0-1.4-.452q-3.2-.672-3.2-2.723a2.468,2.468,0,0,1,.992-2,4,4,0,0,1,2.594-.8,4.307,4.307,0,0,1,2.735.805,2.538,2.538,0,0,1,1.025,2.092h-2.4a1.161,1.161,0,0,0-.332-.851,1.405,1.405,0,0,0-1.038-.336,1.436,1.436,0,0,0-.938.274.865.865,0,0,0-.332.7.739.739,0,0,0,.378.643,3.885,3.885,0,0,0,1.274.423,10.407,10.407,0,0,1,1.511.4,2.482,2.482,0,0,1,1.9,2.416,2.343,2.343,0,0,1-1.054,1.988,4.548,4.548,0,0,1-2.723.76,4.75,4.75,0,0,1-2-.4,3.363,3.363,0,0,1-1.374-1.1,2.565,2.565,0,0,1-.5-1.515h2.274a1.252,1.252,0,0,0,.473.979,1.877,1.877,0,0,0,1.179.34,1.737,1.737,0,0,0,1.042-.261A.814.814,0,0,0,189.584,15.518Z" transform="translate(2177 7129)" fill="#12263f"/>
          <path id="Path_919046" data-name="Path 919046" d="M35.934,13.974a4.277,4.277,0,0,1-1.44,3.071,5.058,5.058,0,0,1-3.424,1.121A4.548,4.548,0,0,1,27.413,16.6a6.416,6.416,0,0,1-1.332-4.3v-.739A7.245,7.245,0,0,1,26.7,8.5a4.6,4.6,0,0,1,1.756-2.038,4.918,4.918,0,0,1,2.652-.71,4.927,4.927,0,0,1,3.37,1.121,4.6,4.6,0,0,1,1.478,3.146H33.46a2.524,2.524,0,0,0-.652-1.7A2.413,2.413,0,0,0,31.1,7.79a2.116,2.116,0,0,0-1.864.892,5,5,0,0,0-.635,2.768v.913a5.352,5.352,0,0,0,.594,2.864,2.077,2.077,0,0,0,1.872.9,2.458,2.458,0,0,0,1.722-.527,2.381,2.381,0,0,0,.652-1.631Zm1.1-.548a5.327,5.327,0,0,1,.515-2.382,3.767,3.767,0,0,1,1.482-1.619,4.323,4.323,0,0,1,2.245-.573,4.09,4.09,0,0,1,2.968,1.112,4.464,4.464,0,0,1,1.282,3.021l.017.614a4.694,4.694,0,0,1-1.154,3.316,4.472,4.472,0,0,1-6.2,0,4.777,4.777,0,0,1-1.158-3.387Zm2.4.17a3.357,3.357,0,0,0,.481,1.958,1.73,1.73,0,0,0,2.739.008,3.674,3.674,0,0,0,.49-2.141,3.324,3.324,0,0,0-.49-1.945,1.592,1.592,0,0,0-1.378-.69,1.566,1.566,0,0,0-1.361.686A3.735,3.735,0,0,0,39.437,13.6Zm9.836-4.578.075,1a3.156,3.156,0,0,1,2.582-1.17,2.4,2.4,0,0,1,2.382,1.37,3.084,3.084,0,0,1,2.7-1.37,2.679,2.679,0,0,1,2.175.851,3.911,3.911,0,0,1,.714,2.561V18H57.491V12.272a1.71,1.71,0,0,0-.3-1.116,1.324,1.324,0,0,0-1.054-.353,1.5,1.5,0,0,0-1.494,1.029L54.652,18h-2.4V12.281a1.689,1.689,0,0,0-.307-1.129A1.337,1.337,0,0,0,50.9,10.8a1.555,1.555,0,0,0-1.478.847V18h-2.4V9.019ZM67.12,17.087a3.008,3.008,0,0,1-2.457,1.079,2.837,2.837,0,0,1-2.2-.83,3.543,3.543,0,0,1-.776-2.432V9.019h2.4v5.809q0,1.4,1.278,1.4a1.732,1.732,0,0,0,1.677-.848V9.019h2.407V18H67.186Zm6.342-8.068.075,1.038a3.136,3.136,0,0,1,2.582-1.2,2.606,2.606,0,0,1,2.125.838,3.912,3.912,0,0,1,.714,2.507V18h-2.4V12.256a1.556,1.556,0,0,0-.332-1.108,1.486,1.486,0,0,0-1.1-.344,1.65,1.65,0,0,0-1.519.863V18H71.2V9.019ZM83.306,18H80.9V9.019h2.407ZM80.758,6.694a1.181,1.181,0,0,1,.361-.888,1.556,1.556,0,0,1,1.963,0,1.175,1.175,0,0,1,.365.888,1.178,1.178,0,0,1-.369.9,1.539,1.539,0,0,1-1.951,0A1.178,1.178,0,0,1,80.758,6.694Zm4.15,6.749a5.413,5.413,0,0,1,.942-3.345,3.057,3.057,0,0,1,2.577-1.245,2.751,2.751,0,0,1,2.167.979V5.25H93V18H90.835l-.116-.955a2.823,2.823,0,0,1-2.308,1.121,3.049,3.049,0,0,1-2.544-1.249A5.587,5.587,0,0,1,84.908,13.443Zm2.4.179a3.546,3.546,0,0,0,.44,1.937,1.433,1.433,0,0,0,1.278.673,1.605,1.605,0,0,0,1.569-.939v-3.55a1.582,1.582,0,0,0-1.552-.939Q87.307,10.8,87.307,13.621ZM100.066,18a2.664,2.664,0,0,1-.241-.805,2.9,2.9,0,0,1-2.266.971,3.189,3.189,0,0,1-2.187-.764,2.456,2.456,0,0,1-.867-1.926,2.538,2.538,0,0,1,1.058-2.191,5.222,5.222,0,0,1,3.059-.772h1.1V12a1.48,1.48,0,0,0-.32-1,1.257,1.257,0,0,0-1.009-.374,1.429,1.429,0,0,0-.95.291.987.987,0,0,0-.344.8H94.7a2.41,2.41,0,0,1,.481-1.444A3.182,3.182,0,0,1,96.546,9.23a4.961,4.961,0,0,1,1.976-.378,3.92,3.92,0,0,1,2.635.834,2.918,2.918,0,0,1,.975,2.345v3.893a4.294,4.294,0,0,0,.357,1.934V18Zm-1.984-1.668a2.066,2.066,0,0,0,.979-.237,1.554,1.554,0,0,0,.664-.635V13.916h-.9q-1.8,0-1.917,1.245L96.9,15.3a.96.96,0,0,0,.315.739A1.225,1.225,0,0,0,98.082,16.332Zm5.52-2.889a5.413,5.413,0,0,1,.942-3.345,3.057,3.057,0,0,1,2.577-1.245,2.751,2.751,0,0,1,2.167.979V5.25H111.7V18h-2.167l-.116-.955a2.823,2.823,0,0,1-2.308,1.121,3.049,3.049,0,0,1-2.544-1.249A5.587,5.587,0,0,1,103.6,13.443Zm2.4.179a3.546,3.546,0,0,0,.44,1.937,1.433,1.433,0,0,0,1.278.673,1.605,1.605,0,0,0,1.569-.939v-3.55a1.582,1.582,0,0,0-1.552-.939Q106,10.8,106,13.621Z" transform="translate(1567 6955)" fill="#12263f"/>
          <path id="Path_919047" data-name="Path 919047" d="M14.3,13.576H12.317V18H9.827V5.914h4.491a5.076,5.076,0,0,1,3.3.955,3.3,3.3,0,0,1,1.162,2.7,3.718,3.718,0,0,1-.535,2.063,3.651,3.651,0,0,1-1.623,1.316l2.615,4.939V18H16.567Zm-1.984-2.017h2.009a2.057,2.057,0,0,0,1.453-.477,1.706,1.706,0,0,0,.515-1.316,1.826,1.826,0,0,0-.486-1.345,2.018,2.018,0,0,0-1.49-.49h-2Zm12.335,6.607a4.409,4.409,0,0,1-3.217-1.212,4.308,4.308,0,0,1-1.241-3.229v-.232a5.426,5.426,0,0,1,.523-2.42A3.838,3.838,0,0,1,22.2,9.429a4.159,4.159,0,0,1,2.187-.577,3.727,3.727,0,0,1,2.9,1.162,4.722,4.722,0,0,1,1.058,3.3v.979H22.626a2.229,2.229,0,0,0,.7,1.411,2.12,2.12,0,0,0,1.482.531,2.589,2.589,0,0,0,2.167-1l1.179,1.32a3.6,3.6,0,0,1-1.461,1.191A4.793,4.793,0,0,1,24.652,18.166Zm-.274-7.379a1.5,1.5,0,0,0-1.158.484,2.5,2.5,0,0,0-.569,1.384h3.337v-.192a1.786,1.786,0,0,0-.432-1.238A1.547,1.547,0,0,0,24.378,10.787Zm9.064,5.445a1.573,1.573,0,0,0,1.079-.365,1.28,1.28,0,0,0,.432-.971H37.2a3.077,3.077,0,0,1-.5,1.673,3.286,3.286,0,0,1-1.341,1.179,4.2,4.2,0,0,1-1.88.419,3.9,3.9,0,0,1-3.038-1.224,4.845,4.845,0,0,1-1.112-3.383V13.4a4.79,4.79,0,0,1,1.1-3.312,3.854,3.854,0,0,1,3.03-1.237,3.778,3.778,0,0,1,2.7.959A3.4,3.4,0,0,1,37.2,12.364h-2.25a1.648,1.648,0,0,0-.432-1.139,1.6,1.6,0,0,0-2.362.173,3.541,3.541,0,0,0-.427,1.983v.249a3.586,3.586,0,0,0,.423,2A1.463,1.463,0,0,0,33.442,16.232Zm10.509.855a3.008,3.008,0,0,1-2.457,1.079,2.837,2.837,0,0,1-2.2-.83,3.543,3.543,0,0,1-.776-2.432V9.019h2.4v5.809q0,1.4,1.278,1.4a1.732,1.732,0,0,0,1.677-.848V9.019h2.407V18H44.018Zm9.181-5.819a6.517,6.517,0,0,0-.863-.066,1.757,1.757,0,0,0-1.785.921V18h-2.4V9.019h2.266l.066,1.071a2.223,2.223,0,0,1,2-1.237,2.514,2.514,0,0,1,.747.108Zm6.018,4.25a.773.773,0,0,0-.436-.693,4.95,4.95,0,0,0-1.4-.452q-3.2-.672-3.2-2.723a2.468,2.468,0,0,1,.992-2,4,4,0,0,1,2.594-.8,4.307,4.307,0,0,1,2.735.805,2.538,2.538,0,0,1,1.025,2.092h-2.4a1.161,1.161,0,0,0-.332-.851,1.405,1.405,0,0,0-1.038-.336,1.436,1.436,0,0,0-.938.274.865.865,0,0,0-.332.7.739.739,0,0,0,.378.643,3.885,3.885,0,0,0,1.274.423,10.407,10.407,0,0,1,1.511.4,2.482,2.482,0,0,1,1.9,2.416,2.343,2.343,0,0,1-1.054,1.988,4.548,4.548,0,0,1-2.723.76,4.75,4.75,0,0,1-2-.4,3.363,3.363,0,0,1-1.374-1.1,2.565,2.565,0,0,1-.5-1.515H56.1a1.252,1.252,0,0,0,.473.979,1.877,1.877,0,0,0,1.179.34A1.737,1.737,0,0,0,58.8,16.2.814.814,0,0,0,59.15,15.518Zm3.5-2.092a5.327,5.327,0,0,1,.515-2.382,3.768,3.768,0,0,1,1.482-1.619,4.323,4.323,0,0,1,2.245-.573,4.09,4.09,0,0,1,2.968,1.112,4.464,4.464,0,0,1,1.282,3.021l.017.614a4.694,4.694,0,0,1-1.154,3.316,4.472,4.472,0,0,1-6.2,0,4.777,4.777,0,0,1-1.158-3.387Zm2.4.17a3.357,3.357,0,0,0,.481,1.958,1.73,1.73,0,0,0,2.739.008,3.674,3.674,0,0,0,.49-2.141,3.324,3.324,0,0,0-.49-1.945,1.592,1.592,0,0,0-1.378-.69,1.566,1.566,0,0,0-1.361.686A3.736,3.736,0,0,0,65.052,13.6ZM77.5,15.518a.773.773,0,0,0-.436-.693,4.95,4.95,0,0,0-1.4-.452q-3.2-.672-3.2-2.723a2.468,2.468,0,0,1,.992-2,4,4,0,0,1,2.594-.8,4.307,4.307,0,0,1,2.735.805,2.538,2.538,0,0,1,1.025,2.092h-2.4a1.161,1.161,0,0,0-.332-.851,1.405,1.405,0,0,0-1.038-.336,1.436,1.436,0,0,0-.938.274.865.865,0,0,0-.332.7.739.739,0,0,0,.378.643,3.885,3.885,0,0,0,1.274.423,10.407,10.407,0,0,1,1.511.4,2.482,2.482,0,0,1,1.9,2.416,2.343,2.343,0,0,1-1.054,1.988,4.548,4.548,0,0,1-2.723.76,4.75,4.75,0,0,1-2-.4,3.363,3.363,0,0,1-1.374-1.1,2.565,2.565,0,0,1-.5-1.515h2.274a1.252,1.252,0,0,0,.473.979,1.877,1.877,0,0,0,1.179.34A1.737,1.737,0,0,0,77.15,16.2.814.814,0,0,0,77.5,15.518ZM93.7,13.592a5.387,5.387,0,0,1-.942,3.324,3.021,3.021,0,0,1-2.544,1.249,2.8,2.8,0,0,1-2.2-.946v4.233h-2.4V9.019h2.225l.083.88a2.819,2.819,0,0,1,2.274-1.046,3.041,3.041,0,0,1,2.582,1.229,5.532,5.532,0,0,1,.921,3.387Zm-2.4-.174a3.535,3.535,0,0,0-.444-1.934,1.446,1.446,0,0,0-1.291-.681,1.571,1.571,0,0,0-1.552.863v3.677a1.6,1.6,0,0,0,1.569.888Q91.3,16.232,91.3,13.418Zm3.511.008a5.326,5.326,0,0,1,.515-2.382,3.768,3.768,0,0,1,1.482-1.619,4.323,4.323,0,0,1,2.245-.573,4.09,4.09,0,0,1,2.968,1.112,4.464,4.464,0,0,1,1.282,3.021l.017.614a4.694,4.694,0,0,1-1.154,3.316,4.472,4.472,0,0,1-6.2,0,4.777,4.777,0,0,1-1.158-3.387Zm2.4.17a3.357,3.357,0,0,0,.481,1.958,1.73,1.73,0,0,0,2.739.008,3.674,3.674,0,0,0,.49-2.141,3.324,3.324,0,0,0-.49-1.945,1.592,1.592,0,0,0-1.378-.69,1.566,1.566,0,0,0-1.361.686A3.736,3.736,0,0,0,97.209,13.6Zm10.459-6.786V9.019H109.2v1.76h-1.536v4.482a1.07,1.07,0,0,0,.191.714.959.959,0,0,0,.73.216,3.826,3.826,0,0,0,.706-.058V17.95a4.938,4.938,0,0,1-1.453.216,2.29,2.29,0,0,1-2.573-2.548V10.778h-1.312V9.019h1.312V6.811Zm7.006,11.355a4.409,4.409,0,0,1-3.217-1.212,4.308,4.308,0,0,1-1.241-3.229v-.232a5.426,5.426,0,0,1,.523-2.42,3.838,3.838,0,0,1,1.482-1.644,4.159,4.159,0,0,1,2.187-.577,3.727,3.727,0,0,1,2.9,1.162,4.722,4.722,0,0,1,1.058,3.3v.979h-5.719a2.229,2.229,0,0,0,.7,1.411,2.12,2.12,0,0,0,1.482.531,2.589,2.589,0,0,0,2.167-1l1.179,1.32a3.6,3.6,0,0,1-1.461,1.191A4.793,4.793,0,0,1,114.674,18.166Zm-.274-7.379a1.5,1.5,0,0,0-1.158.484,2.5,2.5,0,0,0-.569,1.384h3.337v-.192a1.786,1.786,0,0,0-.432-1.238A1.547,1.547,0,0,0,114.4,10.787Zm7.537-1.768.075,1.038a3.136,3.136,0,0,1,2.582-1.2,2.606,2.606,0,0,1,2.125.838,3.912,3.912,0,0,1,.714,2.507V18h-2.4V12.256a1.556,1.556,0,0,0-.332-1.108,1.486,1.486,0,0,0-1.1-.344,1.65,1.65,0,0,0-1.519.863V18h-2.4V9.019Zm11.048,7.213a1.573,1.573,0,0,0,1.079-.365,1.28,1.28,0,0,0,.432-.971h2.25a3.077,3.077,0,0,1-.5,1.673,3.286,3.286,0,0,1-1.341,1.179,4.2,4.2,0,0,1-1.88.419,3.9,3.9,0,0,1-3.038-1.224,4.845,4.845,0,0,1-1.112-3.383V13.4a4.79,4.79,0,0,1,1.1-3.312,3.854,3.854,0,0,1,3.03-1.237,3.778,3.778,0,0,1,2.7.959,3.4,3.4,0,0,1,1.033,2.552H134.5a1.648,1.648,0,0,0-.432-1.139,1.6,1.6,0,0,0-2.362.173,3.541,3.541,0,0,0-.427,1.983v.249a3.586,3.586,0,0,0,.423,2A1.463,1.463,0,0,0,132.985,16.232ZM140.647,18H138.24V9.019h2.407ZM138.1,6.694a1.181,1.181,0,0,1,.361-.888,1.556,1.556,0,0,1,1.963,0,1.175,1.175,0,0,1,.365.888,1.178,1.178,0,0,1-.369.9,1.539,1.539,0,0,1-1.951,0A1.178,1.178,0,0,1,138.1,6.694ZM147.827,18a2.664,2.664,0,0,1-.241-.805,2.9,2.9,0,0,1-2.266.971,3.189,3.189,0,0,1-2.187-.764,2.456,2.456,0,0,1-.867-1.926,2.538,2.538,0,0,1,1.058-2.191,5.222,5.222,0,0,1,3.059-.772h1.1V12a1.48,1.48,0,0,0-.32-1,1.257,1.257,0,0,0-1.009-.374,1.429,1.429,0,0,0-.95.291.987.987,0,0,0-.344.8h-2.4a2.41,2.41,0,0,1,.481-1.444,3.182,3.182,0,0,1,1.361-1.042,4.961,4.961,0,0,1,1.976-.378,3.92,3.92,0,0,1,2.635.834,2.918,2.918,0,0,1,.975,2.345v3.893a4.294,4.294,0,0,0,.357,1.934V18Zm-1.984-1.668a2.066,2.066,0,0,0,.979-.237,1.554,1.554,0,0,0,.664-.635V13.916h-.9q-1.8,0-1.917,1.245l-.008.141a.96.96,0,0,0,.315.739A1.225,1.225,0,0,0,145.843,16.332ZM154.269,18h-2.407V5.25h2.407Zm6.109.166a4.409,4.409,0,0,1-3.217-1.212,4.308,4.308,0,0,1-1.241-3.229v-.232a5.426,5.426,0,0,1,.523-2.42,3.838,3.838,0,0,1,1.482-1.644,4.159,4.159,0,0,1,2.187-.577,3.727,3.727,0,0,1,2.9,1.162,4.722,4.722,0,0,1,1.058,3.3v.979h-5.719a2.228,2.228,0,0,0,.7,1.411,2.12,2.12,0,0,0,1.482.531,2.589,2.589,0,0,0,2.167-1l1.179,1.32a3.6,3.6,0,0,1-1.461,1.191A4.793,4.793,0,0,1,160.378,18.166Zm-.274-7.379a1.5,1.5,0,0,0-1.158.484,2.5,2.5,0,0,0-.569,1.384h3.337v-.192a1.786,1.786,0,0,0-.432-1.238A1.547,1.547,0,0,0,160.1,10.787ZM170.3,15.518a.773.773,0,0,0-.436-.693,4.95,4.95,0,0,0-1.4-.452q-3.2-.672-3.2-2.723a2.468,2.468,0,0,1,.992-2,4,4,0,0,1,2.594-.8,4.307,4.307,0,0,1,2.735.805A2.538,2.538,0,0,1,172.6,11.75h-2.4a1.161,1.161,0,0,0-.332-.851,1.405,1.405,0,0,0-1.038-.336,1.436,1.436,0,0,0-.938.274.865.865,0,0,0-.332.7.739.739,0,0,0,.378.643,3.885,3.885,0,0,0,1.274.423,10.407,10.407,0,0,1,1.511.4,2.482,2.482,0,0,1,1.9,2.416,2.343,2.343,0,0,1-1.054,1.988,4.548,4.548,0,0,1-2.723.76,4.75,4.75,0,0,1-2-.4,3.363,3.363,0,0,1-1.374-1.1,2.565,2.565,0,0,1-.5-1.515h2.274a1.252,1.252,0,0,0,.473.979,1.877,1.877,0,0,0,1.179.34,1.737,1.737,0,0,0,1.042-.261A.814.814,0,0,0,170.3,15.518Z" transform="translate(1966 7070.947)" fill="#fff"/>
          <path id="Path_919048" data-name="Path 919048" d="M31.313,13.576H29.329V18h-2.49V5.914H31.33a5.076,5.076,0,0,1,3.3.955,3.3,3.3,0,0,1,1.162,2.7,3.718,3.718,0,0,1-.535,2.063,3.651,3.651,0,0,1-1.623,1.316l2.615,4.939V18H33.579Zm-1.984-2.017h2.009a2.057,2.057,0,0,0,1.453-.477,1.706,1.706,0,0,0,.515-1.316,1.826,1.826,0,0,0-.486-1.345,2.018,2.018,0,0,0-1.49-.49h-2Zm12.335,6.607a4.409,4.409,0,0,1-3.217-1.212,4.308,4.308,0,0,1-1.241-3.229v-.232a5.426,5.426,0,0,1,.523-2.42,3.838,3.838,0,0,1,1.482-1.644A4.159,4.159,0,0,1,41.4,8.853a3.727,3.727,0,0,1,2.9,1.162,4.722,4.722,0,0,1,1.058,3.3v.979H39.639a2.229,2.229,0,0,0,.7,1.411,2.12,2.12,0,0,0,1.482.531,2.589,2.589,0,0,0,2.167-1l1.179,1.32a3.6,3.6,0,0,1-1.461,1.191A4.793,4.793,0,0,1,41.664,18.166Zm-.274-7.379a1.5,1.5,0,0,0-1.158.484,2.5,2.5,0,0,0-.569,1.384H43v-.192a1.786,1.786,0,0,0-.432-1.238A1.547,1.547,0,0,0,41.39,10.787Zm9.064,5.445a1.573,1.573,0,0,0,1.079-.365,1.28,1.28,0,0,0,.432-.971h2.25a3.077,3.077,0,0,1-.5,1.673,3.286,3.286,0,0,1-1.341,1.179,4.2,4.2,0,0,1-1.88.419,3.9,3.9,0,0,1-3.038-1.224,4.845,4.845,0,0,1-1.112-3.383V13.4a4.79,4.79,0,0,1,1.1-3.312,3.854,3.854,0,0,1,3.03-1.237,3.778,3.778,0,0,1,2.7.959,3.4,3.4,0,0,1,1.033,2.552h-2.25a1.648,1.648,0,0,0-.432-1.139,1.6,1.6,0,0,0-2.362.173,3.541,3.541,0,0,0-.427,1.983v.249a3.586,3.586,0,0,0,.423,2A1.463,1.463,0,0,0,50.455,16.232Zm10.509.855a3.008,3.008,0,0,1-2.457,1.079,2.837,2.837,0,0,1-2.2-.83,3.543,3.543,0,0,1-.776-2.432V9.019h2.4v5.809q0,1.4,1.278,1.4a1.732,1.732,0,0,0,1.677-.848V9.019h2.407V18H61.03Zm9.181-5.819a6.517,6.517,0,0,0-.863-.066,1.757,1.757,0,0,0-1.785.921V18H65.1V9.019h2.266l.066,1.071a2.223,2.223,0,0,1,2-1.237,2.514,2.514,0,0,1,.747.108Zm6.018,4.25a.773.773,0,0,0-.436-.693,4.95,4.95,0,0,0-1.4-.452q-3.2-.672-3.2-2.723a2.468,2.468,0,0,1,.992-2,4,4,0,0,1,2.594-.8,4.307,4.307,0,0,1,2.735.805A2.538,2.538,0,0,1,78.47,11.75h-2.4a1.161,1.161,0,0,0-.332-.851,1.405,1.405,0,0,0-1.038-.336,1.436,1.436,0,0,0-.938.274.865.865,0,0,0-.332.7.739.739,0,0,0,.378.643,3.885,3.885,0,0,0,1.274.423,10.407,10.407,0,0,1,1.511.4,2.482,2.482,0,0,1,1.9,2.416,2.343,2.343,0,0,1-1.054,1.988,4.548,4.548,0,0,1-2.723.76,4.75,4.75,0,0,1-2-.4,3.363,3.363,0,0,1-1.374-1.1,2.565,2.565,0,0,1-.5-1.515h2.274a1.252,1.252,0,0,0,.473.979,1.877,1.877,0,0,0,1.179.34A1.737,1.737,0,0,0,75.81,16.2.814.814,0,0,0,76.162,15.518Zm3.5-2.092a5.326,5.326,0,0,1,.515-2.382,3.768,3.768,0,0,1,1.482-1.619,4.323,4.323,0,0,1,2.245-.573,4.09,4.09,0,0,1,2.968,1.112,4.464,4.464,0,0,1,1.282,3.021l.017.614a4.694,4.694,0,0,1-1.154,3.316,4.472,4.472,0,0,1-6.2,0,4.777,4.777,0,0,1-1.158-3.387Zm2.4.17a3.357,3.357,0,0,0,.481,1.958,1.73,1.73,0,0,0,2.739.008,3.674,3.674,0,0,0,.49-2.141,3.324,3.324,0,0,0-.49-1.945,1.592,1.592,0,0,0-1.378-.69,1.566,1.566,0,0,0-1.361.686A3.736,3.736,0,0,0,82.064,13.6Zm12.451,1.922a.773.773,0,0,0-.436-.693,4.95,4.95,0,0,0-1.4-.452q-3.2-.672-3.2-2.723a2.468,2.468,0,0,1,.992-2,4,4,0,0,1,2.594-.8,4.307,4.307,0,0,1,2.735.805,2.538,2.538,0,0,1,1.025,2.092h-2.4a1.161,1.161,0,0,0-.332-.851,1.405,1.405,0,0,0-1.038-.336,1.436,1.436,0,0,0-.938.274.865.865,0,0,0-.332.7.739.739,0,0,0,.378.643,3.885,3.885,0,0,0,1.274.423,10.407,10.407,0,0,1,1.511.4,2.482,2.482,0,0,1,1.9,2.416,2.343,2.343,0,0,1-1.054,1.988,4.548,4.548,0,0,1-2.723.76,4.75,4.75,0,0,1-2-.4,3.363,3.363,0,0,1-1.374-1.1,2.565,2.565,0,0,1-.5-1.515h2.274a1.252,1.252,0,0,0,.473.979,1.877,1.877,0,0,0,1.179.34,1.737,1.737,0,0,0,1.042-.261A.814.814,0,0,0,94.515,15.518ZM105.157,18H102.75V5.25h2.407Zm1.6-4.574a5.326,5.326,0,0,1,.515-2.382,3.768,3.768,0,0,1,1.482-1.619A4.323,4.323,0,0,1,111,8.853a4.09,4.09,0,0,1,2.968,1.112,4.464,4.464,0,0,1,1.282,3.021l.017.614a4.694,4.694,0,0,1-1.154,3.316,4.472,4.472,0,0,1-6.2,0,4.777,4.777,0,0,1-1.158-3.387Zm2.4.17a3.357,3.357,0,0,0,.481,1.958,1.73,1.73,0,0,0,2.739.008,3.674,3.674,0,0,0,.49-2.141,3.324,3.324,0,0,0-.49-1.945,1.592,1.592,0,0,0-1.378-.69,1.566,1.566,0,0,0-1.361.686A3.736,3.736,0,0,0,109.158,13.6Zm11.322,2.635a1.573,1.573,0,0,0,1.079-.365,1.28,1.28,0,0,0,.432-.971h2.25a3.077,3.077,0,0,1-.5,1.673,3.286,3.286,0,0,1-1.341,1.179,4.2,4.2,0,0,1-1.88.419,3.9,3.9,0,0,1-3.038-1.224,4.845,4.845,0,0,1-1.112-3.383V13.4a4.79,4.79,0,0,1,1.1-3.312,3.854,3.854,0,0,1,3.03-1.237,3.778,3.778,0,0,1,2.7.959,3.4,3.4,0,0,1,1.033,2.552h-2.25a1.648,1.648,0,0,0-.432-1.139,1.6,1.6,0,0,0-2.362.173,3.541,3.541,0,0,0-.427,1.983v.249a3.586,3.586,0,0,0,.423,2A1.463,1.463,0,0,0,120.48,16.232ZM130.815,18a2.664,2.664,0,0,1-.241-.805,2.9,2.9,0,0,1-2.266.971,3.189,3.189,0,0,1-2.187-.764,2.456,2.456,0,0,1-.867-1.926,2.538,2.538,0,0,1,1.058-2.191,5.222,5.222,0,0,1,3.059-.772h1.1V12a1.48,1.48,0,0,0-.32-1,1.257,1.257,0,0,0-1.009-.374,1.429,1.429,0,0,0-.95.291.987.987,0,0,0-.344.8h-2.4a2.41,2.41,0,0,1,.481-1.444A3.182,3.182,0,0,1,127.3,9.23a4.961,4.961,0,0,1,1.976-.378,3.92,3.92,0,0,1,2.635.834,2.918,2.918,0,0,1,.975,2.345v3.893a4.294,4.294,0,0,0,.357,1.934V18Zm-1.984-1.668a2.066,2.066,0,0,0,.979-.237,1.554,1.554,0,0,0,.664-.635V13.916h-.9q-1.8,0-1.917,1.245l-.008.141a.96.96,0,0,0,.315.739A1.225,1.225,0,0,0,128.831,16.332ZM137.256,18h-2.407V5.25h2.407Zm6.109.166a4.409,4.409,0,0,1-3.217-1.212,4.308,4.308,0,0,1-1.241-3.229v-.232a5.426,5.426,0,0,1,.523-2.42,3.838,3.838,0,0,1,1.482-1.644,4.159,4.159,0,0,1,2.187-.577,3.727,3.727,0,0,1,2.9,1.162,4.722,4.722,0,0,1,1.058,3.3v.979H141.34a2.228,2.228,0,0,0,.7,1.411,2.12,2.12,0,0,0,1.482.531,2.589,2.589,0,0,0,2.167-1l1.179,1.32a3.6,3.6,0,0,1-1.461,1.191A4.793,4.793,0,0,1,143.365,18.166Zm-.274-7.379a1.5,1.5,0,0,0-1.158.484,2.5,2.5,0,0,0-.569,1.384H144.7v-.192a1.786,1.786,0,0,0-.432-1.238A1.547,1.547,0,0,0,143.092,10.787Zm10.193,4.731a.773.773,0,0,0-.436-.693,4.95,4.95,0,0,0-1.4-.452q-3.2-.672-3.2-2.723a2.468,2.468,0,0,1,.992-2,4,4,0,0,1,2.594-.8,4.307,4.307,0,0,1,2.735.805,2.538,2.538,0,0,1,1.025,2.092h-2.4a1.161,1.161,0,0,0-.332-.851,1.405,1.405,0,0,0-1.038-.336,1.436,1.436,0,0,0-.938.274.865.865,0,0,0-.332.7.739.739,0,0,0,.378.643,3.885,3.885,0,0,0,1.274.423,10.407,10.407,0,0,1,1.511.4,2.482,2.482,0,0,1,1.9,2.416,2.343,2.343,0,0,1-1.054,1.988,4.548,4.548,0,0,1-2.723.76,4.75,4.75,0,0,1-2-.4,3.363,3.363,0,0,1-1.374-1.1,2.565,2.565,0,0,1-.5-1.515h2.274a1.252,1.252,0,0,0,.473.979,1.877,1.877,0,0,0,1.179.34,1.737,1.737,0,0,0,1.042-.261A.814.814,0,0,0,153.285,15.518Z" transform="translate(1746 7014.005)" fill="#fff"/>
          <g id="Group_1117823" data-name="Group 1117823" transform="translate(2249 7034.005)">
            <g id="Group_1117822" data-name="Group 1117822" clip-path="url(#clip-path-5)">
              <path id="Path_918782" data-name="Path 918782" d="M33.332.095c6.338-.644,10.4,2.047,14.553,6.367C55.4,14.285,62.276,22.847,69.7,30.74c-.212,9.7.665,19.967.108,29.626C69.364,68.129,65.7,74.953,58.46,78.258,53.217,80.652,48.32,80.013,42.71,80.1a36.775,36.775,0,0,1-2.037,3.416c-3.186,3.966-8.171,3.968-11.358,0A36.774,36.774,0,0,1,27.278,80.1c-5.661-.1-10.648.57-15.916-1.927C3.907,74.643.551,67.878.164,59.883-.3,50.209.38,40.229.362,30.569,7.866,22.794,14.622,14.247,22.1,6.462,25.346,3.089,28.437.593,33.332.095M64.61,34.966l-.237-2.613C57.27,25.019,50.942,16.84,43.8,9.557c-5.947-6.063-11.662-6.063-17.609,0-7.143,7.282-13.471,15.462-20.575,22.8l-.237,2.613Zm0,4.957H5.379v4.213c2.15.379,3.474,3.294,5.577,3.244,1.553-.036,2.564-1.765,3.9-2.561,3.346-1.985,6.245-1.394,9.224.809.516.382.991,1.175,1.524,1.45,2.546,1.312,3.92-1.614,5.989-2.622,3.169-1.545,5.894-.8,8.6,1.172,1.137.828,1.156,1.806,2.981,1.75,1.585-.048,1.8-1.074,2.869-1.859,2.64-1.947,5.379-2.582,8.457-1.063,1.671.825,2.927,3.009,4.787,2.926,1.827-.081,3.337-2.948,5.322-3.247Zm0,10.409a8.141,8.141,0,0,1-8.591,1.53c-2.159-.95-3.008-3.435-5.644-3-1.1.182-1.466,1.143-2.249,1.714-2.636,1.922-5.261,2.6-8.349,1.173-2-.924-2.967-3.206-5.287-2.913-1.259.159-2.724,2.16-4.107,2.833-3.134,1.525-5.811.88-8.516-1.092-.547-.4-1.081-1.3-1.68-1.542-2.743-1.114-3.639,1.444-5.551,2.5a7.834,7.834,0,0,1-9.132-1.2,4.682,4.682,0,0,0,1.882,4.809c3.647,2.8,7.744.461,11.754.15,5.771-.447,10.542,1.994,12.5,7.565,1.053.074,6.4.386,6.827-.132.254-.308.7-1.81,1.065-2.4,2.406-3.953,6.859-5.374,11.32-5.028,4.063.315,8.454,2.776,12.026-.373a5.1,5.1,0,0,0,1.73-4.587M25.949,62.971c-.078-.795-1.431-1.66-2.1-1.99-3.436-1.7-7.121.23-10.668.5A13.1,13.1,0,0,1,5.381,60a14.371,14.371,0,0,0,10.656,14.5,20.373,20.373,0,0,0,2.848.622H26.2a19.293,19.293,0,0,1,.248-7.187H22.231V62.971ZM43.792,75.114H51.1a20.373,20.373,0,0,0,2.848-.622A14.371,14.371,0,0,0,64.607,60a13.1,13.1,0,0,1-7.8,1.483c-3.546-.268-7.232-2.2-10.668-.5-.668.33-2.022,1.2-2.1,1.99h3.717v4.957H43.544a19.766,19.766,0,0,1,.248,7.187M38.34,67.927H31.649a18.01,18.01,0,0,0-.032,8.582c.458,1.907,1.324,4.331,3.375,4.946,1.109.039,2.24-1.793,2.652-2.7a17.523,17.523,0,0,0,.7-10.828" transform="translate(0 0)" fill="#12263f"/>
            </g>
          </g>
          <g id="Group_1117827" data-name="Group 1117827" transform="translate(2009 6973.063)">
            <g id="Group_1117826" data-name="Group 1117826" clip-path="url(#clip-path-6)">
              <path id="Path_918783" data-name="Path 918783" d="M89.4,82.7h4.842a6.206,6.206,0,0,1,1.649,1.118c1.547,1.882-.042,6.02-1.65,7.459-2.835,2.536-8.552.884-12.117,1.442-3,2.464-4.838,7.775-8.824,8.886-16.494.812-33.271.686-49.775.066-4.06-1.061-5.965-6.177-8.845-8.865C11,92.035,5.124,93.942,2.228,91.153A10.98,10.98,0,0,1,0,85.883C.007,84.725,1.243,82.7,2.376,82.7h10.93c-.9-2.143-3.644-4.07-4.667-5.984a1.785,1.785,0,0,1-.322-1.063c.1-.956,5.652-7.231,6.921-8.034a36.8,36.8,0,0,1-5.919-6.528c-.441-.659-1.153-1.339-.884-2.195.121-.385,4.411-5.723,4.969-6.261a10.5,10.5,0,0,1,5.854-2.861c1.141-.113,8.982-.141,9.546.134a1.426,1.426,0,0,1-.478,2.568c-4.677,1.017-8.88-1.743-13.09,2.406A48.064,48.064,0,0,0,11.773,59.2c-.065.192-.191.328-.008.533,1.58,1.381,2.642,3.583,4.3,4.855A12.912,12.912,0,0,0,18.979,66.1H33.23V50.743a2.637,2.637,0,0,1,.351-.619l4.076-.352c-.486-1.513-3.531-4.859-2.631-6.365,2.391-1.991,3.5,2.594,4.573,4.152.4.089.448-.038.675-.287.871-.949,2.514-6.33,4.427-3.844,1.1,1.431-2.1,4.819-2.617,6.346H54.26V25.839c0-1.172,1.765-2.559,2.928-2.612,1.67-.077,4.657,2.751,6.28,3.366.938.355,14.688.464,16.1.2,3.123-.579,8.569-8,9.848.415Zm-3.044-56.45c-1.767.493-4.306,3.043-5.967,3.3-1.9.3-16.665.213-17.94-.287C60.74,28.6,59.12,26.839,57.3,26.254V52.818l3.321,0c-1.054-2.966-1.113-7.475,2.3-8.906,4.394-1.844,7.5,3.637,9.464,6.69,1.335-1.789,2.273-3.917,4.01-5.393,5.829-4.956,10.3,2.064,7.751,7.61l2.214,0ZM70.033,52.818c-.459-1.828-3.486-6.329-5.395-6.374-2.7-.064-1.847,4.825-.97,6.374Zm4.7,0h6.226c1.224-1.468,1.759-6.436-.832-6.374-1.943.046-4.94,4.524-5.395,6.374m-36.249-.277H36V66.1h2.49Zm5.258,0h-2.49V66.1h2.49Zm10.515,0H46.512V66.1H54.26Zm7.886,3.044H57.3v2.49H64.5c.192-.736-.319-.491-.685-.823-.326-.3-1.5-1.621-1.667-1.667m8.716,0H66.436l2.581,1.431,1.7.51Zm7.471,0H73.907l.142,1.941,1.7-.51Zm1.937,2.49h6.088V55.584c-1.2.157-2.985-.337-4.029.263Zm-9.408,2.767H57.3v2.214H70.863Zm15.5,0H73.907v2.214H86.359ZM70.033,66.1H57.3V82.7h3.874c-.194-2.161-.052-4.74,2.632-3.046l.134,3.047h3.323c-.736-4.9,3.655-4.841,3.041,0l2.886,0c-.267-4.875,3.778-4.888,3.2,0h3.323c-.883-5.076,3.5-4.739,2.766,0h3.874V66.1H74.737c.506,1.341,3.21,4.517,2.631,5.8-2.327,2.79-3.811-2.571-4.849-4.139-1.266.886-2.79,6.883-4.86,4.447-1.21-1.425,1.831-4.56,2.374-6.109m-36.8,3.044H18.979c-2.5,0-5.908,4.872-7.311,6.739,1.748,1.829,3.141,4.771,5.455,5.908a13.038,13.038,0,0,0,2.686.911H33.23Zm5.258,0H36V82.7h2.49Zm5.258,0h-2.49V82.7h2.49Zm10.515,0H46.512V82.7H54.26ZM93.415,85.471H3.206l-.305.573c.657,1.818.841,3.509,3.1,3.83l55.619.275c.795.571.307,2.517-.579,2.517H18.287c1.708,1.671,3.769,5.965,6.244,6.347l48-.112c2.642-1.269,3.862-4.192,5.8-6.234H66.851c-1.07,0-1.426-2.5,0-2.767l24.232-.119c1.894-.451,2.032-2.194,2.638-3.736Z" transform="translate(0 -16.794)" fill="#fff"/>
              <path id="Path_918784" data-name="Path 918784" d="M88.276,20.186c-.552.55-2.091.532-2.369-.4a33.8,33.8,0,0,1-.025-6C86.321,10.1,89.637,8.922,90,4.89c.153-1.718-.863-5.328,1.8-4.846,1.416.257,1.072,4.7.941,5.923-.425,3.945-3.42,5.111-3.994,7.905-.287,1.4.207,5.643-.465,6.314" transform="translate(-62.029 0)" fill="#fff"/>
              <path id="Path_918785" data-name="Path 918785" d="M127.151.139c.693-.172,1.732-.118,1.973.7a31.169,31.169,0,0,1-.066,6.463c-.316,1.523-3.257,5.59-4.587,6.206a1.456,1.456,0,0,1-2.1-1.526c.276-.99,3.015-2.905,3.681-4.641.654-1.705-.171-6.769,1.1-7.206" transform="translate(-88.479 -0.043)" fill="#fff"/>
              <path id="Path_918786" data-name="Path 918786" d="M243.8,59.159a1.425,1.425,0,0,1,1.348.2c1.126,1.331,1.217,7.212-1.542,5.968-1.3-.587-1.314-5.734.194-6.171" transform="translate(-175.504 -42.731)" fill="#fff"/>
              <path id="Path_918787" data-name="Path 918787" d="M265.881,59.167c3.18-.962,2.653,8.215-.354,6.061-1.029-.737-1.106-5.619.354-6.061" transform="translate(-191.503 -42.743)" fill="#fff"/>
              <path id="Path_918788" data-name="Path 918788" d="M221.028,65.117c-.486-.488-1.347-6.831,1.673-5.975,1.029.291.974,4.794.706,5.582s-1.835.939-2.379.393" transform="translate(-159.507 -42.719)" fill="#fff"/>
              <path id="Path_918789" data-name="Path 918789" d="M288.541,59.124c2.486-.8,2.341,3.96,1.958,5.29-.352,1.222-2.418,1.548-2.7.051-.18-.954-.308-5.029.742-5.341" transform="translate(-208.073 -42.699)" fill="#fff"/>
            </g>
          </g>
          <g id="Group_1117831" data-name="Group 1117831" transform="translate(1791 6922.667)">
            <g id="Group_1117830" data-name="Group 1117830" clip-path="url(#clip-path-7)">
              <path id="Path_918790" data-name="Path 918790" d="M40.283,17.958c.465-2.765,3.561-7.149,3.924-10.2.084-.706-.049-1.5,0-2.223-1.364.064-2.8-.273-2.579-1.908.526-.977,1.587-1.047,2.582-.969-.337-3.5,3.116-3.587,2.877,0,3.425-.359,3.471,3.161,0,2.88.047.721-.086,1.516,0,2.223.313,2.633,3.924,8.677,3.924,10.46V24.1c1.5.534,1.715-.88,2.541-1,.439-.064,1.15-.008,1.4.39.341.538.4,6.814.111,7.41a1.363,1.363,0,0,1-2.356,0c-.441-.913.053-3.095-.129-4.185H48.783c-.5,0-2.193-1.053-3.139-1.053S43.01,26.72,42.506,26.72H38.714V40.058a43.858,43.858,0,0,1,13.862,0V35.22c0-.9,1.761-1.327,2.379-.548.655.826-.031,4.87.273,6.135.182.284,5.438,1.61,6.243,2.517,1.337,1.505-.787,2.084-.787,2.227v8.892H76.507l12.162,6.8V47.9a8.263,8.263,0,0,0-3.247,2.9c-.546.837-1.359,3.42-1.583,3.646a1.389,1.389,0,0,1-2.23-.673c-.458-2.476,2.914-6.556,4.962-7.834-1.8-1.033-4.05-.7-5.952-.2-1.13.3-2,1.271-3.082.61-1.224-.749-.511-1.873.433-2.474,2.488-1.582,6.908-1.413,9.652-.682.265-.208-2.423-2.874-2.752-3.13-1.616-1.257-4.8-1.462-3.461-3.865,1.087-1.111,4.983,1.566,5.955,2.417A11.6,11.6,0,0,1,91.3,46.193c.837,11.586-.66,24.163,0,35.855a2.856,2.856,0,0,1-2.491,2.74c-4.069.483-9.118-.328-13.294-.056a1.805,1.805,0,0,1-.951-1.4c-.463-2.813.3-6.709-.016-9.662a4.051,4.051,0,0,0-6.671-2.487A6.962,6.962,0,0,0,66.7,73.143v9.023h4.577c.709,0,1.273,2.362-.771,2.629L1.642,84.584A3.094,3.094,0,0,1,0,82.3L.2,48.494c1.724-2.888,5.787-2.178,8.04-.328.429.352.73,1.145,1.089,1.265.548.184,1.661.018,2.457.158,2.742.485,4.345,2.4,5.347,4.853H30.606V45.551c0-.035-.442-.03-.656-.247-2.65-2.694,5.992-3.93,6.16-4.633l.043-16.9c1.6-2.539,2.128,1,4.129.337.22-1.867-.3-4.368,0-6.146m7.323-.915-1.962-4.972-1.962,4.972ZM48,19.658H42.9v3.923a6.7,6.7,0,0,1,5.491,0c-.127-.737.343-3.7-.391-3.922M33.483,54.443h8.108V46.989c0-.981,3.082-2.245,4.054-2.245S49.7,46.009,49.7,46.989v7.454h8.108l-.03-2.063c-4.416-.92-5.467-5.464-5.236-9.408a27.736,27.736,0,0,0-13.791,0c.15,3.89-.848,8.482-5.231,9.415Zm0-9.939v4.969c1.889.273,3.157-5.769,2.481-5.758Zm24.323,0-2.614-.784c-.485.548.72,6.126,2.614,5.753Zm-13.6,3.531v6.015c.332.5.9.409,1.438.409A4.582,4.582,0,0,0,46.65,54.4l.433-.35V48.035a2.032,2.032,0,0,0-2.877,0M2.621,49.474V61.243l11.528-6.432c-.1-1.532-1.963-2.519-3.313-2.7-.911-.121-2.565.2-3.251-.149-.415-.211-.541-1.029-.9-1.454a3.358,3.358,0,0,0-4.064-1.036m27.985,7.585H15.568L2.621,64.512v4.839l12.685-7.062h15.3Zm27.2,0H33.483V82.166h5.492V65.82a21.918,21.918,0,0,1,.825-2.052c2.471-4.548,9.433-4.393,11.782.167.117.227.731,1.784.731,1.885V82.166h5.492ZM88.668,69.351V64.512L75.722,57.058H60.683v5.231h4.839c1.321,0,1.2,2.615.262,2.615h-5.1V82.166h3.139v-8.5c0-1.5,1.532-3.93,2.747-4.838,4.329-3.234,10.853-.041,10.853,5.361v7.977H88.668V72.228a2.556,2.556,0,0,1-1.053-.38c-2.786-1.632-9.2-5.88-11.832-6.743-1.583-.519-8.259.812-6.227-2.381.432-.679,5.585-.523,6.573-.319a7.525,7.525,0,0,1,1.472.621c3.674,1.662,7.4,4.517,11.067,6.325M41.591,66.343V81.774l.392.392h7.323l.392-.392V66.343a10.266,10.266,0,0,0-.665-1.427,4.14,4.14,0,0,0-7.442,1.427M30.606,64.9H15.829L2.621,72.228v9.939H13.867V74.189c0-5.4,6.525-8.6,10.853-5.361,1.214.908,2.747,3.333,2.747,4.838v8.5h3.139ZM24.591,82.166V73.143c0-1.412-2.426-3-3.789-3.01-1.385-.01-4.057,1.513-4.057,3.01v9.023Z" transform="translate(0 0)" fill="#fff"/>
              <path id="Path_918791" data-name="Path 918791" d="M162.852,110.251c3.985-.557,6.395,5.227,2.507,7.495-5.554,3.24-8.983-6.59-2.507-7.495m-.016,2.869a1.31,1.31,0,0,0,.868,2.469,1.31,1.31,0,1,0-.868-2.469" transform="translate(-117.66 -81.388)" fill="#fff"/>
            </g>
          </g>
          <g id="Group_1117834" data-name="Group 1117834" transform="translate(1599 6873.196)">
            <g id="Group_1117833" data-name="Group 1117833" clip-path="url(#clip-path-8)">
              <path id="Path_918792" data-name="Path 918792" d="M31.752,168.852c1.085-.057,2.891,1.819,3.506,1.98.215.056,2.583-.846,3.515-.874a7.463,7.463,0,0,1,3.633.874l3.848-1.98c-5.592-5.55-.592-15.023,7.141-13.051a7.553,7.553,0,0,1,3.482,12.607l-.136.443c.987-.091,3.01,1.87,3.489,1.965.3.06,2.33-.779,3.094-.843a7.636,7.636,0,0,1,5.913,13.051l0,.33c4.852,1.524,8.433,6.924,8.71,11.929.069,1.246.265,2.636-.906,3.351H.968c-1.2-.728-.981-2.288-.895-3.562.334-4.907,3.942-10.24,8.7-11.718l0-.33a7.632,7.632,0,0,1,5.912-13.051c.763.064,2.794.9,3.094.843.479-.1,2.5-2.057,3.488-1.965l-1.751-2.818A7.6,7.6,0,0,1,29.9,156.318c4.863,2.262,5.585,8.849,1.854,12.534m-1.863-8.844c-3.743-4.022-10.428,1.142-7.06,5.834,3.715,5.177,11.378-1.195,7.06-5.834m18.227,0c-4.317,4.639,3.345,11.011,7.061,5.834,3.367-4.692-3.317-9.856-7.061-5.834M32.841,172.674c-3.734-2.363-9.162-2.705-12.638.3,1.54,2.561,2.031,5.12.727,7.923-.279.6-1.7,2.064-1.44,2.444,3.058,1.068,5.3,3.615,7.018,6.254a17.805,17.805,0,0,1,7.247-6.577,7.488,7.488,0,0,1-.93-9.869Zm25.674,10.672c.261-.38-1.161-1.845-1.44-2.444-1.3-2.8-.813-5.362.727-7.923-3.434-3-8.908-2.7-12.638-.3-.193.33.834,1.8,1.028,2.377a7.5,7.5,0,0,1-1.943,7.971A17.655,17.655,0,0,1,51.5,189.6c1.719-2.639,3.96-5.186,7.018-6.254m-47.658-9.059c-4.533,4.333,2.673,11.2,6.733,6.174,3.621-4.482-2.692-10.037-6.733-6.174m27.084-1.139c-5.174.895-4.281,9.354,1.255,9.08,6.154-.3,5.678-10.28-1.255-9.08m29.208,1.139c-4.041-3.862-10.353,1.692-6.733,6.174,4.06,5.025,11.267-1.841,6.733-6.174m-42.09,21.341A11.008,11.008,0,0,0,8.208,186.92a10.5,10.5,0,0,0-5.014,8.707Zm24.765,0c.116-4.264-3.13-8.383-7.078-9.766-7.143-2.5-14.075,2.425-14.786,9.766Zm24.988,0A10.56,10.56,0,0,0,69.8,186.92a11.008,11.008,0,0,0-16.85,8.707Z" transform="translate(0 -120.835)" fill="#12263f"/>
              <path id="Path_918793" data-name="Path 918793" d="M91.36,22.474a27.337,27.337,0,0,0-.834-3.405A22.35,22.35,0,0,0,64.16,3.641a31.745,31.745,0,0,0-.474,6.349c.088,1.377.992,4.118.9,5.1A1.635,1.635,0,0,1,62.039,16.1c-.433-.3-.631-1.366-.769-1.907a26.6,26.6,0,0,1-.447-8.867,13.853,13.853,0,0,1,.89-3.795C62.666.189,69.062-.056,70.732.043A26.777,26.777,0,0,1,86.117,6.455,26.371,26.371,0,0,1,104.644.043c1.209.072,5.212.558,5.876,1.486a16.483,16.483,0,0,1,.916,3.992c2.318,20.837-20,35.4-38.152,24.989-1.412-.81-5.762-3.281-4.241-5.143,1.291-1.58,3.355.969,4.529,1.731,4.378,2.84,10.156,4.527,15.332,3.409l-5.288-5.2c-1.89-.408-6.868.534-8.308-.393-1.313-.846-.3-2.776.322-2.776h4.8l-4.173-4.193c-1.732-.308-4.105.257-5.749-.051a1.81,1.81,0,0,1-1.23-1.651c.11-1.713,2.577-1.5,3.79-1.469-.756-1.24-4.428-3.434-2.785-5.125s4,2.149,5.238,2.9c.112-1.271-.546-3.554,1.25-3.787,2.873-.372,1.181,5.012,1.7,6.753l4.193,4.173V15.335c0-.884,1.941-1.864,2.785-.778.879,1.131,0,6.63.384,8.318l5.532,5.512c-.145-1.9.2-4.052,0-5.912m16.72-18.841C102,2.312,94.362,3.642,89.5,7.676c-.453.376-1.289.849-.938,1.519,2.073,2.073,3.146,4.811,4.469,7.362,2-1.207-.851-8.589,2.851-7.759,1.581.355.929,2.6,1.056,3.747,1.4-.842,3.349-4.435,5.194-2.911,1.809,1.494-2.028,4-2.742,5.14,1.213-.035,3.681-.245,3.79,1.469a1.81,1.81,0,0,1-1.23,1.651c-1.555.292-4.358-.362-5.749.051a12.557,12.557,0,0,0-2.13,2.124c-.18.628.311,1.394.19,2.067,4.551-.837,4.884,3.7.22,3.124l-.22,4.017c10.314-3.786,16.008-14.963,13.818-25.645" transform="translate(-47.115 0)" fill="#12263f"/>
              <path id="Path_918794" data-name="Path 918794" d="M78.216,88.26a1.513,1.513,0,1,1,.535,2.973c-1.727.214-2.367-2.6-.535-2.973" transform="translate(-59.909 -68.536)" fill="#12263f"/>
            </g>
          </g>
        </g>
      </g>
    </g>
  </g>
</svg>
