<svg xmlns="http://www.w3.org/2000/svg" xmlns:xlink="http://www.w3.org/1999/xlink" width="1030" height="470.654" viewBox="0 0 1030 470.654">
  <defs>
    <clipPath id="clip-path">
      <path id="Path_608976" data-name="Path 608976" d="M16,0h998a15.942,15.942,0,0,1,16,15.884V442.768a15.942,15.942,0,0,1-16,15.884H16A15.942,15.942,0,0,1,0,442.768V15.884A15.942,15.942,0,0,1,16,0Z" fill="#d9e6ff"/>
    </clipPath>
    <radialGradient id="radial-gradient" cx="0.5" cy="0.5" r="0.5" gradientUnits="objectBoundingBox">
      <stop offset="0" stop-color="#fff"/>
      <stop offset="0.679" stop-color="#fffffb"/>
      <stop offset="1" stop-color="#fffceb"/>
    </radialGradient>
    <clipPath id="clip-path-2">
      <rect id="Rectangle_408137" data-name="Rectangle 408137" width="217.233" height="121.192" fill="none"/>
    </clipPath>
    <clipPath id="clip-path-3">
      <rect id="Rectangle_408136" data-name="Rectangle 408136" width="954.605" height="121.192" fill="none"/>
    </clipPath>
    <clipPath id="clip-path-4">
      <rect id="Rectangle_408137-2" data-name="Rectangle 408137" width="217.811" height="121.515" fill="none"/>
    </clipPath>
    <clipPath id="clip-path-5">
      <rect id="Rectangle_408136-2" data-name="Rectangle 408136" width="957.145" height="121.515" fill="none"/>
    </clipPath>
    <clipPath id="clip-path-6">
      <rect id="Rectangle_408309" data-name="Rectangle 408309" width="967" height="273.409" fill="none"/>
    </clipPath>
    <clipPath id="clip-path-7">
      <rect id="Rectangle_408314" data-name="Rectangle 408314" width="102.046" height="99.171" fill="#050c68"/>
    </clipPath>
    <clipPath id="clip-path-8">
      <rect id="Rectangle_408317" data-name="Rectangle 408317" width="97.424" height="97.726" fill="none"/>
    </clipPath>
    <clipPath id="clip-path-9">
      <rect id="Rectangle_408315" data-name="Rectangle 408315" width="102.054" height="93.451" fill="none"/>
    </clipPath>
    <clipPath id="clip-path-10">
      <rect id="Rectangle_408316" data-name="Rectangle 408316" width="102.561" height="98.332" fill="#050c68"/>
    </clipPath>
  </defs>
  <g id="Group_1118048" data-name="Group 1118048" transform="translate(-285.711 -20814.666)">
    <g id="Group_1117936" data-name="Group 1117936">
      <g id="Group_1116936" data-name="Group 1116936" transform="translate(1.043 19695.666)">
        <g id="Mask_Group_1098656" data-name="Mask Group 1098656" transform="translate(284.668 1119)" clip-path="url(#clip-path)">
          <path id="Path_874294" data-name="Path 874294" d="M0,0H1030V480.493H0Z" transform="translate(0.289 -11.913)" fill="url(#radial-gradient)"/>
        </g>
      </g>
      <g id="Group_1117641" data-name="Group 1117641" transform="translate(297.767 20814.666)">
        <g id="Group_1117640" data-name="Group 1117640" transform="translate(0 0)" clip-path="url(#clip-path-2)">
          <g id="Group_1117639" data-name="Group 1117639" transform="translate(0 0)">
            <g id="Group_1117638" data-name="Group 1117638" clip-path="url(#clip-path-3)">
              <path id="Path_896447" data-name="Path 896447" d="M86.455,33.16c.9,2.991,1.519,6.481-.284,9.031-1.533,2.17-4.478,2.975-7.112,2.628a19.984,19.984,0,0,1-7.325-3,56.726,56.726,0,0,1,4.89,32.986c-.74,4.784-2.7,10.145-7.277,11.717-3.48,1.2-7.431-.331-10.1-2.869s-4.308-5.938-5.895-9.258a63.014,63.014,0,0,1-2.668,31.494c-1.449,4.108-3.546,8.309-7.316,10.492-5.792,3.355-13.721.42-17.58-5.05s-4.39-12.658-3.542-19.3,2.921-13.079,3.779-19.719A24.748,24.748,0,0,1,8.2,74.4a11.875,11.875,0,0,1-6.306-3.6C-.2,68.24-.432,64.521.582,61.37a23.387,23.387,0,0,1,5.34-8.285A70.435,70.435,0,0,1,23.9,38.87c-4.518.139-9.718-.016-12.581-3.515-2.134-2.609-2.229-6.46-.975-9.589S14,20.113,16.538,17.89C25.793,9.775,37.388,4.8,49.334,2.208c4.435-.964,12.69-3.546,16.717-1.341,4.708,2.578,9.086,9.658,11.934,14.041A70.892,70.892,0,0,1,86.455,33.16" transform="translate(0 3.386)" fill="#7099ff"/>
              <path id="Path_896448" data-name="Path 896448" d="M30.115,0a.144.144,0,0,1,.057.012A.146.146,0,0,1,30.249.2C30.005.774,5.85,58.034.29,117.48a.141.141,0,0,1-.158.131A.146.146,0,0,1,0,117.453C5.566,57.96,29.738.66,29.982.088A.145.145,0,0,1,30.115,0" transform="translate(34.243 3.241)" fill="#42353b"/>
              <path id="Path_896449" data-name="Path 896449" d="M45.407,0a.146.146,0,0,1,.121.065L68.882,35.283a.145.145,0,0,1-.242.16L45.354.328.2,20.285a.145.145,0,1,1-.117-.266L45.348.012A.157.157,0,0,1,45.407,0" transform="translate(1.75 54.037)" fill="#42353b"/>
              <path id="Path_896450" data-name="Path 896450" d="M49.623,0a.144.144,0,0,1,.116.059L73.309,31.625a.145.145,0,1,1-.232.174L49.573.321.2,19.8a.144.144,0,0,1-.188-.081.145.145,0,0,1,.082-.189L49.57.011A.125.125,0,0,1,49.623,0" transform="translate(9.71 16.161)" fill="#42353b"/>
              <path id="Path_896451" data-name="Path 896451" d="M16.806,0h.01a.142.142,0,0,1,.1.055L29.835,16.438a.145.145,0,0,1-.023.2.147.147,0,0,1-.2-.023L16.79.36.246,16.118a.146.146,0,0,1-.2-.21L16.705.04a.144.144,0,0,1,.1-.04" transform="translate(22.08 89.256)" fill="#42353b"/>
              <path id="Path_896452" data-name="Path 896452" d="M177.422,0H0A16.855,16.855,0,0,0,8.522,9.5c5.232,2.628,11.292,3,17.142,2.937a6.2,6.2,0,0,1,3.058.474,6.435,6.435,0,0,1,2.152,2.616c4.492,7.915,11.514,14.836,20.333,17.077s19.361-1.259,23.413-9.4c3.223,6.6,7.274,12.959,12.992,17.562s13.334,7.264,20.521,5.762a20.549,20.549,0,0,0,15.884-18.334c.044-.8.121-1.733.8-2.164a2.4,2.4,0,0,1,1.755-.088c5.541,1.126,11.214,2.363,16.8,1.457s11.127-4.492,12.518-9.968c.42-1.634.739-3.709,2.351-4.183a4.787,4.787,0,0,1,2.506.265,13.6,13.6,0,0,0,12.97-3.643A13.637,13.637,0,0,0,177.422,0" transform="translate(24.391 0)" fill="#ffb149"/>
            </g>
          </g>
        </g>
      </g>
      <g id="Group_1117865" data-name="Group 1117865" transform="translate(1082.044 21163.805)">
        <g id="Group_1117640-2" data-name="Group 1117640" clip-path="url(#clip-path-4)">
          <g id="Group_1117639-2" data-name="Group 1117639" transform="translate(-739.334)">
            <g id="Group_1117638-2" data-name="Group 1117638" clip-path="url(#clip-path-5)">
              <path id="Path_896447-2" data-name="Path 896447" d="M.877,84.872c-.9-3-1.523-6.5.284-9.055,1.537-2.176,4.49-2.983,7.131-2.635a20.037,20.037,0,0,1,7.345,3.005,56.877,56.877,0,0,1-4.9-33.074c.742-4.8,2.706-10.172,7.3-11.748,3.49-1.2,7.451.332,10.123,2.877s4.319,5.954,5.91,9.282a63.182,63.182,0,0,1,2.675-31.578c1.453-4.119,3.555-8.331,7.335-10.52C49.88-1.936,57.83,1.006,61.7,6.491s4.4,12.691,3.551,19.35-2.929,13.114-3.789,19.772a24.814,24.814,0,0,1,17.875-2.089,11.906,11.906,0,0,1,6.323,3.605c2.1,2.571,2.333,6.3,1.316,9.459a23.449,23.449,0,0,1-5.354,8.307A70.623,70.623,0,0,1,63.6,79.147c4.53-.139,9.744.016,12.615,3.524,2.139,2.616,2.235,6.477.978,9.615s-3.668,5.668-6.208,7.9C61.7,108.32,50.074,113.3,38.1,115.907c-4.447.967-12.724,3.555-16.761,1.344-4.72-2.585-9.11-9.683-11.966-14.079a71.08,71.08,0,0,1-8.492-18.3" transform="translate(869.583 0)" fill="#7099ff"/>
              <path id="Path_896448-2" data-name="Path 896448" d="M35.163,118.272a.144.144,0,0,1-.057-.012.146.146,0,0,1-.077-.191C35.273,117.5,59.492,60.084,65.067.479a.142.142,0,0,1,.159-.131.146.146,0,0,1,.131.159c-5.58,59.651-29.817,117.1-30.061,117.677a.146.146,0,0,1-.133.088" transform="translate(857.453 -0.007)" fill="#42353b"/>
              <path id="Path_896449-2" data-name="Path 896449" d="M25.352,67.966a.146.146,0,0,1-.122-.065L1.814,32.588a.145.145,0,0,1,.242-.161L25.4,67.637l45.27-20.011a.146.146,0,1,1,.118.267L25.41,67.954a.158.158,0,0,1-.059.012" transform="translate(884.511 -0.631)" fill="#42353b"/>
              <path id="Path_896450-2" data-name="Path 896450" d="M33.707,106.771a.144.144,0,0,1-.117-.059L9.959,75.062a.145.145,0,1,1,.232-.175L33.757,106.45,83.264,86.915a.144.144,0,0,1,.188.081.146.146,0,0,1-.082.189L33.76,106.761a.125.125,0,0,1-.053.011" transform="translate(863.946 -1.46)" fill="#42353b"/>
              <path id="Path_896451-2" data-name="Path 896451" d="M35.674,32.326h-.01a.143.143,0,0,1-.1-.055L22.61,15.844a.145.145,0,0,1,.024-.2.147.147,0,0,1,.2.024l12.851,16.3,16.589-15.8a.146.146,0,0,1,.2.211L35.775,32.286a.145.145,0,0,1-.1.04" transform="translate(882.482 -0.305)" fill="#42353b"/>
              <path id="Path_896452-2" data-name="Path 896452" d="M24.952,123H202.846a16.9,16.9,0,0,0-8.545-9.529c-5.246-2.635-11.322-3.011-17.188-2.944a6.22,6.22,0,0,1-3.066-.476,6.452,6.452,0,0,1-2.158-2.623c-4.5-7.936-11.544-14.876-20.387-17.122s-19.413,1.262-23.475,9.429C124.8,93.113,120.733,86.738,115,82.123s-13.37-7.283-20.576-5.777A20.6,20.6,0,0,0,78.5,94.729c-.044.8-.122,1.737-.8,2.17a2.4,2.4,0,0,1-1.76.088C70.386,95.858,64.7,94.618,59.1,95.526s-11.157,4.5-12.551,9.994c-.421,1.638-.741,3.719-2.357,4.195a4.8,4.8,0,0,1-2.513-.266A13.35,13.35,0,0,0,24.952,123" transform="translate(729.843 -1.481)" fill="#ffb149"/>
              <path id="Path_918843" data-name="Path 918843" d="M24.952,123H202.846a16.9,16.9,0,0,0-8.545-9.529c-5.246-2.635-11.322-3.011-17.188-2.944a6.22,6.22,0,0,1-3.066-.476,6.452,6.452,0,0,1-2.158-2.623c-4.5-7.936-11.544-14.876-20.387-17.122s-19.413,1.262-23.475,9.429C124.8,93.113,120.733,86.738,115,82.123s-13.37-7.283-20.576-5.777A20.6,20.6,0,0,0,78.5,94.729c-.044.8-.122,1.737-.8,2.17a2.4,2.4,0,0,1-1.76.088C70.386,95.858,64.7,94.618,59.1,95.526s-11.157,4.5-12.551,9.994c-.421,1.638-.741,3.719-2.357,4.195a4.8,4.8,0,0,1-2.513-.266A13.35,13.35,0,0,0,24.952,123" transform="translate(312.347 -1.481)" fill="#ffb149"/>
            </g>
          </g>
        </g>
      </g>
      <g id="Group_1117855" data-name="Group 1117855" transform="translate(322.711 20907.686)">
        <g id="Group_1117854" data-name="Group 1117854" clip-path="url(#clip-path-6)">
          <path id="Path_918800" data-name="Path 918800" d="M136.709,0A136.709,136.709,0,0,0,0,136.708H42.23a94.479,94.479,0,0,1,188.958,0h42.23A136.71,136.71,0,0,0,136.709,0" transform="translate(0 0)" fill="#ffc811"/>
          <path id="Path_918801" data-name="Path 918801" d="M534.694,0a136.709,136.709,0,0,0-136.71,136.709h42.23a94.479,94.479,0,0,1,188.958,0H671.4A136.71,136.71,0,0,0,534.694,0" transform="translate(64.392 0)" fill="#f6ae5c"/>
          <path id="Path_918802" data-name="Path 918802" d="M335.709,254.372a136.709,136.709,0,0,0,136.71-136.709h-42.23a94.479,94.479,0,1,1-188.958,0H199A136.708,136.708,0,0,0,335.709,254.372" transform="translate(32.197 19.037)" fill="#685700"/>
          <path id="Path_918803" data-name="Path 918803" d="M733.7,254.372a136.708,136.708,0,0,0,136.71-136.709H828.178a94.478,94.478,0,1,1-188.957,0H596.99A136.709,136.709,0,0,0,733.7,254.372" transform="translate(96.591 19.037)" fill="#1e2ad5"/>
          <path id="Path_918804" data-name="Path 918804" d="M207.776,128.992A79.091,79.091,0,1,1,128.684,49.9a79.092,79.092,0,0,1,79.092,79.09" transform="translate(8.024 8.074)" fill="#ffc811"/>
          <path id="Path_918805" data-name="Path 918805" d="M126.691,191.775A64.776,64.776,0,1,1,191.467,127a64.85,64.85,0,0,1-64.776,64.776" transform="translate(10.018 10.067)" fill="#fff"/>
          <path id="Path_918806" data-name="Path 918806" d="M406.775,128.992a79.09,79.09,0,1,1-79.09-79.09,79.09,79.09,0,0,1,79.09,79.09" transform="translate(40.222 8.074)" fill="#685700"/>
          <path id="Path_918807" data-name="Path 918807" d="M325.691,191.775A64.776,64.776,0,1,1,390.468,127a64.85,64.85,0,0,1-64.777,64.776" transform="translate(42.215 10.067)" fill="#fff"/>
          <path id="Path_918808" data-name="Path 918808" d="M605.76,128.992A79.09,79.09,0,1,1,526.671,49.9a79.091,79.091,0,0,1,79.089,79.09" transform="translate(72.416 8.074)" fill="#f6ae5c"/>
          <path id="Path_918809" data-name="Path 918809" d="M524.676,191.775A64.776,64.776,0,1,1,589.451,127a64.85,64.85,0,0,1-64.775,64.776" transform="translate(74.41 10.067)" fill="#fff"/>
          <path id="Path_918810" data-name="Path 918810" d="M804.766,128.992a79.09,79.09,0,1,1-79.09-79.09,79.09,79.09,0,0,1,79.09,79.09" transform="translate(104.615 8.074)" fill="#1e2ad5"/>
          <path id="Path_918811" data-name="Path 918811" d="M723.682,191.775A64.776,64.776,0,1,1,788.458,127a64.85,64.85,0,0,1-64.776,64.776" transform="translate(106.608 10.067)" fill="#fff"/>
        </g>
      </g>
      <g id="Group_1117579" data-name="Group 1117579" transform="translate(1373.043 15220.262)">
        <path id="Path_919179" data-name="Path 919179" d="M9,0H174.711a9,9,0,0,1,9,9V48a9,9,0,0,1-9,9H9a9,9,0,0,1-9-9V9A9,9,0,0,1,9,0Z" transform="translate(-1003.043 5918.27)" fill="#ffc811"/>
        <path id="Path_919180" data-name="Path 919180" d="M9,0H181a9,9,0,0,1,9,9V48a9,9,0,0,1-9,9H9a9,9,0,0,1-9-9V9A9,9,0,0,1,9,0Z" transform="translate(-775.332 5659)" fill="#685700"/>
        <path id="Path_918837" data-name="Path 918837" d="M9,0H217.289a9,9,0,0,1,9,9V48a9,9,0,0,1-9,9H9a9,9,0,0,1-9-9V9A9,9,0,0,1,9,0Z" transform="translate(-311.332 5655)" fill="#1e2ad5"/>
        <path id="Path_919181" data-name="Path 919181" d="M9,0H185a9,9,0,0,1,9,9V48a9,9,0,0,1-9,9H9a9,9,0,0,1-9-9V9A9,9,0,0,1,9,0Z" transform="translate(-547.043 5918.27)" fill="#f6ae5c"/>
        <path id="Path_919182" data-name="Path 919182" d="M11.369,18V5.914h3.569a5.6,5.6,0,0,1,2.843.714A4.868,4.868,0,0,1,19.7,8.653a6.429,6.429,0,0,1,.681,3v.606a6.4,6.4,0,0,1-.685,3.021,4.809,4.809,0,0,1-1.951,2.009,5.858,5.858,0,0,1-2.9.706Zm2.1-10.393v8.716h1.37a3.154,3.154,0,0,0,2.536-1.033,4.5,4.5,0,0,0,.9-2.968V11.65a4.619,4.619,0,0,0-.855-3,3.031,3.031,0,0,0-2.482-1.038ZM24.427,18H22.409V9.019h2.017ZM22.285,6.686a1.071,1.071,0,0,1,.295-.772,1.113,1.113,0,0,1,.843-.307,1.127,1.127,0,0,1,.847.307,1.062,1.062,0,0,1,.3.772,1.038,1.038,0,0,1-.3.76,1.136,1.136,0,0,1-.847.3,1.122,1.122,0,0,1-.843-.3A1.046,1.046,0,0,1,22.285,6.686Zm9.372,8.874a.914.914,0,0,0-.444-.822,4.723,4.723,0,0,0-1.473-.5,7.574,7.574,0,0,1-1.718-.548,2.293,2.293,0,0,1-1.511-2.117,2.391,2.391,0,0,1,.979-1.942,3.872,3.872,0,0,1,2.49-.78,4.029,4.029,0,0,1,2.6.8,2.529,2.529,0,0,1,.992,2.067H31.557a1.243,1.243,0,0,0-.432-.967,1.654,1.654,0,0,0-1.146-.386,1.787,1.787,0,0,0-1.083.307.968.968,0,0,0-.419.822.818.818,0,0,0,.39.722,5.365,5.365,0,0,0,1.577.519,7.466,7.466,0,0,1,1.864.623,2.639,2.639,0,0,1,1,.867,2.212,2.212,0,0,1,.328,1.229,2.34,2.34,0,0,1-1,1.963A4.283,4.283,0,0,1,30,18.166a4.644,4.644,0,0,1-1.967-.4,3.238,3.238,0,0,1-1.345-1.1,2.594,2.594,0,0,1-.481-1.5H28.17a1.421,1.421,0,0,0,.54,1.1,2.1,2.1,0,0,0,1.32.386,2.04,2.04,0,0,0,1.212-.3A.938.938,0,0,0,31.656,15.56Zm7.695,2.606a4.173,4.173,0,0,1-3.109-1.208,4.381,4.381,0,0,1-1.191-3.217v-.249a5.389,5.389,0,0,1,.519-2.4,3.949,3.949,0,0,1,1.457-1.648,3.851,3.851,0,0,1,2.092-.589,3.525,3.525,0,0,1,2.835,1.17,4.949,4.949,0,0,1,1,3.312v.813H37.085a2.7,2.7,0,0,0,.743,1.76,2.23,2.23,0,0,0,1.639.647,2.731,2.731,0,0,0,2.258-1.121l1.087,1.038a3.631,3.631,0,0,1-1.44,1.249A4.509,4.509,0,0,1,39.351,18.166Zm-.241-7.695a1.7,1.7,0,0,0-1.341.581,3.012,3.012,0,0,0-.652,1.619h3.843v-.149a2.452,2.452,0,0,0-.54-1.531A1.686,1.686,0,0,0,39.111,10.471Zm7.28-1.453.058,1.038a3.229,3.229,0,0,1,2.615-1.2q2.806,0,2.855,3.212V18H49.9V12.181a1.85,1.85,0,0,0-.369-1.266,1.554,1.554,0,0,0-1.208-.411,1.944,1.944,0,0,0-1.818,1.1V18H44.49V9.019Zm4.9-3.586a2.231,2.231,0,0,1-.527,1.519,1.681,1.681,0,0,1-1.324.606,1.972,1.972,0,0,1-.56-.071,3.564,3.564,0,0,1-.672-.32,3.323,3.323,0,0,0-.614-.3,1.465,1.465,0,0,0-.394-.05.7.7,0,0,0-.535.237.872.872,0,0,0-.22.618L45.2,7.607a2.3,2.3,0,0,1,.527-1.536,1.654,1.654,0,0,1,1.316-.623,2.449,2.449,0,0,1,1.141.374,2.413,2.413,0,0,0,1.1.374.717.717,0,0,0,.54-.237.874.874,0,0,0,.224-.627ZM53.6,13.426a5.3,5.3,0,0,1,.523-2.378,3.819,3.819,0,0,1,1.469-1.627,4.14,4.14,0,0,1,2.175-.569,3.923,3.923,0,0,1,2.951,1.17,4.6,4.6,0,0,1,1.224,3.1l.008.473a5.343,5.343,0,0,1-.51,2.374,3.773,3.773,0,0,1-1.461,1.619,4.17,4.17,0,0,1-2.2.573A3.9,3.9,0,0,1,54.737,16.9,4.848,4.848,0,0,1,53.6,13.526Zm2.017.174a3.619,3.619,0,0,0,.573,2.171,1.862,1.862,0,0,0,1.594.784,1.842,1.842,0,0,0,1.59-.8,4,4,0,0,0,.569-2.333,3.572,3.572,0,0,0-.585-2.158,1.973,1.973,0,0,0-3.158-.012A3.922,3.922,0,0,0,55.613,13.6Zm11.9-.158a5.34,5.34,0,0,1,.963-3.333,3.085,3.085,0,0,1,2.582-1.258,2.931,2.931,0,0,1,2.308,1V5.25h2.017V18H73.551l-.1-.93a2.973,2.973,0,0,1-2.416,1.1,3.068,3.068,0,0,1-2.552-1.27A5.535,5.535,0,0,1,67.508,13.443Zm2.017.174a3.739,3.739,0,0,0,.527,2.137,1.71,1.71,0,0,0,1.5.768,1.9,1.9,0,0,0,1.81-1.1V11.583A1.876,1.876,0,0,0,71.567,10.5a1.723,1.723,0,0,0-1.511.776A4.163,4.163,0,0,0,69.525,13.617Zm11.912,4.549a4.173,4.173,0,0,1-3.109-1.208,4.381,4.381,0,0,1-1.191-3.217v-.249a5.389,5.389,0,0,1,.519-2.4,3.949,3.949,0,0,1,1.457-1.648A3.851,3.851,0,0,1,81.2,8.853a3.525,3.525,0,0,1,2.835,1.17,4.949,4.949,0,0,1,1,3.312v.813H79.17a2.7,2.7,0,0,0,.743,1.76,2.23,2.23,0,0,0,1.639.647,2.731,2.731,0,0,0,2.258-1.121L84.9,16.473a3.631,3.631,0,0,1-1.44,1.249A4.509,4.509,0,0,1,81.436,18.166ZM81.2,10.471a1.7,1.7,0,0,0-1.341.581,3.012,3.012,0,0,0-.652,1.619h3.843v-.149a2.452,2.452,0,0,0-.54-1.531A1.686,1.686,0,0,0,81.2,10.471ZM22.779,35.6a5.348,5.348,0,0,1-.946,3.324,3.031,3.031,0,0,1-2.54,1.241,3.051,3.051,0,0,1-2.366-.971v4.258H14.91V31.019h1.859l.083.913a2.963,2.963,0,0,1,2.416-1.079,3.062,3.062,0,0,1,2.577,1.224,5.49,5.49,0,0,1,.934,3.4Zm-2.009-.174a3.746,3.746,0,0,0-.535-2.133A1.741,1.741,0,0,0,18.7,32.5a1.856,1.856,0,0,0-1.776,1.021V37.51a1.873,1.873,0,0,0,1.793,1.046,1.739,1.739,0,0,0,1.507-.776A4.124,4.124,0,0,0,20.77,35.426Zm8.417-2.565a4.992,4.992,0,0,0-.822-.066A1.85,1.85,0,0,0,26.5,33.857V40H24.48V31.019h1.926l.05,1a2.273,2.273,0,0,1,2.025-1.17,1.888,1.888,0,0,1,.714.116Zm.6,2.565a5.3,5.3,0,0,1,.523-2.378,3.819,3.819,0,0,1,1.469-1.627,4.14,4.14,0,0,1,2.175-.569,3.923,3.923,0,0,1,2.951,1.17,4.6,4.6,0,0,1,1.224,3.1l.008.473a5.343,5.343,0,0,1-.51,2.374,3.773,3.773,0,0,1-1.461,1.619,4.17,4.17,0,0,1-2.2.573A3.9,3.9,0,0,1,30.926,38.9a4.848,4.848,0,0,1-1.141-3.374ZM31.8,35.6a3.619,3.619,0,0,0,.573,2.171,1.862,1.862,0,0,0,1.594.784,1.842,1.842,0,0,0,1.59-.8,4,4,0,0,0,.569-2.333,3.572,3.572,0,0,0-.585-2.158,1.973,1.973,0,0,0-3.158-.012A3.922,3.922,0,0,0,31.8,35.6Zm7.662-.158a5.34,5.34,0,0,1,.963-3.333,3.085,3.085,0,0,1,2.582-1.258,2.931,2.931,0,0,1,2.308,1v-4.6h2.017V40H45.506l-.1-.93a2.973,2.973,0,0,1-2.416,1.1,3.068,3.068,0,0,1-2.552-1.27A5.535,5.535,0,0,1,39.463,35.443Zm2.017.174a3.739,3.739,0,0,0,.527,2.137,1.71,1.71,0,0,0,1.5.768,1.9,1.9,0,0,0,1.81-1.1V33.583A1.876,1.876,0,0,0,43.522,32.5a1.723,1.723,0,0,0-1.511.776A4.163,4.163,0,0,0,41.48,35.617Zm13.4,3.5a3.128,3.128,0,0,1-2.523,1.046,2.788,2.788,0,0,1-2.212-.855,3.637,3.637,0,0,1-.751-2.474V31.019h2.017v5.794q0,1.71,1.419,1.71a1.993,1.993,0,0,0,1.984-1.054v-6.45h2.017V40h-1.9Zm7.695-.564a1.824,1.824,0,0,0,1.253-.44,1.5,1.5,0,0,0,.531-1.087h1.9a2.963,2.963,0,0,1-.523,1.565,3.43,3.43,0,0,1-1.328,1.15,3.958,3.958,0,0,1-1.81.423,3.829,3.829,0,0,1-2.988-1.22,4.84,4.84,0,0,1-1.1-3.37v-.208a4.759,4.759,0,0,1,1.1-3.283,3.8,3.8,0,0,1,2.988-1.233,3.69,3.69,0,0,1,2.611.934,3.345,3.345,0,0,1,1.058,2.453h-1.9a1.847,1.847,0,0,0-.527-1.27,1.7,1.7,0,0,0-1.258-.5,1.775,1.775,0,0,0-1.511.71,3.621,3.621,0,0,0-.54,2.154v.324a3.682,3.682,0,0,0,.527,2.179A1.773,1.773,0,0,0,62.573,38.556Zm7.736-9.72v2.183h1.585v1.494H70.309v5.014a1.1,1.1,0,0,0,.2.743.943.943,0,0,0,.726.228,3.107,3.107,0,0,0,.706-.083v1.561a4.968,4.968,0,0,1-1.328.191q-2.324,0-2.324-2.565V32.513H66.814V31.019h1.478V28.835Zm2.5,6.591a5.3,5.3,0,0,1,.523-2.378A3.819,3.819,0,0,1,74.8,31.421a4.14,4.14,0,0,1,2.175-.569,3.923,3.923,0,0,1,2.951,1.17,4.6,4.6,0,0,1,1.224,3.1l.008.473a5.343,5.343,0,0,1-.51,2.374,3.773,3.773,0,0,1-1.461,1.619,4.17,4.17,0,0,1-2.2.573A3.9,3.9,0,0,1,73.949,38.9a4.848,4.848,0,0,1-1.141-3.374Zm2.017.174a3.619,3.619,0,0,0,.573,2.171,1.862,1.862,0,0,0,1.594.784,1.842,1.842,0,0,0,1.59-.8,4,4,0,0,0,.569-2.333,3.572,3.572,0,0,0-.585-2.158,1.973,1.973,0,0,0-3.158-.012A3.922,3.922,0,0,0,74.825,35.6Z" transform="translate(-959.154 5926.27)" fill="#050c68"/>
        <path id="Path_919183" data-name="Path 919183" d="M16.061,13.518V18h-2.1V5.914h4.624A4.675,4.675,0,0,1,21.8,6.969a3.549,3.549,0,0,1,1.191,2.792,3.431,3.431,0,0,1-1.166,2.767,4.9,4.9,0,0,1-3.266.989Zm0-1.693h2.523a2.485,2.485,0,0,0,1.71-.527,1.937,1.937,0,0,0,.589-1.523,2.09,2.09,0,0,0-.6-1.565,2.3,2.3,0,0,0-1.644-.6H16.061Zm13.273-.963a4.991,4.991,0,0,0-.822-.066,1.85,1.85,0,0,0-1.868,1.063V18H24.627V9.019h1.926l.05,1a2.273,2.273,0,0,1,2.025-1.17,1.888,1.888,0,0,1,.714.116Zm.6,2.565a5.3,5.3,0,0,1,.523-2.378,3.819,3.819,0,0,1,1.469-1.627A4.14,4.14,0,0,1,34.1,8.853a3.923,3.923,0,0,1,2.951,1.17,4.6,4.6,0,0,1,1.224,3.1l.008.473a5.343,5.343,0,0,1-.51,2.374,3.773,3.773,0,0,1-1.461,1.619,4.17,4.17,0,0,1-2.2.573A3.9,3.9,0,0,1,31.073,16.9a4.848,4.848,0,0,1-1.141-3.374Zm2.017.174a3.619,3.619,0,0,0,.573,2.171,1.862,1.862,0,0,0,1.594.784,1.842,1.842,0,0,0,1.59-.8,4,4,0,0,0,.569-2.333,3.572,3.572,0,0,0-.585-2.158,1.973,1.973,0,0,0-3.158-.012A3.922,3.922,0,0,0,31.948,13.6Zm7.662-.158a5.34,5.34,0,0,1,.963-3.333,3.085,3.085,0,0,1,2.582-1.258,2.931,2.931,0,0,1,2.308,1V5.25h2.017V18H45.653l-.1-.93a2.973,2.973,0,0,1-2.416,1.1,3.068,3.068,0,0,1-2.552-1.27A5.535,5.535,0,0,1,39.61,13.443Zm2.017.174a3.739,3.739,0,0,0,.527,2.137,1.71,1.71,0,0,0,1.5.768,1.9,1.9,0,0,0,1.81-1.1V11.583A1.876,1.876,0,0,0,43.669,10.5a1.723,1.723,0,0,0-1.511.776A4.163,4.163,0,0,0,41.627,13.617Zm13.4,3.5A3.128,3.128,0,0,1,52.5,18.166a2.788,2.788,0,0,1-2.212-.855,3.637,3.637,0,0,1-.751-2.474V9.019h2.017v5.794q0,1.71,1.419,1.71a1.993,1.993,0,0,0,1.984-1.054V9.019h2.017V18h-1.9Zm7.695-.564a1.824,1.824,0,0,0,1.253-.44,1.5,1.5,0,0,0,.531-1.087h1.9a2.963,2.963,0,0,1-.523,1.565,3.43,3.43,0,0,1-1.328,1.15,3.958,3.958,0,0,1-1.81.423,3.829,3.829,0,0,1-2.988-1.22,4.84,4.84,0,0,1-1.1-3.37v-.208a4.759,4.759,0,0,1,1.1-3.283,3.8,3.8,0,0,1,2.988-1.233,3.69,3.69,0,0,1,2.611.934,3.345,3.345,0,0,1,1.058,2.453H64.5a1.847,1.847,0,0,0-.527-1.27,1.7,1.7,0,0,0-1.258-.5,1.775,1.775,0,0,0-1.511.71,3.621,3.621,0,0,0-.54,2.154v.324a3.682,3.682,0,0,0,.527,2.179A1.773,1.773,0,0,0,62.719,16.556Zm8.9,0a1.824,1.824,0,0,0,1.253-.44,1.5,1.5,0,0,0,.531-1.087h1.9a2.963,2.963,0,0,1-.523,1.565,3.43,3.43,0,0,1-1.328,1.15,3.958,3.958,0,0,1-1.81.423,3.829,3.829,0,0,1-2.988-1.22,4.84,4.84,0,0,1-1.1-3.37v-.208a4.759,4.759,0,0,1,1.1-3.283,3.8,3.8,0,0,1,2.988-1.233,3.69,3.69,0,0,1,2.611.934A3.345,3.345,0,0,1,75.3,12.239H73.4a1.847,1.847,0,0,0-.527-1.27,1.7,1.7,0,0,0-1.258-.5,1.775,1.775,0,0,0-1.511.71,3.621,3.621,0,0,0-.54,2.154v.324a3.681,3.681,0,0,0,.527,2.179A1.774,1.774,0,0,0,71.618,16.556ZM78.972,18H76.955V9.019h2.017ZM76.831,6.686a1.071,1.071,0,0,1,.295-.772,1.113,1.113,0,0,1,.843-.307,1.127,1.127,0,0,1,.847.307,1.062,1.062,0,0,1,.3.772,1.038,1.038,0,0,1-.3.76,1.136,1.136,0,0,1-.847.3,1.122,1.122,0,0,1-.843-.3A1.046,1.046,0,0,1,76.831,6.686Zm3.959,6.74a5.3,5.3,0,0,1,.523-2.378,3.819,3.819,0,0,1,1.469-1.627,4.14,4.14,0,0,1,2.175-.569,3.923,3.923,0,0,1,2.951,1.17,4.6,4.6,0,0,1,1.224,3.1l.008.473a5.343,5.343,0,0,1-.51,2.374,3.773,3.773,0,0,1-1.461,1.619,4.17,4.17,0,0,1-2.2.573A3.9,3.9,0,0,1,81.932,16.9a4.848,4.848,0,0,1-1.141-3.374Zm2.017.174a3.619,3.619,0,0,0,.573,2.171,1.862,1.862,0,0,0,1.594.784,1.842,1.842,0,0,0,1.59-.8,4,4,0,0,0,.569-2.333,3.572,3.572,0,0,0-.585-2.158,1.973,1.973,0,0,0-3.158-.012A3.922,3.922,0,0,0,82.807,13.6ZM85.513,5.25h2.3l-2.3,2.515-1.619,0Zm7.205,3.769.058,1.038a3.229,3.229,0,0,1,2.615-1.2q2.806,0,2.855,3.212V18H96.23V12.181a1.85,1.85,0,0,0-.369-1.266,1.554,1.554,0,0,0-1.208-.411,1.944,1.944,0,0,0-1.818,1.1V18H90.818V9.019Z" transform="translate(-736.332 5677)" fill="#fff"/>
        <path id="Path_919184" data-name="Path 919184" d="M36.04,14.065a4.364,4.364,0,0,1-1.428,3.017A4.867,4.867,0,0,1,31.3,18.166a4.713,4.713,0,0,1-2.544-.685,4.5,4.5,0,0,1-1.7-1.947,7.024,7.024,0,0,1-.623-2.93V11.476a7.075,7.075,0,0,1,.606-3.013,4.567,4.567,0,0,1,1.739-2.009A4.851,4.851,0,0,1,31.4,5.748,4.672,4.672,0,0,1,34.62,6.831,4.527,4.527,0,0,1,36.04,9.9H33.948a2.985,2.985,0,0,0-.76-1.88A2.51,2.51,0,0,0,31.4,7.441a2.452,2.452,0,0,0-2.1,1,5,5,0,0,0-.751,2.937v1.072a5.308,5.308,0,0,0,.7,2.991,2.328,2.328,0,0,0,2.054,1.03,2.715,2.715,0,0,0,1.859-.556,2.9,2.9,0,0,0,.789-1.851Zm1.3-.639a5.3,5.3,0,0,1,.523-2.378,3.819,3.819,0,0,1,1.469-1.627,4.14,4.14,0,0,1,2.175-.569,3.923,3.923,0,0,1,2.951,1.17,4.6,4.6,0,0,1,1.224,3.1l.008.473a5.343,5.343,0,0,1-.51,2.374,3.773,3.773,0,0,1-1.461,1.619,4.17,4.17,0,0,1-2.2.573A3.9,3.9,0,0,1,38.484,16.9a4.848,4.848,0,0,1-1.141-3.374Zm2.017.174a3.619,3.619,0,0,0,.573,2.171,1.862,1.862,0,0,0,1.594.784,1.842,1.842,0,0,0,1.59-.8,4,4,0,0,0,.569-2.333,3.572,3.572,0,0,0-.585-2.158,1.973,1.973,0,0,0-3.158-.012A3.922,3.922,0,0,0,39.36,13.6Zm9.911-4.582.058,1.038a3.229,3.229,0,0,1,2.615-1.2q2.806,0,2.855,3.212V18H52.782V12.181a1.85,1.85,0,0,0-.369-1.266,1.554,1.554,0,0,0-1.208-.411,1.944,1.944,0,0,0-1.818,1.1V18H47.37V9.019ZM61.888,15.56a.914.914,0,0,0-.444-.822,4.723,4.723,0,0,0-1.473-.5,7.574,7.574,0,0,1-1.718-.548,2.293,2.293,0,0,1-1.511-2.117,2.391,2.391,0,0,1,.979-1.942,3.872,3.872,0,0,1,2.49-.78,4.029,4.029,0,0,1,2.6.8,2.529,2.529,0,0,1,.992,2.067H61.789a1.243,1.243,0,0,0-.432-.967,1.654,1.654,0,0,0-1.146-.386,1.787,1.787,0,0,0-1.083.307.968.968,0,0,0-.419.822.818.818,0,0,0,.39.722,5.365,5.365,0,0,0,1.577.519,7.466,7.466,0,0,1,1.864.623,2.639,2.639,0,0,1,1,.867,2.212,2.212,0,0,1,.328,1.229,2.34,2.34,0,0,1-1,1.963,4.283,4.283,0,0,1-2.631.751,4.644,4.644,0,0,1-1.967-.4,3.238,3.238,0,0,1-1.345-1.1,2.594,2.594,0,0,1-.481-1.5H58.4a1.421,1.421,0,0,0,.54,1.1,2.1,2.1,0,0,0,1.32.386,2.04,2.04,0,0,0,1.212-.3A.938.938,0,0,0,61.888,15.56Zm9.181,1.561a3.128,3.128,0,0,1-2.523,1.046,2.788,2.788,0,0,1-2.212-.855,3.637,3.637,0,0,1-.751-2.474V9.019H67.6v5.794q0,1.71,1.419,1.71A1.993,1.993,0,0,0,71,15.468V9.019H73.02V18h-1.9Zm5.9-8.1.058.938a3.232,3.232,0,0,1,2.59-1.1,2.483,2.483,0,0,1,2.465,1.378A3.186,3.186,0,0,1,84.84,8.853a2.8,2.8,0,0,1,2.212.822A3.618,3.618,0,0,1,87.8,12.1V18H85.778V12.156A1.786,1.786,0,0,0,85.4,10.9a1.635,1.635,0,0,0-1.237-.4,1.679,1.679,0,0,0-1.125.369,1.948,1.948,0,0,0-.61.967L82.441,18H80.424V12.09A1.439,1.439,0,0,0,78.805,10.5a1.776,1.776,0,0,0-1.718.988V18H75.07V9.019Zm12.518,4.408a5.3,5.3,0,0,1,.523-2.378,3.819,3.819,0,0,1,1.469-1.627,4.14,4.14,0,0,1,2.175-.569,3.923,3.923,0,0,1,2.951,1.17,4.6,4.6,0,0,1,1.224,3.1l.008.473a5.343,5.343,0,0,1-.51,2.374,3.773,3.773,0,0,1-1.461,1.619,4.17,4.17,0,0,1-2.2.573A3.9,3.9,0,0,1,90.63,16.9a4.848,4.848,0,0,1-1.141-3.374Zm2.017.174a3.619,3.619,0,0,0,.573,2.171,1.862,1.862,0,0,0,1.594.784,1.842,1.842,0,0,0,1.59-.8,4,4,0,0,0,.569-2.333,3.572,3.572,0,0,0-.585-2.158,1.973,1.973,0,0,0-3.158-.012A3.922,3.922,0,0,0,91.506,13.6Zm15.415,1.511,1.826-6.093h2.15l-3.569,10.343a2.9,2.9,0,0,1-2.789,2.266,3.6,3.6,0,0,1-.971-.15V19.909l.382.025a1.964,1.964,0,0,0,1.15-.278,1.842,1.842,0,0,0,.61-.933l.291-.771-3.154-8.933h2.175Zm14.07-4.25a4.991,4.991,0,0,0-.822-.066,1.85,1.85,0,0,0-1.868,1.063V18h-2.017V9.019h1.926l.05,1a2.273,2.273,0,0,1,2.025-1.17,1.888,1.888,0,0,1,.714.116Zm5.229,7.3a4.173,4.173,0,0,1-3.109-1.208,4.381,4.381,0,0,1-1.191-3.217v-.249a5.389,5.389,0,0,1,.519-2.4A3.949,3.949,0,0,1,123.9,9.442a3.851,3.851,0,0,1,2.092-.589,3.525,3.525,0,0,1,2.835,1.17,4.949,4.949,0,0,1,1,3.312v.813h-5.869a2.7,2.7,0,0,0,.743,1.76,2.23,2.23,0,0,0,1.639.647,2.731,2.731,0,0,0,2.258-1.121l1.087,1.038a3.631,3.631,0,0,1-1.44,1.249A4.509,4.509,0,0,1,126.219,18.166Zm-.241-7.695a1.7,1.7,0,0,0-1.341.581,3.012,3.012,0,0,0-.652,1.619h3.843v-.149a2.452,2.452,0,0,0-.54-1.531A1.686,1.686,0,0,0,125.979,10.471Zm9.1,6.084a1.824,1.824,0,0,0,1.253-.44,1.5,1.5,0,0,0,.531-1.087h1.9a2.963,2.963,0,0,1-.523,1.565,3.43,3.43,0,0,1-1.328,1.15,3.958,3.958,0,0,1-1.81.423,3.829,3.829,0,0,1-2.988-1.22,4.84,4.84,0,0,1-1.1-3.37v-.208a4.759,4.759,0,0,1,1.1-3.283,3.8,3.8,0,0,1,2.988-1.233,3.69,3.69,0,0,1,2.611.934,3.345,3.345,0,0,1,1.058,2.453h-1.9a1.847,1.847,0,0,0-.527-1.27,1.7,1.7,0,0,0-1.258-.5,1.775,1.775,0,0,0-1.511.71,3.621,3.621,0,0,0-.54,2.154v.324a3.682,3.682,0,0,0,.527,2.179A1.773,1.773,0,0,0,135.076,16.556ZM142.431,18h-2.017V9.019h2.017ZM140.289,6.686a1.07,1.07,0,0,1,.295-.772,1.113,1.113,0,0,1,.843-.307,1.127,1.127,0,0,1,.847.307,1.062,1.062,0,0,1,.3.772,1.038,1.038,0,0,1-.3.76,1.136,1.136,0,0,1-.847.3,1.122,1.122,0,0,1-.843-.3A1.046,1.046,0,0,1,140.289,6.686Zm8.027,9.87a1.824,1.824,0,0,0,1.253-.44,1.5,1.5,0,0,0,.531-1.087H152a2.963,2.963,0,0,1-.523,1.565,3.43,3.43,0,0,1-1.328,1.15,3.958,3.958,0,0,1-1.81.423,3.829,3.829,0,0,1-2.988-1.22,4.84,4.84,0,0,1-1.1-3.37v-.208a4.759,4.759,0,0,1,1.1-3.283,3.8,3.8,0,0,1,2.988-1.233,3.69,3.69,0,0,1,2.611.934A3.345,3.345,0,0,1,152,12.239h-1.9a1.847,1.847,0,0,0-.527-1.27,1.7,1.7,0,0,0-1.258-.5,1.775,1.775,0,0,0-1.511.71,3.621,3.621,0,0,0-.54,2.154v.324a3.682,3.682,0,0,0,.527,2.179A1.773,1.773,0,0,0,148.316,16.556ZM155.671,18h-2.017V5.25h2.017Zm7.562,0a3.113,3.113,0,0,1-.232-.838,3.393,3.393,0,0,1-4.565.232,2.47,2.47,0,0,1-.855-1.909,2.55,2.55,0,0,1,1.067-2.2,5.169,5.169,0,0,1,3.051-.768h1.237v-.589a1.573,1.573,0,0,0-.39-1.116,1.547,1.547,0,0,0-1.187-.419,1.777,1.777,0,0,0-1.129.344,1.066,1.066,0,0,0-.44.876h-2.017a2.239,2.239,0,0,1,.49-1.382,3.263,3.263,0,0,1,1.332-1.009,4.68,4.68,0,0,1,1.88-.365,3.769,3.769,0,0,1,2.515.793,2.827,2.827,0,0,1,.963,2.229v4.051a4.591,4.591,0,0,0,.34,1.934V18Zm-2.216-1.453a2.294,2.294,0,0,0,1.125-.291,1.941,1.941,0,0,0,.793-.78V13.783h-1.087a2.973,2.973,0,0,0-1.685.39,1.264,1.264,0,0,0-.564,1.1,1.179,1.179,0,0,0,.386.926A1.5,1.5,0,0,0,161.016,16.547Zm8.151-7.529V18.8a2.955,2.955,0,0,1-.685,2.1,2.625,2.625,0,0,1-2,.726,4.031,4.031,0,0,1-1.071-.141V19.893a3.108,3.108,0,0,0,.714.075q1,0,1.029-1.1V9.019Zm-2.191-2.333a1.07,1.07,0,0,1,.295-.772,1.113,1.113,0,0,1,.843-.307,1.127,1.127,0,0,1,.847.307,1.062,1.062,0,0,1,.3.772,1.038,1.038,0,0,1-.3.76,1.136,1.136,0,0,1-.847.3,1.122,1.122,0,0,1-.843-.3A1.046,1.046,0,0,1,166.976,6.686Zm8.3,11.48a4.173,4.173,0,0,1-3.109-1.208,4.381,4.381,0,0,1-1.191-3.217v-.249a5.389,5.389,0,0,1,.519-2.4,3.949,3.949,0,0,1,1.457-1.648,3.851,3.851,0,0,1,2.092-.589,3.525,3.525,0,0,1,2.835,1.17,4.949,4.949,0,0,1,1,3.312v.813h-5.869a2.7,2.7,0,0,0,.743,1.76,2.23,2.23,0,0,0,1.639.647,2.731,2.731,0,0,0,2.258-1.121l1.087,1.038a3.631,3.631,0,0,1-1.44,1.249A4.509,4.509,0,0,1,175.277,18.166Zm-.241-7.695a1.7,1.7,0,0,0-1.341.581,3.012,3.012,0,0,0-.652,1.619h3.843v-.149a2.452,2.452,0,0,0-.54-1.531A1.686,1.686,0,0,0,175.036,10.471Z" transform="translate(-304.711 5671.5)" fill="#fff"/>
        <path id="Path_919185" data-name="Path 919185" d="M23.212,5.914,24.7,14.655l4.507-8.741h3.237L30.342,18H27.9l.6-3.445,1.179-5.379L25.046,18H23.378L21.759,8.869l-.78,5.952L20.423,18H17.991l2.1-12.086ZM37.564,18a2.423,2.423,0,0,1-.091-.813,3.042,3.042,0,0,1-2.291.979,2.756,2.756,0,0,1-1.955-.768,2.323,2.323,0,0,1-.726-1.855,2.685,2.685,0,0,1,1.233-2.254,5.6,5.6,0,0,1,3.15-.784l1.1.017.116-.54a1.874,1.874,0,0,0,.025-.523.9.9,0,0,0-.295-.61,1.015,1.015,0,0,0-.668-.228,1.43,1.43,0,0,0-.93.27,1.308,1.308,0,0,0-.49.826l-2.349.008a2.611,2.611,0,0,1,1.183-2.088,4.581,4.581,0,0,1,2.777-.784,3.312,3.312,0,0,1,2.391.909,2.659,2.659,0,0,1,.722,2.254l-.689,4.3-.042.531a2.563,2.563,0,0,0,.141,1L39.863,18Zm-1.8-1.652a2.144,2.144,0,0,0,1.768-.88l.291-1.552-.813-.008a2.273,2.273,0,0,0-1.868.789,1.373,1.373,0,0,0-.257.672.8.8,0,0,0,.187.71A.946.946,0,0,0,35.763,16.348Zm11.679-5.08a4.833,4.833,0,0,0-.789-.083,2.269,2.269,0,0,0-1.984.938L43.632,18H41.291l1.561-8.981,2.2-.008-.216,1.1a2.47,2.47,0,0,1,2.092-1.27,3.414,3.414,0,0,1,.813.116Zm3.835,3.154-1.087.946L49.733,18H47.392L49.6,5.25h2.349l-1.212,6.923.457-.49,2.665-2.665h3l-3.926,3.86L55.436,18H52.871Zm9.272,3.744a3.907,3.907,0,0,1-2.088-.577A3.5,3.5,0,0,1,57.1,16.029a4.349,4.349,0,0,1-.349-2.187l.025-.332a5.806,5.806,0,0,1,.764-2.407,4.613,4.613,0,0,1,1.644-1.689,4.066,4.066,0,0,1,2.225-.56,3.107,3.107,0,0,1,2.627,1.276,4.374,4.374,0,0,1,.677,3.147L64.583,14.3h-5.5a1.927,1.927,0,0,0,.423,1.395,1.616,1.616,0,0,0,1.245.54,2.872,2.872,0,0,0,2.241-1l1.071,1.328A3.331,3.331,0,0,1,62.6,17.755,4.777,4.777,0,0,1,60.549,18.166Zm.747-7.379a1.663,1.663,0,0,0-1.15.407,3.573,3.573,0,0,0-.9,1.469h3.221l.05-.216a2.2,2.2,0,0,0,.008-.631,1.2,1.2,0,0,0-.407-.751A1.275,1.275,0,0,0,61.3,10.787Zm8.732-3.976-.39,2.208h1.494l-.307,1.76H69.331l-.764,4.5a1.144,1.144,0,0,0,.066.647q.116.224.564.241.133.008.714-.042l-.166,1.834a3.937,3.937,0,0,1-1.345.191,2.11,2.11,0,0,1-1.718-.722,2.609,2.609,0,0,1-.465-1.909l.772-4.74H65.72l.307-1.76H67.3l.382-2.208ZM73.407,18H71.049L72.61,9.019h2.357ZM72.884,6.736a1.169,1.169,0,0,1,.365-.921,1.405,1.405,0,0,1,1.843-.042,1.164,1.164,0,0,1,.407.88,1.2,1.2,0,0,1-.344.9,1.291,1.291,0,0,1-.942.4,1.313,1.313,0,0,1-.917-.315A1.159,1.159,0,0,1,72.884,6.736ZM79.093,9.01l-.2,1.063a3.232,3.232,0,0,1,2.615-1.22,2.155,2.155,0,0,1,1.876.93,3.746,3.746,0,0,1,.44,2.507L82.878,18H80.537l.963-5.736a2.686,2.686,0,0,0,.017-.589.951.951,0,0,0-1.062-.872,2.015,2.015,0,0,0-1.652.855L77.682,18H75.341L76.9,9.019ZM85.161,13.5a6.214,6.214,0,0,1,1.357-3.383,3.444,3.444,0,0,1,2.793-1.274,2.518,2.518,0,0,1,2.142,1.038l.307-.872,2.15.008L92.44,17.693a4.232,4.232,0,0,1-1.527,2.839,4.751,4.751,0,0,1-3.187,1.013,4.429,4.429,0,0,1-1.776-.4,3.8,3.8,0,0,1-1.395-1.058l1.162-1.428a2.5,2.5,0,0,0,1.959,1.021,2.3,2.3,0,0,0,1.561-.477,2.554,2.554,0,0,0,.88-1.44l.133-.54a2.921,2.921,0,0,1-2.2.946,2.58,2.58,0,0,1-2.083-.975,4.194,4.194,0,0,1-.847-2.494A8.383,8.383,0,0,1,85.161,13.5Zm2.3.985a2.147,2.147,0,0,0,.328,1.251,1.147,1.147,0,0,0,.95.495,2.1,2.1,0,0,0,1.693-.815l.7-3.807a1.377,1.377,0,0,0-1.32-.815,1.836,1.836,0,0,0-1.519.723,3.783,3.783,0,0,0-.78,1.987A8.728,8.728,0,0,0,87.46,14.486Z" transform="translate(-506.043 5936.27)" fill="#12263f"/>
        <g id="Group_1117857" data-name="Group 1117857" transform="translate(-961.71 5772.153)">
          <g id="Group_1117856" data-name="Group 1117856" clip-path="url(#clip-path-7)">
            <path id="Path_918812" data-name="Path 918812" d="M198.317,58.837a33.224,33.224,0,1,1-33.224-33.224,33.224,33.224,0,0,1,33.224,33.224" transform="translate(-96.271 -18.699)" fill="#ffe9a2"/>
            <path id="Path_918813" data-name="Path 918813" d="M34.411,257.1A17.205,17.205,0,1,1,17.206,239.9,17.205,17.205,0,0,1,34.411,257.1" transform="translate(0 -175.139)" fill="#f8d2a8"/>
            <path id="Path_918814" data-name="Path 918814" d="M67.776,85.715c-.594,4.421-5.405,8.617-9.843,8.783-9.3-.573-19.436.729-28.634,0a10.718,10.718,0,0,1-10.126-10.39c-1.03-15.214.77-31.614.046-46.951a14.18,14.18,0,0,1,6.364-10.1c1.288-.807,4.338-1.609,5.013-2.2,1.448-1.268.439-7.433.726-9.449a2.9,2.9,0,0,1-2.971-2.833c-.525-5.685.313-11.718,7.157-12.3a119.878,119.878,0,0,1,16.2.014c4.826.438,6.965,4.277,7.171,8.756.119,2.59.229,6.352-3.24,6.368.321,2.3-.527,6.292.109,8.371.493,1.61,3.122,1.869,4.479,2.539,3.223,1.592,7.548,6.546,7.548,10.269V53.456H88.427c3.487,0,6.861,4.35,6.827,7.695-.035,3.46-3.849,7.692-7.367,7.692H67.776ZM55.628,12.425V6.891c0-1.721-2.689-3.361-4.261-3.568a98.379,98.379,0,0,0-15.05-.086c-1.985.171-4.985,1.641-4.985,3.924v5.264Zm-2.969,2.969H34.707l-.4.4v8.638a13.517,13.517,0,0,1-.584,1.306c-1.4,2.616-3.989,2.407-6.246,3.742a10.991,10.991,0,0,0-5.318,10.2H64.806c.134-4.421-1.721-8.307-5.664-10.4-2.054-1.089-4.079-1.014-5.521-3.117a12.658,12.658,0,0,1-.962-2.007ZM64.806,42.929H22.155V78.966l.4.4H64.806V68.843H50.9c-.535,0-8.524-4.691-9.3-5.279a3.08,3.08,0,0,1-.154-4.713c2.291-2,6.747-3.314,9.182-5.4H64.806ZM82.893,56.7H52.659V65.6H82.893ZM86.132,65.6c7.874.974,7.985-10.01,0-8.908ZM49.689,57.776,43.756,61.15l5.933,3.374ZM64.806,82.341H22.155c-.167,5.48,2.752,8.822,8.22,9.191,8.676.585,18-.472,26.747,0,5.214-.411,7.983-4.027,7.684-9.188" transform="translate(-13.758 0)" fill="#050c68"/>
            <path id="Path_918815" data-name="Path 918815" d="M242.286,142.367c.886.763,5.092.56,5.549,2.143V156c-.447,1.989-4.779,1.389-5.59,2.509-2.237,3.09,1.614,4.528,1.487,7.411a69.483,69.483,0,0,1-8.7,8.562c-1.3.138-4.259-2.627-5.045-2.583a16.37,16.37,0,0,0-2.363,1.211c-1.273,2.007.249,5.2-3.343,5.5-1.5.125-9.394.187-10.335-.214-1.677-.714-1.351-4.295-2.208-5.351a15.055,15.055,0,0,0-2.158-1.067c-1.266-.249-4.437,3.716-6.09,2.026-2.106-2.152,4.346-4.587,5.685-5.39l5.1,2.161,1.385,4.6,8.178-.043,1.377-4.7c1.618-.391,4.078-2.338,5.593-1.822.678.231,3.469,2.279,3.858,2.1l5.589-5.677-2.35-4.345a49.583,49.583,0,0,1,1.765-4.689c.77-1.19,4.936-1.438,5-1.789l-.051-8.177-4.755-1.453c-.319-1.664-2.282-3.978-1.755-5.527.238-.7,2.185-3.409,2.162-3.722l-5.611-5.684-.521.006a19.241,19.241,0,0,1-3.386,2.056c-1.364.479-4.008-1.449-5.533-1.777l-1.611-4.868a54.193,54.193,0,0,0-7.435-.124c-1.25.227-1.194,4.057-2.093,5.059l-4.884,1.882c-1.4-.643-6.515-2.612-4.214-4.636,1.455-1.279,3.044,1.085,4.184,1.2a7.03,7.03,0,0,0,2.364-.791c1.159-.929.559-5.162,2.541-5.628l11.43.061c1.666.539,1.189,4.56,2.305,5.523a6.365,6.365,0,0,0,2.391.834c1.229-.125,3.513-2.776,5.016-2.316,1.608.492,6.288,6.64,8.087,7.852,1.617,1.644-1.75,4.218-1.892,5.685a12.072,12.072,0,0,0,.877,2.487" transform="translate(-148.253 -89.242)" fill="#050c68"/>
            <path id="Path_918816" data-name="Path 918816" d="M221.141,171.186c-1.326-1.326.642-2.835,1.578-3.556,8.62-6.643,21.814-2.861,25.627,7.259a16.788,16.788,0,0,1-21.207,22.017c-1.579-.542-7.51-3.43-5.818-5.571,1.037-1.313,2.421.175,3.174.657,14.23,9.118,28.409-7.052,19.1-19.368a13.808,13.808,0,0,0-17.663-3.4c-1.244.722-3.461,3.293-4.789,1.964" transform="translate(-161.119 -119.954)" fill="#050c68"/>
            <path id="Path_918817" data-name="Path 918817" d="M63.109,164.861c4.322-.6,4.454.644,7.644,1.934,1.083.438,2.294.449,3.547,1.043,1.192.565,3.683,2.138,2.5,3.685-1.254,1.633-2.89-.525-4.068-1.032-1.2-.517-2.213-.332-3.152-.627-.446-.14-.728-.729-1.18-.979-1.961-1.082-3.333-1.528-5.564-.792-1.1.363-2.205,1.585-2.82,1.769-2.355.7-3.675.124-5.473,2.625-1.158,1.61-.729,2.445-1.2,3.929-.546,1.72-2.367,2.175-2.24,5.177.116,2.719,1.927,3.326,2.294,4.725.6,2.286-.05,3.208,2.222,5.066,1.771,1.448,2.6.975,4.382,1.557.746.243,1.335,1.064,2.094,1.415a6.435,6.435,0,0,0,5.058.19c1.329-.5,2.556-2.467,4.01-1.428,1.988,1.421-1.166,3.532-2.4,4.117a9.63,9.63,0,0,1-8.425-.311c-.525-.245-.9-.814-1.414-1.016-2.078-.812-3.076-.368-5.2-2.093-2.785-2.267-2.37-3.441-3.358-6.36-.638-1.887-2.117-2.567-2.3-5.525-.226-3.594,1.337-4.106,2.276-6.623.829-2.22.508-3.581,2.437-5.662,1.984-2.141,3.8-1.942,6.087-2.821,1.461-.562,2.2-1.676,4.247-1.962" transform="translate(-35.071 -120.243)" fill="#050c68"/>
            <path id="Path_918818" data-name="Path 918818" d="M86.526,208.987c1.454,1.358,4.565.919,4.774,2.4.392,2.78-3.2,1.951-4.78,1.249A7.7,7.7,0,0,1,85,199.68c1.2-.931,5.609-2.851,6.254-.665.724,2.454-2.277,2-3.56,2.55-2.8,1.2-3.336,5.394-1.163,7.423" transform="translate(-59.95 -144.557)" fill="#050c68"/>
            <path id="Path_918819" data-name="Path 918819" d="M153.036,221.236l23.988.192.635,1.234c-.142,1.031-.764,1.378-1.73,1.491-6.912.81-15.346-.627-22.424.009a1.5,1.5,0,0,1-.469-2.926" transform="translate(-110.974 -161.514)" fill="#050c68"/>
          </g>
        </g>
        <g id="Group_1117863" data-name="Group 1117863" transform="translate(-268.043 5772.153)">
          <g id="Group_1117862" data-name="Group 1117862" clip-path="url(#clip-path-8)">
            <path id="Path_918838" data-name="Path 918838" d="M202.191,71.886a31.043,31.043,0,1,1-31.043-31.043,31.043,31.043,0,0,1,31.043,31.043" transform="translate(-104.767 -30.541)" fill="#ffe9a2"/>
            <path id="Path_918839" data-name="Path 918839" d="M40.388,271.2a16.076,16.076,0,1,1-16.076-16.076A16.076,16.076,0,0,1,40.388,271.2" transform="translate(-6.159 -190.779)" fill="#f8d2a8"/>
            <path id="Path_918840" data-name="Path 918840" d="M44.738,0c5.027.855,10.589,1.3,15.5,2.619C69.328,5.071,75.074,13.163,75.219,22.8c4.714-6.723,12.7-7.04,19.85-8.946v11.4c0,2.665-1.7,6.622-3.349,8.664-4.174,5.175-10.65,5.044-16.467,6.814l-.076,7.857c-.273.86-2.311.345-3.037.473V32.9c-5.569-1.147-11.92-1.215-17.022-3.932-3.606-1.92-4.2-3.187-8.847-3.567a29.519,29.519,0,0,0-27.093,12.43c-.508.726-3.125,4.978-2.683,5.456A54.284,54.284,0,0,1,22.543,44.7c.3.116.475-.146.382.459L5.594,62.912,0,38.961l7.252,1.72A38.683,38.683,0,0,1,45.3,15.87c.076-.058-.559-1.618-.559-1.873Zm3.076,3.752V14c0,1,1.543,4.584,2.12,5.6,4.214,7.459,11.15,8.548,18.851,9.544L54.368,14.139c-.361-.725,1.566-1.961,1.974-2.59l15.8,16.156V20.923c0-6.885-6.474-13.583-12.633-15.244A99.794,99.794,0,0,0,47.813,3.753m44.18,14.141c-6.037,1.091-12.281,2.463-15.33,8.563a24.828,24.828,0,0,0-1.447,4.278V35.5l9.405-9.5,2.039,2.1L78.853,36.65c4.718-1.184,9.187-1.7,11.689-6.547a15.4,15.4,0,0,0,1.452-4.562Zm-43.9,4.614c-.73-.722-1.275-3.133-2.151-3.4-1.371-.426-6.624.027-8.3.268C24.156,21.31,13.433,31.273,8.949,44.318L4.194,43.29,7.272,56.852l9.781-9.96c.093-.636-.1-.336-.408-.434-.5-.158-4.675-1.049-4.619-1.289C17.278,29.7,32.209,20.018,48.093,22.508" transform="translate(0 -0.001)"/>
            <path id="Path_918841" data-name="Path 918841" d="M100.432,225.344c-1.032-.29-7.055-2.114-7.518-1.7a38.591,38.591,0,0,1-20.062,21.281c-21.968,9.9-48.118-2.684-54.085-26.632l8.685-2.763A30.781,30.781,0,0,0,52.8,238.578a29.271,29.271,0,0,0,31.137-17.559l-6.709-1.878,17.2-17.744Zm-4.194-4.329-3.491-13.562L83.1,217.409a27.092,27.092,0,0,0,4.627,1.29c.331.1.5-.2.371.4-.6,2.857-3.768,8.062-5.566,10.421-15.791,20.713-48.537,14.453-57.07-9.913l-2.777.7c5.194,16.563,22.1,26.629,38.708,24.621A35.649,35.649,0,0,0,91.211,219.57Z" transform="translate(-14.034 -150.6)"/>
            <path id="Path_918842" data-name="Path 918842" d="M116.258,150.043c21.3-1.681,27.216,30.494,6.706,36.933-25.931,8.141-33.555-34.814-6.706-36.933m5.928,10.879c-.9-2.75-2.45-5.587-4.855-7.194a16.823,16.823,0,0,0-4.652,7.194Zm-12.583,0a11.258,11.258,0,0,1,1.2-3.524c.56-1.168,1.363-2.218,1.874-3.4-3.348,1.241-6.594,3.518-8.106,6.926Zm20.971,0c-1.206-2.317-5.167-6.253-7.688-6.642-1.066-.164.612,1.853.842,2.308.72,1.422,1.242,2.913,1.952,4.334Zm-21.81,12.7a22.516,22.516,0,0,1-.116-8.935l-.3-.588h-5.453a18.733,18.733,0,0,0,0,9.523Zm14.54,0a36.176,36.176,0,0,0-.046-9.043l-.374-.48H111.841a22.2,22.2,0,0,0,0,9.523Zm8.668-9.523h-5.592a46.562,46.562,0,0,1,0,9.523h5.453c1.346-2.979,1.071-6.392.14-9.523m-22.789,12.7h-4.893a15.481,15.481,0,0,0,5.684,5.821c.214.123,2.9,1.593,2.7.962Zm13,0h-9.507c.208,1.442,3.688,7.532,4.9,7.433,1.2-.452,5.181-6.861,4.61-7.433m8.388,0h-5.033a19.192,19.192,0,0,1-3.354,6.783c.55.317,1.608-.317,2.2-.616a15.353,15.353,0,0,0,6.188-6.168" transform="translate(-74.373 -112.151)"/>
          </g>
        </g>
      </g>
      <g id="Group_1117859" data-name="Group 1117859" transform="translate(640.657 20994.926)">
        <g id="Group_1117858" data-name="Group 1117858" clip-path="url(#clip-path-9)">
          <path id="Path_918820" data-name="Path 918820" d="M198.322,37.623A33.227,33.227,0,1,1,165.095,4.4a33.227,33.227,0,0,1,33.227,33.227" transform="translate(-96.268 -3.209)" fill="#ffe9a2"/>
          <path id="Path_918821" data-name="Path 918821" d="M34.414,235.889a17.207,17.207,0,1,1-17.207-17.207,17.207,17.207,0,0,1,17.207,17.207" transform="translate(0 -159.645)" fill="#f8d2a8"/>
          <path id="Path_918822" data-name="Path 918822" d="M21.7,20.982l-2.923.661c-.6,9.577-13.441,7-10.769-2.245a5.385,5.385,0,0,1,8.7-2.666c.725.662.957,1.858,1.852,1.815L48.7,10.352,22.717,2.988C21.149,2.211,21.351-.125,23.18,0L54.772,8.533C64.307,6.294,73.675,2.99,83.2.727,84.232.481,86.2-.215,87.113.092c1.206.407.862,2.5-.286,2.9L60.847,10.352l30.138,8.194c.9.043,1.127-1.153,1.852-1.815a5.385,5.385,0,0,1,8.7,2.666c2.672,9.244-10.17,11.822-10.769,2.245l-2.923-.661V39.047C90.5,40.125,93.237,42.2,93.984,45.5c.386,1.7.641,8.871.094,10.276a1.374,1.374,0,0,1-1.033.982c-1.13.048-1.577-.755-1.7-1.917-.45-4.344,1.66-10.726-3.5-12.3V87.624c0,.991-2.7.991-2.7,0V79.275l-4.994,3.013-4.995-3.013v8.349c0,.991-2.7.991-2.7,0V81.4L67.46,78.477,62.466,81.4v6.224c0,.991-2.7.991-2.7,0V79.275l-4.994,3.013-4.995-3.013v8.349c0,.991-2.7.991-2.7,0V81.4l-4.994-2.923L37.089,81.4v6.224c0,.991-2.7.991-2.7,0V79.275l-4.994,3.012L24.4,79.275v8.349c0,.991-2.7.991-2.7,0V33.733c-1.683.086-3.276,2.353-3.486,4.126-.173,1.454.534,5.013-1.509,5.013-2.246,0-1.444-5.1-1.03-6.653.778-2.924,3.3-5.472,6.024-5.825Zm38.039-7.865c-1.557-.151-3.453-1.266-4.968-1.266s-3.41,1.114-4.968,1.266l.11,8.774,4.858,3.243a42.248,42.248,0,0,0,4.722-3.092c.713-.965.051-7.269.246-8.925M47.078,14l-9.989,2.884V33.126l5-2.9,4.994,2.9ZM72.455,24.018V16.883L62.466,14V24.018l4.994-2.751ZM34.389,31V17.338L24.428,20.1l.147,10.929,4.82,2.989ZM75.154,17.338V31l4.994,3.019,4.82-2.989L85.115,20.1Zm-62.71,1.277c-3.276.837-2.286,6.914,1.5,5.946,3.276-.837,2.286-6.914-1.5-5.946m83.15,0c-3.276.837-2.286,6.914,1.5,5.946,3.276-.837,2.286-6.914-1.5-5.946m-23.14,9.046L67.46,24.738l-4.994,2.923v5.465l4.994-2.9,5,2.9ZM59.766,25.536l-4.994,3.012-4.994-3.012V31l4.994,3.019L59.766,31Zm-12.689,16.7V36.921l-4.994-3.164-4.994,3.164v5.313l4.994-3.054Zm25.377,0V36.921L67.46,33.757l-4.994,3.164v5.313L67.46,39.18Zm-38.066-7.59c-1.489.288-3.615,2.752-4.995,2.75-1.5,0-3.456-2.421-4.994-2.75v5.01l4.994,3.218,4.994-3.218Zm25.377,0c-1.538.329-3.5,2.747-4.994,2.75-1.38,0-3.506-2.462-4.995-2.75v5.01l4.994,3.218,4.994-3.218Zm25.377,0c-1.538.329-3.5,2.747-4.994,2.75-1.38,0-3.506-2.462-4.995-2.75v5.01l4.994,3.218,4.994-3.218ZM47.078,45.574l-4.994-2.923-4.994,2.923v5.465l4.994-3.012,4.994,3.012Zm25.377,0L67.46,42.651l-4.994,2.923v5.465l4.994-3.012,4.994,3.012ZM34.389,43.449l-4.994,3.014L24.4,43.449v5.465l4.994,3.035,4.994-3.035Zm25.377,0-4.994,3.014-4.994-3.014v5.465l4.994,3.035,4.994-3.035Zm25.377,0-4.994,3.014-4.994-3.014v5.465l4.994,3.035,4.994-3.035ZM47.078,59.844v-5.01l-4.994-3.166-4.994,3.166v5.01l4.994-2.751Zm25.377,0v-5.01L67.46,51.669l-4.994,3.166v5.01l4.994-2.751ZM34.389,52.557c-1.492.29-3.611,2.75-4.994,2.75s-3.5-2.459-4.994-2.75v5.01l4.994,3.392,4.994-3.392Zm25.377,0c-1.492.29-3.611,2.75-4.994,2.75s-3.5-2.459-4.994-2.75v5.01l5,3.394,4.992-3.394Zm25.377,0c-1.492.29-3.611,2.75-4.994,2.75s-3.5-2.459-4.994-2.75v5.01l5,3.394,4.992-3.394ZM47.078,63.487l-4.994-3.034-4.994,3.034v5.465l4.994-2.9,4.994,2.9Zm25.377,0L67.46,60.453l-4.994,3.034v5.465l4.994-2.9,4.994,2.9ZM34.389,61.362l-4.994,3.012L24.4,61.362v5.465l4.994,3.034,4.994-3.034Zm25.377,0-4.994,3.012-4.994-3.012v5.465l4.994,3.034,4.994-3.034Zm25.377,0-4.994,3.012-4.994-3.012v5.465l4.994,3.034,4.994-3.034Zm-38.066,16.4v-5.01l-4.994-3.165-4.995,3.165v5.01l4.994-2.751Zm25.377,0v-5.01l-4.994-3.165-4.995,3.165v5.313l4.994-3.054ZM34.389,70.47c-1.492.29-3.611,2.749-4.994,2.749s-3.5-2.459-4.994-2.749v5.01L29.395,78.7l4.994-3.219Zm25.377,0c-1.492.29-3.611,2.749-4.994,2.749-1.466,0-3.411-2.524-4.994-2.749v5.01L54.772,78.7l4.994-3.219Zm25.377,0c-1.492.29-3.611,2.749-4.994,2.749-1.466,0-3.411-2.524-4.994-2.749v5.01L80.149,78.7l4.994-3.219Z" transform="translate(-5.58 0)" fill="#050c68"/>
          <path id="Path_918823" data-name="Path 918823" d="M21.451,174.461a5.576,5.576,0,0,1,.351,1.882c.3,4.243.477,19.042-.469,22.569-.911,3.4-4.636,7.023-7.935,6-.773-.24-1.023-1.613-.657-2.3.309-.581,3.017-.855,4.012-1.563a5.9,5.9,0,0,0,1.953-2.965c.785-7.016-.664-15.461.143-22.306.069-.589.2-1.358.7-1.655a1.647,1.647,0,0,1,1.9.34" transform="translate(-9.18 -126.983)"/>
          <path id="Path_918824" data-name="Path 918824" d="M318.971,225.155c2.218-.384,1.519,3.277,1.755,4.587a5.887,5.887,0,0,0,2.574,3.481c1.342.673,4.122.279,3.526,2.592-.809,3.137-6.457-.648-7.628-2.533-.975-1.57-2.723-7.7-.226-8.128" transform="translate(-231.922 -164.35)"/>
        </g>
      </g>
      <g id="Group_1117861" data-name="Group 1117861" transform="translate(871.711 20994.926)">
        <g id="Group_1117860" data-name="Group 1117860" clip-path="url(#clip-path-10)">
          <path id="Path_918825" data-name="Path 918825" d="M198.652,54.071A33.392,33.392,0,1,1,165.26,20.679a33.392,33.392,0,0,1,33.392,33.392" transform="translate(-96.091 -15.069)" fill="#ffe9a2"/>
          <path id="Path_918826" data-name="Path 918826" d="M34.585,252.257a17.292,17.292,0,1,1-17.292-17.292,17.292,17.292,0,0,1,17.292,17.292" transform="translate(0 -171.217)" fill="#f8d2a8"/>
          <path id="Path_918827" data-name="Path 918827" d="M97.17,36.683V43.33c0,1-2.456,3.263-3.657,3.126h-36.9c-1.476.282-6.071,6.726-8.021,7.442-1.088.4-2.7-.358-2.7-1.343v-6.1c-2.873.391-5.357-.462-6.223-3.409.618-9.8-.881-20.718-.028-30.38a4.388,4.388,0,0,1,3.945-4.194l31.609,0A7.417,7.417,0,0,1,81.6.357C93.124,1.069,106.013-.7,117.378.332a7.515,7.515,0,0,1,6.933,7.175c.569,7.219-.421,15.2-.039,22.5-.193,3.36-3.856,6.676-7.161,6.676ZM81.356,4.183A4.336,4.336,0,0,0,78.71,8.048c-.595,6.74.467,14.34.01,21.174A3.893,3.893,0,0,0,82.644,32.9c10.889.961,23.169-.751,34.207,0a3.641,3.641,0,0,0,3.658-3.124c.841-7-.651-15.631.006-22.808a4.168,4.168,0,0,0-2.384-2.771Zm-6.162,8.082H43.451L43.3,42.122c.547,1.666,3.956.219,5.453,1.058,1.479.829.8,2.953.939,4.354l5.017-4.612H92.965a4.529,4.529,0,0,0,.678-.678V36.683H82.113c-2.4,0-6.918-3.358-6.918-5.833Z" transform="translate(-28.69 0)" fill="#050c68"/>
          <path id="Path_918828" data-name="Path 918828" d="M26.43,222.251a8.9,8.9,0,0,1-1.09,1.08,58.188,58.188,0,0,1-8.275.146c-1.191-.138-1.624-.563-1.764-1.764-.4-3.482.31-7.7.007-11.266A10.634,10.634,0,0,1,4.675,194.8c4.132-7.716,12.71-4.934,19.871-5.632l31.309-12.644a1.947,1.947,0,0,1,2.844,1.52l.052,13.513c1.5.966,3.073,1.336,4.3,2.755,4.285,4.965,1.64,11.977-4.345,13.878l-.006,13.5a2.122,2.122,0,0,1-1.541,1.736L26.43,211.535Zm28.487-3.391V180.877l-4.576,2.071-.1,20.259c-.4,2.024-3.461.928-3.461.052V184.4l-20.312,7.9-.047,14.973ZM22.9,193.085H12.457a17.12,17.12,0,0,0-2.56,1.238c-5.315,3.729-2.322,12.6,3.917,12.6H22.5l.407-.407Zm35.813,10.852c3.682-1.359,3.561-6.722,0-8.139ZM22.9,219.674v-8.818c-1.02-.845-2.784-.227-4.07-.407v9.225Z" transform="translate(-2.444 -128.458)" fill="#050c68"/>
          <path id="Path_918829" data-name="Path 918829" d="M251.339,256.515a5.319,5.319,0,0,1,1.964-.614c1.706-.171,9.264-.206,10.508.347a1.842,1.842,0,0,1-.2,3.446H252.226a1.975,1.975,0,0,1-.887-3.179" transform="translate(-182.789 -186.392)" fill="#050c68"/>
          <path id="Path_918830" data-name="Path 918830" d="M244.374,205.2c1.955-.45,3.138,1,2.213,2.757-.466.888-3.982,4.215-4.989,4.258-5.051.216,1-6.607,2.776-7.015" transform="translate(-174.615 -149.464)" fill="#050c68"/>
          <path id="Path_918831" data-name="Path 918831" d="M241.255,294.271a1.758,1.758,0,0,1,.684,0c.561.1,4.385,3.793,4.815,4.433,1.185,1.765-.545,3.585-2.546,2.544a45.829,45.829,0,0,1-3.968-3.9c-.806-1.217-.5-2.811,1.016-3.08" transform="translate(-174.744 -214.408)" fill="#050c68"/>
          <path id="Path_918832" data-name="Path 918832" d="M232.051,34.831a1.981,1.981,0,0,1,2.288-.412l12.918,7.428c1.591,1.643.462,2.6-.933,3.6a94.688,94.688,0,0,1-10.823,6.27c-1.651.792-3.5,1.569-3.81-1.085a101.943,101.943,0,0,1,0-14.4,2.327,2.327,0,0,1,.364-1.4m3.445,4.534v7.868c.705-.169,7.041-3.686,6.783-4.065Z" transform="translate(-168.644 -24.93)" fill="#050c68"/>
          <path id="Path_918833" data-name="Path 918833" d="M75.207,73.081a2.428,2.428,0,0,1,1.412-.353c6.06-.52,12.857.405,19,.017a1.809,1.809,0,0,1-.532,3.526c-5.784.675-12.817-.525-18.739.009a1.9,1.9,0,0,1-1.138-3.2" transform="translate(-54.408 -52.878)" fill="#050c68"/>
          <path id="Path_918834" data-name="Path 918834" d="M75.2,114.41a1.922,1.922,0,0,1,.887-3.178H88.556c1.7.316,1.71,3.194,0,3.513-1.99-.279-12.437.533-13.354-.335" transform="translate(-54.404 -81.054)" fill="#050c68"/>
          <path id="Path_918835" data-name="Path 918835" d="M144.15,111.118c2.457-.721,3.391,2.458,1.64,3.272-2.753,1.28-3.69-2.67-1.64-3.272" transform="translate(-104.233 -80.894)" fill="#050c68"/>
          <path id="Path_918836" data-name="Path 918836" d="M164.605,294.209c3.679-.756,2.282,5.433-.612,3.211a1.832,1.832,0,0,1,.612-3.211" transform="translate(-118.986 -214.34)" fill="#050c68"/>
        </g>
      </g>
    </g>
  </g>
</svg>
