<svg xmlns="http://www.w3.org/2000/svg" xmlns:xlink="http://www.w3.org/1999/xlink" width="396.574" height="176.932" viewBox="0 0 396.574 176.932">
  <defs>
    <clipPath id="clip-path">
      <rect id="Rectangle_408259" data-name="Rectangle 408259" width="396.574" height="176.932" fill="none"/>
    </clipPath>
    <clipPath id="clip-path-2">
      <rect id="Rectangle_408244" data-name="Rectangle 408244" width="337.996" height="172.425" fill="none"/>
    </clipPath>
    <clipPath id="clip-path-3">
      <rect id="Rectangle_408258" data-name="Rectangle 408258" width="337.996" height="205.097" fill="none"/>
    </clipPath>
    <clipPath id="clip-path-4">
      <rect id="Rectangle_408246" data-name="Rectangle 408246" width="95.796" height="7.45" fill="none"/>
    </clipPath>
    <clipPath id="clip-path-5">
      <rect id="Rectangle_408249" data-name="Rectangle 408249" width="77.721" height="4.656" fill="none"/>
    </clipPath>
    <clipPath id="clip-path-6">
      <rect id="Rectangle_408253" data-name="Rectangle 408253" width="95.118" height="10.011" fill="none"/>
    </clipPath>
  </defs>
  <g id="Group_1117813" data-name="Group 1117813" transform="translate(29.289 -13.334)">
    <g id="Group_1117812" data-name="Group 1117812" transform="translate(-29.289 13.334)" clip-path="url(#clip-path)">
      <g id="Group_1117800" data-name="Group 1117800" transform="translate(29.289 -0.001)">
        <g id="Group_1117799" data-name="Group 1117799" clip-path="url(#clip-path-2)">
          <path id="Path_918610" data-name="Path 918610" d="M338,85.228c0,48.854-86.306,42.165-152.731,75.18C106.147,199.731,0,134.081,0,85.228S74.307,0,167.642,0,338,36.374,338,85.228" transform="translate(0)" fill="#42a3e8"/>
          <rect id="Rectangle_408240" data-name="Rectangle 408240" width="119.002" height="4.306" transform="translate(179.396 29.488)" fill="#4c4dbd"/>
          <rect id="Rectangle_408241" data-name="Rectangle 408241" width="13.094" height="2.838" transform="translate(185.943 30.141)" fill="#fff"/>
          <rect id="Rectangle_408242" data-name="Rectangle 408242" width="13.094" height="2.838" transform="translate(234.276 30.141)" fill="#fff"/>
          <rect id="Rectangle_408243" data-name="Rectangle 408243" width="13.094" height="2.838" transform="translate(280.875 30.141)" fill="#fff"/>
          <path id="Path_918611" data-name="Path 918611" d="M413.756,55.292a.261.261,0,0,0-.15.471l8.068,5.94v.851a.563.563,0,0,0,.558.567h12.447a.563.563,0,0,0,.558-.567V61.7l8.068-5.94a.261.261,0,0,0-.15-.471Z" transform="translate(-229.29 -33.648)" fill="#cf795e"/>
          <path id="Path_918612" data-name="Path 918612" d="M436.833,71.029a20.279,20.279,0,0,1,2.985-.2,20.012,20.012,0,0,1,2.985.2,20.013,20.013,0,0,1-2.985.2,20.279,20.279,0,0,1-2.985-.2" transform="translate(-243.637 -43.106)" fill="#290920"/>
          <path id="Path_918613" data-name="Path 918613" d="M435.833,69.363a2.713,2.713,0,0,1,1.063-.2,2.685,2.685,0,0,1,1.064.2,2.685,2.685,0,0,1-1.064.2,2.713,2.713,0,0,1-1.063-.2" transform="translate(-243.022 -42.092)" fill="#290920"/>
          <path id="Path_918614" data-name="Path 918614" d="M517.825,50.667h-1.256s-3.521,2.243-3.1,5.822c.342,2.893,1.542,3.635,1.99,3.813a.754.754,0,0,0,.28.053h2.913a.756.756,0,0,0,.28-.053c.448-.178,1.648-.92,1.99-3.813.423-3.579-3.1-5.822-3.1-5.822" transform="translate(-290.738 -30.834)" fill="#fff"/>
          <path id="Path_918615" data-name="Path 918615" d="M523.167,71.7a1.388,1.388,0,0,1,.738-.2,1.374,1.374,0,0,1,.738.2,1.37,1.37,0,0,1-.738.2,1.388,1.388,0,0,1-.738-.2" transform="translate(-296.722 -43.512)" fill="#290920"/>
          <path id="Path_918616" data-name="Path 918616" d="M557.246,37.143a13.892,13.892,0,0,1-1.1-3.776h-5.013a13.887,13.887,0,0,1-1.1,3.776c-.919,2.056-2.225,6.224-1.361,9.047a6.521,6.521,0,0,0,2.814,3.275,1.333,1.333,0,0,0,.7.2h2.9a1.334,1.334,0,0,0,.7-.2,6.521,6.521,0,0,0,2.815-3.275c.864-2.823-.441-6.991-1.361-9.047" transform="translate(-312.226 -20.306)" fill="#fff"/>
          <path id="Path_918617" data-name="Path 918617" d="M563.167,70.363a2.4,2.4,0,0,1,1-.2,2.375,2.375,0,0,1,1,.2,2.375,2.375,0,0,1-1,.2,2.4,2.4,0,0,1-1-.2" transform="translate(-321.317 -42.701)" fill="#290920"/>
          <path id="Path_918618" data-name="Path 918618" d="M564.667,68.863a.755.755,0,0,1,.514-.2.747.747,0,0,1,.514.2.747.747,0,0,1-.514.2.754.754,0,0,1-.514-.2" transform="translate(-322.239 -41.788)" fill="#290920"/>
          <path id="Path_918619" data-name="Path 918619" d="M642.994,31.577c-1.37-.6-.913-4.224-.913-4.224h-3.2s.457,3.62-.913,4.224-2.01,1.253-2.01,2.553V45.339a.806.806,0,0,0,.8.812H644.2a.806.806,0,0,0,.8-.812V34.13c0-1.3-.639-1.95-2.009-2.553" transform="translate(-366.077 -16.646)" fill="#cc6c4e"/>
          <path id="Path_918620" data-name="Path 918620" d="M637.333,71.529a9.412,9.412,0,0,1,2.024-.2,9.313,9.313,0,0,1,2.024.2,9.313,9.313,0,0,1-2.024.2,9.411,9.411,0,0,1-2.024-.2" transform="translate(-366.92 -43.41)" fill="#290920"/>
          <path id="Path_918621" data-name="Path 918621" d="M637.833,69.363a1.879,1.879,0,0,1,1.67,0,1.88,1.88,0,0,1-1.67,0" transform="translate(-367.228 -42.092)" fill="#290920"/>
          <path id="Path_918622" data-name="Path 918622" d="M662.3,65a.134.134,0,0,0-.077.242l4.152,3.057v.438a.29.29,0,0,0,.287.292h6.4a.29.29,0,0,0,.287-.292V68.3l4.152-3.057a.134.134,0,0,0-.077-.242Z" transform="translate(-382.19 -39.556)" fill="#cc6c4e"/>
          <path id="Path_918623" data-name="Path 918623" d="M676.167,72.2a13.953,13.953,0,0,1,2.471-.2,13.8,13.8,0,0,1,2.471.2,13.769,13.769,0,0,1-2.471.2,13.953,13.953,0,0,1-2.471-.2" transform="translate(-390.798 -43.816)" fill="#290920"/>
        </g>
      </g>
      <g id="Group_1117811" data-name="Group 1117811" transform="translate(29.289 -13.74)">
        <g id="Group_1117810" data-name="Group 1117810" clip-path="url(#clip-path-3)">
          <path id="Path_918624" data-name="Path 918624" d="M132.606,233.333s7.531,13.348,7.23,24.367H86.666s.6-13.658,5.121-20.332Z" transform="translate(-47.505 -124.69)" fill="#42a3e8"/>
          <path id="Path_918777" data-name="Path 918777" d="M0,0,9.129-.06,9.052,11.973l-9.129.06Z" transform="translate(47.838 51.251) rotate(-12.822)" fill="#fa9778"/>
          <path id="Path_918625" data-name="Path 918625" d="M115.737,109.9l.355,1.607a8.128,8.128,0,0,1-4.136,2.426,7.921,7.921,0,0,1-4.753-.345l-.355-1.607a7.92,7.92,0,0,0,4.752.346,8.126,8.126,0,0,0,4.136-2.426" transform="translate(-58.568 -58.727)" fill="#290920"/>
          <path id="Path_918626" data-name="Path 918626" d="M98,130.753a24.34,24.34,0,0,0,10.391-.082,20.2,20.2,0,0,0,8.762-4.106,15.7,15.7,0,0,0,2.039-2.16c-5.779.546-8.562-1.567-8.562-1.567l-4.249-.007-.049-.175-.35.174h-.389l.029.179-3.726,1.877s-1.57,2.937-6.552,5.019a14.519,14.519,0,0,0,2.657.847" transform="translate(-52.259 -65.546)" fill="#fa9778"/>
          <path id="Path_918627" data-name="Path 918627" d="M92.413,128.144s7.606,1.319,13.932-3.1c0,0,8.962-.621,10.619,1.087s8.059,17.693,10.393,27.316,5.2,25.143,5.2,25.143-32.986,5.9-45.413,3.57a63.56,63.56,0,0,0-.979-17.073c-1.807-7.915-4.67-25.376-3.841-28.558s8.435-6.208,10.092-8.381" transform="translate(-45.043 -66.761)" fill="#004b80"/>
          <path id="Path_918628" data-name="Path 918628" d="M94.992,127.825l5.046,16.84,12.351-3.259-3.464-16.685,4.82-.388L124.389,156.2l11.4,18.365a13.442,13.442,0,0,1,1.552,3.564c1.156,4.25,3.678,14.5,3.211,21.478H86.88l7.133-30.731L91.98,130.153Z" transform="translate(-47.622 -66.442)" fill="#fff"/>
          <path id="Path_918629" data-name="Path 918629" d="M107.181,72.973a2.5,2.5,0,0,0-1.239.365l-.441-1.994a8.217,8.217,0,0,0-9.839-6.379A8.479,8.479,0,0,0,89.472,75.1l.441,1.994a2.492,2.492,0,0,0-1.27.223,2.681,2.681,0,0,0-1.286,3.5c.583,1.333,2.6,3.052,3.89,2.451a1.221,1.221,0,0,0,.142-.085,8.162,8.162,0,0,0,9.406,5.006,8.431,8.431,0,0,0,6.376-8.707,1.21,1.21,0,0,0,.164.013c1.418-.035,2.511-2.484,2.477-3.945a2.6,2.6,0,0,0-2.63-2.582" transform="translate(-47.758 -34.602)" fill="#fa9778"/>
          <path id="Path_918630" data-name="Path 918630" d="M89.253,95.712a1.946,1.946,0,0,1,.825-.21,2.16,2.16,0,0,1,.863.136,1.684,1.684,0,0,1,.718.54,1.539,1.539,0,0,1,.316.824,3.538,3.538,0,0,0-.532-.61,2.189,2.189,0,0,0-.64-.384,5.661,5.661,0,0,0-1.55-.3" transform="translate(-48.923 -51.033)" fill="#290920"/>
          <path id="Path_918631" data-name="Path 918631" d="M92.227,98.693a1.444,1.444,0,0,1-.4-.547,1.729,1.729,0,0,1-.146-.688,1.327,1.327,0,0,1,.2-.693,1.04,1.04,0,0,1,.534-.426,3.108,3.108,0,0,0-.267.565,1.9,1.9,0,0,0-.088.559,6.7,6.7,0,0,0,.161,1.229" transform="translate(-50.254 -51.482)" fill="#290920"/>
          <path id="Path_918632" data-name="Path 918632" d="M131.922,85.688a5.807,5.807,0,0,0-1.273.957,2.257,2.257,0,0,0-.416.631,3.608,3.608,0,0,0-.224.787,1.553,1.553,0,0,1-.061-.883,1.753,1.753,0,0,1,.421-.807,2.207,2.207,0,0,1,.721-.507,1.936,1.936,0,0,1,.832-.179" transform="translate(-71.207 -45.79)" fill="#290920"/>
          <path id="Path_918633" data-name="Path 918633" d="M132.03,89.821a6.668,6.668,0,0,0-.371-1.18,1.863,1.863,0,0,0-.314-.465,2.966,2.966,0,0,0-.478-.391,1.008,1.008,0,0,1,.661.146,1.281,1.281,0,0,1,.475.533,1.709,1.709,0,0,1,.157.685,1.48,1.48,0,0,1-.129.671" transform="translate(-71.732 -46.908)" fill="#290920"/>
          <path id="Path_918634" data-name="Path 918634" d="M122.425,94.079a2.208,2.208,0,0,1-1.612,2.64,2.14,2.14,0,0,1-2.562-1.661,2.209,2.209,0,0,1,1.612-2.641,2.14,2.14,0,0,1,2.562,1.661" transform="translate(-64.788 -49.357)" fill="#fa7c55"/>
          <path id="Path_918635" data-name="Path 918635" d="M103.974,98.278a2.208,2.208,0,0,1-1.612,2.64A2.14,2.14,0,0,1,99.8,99.257a2.209,2.209,0,0,1,1.612-2.641,2.14,2.14,0,0,1,2.562,1.661" transform="translate(-54.674 -51.601)" fill="#fa7c55"/>
          <path id="Path_918636" data-name="Path 918636" d="M109.238,99.389a5,5,0,0,0,2.053.2,2.136,2.136,0,0,0,.9-.366,5.046,5.046,0,0,0,.8-.713,2.149,2.149,0,0,1-.565,1.014,2.032,2.032,0,0,1-.482.364,2.2,2.2,0,0,1-1.735.089,2.454,2.454,0,0,1-.972-.586" transform="translate(-59.877 -52.642)" fill="#290920"/>
          <path id="Path_918637" data-name="Path 918637" d="M110.337,87.921a10.376,10.376,0,0,1,.418,1.21,2.655,2.655,0,0,1,.111.665,1.922,1.922,0,0,1-.131.687c-.081.208-.174.4-.249.583a.829.829,0,0,0-.091.5c.085.312.491.543.881.647a1.311,1.311,0,0,1-.636-.07.887.887,0,0,1-.527-.473,1.061,1.061,0,0,1,.034-.738c.073-.211.164-.4.23-.591a2.009,2.009,0,0,0,.086-1.146,11.048,11.048,0,0,1-.127-1.274" transform="translate(-60.327 -46.984)" fill="#290920"/>
          <path id="Path_918638" data-name="Path 918638" d="M98.366,86.53a2.948,2.948,0,0,1,.674-.935,3.244,3.244,0,0,1,.948-.644,3.3,3.3,0,0,1,1.1-.3,3.107,3.107,0,0,1,1.115.1.418.418,0,0,1,.294.508.41.41,0,0,1-.37.315H102.1c-.317.019-.621.017-.919.051a4.245,4.245,0,0,0-.877.165,3.635,3.635,0,0,0-.816.393,3.688,3.688,0,0,0-.7.6l-.024.026a.236.236,0,0,1-.339.014.255.255,0,0,1-.055-.287" transform="translate(-53.905 -45.227)" fill="#290920"/>
          <path id="Path_918639" data-name="Path 918639" d="M105.163,91.555a.952.952,0,0,1-.695,1.138.923.923,0,0,1-1.1-.716.951.951,0,0,1,.695-1.137.922.922,0,0,1,1.1.716" transform="translate(-56.645 -48.53)" fill="#290920"/>
          <path id="Path_918640" data-name="Path 918640" d="M116.705,82.875a3.47,3.47,0,0,0-1.785-.217,4.29,4.29,0,0,0-.86.242c-.282.1-.556.239-.85.364l-.03.013a.4.4,0,0,1-.53-.228.427.427,0,0,1,.115-.48,3.193,3.193,0,0,1,.964-.585,3.268,3.268,0,0,1,1.122-.219,3.157,3.157,0,0,1,1.125.157,2.835,2.835,0,0,1,1,.543.253.253,0,0,1,.034.349.237.237,0,0,1-.274.074Z" transform="translate(-61.731 -43.693)" fill="#290920"/>
          <path id="Path_918641" data-name="Path 918641" d="M115.74,89.161a.922.922,0,0,0,1.1.716.952.952,0,0,0,.695-1.138.923.923,0,0,0-1.1-.716.952.952,0,0,0-.695,1.138" transform="translate(-63.428 -47.025)" fill="#290920"/>
          <path id="Path_918642" data-name="Path 918642" d="M105.622,66.655a13.767,13.767,0,0,0-1.332-5.7,6.357,6.357,0,0,0-3.932-3.438,3.933,3.933,0,0,0,.206-1.059,1.307,1.307,0,0,0-.371-.979,1.361,1.361,0,0,0-.52-.274,2.757,2.757,0,0,0-3.118,1.517,6.344,6.344,0,0,0,.44-1.6,2.129,2.129,0,0,0-.415-1.568,2.163,2.163,0,0,0-1.87-.616,6.406,6.406,0,0,0-3.772,2.16A17.565,17.565,0,0,0,89,57.452a.95.95,0,0,0-.089.923c.035-.6.047-1.287-.513-1.651a1.181,1.181,0,0,0-1.01-.106,2.79,2.79,0,0,0-1.448,1.489,14.932,14.932,0,0,0-.943,11.775l.784,2.371s1.12-1.834,2.551-1.368,2.033.931,1.657-.853a32.309,32.309,0,0,1-.226-5.587s7.079,1.63,9.79-.233c0,0,3.088,4.578,3.841,4.578.422,0,.655-.537.778-1.009a1.316,1.316,0,0,1,.859-.934Z" transform="translate(-46.155 -28.281)" fill="#290920"/>
          <g id="Group_1117803" data-name="Group 1117803" transform="translate(20.786 163.896)" opacity="0.6" style="mix-blend-mode: multiply;isolation: isolate">
            <g id="Group_1117802" data-name="Group 1117802">
              <g id="Group_1117801" data-name="Group 1117801" clip-path="url(#clip-path-4)">
                <path id="Path_918643" data-name="Path 918643" d="M141.8,355.725c0,2.057-21.445,3.725-47.9,3.725S46,357.782,46,355.725,67.445,352,93.9,352s47.9,1.668,47.9,3.725" transform="translate(-46 -352)" fill="#42a3e8"/>
              </g>
            </g>
          </g>
          <rect id="Rectangle_408247" data-name="Rectangle 408247" width="64.918" height="8.576" transform="translate(35.553 159.353)" fill="#bddbf2"/>
          <path id="Path_918644" data-name="Path 918644" d="M67.015,295.887v20.868c0,2.132,16.892,3.859,37.73,3.859s37.73-1.727,37.73-3.859V295.887Z" transform="translate(-36.733 -158.118)" fill="#fff"/>
          <path id="Path_918645" data-name="Path 918645" d="M141.963,295.4H61.694a3.756,3.756,0,0,1,3.7-3.812h72.871a3.756,3.756,0,0,1,3.7,3.812" transform="translate(-33.817 -155.821)" fill="#bddbf2"/>
          <path id="Path_918646" data-name="Path 918646" d="M197.5,299.733c1.337-.1,2.674-.141,4.01-.178s2.674-.048,4.01-.054,2.674.012,4.011.053l2,.065c.668.039,1.337.061,2.005.114-.668.053-1.337.075-2.005.114l-2,.065c-1.337.042-2.674.048-4.011.054s-2.673-.012-4.01-.054-2.674-.082-4.01-.178" transform="translate(-108.257 -160.048)" fill="#290920"/>
          <path id="Path_918647" data-name="Path 918647" d="M217.75,303.733a23.618,23.618,0,0,1,3.513-.233,23.311,23.311,0,0,1,3.513.233,23.311,23.311,0,0,1-3.513.233,23.63,23.63,0,0,1-3.513-.233" transform="translate(-119.356 -162.186)" fill="#290920"/>
          <path id="Path_918648" data-name="Path 918648" d="M205.25,357.733a22.746,22.746,0,0,1,3.447-.233,22.45,22.45,0,0,1,3.447.233,22.462,22.462,0,0,1-3.447.233,22.762,22.762,0,0,1-3.447-.233" transform="translate(-112.505 -191.043)" fill="#290920"/>
          <path id="Path_918649" data-name="Path 918649" d="M67,297.483c1.537-.1,3.074-.141,4.61-.178s3.074-.048,4.61-.054,3.074.012,4.61.054l2.305.065c.768.039,1.537.061,2.3.114-.768.053-1.537.075-2.3.114l-2.305.065c-1.537.042-3.074.048-4.61.054s-3.074-.012-4.61-.055-3.074-.082-4.61-.178" transform="translate(-36.725 -158.846)" fill="#290920"/>
          <path id="Path_918650" data-name="Path 918650" d="M138.9,195.845a23.786,23.786,0,0,1-3.752-11.4c-.7-3.34,2.256-8.755,3.89-11.413a1.025,1.025,0,0,0-.838-1.573H118.673a1.025,1.025,0,0,0-.838,1.573c1.634,2.658,4.595,8.073,3.89,11.413a23.786,23.786,0,0,1-3.752,11.4c-3.752,6.047-4.906,13.383-3.752,17.943,1.08,4.262,6.781,10.43,7.835,13.16a.808.808,0,0,0,.753.52h11.256a.809.809,0,0,0,.753-.52c1.054-2.73,6.756-8.9,7.835-13.16,1.155-4.56,0-11.9-3.752-17.943" transform="translate(-62.374 -91.625)" fill="#cc6c4e"/>
          <path id="Path_918651" data-name="Path 918651" d="M131,283.233a14.784,14.784,0,0,1,2.773-.233,14.633,14.633,0,0,1,2.773.233,14.64,14.64,0,0,1-2.773.233,14.791,14.791,0,0,1-2.773-.233" transform="translate(-71.806 -151.231)" fill="#290920"/>
          <path id="Path_918652" data-name="Path 918652" d="M130.25,280.983a1.938,1.938,0,0,1,.96-.233,1.918,1.918,0,0,1,.96.233,2.1,2.1,0,0,1-1.92,0" transform="translate(-71.394 -150.029)" fill="#290920"/>
          <path id="Path_918653" data-name="Path 918653" d="M130.25,182.483a16.55,16.55,0,0,1,2.935-.233,16.38,16.38,0,0,1,2.936.233,16.34,16.34,0,0,1-2.936.233,16.55,16.55,0,0,1-2.935-.233" transform="translate(-71.394 -97.392)" fill="#290920"/>
          <path id="Path_918654" data-name="Path 918654" d="M130.5,185.733a3.8,3.8,0,0,1,2.62,0,3.8,3.8,0,0,1-2.62,0" transform="translate(-71.532 -99.128)" fill="#290920"/>
          <path id="Path_918655" data-name="Path 918655" d="M72.89,205.709l-2.5,4.805a105,105,0,0,1-22.476-9.941q-2.732-1.578-5.355-3.273a7.474,7.474,0,0,1-2.463-9.759c.917-1.727,1.83-3.39,2.725-4.977,1.875-3.32,3.7-6.332,5.364-8.963l9.937,9.391c-1.694,2.691-3.335,5.406-4.912,8.12,11.428,9.07,19.683,14.6,19.683,14.6" transform="translate(-21.495 -92.769)" fill="#fa9778"/>
          <path id="Path_918656" data-name="Path 918656" d="M121.659,250.682a1.512,1.512,0,0,1,1.009-2.193c1.774-.345,4.356-.725,5.318-.248,1.525.757,2.372,3.725,1.243,5.471-1.015,1.57-5.041,1.728-7.569-3.03" transform="translate(-66.588 -132.536)" fill="#ffb41b"/>
          <path id="Path_918657" data-name="Path 918657" d="M110.459,242.561l2.822,1.49s4.793-.175,5.245.988-3.158.872-3.158.872,4.4,4.533,4.06,5.172-1.466.523-1.466.523a2.3,2.3,0,0,1-1.579.93,5.707,5.707,0,0,1-2.538-.349c-1.015-.407-6.086-5.02-6.086-5.02Z" transform="translate(-59.066 -129.621)" fill="#fa9778"/>
          <path id="Path_918658" data-name="Path 918658" d="M76.063,151.022,68.515,163.6l-.28-.261L58.3,153.95l-.628-.592a39.221,39.221,0,0,1,6.95-8.744,44.6,44.6,0,0,1,9.277-6.761c1.288-.693,2.074-1.024,2.074-1.024l.117.778-.053,11.727Z" transform="translate(-31.611 -73.119)" fill="#004b80"/>
          <path id="Path_918659" data-name="Path 918659" d="M60,207.25a11.35,11.35,0,0,1,2.942.906,19.862,19.862,0,0,1,2.722,1.48,23.7,23.7,0,0,1,2.491,1.857c.395.336.773.692,1.157,1.038.364.372.732.738,1.081,1.121-.824-.626-1.624-1.27-2.45-1.876s-1.657-1.2-2.518-1.746-1.732-1.072-2.629-1.551c-.45-.237-.906-.465-1.373-.665A12.548,12.548,0,0,0,60,207.25" transform="translate(-32.888 -110.751)" fill="#290920"/>
          <path id="Path_918660" data-name="Path 918660" d="M86.25,181.418l4.519-4.918-3.333,11.568Z" transform="translate(-47.277 -94.319)" fill="#290920"/>
          <path id="Path_918661" data-name="Path 918661" d="M170.867,127.328s0,.456-.041,1.229c-.131,2.621-.709,8.893-3.253,13.265a12.293,12.293,0,0,1-.886,1.336l-13.895-3.143-.3-1.066-3.638-12.721L148.5,125a124.135,124.135,0,0,1,22.367,2.328" transform="translate(-81.398 -66.798)" fill="#004b80"/>
          <path id="Path_918662" data-name="Path 918662" d="M154.46,186s-6.463,4.334-8.909,4.3c-.546-.008.218-.8,1.409-1.641a30.25,30.25,0,0,1-4.014,1.086c-.46-.072,4.313-2.86,4.313-2.86s-5.462,2.085-5.839,1.7,4.664-2.871,4.664-2.871-4.4,1.643-4.745,1.244,5.629-3.245,5.629-3.245-2.406-1.2-1.9-1.766,3.238-.409,4.266-.182,4.695-1.381,4.695-1.381Z" transform="translate(-77.465 -96.391)" fill="#fa9778"/>
          <path id="Path_918663" data-name="Path 918663" d="M199.343,151.195l-.967.433a110.915,110.915,0,0,1-30.587,9.028l0-.014-1.735-5.136.2-.1c.018-.009.045-.019.072-.033,1.333-.619,7.474-3.52,16.141-8.209-1.744-.438-3.506-.857-5.273-1.262,2.544-4.372,3.122-10.644,3.253-13.265,5.314,1.266,11.545,2.985,18.179,5.266.05.019.1.037.149.051,5.969,2.053,6.331,10.625.569,13.237" transform="translate(-91.018 -70.881)" fill="#fa9778"/>
          <path id="Path_918664" data-name="Path 918664" d="M191,161.333c1.165-.784,2.364-1.509,3.573-2.215s2.439-1.374,3.679-2.023,2.5-1.25,3.793-1.8a18.878,18.878,0,0,1,3.979-1.3,18.161,18.161,0,0,0-1.945.751c-.638.274-1.267.573-1.893.876-1.248.62-2.493,1.243-3.732,1.884l-3.718,1.921c-1.241.639-2.48,1.284-3.736,1.9" transform="translate(-104.694 -82.295)" fill="#290920"/>
          <path id="Path_918665" data-name="Path 918665" d="M168.54,156.354,164,152.5l6.278,8.951-.571-1.738Z" transform="translate(-89.894 -81.494)" fill="#290920"/>
          <path id="Path_918666" data-name="Path 918666" d="M318.924,214.3s-16.041,17.241-15.288,36.331h54.676s2.713-21.6-14.534-36.331Z" transform="translate(-166.419 -114.521)" fill="#004b80"/>
          <path id="Path_918778" data-name="Path 918778" d="M0,0,12.449-.039,12.42,9.08-.029,9.119Z" transform="translate(159.112 55.708) rotate(-83.919)" fill="#fa9778"/>
          <path id="Path_918667" data-name="Path 918667" d="M363.366,98.329l-.166,1.6a8.031,8.031,0,0,1-9.063-1l.166-1.6a8.062,8.062,0,0,0,4.384,1.909,7.979,7.979,0,0,0,4.68-.914" transform="translate(-194.115 -52.014)" fill="#290920"/>
          <path id="Path_918668" data-name="Path 918668" d="M337.6,110.977a1.459,1.459,0,0,1,1.069-1.584c2.655-.628,8.255-1.9,8.713-1.609.6.388,1.356,5.743,3.539,6.364s5.272,1.164,7.908,1.785,3.615,11.02,2.561,14.512-5.722,23.021-5.346,26.914H331.194a79.537,79.537,0,0,0-3.163-18.533c-2.787-8.614-2.41-18.237-.678-20.332s4.067-2.561,6.7-3.414c2.2-.711,3.713-2.123,3.548-4.1" transform="translate(-178.689 -57.574)" fill="#ffb41b"/>
          <path id="Path_918669" data-name="Path 918669" d="M309.488,200.885c-.452-20.371,14.686-52.265,14.686-52.265l-.506-26.312,2.878-1.508,1.356,13.386h13.1l.339-13.779,3.728,1.179-.339,27.733s15.589,36.318,14.347,50.286Z" transform="translate(-169.635 -64.343)" fill="#fff"/>
          <path id="Path_918670" data-name="Path 918670" d="M362.412,61.92a2.485,2.485,0,0,0-1.286-.069l.21-2.033a8.411,8.411,0,0,0-7.3-9.32,8.284,8.284,0,0,0-9.044,7.525l-.21,2.034a2.485,2.485,0,0,0-1.272-.212,2.626,2.626,0,0,0-2.318,2.882c.132,1.456,1.5,3.755,2.909,3.618a1.255,1.255,0,0,0,.161-.033,8.358,8.358,0,0,0,7.324,7.875,8.227,8.227,0,0,0,8.77-6.109,1.294,1.294,0,0,0,.151.067c1.353.44,3.157-1.511,3.584-2.905a2.663,2.663,0,0,0-1.676-3.321" transform="translate(-187.011 -26.959)" fill="#fa9778"/>
          <path id="Path_918671" data-name="Path 918671" d="M343.808,74.191a1.938,1.938,0,0,1,.847.077,2.2,2.2,0,0,1,.773.416,1.74,1.74,0,0,1,.51.751,1.559,1.559,0,0,1,.04.885,3.608,3.608,0,0,0-.312-.755,2.253,2.253,0,0,0-.485-.576,5.761,5.761,0,0,0-1.373-.8" transform="translate(-188.453 -39.637)" fill="#290920"/>
          <path id="Path_918672" data-name="Path 918672" d="M345.227,78.053a1.472,1.472,0,0,1-.2-.65,1.721,1.721,0,0,1,.078-.7,1.294,1.294,0,0,1,.411-.587,1.013,1.013,0,0,1,.639-.224,3.026,3.026,0,0,0-.43.446,1.86,1.86,0,0,0-.259.5,6.71,6.71,0,0,0-.234,1.217" transform="translate(-189.114 -40.555)" fill="#290920"/>
          <path id="Path_918673" data-name="Path 918673" d="M386.711,78.98a5.682,5.682,0,0,0-1.505.481,2.206,2.206,0,0,0-.592.459,3.553,3.553,0,0,0-.459.67,1.545,1.545,0,0,1,.22-.856,1.706,1.706,0,0,1,.652-.623,2.163,2.163,0,0,1,.841-.239,1.936,1.936,0,0,1,.844.108" transform="translate(-210.568 -42.144)" fill="#290920"/>
          <path id="Path_918674" data-name="Path 918674" d="M386.282,82.283a6.7,6.7,0,0,0,.02-1.24,1.9,1.9,0,0,0-.151-.544,3.081,3.081,0,0,0-.329-.529,1.025,1.025,0,0,1,.579.359,1.316,1.316,0,0,1,.282.663,1.723,1.723,0,0,1-.067.7,1.461,1.461,0,0,1-.333.592" transform="translate(-211.482 -42.734)" fill="#290920"/>
          <path id="Path_918675" data-name="Path 918675" d="M374.835,83.907a2.157,2.157,0,0,1-2.355,1.96,2.191,2.191,0,0,1-1.9-2.427,2.157,2.157,0,0,1,2.355-1.96,2.19,2.19,0,0,1,1.9,2.427" transform="translate(-203.12 -43.535)" fill="#fa7c55"/>
          <path id="Path_918676" data-name="Path 918676" d="M356.018,81.9a2.158,2.158,0,0,1-2.356,1.96,2.19,2.19,0,0,1-1.9-2.427,2.157,2.157,0,0,1,2.355-1.96,2.191,2.191,0,0,1,1.9,2.427" transform="translate(-192.805 -42.464)" fill="#fa7c55"/>
          <path id="Path_918677" data-name="Path 918677" d="M361.276,84.89a5.065,5.065,0,0,0,1.88.873,2.1,2.1,0,0,0,.967-.045,4.916,4.916,0,0,0,.982-.407,2.087,2.087,0,0,1-.854.771,1.977,1.977,0,0,1-.57.183,2.346,2.346,0,0,1-.6-.012,2.44,2.44,0,0,1-1.068-.482,2.531,2.531,0,0,1-.736-.88" transform="translate(-198.028 -45.364)" fill="#290920"/>
          <path id="Path_918678" data-name="Path 918678" d="M364.989,73.549A10.5,10.5,0,0,1,365,74.833a2.662,2.662,0,0,1-.1.666,1.893,1.893,0,0,1-.34.607c-.142.17-.29.318-.418.468a.817.817,0,0,0-.244.443,1.235,1.235,0,0,0,.629.907,1.338,1.338,0,0,1-.579-.279.911.911,0,0,1-.35-.623,1.047,1.047,0,0,1,.264-.687c.135-.176.281-.326.4-.482a1.984,1.984,0,0,0,.442-1.056,10.912,10.912,0,0,1,.281-1.247" transform="translate(-199.3 -39.303)" fill="#290920"/>
          <path id="Path_918679" data-name="Path 918679" d="M354.721,69.2a2.86,2.86,0,0,1,.932-.661,3.18,3.18,0,0,1,1.1-.292,3.272,3.272,0,0,1,1.138.082,3.154,3.154,0,0,1,1.024.464.426.426,0,0,1,.119.578.4.4,0,0,1-.449.175l-.032-.009c-.306-.088-.593-.191-.885-.259a4.267,4.267,0,0,0-.882-.136,3.479,3.479,0,0,0-1.748.431l-.031.017a.237.237,0,0,1-.325-.1.254.254,0,0,1,.038-.29" transform="translate(-194.398 -36.465)" fill="#290920"/>
          <path id="Path_918680" data-name="Path 918680" d="M359.869,75.514a.93.93,0,0,1-1.015.845.944.944,0,0,1-.82-1.046.93.93,0,0,1,1.015-.845.944.944,0,0,1,.82,1.046" transform="translate(-196.248 -39.792)" fill="#290920"/>
          <path id="Path_918681" data-name="Path 918681" d="M357.27,74.5a.67.67,0,0,0,.557.183.249.249,0,0,1,.331.135.263.263,0,0,1-.132.342.249.249,0,0,1-.112.021l-.058,0a.842.842,0,0,1-.471-.185,1.408,1.408,0,0,1-.3-.329.128.128,0,0,1,.03-.175.12.12,0,0,1,.145,0Z" transform="translate(-195.719 -39.794)" fill="#290920"/>
          <path id="Path_918682" data-name="Path 918682" d="M373.571,71.432a3.532,3.532,0,0,0-1.621-.8,4.246,4.246,0,0,0-.89-.058c-.3,0-.6.041-.918.061l-.033,0a.41.41,0,0,1-.429-.392.418.418,0,0,1,.26-.416,3.111,3.111,0,0,1,1.1-.231,3.275,3.275,0,0,1,1.13.166,3.216,3.216,0,0,1,1.015.525,2.9,2.9,0,0,1,.776.848.253.253,0,0,1-.077.341.235.235,0,0,1-.282-.022Z" transform="translate(-202.634 -37.189)" fill="#290920"/>
          <path id="Path_918683" data-name="Path 918683" d="M370.656,76.657a.944.944,0,0,0,.82,1.046.929.929,0,0,0,1.015-.845.944.944,0,0,0-.82-1.046.93.93,0,0,0-1.015.845" transform="translate(-203.166 -40.51)" fill="#290920"/>
          <path id="Path_918684" data-name="Path 918684" d="M374.557,76.646a1.384,1.384,0,0,1-.362.256.83.83,0,0,1-.5.079l-.056-.009a.259.259,0,0,1-.208-.3.25.25,0,0,1,.395-.17.664.664,0,0,0,.582-.058l.01-.005a.121.121,0,0,1,.164.058.128.128,0,0,1-.026.148" transform="translate(-204.689 -40.842)" fill="#290920"/>
          <path id="Path_918685" data-name="Path 918685" d="M338.342,56.385c6.223,2.1,7.993-5.3,7.993-5.3s3.659,7.443,7.069,7.3c0,0-.415,1.66.081,1.842s1.235-2.182,1.235-2.182,2.194-.1,2.777,1.68-.618,4.258-3.583,4.645a9.24,9.24,0,0,1-4.085,5.16l-.494,4.748a4.039,4.039,0,0,0,3.859,4.531c2.248.025,4.694-.476,5.466-2.589,1.54-4.213.221-11.949,1.178-15.634S358.772,47.5,354.05,46.589c0,0-14.622-9.5-19.387,4.488-1.013,2.975-.42,6.4-1.357,9.4a13,13,0,0,1-2.478,4.59,5.556,5.556,0,0,0,.356,7.722,10.686,10.686,0,0,0,8.838,2.753l.743-7.01s-2.093-1.444-2.975-5.924c0,0-2.956-.477-2.818-4.308a2.258,2.258,0,0,1,.686-1.59,2.519,2.519,0,0,1,2.684-.326" transform="translate(-180.578 -23.213)" fill="#290920"/>
          <g id="Group_1117806" data-name="Group 1117806" transform="translate(126.071 165.992)" opacity="0.6" style="mix-blend-mode: multiply;isolation: isolate">
            <g id="Group_1117805" data-name="Group 1117805">
              <g id="Group_1117804" data-name="Group 1117804" clip-path="url(#clip-path-5)">
                <path id="Path_918686" data-name="Path 918686" d="M356.721,358.828c0,1.286-17.4,2.328-38.86,2.328S279,360.114,279,358.828s17.4-2.328,38.86-2.328,38.86,1.042,38.86,2.328" transform="translate(-279 -356.5)" fill="#42a3e8"/>
              </g>
            </g>
          </g>
          <path id="Path_918687" data-name="Path 918687" d="M289.99,272.585v7.174h.023c.487,2.155,14.749,3.884,32.285,3.884s31.8-1.729,32.285-3.884h.023v-7.174Z" transform="translate(-158.953 -145.665)" fill="#bddbf2"/>
          <path id="Path_918688" data-name="Path 918688" d="M354.607,268c0,2.208-14.465,4-32.308,4s-32.308-1.79-32.308-4,14.465-4,32.308-4,32.308,1.79,32.308,4" transform="translate(-158.953 -141.077)" fill="#fff"/>
          <rect id="Rectangle_408250" data-name="Rectangle 408250" width="8.807" height="36.005" transform="translate(158.942 131.924)" fill="#bddbf2"/>
          <path id="Path_918689" data-name="Path 918689" d="M358.136,356.9h-31.48a3.519,3.519,0,0,1,3.464-3.57h24.551a3.518,3.518,0,0,1,3.464,3.57" transform="translate(-179.051 -188.816)" fill="#bddbf2"/>
          <rect id="Rectangle_408251" data-name="Rectangle 408251" width="8.797" height="4.695" transform="translate(158.944 137.938)" fill="#290920"/>
          <path id="Path_918690" data-name="Path 918690" d="M351.833,353.224a32.68,32.68,0,0,1,7.908,0,32.683,32.683,0,0,1-7.908,0" transform="translate(-192.852 -188.63)" fill="#290920"/>
          <path id="Path_918691" data-name="Path 918691" d="M291.667,286.724a21,21,0,0,1,6.333,0,21.006,21.006,0,0,1-6.333,0" transform="translate(-159.873 -153.093)" fill="#290920"/>
          <path id="Path_918692" data-name="Path 918692" d="M292.167,284.725a4.178,4.178,0,0,1,2.791,0,4.178,4.178,0,0,1-2.791,0" transform="translate(-160.147 -152.024)" fill="#290920"/>
          <path id="Path_918693" data-name="Path 918693" d="M358.054,189.192c-.9-9.921-8.788-19.149-7.949-22.553a11.323,11.323,0,0,1,1.251-3.384.27.27,0,0,0-.214-.423H332.777a.27.27,0,0,0-.214.423,11.316,11.316,0,0,1,1.251,3.384c.84,3.4-7.053,12.632-7.948,22.553-.615,6.811,4.22,16.144,6.372,20.088a6.141,6.141,0,0,0,1.524,1.829v.059s.07.035.2.1a5.726,5.726,0,0,0,1.563.829,21.976,21.976,0,0,0,12.877,0,5.725,5.725,0,0,0,1.563-.829c.129-.06.2-.1.2-.1v-.059a6.14,6.14,0,0,0,1.524-1.829c2.152-3.944,6.987-13.278,6.372-20.088" transform="translate(-178.588 -87.016)" fill="#cf795e"/>
          <path id="Path_918694" data-name="Path 918694" d="M341.667,261.557a25.7,25.7,0,0,1,7.01,0,25.71,25.71,0,0,1-7.01,0" transform="translate(-187.279 -139.644)" fill="#290920"/>
          <path id="Path_918695" data-name="Path 918695" d="M341.333,260.225a2.973,2.973,0,0,1,2.339,0,2.973,2.973,0,0,1-2.339,0" transform="translate(-187.096 -138.932)" fill="#290920"/>
          <path id="Path_918696" data-name="Path 918696" d="M339.026,185.089c1.282-1.428,3.427-1.059,5.035-.529,1.677.525,3.361,1,5.074,1.367,2.491.547,5.274,1.219,7.546-.279a4.1,4.1,0,0,0,1.64-2.015,4.054,4.054,0,0,1-1.515,2.2c-2.263,1.7-5.229,1.084-7.768.546a45.532,45.532,0,0,1-5.083-1.481c-1.585-.587-3.527-1.058-4.93.189" transform="translate(-185.832 -98.13)" fill="#290920"/>
          <path id="Path_918697" data-name="Path 918697" d="M334.6,198.02c7.881-3.453,15.79,5.389,22.744,2.139a5.717,5.717,0,0,0,2.459-2.231,5.639,5.639,0,0,1-2.359,2.434c-7.066,3.64-14.942-5.183-22.845-2.343" transform="translate(-183.407 -105.383)" fill="#290920"/>
          <path id="Path_918698" data-name="Path 918698" d="M327.75,230.231c9.885-.313,19.836-.313,29.724,0-9.888.313-19.838.313-29.724,0" transform="translate(-179.651 -122.906)" fill="#290920"/>
          <path id="Path_918699" data-name="Path 918699" d="M331,241.731c8.791-.313,17.643-.313,26.436,0-8.794.313-17.645.313-26.436,0" transform="translate(-181.432 -129.052)" fill="#290920"/>
          <path id="Path_918700" data-name="Path 918700" d="M340.153,174.8l-.005,0c-.635.093-2.3.333-4.814.645v7.774c2.1-1.058,4.2-2.124,6.323-3.162v-.014l-1.219-5.288-.284.042" transform="translate(-183.808 -93.387)" fill="#fa9778"/>
          <path id="Path_918701" data-name="Path 918701" d="M345.609,176.2s7.711.077,9.754-1.31c.456-.309-.6-.557-2.045-.6a30.276,30.276,0,0,0,3.952-1.307c.35-.316-5.129-.024-5.129-.024s5.694-1.266,5.811-1.8-5.43.161-5.43.161,4.57-1.052,4.651-1.578-6.44.38-6.44.38,1.4-2.341.685-2.544-2.944,1.448-3.693,2.209-4.68,1.435-4.68,1.435Z" transform="translate(-188.035 -89.54)" fill="#fa9778"/>
          <path id="Path_918702" data-name="Path 918702" d="M298.758,124.667a39.168,39.168,0,0,0-19.807,12.184c-9.113,10.166-14.987,14.2-13.933,21.806s36.225-3.492,36.225-3.492l-1.657-6.984-16.116,1.164,15.062-9.157Z" transform="translate(-145.199 -66.62)" fill="#ffb41b"/>
          <path id="Path_918703" data-name="Path 918703" d="M283.125,178.879a23.749,23.749,0,0,1,10.506-1.4c-3.548.241-6.995.839-10.506,1.4" transform="translate(-155.19 -94.777)" fill="#290920"/>
          <path id="Path_918704" data-name="Path 918704" d="M327.938,162.309,331.524,160l-3.012,4.753-.294-1.087c-.03-.11-.056-.221-.078-.332Z" transform="translate(-179.754 -85.502)" fill="#290920"/>
          <path id="Path_918705" data-name="Path 918705" d="M289.25,175a9.367,9.367,0,0,1,6.326,1.106A57.978,57.978,0,0,0,289.25,175" transform="translate(-158.548 -93.461)" fill="#290920"/>
          <path id="Path_918706" data-name="Path 918706" d="M427.027,161.383c-1.243,10.476-23.723-2.561-23.723-2.561l.054-.438.759-6.067.09-.712,3.05,1.4-5.522-6.551-.881-1.048-6.914-8.2-.691-12.953a22.559,22.559,0,0,1,12.313,5.7c5.422,5.122,22.706,20.953,21.464,31.429" transform="translate(-215.554 -66.397)" fill="#ffb41b"/>
          <path id="Path_918707" data-name="Path 918707" d="M405.687,176.861c-.1-1.079-2.417-3-3.162-2.957a.248.248,0,0,0-.2.118c-.019.048-.04.095-.063.143a6.526,6.526,0,0,0,.416,2.374s.746,1.4,1.283,1.279,1.813.005,1.726-.958" transform="translate(-220.476 -92.931)" fill="#fa9778"/>
          <path id="Path_918708" data-name="Path 918708" d="M392.333,167.214l17.559-14.6a.1.1,0,0,1,.128.149l-15,15.08Z" transform="translate(-215.051 -81.541)" fill="#42a3e8"/>
          <path id="Path_918709" data-name="Path 918709" d="M381.736,187.464a8.472,8.472,0,0,1-3.087,1.491c-.122.188.142.386.353.444a5.537,5.537,0,0,0,3.5-.069,3.375,3.375,0,0,0,2.137-2.7c.131-1.487-2.579.587-2.906.837" transform="translate(-207.533 -99.446)" fill="#4c4dbd"/>
          <path id="Path_918710" data-name="Path 918710" d="M391.494,181.5l1.525,1.8-3.276,2.192-1.243-1.552Z" transform="translate(-212.95 -96.991)" fill="#42a3e8"/>
          <path id="Path_918711" data-name="Path 918711" d="M413.83,184.412l-.759,6.067a16.244,16.244,0,0,1-2.1-1.374l.009-.014c.167.042.262.061.262.061l2.318-4.842c.077.028.167.065.271.1" transform="translate(-225.267 -98.492)" fill="#fa9778"/>
          <path id="Path_918712" data-name="Path 918712" d="M413.57,184.166l-2.318,4.842s-.095-.019-.262-.061l2.259-4.908s.063.028.194.075c.009,0,.014,0,.018.009a.407.407,0,0,1,.059.019.1.1,0,0,1,.023.014.142.142,0,0,1,.027.009" transform="translate(-225.278 -98.348)" fill="#fa9778"/>
          <path id="Path_918713" data-name="Path 918713" d="M403.014,180.695l-2.318,4.842s-.095-.019-.262-.061a46.708,46.708,0,0,1-6.543-1.918s-1.044-.345-1.676-.643a1.478,1.478,0,0,1-.452-.275.114.114,0,0,1-.027-.07.105.105,0,0,1,.023-.093c.154-.228.926-.41.926-.41a1.794,1.794,0,0,1-.465-.67c-.027-.158.2-.466.407-.7.154-.182.294-.317.294-.317a1.242,1.242,0,0,1-.176-.447c0-.033-.014-.07-.018-.107-.014-.074-.027-.158-.036-.251-.054-.591,1.256-.889,1.256-.889a2.019,2.019,0,0,1,.52-1.076c.149-.13.524-.042.935.116a12.489,12.489,0,0,1,1.518.759l0,0,.4.042,2.612.279c.5.782,2.445,1.625,2.955,1.835.009,0,.014,0,.018.009.036.014.063.023.081.033a.142.142,0,0,1,.027.009" transform="translate(-214.722 -94.877)" fill="#fa9778"/>
          <path id="Path_918714" data-name="Path 918714" d="M399.628,157.315l-2.754-3.565,1.878,7.028Z" transform="translate(-217.541 -82.162)" fill="#290920"/>
          <path id="Path_918715" data-name="Path 918715" d="M424.125,185.977a32.814,32.814,0,0,1,5.785-.19,16.271,16.271,0,0,1,5.681,1.122c-.4-.1-1-.223-1.415-.278-3.227-.454-6.8-.448-10.051-.653" transform="translate(-232.477 -99.257)" fill="#290920"/>
          <path id="Path_918716" data-name="Path 918716" d="M433.266,181.875c-2.312.635-4.7.958-6.891,1.979,1.887-1.6,4.516-1.986,6.891-1.979" transform="translate(-233.711 -97.191)" fill="#290920"/>
          <path id="Path_918717" data-name="Path 918717" d="M525.592,239.592s-6.043,12.407-4.472,19.925l53.518-.029s-1.6-17.257-6.722-23.155Z" transform="translate(-285.501 -126.293)" fill="#4c4dbd"/>
          <path id="Path_918779" data-name="Path 918779" d="M0,0,9.12-.038,9.072,12.006l-9.12.038Z" transform="translate(249.27 48.731) rotate(-7.861)" fill="#fa9778"/>
          <path id="Path_918718" data-name="Path 918718" d="M561.282,106.27l.219,1.632a8.076,8.076,0,0,1-4.324,2.048,7.931,7.931,0,0,1-4.706-.768l-.219-1.632a7.935,7.935,0,0,0,4.706.768,8.076,8.076,0,0,0,4.324-2.048" transform="translate(-302.708 -56.789)" fill="#290920"/>
          <path id="Path_918719" data-name="Path 918719" d="M559.818,121.208c-7.038.579-10.139-2.255-10.139-2.255l-4.233-.386-.034-.178-.363.142-.387-.035.014.182-3.87,1.538a11.648,11.648,0,0,1-4.834,3.609c-1.207.548-7.557,27.287-5.829,39.261s2.412,17.284,2.412,17.284l40.781-5.8s-.739-5.3-2.223-17.31-4.255-36.629-11.293-36.05" transform="translate(-290.427 -63.265)" fill="#fa9778"/>
          <path id="Path_918720" data-name="Path 918720" d="M537.466,122.25s-.471,13.658,3.144,13.968,9.941.621,10.242-4.191-3.107-12.174-3.107-12.174l7.625,1.872,11.41,15.54,5.912,39.15s-36.6,3.88-45.789,3.725c0,0,.753-16.141-.9-24.988l5.2-29.567Z" transform="translate(-288.319 -64.048)" fill="#ff6168"/>
          <path id="Path_918721" data-name="Path 918721" d="M535.4,123.949l3.013,20.021,15.966-2.328L550.917,121l3.465.776,5.292,23.207a13.562,13.562,0,0,0,5.489,8.164l5.486,3.783,5.338,40.94-48.463-.007-.857-35.113,3.83-4.02a13.8,13.8,0,0,0,3.705-10.816l-2.113-22.258Z" transform="translate(-288.684 -64.661)" fill="#fff"/>
          <path id="Path_918722" data-name="Path 918722" d="M610.359,120.231l-11.861,13.5-4.586-9.675-5.148-10.5-.16-.126,19.609-8.682.09.661,1.862,13.414Z" transform="translate(-322.634 -55.977)" fill="#ff6168"/>
          <path id="Path_918723" data-name="Path 918723" d="M623.8,97.351c-.05.014-.1.028-.149.037-3.818.973-8.125,2.4-12.34,3.944l1.862,13.414c.782-.27,1.564-.531,2.35-.792-7.465,14.332-13.809,24.417-14.889,26.1,0,0,0,.009-.009.014l-.012.02a9.64,9.64,0,0,1-2.426,2.6c-.986.376-3.38,1.751-3.507,2.509s2.526.439,2.526.439-3.562,5.7-3.065,5.848,3.36-3.67,3.36-3.67-2.964,4.881-2.445,5,4.046-4.658,4.046-4.658-2.58,4.989-2.154,4.8a31.582,31.582,0,0,0,2.825-3.134c-.57,1.364-.8,2.458-.337,2.164,1.852-1.171,4.582-7,5.171-8.289l.012.008c11.306-9.61,20.329-22.256,27.243-34.535.081-.14.158-.275.235-.414,3.3-5.9-1.884-13.019-8.3-11.4" transform="translate(-325.644 -51.898)" fill="#fa9778"/>
          <path id="Path_918724" data-name="Path 918724" d="M611.386,157.275,607,154.75l5.234,8.148Z" transform="translate(-332.717 -82.696)" fill="#290920"/>
          <path id="Path_918725" data-name="Path 918725" d="M646.85,116.5c-1.046,1.332-2.1,2.629-3.127,3.959-.519.658-1.012,1.336-1.512,2.01s-.975,1.367-1.461,2.064a19.67,19.67,0,0,1,2.62-4.363,23.517,23.517,0,0,1,3.48-3.669" transform="translate(-351.217 -62.256)" fill="#290920"/>
          <path id="Path_918726" data-name="Path 918726" d="M554.647,68.891a2.5,2.5,0,0,0-1.265.253l-.271-2.026a8.266,8.266,0,0,0-9.267-7.232,8.43,8.43,0,0,0-7.019,9.548l.272,2.026a2.481,2.481,0,0,0-1.284.11,2.668,2.668,0,0,0-1.575,3.373c.469,1.38,2.33,3.272,3.669,2.789a1.217,1.217,0,0,0,.149-.072,8.209,8.209,0,0,0,8.95,5.825,8.377,8.377,0,0,0,7.083-8.106,1.2,1.2,0,0,0,.162.027c1.416.091,2.71-2.25,2.8-3.709a2.621,2.621,0,0,0-2.4-2.807" transform="translate(-292.755 -31.959)" fill="#fa9778"/>
          <path id="Path_918727" data-name="Path 918727" d="M536.315,89a1.941,1.941,0,0,1,.84-.136,2.151,2.151,0,0,1,.848.212,1.692,1.692,0,0,1,.671.6,1.546,1.546,0,0,1,.246.849,3.534,3.534,0,0,0-.479-.656,2.194,2.194,0,0,0-.605-.44A5.684,5.684,0,0,0,536.315,89" transform="translate(-293.973 -47.487)" fill="#290920"/>
          <path id="Path_918728" data-name="Path 918728" d="M538.926,92.22a1.45,1.45,0,0,1-.352-.581,1.717,1.717,0,0,1-.088-.7,1.319,1.319,0,0,1,.262-.672,1.032,1.032,0,0,1,.568-.377,3,3,0,0,0-.313.54,1.865,1.865,0,0,0-.135.549,6.648,6.648,0,0,0,.057,1.239" transform="translate(-295.16 -48.037)" fill="#290920"/>
          <path id="Path_918729" data-name="Path 918729" d="M579.522,82.819a5.791,5.791,0,0,0-1.349.84,2.246,2.246,0,0,0-.467.592,3.574,3.574,0,0,0-.289.765,1.553,1.553,0,0,1,.013-.886,1.737,1.737,0,0,1,.487-.766,2.2,2.2,0,0,1,.76-.441,1.942,1.942,0,0,1,.844-.1" transform="translate(-316.47 -44.251)" fill="#290920"/>
          <path id="Path_918730" data-name="Path 918730" d="M579.466,86.757a6.712,6.712,0,0,0-.271-1.209,1.851,1.851,0,0,0-.274-.491,2.991,2.991,0,0,0-.443-.432,1.014,1.014,0,0,1,.646.2,1.289,1.289,0,0,1,.429.574,1.727,1.727,0,0,1,.1.7,1.474,1.474,0,0,1-.185.657" transform="translate(-317.084 -45.222)" fill="#290920"/>
          <path id="Path_918731" data-name="Path 918731" d="M569.295,90.379a2.195,2.195,0,0,1-1.828,2.486,2.152,2.152,0,0,1-2.413-1.883,2.2,2.2,0,0,1,1.828-2.487,2.153,2.153,0,0,1,2.413,1.883" transform="translate(-309.714 -47.28)" fill="#fa7c55"/>
          <path id="Path_918732" data-name="Path 918732" d="M550.55,92.966a2.195,2.195,0,0,1-1.828,2.486,2.152,2.152,0,0,1-2.413-1.883,2.2,2.2,0,0,1,1.828-2.487,2.153,2.153,0,0,1,2.413,1.883" transform="translate(-299.44 -48.662)" fill="#fa7c55"/>
          <path id="Path_918733" data-name="Path 918733" d="M555.841,94.692a5.011,5.011,0,0,0,2.028.38,2.124,2.124,0,0,0,.928-.284,5.032,5.032,0,0,0,.858-.639,2.13,2.13,0,0,1-.648.96,2.008,2.008,0,0,1-.51.319,2.38,2.38,0,0,1-.587.138,2.413,2.413,0,0,1-1.149-.2,2.475,2.475,0,0,1-.92-.671" transform="translate(-304.675 -50.312)" fill="#290920"/>
          <path id="Path_918734" data-name="Path 918734" d="M557.659,83.007a10.437,10.437,0,0,1,.315,1.242,2.653,2.653,0,0,1,.054.672,1.921,1.921,0,0,1-.187.673c-.1.2-.207.38-.3.558a.829.829,0,0,0-.133.49c.058.318.444.585.823.723a1.315,1.315,0,0,1-.627-.127.892.892,0,0,1-.485-.518,1.057,1.057,0,0,1,.1-.732c.09-.2.2-.386.278-.568a2,2,0,0,0,.182-1.134,11.158,11.158,0,0,1-.019-1.28" transform="translate(-305.359 -44.358)" fill="#290920"/>
          <path id="Path_918735" data-name="Path 918735" d="M546.008,80.854a2.921,2.921,0,0,1,.75-.873,3.228,3.228,0,0,1,1-.557,3.286,3.286,0,0,1,1.124-.2,3.123,3.123,0,0,1,1.1.2.421.421,0,0,1,.25.532.406.406,0,0,1-.395.281h-.033c-.318-.01-.62-.039-.92-.032a4.263,4.263,0,0,0-.887.086,3.531,3.531,0,0,0-1.6.853l-.026.024a.235.235,0,0,1-.339-.016.254.254,0,0,1-.03-.291" transform="translate(-299.268 -42.334)" fill="#290920"/>
          <path id="Path_918736" data-name="Path 918736" d="M552.447,86.246a.946.946,0,0,1-.788,1.071.927.927,0,0,1-1.04-.812.945.945,0,0,1,.788-1.071.928.928,0,0,1,1.04.812" transform="translate(-301.808 -45.65)" fill="#290920"/>
          <path id="Path_918737" data-name="Path 918737" d="M564.681,78.739a3.487,3.487,0,0,0-1.76-.375,4.253,4.253,0,0,0-.877.165c-.29.077-.574.189-.877.287l-.031.01a.4.4,0,0,1-.508-.274.425.425,0,0,1,.155-.468,3.149,3.149,0,0,1,1.009-.5,3.264,3.264,0,0,1,1.136-.119,3.171,3.171,0,0,1,1.108.257,2.848,2.848,0,0,1,.951.63.253.253,0,0,1,0,.35.235.235,0,0,1-.279.049Z" transform="translate(-307.289 -41.395)" fill="#290920"/>
          <path id="Path_918738" data-name="Path 918738" d="M563.192,84.77a.927.927,0,0,0,1.039.812.945.945,0,0,0,.788-1.071.927.927,0,0,0-1.04-.812.945.945,0,0,0-.787,1.071" transform="translate(-308.7 -44.723)" fill="#290920"/>
          <path id="Path_918739" data-name="Path 918739" d="M535.841,60.671a6.362,6.362,0,0,0-2.577,4.218,14.179,14.179,0,0,0,.317,5.2,2.721,2.721,0,0,1,2.994-2.27s.339,1.746.753,1.513.555-2.059.489-2.677c-.678-6.325,10.129-4.346,10.129-4.346s1.431,3.686,3.426,3.958c0,0,0,2.444.565,2.522s.941-3.259.941-3.259a3.118,3.118,0,0,1,3.427,1.242,8.294,8.294,0,0,0,.087-2.578,5.241,5.241,0,0,0-.286-.928,8.079,8.079,0,0,0-2.872-3.922A9.556,9.556,0,0,0,547.87,53.9a12.361,12.361,0,0,0-7.545-.454,5.747,5.747,0,0,0-3.691,2.217,7.647,7.647,0,0,0-.792,5.009" transform="translate(-292.228 -28.358)" fill="#290920"/>
          <g id="Group_1117809" data-name="Group 1117809" transform="translate(215.54 161.801)" opacity="0.6" style="mix-blend-mode: multiply;isolation: isolate">
            <g id="Group_1117808" data-name="Group 1117808">
              <g id="Group_1117807" data-name="Group 1117807" clip-path="url(#clip-path-6)">
                <path id="Path_918740" data-name="Path 918740" d="M572.118,352.505c0,2.764-21.293,5.005-47.559,5.005S477,355.27,477,352.505s21.293-5.005,47.559-5.005,47.559,2.241,47.559,5.005" transform="translate(-477 -347.5)" fill="#42a3e8"/>
              </g>
            </g>
          </g>
          <rect id="Rectangle_408254" data-name="Rectangle 408254" width="64.918" height="8.576" transform="translate(231.06 159.353)" fill="#bddbf2"/>
          <path id="Path_918741" data-name="Path 918741" d="M499.682,295.887v20.868c0,2.132,16.893,3.859,37.73,3.859s37.73-1.727,37.73-3.859V295.887Z" transform="translate(-273.893 -158.118)" fill="#fff"/>
          <path id="Path_918742" data-name="Path 918742" d="M574.63,295.4H494.361a3.756,3.756,0,0,1,3.7-3.812h72.871a3.756,3.756,0,0,1,3.7,3.812" transform="translate(-270.976 -155.821)" fill="#bddbf2"/>
          <path id="Path_918743" data-name="Path 918743" d="M645.25,340.733a27.6,27.6,0,0,1,3.8-.233,27.243,27.243,0,0,1,3.8.233,27.247,27.247,0,0,1-3.8.233,27.6,27.6,0,0,1-3.8-.233" transform="translate(-353.684 -181.958)" fill="#290920"/>
          <path id="Path_918744" data-name="Path 918744" d="M656.75,337.233a1.943,1.943,0,0,1,.962-.233,1.923,1.923,0,0,1,.962.233,1.923,1.923,0,0,1-.962.233,1.943,1.943,0,0,1-.962-.233" transform="translate(-359.987 -180.088)" fill="#290920"/>
          <path id="Path_918745" data-name="Path 918745" d="M642.25,358.733a5.119,5.119,0,0,1,3.052,0,5.119,5.119,0,0,1-3.052,0" transform="translate(-352.039 -191.577)" fill="#290920"/>
          <path id="Path_918746" data-name="Path 918746" d="M502.25,301.733c1.178-.1,2.356-.141,3.534-.178s2.356-.048,3.534-.054,2.356.012,3.534.053l1.767.065c.589.039,1.178.061,1.767.114-.589.053-1.178.075-1.767.114l-1.767.065c-1.178.042-2.356.048-3.534.054s-2.356-.012-3.534-.054-2.356-.082-3.534-.178" transform="translate(-275.3 -161.117)" fill="#290920"/>
          <path id="Path_918747" data-name="Path 918747" d="M578.008,209.778c-.771-1.413-1.773-3.053-2.445-4.131a4.711,4.711,0,0,1-.709-2.6l.042-1.9a2.154,2.154,0,0,0-2.119-2.234H549.37a2.154,2.154,0,0,0-2.119,2.234l.042,1.9a4.712,4.712,0,0,1-.709,2.6c-.672,1.078-1.674,2.718-2.446,4.131-2.206,4.041-.98,14.65,1.716,23.364s0,8.84,0,8.84h30.439s-2.7-.126,0-8.84,3.922-19.323,1.716-23.364" transform="translate(-297.636 -106.298)" fill="#cc6c4e"/>
          <path id="Path_918748" data-name="Path 918748" d="M555.75,283.233a51.75,51.75,0,0,1,5.211-.233,51.078,51.078,0,0,1,5.211.233,51.069,51.069,0,0,1-5.211.233,51.759,51.759,0,0,1-5.211-.233" transform="translate(-304.626 -151.231)" fill="#290920"/>
          <path id="Path_918749" data-name="Path 918749" d="M555.5,278.733a6.007,6.007,0,0,1,1.751-.233,5.945,5.945,0,0,1,1.751.233,5.948,5.948,0,0,1-1.751.233,6.011,6.011,0,0,1-1.751-.233" transform="translate(-304.489 -148.826)" fill="#290920"/>
          <path id="Path_918750" data-name="Path 918750" d="M555.75,209.733a13.719,13.719,0,0,1,2.67-.233,13.573,13.573,0,0,1,2.67.233,13.575,13.575,0,0,1-2.67.233,13.721,13.721,0,0,1-2.67-.233" transform="translate(-304.626 -111.954)" fill="#290920"/>
          <path id="Path_918751" data-name="Path 918751" d="M556,207.733a1.486,1.486,0,0,1,1.6,0,1.384,1.384,0,0,1-.8.233,1.4,1.4,0,0,1-.8-.233" transform="translate(-304.763 -110.885)" fill="#290920"/>
          <path id="Path_918752" data-name="Path 918752" d="M531.824,174.874l-1.618-5.178s-.1.023-.307.075c-.009,0-.014,0-.023,0-2.241.517-15.716,3.557-33.641,5.8,2.467-7.374,5.3-14.972,8.508-22.384.374-2.385.753-4.77.974-7.177.408-4.444-.556-9.048-.285-13.5a13.418,13.418,0,0,0-9.106,7.066,197.435,197.435,0,0,0-13.913,37.449q-.305,1.154-.6,2.328a7.8,7.8,0,0,0,8.712,9.736q.785-.135,1.575-.278c13.235-2.4,27.41-6.63,39.728-13.931Z" transform="translate(-263.962 -70.814)" fill="#fa9778"/>
          <path id="Path_918753" data-name="Path 918753" d="M588.626,213.11s7.693-.549,9.623-2.1c.431-.345-.644-.507-2.084-.435a30.44,30.44,0,0,0,3.84-1.624c.324-.343-5.115.393-5.115.393s5.579-1.725,5.655-2.267-5.4.6-5.4.6,4.475-1.42,4.515-1.951-6.391.9-6.391.9,1.221-2.448.489-2.592-2.824,1.682-3.512,2.5-4.555,1.811-4.555,1.811Z" transform="translate(-321.036 -109.032)" fill="#fa9778"/>
          <path id="Path_918754" data-name="Path 918754" d="M510.778,132.167s-7,.039-10.732,6.092-11.3,28.752-11.3,28.752l14.008,3.492,8.472-15.132Z" transform="translate(-267.901 -70.628)" fill="#ff6168"/>
          <path id="Path_918755" data-name="Path 918755" d="M497,227.328a19.079,19.079,0,0,1,3.71-1.617,12.964,12.964,0,0,1,3.971-.711c-1.3.351-2.565.746-3.837,1.156s-2.539.826-3.844,1.172" transform="translate(-272.423 -120.236)" fill="#290920"/>
          <path id="Path_918756" data-name="Path 918756" d="M526.75,191.932l3.05-7.683-2.6,11.757Z" transform="translate(-288.73 -98.46)" fill="#290920"/>
          <path id="Path_918757" data-name="Path 918757" d="M288.188,310.083h.295v-2.25H278.316v2.25h.3l-1.5,3.027v9.881a1.81,1.81,0,0,0,1.782,1.837h9.012a1.81,1.81,0,0,0,1.782-1.837V313.11Z" transform="translate(-151.894 -164.501)" fill="#4c4dbd"/>
          <rect id="Rectangle_408255" data-name="Rectangle 408255" width="8.642" height="6.053" transform="translate(129.064 150.103)" fill="#fff"/>
          <path id="Path_918758" data-name="Path 918758" d="M282.333,312.066a29.557,29.557,0,0,1,3.928-.233,29.1,29.1,0,0,1,3.928.233,29.1,29.1,0,0,1-3.928.233,29.49,29.49,0,0,1-3.928-.233" transform="translate(-154.756 -166.639)" fill="#290920"/>
          <path id="Path_918759" data-name="Path 918759" d="M287,333.4a6.609,6.609,0,0,1,3.478,0,5.853,5.853,0,0,1-1.739.233A5.913,5.913,0,0,1,287,333.4" transform="translate(-157.315 -178.039)" fill="#290920"/>
          <path id="Path_918760" data-name="Path 918760" d="M413.688,334.583h.3v-2.25H403.816v2.25h.295l-1.5,3.027v9.881a1.81,1.81,0,0,0,1.782,1.837h9.012a1.81,1.81,0,0,0,1.782-1.837V337.61Z" transform="translate(-220.685 -177.594)" fill="#ffb41b"/>
          <rect id="Rectangle_408256" data-name="Rectangle 408256" width="8.642" height="6.053" transform="translate(185.773 161.51)" fill="#fff"/>
          <path id="Path_918761" data-name="Path 918761" d="M405,365.4a18.147,18.147,0,0,1,5.795,0,15.916,15.916,0,0,1-2.9.233,16.08,16.08,0,0,1-2.9-.233" transform="translate(-221.994 -195.139)" fill="#290920"/>
          <path id="Path_918762" data-name="Path 918762" d="M409.667,337.733a10.71,10.71,0,0,1,2.354-.233,10.6,10.6,0,0,1,2.354.233,10.6,10.6,0,0,1-2.354.233,10.71,10.71,0,0,1-2.354-.233" transform="translate(-224.553 -180.355)" fill="#290920"/>
          <path id="Path_918763" data-name="Path 918763" d="M417,349.066a2.621,2.621,0,0,1,1.132-.233,2.594,2.594,0,0,1,1.132.233,2.593,2.593,0,0,1-1.132.233,2.62,2.62,0,0,1-1.132-.233" transform="translate(-228.572 -186.411)" fill="#290920"/>
          <path id="Path_918764" data-name="Path 918764" d="M469.111,340.666l2.146,20.138c0,.9,5.285,1.63,11.8,1.63s11.8-.73,11.8-1.63l2.146-20.138Z" transform="translate(-257.136 -182.047)" fill="#ffb41b"/>
          <path id="Path_918765" data-name="Path 918765" d="M468.647,340.666q.119,1.587.208,3.172c.066,1.056.081,2.135.23,3.1a10.147,10.147,0,0,0,2.492,5.218,9.445,9.445,0,0,0,2.2,1.8,8.464,8.464,0,0,0,2.594,1.054l.339.084.346.051c.23.029.459.081.691.094l.7.032c.227.014.5,0,.755,0l3.079-.018,3.078.018.769,0,.7-.03a4.113,4.113,0,0,0,.693-.072c.228-.044.465-.048.689-.115a9.4,9.4,0,0,0,4.853-2.75,11.005,11.005,0,0,0,.924-1.111,12.488,12.488,0,0,0,.739-1.256,9.479,9.479,0,0,0,.936-2.792l.073-.367.037-.373c.022-.252.057-.492.07-.756l.083-1.586q.087-1.586.208-3.172h.452q.119,1.587.209,3.172l.083,1.586c.013.264,0,.552.005.828l0,.42-.04.418a10.758,10.758,0,0,1-.816,3.258,11.483,11.483,0,0,1-.764,1.509,12.7,12.7,0,0,1-1,1.359,10.746,10.746,0,0,1-5.639,3.5,6.723,6.723,0,0,1-.826.161,5.478,5.478,0,0,1-.835.1c-.277.015-.566.036-.834.044l-.769,0-3.078.018-3.079-.018c-.263,0-.5.005-.784-.013l-.84-.048c-.28-.02-.555-.081-.833-.122-.138-.024-.277-.044-.414-.073l-.406-.114a10.279,10.279,0,0,1-3.064-1.372,10.9,10.9,0,0,1-1.344-1.018l-.6-.594c-.2-.2-.369-.427-.553-.64a10.818,10.818,0,0,1-1.707-2.906,11.531,11.531,0,0,1-.747-3.277,30.925,30.925,0,0,1,.082-3.24q.088-1.586.208-3.172Z" transform="translate(-256.465 -182.047)" fill="#290920"/>
          <rect id="Rectangle_408257" data-name="Rectangle 408257" width="29.974" height="3.803" transform="translate(210.94 156.602)" fill="#ffb41b"/>
          <path id="Path_918766" data-name="Path 918766" d="M471,344.233c1.77-.1,3.539-.141,5.309-.178s3.54-.035,5.309-.054c1.77.018,3.54.016,5.309.053l2.655.065c.885.039,1.77.061,2.655.114-.885.053-1.77.075-2.655.114l-2.655.065c-1.769.037-3.539.035-5.309.053-1.77-.019-3.539-.016-5.309-.054s-3.539-.082-5.309-.178" transform="translate(-258.171 -183.829)" fill="#290920"/>
          <path id="Path_918767" data-name="Path 918767" d="M260.784,352.328l-.477.089a.946.946,0,0,1-1.1-.783l-5.417-30.708a.971.971,0,0,1,.76-1.131l.477-.089a.946.946,0,0,1,1.1.783l5.417,30.708a.97.97,0,0,1-.76,1.13" transform="translate(-139.104 -170.838)" fill="#ffb41b"/>
          <path id="Path_918768" data-name="Path 918768" d="M247.264,323.647l2.348-30.638c.02-.261.34-.264.345,0l.6,31.1Z" transform="translate(-135.534 -156.474)" fill="#004b80"/>
          <path id="Path_918769" data-name="Path 918769" d="M237.084,343.545l-2.442.793L227.53,321.1l3.552,2.833Z" transform="translate(-124.717 -171.591)" fill="#004b80"/>
          <path id="Path_918770" data-name="Path 918770" d="M240.195,309.92c-.513-2.517-1.936-4.339-3.177-4.07s-1.832,2.527-1.319,5.044a6.283,6.283,0,0,0,2,3.754.864.864,0,0,1,.338.535l3.238,15.875a.867.867,0,0,0,1.026.69.892.892,0,0,0,.669-1.057l-3.238-15.876a.886.886,0,0,1,.1-.629,6.408,6.408,0,0,0,.364-4.266" transform="translate(-129.093 -163.428)" fill="#ffb41b"/>
          <path id="Path_918771" data-name="Path 918771" d="M269.108,315.5c-.416-1.252-1.686-5.373-.575-5.832.518-.214,3.85-1.364,4.371-1.016.193.129.515.343-2.937,6.949l-.4-.221a56.476,56.476,0,0,0,2.994-6.348A18.218,18.218,0,0,0,268.7,310.1c-.478.2.046,2.874.834,5.25Z" transform="translate(-146.949 -164.904)" fill="#fff"/>
          <path id="Path_918772" data-name="Path 918772" d="M266.716,323.337c-.025,2.309-.188,4.6-.4,6.878-.1,1.141-.239,2.277-.359,3.416-.15,1.134-.282,2.271-.445,3.4-.326,2.265-.672,4.526-1.092,6.777s-.868,4.5-1.45,6.724l-.448-.065c.043-2.306.213-4.593.426-6.874s.484-4.554.783-6.822c.15-1.134.329-2.264.493-3.4.191-1.129.364-2.259.578-3.384.409-2.253.871-4.5,1.471-6.722Z" transform="translate(-143.895 -172.751)" fill="#004b80"/>
          <path id="Path_918773" data-name="Path 918773" d="M269.131,325.95l.991.145a.165.165,0,0,0,.187-.157l.174-2.925a.168.168,0,0,0-.141-.178l-.565-.082a.164.164,0,0,0-.183.132l-.6,2.862a.169.169,0,0,0,.137.2" transform="translate(-147.442 -172.473)" fill="#fff"/>
          <path id="Path_918774" data-name="Path 918774" d="M250.332,372.36H230.681a.69.69,0,0,1-.68-.7V346.341a.69.69,0,0,1,.68-.7h19.651a.691.691,0,0,1,.68.7v25.318a.691.691,0,0,1-.68.7" transform="translate(-126.071 -184.705)" fill="#fff"/>
          <path id="Path_918775" data-name="Path 918775" d="M232,399.4a22,22,0,0,1,3.389-.233,21.713,21.713,0,0,1,3.389.233,21.713,21.713,0,0,1-3.389.233A22.05,22.05,0,0,1,232,399.4" transform="translate(-127.167 -213.309)" fill="#290920"/>
          <path id="Path_918776" data-name="Path 918776" d="M233.333,397.066a2.946,2.946,0,0,1,1.206-.233,2.916,2.916,0,0,1,1.206.233,2.917,2.917,0,0,1-1.206.233,2.947,2.947,0,0,1-1.206-.233" transform="translate(-127.898 -212.062)" fill="#290920"/>
        </g>
      </g>
    </g>
  </g>
</svg>
