<svg xmlns="http://www.w3.org/2000/svg" xmlns:xlink="http://www.w3.org/1999/xlink" width="400" height="860" viewBox="0 0 400 860">
  <defs>
    <clipPath id="clip-path">
      <path id="Path_608976" data-name="Path 608976" d="M15.214,0H384.786C388.218,0,400,3.779,400,20.228V839.771C400,856.22,388.218,860,384.786,860H15.214C11.782,860,0,856.22,0,839.771V20.228C0,3.779,11.782,0,15.214,0Z" fill="#d9e6ff"/>
    </clipPath>
    <radialGradient id="radial-gradient" cx="0.5" cy="0.5" r="0.5" gradientUnits="objectBoundingBox">
      <stop offset="0" stop-color="#fff"/>
      <stop offset="0.679" stop-color="#fffffb"/>
      <stop offset="1" stop-color="#fffceb"/>
    </radialGradient>
    <clipPath id="clip-path-2">
      <rect id="Rectangle_408137" data-name="Rectangle 408137" width="169.377" height="94.494" fill="none"/>
    </clipPath>
    <clipPath id="clip-path-3">
      <rect id="Rectangle_408136" data-name="Rectangle 408136" width="744.306" height="94.494" fill="none"/>
    </clipPath>
    <clipPath id="clip-path-6">
      <rect id="Rectangle_408309" data-name="Rectangle 408309" width="804.149" height="227.365" fill="none"/>
    </clipPath>
    <clipPath id="clip-path-7">
      <rect id="Rectangle_408314" data-name="Rectangle 408314" width="84.861" height="82.47" fill="#050c68"/>
    </clipPath>
    <clipPath id="clip-path-8">
      <rect id="Rectangle_408317" data-name="Rectangle 408317" width="81.017" height="81.268" fill="#050c68"/>
    </clipPath>
    <clipPath id="clip-path-9">
      <rect id="Rectangle_408315" data-name="Rectangle 408315" width="84.867" height="77.713" fill="none"/>
    </clipPath>
    <clipPath id="clip-path-10">
      <rect id="Rectangle_408316" data-name="Rectangle 408316" width="85.289" height="81.772" fill="#050c68"/>
    </clipPath>
  </defs>
  <g id="Group_1118049" data-name="Group 1118049" transform="translate(-2190.289 -9143)">
    <g id="Group_1117870" data-name="Group 1117870">
      <g id="Group_1117868" data-name="Group 1117868" transform="translate(0 2831)">
        <g id="Group_1117836" data-name="Group 1117836" transform="translate(2190.289 6312)">
          <g id="Group_1116936" data-name="Group 1116936" transform="translate(0 0)">
            <g id="Mask_Group_1098656" data-name="Mask Group 1098656" transform="translate(0 0)" clip-path="url(#clip-path)">
              <path id="Path_874294" data-name="Path 874294" d="M0,0H400V900.951H0Z" transform="translate(0.112 -22.338)" fill="url(#radial-gradient)"/>
            </g>
          </g>
          <g id="Group_1117641" data-name="Group 1117641" transform="translate(0 765.506)">
            <g id="Group_1117640" data-name="Group 1117640" transform="translate(214)" clip-path="url(#clip-path-2)">
              <g id="Group_1117639" data-name="Group 1117639" transform="translate(-574.929)">
                <g id="Group_1117638" data-name="Group 1117638" clip-path="url(#clip-path-3)">
                  <path id="Path_896447" data-name="Path 896447" d="M.682,66C-.017,63.667-.5,60.946.9,58.958a5.847,5.847,0,0,1,5.545-2.049,15.582,15.582,0,0,1,5.712,2.337A44.229,44.229,0,0,1,8.347,33.527c.577-3.73,2.1-7.91,5.674-9.136,2.714-.932,5.794.258,7.872,2.237s3.359,4.63,4.6,7.218a49.133,49.133,0,0,1,2.08-24.556c1.13-3.2,2.765-6.479,5.7-8.18,4.516-2.616,10.7-.328,13.707,3.937s3.423,9.869,2.762,15.047S48.464,30.293,47.8,35.47a19.3,19.3,0,0,1,13.9-1.625,9.259,9.259,0,0,1,4.917,2.8A7.925,7.925,0,0,1,67.636,44a18.235,18.235,0,0,1-4.164,6.46A54.919,54.919,0,0,1,49.454,61.547c3.523-.108,7.577.012,9.81,2.74a7.554,7.554,0,0,1,.76,7.477A16.911,16.911,0,0,1,55.2,77.905c-7.217,6.328-16.257,10.2-25.571,12.228-3.458.752-9.894,2.765-13.034,1.045-3.67-2.01-7.084-7.53-9.305-10.948A55.275,55.275,0,0,1,.682,66" transform="translate(676.216 0)" fill="#7099ff"/>
                  <path id="Path_896448" data-name="Path 896448" d="M35.131,92.05a.112.112,0,0,1-.044-.009.114.114,0,0,1-.06-.149C35.216,91.447,54.05,46.8,58.385.45a.11.11,0,0,1,.124-.1.114.114,0,0,1,.1.124c-4.339,46.387-23.186,91.064-23.376,91.51a.113.113,0,0,1-.1.069" transform="translate(658.996 -0.082)" fill="#42353b"/>
                  <path id="Path_896449" data-name="Path 896449" d="M20.112,60.049a.114.114,0,0,1-.095-.05L1.808,32.538A.113.113,0,0,1,2,32.413l18.156,27.38,35.2-15.561a.113.113,0,1,1,.091.207l-35.29,15.6a.122.122,0,0,1-.046.009" transform="translate(687.426 -7.687)" fill="#42353b"/>
                  <path id="Path_896450" data-name="Path 896450" d="M28.42,99.669a.112.112,0,0,1-.091-.046L9.953,75.011a.113.113,0,1,1,.181-.136L28.459,99.418l38.5-15.191a.112.112,0,0,1,.146.063.113.113,0,0,1-.064.147L28.461,99.66a.1.1,0,0,1-.041.008" transform="translate(669.624 -17.775)" fill="#42353b"/>
                  <path id="Path_896451" data-name="Path 896451" d="M32.762,28.609h-.008a.111.111,0,0,1-.081-.043L22.6,15.792a.113.113,0,0,1,.018-.159.114.114,0,0,1,.159.018l9.994,12.677,12.9-12.286a.114.114,0,0,1,.157.164L32.841,28.578a.113.113,0,0,1-.079.031" transform="translate(681.225 -3.708)" fill="#42353b"/>
                  <path id="Path_896452" data-name="Path 896452" d="M24.95,112.529H163.286a13.142,13.142,0,0,0-6.645-7.41c-4.079-2.049-8.8-2.342-13.366-2.29a4.836,4.836,0,0,1-2.384-.37,5.017,5.017,0,0,1-1.678-2.04c-3.5-6.171-8.977-11.568-15.854-13.315s-15.1.981-18.255,7.333c-2.513-5.147-5.672-10.1-10.13-13.693s-10.4-5.664-16-4.492a16.022,16.022,0,0,0-12.385,14.3c-.034.62-.095,1.351-.62,1.687A1.871,1.871,0,0,1,64.6,92.3c-4.32-.878-8.744-1.842-13.1-1.136s-8.676,3.5-9.76,7.772c-.327,1.274-.576,2.892-1.833,3.262a3.732,3.732,0,0,1-1.954-.207,10.381,10.381,0,0,0-13,10.535" transform="translate(562.002 -18.035)" fill="#ffb149"/>
                </g>
              </g>
            </g>
          </g>
          <g id="Group_1117869" data-name="Group 1117869" transform="translate(0 0)">
            <g id="Group_1117640-2" data-name="Group 1117640" clip-path="url(#clip-path-2)">
              <g id="Group_1117639-2" data-name="Group 1117639">
                <g id="Group_1117638-2" data-name="Group 1117638" clip-path="url(#clip-path-3)">
                  <path id="Path_896447-2" data-name="Path 896447" d="M67.409,25.855c.7,2.332,1.184,5.054-.221,7.041a5.847,5.847,0,0,1-5.545,2.049,15.582,15.582,0,0,1-5.712-2.337,44.229,44.229,0,0,1,3.813,25.719c-.577,3.73-2.1,7.91-5.674,9.136-2.714.932-5.794-.258-7.872-2.237s-3.359-4.63-4.6-7.218a49.132,49.132,0,0,1-2.08,24.556c-1.13,3.2-2.765,6.479-5.7,8.18-4.516,2.616-10.7.328-13.707-3.937s-3.423-9.869-2.762-15.047,2.277-10.2,2.946-15.375a19.3,19.3,0,0,1-13.9,1.625,9.259,9.259,0,0,1-4.917-2.8A7.925,7.925,0,0,1,.454,47.85a18.235,18.235,0,0,1,4.164-6.46A54.919,54.919,0,0,1,18.637,30.307c-3.523.108-7.577-.012-9.81-2.74a7.554,7.554,0,0,1-.76-7.477,16.911,16.911,0,0,1,4.828-6.141c7.217-6.328,16.257-10.2,25.571-12.228C41.924.97,48.36-1.043,51.5.676c3.67,2.01,7.084,7.53,9.305,10.948a55.274,55.274,0,0,1,6.6,14.231" transform="translate(0 2.64)" fill="#7099ff"/>
                  <path id="Path_896448-2" data-name="Path 896448" d="M23.48,0a.112.112,0,0,1,.044.009.114.114,0,0,1,.06.149C23.4.6,4.562,45.249.226,91.6a.11.11,0,0,1-.124.1.114.114,0,0,1-.1-.124C4.34,45.192,23.187.515,23.377.069A.113.113,0,0,1,23.48,0" transform="translate(26.699 2.527)" fill="#42353b"/>
                  <path id="Path_896449-2" data-name="Path 896449" d="M35.4,0A.114.114,0,0,1,35.5.05L53.707,27.51a.113.113,0,0,1-.188.125L35.363.255.159,15.816a.113.113,0,1,1-.091-.207L35.358.009A.122.122,0,0,1,35.4,0" transform="translate(1.364 42.133)" fill="#42353b"/>
                  <path id="Path_896450-2" data-name="Path 896450" d="M38.691,0a.112.112,0,0,1,.091.046L57.159,24.658a.113.113,0,1,1-.181.136L38.652.25.154,15.441a.112.112,0,0,1-.146-.063.113.113,0,0,1,.064-.147L38.65.008A.1.1,0,0,1,38.691,0" transform="translate(7.571 12.6)" fill="#42353b"/>
                  <path id="Path_896451-2" data-name="Path 896451" d="M13.1,0h.008a.111.111,0,0,1,.081.043L23.263,12.817a.113.113,0,0,1-.018.159.114.114,0,0,1-.159-.018L13.092.281.192,12.567A.114.114,0,0,1,.034,12.4L13.025.031A.113.113,0,0,1,13.1,0" transform="translate(17.215 69.593)" fill="#42353b"/>
                  <path id="Path_896452-2" data-name="Path 896452" d="M138.336,0H0A13.142,13.142,0,0,0,6.645,7.41c4.079,2.049,8.8,2.342,13.366,2.29a4.836,4.836,0,0,1,2.384.37,5.017,5.017,0,0,1,1.678,2.04c3.5,6.171,8.977,11.568,15.854,13.315s15.1-.981,18.255-7.333c2.513,5.147,5.672,10.1,10.13,13.693s10.4,5.664,16,4.492A16.022,16.022,0,0,0,96.7,21.982c.034-.62.095-1.351.62-1.687a1.871,1.871,0,0,1,1.369-.069c4.32.878,8.744,1.842,13.1,1.136s8.676-3.5,9.76-7.772c.327-1.274.576-2.892,1.833-3.262a3.732,3.732,0,0,1,1.954.207,10.607,10.607,0,0,0,10.112-2.84A10.633,10.633,0,0,0,138.336,0" transform="translate(19.018 0)" fill="#ffb149"/>
                </g>
              </g>
            </g>
          </g>
        </g>
      </g>
      <g id="Group_1117855" data-name="Group 1117855" transform="translate(2503.703 9178.322) rotate(90)">
        <g id="Group_1117854" data-name="Group 1117854" clip-path="url(#clip-path-6)">
          <path id="Path_918800" data-name="Path 918800" d="M113.686,0A113.686,113.686,0,0,0,0,113.686H35.118a78.568,78.568,0,0,1,157.136,0h35.118A113.687,113.687,0,0,0,113.686,0" transform="translate(0 -0.001)" fill="#ffc811"/>
          <path id="Path_918801" data-name="Path 918801" d="M113.687,0A113.686,113.686,0,0,0,0,113.686H35.118a78.568,78.568,0,0,1,157.136,0h35.118A113.687,113.687,0,0,0,113.687,0" transform="translate(384.508 -0.001)" fill="#f6ae5c"/>
          <path id="Path_918802" data-name="Path 918802" d="M113.686,113.686A113.686,113.686,0,0,0,227.372,0H192.254a78.569,78.569,0,0,1-78.568,78.568A78.569,78.569,0,0,1,35.118,0H0A113.686,113.686,0,0,0,113.686,113.686" transform="translate(192.262 113.679)" fill="#685700"/>
          <path id="Path_918803" data-name="Path 918803" d="M113.687,113.686A113.685,113.685,0,0,0,227.373,0H192.254a78.568,78.568,0,0,1-78.568,78.568A78.569,78.569,0,0,1,35.119,0H0A113.686,113.686,0,0,0,113.687,113.686" transform="translate(576.776 113.679)" fill="#1e2ad5"/>
          <path id="Path_918804" data-name="Path 918804" d="M131.543,65.771A65.771,65.771,0,1,1,65.771,0a65.772,65.772,0,0,1,65.772,65.771" transform="translate(47.915 48.212)" fill="#ffc811"/>
          <path id="Path_918805" data-name="Path 918805" d="M53.867,107.734a53.867,53.867,0,1,1,53.867-53.867,53.929,53.929,0,0,1-53.867,53.867" transform="translate(59.819 60.116)" fill="#fff"/>
          <path id="Path_918806" data-name="Path 918806" d="M131.542,65.771A65.771,65.771,0,1,1,65.771,0a65.771,65.771,0,0,1,65.771,65.771" transform="translate(240.177 48.212)" fill="#685700"/>
          <path id="Path_918807" data-name="Path 918807" d="M53.867,107.734a53.867,53.867,0,1,1,53.868-53.867,53.929,53.929,0,0,1-53.868,53.867" transform="translate(252.08 60.116)" fill="#fff"/>
          <path id="Path_918808" data-name="Path 918808" d="M131.542,65.771A65.771,65.771,0,1,1,65.772,0a65.771,65.771,0,0,1,65.77,65.771" transform="translate(432.424 48.212)" fill="#f6ae5c"/>
          <path id="Path_918809" data-name="Path 918809" d="M53.868,107.734a53.867,53.867,0,1,1,53.866-53.867,53.929,53.929,0,0,1-53.866,53.867" transform="translate(444.327 60.116)" fill="#fff"/>
          <path id="Path_918810" data-name="Path 918810" d="M131.542,65.771A65.771,65.771,0,1,1,65.771,0a65.771,65.771,0,0,1,65.771,65.771" transform="translate(624.692 48.212)" fill="#1e2ad5"/>
          <path id="Path_918811" data-name="Path 918811" d="M53.867,107.734a53.867,53.867,0,1,1,53.867-53.867,53.929,53.929,0,0,1-53.867,53.867" transform="translate(636.595 60.116)" fill="#fff"/>
        </g>
      </g>
      <g id="Group_1117579" data-name="Group 1117579" transform="translate(2530.667 9217.647) rotate(90)">
        <path id="Path_919186" data-name="Path 919186" d="M9,0H97.772a9,9,0,0,1,9,9V38.4a9,9,0,0,1-9,9H9a9,9,0,0,1-9-9V9A9,9,0,0,1,9,0Z" transform="translate(52.06 319.645) rotate(-90)" fill="#ffc811"/>
        <path id="Path_919187" data-name="Path 919187" d="M9,0H97.667a9,9,0,0,1,9,9V38.4a9,9,0,0,1-9,9H9a9,9,0,0,1-9-9V9A9,9,0,0,1,9,0Z" transform="translate(244.663 73.334) rotate(-90)" fill="#685700"/>
        <path id="Path_918837" data-name="Path 918837" d="M4.7,0H113.467c2.6,0,4.7,3.866,4.7,8.636V46.057c0,4.769-2.1,8.636-4.7,8.636H4.7c-2.6,0-4.7-3.866-4.7-8.636V8.636C0,3.866,2.1,0,4.7,0Z" transform="translate(622.853 69.167) rotate(-90)" fill="#1e2ad5"/>
        <path id="Path_919188" data-name="Path 919188" d="M9,0h92.425a9,9,0,0,1,9,9V38.4a9,9,0,0,1-9,9H9a9,9,0,0,1-9-9V9A9,9,0,0,1,9,0Z" transform="translate(436.353 323.667) rotate(-90)" fill="#f6ae5c"/>
        <path id="Path_919189" data-name="Path 919189" d="M5.577,17V5.625H8.936a5.269,5.269,0,0,1,2.676.672A4.581,4.581,0,0,1,13.42,8.2a6.051,6.051,0,0,1,.641,2.828v.57a6.026,6.026,0,0,1-.645,2.844,4.526,4.526,0,0,1-1.836,1.891A5.513,5.513,0,0,1,8.85,17ZM7.553,7.219v8.2H8.842a2.968,2.968,0,0,0,2.387-.973,4.237,4.237,0,0,0,.848-2.793v-.633a4.347,4.347,0,0,0-.8-2.828,2.853,2.853,0,0,0-2.336-.977ZM17.866,17h-1.9V8.547h1.9ZM15.85,6.352a1.008,1.008,0,0,1,.277-.727,1.048,1.048,0,0,1,.793-.289,1.061,1.061,0,0,1,.8.289A1,1,0,0,1,18,6.352a.977.977,0,0,1-.281.715,1.069,1.069,0,0,1-.8.285,1.056,1.056,0,0,1-.793-.285A.984.984,0,0,1,15.85,6.352ZM24.67,14.7a.861.861,0,0,0-.418-.773,4.445,4.445,0,0,0-1.387-.469,7.129,7.129,0,0,1-1.617-.516,2.158,2.158,0,0,1-1.422-1.992,2.25,2.25,0,0,1,.922-1.828,3.644,3.644,0,0,1,2.344-.734,3.792,3.792,0,0,1,2.449.75,2.38,2.38,0,0,1,.934,1.945h-1.9a1.17,1.17,0,0,0-.406-.91,1.557,1.557,0,0,0-1.078-.363,1.682,1.682,0,0,0-1.02.289.911.911,0,0,0-.395.773.769.769,0,0,0,.367.68,5.049,5.049,0,0,0,1.484.488,7.027,7.027,0,0,1,1.754.586,2.484,2.484,0,0,1,.945.816,2.082,2.082,0,0,1,.309,1.156,2.2,2.2,0,0,1-.945,1.848,4.031,4.031,0,0,1-2.477.707,4.371,4.371,0,0,1-1.852-.375A3.047,3.047,0,0,1,20,15.75a2.441,2.441,0,0,1-.453-1.414h1.844a1.338,1.338,0,0,0,.508,1.035,1.973,1.973,0,0,0,1.242.363,1.92,1.92,0,0,0,1.141-.285A.883.883,0,0,0,24.67,14.7Zm7.242,2.453a3.928,3.928,0,0,1-2.926-1.137,4.124,4.124,0,0,1-1.121-3.027v-.234a5.072,5.072,0,0,1,.488-2.262,3.716,3.716,0,0,1,1.371-1.551,3.625,3.625,0,0,1,1.969-.555,3.318,3.318,0,0,1,2.668,1.1,4.658,4.658,0,0,1,.941,3.117v.766H29.78a2.539,2.539,0,0,0,.7,1.656,2.1,2.1,0,0,0,1.543.609,2.571,2.571,0,0,0,2.125-1.055l1.023.977a3.418,3.418,0,0,1-1.355,1.176A4.244,4.244,0,0,1,31.912,17.156Zm-.227-7.242a1.6,1.6,0,0,0-1.262.547,2.835,2.835,0,0,0-.613,1.523h3.617v-.141A2.307,2.307,0,0,0,32.92,10.4,1.586,1.586,0,0,0,31.686,9.914Zm6.852-1.367.055.977a3.039,3.039,0,0,1,2.461-1.133q2.641,0,2.688,3.023V17h-1.9V11.523a1.741,1.741,0,0,0-.348-1.191,1.462,1.462,0,0,0-1.137-.387,1.829,1.829,0,0,0-1.711,1.039V17h-1.9V8.547Zm4.609-3.375a2.1,2.1,0,0,1-.5,1.43,1.582,1.582,0,0,1-1.246.57,1.856,1.856,0,0,1-.527-.066,3.354,3.354,0,0,1-.633-.3,3.128,3.128,0,0,0-.578-.281,1.378,1.378,0,0,0-.371-.047.662.662,0,0,0-.5.223.821.821,0,0,0-.207.582L37.42,7.219a2.16,2.16,0,0,1,.5-1.445,1.557,1.557,0,0,1,1.238-.586,2.305,2.305,0,0,1,1.074.352,2.271,2.271,0,0,0,1.035.352.674.674,0,0,0,.508-.223.822.822,0,0,0,.211-.59ZM45.319,12.7a4.984,4.984,0,0,1,.492-2.238,3.6,3.6,0,0,1,1.383-1.531,3.9,3.9,0,0,1,2.047-.535,3.692,3.692,0,0,1,2.777,1.1,4.333,4.333,0,0,1,1.152,2.922l.008.445a5.029,5.029,0,0,1-.48,2.234,3.551,3.551,0,0,1-1.375,1.523,3.925,3.925,0,0,1-2.066.539,3.667,3.667,0,0,1-2.863-1.191,4.563,4.563,0,0,1-1.074-3.176Zm1.9.164a3.406,3.406,0,0,0,.539,2.043,1.752,1.752,0,0,0,1.5.738,1.733,1.733,0,0,0,1.5-.75,3.762,3.762,0,0,0,.535-2.2,3.362,3.362,0,0,0-.551-2.031,1.856,1.856,0,0,0-2.973-.012A3.691,3.691,0,0,0,47.217,12.859Zm11.2-.148a5.026,5.026,0,0,1,.906-3.137,2.9,2.9,0,0,1,2.43-1.184,2.759,2.759,0,0,1,2.172.938V5h1.9V17H64.1l-.094-.875a2.8,2.8,0,0,1-2.273,1.031,2.887,2.887,0,0,1-2.4-1.2A5.21,5.21,0,0,1,58.412,12.711Zm1.9.164a3.519,3.519,0,0,0,.5,2.012,1.61,1.61,0,0,0,1.41.723,1.793,1.793,0,0,0,1.7-1.039V10.961a1.766,1.766,0,0,0-1.687-1.016,1.622,1.622,0,0,0-1.422.73A3.919,3.919,0,0,0,60.311,12.875Zm11.211,4.281A3.928,3.928,0,0,1,68.6,16.02a4.124,4.124,0,0,1-1.121-3.027v-.234a5.072,5.072,0,0,1,.488-2.262,3.716,3.716,0,0,1,1.371-1.551A3.625,3.625,0,0,1,71.3,8.391a3.318,3.318,0,0,1,2.668,1.1,4.658,4.658,0,0,1,.941,3.117v.766H69.389a2.539,2.539,0,0,0,.7,1.656,2.1,2.1,0,0,0,1.543.609,2.571,2.571,0,0,0,2.125-1.055l1.023.977a3.418,3.418,0,0,1-1.355,1.176A4.244,4.244,0,0,1,71.522,17.156ZM71.3,9.914a1.6,1.6,0,0,0-1.262.547,2.835,2.835,0,0,0-.613,1.523h3.617v-.141A2.307,2.307,0,0,0,72.53,10.4,1.586,1.586,0,0,0,71.3,9.914ZM16.315,32.859a5.033,5.033,0,0,1-.891,3.129,2.852,2.852,0,0,1-2.391,1.168,2.871,2.871,0,0,1-2.227-.914V40.25h-1.9v-11.7h1.75l.078.859a2.788,2.788,0,0,1,2.273-1.016,2.881,2.881,0,0,1,2.426,1.152,5.167,5.167,0,0,1,.879,3.2ZM14.424,32.7a3.526,3.526,0,0,0-.5-2.008,1.638,1.638,0,0,0-1.441-.742,1.747,1.747,0,0,0-1.672.961v3.75a1.763,1.763,0,0,0,1.688.984,1.636,1.636,0,0,0,1.418-.73A3.881,3.881,0,0,0,14.424,32.7Zm7.922-2.414a4.7,4.7,0,0,0-.773-.062,1.741,1.741,0,0,0-1.758,1V37h-1.9V28.547h1.813l.047.945a2.139,2.139,0,0,1,1.906-1.1,1.777,1.777,0,0,1,.672.109Zm.563,2.414a4.984,4.984,0,0,1,.492-2.238,3.6,3.6,0,0,1,1.383-1.531,3.9,3.9,0,0,1,2.047-.535,3.692,3.692,0,0,1,2.777,1.1,4.333,4.333,0,0,1,1.152,2.922l.008.445a5.029,5.029,0,0,1-.48,2.234,3.551,3.551,0,0,1-1.375,1.523,3.925,3.925,0,0,1-2.066.539,3.667,3.667,0,0,1-2.863-1.191,4.563,4.563,0,0,1-1.074-3.176Zm1.9.164a3.406,3.406,0,0,0,.539,2.043,1.752,1.752,0,0,0,1.5.738,1.733,1.733,0,0,0,1.5-.75,3.762,3.762,0,0,0,.535-2.2,3.362,3.362,0,0,0-.551-2.031,1.856,1.856,0,0,0-2.973-.012A3.691,3.691,0,0,0,24.807,32.859Zm7.211-.148a5.026,5.026,0,0,1,.906-3.137,2.9,2.9,0,0,1,2.43-1.184,2.759,2.759,0,0,1,2.172.938V25h1.9V37H37.705l-.094-.875a2.8,2.8,0,0,1-2.273,1.031,2.887,2.887,0,0,1-2.4-1.2A5.21,5.21,0,0,1,32.018,32.711Zm1.9.164a3.519,3.519,0,0,0,.5,2.012,1.61,1.61,0,0,0,1.41.723,1.793,1.793,0,0,0,1.7-1.039V30.961a1.766,1.766,0,0,0-1.687-1.016,1.622,1.622,0,0,0-1.422.73A3.919,3.919,0,0,0,33.916,32.875Zm12.609,3.3a2.944,2.944,0,0,1-2.375.984,2.624,2.624,0,0,1-2.082-.8,3.423,3.423,0,0,1-.707-2.328V28.547h1.9V34q0,1.609,1.336,1.609a1.876,1.876,0,0,0,1.867-.992v-6.07h1.9V37H46.573Zm7.242-.531a1.716,1.716,0,0,0,1.18-.414,1.415,1.415,0,0,0,.5-1.023h1.789a2.789,2.789,0,0,1-.492,1.473,3.228,3.228,0,0,1-1.25,1.082,3.725,3.725,0,0,1-1.7.4,3.6,3.6,0,0,1-2.812-1.148,4.555,4.555,0,0,1-1.039-3.172v-.2a4.479,4.479,0,0,1,1.031-3.09,3.571,3.571,0,0,1,2.813-1.16,3.473,3.473,0,0,1,2.457.879,3.148,3.148,0,0,1,1,2.309H55.448a1.738,1.738,0,0,0-.5-1.2,1.6,1.6,0,0,0-1.184-.469,1.671,1.671,0,0,0-1.422.668,3.408,3.408,0,0,0-.508,2.027v.3a3.465,3.465,0,0,0,.5,2.051A1.669,1.669,0,0,0,53.768,35.641Zm7.281-9.148v2.055h1.492v1.406H61.049v4.719a1.039,1.039,0,0,0,.191.7.888.888,0,0,0,.684.215,2.925,2.925,0,0,0,.664-.078v1.469a4.676,4.676,0,0,1-1.25.18q-2.187,0-2.187-2.414V29.953H57.76V28.547h1.391V26.492ZM63.4,32.7a4.984,4.984,0,0,1,.492-2.238,3.6,3.6,0,0,1,1.383-1.531,3.9,3.9,0,0,1,2.047-.535,3.692,3.692,0,0,1,2.777,1.1,4.333,4.333,0,0,1,1.152,2.922l.008.445a5.029,5.029,0,0,1-.48,2.234A3.551,3.551,0,0,1,69.4,36.617a3.925,3.925,0,0,1-2.066.539,3.667,3.667,0,0,1-2.863-1.191A4.563,4.563,0,0,1,63.4,32.789Zm1.9.164a3.406,3.406,0,0,0,.539,2.043,1.752,1.752,0,0,0,1.5.738,1.733,1.733,0,0,0,1.5-.75,3.762,3.762,0,0,0,.535-2.2,3.362,3.362,0,0,0-.551-2.031,1.856,1.856,0,0,0-2.973-.012A3.691,3.691,0,0,0,65.3,32.859Z" transform="translate(54.76 306.333) rotate(-90)" fill="#050c68"/>
        <path id="Path_919190" data-name="Path 919190" d="M7.811,12.781V17H5.835V5.625h4.352a4.4,4.4,0,0,1,3.027.993,3.34,3.34,0,0,1,1.121,2.628,3.229,3.229,0,0,1-1.1,2.6,4.613,4.613,0,0,1-3.074.931Zm0-1.594h2.375a2.339,2.339,0,0,0,1.609-.5,1.823,1.823,0,0,0,.555-1.434,1.967,1.967,0,0,0-.562-1.473,2.168,2.168,0,0,0-1.547-.566H7.811ZM20.3,10.281a4.7,4.7,0,0,0-.773-.062,1.741,1.741,0,0,0-1.758,1V17h-1.9V8.547h1.812l.047.945a2.139,2.139,0,0,1,1.906-1.1,1.777,1.777,0,0,1,.672.109Zm.563,2.414a4.984,4.984,0,0,1,.492-2.238,3.6,3.6,0,0,1,1.383-1.531,3.9,3.9,0,0,1,2.047-.535,3.692,3.692,0,0,1,2.777,1.1,4.333,4.333,0,0,1,1.152,2.922l.008.445a5.029,5.029,0,0,1-.48,2.234,3.551,3.551,0,0,1-1.375,1.523,3.925,3.925,0,0,1-2.066.539,3.667,3.667,0,0,1-2.863-1.191,4.563,4.563,0,0,1-1.074-3.176Zm1.9.164A3.406,3.406,0,0,0,23.3,14.9a1.752,1.752,0,0,0,1.5.738,1.733,1.733,0,0,0,1.5-.75,3.762,3.762,0,0,0,.535-2.2,3.362,3.362,0,0,0-.551-2.031,1.856,1.856,0,0,0-2.973-.012A3.691,3.691,0,0,0,22.765,12.859Zm7.211-.148a5.026,5.026,0,0,1,.906-3.137,2.9,2.9,0,0,1,2.43-1.184,2.759,2.759,0,0,1,2.172.938V5h1.9V17H35.663l-.094-.875A2.8,2.8,0,0,1,33.3,17.156a2.887,2.887,0,0,1-2.4-1.2A5.21,5.21,0,0,1,29.976,12.711Zm1.9.164a3.519,3.519,0,0,0,.5,2.012,1.61,1.61,0,0,0,1.41.723,1.793,1.793,0,0,0,1.7-1.039V10.961A1.766,1.766,0,0,0,33.8,9.945a1.622,1.622,0,0,0-1.422.73A3.919,3.919,0,0,0,31.874,12.875Zm12.609,3.3a2.944,2.944,0,0,1-2.375.984,2.624,2.624,0,0,1-2.082-.8,3.423,3.423,0,0,1-.707-2.328V8.547h1.9V14q0,1.609,1.336,1.609a1.876,1.876,0,0,0,1.867-.992V8.547h1.9V17H44.53Zm7.242-.531a1.716,1.716,0,0,0,1.18-.414,1.415,1.415,0,0,0,.5-1.023h1.789a2.789,2.789,0,0,1-.492,1.473,3.228,3.228,0,0,1-1.25,1.082,3.725,3.725,0,0,1-1.7.4,3.6,3.6,0,0,1-2.812-1.148A4.555,4.555,0,0,1,47.9,12.836v-.2a4.479,4.479,0,0,1,1.031-3.09,3.571,3.571,0,0,1,2.813-1.16A3.473,3.473,0,0,1,54.2,9.27a3.148,3.148,0,0,1,1,2.309H53.405a1.738,1.738,0,0,0-.5-1.2,1.6,1.6,0,0,0-1.184-.469,1.671,1.671,0,0,0-1.422.668,3.408,3.408,0,0,0-.508,2.027v.3a3.465,3.465,0,0,0,.5,2.051A1.669,1.669,0,0,0,51.726,15.641Zm8.375,0a1.716,1.716,0,0,0,1.18-.414,1.415,1.415,0,0,0,.5-1.023h1.789a2.789,2.789,0,0,1-.492,1.473,3.228,3.228,0,0,1-1.25,1.082,3.725,3.725,0,0,1-1.7.4,3.6,3.6,0,0,1-2.812-1.148,4.555,4.555,0,0,1-1.039-3.172v-.2A4.479,4.479,0,0,1,57.3,9.551a3.571,3.571,0,0,1,2.813-1.16,3.473,3.473,0,0,1,2.457.879,3.148,3.148,0,0,1,1,2.309H61.78a1.738,1.738,0,0,0-.5-1.2A1.6,1.6,0,0,0,60.1,9.914a1.671,1.671,0,0,0-1.422.668,3.408,3.408,0,0,0-.508,2.027v.3a3.465,3.465,0,0,0,.5,2.051A1.669,1.669,0,0,0,60.1,15.641ZM67.022,17h-1.9V8.547h1.9ZM65.007,6.352a1.008,1.008,0,0,1,.277-.727,1.048,1.048,0,0,1,.793-.289,1.061,1.061,0,0,1,.8.289,1,1,0,0,1,.281.727.977.977,0,0,1-.281.715,1.069,1.069,0,0,1-.8.285,1.056,1.056,0,0,1-.793-.285A.984.984,0,0,1,65.007,6.352ZM68.733,12.7a4.984,4.984,0,0,1,.492-2.238,3.6,3.6,0,0,1,1.383-1.531,3.9,3.9,0,0,1,2.047-.535,3.692,3.692,0,0,1,2.777,1.1,4.333,4.333,0,0,1,1.152,2.922l.008.445a5.029,5.029,0,0,1-.48,2.234,3.551,3.551,0,0,1-1.375,1.523,3.925,3.925,0,0,1-2.066.539,3.667,3.667,0,0,1-2.863-1.191,4.563,4.563,0,0,1-1.074-3.176Zm1.9.164a3.406,3.406,0,0,0,.539,2.043,1.752,1.752,0,0,0,1.5.738,1.733,1.733,0,0,0,1.5-.75,3.762,3.762,0,0,0,.535-2.2,3.362,3.362,0,0,0-.551-2.031,1.856,1.856,0,0,0-2.973-.012A3.691,3.691,0,0,0,70.632,12.859ZM73.179,5h2.164L73.179,7.367l-1.523,0ZM79.96,8.547l.055.977a3.039,3.039,0,0,1,2.461-1.133q2.641,0,2.688,3.023V17h-1.9V11.523a1.741,1.741,0,0,0-.348-1.191,1.462,1.462,0,0,0-1.137-.387,1.829,1.829,0,0,0-1.711,1.039V17h-1.9V8.547Z" transform="translate(259.631 63.901) rotate(-90)" fill="#fff"/>
        <path id="Path_919191" data-name="Path 919191" d="M26.036,14.065a4.364,4.364,0,0,1-1.428,3.017A4.867,4.867,0,0,1,21.3,18.166a4.713,4.713,0,0,1-2.544-.685,4.5,4.5,0,0,1-1.7-1.947,7.024,7.024,0,0,1-.623-2.93V11.476a7.075,7.075,0,0,1,.606-3.013,4.567,4.567,0,0,1,1.739-2.009A4.851,4.851,0,0,1,21.4,5.748a4.672,4.672,0,0,1,3.221,1.083A4.527,4.527,0,0,1,26.036,9.9H23.945a2.985,2.985,0,0,0-.76-1.88A2.51,2.51,0,0,0,21.4,7.441a2.452,2.452,0,0,0-2.1,1,5,5,0,0,0-.751,2.937v1.072a5.308,5.308,0,0,0,.7,2.991,2.328,2.328,0,0,0,2.054,1.03,2.715,2.715,0,0,0,1.859-.556,2.9,2.9,0,0,0,.789-1.851Zm1.3-.639a5.3,5.3,0,0,1,.523-2.378,3.819,3.819,0,0,1,1.469-1.627,4.14,4.14,0,0,1,2.175-.569,3.923,3.923,0,0,1,2.951,1.17,4.6,4.6,0,0,1,1.224,3.1l.008.473a5.343,5.343,0,0,1-.51,2.374,3.773,3.773,0,0,1-1.461,1.619,4.17,4.17,0,0,1-2.2.573A3.9,3.9,0,0,1,28.481,16.9a4.848,4.848,0,0,1-1.141-3.374Zm2.017.174a3.619,3.619,0,0,0,.573,2.171,1.862,1.862,0,0,0,1.594.784,1.842,1.842,0,0,0,1.59-.8,4,4,0,0,0,.569-2.333,3.572,3.572,0,0,0-.585-2.158,1.973,1.973,0,0,0-3.158-.012A3.922,3.922,0,0,0,29.357,13.6Zm9.911-4.582.058,1.038a3.229,3.229,0,0,1,2.615-1.2q2.806,0,2.855,3.212V18H42.779V12.181a1.85,1.85,0,0,0-.369-1.266A1.554,1.554,0,0,0,41.2,10.5a1.944,1.944,0,0,0-1.818,1.1V18H37.367V9.019ZM51.885,15.56a.914.914,0,0,0-.444-.822,4.723,4.723,0,0,0-1.473-.5,7.574,7.574,0,0,1-1.718-.548,2.293,2.293,0,0,1-1.511-2.117,2.391,2.391,0,0,1,.979-1.942,3.872,3.872,0,0,1,2.49-.78,4.029,4.029,0,0,1,2.6.8,2.529,2.529,0,0,1,.992,2.067H51.786a1.243,1.243,0,0,0-.432-.967,1.654,1.654,0,0,0-1.146-.386,1.787,1.787,0,0,0-1.083.307.968.968,0,0,0-.419.822.818.818,0,0,0,.39.722,5.365,5.365,0,0,0,1.577.519,7.466,7.466,0,0,1,1.864.623,2.639,2.639,0,0,1,1,.867,2.212,2.212,0,0,1,.328,1.229,2.34,2.34,0,0,1-1,1.963,4.283,4.283,0,0,1-2.631.751,4.644,4.644,0,0,1-1.967-.4,3.238,3.238,0,0,1-1.345-1.1,2.594,2.594,0,0,1-.481-1.5H48.4a1.421,1.421,0,0,0,.54,1.1,2.1,2.1,0,0,0,1.32.386,2.04,2.04,0,0,0,1.212-.3A.938.938,0,0,0,51.885,15.56Zm9.181,1.561a3.128,3.128,0,0,1-2.523,1.046,2.788,2.788,0,0,1-2.212-.855,3.637,3.637,0,0,1-.751-2.474V9.019H57.6v5.794q0,1.71,1.419,1.71A1.993,1.993,0,0,0,61,15.468V9.019h2.017V18h-1.9Zm5.9-8.1.058.938a3.232,3.232,0,0,1,2.59-1.1,2.483,2.483,0,0,1,2.465,1.378,3.186,3.186,0,0,1,2.756-1.378,2.8,2.8,0,0,1,2.212.822,3.618,3.618,0,0,1,.743,2.424V18H75.775V12.156A1.786,1.786,0,0,0,75.4,10.9a1.635,1.635,0,0,0-1.237-.4,1.679,1.679,0,0,0-1.125.369,1.948,1.948,0,0,0-.61.967L72.438,18H70.421V12.09A1.439,1.439,0,0,0,68.8,10.5a1.776,1.776,0,0,0-1.718.988V18H65.067V9.019Zm12.518,4.408a5.3,5.3,0,0,1,.523-2.378,3.819,3.819,0,0,1,1.469-1.627,4.14,4.14,0,0,1,2.175-.569,3.923,3.923,0,0,1,2.951,1.17,4.6,4.6,0,0,1,1.224,3.1l.008.473a5.343,5.343,0,0,1-.51,2.374,3.773,3.773,0,0,1-1.461,1.619,4.17,4.17,0,0,1-2.2.573A3.9,3.9,0,0,1,80.627,16.9a4.848,4.848,0,0,1-1.141-3.374ZM81.5,13.6a3.619,3.619,0,0,0,.573,2.171,1.862,1.862,0,0,0,1.594.784,1.842,1.842,0,0,0,1.59-.8,4,4,0,0,0,.569-2.333,3.572,3.572,0,0,0-.585-2.158,1.973,1.973,0,0,0-3.158-.012A3.922,3.922,0,0,0,81.5,13.6Zm-61.5,23.511,1.826-6.093h2.15L20.413,41.361a2.9,2.9,0,0,1-2.789,2.266,3.6,3.6,0,0,1-.971-.15V41.909l.382.025a1.964,1.964,0,0,0,1.15-.278,1.842,1.842,0,0,0,.61-.933l.291-.771L15.93,31.019h2.175Zm14.07-4.25a4.992,4.992,0,0,0-.822-.066,1.85,1.85,0,0,0-1.868,1.063V40H29.369V31.019H31.3l.05,1a2.273,2.273,0,0,1,2.025-1.17,1.888,1.888,0,0,1,.714.116Zm5.229,7.3A4.173,4.173,0,0,1,36.2,38.958a4.381,4.381,0,0,1-1.191-3.217v-.249a5.389,5.389,0,0,1,.519-2.4,3.949,3.949,0,0,1,1.457-1.648,3.851,3.851,0,0,1,2.092-.589,3.525,3.525,0,0,1,2.835,1.17,4.949,4.949,0,0,1,1,3.312v.813H37.039a2.7,2.7,0,0,0,.743,1.76,2.23,2.23,0,0,0,1.639.647,2.731,2.731,0,0,0,2.258-1.121l1.087,1.038a3.631,3.631,0,0,1-1.44,1.249A4.509,4.509,0,0,1,39.305,40.166Zm-.241-7.695a1.7,1.7,0,0,0-1.341.581,3.012,3.012,0,0,0-.652,1.619h3.843v-.149a2.452,2.452,0,0,0-.54-1.531A1.686,1.686,0,0,0,39.065,32.471Zm9.1,6.084a1.824,1.824,0,0,0,1.253-.44,1.5,1.5,0,0,0,.531-1.087h1.9a2.963,2.963,0,0,1-.523,1.565A3.43,3.43,0,0,1,50,39.743a3.958,3.958,0,0,1-1.81.423,3.829,3.829,0,0,1-2.988-1.22,4.84,4.84,0,0,1-1.1-3.37v-.208a4.759,4.759,0,0,1,1.1-3.283,3.8,3.8,0,0,1,2.988-1.233,3.69,3.69,0,0,1,2.611.934,3.345,3.345,0,0,1,1.058,2.453h-1.9a1.847,1.847,0,0,0-.527-1.27,1.7,1.7,0,0,0-1.258-.5,1.775,1.775,0,0,0-1.511.71,3.621,3.621,0,0,0-.54,2.154v.324a3.682,3.682,0,0,0,.527,2.179A1.773,1.773,0,0,0,48.162,38.556ZM55.517,40H53.5V31.019h2.017ZM53.375,28.686a1.07,1.07,0,0,1,.295-.772,1.113,1.113,0,0,1,.843-.307,1.127,1.127,0,0,1,.847.307,1.062,1.062,0,0,1,.3.772,1.038,1.038,0,0,1-.3.76,1.136,1.136,0,0,1-.847.3,1.122,1.122,0,0,1-.843-.3A1.046,1.046,0,0,1,53.375,28.686Zm8.027,9.87a1.824,1.824,0,0,0,1.253-.44,1.5,1.5,0,0,0,.531-1.087h1.9a2.963,2.963,0,0,1-.523,1.565,3.43,3.43,0,0,1-1.328,1.15,3.958,3.958,0,0,1-1.81.423,3.829,3.829,0,0,1-2.988-1.22,4.84,4.84,0,0,1-1.1-3.37v-.208a4.759,4.759,0,0,1,1.1-3.283,3.8,3.8,0,0,1,2.988-1.233,3.69,3.69,0,0,1,2.611.934,3.345,3.345,0,0,1,1.058,2.453h-1.9a1.847,1.847,0,0,0-.527-1.27,1.7,1.7,0,0,0-1.258-.5,1.775,1.775,0,0,0-1.511.71,3.621,3.621,0,0,0-.54,2.154v.324a3.682,3.682,0,0,0,.527,2.179A1.773,1.773,0,0,0,61.4,38.556ZM68.756,40H66.739V27.25h2.017Zm7.562,0a3.113,3.113,0,0,1-.232-.838,3.393,3.393,0,0,1-4.565.232,2.47,2.47,0,0,1-.855-1.909,2.55,2.55,0,0,1,1.067-2.2,5.169,5.169,0,0,1,3.051-.768H76.02v-.589a1.573,1.573,0,0,0-.39-1.116,1.547,1.547,0,0,0-1.187-.419,1.777,1.777,0,0,0-1.129.344,1.066,1.066,0,0,0-.44.876H70.857a2.239,2.239,0,0,1,.49-1.382,3.263,3.263,0,0,1,1.332-1.009,4.68,4.68,0,0,1,1.88-.365,3.769,3.769,0,0,1,2.515.793,2.827,2.827,0,0,1,.963,2.229v4.051a4.591,4.591,0,0,0,.34,1.934V40ZM74.1,38.547a2.294,2.294,0,0,0,1.125-.291,1.941,1.941,0,0,0,.793-.78V35.783H74.932a2.973,2.973,0,0,0-1.685.39,1.264,1.264,0,0,0-.564,1.1,1.179,1.179,0,0,0,.386.926A1.5,1.5,0,0,0,74.1,38.547Zm8.151-7.529V40.8a2.955,2.955,0,0,1-.685,2.1,2.625,2.625,0,0,1-2,.726,4.031,4.031,0,0,1-1.071-.141V41.893a3.108,3.108,0,0,0,.714.075q1,0,1.029-1.1V31.019Zm-2.191-2.333a1.071,1.071,0,0,1,.295-.772,1.113,1.113,0,0,1,.843-.307,1.127,1.127,0,0,1,.847.307,1.062,1.062,0,0,1,.3.772,1.038,1.038,0,0,1-.3.76,1.136,1.136,0,0,1-.847.3,1.122,1.122,0,0,1-.843-.3A1.046,1.046,0,0,1,80.062,28.686Zm8.3,11.48a4.173,4.173,0,0,1-3.109-1.208,4.381,4.381,0,0,1-1.191-3.217v-.249a5.389,5.389,0,0,1,.519-2.4,3.949,3.949,0,0,1,1.457-1.648,3.851,3.851,0,0,1,2.092-.589,3.525,3.525,0,0,1,2.835,1.17,4.949,4.949,0,0,1,1,3.312v.813H86.1a2.7,2.7,0,0,0,.743,1.76,2.23,2.23,0,0,0,1.639.647,2.731,2.731,0,0,0,2.258-1.121l1.087,1.038a3.631,3.631,0,0,1-1.44,1.249A4.509,4.509,0,0,1,88.363,40.166Zm-.241-7.695a1.7,1.7,0,0,0-1.341.581,3.012,3.012,0,0,0-.652,1.619h3.843v-.149a2.452,2.452,0,0,0-.54-1.531A1.686,1.686,0,0,0,88.122,32.471Z" transform="translate(626.191 63.667) rotate(-90)" fill="#fff"/>
        <path id="Path_919192" data-name="Path 919192" d="M13.781,5.914l1.486,8.741,4.507-8.741h3.237L20.911,18h-2.44l.6-3.445,1.179-5.379L15.616,18H13.947L12.328,8.869l-.78,5.952L10.992,18H8.56l2.1-12.086ZM28.133,18a2.423,2.423,0,0,1-.091-.813,3.042,3.042,0,0,1-2.291.979A2.756,2.756,0,0,1,23.8,17.4a2.323,2.323,0,0,1-.726-1.855A2.685,2.685,0,0,1,24.3,13.289a5.6,5.6,0,0,1,3.15-.784l1.1.017.116-.54a1.874,1.874,0,0,0,.025-.523.9.9,0,0,0-.295-.61,1.015,1.015,0,0,0-.668-.228,1.43,1.43,0,0,0-.93.27,1.308,1.308,0,0,0-.49.826l-2.349.008a2.611,2.611,0,0,1,1.183-2.088,4.581,4.581,0,0,1,2.777-.784,3.312,3.312,0,0,1,2.391.909,2.659,2.659,0,0,1,.722,2.254l-.689,4.3-.042.531a2.563,2.563,0,0,0,.141,1L30.432,18Zm-1.8-1.652a2.144,2.144,0,0,0,1.768-.88l.291-1.552-.813-.008a2.273,2.273,0,0,0-1.868.789,1.373,1.373,0,0,0-.257.672.8.8,0,0,0,.187.71A.946.946,0,0,0,26.332,16.348Zm11.679-5.08a4.833,4.833,0,0,0-.789-.083,2.269,2.269,0,0,0-1.984.938L34.2,18H31.86l1.561-8.981,2.2-.008-.216,1.1A2.47,2.47,0,0,1,37.5,8.836a3.414,3.414,0,0,1,.813.116Zm3.835,3.154-1.087.946L40.3,18H37.961L40.169,5.25h2.349l-1.212,6.923.457-.49,2.665-2.665h3l-3.926,3.86L46,18H43.44Zm9.272,3.744a3.907,3.907,0,0,1-2.088-.577,3.5,3.5,0,0,1-1.357-1.561,4.349,4.349,0,0,1-.349-2.187l.025-.332a5.806,5.806,0,0,1,.764-2.407,4.613,4.613,0,0,1,1.644-1.689,4.066,4.066,0,0,1,2.225-.56,3.107,3.107,0,0,1,2.627,1.276,4.374,4.374,0,0,1,.677,3.147L55.152,14.3h-5.5a1.927,1.927,0,0,0,.423,1.395,1.616,1.616,0,0,0,1.245.54,2.872,2.872,0,0,0,2.241-1l1.071,1.328a3.331,3.331,0,0,1-1.461,1.191A4.777,4.777,0,0,1,51.118,18.166Zm.747-7.379a1.663,1.663,0,0,0-1.15.407,3.573,3.573,0,0,0-.9,1.469h3.221l.05-.216a2.2,2.2,0,0,0,.008-.631,1.2,1.2,0,0,0-.407-.751A1.275,1.275,0,0,0,51.865,10.787ZM60.6,6.811l-.39,2.208H61.7l-.307,1.76H59.9l-.764,4.5a1.144,1.144,0,0,0,.066.647q.116.224.564.241.133.008.714-.042l-.166,1.834a3.937,3.937,0,0,1-1.345.191,2.11,2.11,0,0,1-1.718-.722,2.609,2.609,0,0,1-.465-1.909l.772-4.74h-1.27l.307-1.76h1.27l.382-2.208ZM63.976,18H61.618l1.561-8.981h2.357ZM63.453,6.736a1.169,1.169,0,0,1,.365-.921,1.405,1.405,0,0,1,1.843-.042,1.164,1.164,0,0,1,.407.88,1.2,1.2,0,0,1-.344.9,1.291,1.291,0,0,1-.942.4,1.313,1.313,0,0,1-.917-.315A1.159,1.159,0,0,1,63.453,6.736ZM69.662,9.01l-.2,1.063a3.232,3.232,0,0,1,2.615-1.22,2.155,2.155,0,0,1,1.876.93,3.746,3.746,0,0,1,.44,2.507L73.447,18H71.106l.963-5.736a2.686,2.686,0,0,0,.017-.589.951.951,0,0,0-1.062-.872,2.015,2.015,0,0,0-1.652.855L68.251,18H65.91l1.561-8.981ZM75.73,13.5a6.214,6.214,0,0,1,1.357-3.383A3.444,3.444,0,0,1,79.88,8.844a2.518,2.518,0,0,1,2.142,1.038l.307-.872,2.15.008L83.01,17.693a4.232,4.232,0,0,1-1.527,2.839,4.751,4.751,0,0,1-3.187,1.013,4.429,4.429,0,0,1-1.776-.4,3.8,3.8,0,0,1-1.395-1.058l1.162-1.428a2.5,2.5,0,0,0,1.959,1.021,2.3,2.3,0,0,0,1.561-.477,2.554,2.554,0,0,0,.88-1.44l.133-.54a2.921,2.921,0,0,1-2.2.946,2.58,2.58,0,0,1-2.083-.975,4.194,4.194,0,0,1-.847-2.494A8.383,8.383,0,0,1,75.73,13.5Zm2.3.985a2.147,2.147,0,0,0,.328,1.251,1.147,1.147,0,0,0,.95.495A2.1,2.1,0,0,0,81,15.417l.7-3.807a1.377,1.377,0,0,0-1.32-.815,1.836,1.836,0,0,0-1.519.723,3.783,3.783,0,0,0-.78,1.987A8.728,8.728,0,0,0,78.029,14.486Z" transform="translate(446.353 314.667) rotate(-90)" fill="#12263f"/>
        <g id="Group_1117857" data-name="Group 1117857" transform="translate(35.567 181.088) rotate(-90)">
          <g id="Group_1117856" data-name="Group 1117856" clip-path="url(#clip-path-7)">
            <path id="Path_918812" data-name="Path 918812" d="M55.258,27.629A27.629,27.629,0,1,1,27.629,0,27.629,27.629,0,0,1,55.258,27.629" transform="translate(29.602 5.75)" fill="#ffe9a2"/>
            <path id="Path_918813" data-name="Path 918813" d="M28.616,14.308A14.308,14.308,0,1,1,14.308,0,14.308,14.308,0,0,1,28.616,14.308" transform="translate(0 53.854)" fill="#f8d2a8"/>
            <path id="Path_918814" data-name="Path 918814" d="M40.69,71.28c-.494,3.676-4.495,7.166-8.186,7.3-7.733-.476-16.163.606-23.812,0a8.913,8.913,0,0,1-8.421-8.64C-.585,57.291.912,43.654.31,30.9A11.792,11.792,0,0,1,5.6,22.5c1.071-.671,3.607-1.338,4.169-1.83,1.2-1.055.365-6.181.6-7.858A2.41,2.41,0,0,1,7.9,10.455C7.468,5.727,8.165.71,13.856.222A99.689,99.689,0,0,1,27.329.234c4.013.364,5.792,3.557,5.964,7.281.1,2.154.19,5.282-2.695,5.3.267,1.913-.439,5.232.09,6.962.41,1.339,2.6,1.554,3.725,2.112,2.681,1.324,6.277,5.444,6.277,8.539v14.03H57.863c2.9,0,5.706,3.618,5.677,6.4-.029,2.877-3.2,6.4-6.126,6.4H40.69Zm-10.1-60.948V5.73c0-1.431-2.236-2.795-3.543-2.967A81.811,81.811,0,0,0,14.53,2.692c-1.651.142-4.145,1.365-4.145,3.263v4.377ZM28.119,12.8H13.19l-.337.337v7.184a11.24,11.24,0,0,1-.486,1.086c-1.166,2.175-3.317,2-5.194,3.112A9.14,9.14,0,0,0,2.752,33H38.221a9.009,9.009,0,0,0-4.71-8.647c-1.708-.905-3.392-.843-4.591-2.592a10.526,10.526,0,0,1-.8-1.669Zm10.1,22.9H2.752V65.668L3.089,66H38.221V57.249H26.66a80.564,80.564,0,0,1-7.732-4.39A2.561,2.561,0,0,1,18.8,48.94c1.9-1.661,5.611-2.756,7.636-4.487H38.221ZM53.261,47.148H28.119v7.408H53.261Zm2.694,7.408c6.548.81,6.641-8.325,0-7.408Zm-30.306-6.51-4.934,2.806,4.934,2.806ZM38.221,68.474H2.752c-.139,4.557,2.288,7.336,6.836,7.643,7.215.487,14.97-.392,22.243,0,4.336-.342,6.638-3.348,6.39-7.641" transform="translate(4.231 0)" fill="#050c68"/>
            <path id="Path_918815" data-name="Path 918815" d="M32.61,16.737c.737.635,4.234.466,4.614,1.782v9.557c-.372,1.654-3.974,1.155-4.648,2.087-1.86,2.569,1.342,3.765,1.237,6.163a57.781,57.781,0,0,1-7.234,7.12c-1.078.115-3.542-2.184-4.2-2.148a13.612,13.612,0,0,0-1.965,1.007c-1.058,1.669.207,4.324-2.78,4.573-1.247.1-7.812.156-8.594-.178-1.394-.594-1.123-3.571-1.836-4.45a12.52,12.52,0,0,0-1.795-.887c-1.053-.207-3.69,3.09-5.065,1.685-1.751-1.789,3.614-3.815,4.728-4.483l4.243,1.8,1.151,3.826,6.8-.036,1.145-3.905c1.346-.326,3.391-1.944,4.651-1.515.564.192,2.885,1.9,3.209,1.749l4.648-4.721-1.954-3.613a41.233,41.233,0,0,1,1.467-3.9c.64-.99,4.1-1.2,4.155-1.488l-.042-6.8-3.954-1.208c-.265-1.383-1.9-3.308-1.459-4.6.2-.581,1.817-2.835,1.8-3.1L26.267,6.334l-.433.005a16,16,0,0,1-2.816,1.71c-1.134.4-3.333-1.205-4.6-1.477l-1.34-4.048a45.068,45.068,0,0,0-6.183-.1c-1.039.189-.993,3.374-1.74,4.207L5.093,8.194c-1.166-.535-5.418-2.172-3.5-3.855,1.21-1.063,2.532.9,3.48,1A5.846,5.846,0,0,0,7.034,4.68C8,3.908,7.5.388,9.147,0l9.505.051c1.386.448.989,3.792,1.917,4.593a5.293,5.293,0,0,0,1.989.693c1.022-.1,2.921-2.309,4.171-1.926,1.337.409,5.229,5.522,6.725,6.53C34.8,11.308,32,13.449,31.881,14.669a10.039,10.039,0,0,0,.729,2.068" transform="translate(45.587 27.441)" fill="#050c68"/>
            <path id="Path_918816" data-name="Path 918816" d="M.37,5.719c-1.1-1.1.534-2.357,1.312-2.957A13.957,13.957,0,1,1,5.359,27.108C4.046,26.657-.886,24.255.52,22.475c.862-1.092,2.014.145,2.639.546C14.993,30.6,26.785,17.157,19.041,6.915A11.482,11.482,0,0,0,4.353,4.085C3.318,4.686,1.475,6.824.37,5.719" transform="translate(49.543 36.885)" fill="#050c68"/>
            <path id="Path_918817" data-name="Path 918817" d="M12.532.13c3.594-.5,3.7.536,6.357,1.608.9.364,1.908.373,2.949.867.991.47,3.063,1.778,2.075,3.064-1.043,1.358-2.4-.437-3.383-.858a17.138,17.138,0,0,0-2.621-.521c-.371-.117-.605-.607-.982-.814-1.63-.9-2.772-1.271-4.627-.659-.914.3-1.834,1.318-2.345,1.471C8,4.873,6.9,4.391,5.4,6.471,4.44,7.81,4.8,8.5,4.405,9.738c-.454,1.43-1.969,1.808-1.863,4.305.1,2.261,1.6,2.766,1.907,3.929.5,1.9-.041,2.668,1.848,4.213,1.472,1.2,2.16.811,3.644,1.294.62.2,1.11.884,1.742,1.177a5.351,5.351,0,0,0,4.206.158c1.105-.419,2.126-2.051,3.334-1.188,1.653,1.182-.97,2.937-2,3.424a8.008,8.008,0,0,1-7.006-.259c-.437-.2-.746-.677-1.176-.845-1.728-.675-2.558-.306-4.32-1.741-2.316-1.885-1.971-2.861-2.793-5.289C1.4,17.349.173,16.783.018,14.323-.17,11.335,1.13,10.909,1.911,8.816c.69-1.846.423-2.978,2.027-4.708C5.588,2.328,7.1,2.493,9,1.762,10.215,1.294,10.826.368,12.532.13" transform="translate(10.784 36.974)" fill="#050c68"/>
            <path id="Path_918818" data-name="Path 918818" d="M3.667,9.13c1.209,1.129,3.8.764,3.97,2,.326,2.312-2.664,1.623-3.975,1.038A6.4,6.4,0,0,1,2.393,1.39c1-.774,4.665-2.371,5.2-.553C8.2,2.877,5.7,2.5,4.634,2.957A3.888,3.888,0,0,0,3.667,9.13" transform="translate(18.434 44.45)" fill="#050c68"/>
            <path id="Path_918819" data-name="Path 918819" d="M.855,0,20.8.16l.528,1.026c-.118.857-.636,1.146-1.438,1.24C14.144,3.1,7.131,1.9,1.245,2.434A1.248,1.248,0,0,1,.855,0" transform="translate(34.124 49.664)" fill="#050c68"/>
          </g>
        </g>
        <g id="Group_1117863" data-name="Group 1117863" transform="translate(611.094 178.566) rotate(-90)">
          <g id="Group_1117862" data-name="Group 1117862" clip-path="url(#clip-path-8)">
            <path id="Path_918838" data-name="Path 918838" d="M51.63,25.815A25.815,25.815,0,1,1,25.815,0,25.815,25.815,0,0,1,51.63,25.815" transform="translate(29.387 8.567)" fill="#ffe9a2"/>
            <path id="Path_918839" data-name="Path 918839" d="M26.737,13.368A13.369,13.369,0,1,1,13.369,0,13.368,13.368,0,0,1,26.737,13.368" transform="translate(1.727 53.513)" fill="#f8d2a8"/>
            <path id="Path_918840" data-name="Path 918840" d="M37.2,0c4.181.711,8.806,1.077,12.888,2.178,7.561,2.039,12.339,8.767,12.46,16.781,3.92-5.591,10.561-5.854,16.507-7.44V21A13.86,13.86,0,0,1,76.274,28.2c-3.471,4.3-8.856,4.195-13.694,5.666L62.517,40.4c-.227.715-1.921.287-2.525.393V27.358c-4.631-.954-9.913-1.01-14.156-3.27-3-1.6-3.491-2.65-7.357-2.966A24.548,24.548,0,0,0,15.948,31.46c-.423.6-2.6,4.14-2.231,4.537a45.143,45.143,0,0,1,5.03,1.177c.248.1.395-.121.318.381L4.652,52.317,0,32.4l6.031,1.43A32.168,32.168,0,0,1,37.668,13.2c.064-.048-.465-1.346-.465-1.557Zm2.558,3.12v8.52a18.769,18.769,0,0,0,1.763,4.66c3.5,6.2,9.272,7.109,15.677,7.936L45.212,11.757c-.3-.6,1.3-1.631,1.641-2.153L59.991,23.039V17.4c0-5.726-5.383-11.3-10.505-12.677a82.987,82.987,0,0,0-9.725-1.6M76.5,14.879c-5.02.907-10.213,2.049-12.749,7.121a20.647,20.647,0,0,0-1.2,3.558v3.96l7.821-7.9,1.7,1.75-6.493,7.111c3.924-.985,7.64-1.411,9.721-5.444A12.8,12.8,0,0,0,76.5,21.239ZM39.994,18.716c-.607-.6-1.06-2.605-1.789-2.831-1.14-.354-5.508.022-6.9.223-11.214,1.612-20.131,9.9-23.86,20.745L3.488,36,6.047,47.277l8.134-8.282c.078-.529-.084-.28-.339-.361C13.43,38.5,9.954,37.761,10,37.561,14.368,24.7,26.785,16.646,39.994,18.716" transform="translate(0 0)" fill="#050c68"/>
            <path id="Path_918841" data-name="Path 918841" d="M67.911,19.914c-.858-.241-5.867-1.758-6.252-1.412A32.092,32.092,0,0,1,44.976,36.2C26.708,44.432,4.962,33.967,0,14.052l7.222-2.3A25.6,25.6,0,0,0,28.3,30.919a24.341,24.341,0,0,0,25.894-14.6l-5.579-1.562L62.914,0Zm-3.488-3.6L61.52,5.036,53.5,13.316a22.53,22.53,0,0,0,3.848,1.073c.275.08.412-.162.309.333-.5,2.376-3.134,6.7-4.629,8.666C39.893,40.612,12.663,35.406,5.567,15.143l-2.31.585C7.577,29.5,21.637,37.873,35.447,36.2a29.646,29.646,0,0,0,24.8-21.091Z" transform="translate(3.937 42.242)" fill="#050c68"/>
            <path id="Path_918842" data-name="Path 918842" d="M13.97.053c17.713-1.4,22.632,25.359,5.577,30.713C-2.017,37.537-8.357,1.815,13.97.053M18.9,9.1a11.376,11.376,0,0,0-4.037-5.982A13.99,13.99,0,0,0,10.994,9.1ZM8.436,9.1a9.362,9.362,0,0,1,1-2.931C9.9,5.2,10.566,4.325,10.992,3.34A11.54,11.54,0,0,0,4.251,9.1Zm17.44,0c-1-1.927-4.3-5.2-6.393-5.523-.886-.137.509,1.541.7,1.919.6,1.183,1.033,2.422,1.623,3.6ZM7.739,19.659a18.724,18.724,0,0,1-.1-7.43L7.39,11.74H2.856a15.578,15.578,0,0,0,0,7.919Zm12.091,0a30.084,30.084,0,0,0-.038-7.52l-.311-.4H10.3a18.46,18.46,0,0,0,0,7.919Zm7.208-7.919h-4.65a38.72,38.72,0,0,1,0,7.919h4.534a11.384,11.384,0,0,0,.116-7.919M8.087,22.3H4.018A12.874,12.874,0,0,0,8.745,27.14c.178.1,2.413,1.324,2.247.8Zm10.813,0H10.994c.173,1.2,3.067,6.263,4.072,6.181,1-.376,4.309-5.706,3.834-6.181m6.976,0H21.69A15.96,15.96,0,0,1,18.9,27.94c.457.263,1.337-.264,1.829-.512A12.767,12.767,0,0,0,25.876,22.3" transform="translate(20.861 31.458)" fill="#050c68"/>
          </g>
        </g>
      </g>
      <g id="Group_1117859" data-name="Group 1117859" transform="translate(2349.865 9446.301)">
        <g id="Group_1117858" data-name="Group 1117858" clip-path="url(#clip-path-9)">
          <path id="Path_918820" data-name="Path 918820" d="M55.262,27.631A27.631,27.631,0,1,1,27.631,0,27.631,27.631,0,0,1,55.262,27.631" transform="translate(29.605 0.987)" fill="#ffe9a2"/>
          <path id="Path_918821" data-name="Path 918821" d="M28.618,14.309A14.309,14.309,0,1,1,14.309,0,14.309,14.309,0,0,1,28.618,14.309" transform="translate(0 49.095)" fill="#f8d2a8"/>
          <path id="Path_918822" data-name="Path 918822" d="M11.69,17.448,9.259,18c-.5,7.964-11.177,5.82-8.956-1.867a4.478,4.478,0,0,1,7.233-2.217c.6.55.8,1.545,1.54,1.51L34.139,8.609l-21.6-6.124C11.231,1.839,11.4-.1,12.92,0L39.192,7.1c7.93-1.862,15.72-4.61,23.638-6.492.861-.2,2.5-.784,3.257-.528,1,.338.717,2.079-.238,2.408l-21.6,6.124,25.062,6.814c.745.036.937-.959,1.54-1.51a4.478,4.478,0,0,1,7.233,2.217C80.3,23.818,69.623,25.962,69.124,18l-2.431-.55V32.471A8,8,0,0,1,71.8,37.837c.321,1.417.533,7.377.078,8.546a1.143,1.143,0,0,1-.859.816c-.94.04-1.312-.628-1.412-1.594-.374-3.612,1.381-8.92-2.914-10.23V72.868c0,.824-2.245.824-2.245,0V65.925L60.3,68.431l-4.154-2.506v6.943c0,.824-2.245.824-2.245,0V67.692l-4.153-2.431L45.59,67.692v5.176c0,.824-2.245.824-2.245,0V65.925l-4.153,2.506-4.154-2.506v6.943c0,.824-2.245.824-2.245,0V67.692L28.64,65.261l-4.153,2.431v5.176c0,.824-2.245.824-2.245,0V65.925l-4.153,2.5-4.153-2.5v6.943c0,.824-2.245.824-2.245,0V28.053c-1.4.071-2.724,1.957-2.9,3.431-.143,1.209.444,4.169-1.255,4.169-1.868,0-1.2-4.239-.856-5.533a6.573,6.573,0,0,1,5.01-4.844Zm31.633-6.54c-1.3-.126-2.872-1.053-4.131-1.053s-2.836.927-4.131,1.053l.091,7.3,4.04,2.7a35.133,35.133,0,0,0,3.927-2.571c.593-.8.042-6.045.2-7.422m-10.529.733-8.307,2.4V27.548l4.154-2.414,4.153,2.414Zm21.1,8.332V14.04l-8.307-2.4v8.332l4.153-2.287ZM22.242,25.78V14.419l-8.283,2.3L14.08,25.8l4.008,2.486Zm33.9-11.362V25.78L60.3,28.29,64.3,25.8l.122-9.089ZM3.993,15.481c-2.725.7-1.9,5.75,1.251,4.945,2.725-.7,1.9-5.75-1.251-4.945m69.147,0c-2.725.7-1.9,5.75,1.251,4.945,2.725-.7,1.9-5.75-1.251-4.945M53.9,23l-4.153-2.431L45.59,23v4.545l4.153-2.414L53.9,27.548ZM43.345,21.236l-4.153,2.5-4.153-2.5V25.78l4.153,2.51,4.153-2.51ZM32.793,35.122V30.7L28.64,28.073,24.487,30.7v4.418l4.153-2.54Zm21.1,0V30.7l-4.153-2.631L45.59,30.7v4.418l4.153-2.54ZM22.242,28.81C21,29.05,19.235,31.1,18.088,31.1c-1.244,0-2.874-2.014-4.153-2.287v4.166l4.153,2.676,4.153-2.676Zm21.1,0c-1.279.273-2.909,2.285-4.153,2.287-1.147,0-2.916-2.047-4.154-2.287v4.166l4.153,2.676,4.153-2.676Zm21.1,0c-1.279.273-2.909,2.285-4.153,2.287-1.147,0-2.916-2.047-4.154-2.287v4.166L60.3,35.652l4.153-2.676ZM32.793,37.9,28.64,35.468,24.487,37.9v4.545l4.153-2.5,4.153,2.5Zm21.1,0-4.153-2.431L45.59,37.9v4.545l4.153-2.5,4.153,2.5ZM22.242,36.132l-4.153,2.506-4.153-2.506v4.545L18.088,43.2l4.153-2.524Zm21.1,0-4.153,2.506-4.153-2.506v4.545L39.192,43.2l4.153-2.524Zm21.1,0L60.3,38.638l-4.153-2.506v4.545L60.3,43.2l4.153-2.524ZM32.793,49.766V45.6L28.64,42.968,24.487,45.6v4.166l4.153-2.287Zm21.1,0V45.6l-4.153-2.633L45.59,45.6v4.166l4.153-2.287Zm-31.655-6.06c-1.24.241-3,2.287-4.153,2.287s-2.913-2.045-4.153-2.287v4.166l4.153,2.821,4.153-2.821Zm21.1,0c-1.24.241-3,2.287-4.153,2.287s-2.913-2.045-4.153-2.287v4.166L39.194,50.7l4.151-2.823Zm21.1,0c-1.24.241-3,2.287-4.153,2.287s-2.913-2.045-4.153-2.287v4.166L60.3,50.7l4.151-2.823ZM32.793,52.8,28.64,50.272,24.487,52.8V57.34l4.153-2.412,4.153,2.412Zm21.1,0-4.153-2.523L45.59,52.8V57.34l4.153-2.412L53.9,57.34ZM22.242,51.028l-4.153,2.5-4.153-2.5v4.545L18.088,58.1l4.153-2.523Zm21.1,0-4.153,2.5-4.153-2.5v4.545L39.192,58.1l4.153-2.523Zm21.1,0-4.153,2.5-4.153-2.5v4.545L60.3,58.1l4.153-2.523ZM32.793,64.662V60.5l-4.153-2.632L24.487,60.5v4.166l4.153-2.287Zm21.1,0V60.5l-4.153-2.632L45.59,60.5v4.418l4.153-2.54ZM22.242,58.6c-1.24.241-3,2.286-4.153,2.286s-2.913-2.045-4.153-2.286v4.166l4.153,2.677,4.153-2.677Zm21.1,0c-1.24.241-3,2.286-4.153,2.286-1.22,0-2.837-2.1-4.153-2.286v4.166l4.153,2.677,4.153-2.677Zm21.1,0c-1.24.241-3,2.286-4.153,2.286-1.219,0-2.837-2.1-4.153-2.286v4.166L60.3,65.445l4.153-2.677Z" transform="translate(1.716 0)" fill="#050c68"/>
          <path id="Path_918823" data-name="Path 918823" d="M7.381.432A4.637,4.637,0,0,1,7.673,2c.249,3.529.4,15.835-.39,18.768-.758,2.825-3.855,5.84-6.6,4.988-.643-.2-.851-1.341-.547-1.912.257-.483,2.509-.711,3.336-1.3A4.908,4.908,0,0,0,5.1,20.075c.653-5.835-.552-12.857.119-18.55C5.275,1.035,5.383.4,5.8.149a1.369,1.369,0,0,1,1.58.283" transform="translate(2.823 39.05)"/>
          <path id="Path_918824" data-name="Path 918824" d="M1.067.023C2.912-.3,2.33,2.748,2.526,3.838a4.9,4.9,0,0,0,2.14,2.895c1.116.559,3.428.232,2.932,2.156C6.926,11.5,2.229,8.35,1.255,6.783.444,5.477-1.009.382,1.067.023" transform="translate(71.322 50.542)"/>
        </g>
      </g>
      <g id="Group_1117861" data-name="Group 1117861" transform="translate(2348.624 9635.625)">
        <g id="Group_1117860" data-name="Group 1117860" clip-path="url(#clip-path-10)">
          <path id="Path_918825" data-name="Path 918825" d="M55.537,27.768A27.768,27.768,0,1,1,27.768,0,27.768,27.768,0,0,1,55.537,27.768" transform="translate(29.752 4.666)" fill="#ffe9a2"/>
          <path id="Path_918826" data-name="Path 918826" d="M28.76,14.38A14.38,14.38,0,1,1,14.38,0,14.38,14.38,0,0,1,28.76,14.38" transform="translate(0 53.012)" fill="#f8d2a8"/>
          <path id="Path_918827" data-name="Path 918827" d="M48.065,30.5v5.528c0,.831-2.043,2.714-3.041,2.6H14.34c-1.228.235-5.049,5.594-6.67,6.188-.9.332-2.246-.3-2.246-1.117V38.627c-2.389.325-4.455-.384-5.175-2.835C.762,27.647-.485,18.563.224,10.529A3.649,3.649,0,0,1,3.5,7.04H29.791A6.168,6.168,0,0,1,35.117.3C44.7.889,55.418-.582,64.869.276a6.249,6.249,0,0,1,5.765,5.967c.473,6-.35,12.64-.032,18.71A6.515,6.515,0,0,1,64.648,30.5ZM34.914,3.478a3.606,3.606,0,0,0-2.2,3.215c-.495,5.6.389,11.925.009,17.608a3.237,3.237,0,0,0,3.263,3.054c9.055.8,19.267-.624,28.446,0a3.028,3.028,0,0,0,3.042-2.6c.7-5.822-.541-13,0-18.967a3.466,3.466,0,0,0-1.983-2.3ZM29.79,10.2H3.392L3.268,35.029c.455,1.386,3.29.182,4.535.88,1.23.689.664,2.456.781,3.621l4.172-3.836H44.568a3.766,3.766,0,0,0,.564-.564V30.5H35.543c-2,0-5.753-2.792-5.753-4.851Z" transform="translate(8.883 0)" fill="#050c68"/>
          <path id="Path_918828" data-name="Path 918828" d="M19.19,38.224a7.4,7.4,0,0,1-.907.9,48.389,48.389,0,0,1-6.882.121c-.99-.115-1.35-.468-1.467-1.467-.337-2.9.258-6.4.005-9.369A8.844,8.844,0,0,1,1.1,15.4c3.436-6.416,10.569-4.1,16.525-4.683L43.66.2a1.619,1.619,0,0,1,2.365,1.264L46.068,12.7c1.245.8,2.556,1.111,3.575,2.291,3.563,4.129,1.364,9.96-3.613,11.541L46.025,37.76A1.765,1.765,0,0,1,44.743,39.2L19.19,29.312Zm23.69-2.82V3.817L39.074,5.54l-.085,16.848c-.329,1.683-2.878.772-2.878.044V6.75L19.22,13.324l-.039,12.452ZM16.257,13.97H7.57A14.236,14.236,0,0,0,5.441,15C1.021,18.1,3.511,25.477,8.7,25.477h7.22l.338-.338ZM46.038,23a3.665,3.665,0,0,0,0-6.769ZM16.257,36.081V28.748c-.848-.7-2.315-.189-3.384-.338v7.671Z" transform="translate(0.757 39.773)" fill="#050c68"/>
          <path id="Path_918829" data-name="Path 918829" d="M.41.6A4.423,4.423,0,0,1,2.044.092c1.419-.142,7.7-.171,8.739.289a1.532,1.532,0,0,1-.17,2.866H1.148A1.642,1.642,0,0,1,.41.6" transform="translate(56.595 57.711)" fill="#050c68"/>
          <path id="Path_918830" data-name="Path 918830" d="M3.946.069C5.571-.305,6.555.9,5.786,2.362,5.4,3.1,2.474,5.867,1.638,5.9c-4.2.18.834-5.494,2.308-5.834" transform="translate(54.065 46.277)" fill="#050c68"/>
          <path id="Path_918831" data-name="Path 918831" d="M1.205.028a1.462,1.462,0,0,1,.569,0,24.549,24.549,0,0,1,4,3.687C6.764,5.182,5.326,6.7,3.661,5.83a38.113,38.113,0,0,1-3.3-3.24C-.309,1.577-.056.252,1.205.028" transform="translate(54.105 66.385)" fill="#050c68"/>
          <path id="Path_918832" data-name="Path 918832" d="M.513.515a1.647,1.647,0,0,1,1.9-.343L13.159,6.35c1.323,1.366.384,2.161-.776,2.992a78.743,78.743,0,0,1-9,5.214c-1.373.658-2.912,1.3-3.168-.9a84.775,84.775,0,0,1,0-11.972A1.935,1.935,0,0,1,.513.515m2.865,3.77v6.543c.587-.141,5.855-3.065,5.64-3.381Z" transform="translate(52.216 7.719)" fill="#050c68"/>
          <path id="Path_918833" data-name="Path 918833" d="M.45.429A2.019,2.019,0,0,1,1.624.136C6.664-.3,12.316.472,17.422.149a1.5,1.5,0,0,1-.442,2.933c-4.81.562-10.659-.437-15.583.007A1.577,1.577,0,0,1,.45.429" transform="translate(16.846 16.372)" fill="#050c68"/>
          <path id="Path_918834" data-name="Path 918834" d="M.451,2.643A1.6,1.6,0,0,1,1.189,0H11.556a1.535,1.535,0,0,1,0,2.922C9.9,2.69,1.214,3.365.451,2.643" transform="translate(16.845 25.096)" fill="#050c68"/>
          <path id="Path_918835" data-name="Path 918835" d="M.922.088A1.527,1.527,0,0,1,2.285,2.809,1.524,1.524,0,1,1,.922.088" transform="translate(32.273 25.046)" fill="#050c68"/>
          <path id="Path_918836" data-name="Path 918836" d="M1.1.054c3.059-.629,1.9,4.518-.509,2.67A1.524,1.524,0,0,1,1.1.054" transform="translate(36.841 66.364)" fill="#050c68"/>
        </g>
      </g>
    </g>
  </g>
</svg>
