<svg xmlns="http://www.w3.org/2000/svg" width="131" height="131" viewBox="0 0 131 131">
  <g id="Group_1118056" data-name="Group 1118056" transform="translate(-259 -6905)">
    <circle id="Ellipse_11591" data-name="Ellipse 11591" cx="65.5" cy="65.5" r="65.5" transform="translate(259 6905)" fill="#fff"/>
    <g id="Group_1108989" data-name="Group 1108989" transform="translate(282.961 6928)">
      <rect id="Rectangle_401104" data-name="Rectangle 401104" width="84" height="85" fill="none"/>
      <g id="Group_1118012" data-name="Group 1118012" transform="translate(-10700.23 11388.73)">
        <path id="Path_918528" data-name="Path 918528" d="M2544.685,771.187V808.8h-33.853V796.3a14.775,14.775,0,0,0,0-24.878v-.234Z" transform="translate(8239.872 -12140.352)" fill="#afebf0"/>
        <rect id="Rectangle_407293" data-name="Rectangle 407293" width="33.853" height="2.938" transform="translate(10750.704 -11331.556)" fill="#84d8dd"/>
        <rect id="Rectangle_407294" data-name="Rectangle 407294" width="33.853" height="2.938" transform="translate(10750.704 -11328.618)" fill="#afebf0"/>
        <rect id="Rectangle_407295" data-name="Rectangle 407295" width="33.853" height="2.938" transform="translate(10750.704 -11325.681)" fill="#84d8dd"/>
        <rect id="Rectangle_407296" data-name="Rectangle 407296" width="33.853" height="2.937" transform="translate(10750.704 -11322.742)" fill="#afebf0"/>
        <rect id="Rectangle_407297" data-name="Rectangle 407297" width="33.853" height="2.938" transform="translate(10750.704 -11319.806)" fill="#84d8dd"/>
        <rect id="Rectangle_407298" data-name="Rectangle 407298" width="33.853" height="2.938" transform="translate(10750.704 -11316.868)" fill="#afebf0"/>
        <rect id="Rectangle_407299" data-name="Rectangle 407299" width="5.921" height="4.183" transform="translate(10732.168 -11336.906) rotate(-67.073)" fill="#2a2b2b"/>
        <path id="Path_918529" data-name="Path 918529" d="M2402.58,911.13l-6.544,14.887c-1.558,3.679,4.01,6.086,5.586,2.363l6.545-14.886Z" transform="translate(8328.719 -12248.405)" fill="#a5b73b"/>
        <path id="Path_918530" data-name="Path 918530" d="M2417.926,783.049a18.158,18.158,0,1,1,14.126-21.447,18.166,18.166,0,0,1-14.126,21.447" transform="translate(8328.461 -12121.755)" fill="#4b4c4c"/>
        <rect id="Rectangle_407300" data-name="Rectangle 407300" width="9.386" height="7.736" transform="matrix(0.441, -0.897, 0.897, 0.441, 10715.123, -11326.538)" fill="#f6c485"/>
        <path id="Path_918531" data-name="Path 918531" d="M2411.966,940.344a1.5,1.5,0,0,1,1.526-2.577l5.375,3a1.5,1.5,0,1,1-1.526,2.577Z" transform="translate(8316.776 -12268.807)" fill="#f6c485"/>
        <path id="Path_918532" data-name="Path 918532" d="M2409.378,953.932a1.5,1.5,0,0,1,1.472-2.608l5.358,2.955a1.5,1.5,0,0,1-1.47,2.607Z" transform="translate(8318.804 -12279.274)" fill="#f6c485"/>
        <path id="Path_918533" data-name="Path 918533" d="M2400.525,963.224a1.5,1.5,0,0,1,1.471-2.607l5.283,2.978a1.5,1.5,0,0,1-1.472,2.608Z" transform="translate(8325.639 -12286.45)" fill="#f6c485"/>
        <path id="Path_918534" data-name="Path 918534" d="M2400.716,977.216a1.232,1.232,0,1,1,1.2-2.139l2.962,1.672a1.231,1.231,0,1,1-1.2,2.138Z" transform="translate(8325.453 -12297.622)" fill="#f6c485"/>
        <path id="Path_918535" data-name="Path 918535" d="M2369.4,939.438s-.577,2.333,2.856,4.644a34.388,34.388,0,0,0,6.58,3.006l4.662-9.475-5.085-3.052Z" transform="translate(8349.106 -12266.496)" fill="#f6c485"/>
        <path id="Path_918536" data-name="Path 918536" d="M2390.554,917.221c-1.394,5.258-7.254,5.728-8.98,4.506-2.462-1.761-2.025-4.527-.694-7.27a14.923,14.923,0,0,1,5.611-2.007,2.145,2.145,0,0,0,1.438-.695c.627-.732.518-1.756,1.184-1.77,2.255-.044,2.121,2.5-.357,4.594-1.582,1.338,1.8,2.641,1.8,2.641" transform="translate(8341.043 -12247.521)" fill="#f6c485"/>
        <path id="Path_918537" data-name="Path 918537" d="M2417.268,910.052c-.023.069-.048.139-.077.211a1.979,1.979,0,0,1-1.728,1.494c.627-.732.518-1.756,1.185-1.77a2.32,2.32,0,0,1,.62.065" transform="translate(8313.51 -12247.521)" fill="#eb4a26"/>
        <rect id="Rectangle_407301" data-name="Rectangle 407301" width="12.429" height="7.824" transform="translate(10707.978 -11328.938) rotate(-65.209)" fill="#e53c31"/>
        <rect id="Rectangle_407302" data-name="Rectangle 407302" width="11.155" height="15.649" transform="matrix(0.419, -0.908, 0.908, 0.419, 10701.142, -11332.799)" fill="#e53c31"/>
        <rect id="Rectangle_407303" data-name="Rectangle 407303" width="11.154" height="2.089" transform="matrix(0.42, -0.908, 0.908, 0.42, 10715.347, -11326.238)" fill="#96d4dd"/>
        <rect id="Rectangle_407304" data-name="Rectangle 407304" width="11.155" height="1.764" transform="matrix(0.419, -0.908, 0.908, 0.419, 10706.644, -11330.257)" fill="#cf2e21"/>
        <path id="Path_918538" data-name="Path 918538" d="M2358.139,916.833a.709.709,0,1,1,.346.941.708.708,0,0,1-.346-.941" transform="translate(8357.821 -12252.491)" fill="#dadbdc"/>
        <path id="Path_918539" data-name="Path 918539" d="M2510.832,797.09V772.212a14.775,14.775,0,0,1,0,24.878" transform="translate(8239.872 -12141.143)" fill="#75c8e5"/>
        <path id="Path_918540" data-name="Path 918540" d="M2433.713,764.271v24.878a14.779,14.779,0,1,1,0-24.878" transform="translate(8316.991 -12133.202)" fill="#96d4dd"/>
        <path id="Path_918541" data-name="Path 918541" d="M2457.814,797.172a2.032,2.032,0,1,1,.986-2.7,2.032,2.032,0,0,1-.986,2.7" transform="translate(8283.039 -12157.424)" fill="#afebf0"/>
        <path id="Path_918542" data-name="Path 918542" d="M2569.93,803.475h-12.713V790.762h12.713Zm-11.143-1.571h9.573v-9.572h-9.573Z" transform="translate(8204.057 -12155.465)" fill="#2a2b2b"/>
        <path id="Path_918543" data-name="Path 918543" d="M2575.9,807.668l-3.486,3.485-2.066-2.066-.761.762,2.827,2.828,4.247-4.247Z" transform="translate(8194.504 -12168.52)" fill="#e53c31"/>
        <path id="Path_918544" data-name="Path 918544" d="M2569.93,873.074h-12.713V860.361h12.713Zm-11.143-1.571h9.573v-9.572h-9.573Z" transform="translate(8204.057 -12209.205)" fill="#2a2b2b"/>
        <path id="Path_918545" data-name="Path 918545" d="M2575.9,877.267l-3.486,3.485-2.066-2.067-.761.762,2.827,2.828,4.247-4.247Z" transform="translate(8194.504 -12222.258)" fill="#e53c31"/>
      </g>
    </g>
  </g>
</svg>
