<svg xmlns="http://www.w3.org/2000/svg" width="131" height="131" viewBox="0 0 131 131">
  <g id="Group_1118057" data-name="Group 1118057" transform="translate(-259 -6905)">
    <circle id="Ellipse_11591" data-name="Ellipse 11591" cx="65.5" cy="65.5" r="65.5" transform="translate(259 6905)" fill="#fff"/>
    <g id="Group_1108989" data-name="Group 1108989" transform="translate(282.961 6928)">
      <rect id="Rectangle_401104" data-name="Rectangle 401104" width="84" height="85" transform="translate(0.039)" fill="none"/>
      <g id="Group_1118013" data-name="Group 1118013" transform="translate(-10040.165 11376.217)">
        <rect id="Rectangle_407314" data-name="Rectangle 407314" width="49.675" height="58.645" transform="translate(10054.203 -11376.215)" fill="#96d4dd"/>
        <rect id="Rectangle_407315" data-name="Rectangle 407315" width="7.733" height="2.34" transform="translate(10075.027 -11368.988)" fill="#2f66ac"/>
        <rect id="Rectangle_407316" data-name="Rectangle 407316" width="3.866" height="2.34" transform="translate(10085.474 -11368.988)" fill="#2f66ac"/>
        <rect id="Rectangle_407317" data-name="Rectangle 407317" width="6.533" height="2.34" transform="translate(10092.286 -11368.988)" fill="#2f66ac"/>
        <rect id="Rectangle_407318" data-name="Rectangle 407318" width="7.733" height="2.34" transform="translate(10075.027 -11364.785)" fill="#2f66ac"/>
        <rect id="Rectangle_407319" data-name="Rectangle 407319" width="3.866" height="2.34" transform="translate(10085.474 -11364.785)" fill="#2f66ac"/>
        <rect id="Rectangle_407320" data-name="Rectangle 407320" width="6.533" height="2.34" transform="translate(10092.286 -11364.785)" fill="#2f66ac"/>
        <rect id="Rectangle_407321" data-name="Rectangle 407321" width="7.733" height="2.34" transform="translate(10075.027 -11349.107)" fill="#2f66ac"/>
        <rect id="Rectangle_407322" data-name="Rectangle 407322" width="3.866" height="2.34" transform="translate(10085.474 -11349.107)" fill="#2f66ac"/>
        <rect id="Rectangle_407323" data-name="Rectangle 407323" width="6.533" height="2.34" transform="translate(10092.286 -11349.107)" fill="#2f66ac"/>
        <rect id="Rectangle_407324" data-name="Rectangle 407324" width="7.733" height="2.34" transform="translate(10075.027 -11344.904)" fill="#2f66ac"/>
        <rect id="Rectangle_407325" data-name="Rectangle 407325" width="3.866" height="2.34" transform="translate(10085.474 -11344.904)" fill="#2f66ac"/>
        <rect id="Rectangle_407326" data-name="Rectangle 407326" width="6.533" height="2.34" transform="translate(10092.286 -11344.904)" fill="#2f66ac"/>
        <rect id="Rectangle_407327" data-name="Rectangle 407327" width="11.931" height="11.931" transform="translate(10059.116 -11371.181)" fill="#afebf0"/>
        <path id="Path_918578" data-name="Path 918578" d="M132.621,798.19a2.927,2.927,0,0,1-.587,1.845h-3.422a2.855,2.855,0,0,1-.554-1.845,3.8,3.8,0,0,0,.614-1.769h3.335a3.835,3.835,0,0,0,.613,1.769" transform="translate(9934.74 -12159.286)" fill="#e79f63"/>
        <path id="Path_918579" data-name="Path 918579" d="M128.108,769.506l2.958,1.826-.585,4.156a2.731,2.731,0,0,1-4.746,0l-.585-4.156Z" transform="translate(9936.973 -12138.63)" fill="#f2b982"/>
        <path id="Path_918580" data-name="Path 918580" d="M130.344,770.808l-.3.947H129.7l.268-2.376c-.457-.723-1.267-.7-2.439-.58-1.172-.122-1.982-.143-2.438.58l.268,2.376h-.338l-.3-.947c-2.218-5.316,7.84-5.316,5.622,0" transform="translate(9937.548 -12136.569)" fill="#333c3b"/>
        <path id="Path_918581" data-name="Path 918581" d="M120.1,801.16l-1.919,1.117-1.92-1.117c-1.664.307-2.808.318-4.045,2.513h11.93c-1.238-2.2-2.383-2.206-4.046-2.513" transform="translate(9946.896 -12162.923)" fill="#92309a"/>
        <rect id="Rectangle_407328" data-name="Rectangle 407328" width="11.93" height="11.93" transform="translate(10059.116 -11352.097)" fill="#afebf0"/>
        <path id="Path_918582" data-name="Path 918582" d="M132.621,880.262a2.928,2.928,0,0,1-.587,1.845h-3.422a2.855,2.855,0,0,1-.554-1.845,3.8,3.8,0,0,0,.614-1.769h3.335a3.835,3.835,0,0,0,.613,1.769" transform="translate(9934.74 -12222.275)" fill="#e79f63"/>
        <path id="Path_918583" data-name="Path 918583" d="M128.108,851.58l2.958,1.826-.585,4.156a2.731,2.731,0,0,1-4.746,0l-.585-4.156Z" transform="translate(9936.973 -12201.621)" fill="#f2b982"/>
        <path id="Path_918584" data-name="Path 918584" d="M130.344,852.881l-.3.947H129.7l.268-2.377c-.457-.723-1.267-.7-2.439-.579-1.172-.122-1.982-.143-2.438.579l.268,2.377h-.338l-.3-.947c-2.218-5.316,7.84-5.316,5.622,0" transform="translate(9937.548 -12199.56)" fill="#333c3b"/>
        <path id="Path_918585" data-name="Path 918585" d="M120.1,883.234l-1.919,1.117-1.92-1.117c-1.664.307-2.808.318-4.045,2.513h11.93c-1.238-2.2-2.383-2.207-4.046-2.513" transform="translate(9946.896 -12225.914)" fill="#3a3f93"/>
        <rect id="Rectangle_407329" data-name="Rectangle 407329" width="11.93" height="11.931" transform="translate(10059.116 -11334.023)" fill="#afebf0"/>
        <path id="Path_918586" data-name="Path 918586" d="M132.624,957.99a2.928,2.928,0,0,1-.587,1.844h-3.422a2.858,2.858,0,0,1-.553-1.844,3.814,3.814,0,0,0,.614-1.77h3.334a3.854,3.854,0,0,0,.614,1.77" transform="translate(9934.738 -12281.928)" fill="#e79f63"/>
        <path id="Path_918587" data-name="Path 918587" d="M128.11,929.306l2.958,1.826-.585,4.156a2.732,2.732,0,0,1-4.747,0l-.585-4.156Z" transform="translate(9936.971 -12261.272)" fill="#d38140"/>
        <path id="Path_918588" data-name="Path 918588" d="M130.348,930.608l-.3.947h-.338l.269-2.377c-.456-.722-1.267-.7-2.439-.579-1.172-.122-1.983-.143-2.438.579l.268,2.377h-.338l-.3-.947c-2.219-5.316,7.839-5.316,5.62,0" transform="translate(9937.543 -12259.212)" fill="#333c3b"/>
        <path id="Path_918589" data-name="Path 918589" d="M120.106,960.96l-1.919,1.117-1.92-1.117c-1.664.307-2.809.318-4.045,2.513h11.929c-1.236-2.2-2.382-2.206-4.046-2.513" transform="translate(9946.895 -12285.566)" fill="#ca43c6"/>
        <path id="Path_918590" data-name="Path 918590" d="M146.845,870.865a7.251,7.251,0,1,1-7.25-7.251,7.25,7.25,0,0,1,7.25,7.251" transform="translate(9931.451 -12210.856)" fill="#e1fdfd"/>
        <path id="Path_918591" data-name="Path 918591" d="M150.347,879.227l-4.546,4.546-3.047-3.046-1.347,1.347,4.394,4.394,5.893-5.893Z" transform="translate(9924.494 -12222.838)" fill="#d04425"/>
        <path id="Path_918592" data-name="Path 918592" d="M188.394,905.918l-3.752-7.67a.232.232,0,0,1-.04.055c-1.452-2.849-3.106-2.03-3.755-1.092l-.193-.377a1.986,1.986,0,0,0-3.7.521,1.974,1.974,0,0,0-3.71,1.1l-.131-.258a1.972,1.972,0,0,0-3.7,1.207l-4.482-8.353a1.866,1.866,0,1,0-3.237,1.855l5.371,10.144,3.089,6.4-3.261-1.44c-6.192-3.045-6.82-.8-6.883-.764a1.055,1.055,0,0,0,.053,1.853l9.347,4.675c4.459,3.472,3.233,2.745,7.711,4.555l2.445,4.893,11.5-4.832-2.212-4.181c.822-2.732,1.22-5.266-.462-8.3" transform="translate(9910.621 -12231.194)" fill="#f5c382"/>
        <path id="Path_918593" data-name="Path 918593" d="M171.348,892.625c.844-.455,1.714.456,2.291,2.217l-2.018,1.1c-1.3-1.65-1.4-2.712-.273-3.319" transform="translate(9902.114 -12233.031)" fill="#e68443"/>
        <rect id="Rectangle_407330" data-name="Rectangle 407330" width="17.101" height="10.764" transform="translate(10088.558 -11307.33) rotate(-23.459)" fill="#ca43c6"/>
        <rect id="Rectangle_407331" data-name="Rectangle 407331" width="15.349" height="17.804" transform="matrix(0.917, -0.398, 0.398, 0.917, 10089.363, -11307.68)" fill="#ca43c6"/>
        <rect id="Rectangle_407332" data-name="Rectangle 407332" width="15.349" height="2.874" transform="translate(10088.219 -11310.315) rotate(-23.459)" fill="#96d4dd"/>
        <rect id="Rectangle_407333" data-name="Rectangle 407333" width="15.348" height="2.427" transform="translate(10093.648 -11297.804) rotate(-23.46)" fill="#92309a"/>
        <path id="Path_918594" data-name="Path 918594" d="M293.61,1025.255a.976.976,0,1,0-1.283-.505.975.975,0,0,0,1.283.505" transform="translate(9808.731 -12333.476)" fill="#dadbdc"/>
      </g>
    </g>
  </g>
</svg>
