<svg xmlns="http://www.w3.org/2000/svg" width="131" height="131" viewBox="0 0 131 131">
  <g id="Group_1118054" data-name="Group 1118054" transform="translate(-259 -6905)">
    <circle id="Ellipse_11591" data-name="Ellipse 11591" cx="65.5" cy="65.5" r="65.5" transform="translate(259 6905)" fill="#fff"/>
    <g id="Group_1108989" data-name="Group 1108989" transform="translate(282.961 6928)">
      <rect id="Rectangle_401104" data-name="Rectangle 401104" width="84" height="85" fill="none"/>
      <g id="Group_1118010" data-name="Group 1118010" transform="translate(-10036.294 11565.256)">
        <path id="Path_918493" data-name="Path 918493" d="M193.354,175.372H144.263l-7.541-34.3h49.091Z" transform="translate(9931.336 -11686.759)" fill="#3681b0"/>
        <path id="Path_918494" data-name="Path 918494" d="M104.934,175.372h49.091l7.541-34.3H112.476Z" transform="translate(9955.583 -11686.759)" fill="#5bb2e2"/>
        <path id="Path_918495" data-name="Path 918495" d="M139.211,167H145.9l1.028-4.675h-6.691Z" transform="translate(9929.438 -11702.966)" fill="#d8e6e7"/>
        <path id="Path_918496" data-name="Path 918496" d="M126.982,222.62h6.691l1.028-4.675H128.01Z" transform="translate(9938.766 -11745.394)" fill="#d8e6e7"/>
        <path id="Path_918497" data-name="Path 918497" d="M133.1,194.809h6.691l1.028-4.675h-6.691Z" transform="translate(9934.101 -11724.182)" fill="#d8e6e7"/>
        <path id="Path_918498" data-name="Path 918498" d="M178.2,167h6.691l1.028-4.675h-6.691Z" transform="translate(9899.697 -11702.966)" fill="#d8e6e7"/>
        <path id="Path_918499" data-name="Path 918499" d="M165.972,222.62h6.691l1.028-4.675H167Z" transform="translate(9909.025 -11745.394)" fill="#d8e6e7"/>
        <path id="Path_918500" data-name="Path 918500" d="M172.088,194.809h6.691l1.028-4.675h-6.691Z" transform="translate(9904.36 -11724.182)" fill="#d8e6e7"/>
        <path id="Path_918501" data-name="Path 918501" d="M159.859,250.432h6.691l1.028-4.675h-6.691Z" transform="translate(9913.688 -11766.608)" fill="#d8e6e7"/>
        <path id="Path_918502" data-name="Path 918502" d="M217.192,167h6.691l1.028-4.675H218.22Z" transform="translate(9869.958 -11702.966)" fill="#d8e6e7"/>
        <path id="Path_918503" data-name="Path 918503" d="M204.963,222.62h6.691l1.028-4.675h-6.691Z" transform="translate(9879.285 -11745.394)" fill="#d8e6e7"/>
        <path id="Path_918504" data-name="Path 918504" d="M211.078,194.809h6.691l1.028-4.675h-6.691Z" transform="translate(9874.62 -11724.182)" fill="#d8e6e7"/>
        <path id="Path_918505" data-name="Path 918505" d="M198.848,250.432h6.691l1.028-4.675h-6.691Z" transform="translate(9883.949 -11766.608)" fill="#d8e6e7"/>
        <path id="Path_918506" data-name="Path 918506" d="M256.182,167h6.691l1.027-4.675H257.21Z" transform="translate(9840.218 -11702.966)" fill="#d8e6e7"/>
        <path id="Path_918507" data-name="Path 918507" d="M243.952,222.62h6.691l1.028-4.675H244.98Z" transform="translate(9849.546 -11745.394)" fill="#d8e6e7"/>
        <path id="Path_918508" data-name="Path 918508" d="M250.067,194.809h6.691l1.028-4.675H251.1Z" transform="translate(9844.881 -11724.182)" fill="#d8e6e7"/>
        <path id="Path_918509" data-name="Path 918509" d="M237.838,250.432h6.691l1.028-4.675h-6.691Z" transform="translate(9854.21 -11766.608)" fill="#d8e6e7"/>
        <path id="Path_918510" data-name="Path 918510" d="M282.944,222.62h6.691l1.027-4.675h-6.691Z" transform="translate(9819.805 -11745.394)" fill="#d8e6e7"/>
        <path id="Path_918511" data-name="Path 918511" d="M289.061,194.809h6.691l1.028-4.675h-6.691Z" transform="translate(9815.139 -11724.182)" fill="#d8e6e7"/>
        <path id="Path_918512" data-name="Path 918512" d="M276.829,250.432h6.691l1.028-4.675h-6.691Z" transform="translate(9824.47 -11766.608)" fill="#d8e6e7"/>
        <path id="Path_918513" data-name="Path 918513" d="M169.162,121.239a.712.712,0,0,1-.768.641h-2a.713.713,0,0,1-.767-.641v-8.622a.713.713,0,0,1,.767-.641h2a.713.713,0,0,1,.768.641Z" transform="translate(9909.285 -11664.565)" fill="#f08f35"/>
        <path id="Path_918514" data-name="Path 918514" d="M211.623,121.239a.712.712,0,0,1-.767.641h-1.995a.713.713,0,0,1-.768-.641v-8.622a.713.713,0,0,1,.768-.641h1.995a.712.712,0,0,1,.767.641Z" transform="translate(9876.897 -11664.565)" fill="#f08f35"/>
        <path id="Path_918515" data-name="Path 918515" d="M254.084,121.239a.712.712,0,0,1-.767.641h-2a.712.712,0,0,1-.767-.641v-8.622a.713.713,0,0,1,.767-.641h2a.712.712,0,0,1,.767.641Z" transform="translate(9844.51 -11664.565)" fill="#f08f35"/>
        <path id="Path_918516" data-name="Path 918516" d="M296.546,121.239a.712.712,0,0,1-.767.641h-2a.712.712,0,0,1-.767-.641v-8.622a.712.712,0,0,1,.767-.641h2a.712.712,0,0,1,.767.641Z" transform="translate(9812.122 -11664.565)" fill="#f08f35"/>
        <path id="Path_918517" data-name="Path 918517" d="M191.288,182.974a31.167,31.167,0,0,0-2.64,3.633c-.223-.425-.444-.851-.65-1.285-.324-.684-1.336-.088-1.014.593.368.776.786,1.526,1.174,2.291.615,1.212,1.067-.637,4.143-4.639.461-.6-.559-1.184-1.014-.593" transform="translate(9893.046 -11718.532)" fill="#e53c31"/>
        <path id="Path_918518" data-name="Path 918518" d="M117.157,160.471l13.377,5.466c.5-.193,1.441-.789.887-2.377-.528-1.511-6.469-4.951-6.469-4.951Z" transform="translate(9946.26 -11700.136)" fill="#f3b167"/>
        <path id="Path_918519" data-name="Path 918519" d="M105.136,189.8s-3.674-.812-4.867-.6-3.537,2.749-3.537,2.749l-1.11-1.126,2.538-4.121,4.78-1.67,4.732,1.85Z" transform="translate(9962.686 -11720.294)" fill="#f3b167"/>
        <path id="Path_918520" data-name="Path 918520" d="M61.749,147.987l21.8,9.168,1.88-4.469-21.8-9.167a.945.945,0,0,0-1.237.5l-1.146,2.729a.943.943,0,0,0,.5,1.235" transform="translate(9988.963 -11688.569)" fill="#347a86"/>
        <rect id="Rectangle_407289" data-name="Rectangle 407289" width="5.621" height="3.332" transform="translate(10051.561 -11539.805) rotate(-67.177)" fill="#f08f35"/>
        <path id="Path_918521" data-name="Path 918521" d="M157.361,182.4l-1.88,4.469a4.792,4.792,0,0,0,3.122.3l1.153-2.74a4.785,4.785,0,0,0-2.395-2.025" transform="translate(9917.027 -11718.28)" fill="#347a86"/>
        <path id="Path_918522" data-name="Path 918522" d="M169.795,190.932l-1.152,2.739,3.674.629.5-1.183Z" transform="translate(9906.988 -11724.789)" fill="#fff"/>
        <rect id="Rectangle_407290" data-name="Rectangle 407290" width="4.849" height="4.291" transform="matrix(0.388, -0.922, 0.922, 0.388, 10068.554, -11533.078)" fill="#f08f35"/>
        <path id="Path_918523" data-name="Path 918523" d="M184.905,201.414l1.448.61a.314.314,0,1,1-.244.58l-1.449-.61Z" transform="translate(9894.771 -11732.785)" fill="#1c1c1c"/>
        <path id="Path_918524" data-name="Path 918524" d="M49.633,196.736l.926-9.849a10.949,10.949,0,0,1,2.017-5.377l3.378-4.693a2.812,2.812,0,0,1,2.669-1.153l6.774,2.85-4.014,1.045c-4.227,6.864,1.354,9.363,3.686,6.526,2.188-2.664,5.365-7.008,6.8-7.542a2.277,2.277,0,0,1,2.906,2.287c.116,1.808-3.445,6.773-6.438,12.809l-8.24,8.839-1.766,4.983L47.4,200.488Z" transform="translate(9999.463 -11713.143)" fill="#f5c382"/>
        <path id="Path_918525" data-name="Path 918525" d="M145.6,194.927l-2.462-1.568c.884-2.185,2.032-3.21,3.1-2.615,1.254.7,1.164,2.206-.634,4.183" transform="translate(9926.443 -11724.519)" fill="#f7d1a5"/>
        <rect id="Rectangle_407291" data-name="Rectangle 407291" width="13.435" height="21.343" transform="translate(10036.199 -11503.291) rotate(-59.807)" fill="#171d9d"/>
        <path id="Path_918526" data-name="Path 918526" d="M34.892,263.175l1.806-3.1,16.557,9.634-1.8,3.1Z" transform="translate(10009.008 -11777.528)" fill="#4eadd1"/>
        <rect id="Rectangle_407292" data-name="Rectangle 407292" width="3.029" height="19.155" transform="translate(10035.621 -11500.123) rotate(-59.809)" fill="#1727b3"/>
        <path id="Path_918527" data-name="Path 918527" d="M35.274,295.618a1.217,1.217,0,1,1,1.665-.439,1.216,1.216,0,0,1-1.665.439" transform="translate(10009.179 -11802.908)" fill="#dadbdc"/>
      </g>
    </g>
  </g>
</svg>
