<svg xmlns="http://www.w3.org/2000/svg" xmlns:xlink="http://www.w3.org/1999/xlink" width="155" height="155" viewBox="0 0 155 155">
  <defs>
    <clipPath id="clip-path">
      <rect id="Rectangle_401492" data-name="Rectangle 401492" width="147.973" height="147.974" transform="translate(0 0)" fill="#fff" stroke="#707070" stroke-width="1"/>
    </clipPath>
    <clipPath id="clip-path-2">
      <rect id="Rectangle_406251" data-name="Rectangle 406251" width="154.628" height="154.628" fill="#1e2ad5"/>
    </clipPath>
    <clipPath id="clip-path-3">
      <rect id="Rectangle_401492-2" data-name="Rectangle 401492" width="146.462" height="146.463" transform="translate(0 0)" fill="#fffceb" stroke="#707070" stroke-width="1"/>
    </clipPath>
    <clipPath id="clip-path-4">
      <rect id="Rectangle_407237" data-name="Rectangle 407237" width="100.877" height="100.877" transform="translate(-0.072 0.403)" fill="#fff" stroke="#707070" stroke-width="1"/>
    </clipPath>
    <clipPath id="clip-path-5">
      <rect id="Rectangle_407353" data-name="Rectangle 407353" width="93.333" height="93.314" fill="#fff"/>
    </clipPath>
  </defs>
  <g id="Group_1117090" data-name="Group 1117090" transform="translate(-313 -7638)">
    <g id="Group_1115379" data-name="Group 1115379" transform="translate(313 7638)">
      <g id="Group_1115374" data-name="Group 1115374" transform="translate(0)">
        <g id="Group_1113673" data-name="Group 1113673">
          <g id="Group_1113672" data-name="Group 1113672" clip-path="url(#clip-path-2)">
            <path id="Path_886855" data-name="Path 886855" d="M114.112,135.2C192.124,127.4,148.261-7.74,70.814.349c-32.847,3.43-59.8,29.1-68.027,62.175-6.978,28.052-.778,59.9,17.772,81.308,24.516,28.287,57.856-5.055,93.553-8.628" transform="translate(0 0)" fill="#1e2ad5"/>
          </g>
        </g>
      </g>
      <g id="Group_1115378" data-name="Group 1115378" transform="translate(108.556 106.432)">
        <path id="Path_886575" data-name="Path 886575" d="M2.542.088A2.2,2.2,0,0,0,.008,1.9a2.168,2.168,0,0,0,2.13,2.244,2.164,2.164,0,0,0,2.1-2.274C4.1.724,3.664-.314,2.542.088" transform="translate(26.569 0) rotate(19)" fill="#ffc811"/>
        <path id="Path_886576" data-name="Path 886576" d="M3.686.082C-1.068-.955-.089,8.122.519,10.4a3.517,3.517,0,0,0,.512,1.222,2.523,2.523,0,0,0,2.7.738,4.163,4.163,0,0,0,2.227-1.848C7.685,7.763,8.082,1.042,3.686.082" transform="translate(15.684 7.783) rotate(19)" fill="#ffc811"/>
        <path id="Path_886577" data-name="Path 886577" d="M3.057,4.969c3.23-1.508.332-6.8-2.179-4.316A3.181,3.181,0,0,0,0,2.992,2.516,2.516,0,0,0,.278,4.146a2.217,2.217,0,0,0,2.779.823" transform="translate(30.874 7.907) rotate(19)" fill="#ffc811"/>
        <path id="Path_886578" data-name="Path 886578" d="M4.339,8.041C5.867,6.648,7.79,2.743,6.123.92,4.56-.788,2.022.088,1.081,1.87a11.556,11.556,0,0,0-1,3.813,2.675,2.675,0,0,0,.2,1.9,2.815,2.815,0,0,0,.7.646,3.167,3.167,0,0,0,1.228.638,2.614,2.614,0,0,0,2.132-.827" transform="translate(22.817 19.098) rotate(19)" fill="#ffc811"/>
        <path id="Path_886579" data-name="Path 886579" d="M1.155,4.96a2.107,2.107,0,0,0,2.634-.236C6.069,2.448,2.073-1.955.333.972a3.19,3.19,0,0,0,0,2.838A2.713,2.713,0,0,0,1.155,4.96" transform="translate(39.904 18.244) rotate(19)" fill="#ffc811"/>
        <path id="Path_886580" data-name="Path 886580" d="M.03.937a1.9,1.9,0,0,0,.49,1.542,2.115,2.115,0,0,0,.824.656A1.542,1.542,0,0,0,2.95,2.825C4.813,1,.527-1.331.03.937" transform="translate(39.044 27.293) rotate(19)" fill="#ffc811"/>
        <path id="Path_886581" data-name="Path 886581" d="M1.106.868A4.263,4.263,0,0,0,.126,3.23,6.015,6.015,0,0,0,.3,6.4a2.967,2.967,0,0,0,2.438,1.93A3.137,3.137,0,0,0,5.666,6.139C6.48,3.877,4.14-2.254,1.106.868" transform="translate(30.668 31.315) rotate(19)" fill="#ffc811"/>
        <path id="Path_886582" data-name="Path 886582" d="M.683,3.309a2.05,2.05,0,0,0,2.378.046C5.706,1.455,1.642-1.655.193,1.074a1.83,1.83,0,0,0,.49,2.235" transform="translate(10.056 22.923) rotate(19)" fill="#ffc811"/>
        <path id="Path_886583" data-name="Path 886583" d="M2.075.206a2.679,2.679,0,0,0-1.306.843A3.471,3.471,0,0,0,.192,2.767,21.977,21.977,0,0,0,0,5.147,5.312,5.312,0,0,0,.39,7.618,2.3,2.3,0,0,0,2.414,8.98,2.706,2.706,0,0,0,4.389,7.739C5.888,5.7,6.7-1.282,2.075.206" transform="translate(2.924 28.688) rotate(19)" fill="#ffc811"/>
        <path id="Path_886584" data-name="Path 886584" d="M5.394.881C4.264.109,2.333-.461,1.261.522.308,1.4.093,3.294.022,4.476a6.226,6.226,0,0,0,.621,3.5,3.206,3.206,0,0,0,3.05,1.678A3.479,3.479,0,0,0,5.43,8.812C7.841,6.781,8.136,2.751,5.394.881" transform="translate(14.872 37.027) rotate(19)" fill="#ffc811"/>
      </g>
    </g>
    <g id="Group_1115380" data-name="Group 1115380" transform="translate(317.426 7641.889)">
      <g id="Mask_Group_1098697-2" data-name="Mask Group 1098697" transform="translate(0 0)" clip-path="url(#clip-path-3)">
        <g id="Mask_Group_1113664" data-name="Mask Group 1113664" transform="translate(22.646 23.675)" clip-path="url(#clip-path-4)">
          <g id="Group_1117093" data-name="Group 1117093" transform="translate(3.928 3.404)">
            <g id="Group_1117092" data-name="Group 1117092" clip-path="url(#clip-path-5)">
              <path id="Path_894732" data-name="Path 894732" d="M32.506,16.378a7.864,7.864,0,0,1,8.563-7c-4-12.526,15.149-12.494,11.136,0a7.521,7.521,0,0,1,7.589,4.306c3.683-2.12,7.814-2.095,10.822,1.114,1.71-4.147,6.675-5.809,10.269-2.842,3.975,3.281,2.184,9.126-2.413,10.7a7.481,7.481,0,0,1,2.365,8.365c-.334,1.011-1.038,1.619-1.228,2.621,2.892,1.012,4.651,4.407,4.283,7.425,4.353-1.808,9.443.472,9.443,5.568a6.173,6.173,0,0,1-7.289,6.121c-.7-.1-1.32-.758-2.154-.555a7.521,7.521,0,0,1-4.306,7.591c2.12,3.683,2.1,7.814-1.114,10.822,11.326,5.907-1.9,19.238-7.855,7.856-3.171,3.426-7.151,3.323-10.986,1.136-1.077,3.035-4.591,4.691-7.71,4.284,2.761,5.366-2.17,11.221-7.9,8.9-3.647-1.475-4.577-5.523-2.945-8.9a7.518,7.518,0,0,1-7.545-3.731,21.633,21.633,0,0,1-1.018-2.408V71.615c-1.192.691-2.412,3.215-3.983,1.843-2.1-1.836,3.25-4.829,3.984-6.405a17.46,17.46,0,0,1-6.286-6.284c-.74-.508-5.745,6.993-6.791,3.508-.535-1.783,1.194-2.236,1.943-3.51H16.805c-1.668,2.243-2.572,4.063-.81,6.662a98.5,98.5,0,0,0,9.518,9.609,6.742,6.742,0,0,0,2.123,1.017c1.258.34,3.231-.233,2.826,1.913-.488,2.588-5.091.672-6.5-.236-.442-.284-1.3-1.563-1.727-1.265C19.83,86.582,7.7,82.4,10.672,74.474c.8-2.14,2.167-2.924,4.129-3.858a7.48,7.48,0,0,1-2.364-8.365c.334-1.011,1.038-1.619,1.228-2.621-2.892-1.012-4.65-4.407-4.283-7.425-12.5,4.012-12.52-15.14,0-11.136-.452-3.508,1.6-5.961,4.28-7.868-2.668-3.7-1.957-7.795,1.145-10.968a5.834,5.834,0,0,1-4.568-5C9.509,9.627,20.33,7.6,22.657,14.8c.89-1.8,7.032-4.65,7.518-1.5.318,2.06-2.951,1.649-4.38,2.646a122.073,122.073,0,0,0-9.8,9.9,4.407,4.407,0,0,0,0,5.045,11.3,11.3,0,0,0,1.524,1.617h4.139c-.691-1.192-3.214-2.412-1.843-3.983,1.786-2.047,4.845,3.089,6.268,3.978a20.077,20.077,0,0,1,6.421-6.28c.508-.741-6.993-5.745-3.508-6.791,1.783-.535,2.237,1.194,3.51,1.943.134-1.593-.184-3.44,0-5M45.846,3.169c-3.6.73-2.615,6.493,1.006,6.156,4.171-.389,3.647-7.1-1.006-6.156m11.78,21.059v-7.85c0-1.24-2.029-3.519-3.348-3.788-2.283-.465-11.91-.332-14.507-.08a4.106,4.106,0,0,0-3.222,1.916,15.99,15.99,0,0,0-.9,1.952v7.85l3.1-1.181c.285-2.3-1.082-7.21,2.816-5.594a2.689,2.689,0,0,1,.363.638V22.23a20.959,20.959,0,0,1,9.42,0V18.091a2.7,2.7,0,0,1,.363-.638c3.9-1.615,2.53,3.289,2.818,5.594ZM15.581,13.44c-4.158.944-1.816,8.225,2.466,5.606a3.089,3.089,0,0,0-2.466-5.606m60.523.005c-4.734.97-1.532,8.244,2.466,5.606A3.12,3.12,0,0,0,76.1,13.445M71.9,32.507h4.139a15.338,15.338,0,0,0,1.637-2.073,4.823,4.823,0,0,0-.774-5.07c-.972-1.269-9.138-9.356-10.17-9.812-2.543-1.124-3.915-.089-5.965,1.255v4.567c.831-.708,3-3.106,4.018-1.522,1.4,2.182-2.892,4.677-4.013,6.232A27.585,27.585,0,0,1,67.189,32.5c1.442-.736,4.868-5.878,6.45-3.876C74.875,30.191,72.6,31.4,71.9,32.507M60.766,71.9v4.567c2.006,1.411,3.433,2.427,5.965,1.255,1.044-.483,9.533-8.847,10.457-10.1,1.895-2.563.894-4.571-.721-6.859H71.9c.724,1.215,2.722,1.965,1.856,3.713-1.278,2.578-5.23-2.988-6.288-3.708l-.406,0c-.088,1.248-2.233,1.52-2.678.5-.77-1.772.488-2.265,1.18-3.561,12.607-23.631-17.42-44.1-34.491-26.213-17.086,17.9,4.354,46.361,26.56,33.982,1-.556,4.36-3.672,5.011-1.314.518,1.878-.808,1.927-1.871,3.022.631,1.245,6.249,5.31,3.708,6.566-1.75.865-2.5-1.131-3.713-1.856M24.227,35.647h-7.85c-1.24,0-3.519,2.029-3.788,3.348-.465,2.283-.331,11.91-.08,14.507a4.105,4.105,0,0,0,1.916,3.222,15.946,15.946,0,0,0,1.952.9h7.85l-1.181-3.1c-2.3-.285-7.21,1.082-5.594-2.816a2.686,2.686,0,0,1,.638-.363h4.139a20.959,20.959,0,0,1,0-9.42H18.09a2.684,2.684,0,0,1-.638-.363c-1.615-3.9,3.289-2.53,5.593-2.817Zm44.817,21.98h7.85c1.24,0,3.52-2.029,3.788-3.348.465-2.283.332-11.91.08-14.507a4.106,4.106,0,0,0-1.916-3.222,15.971,15.971,0,0,0-1.952-.9h-7.85l1.181,3.1c2.3.285,7.21-1.082,5.594,2.816a2.678,2.678,0,0,1-.638.363H71.043a20.955,20.955,0,0,1,0,9.42h4.139a2.68,2.68,0,0,1,.638.363c1.616,3.9-3.29,2.531-5.594,2.816ZM4.059,48.965c2.927,2.785,7.467-2.082,4.044-4.758-3.136-2.453-6.918,2.024-4.044,4.758M86.089,43.7c-3.339.769-2.6,7.083,2.155,5.861,3.03-.78,2.6-6.956-2.155-5.861M35.646,69.046V76.9c0,1.24,2.029,3.52,3.348,3.788,2.283.465,11.91.332,14.507.08a4.106,4.106,0,0,0,3.222-1.916,15.909,15.909,0,0,0,.9-1.952v-7.85l-3.1,1.182c-.288,2.3,1.081,7.209-2.818,5.593a2.688,2.688,0,0,1-.363-.638V71.044a20.955,20.955,0,0,1-9.42,0v4.139a2.678,2.678,0,0,1-.363.638c-3.9,1.616-2.531-3.29-2.816-5.594ZM16.16,73.672c-3.911.367-3.574,6.53.5,6.238,4.4-.315,3.268-6.591-.5-6.238m60.518,0c-3.4.315-4.07,5.317-.8,6.1,5.171,1.234,5.112-6.5.8-6.1M46.419,83.949c-3.933.367-3.782,6.53.5,6.239,4.138-.281,3.323-6.6-.5-6.239" transform="translate(0 0)" fill="#fff"/>
              <path id="Path_894733" data-name="Path 894733" d="M112.423,119.1a10.364,10.364,0,0,1,8.192,3.34c7.32-8.005,20.109-.472,16.35,9.788-1.014,2.766-9.731,11.473-12.346,13.63-2.53,2.087-4.81,2.44-7.546.4-1.3-.969-5.336-4.489-2.948-5.769,2.507-1.344,4.866,5.67,7.883,3.616l11.261-11.288c4.08-5.751-1.763-12.792-8.294-9.722-1.788.841-2.549,2.755-4.385,3.354-.989.053-2.67-2.375-3.787-3.044a6.553,6.553,0,0,0-9.41,8.553c.835,1.677,4.233,4.029,4.474,5.258a1.569,1.569,0,0,1-2.038,1.738,47.669,47.669,0,0,1-4.061-3.944c-4.916-6.1-1.288-15.347,6.656-15.908" transform="translate(-73.979 -85.083)" fill="#fff"/>
              <path id="Path_894734" data-name="Path 894734" d="M181.987,144.081c-.22-.226-1.561,1.15-2.7-.008-1.937-1.963,2.955-4.759,5.281-1.855,2.346,2.929-1.45,6.549-2.721,4.434-.467-.778.155-1.748.144-2.571" transform="translate(-127.787 -100.726)" fill="#fff"/>
            </g>
          </g>
        </g>
      </g>
    </g>
  </g>
</svg>
