<svg xmlns="http://www.w3.org/2000/svg" xmlns:xlink="http://www.w3.org/1999/xlink" width="99" height="99" viewBox="0 0 99 99">
  <defs>
    <clipPath id="clip-path">
      <rect id="Rectangle_401223" data-name="Rectangle 401223" width="99" height="99" transform="translate(0)" fill="#1e2ad5"/>
    </clipPath>
    <clipPath id="clip-path-2">
      <rect id="Rectangle_401223-2" data-name="Rectangle 401223" width="88.539" height="88.539" fill="#f3f9ff"/>
    </clipPath>
    <clipPath id="clip-path-3">
      <rect id="Rectangle_407365" data-name="Rectangle 407365" width="75" height="57.305" fill="none"/>
    </clipPath>
    <clipPath id="clip-path-4">
      <rect id="Rectangle_407364" data-name="Rectangle 407364" width="75" height="57.305" fill="#ffe9a2"/>
    </clipPath>
    <clipPath id="clip-path-5">
      <rect id="Rectangle_407363" data-name="Rectangle 407363" width="27.119" height="16.95" fill="none"/>
    </clipPath>
  </defs>
  <g id="Group_1117103" data-name="Group 1117103" transform="translate(-619.922 -5755.73)">
    <g id="Group_1100724" data-name="Group 1100724" transform="translate(619.922 5755.73)">
      <g id="Group_1099654" data-name="Group 1099654" transform="translate(0 0)">
        <g id="Group_1099652" data-name="Group 1099652" clip-path="url(#clip-path)">
          <path id="Path_873521" data-name="Path 873521" d="M99,77.066A22,22,0,0,1,77.066,99H21.934A22,22,0,0,1,0,77.066V21.933A22,22,0,0,1,21.934,0H77.066A22,22,0,0,1,99,21.934Z" transform="translate(0)" fill="#1e2ad5"/>
        </g>
      </g>
      <g id="Group_1099659" data-name="Group 1099659" transform="translate(4.77 5.723)">
        <g id="Group_1099652-2" data-name="Group 1099652" transform="translate(0 0)" clip-path="url(#clip-path-2)">
          <path id="Path_873521-2" data-name="Path 873521" d="M88.539,68.922A19.674,19.674,0,0,1,68.923,88.539H19.616A19.674,19.674,0,0,1,0,68.922V19.616A19.674,19.674,0,0,1,19.616,0H68.923A19.674,19.674,0,0,1,88.539,19.616Z" fill="#f3f9ff"/>
        </g>
      </g>
    </g>
    <g id="Group_1100725" data-name="Group 1100725" transform="translate(632.343 5767.293)">
      <rect id="Rectangle_401104" data-name="Rectangle 401104" width="75" height="75" transform="translate(-0.421 0.438)" fill="none"/>
      <g id="Group_1117113" data-name="Group 1117113" transform="translate(-0.421 8.437)">
        <g id="Group_1117112" data-name="Group 1117112" clip-path="url(#clip-path-3)">
          <g id="Group_1117111" data-name="Group 1117111" transform="translate(0 0)">
            <g id="Group_1117110" data-name="Group 1117110" clip-path="url(#clip-path-4)">
              <path id="Path_894831" data-name="Path 894831" d="M68.925,56.253S79.39,39.723,72.848,35.946c-4.884-2.818-8.874,1.979-8.874,1.979s6.7-18.782-.837-21.831-8.145,8.4-8.145,8.4S55.845,1.1,40.673,3.086c-11.4,1.494-9.051,14.453-9.051,14.453S22.224,14,16.255,21.344c-7.017,8.631,2.7,18.55,2.7,18.55S9.731,33.877,4.267,37.925c-6.141,4.55-5.13,10.8-.294,18.068Z" transform="translate(0 -0.296)" fill="#ffe9a2"/>
              <path id="Path_894832" data-name="Path 894832" d="M74.495,61.829c0,.669-16.115,1.21-35.994,1.21S2.506,62.5,2.506,61.829s16.115-1.21,35.994-1.21,35.994.542,35.994,1.21" transform="translate(-0.278 -6.052)" fill="#a9c1d8"/>
              <path id="Path_894833" data-name="Path 894833" d="M30.692,27.86c.2.232,1.618,3.323,2.642,3.4.743.059,1.539-2.205,1.539-2.205s-1.01.127-1.89-2.515c-.741-2.227-2.291,1.316-2.291,1.316" transform="translate(-3.41 -2.577)" fill="#8b482a"/>
              <path id="Path_894834" data-name="Path 894834" d="M33.88,31.59c1.707-.007,6.431-2,6.431-2l-.916-.665-5.828.6s-1.394,2.066.312,2.058" transform="translate(-3.67 -2.888)" fill="#8b482a"/>
              <path id="Path_894835" data-name="Path 894835" d="M39.779,28.645a1.632,1.632,0,0,0,.115-.364,2.033,2.033,0,0,1,.367-.6c.081-.1.133-.411.3-.408.271.006.046.5.036.621a.271.271,0,0,0,.138.284.329.329,0,0,0,.217-.014A6.868,6.868,0,0,0,41.6,27.9c.113-.048.227-.088.341-.129a1.283,1.283,0,0,1,.278-.113.125.125,0,0,1,.14.131c-.01.071-.079.077-.132.108-.117.068-.233.139-.348.21-.025.016-.15.071-.154.1-.02.162.317.018.372,0a.706.706,0,0,1,.428-.061.066.066,0,0,1,.048.032c.012.03-.014.06-.04.078-.15.11-.336.162-.484.275-.024.019-.05.044-.044.075.019.121.258.074.337.066.05-.005.113-.007.137.038a.087.087,0,0,1-.018.093.246.246,0,0,1-.082.054,2.265,2.265,0,0,1-.268.125c-.044.014-.18.047-.172.112a.045.045,0,0,0,.02.031.244.244,0,0,0,.132.027.122.122,0,0,1,.115.063c.02.054-.03.107-.078.138a2.076,2.076,0,0,1-.576.218c-.208.06-.418.11-.63.15-.4.076-.815.066-1.205.177a.681.681,0,0,1-.179.038.47.47,0,0,1-.311-.137.762.762,0,0,1-.26-.592c0-.07,0-.215.061-.255a.615.615,0,0,1,.193-.032,1.491,1.491,0,0,0,.218-.048.663.663,0,0,0,.336-.23" transform="translate(-4.33 -2.724)" fill="#8b482a"/>
              <path id="Path_894836" data-name="Path 894836" d="M29.662,21.793c-.748-.938-1.8-1.544-2.625-.936a2.377,2.377,0,0,0-.412,2.241,14.775,14.775,0,0,0,4.2,5.959c.742.557,2.916-.433,2.309-1.914a24.5,24.5,0,0,0-3.477-5.35" transform="translate(-2.947 -2.058)" fill="#ec3b59"/>
              <path id="Path_894837" data-name="Path 894837" d="M17.291,57.478a8.408,8.408,0,0,0-1.012,1.6c-.046.858,2.24,2.5,3.307,2.571.149.011.4-.128.325-.547s-1.177-1.62-.726-2.14-1.894-1.482-1.894-1.482" transform="translate(-1.809 -5.738)" fill="#ffa60e"/>
              <path id="Path_894838" data-name="Path 894838" d="M22.8,43.554s-1.679-6.96-1.748-8.494a3.176,3.176,0,0,1,4.307-3.3c1.64.659,3.531,14.4,1.048,16.055-2.252,1.5-3.606-4.264-3.606-4.264" transform="translate(-2.339 -3.147)" fill="#b3d0ff"/>
              <path id="Path_894839" data-name="Path 894839" d="M20.335,58.123c1.871-2.152,6.764-9.474,6.7-11.7-.065-2.409-3.245-1.958-4.928.718-1.091,1.735-4.706,7.659-5.576,9.334-.211.407.7,1.22,1.333,1.548.016.008,1.924.725,2.466.1" transform="translate(-1.834 -4.477)" fill="#b3d0ff"/>
              <path id="Path_894840" data-name="Path 894840" d="M29.144,57.256a8.47,8.47,0,0,0-.472,1.837c.218.83,2.9,1.67,3.931,1.4.145-.037.337-.247.141-.623S31.13,58.7,31.4,58.07s-2.254-.814-2.254-.814" transform="translate(-3.185 -5.716)" fill="#ffa60e"/>
              <path id="Path_894841" data-name="Path 894841" d="M30.056,42.218s-3.73-6.088-4.266-7.525a3.2,3.2,0,0,1,3.084-4.488c1.76.111,7.771,12.583,5.917,14.933-1.681,2.132-4.735-2.92-4.735-2.92" transform="translate(-2.84 -3.015)" fill="#b3d0ff"/>
              <path id="Path_894842" data-name="Path 894842" d="M32.574,56.623c1.119-2.634,3.526-11.132,2.786-13.232-.8-2.269-3.685-.841-4.465,2.232-.5,1.991-2.125,8.759-2.438,10.625-.076.453,1.039.941,1.742,1.053.017,0,2.052.084,2.375-.678" transform="translate(-3.162 -4.221)" fill="#b3d0ff"/>
              <path id="Path_894843" data-name="Path 894843" d="M24.638,35.734c-.416.636-1.526,2.194-2.424,1.557-.121-.086-.012-.293.109-.206.745.528,1.761-.926,2.111-1.462.081-.125.286-.015.2.111" transform="translate(-2.463 -3.551)" fill="#4463cd"/>
              <path id="Path_894844" data-name="Path 894844" d="M30.585,35.432A2.667,2.667,0,0,1,32.459,36.9c.093.188.372.023.279-.166A2.877,2.877,0,0,0,30.585,35.1c-.206-.025-.2.3,0,.327" transform="translate(-3.381 -3.505)" fill="#4463cd"/>
              <path id="Path_894845" data-name="Path 894845" d="M28.695,22c-.717-1.985-4.257-1.2-6.675-.706-1.63.332-2.52,1.139-2.293,4.173.09,1.193.188,4.84.843,6.651.118.325.617.6.884.819,1.531,1.252,9.411-.482,9.011-2.328A34.1,34.1,0,0,0,28.695,22" transform="translate(-2.188 -2.068)" fill="#fc636b"/>
              <path id="Path_894846" data-name="Path 894846" d="M22.8,18.333s2.534.423,2.4.637.134.62.16,1.024a2.319,2.319,0,0,0,.747,1.314c.285.3-.178.691-.6.794-1.825.441-3.02-.2-2.66-.822a3.243,3.243,0,0,0-.051-2.948" transform="translate(-2.532 -1.831)" fill="#8b482a"/>
              <path id="Path_894847" data-name="Path 894847" d="M25.338,19.991c-.026-.4-.291-.811-.16-1.025s-2.6-.67-2.6-.67a1.984,1.984,0,0,1,.532,1.041A4.932,4.932,0,0,0,25.665,20.8a3.627,3.627,0,0,1-.326-.809" transform="translate(-2.508 -1.827)" fill="#612c13"/>
              <path id="Path_894848" data-name="Path 894848" d="M25.116,14.912c1.023.707,1.989,3.274,1.016,4.567-.534.71-2.633.087-3.672-1.351a3.247,3.247,0,0,1-.038-2.506,2.015,2.015,0,0,1,2.694-.709" transform="translate(-2.467 -1.461)" fill="#8b482a"/>
              <path id="Path_894849" data-name="Path 894849" d="M26.286,16.822c.006.16-.3-1.567-1.268-1.637-.395-.029-.286.385-.74.442-.387.049-1.59-.687-1.029,1.637.027.112-.073.249-.119.354-.058.127.154.4.157.543s-.417-.259-.4-.125c.022.2.4.757.112.85-.342.11-.837-1.035-1.041-2.119-.052-.279-.337-1.36-.365-1.6-.06-.5,2.339-1.372,3.407-1.423.63-.03.5.854.734,1.389a4.689,4.689,0,0,1,.555,1.686" transform="translate(-2.399 -1.373)" fill="#53424d"/>
              <path id="Path_894850" data-name="Path 894850" d="M23.6,18.237s-.743-.6-1.127-.4.22,1.259,1.023,1.069.331-.51.1-.672" transform="translate(-2.484 -1.777)" fill="#8b482a"/>
              <path id="Path_894851" data-name="Path 894851" d="M25.727,14.739a.332.332,0,1,0,.316-.353.334.334,0,0,0-.316.353" transform="translate(-2.859 -1.436)" fill="#53424d"/>
              <path id="Path_894852" data-name="Path 894852" d="M24.9,13.92a.624.624,0,1,0,.593-.663.627.627,0,0,0-.593.663" transform="translate(-2.767 -1.324)" fill="#53424d"/>
              <path id="Path_894853" data-name="Path 894853" d="M23.611,14.435a.836.836,0,0,0,1.191-.059.862.862,0,0,0-.058-1.206.836.836,0,0,0-1.191.059.862.862,0,0,0,.058,1.206" transform="translate(-2.593 -1.293)" fill="#53424d"/>
              <path id="Path_894854" data-name="Path 894854" d="M22.321,14.2a.6.6,0,1,0,.566-.632.6.6,0,0,0-.566.632" transform="translate(-2.48 -1.355)" fill="#53424d"/>
              <path id="Path_894855" data-name="Path 894855" d="M21.03,15.083a.742.742,0,1,0,.706-.787.746.746,0,0,0-.706.787" transform="translate(-2.337 -1.427)" fill="#53424d"/>
              <path id="Path_894856" data-name="Path 894856" d="M21.051,16.1a.538.538,0,1,0,.511-.571.54.54,0,0,0-.511.571" transform="translate(-2.339 -1.551)" fill="#53424d"/>
              <path id="Path_894857" data-name="Path 894857" d="M21.459,16.686a.536.536,0,1,0,.509-.569.539.539,0,0,0-.509.569" transform="translate(-2.384 -1.609)" fill="#53424d"/>
              <path id="Path_894858" data-name="Path 894858" d="M26.162,15.265a.34.34,0,1,0,.324-.361.341.341,0,0,0-.324.361" transform="translate(-2.907 -1.488)" fill="#53424d"/>
              <path id="Path_894859" data-name="Path 894859" d="M21.464,17.456a.45.45,0,1,0,.428-.477.452.452,0,0,0-.428.477" transform="translate(-2.385 -1.695)" fill="#53424d"/>
              <path id="Path_894860" data-name="Path 894860" d="M24.385,17.766c-.019-.014.022.013.029.016a.458.458,0,0,0,.1.04c.138.032.212-.053.26-.168.031-.072.141-.014.111.057a.365.365,0,0,1-.586.145c-.065-.046.02-.134.084-.089" transform="translate(-2.698 -1.759)" fill="#1e100c"/>
              <path id="Path_894861" data-name="Path 894861" d="M25.9,17.446a.438.438,0,0,0,.106.093c.129.077.216,0,.281-.113.038-.068.149-.013.111.057-.077.137-.2.253-.371.2a.512.512,0,0,1-.232-.17c-.05-.062.055-.127.1-.066" transform="translate(-2.865 -1.737)" fill="#1e100c"/>
              <path id="Path_894862" data-name="Path 894862" d="M26.155,16.662a.369.369,0,0,0-.469.2c-.045.086-.172.005-.127-.081a.511.511,0,0,1,.642-.262c.091.032.046.176-.045.145" transform="translate(-2.839 -1.646)" fill="#612c13"/>
              <path id="Path_894863" data-name="Path 894863" d="M24.742,17.047a.368.368,0,0,0-.5.062c-.067.07-.167-.042-.1-.113a.508.508,0,0,1,.687-.077c.08.055,0,.183-.082.127" transform="translate(-2.68 -1.679)" fill="#612c13"/>
              <path id="Path_894864" data-name="Path 894864" d="M25.391,17.256a.772.772,0,0,0-.029.42c.053.2.269.288.385.451.159.225-.006.354-.273.424-.064.017-.093-.067-.029-.083.6-.158-.088-.482-.173-.736a.815.815,0,0,1,.019-.5c.017-.053.119-.032.1.022" transform="translate(-2.805 -1.718)" fill="#612c13"/>
              <path id="Path_894865" data-name="Path 894865" d="M25.169,19.1s-.039.4.287.408.372-.346.372-.346Z" transform="translate(-2.797 -1.907)" fill="#faffff"/>
              <path id="Path_894866" data-name="Path 894866" d="M24.03,18.76a.291.291,0,0,0,.364.194.3.3,0,0,0,.191-.369.29.29,0,0,0-.364-.194.3.3,0,0,0-.191.369" transform="translate(-2.669 -1.835)" fill="#612c13"/>
              <path id="Path_894867" data-name="Path 894867" d="M26.624,18.127a.292.292,0,0,0-.415.036.3.3,0,0,0,.036.42.292.292,0,0,0,.415-.036.3.3,0,0,0-.036-.42" transform="translate(-2.905 -1.803)" fill="#612c13"/>
              <path id="Path_894868" data-name="Path 894868" d="M53.684,19.7c3.607-5.919,1.563-13.821-4.566-17.652A12.653,12.653,0,0,0,31.49,5.829,12.544,12.544,0,0,0,30.9,17.585,1.635,1.635,0,0,1,30.78,19.1l-1.95,3.2a3.917,3.917,0,0,0,1.247,5.334L35.5,31.029a3.81,3.81,0,0,0,5.268-1.263L42.9,26.275a1.6,1.6,0,0,1,1.227-.782,12.2,12.2,0,0,0,9.561-5.79" transform="translate(-3.141 0)" fill="#ffc811"/>
              <path id="Path_894869" data-name="Path 894869" d="M28.762,29.381l8.1,5.062s-4.176,8.423-9.137,6.919-.016-10.173,1.04-11.98" transform="translate(-2.839 -2.934)" fill="#5969b2"/>
              <path id="Path_894870" data-name="Path 894870" d="M36.086,36.561,27.574,31.24a.375.375,0,0,1-.12-.509.365.365,0,0,1,.5-.122L36.47,35.93a.374.374,0,0,1,.118.51.362.362,0,0,1-.5.121" transform="translate(-3.045 -3.051)" fill="#4b5c9b"/>
              <path id="Path_894871" data-name="Path 894871" d="M35.22,37.962l-8.512-5.321a.376.376,0,0,1-.12-.51.365.365,0,0,1,.5-.121L35.6,37.331a.376.376,0,0,1,.12.51.364.364,0,0,1-.5.121" transform="translate(-2.949 -3.19)" fill="#4b5c9b"/>
              <path id="Path_894872" data-name="Path 894872" d="M34.356,39.364l-8.512-5.321a.374.374,0,0,1-.12-.509.364.364,0,0,1,.5-.121l8.512,5.32a.373.373,0,0,1,.118.51.362.362,0,0,1-.5.121" transform="translate(-2.852 -3.331)" fill="#4b5c9b"/>
              <path id="Path_894873" data-name="Path 894873" d="M33.1,40.516l-7.652-4.784a.375.375,0,0,1-.12-.51.365.365,0,0,1,.5-.121l7.652,4.783a.375.375,0,0,1,.12.51.364.364,0,0,1-.5.121" transform="translate(-2.808 -3.499)" fill="#4b5c9b"/>
              <path id="Path_894874" data-name="Path 894874" d="M31.954,41.739l-6.877-4.3a.374.374,0,0,1-.119-.509.364.364,0,0,1,.5-.121l6.878,4.3a.375.375,0,0,1,.118.51.363.363,0,0,1-.5.121" transform="translate(-2.767 -3.67)" fill="#4b5c9b"/>
              <path id="Path_894875" data-name="Path 894875" d="M30.414,42.714l-5.5-3.44a.373.373,0,0,1-.119-.509.364.364,0,0,1,.5-.121l5.5,3.439a.375.375,0,0,1,.119.51.363.363,0,0,1-.5.121" transform="translate(-2.749 -3.853)" fill="#4b5c9b"/>
              <g id="Group_1117109" data-name="Group 1117109" transform="translate(25.122 14.653)" opacity="0.21" style="mix-blend-mode: overlay;isolation: isolate">
                <g id="Group_1117108" data-name="Group 1117108">
                  <g id="Group_1117107" data-name="Group 1117107" clip-path="url(#clip-path-5)">
                    <path id="Path_894876" data-name="Path 894876" d="M55.382,16.278a12.019,12.019,0,0,1-.809,1.59c-4.164,6.831-14.216,8.2-22.451,3.049-.389-.244-.764-.5-1.132-.763a1.714,1.714,0,0,1-.211.577l-1.949,3.2a3.917,3.917,0,0,0,1.246,5.334l5.424,3.39a3.811,3.811,0,0,0,5.268-1.263L42.9,27.9a1.6,1.6,0,0,1,1.227-.783,12.1,12.1,0,0,0,11.259-10.84" transform="translate(-28.263 -16.278)"/>
                  </g>
                </g>
              </g>
              <path id="Path_894877" data-name="Path 894877" d="M19.1,29.288c-.017.311-1.172,3.51-.5,4.3.484.573,2.627-.462,2.627-.462s-.8-.632.416-3.133c1.028-2.106-2.54-.706-2.54-.706" transform="translate(-2.044 -2.879)" fill="#8b482a"/>
              <path id="Path_894878" data-name="Path 894878" d="M18.8,34.168c1.214,1.215,5.947,3.185,5.947,3.185l-.185-1.125-4.547-3.739s-2.428.465-1.215,1.68" transform="translate(-2.051 -3.244)" fill="#8b482a"/>
              <path id="Path_894879" data-name="Path 894879" d="M25.046,36.28a1.613,1.613,0,0,0,.335-.176,2,2,0,0,1,.675-.158c.128-.014.381-.2.5-.075.188.2-.315.385-.408.464a.275.275,0,0,0-.1.3.345.345,0,0,0,.163.146,6.775,6.775,0,0,0,.65.276c.114.046.222.1.332.152a1.33,1.33,0,0,1,.276.119.127.127,0,0,1,.008.193c-.057.043-.11,0-.168-.018-.131-.036-.262-.068-.393-.1-.029-.006-.156-.057-.182-.036-.126.1.212.239.265.264a.731.731,0,0,1,.346.264.069.069,0,0,1,.012.057c-.012.03-.052.032-.083.027-.183-.03-.351-.126-.535-.151a.084.084,0,0,0-.083.021c-.071.1.131.237.192.287.04.032.085.076.071.125a.084.084,0,0,1-.076.053.251.251,0,0,1-.1-.02,2.6,2.6,0,0,1-.276-.1c-.043-.022-.161-.1-.2-.045a.045.045,0,0,0-.006.037.255.255,0,0,0,.075.114.125.125,0,0,1,.037.125c-.024.052-.1.055-.152.042a2.094,2.094,0,0,1-.56-.257q-.283-.159-.55-.345c-.335-.231-.623-.537-.978-.736a.7.7,0,0,1-.152-.1.476.476,0,0,1-.124-.32.759.759,0,0,1,.228-.606c.052-.047.151-.15.221-.137.051.011.116.086.158.117a1.719,1.719,0,0,0,.188.122.666.666,0,0,0,.4.077" transform="translate(-2.65 -3.577)" fill="#8b482a"/>
              <path id="Path_894880" data-name="Path 894880" d="M22.552,24.242c.124-1.2-.2-2.379-1.206-2.54a2.325,2.325,0,0,0-1.854,1.293,14.943,14.943,0,0,0-1.177,7.226c.136.925,2.364,1.779,2.969.3a24.849,24.849,0,0,0,1.268-6.275" transform="translate(-2.025 -2.166)" fill="#ec3b59"/>
              <path id="Path_894881" data-name="Path 894881" d="M61.081,33.773s3.213-1.583,3.844-3.353a2.152,2.152,0,0,0-.644-2.608s-2.4,3.661-4.276,4.384,1.075,1.577,1.075,1.577" transform="translate(-6.598 -2.777)" fill="#fbb99d"/>
              <path id="Path_894882" data-name="Path 894882" d="M57.836,33.749c-.028.056-.41.1-.468.115a6.842,6.842,0,0,1-1.536.341,1.454,1.454,0,0,1-.725-.164,1.835,1.835,0,0,1-.35-.266c-.043-.04-.1-.082-.15-.06a.119.119,0,0,0-.056.129c.015.126.121.218.189.325a.417.417,0,0,1,.089.275c-.022.079-.128.128-.2.151a2.4,2.4,0,0,1-.692.1c-.188.007-.406-.023-.423.223a.642.642,0,0,1-.084.23.162.162,0,0,0-.013.122.286.286,0,0,0,.029.05.322.322,0,0,1,.048.119.251.251,0,0,0,.02.085.126.126,0,0,0,.089.057,2.3,2.3,0,0,0,.274.037c.108.006.214.03.323.029.09,0,.173-.019.264-.019a11.282,11.282,0,0,0,1.279-.144,7.857,7.857,0,0,0,1.243-.4,5.863,5.863,0,0,0,.847-1.333" transform="translate(-5.935 -3.366)" fill="#fbb99d"/>
              <path id="Path_894883" data-name="Path 894883" d="M61.207,33.925c-1.214.866-5.169,1.4-5.169,1.4l.4-1.1L60.687,32.1s1.734.963.52,1.83" transform="translate(-6.227 -3.204)" fill="#fbb99d"/>
              <path id="Path_894884" data-name="Path 894884" d="M64.4,24.709c2.708.559,1.32,6.075,1.32,6.075l-2.98-.051s-.98-6.569,1.66-6.024" transform="translate(-6.952 -2.464)" fill="#e08b03"/>
              <path id="Path_894885" data-name="Path 894885" d="M55.319,59.141a8.151,8.151,0,0,1,.132,1.871c-.374.765-3.214,1.086-4.2.637-.139-.063-.292-.3-.026-.631s1.837-.838,1.686-1.5,2.412-.374,2.412-.374" transform="translate(-5.675 -5.898)" fill="#ffa60e"/>
              <path id="Path_894886" data-name="Path 894886" d="M57.5,35.606,62.1,37.838A40.131,40.131,0,0,1,59.473,44.1l.012,0-1.692,3.248a3.457,3.457,0,0,0-.35,1.086l-1.217,8.216a1.18,1.18,0,0,1-.609.889,3.547,3.547,0,0,1-2.673.262c-1.659-.519-.513-10.58-.128-11.813a62.035,62.035,0,0,1,2.471-5.914Z" transform="translate(-5.786 -3.555)" fill="#050c68"/>
              <path id="Path_894887" data-name="Path 894887" d="M69.063,58.765s.98,1.292.944,1.582a31.539,31.539,0,0,1-3.3,2.808.454.454,0,0,1-.3-.544c.081-.434,1.2-1.721.771-2.229s1.892-1.618,1.892-1.618" transform="translate(-7.377 -5.867)" fill="#e0880a"/>
              <path id="Path_894888" data-name="Path 894888" d="M69.831,60.256c-.7-.092-3.616,2.65-3.252,2.971.54.474,2.576-.962,3.145-1.835.634-.973.107-1.135.107-1.135" transform="translate(-7.395 -6.016)" fill="#ffa60e"/>
              <path id="Path_894889" data-name="Path 894889" d="M60.916,37.2l4.669-.622a40.538,40.538,0,0,1,.67,6.767l.012,0v3.724a3.487,3.487,0,0,0,.188,1.132l2.672,7.806A1.26,1.26,0,0,1,69,57.1a3.809,3.809,0,0,1-2.212,1.637c-1.682.421-5.255-8.956-5.479-10.234a64.071,64.071,0,0,1-.532-6.46Z" transform="translate(-6.753 -3.652)" fill="#050c68"/>
              <path id="Path_894890" data-name="Path 894890" d="M64.641,25.9c-.492-2.182-3.316-1.52-5.243-1.116-1.3.273-2.033,1.1-1.968,4.387.028,1.438-.5,4.961.132,6.622,0,0,2.7,1.684,7.629-.433a33.317,33.317,0,0,0-.551-9.46" transform="translate(-6.362 -2.433)" fill="#feb801"/>
              <path id="Path_894891" data-name="Path 894891" d="M51.227,27.979s4.32,1.156,5.924.275a2.109,2.109,0,0,0,1.211-2.337s-4.177,1-6.02.291-1.114,1.772-1.114,1.772" transform="translate(-5.677 -2.588)" fill="#fbb99d"/>
              <path id="Path_894892" data-name="Path 894892" d="M60.537,26.661c-.088,2.746-5.589,2.3-5.589,2.3l-.443-2.929s6.117-2.043,6.032.634" transform="translate(-6.057 -2.524)" fill="#e08b03"/>
              <path id="Path_894893" data-name="Path 894893" d="M49.976,24.167c-.059-.014-.191-.372-.218-.425a6.85,6.85,0,0,1-.681-1.4,1.474,1.474,0,0,1-.016-.738,1.83,1.83,0,0,1,.17-.4c.027-.05.053-.113.021-.158a.115.115,0,0,0-.134-.024c-.116.044-.177.168-.262.259-.053.057-.152.153-.237.149s-.15-.094-.188-.154a2.429,2.429,0,0,1-.258-.644c-.052-.18-.075-.4-.31-.356a.624.624,0,0,1-.237-.028.153.153,0,0,0-.116.015.291.291,0,0,0-.041.041.3.3,0,0,1-.1.074.278.278,0,0,0-.074.04.127.127,0,0,0-.033.1,2.171,2.171,0,0,0,.029.272c.02.106.022.215.048.32.022.086.059.162.08.249a11.413,11.413,0,0,0,.435,1.2,7.933,7.933,0,0,0,.671,1.106,5.607,5.607,0,0,0,1.453.506" transform="translate(-5.251 -2.021)" fill="#fbb99d"/>
              <path id="Path_894894" data-name="Path 894894" d="M50.453,27.477c-1.1-.97-2.526-4.665-2.526-4.665l1.129.134,3,3.6s-.5,1.9-1.6.93" transform="translate(-5.326 -2.278)" fill="#fbb99d"/>
              <path id="Path_894895" data-name="Path 894895" d="M62.992,24.8c0,.294-.6.533-1.332.533s-1.333-.239-1.333-.533.6-.533,1.333-.533,1.332.238,1.332.533" transform="translate(-6.703 -2.423)" fill="#fbb99d"/>
              <path id="Path_894896" data-name="Path 894896" d="M60.559,23.081s.513.61-.226,1.516c0,0,1.736,1.048,2.66-.009a2.724,2.724,0,0,1-.279-1.892Z" transform="translate(-6.704 -2.266)" fill="#fbb99d"/>
              <path id="Path_894897" data-name="Path 894897" d="M59.668,18.234a8.525,8.525,0,0,0-.457,2.283c-.072,1.732.418,2.716,2.482,2.146,2.028-.56-1.035-4.736-2.025-4.429" transform="translate(-6.579 -1.819)" fill="#fbb99d"/>
              <path id="Path_894898" data-name="Path 894898" d="M60.7,23.312a4.945,4.945,0,0,0,1.007-.119.6.6,0,0,0,.177.166,2.1,2.1,0,0,1-1.184-.047" transform="translate(-6.745 -2.316)" fill="#dc8162"/>
              <path id="Path_894899" data-name="Path 894899" d="M60.526,20.646c.459.244.529,2.034,1.468,2.16,1.333.176,2.357-2.292,2.2-3.566-.156-1.249-.629-1.827-2.164-2.155-1.412-.3-3.005.282-2.885,1.141a1.029,1.029,0,0,0,.606.8c.449.239-.246,1.077.776,1.62" transform="translate(-6.571 -1.698)" fill="#53424d"/>
              <path id="Path_894900" data-name="Path 894900" d="M60.872,21.759s.774-.814.446-1.181c-.467-.523-.985.68-.985.68Z" transform="translate(-6.704 -2.042)" fill="#fbb99d"/>
              <path id="Path_894901" data-name="Path 894901" d="M57.222,37.387s5.039,1.044,8.19-.564l-.215-.859a14.425,14.425,0,0,1-7.795.43Z" transform="translate(-6.358 -3.591)" fill="#6c66af"/>
              <path id="Path_894902" data-name="Path 894902" d="M60,36.617h.449l.106,1.436h-.739Z" transform="translate(-6.647 -3.656)" fill="#5b5196"/>
              <path id="Path_894903" data-name="Path 894903" d="M63.546,36.421l.324-.109.556,1.317-.667.223Z" transform="translate(-7.061 -3.625)" fill="#5b5196"/>
              <path id="Path_894904" data-name="Path 894904" d="M58.25,37.951c-.29.782-1.1,2.719-2.212,2.262-.149-.061-.084-.31.068-.248.923.38,1.656-1.423,1.9-2.083.057-.153.3-.086.244.068" transform="translate(-6.218 -3.774)" fill="#6c66af"/>
            </g>
          </g>
        </g>
      </g>
    </g>
  </g>
</svg>
