<svg xmlns="http://www.w3.org/2000/svg" xmlns:xlink="http://www.w3.org/1999/xlink" width="154.657" height="155" viewBox="0 0 154.657 155">
  <defs>
    <clipPath id="clip-path">
      <rect id="Rectangle_401492" data-name="Rectangle 401492" width="147.973" height="147.974" transform="translate(0 0)" fill="#fff" stroke="#707070" stroke-width="1"/>
    </clipPath>
    <clipPath id="clip-path-2">
      <rect id="Rectangle_406251" data-name="Rectangle 406251" width="154.628" height="154.628" fill="#1e2ad5"/>
    </clipPath>
    <clipPath id="clip-path-3">
      <rect id="Rectangle_401492-2" data-name="Rectangle 401492" width="146.462" height="146.463" transform="translate(0 0)" fill="#fffceb" stroke="#707070" stroke-width="1"/>
    </clipPath>
    <clipPath id="clip-path-4">
      <rect id="Rectangle_407237" data-name="Rectangle 407237" width="100.877" height="100.877" transform="translate(-0.072 0.403)" fill="#fff" stroke="#707070" stroke-width="1"/>
    </clipPath>
    <clipPath id="clip-path-5">
      <rect id="Rectangle_407354" data-name="Rectangle 407354" width="91.822" height="91.726" fill="#fff"/>
    </clipPath>
  </defs>
  <g id="Group_1117091" data-name="Group 1117091" transform="translate(-313.343 -7637.899)">
    <g id="Group_1115379" data-name="Group 1115379" transform="translate(313.343 7637.899)">
      <g id="Group_1115374" data-name="Group 1115374" transform="translate(0)">
        <g id="Group_1113673" data-name="Group 1113673">
          <g id="Group_1113672" data-name="Group 1113672" clip-path="url(#clip-path-2)">
            <path id="Path_886855" data-name="Path 886855" d="M114.112,135.2C192.124,127.4,148.261-7.74,70.814.349c-32.847,3.43-59.8,29.1-68.027,62.175-6.978,28.052-.778,59.9,17.772,81.308,24.516,28.287,57.856-5.055,93.553-8.628" transform="translate(0 0)" fill="#1e2ad5"/>
          </g>
        </g>
      </g>
      <g id="Group_1115378" data-name="Group 1115378" transform="translate(108.556 106.432)">
        <path id="Path_886575" data-name="Path 886575" d="M2.542.088A2.2,2.2,0,0,0,.008,1.9a2.168,2.168,0,0,0,2.13,2.244,2.164,2.164,0,0,0,2.1-2.274C4.1.724,3.664-.314,2.542.088" transform="translate(26.569 0) rotate(19)" fill="#ffc811"/>
        <path id="Path_886576" data-name="Path 886576" d="M3.686.082C-1.068-.955-.089,8.122.519,10.4a3.517,3.517,0,0,0,.512,1.222,2.523,2.523,0,0,0,2.7.738,4.163,4.163,0,0,0,2.227-1.848C7.685,7.763,8.082,1.042,3.686.082" transform="translate(15.684 7.783) rotate(19)" fill="#ffc811"/>
        <path id="Path_886577" data-name="Path 886577" d="M3.057,4.969c3.23-1.508.332-6.8-2.179-4.316A3.181,3.181,0,0,0,0,2.992,2.516,2.516,0,0,0,.278,4.146a2.217,2.217,0,0,0,2.779.823" transform="translate(30.874 7.907) rotate(19)" fill="#ffc811"/>
        <path id="Path_886578" data-name="Path 886578" d="M4.339,8.041C5.867,6.648,7.79,2.743,6.123.92,4.56-.788,2.022.088,1.081,1.87a11.556,11.556,0,0,0-1,3.813,2.675,2.675,0,0,0,.2,1.9,2.815,2.815,0,0,0,.7.646,3.167,3.167,0,0,0,1.228.638,2.614,2.614,0,0,0,2.132-.827" transform="translate(22.817 19.098) rotate(19)" fill="#ffc811"/>
        <path id="Path_886579" data-name="Path 886579" d="M1.155,4.96a2.107,2.107,0,0,0,2.634-.236C6.069,2.448,2.073-1.955.333.972a3.19,3.19,0,0,0,0,2.838A2.713,2.713,0,0,0,1.155,4.96" transform="translate(39.904 18.244) rotate(19)" fill="#ffc811"/>
        <path id="Path_886580" data-name="Path 886580" d="M.03.937a1.9,1.9,0,0,0,.49,1.542,2.115,2.115,0,0,0,.824.656A1.542,1.542,0,0,0,2.95,2.825C4.813,1,.527-1.331.03.937" transform="translate(39.044 27.293) rotate(19)" fill="#ffc811"/>
        <path id="Path_886581" data-name="Path 886581" d="M1.106.868A4.263,4.263,0,0,0,.126,3.23,6.015,6.015,0,0,0,.3,6.4a2.967,2.967,0,0,0,2.438,1.93A3.137,3.137,0,0,0,5.666,6.139C6.48,3.877,4.14-2.254,1.106.868" transform="translate(30.668 31.315) rotate(19)" fill="#ffc811"/>
        <path id="Path_886582" data-name="Path 886582" d="M.683,3.309a2.05,2.05,0,0,0,2.378.046C5.706,1.455,1.642-1.655.193,1.074a1.83,1.83,0,0,0,.49,2.235" transform="translate(10.056 22.923) rotate(19)" fill="#ffc811"/>
        <path id="Path_886583" data-name="Path 886583" d="M2.075.206a2.679,2.679,0,0,0-1.306.843A3.471,3.471,0,0,0,.192,2.767,21.977,21.977,0,0,0,0,5.147,5.312,5.312,0,0,0,.39,7.618,2.3,2.3,0,0,0,2.414,8.98,2.706,2.706,0,0,0,4.389,7.739C5.888,5.7,6.7-1.282,2.075.206" transform="translate(2.924 28.688) rotate(19)" fill="#ffc811"/>
        <path id="Path_886584" data-name="Path 886584" d="M5.394.881C4.264.109,2.333-.461,1.261.522.308,1.4.093,3.294.022,4.476a6.226,6.226,0,0,0,.621,3.5,3.206,3.206,0,0,0,3.05,1.678A3.479,3.479,0,0,0,5.43,8.812C7.841,6.781,8.136,2.751,5.394.881" transform="translate(14.872 37.027) rotate(19)" fill="#ffc811"/>
      </g>
    </g>
    <g id="Group_1115380" data-name="Group 1115380" transform="translate(317.426 7641.889)">
      <g id="Mask_Group_1098697-2" data-name="Mask Group 1098697" transform="translate(0 0)" clip-path="url(#clip-path-3)">
        <g id="Mask_Group_1113664" data-name="Mask Group 1113664" transform="translate(21.646 21.675)" clip-path="url(#clip-path-4)">
          <g id="Group_1117095" data-name="Group 1117095" transform="translate(4.928 4.403)">
            <g id="Group_1117094" data-name="Group 1117094" clip-path="url(#clip-path-5)">
              <path id="Path_894735" data-name="Path 894735" d="M81.2,165.471h13.3V159.5h2.985v5.97h8.005a2.663,2.663,0,0,1,.944,1.227,56.874,56.874,0,0,1,.019,8.42c-.075.839-.24,1.826-1.24,2.017l-71.11.022a1.638,1.638,0,0,1-1.605-.837,77.748,77.748,0,0,1-.136-9.621,2.661,2.661,0,0,1,.944-1.227H41.3V159.5h2.985v5.97h13.3v-7.463c0-.115.717-1.85.862-2.123a7.233,7.233,0,0,1,5.775-3.723c2.41-.18,9.69-.318,11.766.2,2,.5,5.207,3.569,5.207,5.648ZM67.9,155.159H63.692c-.7,0-3.121,2.417-3.121,3.121v7.191H78.21V158.28c0-.7-2.422-3.121-3.121-3.121H70.883v7.327H67.9Zm-17.639,13.3H35.334v5.7H50.259Zm35.278,0H53.244v5.7H85.537Zm17.91,0H88.523v5.7h14.925Z" transform="translate(-23.509 -110.752)" fill="#fff"/>
              <path id="Path_894736" data-name="Path 894736" d="M37.328,312.044c.651-1.769,3.523-2.8,5.3-2.981a37.7,37.7,0,0,1,7.2.119,8.622,8.622,0,0,1,5.007,2.859,7.621,7.621,0,0,1,5.007-2.859c4-.576,9.936-.612,12.633,2.859a8.624,8.624,0,0,1,5.007-2.859c4.558-.716,11.3-.652,13.549,4.117,1.27,2.69,1.3,3.869-2.111,3.332-.558-5.233-6.115-4.948-10.213-4.6-2.678.23-4.606,1.826-4.751,4.611l-2.972.011a4.234,4.234,0,0,0-2.717-4.2c-1.69-.675-7.5-.65-9.22,0-1.969.75-2.55,2.151-2.972,4.084l-2.567.134c-.521-1.59-.929-3.158-2.536-4.024-1.507-.812-6.013-.781-7.818-.618a4.829,4.829,0,0,0-4.764,4.6l-2.835-.231a4.276,4.276,0,0,0-2.651-3.862c-1.725-.748-7.415-.751-9.214-.159a4.2,4.2,0,0,0-2.913,4.278l-2.827.017a5.684,5.684,0,0,0-2.677-4.144c-1.375-.671-6.011-.646-7.668-.5-2.83.256-4.33,1.846-4.764,4.6-2.55.03-3.332.62-2.556-2.149,1.659-5.919,8.951-6.092,13.994-5.3a8.622,8.622,0,0,1,5.007,2.859c2.633-3.371,8.01-3.356,11.938-2.978a8.081,8.081,0,0,1,5.709,2.977Z" transform="translate(0 -225.033)" fill="#fff"/>
              <path id="Path_894737" data-name="Path 894737" d="M236.865,32.467V44.815c0,.791-2.167,1.377-2.726.283L223.566,31.224,233.225,8.6l-.131-.433a4.344,4.344,0,0,1,.05-7.512c5.159-2.93,9.588,4.671,4.386,7.659l6.6,21.907.022,1.519a1.955,1.955,0,0,1-.906.723Zm-.337-26.931c1.214-1.214-.6-3.541-2.093-2.229-1.592,1.4.791,3.532,2.093,2.229m4.136,23.946-5.7-17.639-8.14,18.868,7.051,9.083V30.7a2.65,2.65,0,0,1,1.221-1.221Z" transform="translate(-162.897 0)" fill="#fff"/>
              <path id="Path_894738" data-name="Path 894738" d="M46.017,32.467H39.64a1.955,1.955,0,0,1-.906-.723l.022-1.519,6.6-21.907C40.15,5.33,44.579-2.27,49.738.66a4.365,4.365,0,0,1,1.233,6.5c-.426.547-1.355.931-1.313,1.441l9.659,22.62L48.743,45.1c-.559,1.093-2.726.507-2.726-.283Zm.337-26.931c1.214,1.214,3.541-.6,2.229-2.093-1.4-1.592-3.532.791-2.229,2.093M42.218,29.482h5.563A2.65,2.65,0,0,1,49,30.7v9.091l7.051-9.083-8.14-18.868Z" transform="translate(-28.223 0)" fill="#fff"/>
              <path id="Path_894739" data-name="Path 894739" d="M154.107,104.978c-7.545,7.159-18.043-5.11-9.537-11.3,7.36-5.356,16.059,5.112,9.537,11.3m-6.217-9.607c-4.578.77-4.305,7.926-.047,8.6,7.267,1.149,7.227-9.808.047-8.6" transform="translate(-103.03 -67.179)" fill="#fff"/>
              <path id="Path_894740" data-name="Path 894740" d="M283.845,260.767c7.446-.737,8.8,11.232,1,11.886s-8.9-11.105-1-11.886m-1.75,7.991c2.588,2.754,6.744-1.017,4.526-3.847-2.566-3.272-7.2,1-4.526,3.847" transform="translate(-202.878 -189.979)" fill="#fff"/>
              <path id="Path_894741" data-name="Path 894741" d="M17.933,262.983c2.714-2.933,8.049-2.347,9.722,1.352a5.961,5.961,0,0,1-9.138,7.238,6.123,6.123,0,0,1-.584-8.59m6.6,6.055c2.676-2.848-1.96-7.119-4.526-3.847-2.218,2.83,1.937,6.6,4.526,3.847" transform="translate(-11.984 -190.259)" fill="#fff"/>
              <path id="Path_894742" data-name="Path 894742" d="M152.946,260.765c7.554-.748,8.764,11.221,1.005,11.886-7.705.66-8.883-11.106-1.005-11.886m2.677,7.989c2.577-2.707-1.878-7.223-4.524-3.845-2.272,2.9,1.9,6.6,4.524,3.845" transform="translate(-107.528 -189.976)" fill="#fff"/>
              <path id="Path_894743" data-name="Path 894743" d="M91.7,270.988c-5.751,5.751-14.325-3.571-8.05-8.729,5.838-4.8,13.255,3.525,8.05,8.729m-6.325-6.325a2.975,2.975,0,0,0,3.992,4.4c3.172-2.495-1.089-7.3-3.992-4.4" transform="translate(-59.347 -190.042)" fill="#fff"/>
              <path id="Path_894744" data-name="Path 894744" d="M214.2,270.988c-5.2-5.2,2.212-13.528,8.05-8.729,6.274,5.158-2.3,14.48-8.05,8.729m6.325-6.325c-2.9-2.9-7.164,1.9-3.992,4.4a2.975,2.975,0,0,0,3.992-4.4" transform="translate(-154.786 -190.042)" fill="#fff"/>
            </g>
          </g>
        </g>
      </g>
    </g>
  </g>
</svg>
