<svg xmlns="http://www.w3.org/2000/svg" xmlns:xlink="http://www.w3.org/1999/xlink" width="99" height="99" viewBox="0 0 99 99">
  <defs>
    <clipPath id="clip-path">
      <rect id="Rectangle_401223" data-name="Rectangle 401223" width="99" height="99" transform="translate(0)" fill="#1e2ad5"/>
    </clipPath>
    <clipPath id="clip-path-2">
      <rect id="Rectangle_401223-2" data-name="Rectangle 401223" width="88.539" height="88.539" fill="#f3f9ff"/>
    </clipPath>
    <clipPath id="clip-path-3">
      <rect id="Rectangle_407374" data-name="Rectangle 407374" width="76.421" height="55.59" fill="none"/>
    </clipPath>
  </defs>
  <g id="Group_1100724" data-name="Group 1100724" transform="translate(-619.921 -5755.871)">
    <g id="Group_1100724-2" data-name="Group 1100724" transform="translate(619.921 5755.871)">
      <g id="Group_1099654" data-name="Group 1099654" transform="translate(0 0)">
        <g id="Group_1099652" data-name="Group 1099652" clip-path="url(#clip-path)">
          <path id="Path_873521" data-name="Path 873521" d="M99,77.066A22,22,0,0,1,77.066,99H21.934A22,22,0,0,1,0,77.066V21.933A22,22,0,0,1,21.934,0H77.066A22,22,0,0,1,99,21.934Z" transform="translate(0)" fill="#1e2ad5"/>
        </g>
      </g>
      <g id="Group_1099659" data-name="Group 1099659" transform="translate(4.77 5.723)">
        <g id="Group_1099652-2" data-name="Group 1099652" transform="translate(0 0)" clip-path="url(#clip-path-2)">
          <path id="Path_873521-2" data-name="Path 873521" d="M88.539,68.922A19.674,19.674,0,0,1,68.923,88.539H19.616A19.674,19.674,0,0,1,0,68.922V19.616A19.674,19.674,0,0,1,19.616,0H68.923A19.674,19.674,0,0,1,88.539,19.616Z" fill="#f3f9ff"/>
        </g>
      </g>
    </g>
    <g id="Group_1100725" data-name="Group 1100725" transform="translate(633.343 5767.871)">
      <rect id="Rectangle_401104" data-name="Rectangle 401104" width="75" height="75" transform="translate(-0.422 -0.14)" fill="none"/>
      <g id="Group_1117119" data-name="Group 1117119" transform="translate(-1.421 9.86)">
        <g id="Group_1117118" data-name="Group 1117118" transform="translate(0 0)" clip-path="url(#clip-path-3)">
          <path id="Path_895153" data-name="Path 895153" d="M39.5,51C28.823,43.932,27,46.272,17.42,50.625,7.04,55.34.745,50.977.067,43.512-1.318,28.238,19.16,34.964,16.99,18.756,15.392,6.815,20.972,1.54,28.5.29,35.943-.947,46.379,1.511,45.834,12.832c-.3,6.263,9.013,8.775,15.062,11.733,9.1,4.447,7.782,16.05,4.1,21.307C58.793,54.708,49.484,57.606,39.5,51" transform="translate(0 0)" fill="#ffe9a2"/>
          <path id="Path_895154" data-name="Path 895154" d="M76.443,61.657c2.895.7-6.084,1.634-35.161,1.4-39.455-.321-33-1.471-34.767-1.561-9.121-.463,11.936-.911,34.367-.911s34.414.8,35.561,1.074" transform="translate(-0.537 -7.502)" fill="#a9c1d8"/>
          <path id="Path_895155" data-name="Path 895155" d="M29.49,43.963a2.7,2.7,0,0,1,.29-1.2l-5.345-.031a.356.356,0,0,0-.356.353l-.095,15.536a.356.356,0,0,0,.354.359l5.086.03a2.82,2.82,0,0,1-.023-.356,2.708,2.708,0,0,1,5.416.033,2.952,2.952,0,0,1-.028.355l5.087.031a.354.354,0,0,0,.356-.353l.031-5.061a2.7,2.7,0,0,0,.034-5.408l.029-5.069a.354.354,0,0,0-.353-.357L34.631,42.8a2.707,2.707,0,1,1-5.141,1.166" transform="translate(-2.97 -5.292)" fill="#050c68"/>
          <path id="Path_895156" data-name="Path 895156" d="M46.823,53.086a2.706,2.706,0,0,1-1.2-.283v5.345a.354.354,0,0,0,.354.353l15.537.005a.356.356,0,0,0,.357-.356V53.064a2.981,2.981,0,0,1-.356.025,2.708,2.708,0,1,1,0-5.416,2.98,2.98,0,0,1,.355.026l0-5.088a.354.354,0,0,0-.356-.353l-5.062,0a2.7,2.7,0,0,0-5.407,0H45.983a.355.355,0,0,0-.356.355v5.342a2.707,2.707,0,1,1,1.2,5.135" transform="translate(-5.65 -4.903)" fill="#634419"/>
          <path id="Path_895157" data-name="Path 895157" d="M23.588,29.745a2.691,2.691,0,0,1-1.193-.308l-.108,5.344a.355.355,0,0,0,.347.361l15.534.32a.355.355,0,0,0,.364-.348l.1-5.085a2.821,2.821,0,0,1-.356.018,2.708,2.708,0,1,1,.112-5.414,2.952,2.952,0,0,1,.354.032l.105-5.086a.354.354,0,0,0-.348-.36l-5.061-.1A2.7,2.7,0,0,0,28.036,19l-5.068-.1a.355.355,0,0,0-.363.348l-.11,5.341a2.707,2.707,0,1,1,1.092,5.158" transform="translate(-2.76 -2.03)" fill="#1e2ad5"/>
          <path id="Path_895158" data-name="Path 895158" d="M66.352,20.319c-.127.13-.06-3.936.973-3.632s3.065.9,3.095,2.162.057,2.6-.7,3.133c0,0-.657-4.428-3.372-1.663" transform="translate(-8.21 -2.064)" fill="#53424d"/>
          <path id="Path_895159" data-name="Path 895159" d="M61.757,25.877c-.23-.174-3.193-1.269-3.344-2.222-.11-.691,1.924-1.6,1.924-1.6s-.042.954,2.466,1.583c2.113.53-1.046,2.241-1.046,2.241" transform="translate(-7.233 -2.731)" fill="#ffbe9e"/>
          <path id="Path_895160" data-name="Path 895160" d="M58.372,22.705c-.12-1.6,1.367-6.166,1.367-6.166l.683.808-.124,5.5s-1.8,1.457-1.926-.141" transform="translate(-7.227 -2.048)" fill="#ffbe9e"/>
          <path id="Path_895161" data-name="Path 895161" d="M60.692,17.372a1.514,1.514,0,0,1,.328-.134,1.9,1.9,0,0,0,.522-.387c.088-.083.371-.155.355-.31-.026-.254-.464-.007-.577.012a.252.252,0,0,1-.273-.109.316.316,0,0,1,0-.2,6.283,6.283,0,0,1,.2-.631c.036-.11.064-.219.094-.329a1.255,1.255,0,0,0,.084-.269.118.118,0,0,0-.131-.122c-.065.015-.066.081-.09.131-.053.115-.11.229-.168.342-.012.025-.054.145-.085.152-.148.031-.04-.3-.025-.348a.677.677,0,0,0,.025-.406.065.065,0,0,0-.033-.043c-.028-.01-.053.018-.069.044-.09.148-.124.327-.218.473-.016.024-.038.049-.066.046-.113-.009-.088-.235-.086-.31,0-.047,0-.106-.045-.125a.081.081,0,0,0-.085.023.24.24,0,0,0-.044.081,2.314,2.314,0,0,0-.1.26c-.011.042-.03.171-.09.17a.046.046,0,0,1-.03-.018.233.233,0,0,1-.035-.123c-.006-.042-.025-.09-.067-.1s-.1.036-.123.083a1.988,1.988,0,0,0-.158.555q-.059.3-.091.6c-.04.379,0,.768-.074,1.141a.666.666,0,0,0-.022.17.443.443,0,0,0,.15.281.7.7,0,0,0,.567.2c.065-.01.2-.018.231-.076a.551.551,0,0,0,.014-.183A1.642,1.642,0,0,1,60.5,17.7a.628.628,0,0,1,.188-.331" transform="translate(-7.37 -1.822)" fill="#ffbe9e"/>
          <path id="Path_895162" data-name="Path 895162" d="M67.143,26.143c.923.632,1.561,1.569,1.062,2.389a2.185,2.185,0,0,1-2.041.549,13.694,13.694,0,0,1-5.821-3.5c-.57-.654.182-2.761,1.6-2.3a22.723,22.723,0,0,1,5.205,2.86" transform="translate(-7.448 -2.875)" fill="#ec3b59"/>
          <path id="Path_895163" data-name="Path 895163" d="M83.025,57.141a7.8,7.8,0,0,1,1.256,1.234c.22.766-1.536,2.725-2.5,3.015-.135.04-.389-.033-.411-.428s.743-1.71.224-2.085,1.428-1.736,1.428-1.736" transform="translate(-10.076 -7.076)" fill="#e8a32b"/>
          <path id="Path_895164" data-name="Path 895164" d="M74.709,47.131s.015-8.649-.238-10.051A2.974,2.974,0,0,0,69.847,35c-1.365.938-.679,13.587,2.352,14.734,2.366.9,2.51-2.6,2.51-2.6" transform="translate(-8.566 -4.267)" fill="#2f7edd"/>
          <path id="Path_895165" data-name="Path 895165" d="M79.339,58.275c-2.157-1.555-8.147-7.152-8.552-9.18-.437-2.192,2.568-2.448,4.66-.38,1.356,1.341,5.888,5.941,7.03,7.274.277.323-.691,1.222-1.2,1.651-.013.011-1.311,1.085-1.935.635" transform="translate(-8.76 -5.857)" fill="#2f7edd"/>
          <path id="Path_895166" data-name="Path 895166" d="M64.157,59.675a7.8,7.8,0,0,1,.157,1.753c-.329.725-2.935,1.08-3.856.678-.128-.057-.274-.278-.036-.592s1.674-.821,1.523-1.443,2.212-.4,2.212-.4" transform="translate(-7.466 -7.385)" fill="#e8a32b"/>
          <path id="Path_895167" data-name="Path 895167" d="M64.805,45.053s4.383-4.993,5.1-6.224a2.973,2.973,0,0,0-2.172-4.581c-1.648-.171-9.4,9.855-7.758,12.745,1.251,2.2,4.831-1.94,4.831-1.94" transform="translate(-7.398 -4.241)" fill="#2f7edd"/>
          <path id="Path_895168" data-name="Path 895168" d="M60.76,58.085c-.635-2.582-1.569-10.727-.563-12.534,1.086-1.953,3.541-.2,3.795,2.731.165,1.9.633,8.34.64,10.1,0,.426-1.425.487-2.092.481-.017,0-1.595-.027-1.779-.774" transform="translate(-7.399 -5.538)" fill="#2f7edd"/>
          <path id="Path_895169" data-name="Path 895169" d="M72.325,38.177c.35.614,1.3,2.123,2.177,1.589.118-.072.029-.27-.09-.2-.73.442-1.594-.965-1.89-1.482-.068-.12-.266-.032-.2.09" transform="translate(-8.954 -4.709)" fill="#2566bb"/>
          <path id="Path_895170" data-name="Path 895170" d="M66.9,38.54c-.57.419-2.048,1.412-2.636.567-.079-.113.083-.258.163-.144.487.7,1.848-.233,2.329-.586.111-.081.257.08.144.163" transform="translate(-7.955 -4.749)" fill="#2566bb"/>
          <path id="Path_895171" data-name="Path 895171" d="M69.826,39.546a2.5,2.5,0,0,0-.254,2.208c.064.185-.229.265-.292.081a2.7,2.7,0,0,1,.329-2.5c.118-.154.335.059.217.212" transform="translate(-8.559 -4.864)" fill="#2566bb"/>
          <path id="Path_895172" data-name="Path 895172" d="M64.673,26.958c.249-1.944,3.652-1.971,5.967-2.027,1.561-.039,2.543.5,2.958,3.3.163,1.1.822,4.416.595,6.189-.041.319-.441.673-.64.925-1.144,1.45-8.716,1.522-8.729-.229a31.276,31.276,0,0,1-.15-8.155" transform="translate(-7.983 -3.087)" fill="#fc636b"/>
          <path id="Path_895173" data-name="Path 895173" d="M69.993,21.631s-2.235.824-2.08.994-.015.582.032.95a2.105,2.105,0,0,1-.452,1.313c-.209.317.281.591.684.609,1.738.077,2.717-.708,2.281-1.2a2.94,2.94,0,0,1-.464-2.661" transform="translate(-8.351 -2.679)" fill="#ffbe9e"/>
          <path id="Path_895174" data-name="Path 895174" d="M67.992,23.566c-.046-.368.124-.78-.032-.95s2.256-1.059,2.256-1.059a1.82,1.82,0,0,0-.3,1.03,4.624,4.624,0,0,1-2.091,1.794,1.92,1.92,0,0,0,.172-.816" transform="translate(-8.398 -2.669)" fill="#ff9c81"/>
          <path id="Path_895175" data-name="Path 895175" d="M67.158,18.912c-.81.815-1.246,3.294-.135,4.286.61.545,2.413-.384,3.11-1.859a2.944,2.944,0,0,0-.4-2.261,1.881,1.881,0,0,0-2.577-.166" transform="translate(-8.217 -2.287)" fill="#ffbe9e"/>
          <path id="Path_895176" data-name="Path 895176" d="M66.377,20.811c.022.145,0-1.461.871-1.695.355-.1.328.3.751.268.361-.025,1.33-.9,1.221,1.291-.005.1.109.211.169.3.074.105-.07.39-.049.517s.335-.307.344-.184c.016.188-.231.751.046.784.134.016.263-.215.347-.3a4.751,4.751,0,0,0,.71-.7,2.052,2.052,0,0,0,.308-1.078,1.932,1.932,0,0,0-.248-1.079,1.427,1.427,0,0,0-.941-.642,5.231,5.231,0,0,1-.694-.085c-.195-.063-.4-.058-.593-.121a.789.789,0,0,1-.336-.24,1.091,1.091,0,0,0-.938-.294.907.907,0,0,0-.707.659c-.043.187-.289,2.075-.279,2.217s0,.256.018.385" transform="translate(-8.217 -2.171)" fill="#53424d"/>
          <path id="Path_895177" data-name="Path 895177" d="M69.423,21.679s.573-.669.958-.555.018,1.171-.747,1.142-.389-.4-.21-.586" transform="translate(-8.565 -2.614)" fill="#ffbe9e"/>
          <path id="Path_895178" data-name="Path 895178" d="M68.568,21.558c.016-.011-.018.011-.024.014a.393.393,0,0,1-.082.032c-.113.026-.175-.042-.216-.135-.025-.058-.117-.011-.091.047a.3.3,0,0,0,.483.113c.053-.038-.017-.109-.07-.072" transform="translate(-8.439 -2.655)" fill="#201714"/>
          <path id="Path_895179" data-name="Path 895179" d="M67.3,21.3a.362.362,0,0,1-.087.076c-.105.064-.177,0-.231-.09-.032-.055-.123-.009-.091.046a.261.261,0,0,0,.306.159.415.415,0,0,0,.19-.139c.04-.051-.046-.1-.087-.053" transform="translate(-8.282 -2.633)" fill="#201714"/>
          <path id="Path_895180" data-name="Path 895180" d="M67.059,20.729a.3.3,0,0,1,.386.158c.038.069.143,0,.1-.067a.422.422,0,0,0-.529-.209.062.062,0,0,0,.039.117" transform="translate(-8.294 -2.549)" fill="#4d2f20"/>
          <path id="Path_895181" data-name="Path 895181" d="M68.236,21.038a.3.3,0,0,1,.415.046c.056.057.138-.035.082-.092a.422.422,0,0,0-.566-.057c-.065.046,0,.148.068.1" transform="translate(-8.438 -2.582)" fill="#4d2f20"/>
          <path id="Path_895182" data-name="Path 895182" d="M67.731,21.142a.632.632,0,0,1,.026.342c-.043.159-.218.235-.314.369-.13.183.009.286.229.341.052.014.076-.053.023-.067-.493-.124.068-.393.138-.6a.651.651,0,0,0-.019-.4c-.015-.043-.1-.025-.082.018" transform="translate(-8.345 -2.613)" fill="#7c4930"/>
          <path id="Path_895183" data-name="Path 895183" d="M67.491,23.081s-.257-.337.037-.53a.409.409,0,0,1,.532.1Z" transform="translate(-8.345 -2.785)" fill="#faffff"/>
          <path id="Path_895184" data-name="Path 895184" d="M68.873,22.379a.239.239,0,1,1-.159-.3.239.239,0,0,1,.159.3" transform="translate(-8.471 -2.733)" fill="#ff9c81"/>
          <path id="Path_895185" data-name="Path 895185" d="M66.617,21.815a.242.242,0,1,1-.026.341.243.243,0,0,1,.026-.341" transform="translate(-8.239 -2.694)" fill="#ff9c81"/>
          <path id="Path_895186" data-name="Path 895186" d="M53.223,16.549a2.894,2.894,0,0,0-.315-1.281l5.724-.053a.381.381,0,0,1,.383.376l.159,16.641a.381.381,0,0,1-.378.386l-5.447.05a3.21,3.21,0,0,0,.024-.38,2.9,2.9,0,1,0-5.8.056,3.18,3.18,0,0,0,.032.379l-5.449.053a.379.379,0,0,1-.382-.377l-.053-5.421a2.9,2.9,0,0,1-.056-5.791l-.051-5.429a.38.38,0,0,1,.377-.385l5.722-.054a2.9,2.9,0,1,0,5.511,1.23" transform="translate(-4.809 -1.884)" fill="#f6ae5c"/>
          <path id="Path_895187" data-name="Path 895187" d="M69.623,32.068c-.2.205-1.67,3-2.635,3.03-.7.02-1.341-2.114-1.341-2.114s.941.165,1.888-2.242c.8-2.027,2.088,1.327,2.088,1.327" transform="translate(-8.129 -3.726)" fill="#ffbe9e"/>
          <path id="Path_895188" data-name="Path 895188" d="M66.032,35.421c-1.6-.088-5.94-2.15-5.94-2.15l.889-.573,5.438.831s1.213,1.978-.387,1.892" transform="translate(-7.441 -4.049)" fill="#ffbe9e"/>
          <path id="Path_895189" data-name="Path 895189" d="M61.041,32.4a1.5,1.5,0,0,1-.091-.343,1.886,1.886,0,0,0-.316-.568c-.072-.1-.106-.387-.262-.392-.255-.007-.067.459-.062.574a.252.252,0,0,1-.142.257.315.315,0,0,1-.2-.023,6.424,6.424,0,0,1-.6-.28c-.1-.05-.208-.092-.315-.136a1.213,1.213,0,0,0-.255-.117.117.117,0,0,0-.138.114c.006.067.071.076.118.107.107.067.212.138.317.21.023.016.138.073.139.1.011.151-.3,0-.348-.019a.676.676,0,0,0-.4-.077.062.062,0,0,0-.046.028c-.013.026.011.055.034.074.136.11.308.166.441.278.022.018.044.044.039.071-.024.111-.245.057-.319.046-.047-.008-.106-.012-.131.028a.079.079,0,0,0,.012.087.244.244,0,0,0,.074.054,2.239,2.239,0,0,0,.244.128c.041.016.166.052.158.112a.046.046,0,0,1-.021.027.236.236,0,0,1-.126.018.114.114,0,0,0-.11.053c-.021.049.023.1.067.131a1.954,1.954,0,0,0,.53.229q.289.1.584.168c.371.088.761.1,1.122.221a.688.688,0,0,0,.166.043.443.443,0,0,0,.3-.112.7.7,0,0,0,.272-.536c0-.066.008-.2-.046-.239a.547.547,0,0,0-.18-.038,1.551,1.551,0,0,1-.2-.054.629.629,0,0,1-.3-.229" transform="translate(-7.236 -3.852)" fill="#ffbe9e"/>
          <path id="Path_895190" data-name="Path 895190" d="M70.57,26.372c.744-.833,1.758-1.346,2.5-.745a2.182,2.182,0,0,1,.282,2.095,13.692,13.692,0,0,1-4.218,5.322c-.721.482-2.714-.536-2.077-1.879a22.663,22.663,0,0,1,3.508-4.793" transform="translate(-8.289 -3.141)" fill="#ec3b59"/>
          <path id="Path_895191" data-name="Path 895191" d="M18.655,28.012a1.318,1.318,0,0,0-.547-1.686c-.373-.165-.832.212-1.185.591-.849.91-2.76,5.187-1.7,6.257,1,1.01,2.819-3.2,3.428-5.162" transform="translate(-1.847 -3.255)" fill="#fbb99d"/>
          <path id="Path_895192" data-name="Path 895192" d="M18.816,34.934s1.967.964,2.125,1.089c1.008.8,1.659,1,1.437,1.129-.407.24-1.771-.394-1.977-.485a9.251,9.251,0,0,1-1.065-.594,4.236,4.236,0,0,1-.52-1.138" transform="translate(-2.33 -4.326)" fill="#fbb99d"/>
          <path id="Path_895193" data-name="Path 895193" d="M15.33,34.01c.949.913,4.607,2.349,4.607,2.349V35.287l-3.636-2.9s-1.92.711-.971,1.624" transform="translate(-1.866 -4.01)" fill="#fbb99d"/>
          <path id="Path_895194" data-name="Path 895194" d="M28.136,58.759a8.183,8.183,0,0,0-.2,1.906c.358.795,3.282,1.228,4.322.807.145-.06.313-.3.05-.643s-1.869-.924-1.688-1.6-2.48-.471-2.48-.471" transform="translate(-3.455 -7.273)" fill="#e8a32b"/>
          <path id="Path_895195" data-name="Path 895195" d="M25.935,33.988,21.091,36.1a40.678,40.678,0,0,0,2.489,6.492l-.013,0L25.2,45.966a3.513,3.513,0,0,1,.322,1.121l.955,8.431a1.207,1.207,0,0,0,.6.93,3.711,3.711,0,0,0,2.753.367c1.734-.469.92-10.78.567-12.053a62.175,62.175,0,0,0-2.337-6.129Z" transform="translate(-2.612 -4.209)" fill="#fc636b"/>
          <path id="Path_895196" data-name="Path 895196" d="M13.831,57.851S12.77,59.133,12.8,59.432a32.465,32.465,0,0,0,3.312,2.988.463.463,0,0,0,.333-.543c-.067-.445-1.172-1.8-.714-2.3s-1.9-1.722-1.9-1.722" transform="translate(-1.585 -7.164)" fill="#ca8623"/>
          <path id="Path_895197" data-name="Path 895197" d="M13,59.382c.725-.067,3.64,2.84,3.251,3.153-.575.463-2.628-1.079-3.183-1.991C12.453,59.527,13,59.382,13,59.382" transform="translate(-1.582 -7.353)" fill="#e8a32b"/>
          <path id="Path_895198" data-name="Path 895198" d="M22.355,35.483l-4.4-1.053a44.145,44.145,0,0,0-1.343,7.127l-.012-.006-.137,3.8a3.538,3.538,0,0,1-.236,1.148l-3.049,7.869a1.275,1.275,0,0,0,.091,1.124,3.932,3.932,0,0,0,2.225,1.753c1.724.493,5.762-8.945,6.04-10.242a64.6,64.6,0,0,0,.788-6.575Z" transform="translate(-1.621 -4.264)" fill="#fc636b"/>
          <path id="Path_895199" data-name="Path 895199" d="M26.15,36.429c.271.81,1.037,2.816,2.2,2.391.157-.057.1-.313-.06-.255-.967.353-1.659-1.515-1.887-2.2-.053-.159-.308-.1-.255.06" transform="translate(-3.237 -4.492)" fill="#ec3b59"/>
          <path id="Path_895200" data-name="Path 895200" d="M22.737,39.979a5.973,5.973,0,0,0,.531,2.565c.077.179.343.035.267-.143a5.645,5.645,0,0,1-.5-2.411.151.151,0,0,0-.3-.011" transform="translate(-2.815 -4.933)" fill="#ec3b59"/>
          <path id="Path_895201" data-name="Path 895201" d="M23.59,19.488c.327.778.7,3.357-.927,3.458-.692.044-1.744-1.257-1.928-2.508a1.863,1.863,0,0,1,1.228-1.67,1.224,1.224,0,0,1,1.628.719" transform="translate(-2.566 -2.313)" fill="#fbb99d"/>
          <path id="Path_895202" data-name="Path 895202" d="M23.58,21.987a1.5,1.5,0,0,0,0,2.016c.93.909-2.437.47-2.437.47l.386-3.279Z" transform="translate(-2.618 -2.625)" fill="#fbb99d"/>
          <path id="Path_895203" data-name="Path 895203" d="M15.86,28.122s1.2-3.846,2.926-3.328-.2,4.528-.2,4.528a4.823,4.823,0,0,1-2.725-1.2" transform="translate(-1.964 -3.064)" fill="#fec44f"/>
          <path id="Path_895204" data-name="Path 895204" d="M23.64,24.275a8.09,8.09,0,0,0-4.844.337c-2.332.94-.192,4.688.033,5.29,1.174,3.132-.724,2.944-.35,3.651.669,1.269,3.915,1.426,5.956.714.8-.279,1.44-.794,1.242-1.148-1.406-2.517-.285-3.768-.353-5.431-.071-1.7-.153-3.046-1.683-3.414" transform="translate(-2.194 -2.978)" fill="#feb801"/>
          <path id="Path_895205" data-name="Path 895205" d="M26.511,26.5a1.318,1.318,0,0,0-1.714-.451c-.341.226-.272.816-.144,1.318.307,1.206,2.568,4.865,4.281,4.842,1.424-.019-1.1-4.136-2.423-5.708" transform="translate(-3.04 -3.205)" fill="#fbb99d"/>
          <path id="Path_895206" data-name="Path 895206" d="M25.052,28.938s-2.586-3.09-1.221-4.26,3.7,2.615,3.7,2.615a4.83,4.83,0,0,1-2.483,1.645" transform="translate(-2.902 -3.028)" fill="#feb801"/>
          <path id="Path_895207" data-name="Path 895207" d="M21.276,17.688c1.234.1,1.623,1.037,1.1,2.1-.837,1.683,1.408,1.065.228,2.891-.936,1.448-.127,1.149.2,2.907.373,2.018-3.689,3.8-6.428,1.383-1.341-1.184-2.8-2.821-.05-5.473.853-.82,1.608-.734,2.227-2.247a2.282,2.282,0,0,1,2.728-1.557" transform="translate(-1.828 -2.188)" fill="#29283b"/>
          <path id="Path_895208" data-name="Path 895208" d="M33.056,29.86s1.162-1.337,1.471-1.162-.666.923-.666.923Z" transform="translate(-4.093 -3.552)" fill="#fbb99d"/>
          <path id="Path_895209" data-name="Path 895209" d="M32.208,30.27s1.874-1.135,2.064-1.2c1.222-.414,1.472-.618,1.462-.361-.018.473-1.018,1.152-1.206,1.276a8.111,8.111,0,0,1-1.081.462,4.239,4.239,0,0,1-1.239-.177" transform="translate(-3.988 -3.541)" fill="#fbb99d"/>
          <path id="Path_895210" data-name="Path 895210" d="M29.769,32.646c1.543-.39,4.348-2.636,4.348-2.636l-.81-.331-4.33,1.281s-.485,2.008.792,1.686" transform="translate(-3.577 -3.675)" fill="#fbb99d"/>
        </g>
      </g>
    </g>
  </g>
</svg>
