<svg xmlns="http://www.w3.org/2000/svg" xmlns:xlink="http://www.w3.org/1999/xlink" width="99" height="99" viewBox="0 0 99 99">
  <defs>
    <clipPath id="clip-path">
      <rect id="Rectangle_401223" data-name="Rectangle 401223" width="99" height="99" transform="translate(0)" fill="#1e2ad5"/>
    </clipPath>
    <clipPath id="clip-path-2">
      <rect id="Rectangle_401223-2" data-name="Rectangle 401223" width="88.539" height="88.539" fill="#f3f9ff"/>
    </clipPath>
    <clipPath id="clip-path-3">
      <rect id="Rectangle_407362" data-name="Rectangle 407362" width="72" height="58.879" fill="none"/>
    </clipPath>
  </defs>
  <g id="Group_1117104" data-name="Group 1117104" transform="translate(-619.922 -5755.73)">
    <g id="Group_1100724" data-name="Group 1100724" transform="translate(619.922 5755.73)">
      <g id="Group_1099654" data-name="Group 1099654" transform="translate(0 0)">
        <g id="Group_1099652" data-name="Group 1099652" clip-path="url(#clip-path)">
          <path id="Path_873521" data-name="Path 873521" d="M99,77.066A22,22,0,0,1,77.066,99H21.934A22,22,0,0,1,0,77.066V21.933A22,22,0,0,1,21.934,0H77.066A22,22,0,0,1,99,21.934Z" transform="translate(0)" fill="#1e2ad5"/>
        </g>
      </g>
      <g id="Group_1099659" data-name="Group 1099659" transform="translate(4.77 5.723)">
        <g id="Group_1099652-2" data-name="Group 1099652" transform="translate(0 0)" clip-path="url(#clip-path-2)">
          <path id="Path_873521-2" data-name="Path 873521" d="M88.539,68.922A19.674,19.674,0,0,1,68.923,88.539H19.616A19.674,19.674,0,0,1,0,68.922V19.616A19.674,19.674,0,0,1,19.616,0H68.923A19.674,19.674,0,0,1,88.539,19.616Z" fill="#f3f9ff"/>
        </g>
      </g>
    </g>
    <g id="Group_1100725" data-name="Group 1100725" transform="translate(632.343 5767.293)">
      <rect id="Rectangle_401104" data-name="Rectangle 401104" width="75" height="75" transform="translate(-0.421 0.438)" fill="none"/>
      <g id="Group_1117106" data-name="Group 1117106" transform="translate(1.579 8.437)">
        <g id="Group_1117105" data-name="Group 1117105" clip-path="url(#clip-path-3)">
          <path id="Path_894746" data-name="Path 894746" d="M15.306,53.854c13.889,4.26,33.141,2.208,46.534-7.666S75.228,26.91,62.778,15.2C29.072-16.49,12.521,9.086,4.384,22.615c-7.952,13.224-5.53,26.192,10.922,31.239" transform="translate(0 0)" fill="#ffe9a2"/>
          <path id="Path_894747" data-name="Path 894747" d="M66.009,56.309c0,.776-14.09,1.4-31.469,1.4s-31.47-.629-31.47-1.4,14.09-1.4,31.47-1.4,31.469.629,31.469,1.4" transform="translate(0.032 0.859)" fill="#a9c1d8"/>
          <path id="Path_894748" data-name="Path 894748" d="M56.281,26.1s-2.781-2.893-2.773-4.984a2.374,2.374,0,0,1,1.664-2.475s1.136,4.748,2.837,6.227S56.281,26.1,56.281,26.1" transform="translate(0.555 0.292)" fill="#cc8b6e"/>
          <path id="Path_894749" data-name="Path 894749" d="M52.919,17.362c-2.675,1.56.932,6.778.932,6.778l3.144-1.124s-1.467-7.175-4.076-5.654" transform="translate(0.539 0.268)" fill="#ec3b59"/>
          <path id="Path_894750" data-name="Path 894750" d="M55.84,25.544C56.79,26.916,60.748,29,60.748,29l-.009-1.3L57.08,23.834s-2.188.337-1.24,1.71" transform="translate(0.577 0.373)" fill="#cc8b6e"/>
          <path id="Path_894751" data-name="Path 894751" d="M60.669,27.416a1.874,1.874,0,0,0,.406-.179,2.374,2.374,0,0,1,.8-.133c.151-.006.462-.2.588-.049.205.247-.4.426-.514.511a.317.317,0,0,0-.14.341.393.393,0,0,0,.18.183,7.665,7.665,0,0,0,.742.372c.129.063.253.133.378.2a1.483,1.483,0,0,1,.315.159.149.149,0,0,1-.005.225c-.071.046-.13-.011-.2-.035-.15-.052-.3-.1-.454-.146-.033-.01-.179-.079-.211-.057-.156.108.231.3.291.328a.853.853,0,0,1,.386.333.083.083,0,0,1,.01.068c-.016.034-.064.033-.1.024-.212-.049-.4-.174-.615-.217a.1.1,0,0,0-.1.018c-.09.111.135.285.205.349.043.041.094.094.073.15a.1.1,0,0,1-.094.057.29.29,0,0,1-.111-.031,2.755,2.755,0,0,1-.316-.141c-.047-.027-.181-.123-.232-.067a.055.055,0,0,0-.01.042.294.294,0,0,0,.08.139.145.145,0,0,1,.033.149c-.031.06-.116.057-.181.039a2.5,2.5,0,0,1-.638-.344q-.32-.207-.62-.444a8.37,8.37,0,0,1-.757-.673,1.331,1.331,0,0,1-.46-.772,1.2,1.2,0,0,1,.016-.262,1.17,1.17,0,0,1,.089-.332.461.461,0,0,1,.24-.237.1.1,0,0,1,.045-.007.108.108,0,0,1,.052.028,3.22,3.22,0,0,0,.361.284.79.79,0,0,0,.462.121" transform="translate(0.616 0.422)" fill="#cc8b6e"/>
          <path id="Path_894752" data-name="Path 894752" d="M12.74,26.865s.008-4.5,1.493-6.1a2.229,2.229,0,0,1,2.97-.548s-2.527,4.583-2.326,7.11-2.138-.461-2.138-.461" transform="translate(0.132 0.311)" fill="#fbb99d"/>
          <path id="Path_894753" data-name="Path 894753" d="M17.515,17.229c-3.065-.982-5.159,6.152-5.159,6.152l3.1,1.7s5.047-6.894,2.058-7.851" transform="translate(0.128 0.268)" fill="#050c68"/>
          <path id="Path_894754" data-name="Path 894754" d="M14.64,29.4s.567,2.874.553,3.153c-.089,1.781.253,2.606-.105,2.521-.656-.156-1.09-2.117-1.162-2.407a11.041,11.041,0,0,1-.218-1.628A6.979,6.979,0,0,1,14.64,29.4" transform="translate(0.142 0.46)" fill="#cc8b6e"/>
          <path id="Path_894755" data-name="Path 894755" d="M12.772,26.072c-.275,1.831,1.154,6.664,1.154,6.664l.915-1.011.05-5.959s-1.842-1.525-2.119.306" transform="translate(0.132 0.394)" fill="#fbb99d"/>
          <path id="Path_894756" data-name="Path 894756" d="M15.072,18.821c.6-2.636,4.033-1.836,6.377-1.348,1.58.329,2.473,1.324,2.395,5.3-.034,1.738.61,5.99-.162,8,0,0-3.282,2.033-9.281-.523a39.949,39.949,0,0,1,.671-11.423" transform="translate(0.148 0.265)" fill="#050c68"/>
          <path id="Path_894757" data-name="Path 894757" d="M54.5,36.733,43.737,29.1l.212-1.563,10.235-.781Z" transform="translate(0.454 0.418)" fill="#feb801"/>
          <path id="Path_894758" data-name="Path 894758" d="M40.24,25.1s4.031-1.878,4.785-3.921a2.368,2.368,0,0,0-.882-2.979s-2.944,4.246-5.306,5.112,1.4,1.789,1.4,1.789" transform="translate(0.395 0.285)" fill="#cc8b6e"/>
          <path id="Path_894759" data-name="Path 894759" d="M47.883,16.3s-1.009.336-.844,2.383c.205,2.535-3.689,4.981-3.689,4.981l-2.751-1.8s3.616-5.269,7.284-5.56" transform="translate(0.421 0.255)" fill="#fc636b"/>
          <path id="Path_894760" data-name="Path 894760" d="M45.2,18.248c.692-2.228,4.028-2.343,6.741-1.931,1.829.279,3.006.875,3.21,3.173.129,1.465-.272,7.87-1.164,9.566,0,0-3.115,1.753-10.058-.4A36.3,36.3,0,0,1,45.2,18.248" transform="translate(0.455 0.252)" fill="#fc636b"/>
          <path id="Path_894761" data-name="Path 894761" d="M45.04,22.329a.923.923,0,0,1-.918.7c-.122.008-.121-.183,0-.191a.733.733,0,0,0,.736-.564c.016-.121.2-.069.183.051" transform="translate(0.457 0.347)" fill="#ec3b59"/>
          <path id="Path_894762" data-name="Path 894762" d="M37.019,24.348s-2.842.67-3.085.8c-1.558.824-2.456.851-2.215,1.146.445.543,2.4.13,2.7.075a10.517,10.517,0,0,0,1.561-.474,6.589,6.589,0,0,0,1.04-1.546" transform="translate(0.329 0.381)" fill="#cc8b6e"/>
          <path id="Path_894763" data-name="Path 894763" d="M40.9,24.7c-1.517,1.017-6.487,1.686-6.487,1.686l.456-1.25,5.325-2.525s2.223,1.071.706,2.089" transform="translate(0.357 0.354)" fill="#cc8b6e"/>
          <path id="Path_894764" data-name="Path 894764" d="M50.343,17.176a95.009,95.009,0,0,1-.866,12.054l-.866.054A54.316,54.316,0,0,0,49.6,17.176Z" transform="translate(0.504 0.269)" fill="#fdfefd"/>
          <path id="Path_894765" data-name="Path 894765" d="M54.406,29.276s-6.607,1.287-10.738-.695l.283-1.057a20.659,20.659,0,0,0,10.35.537Z" transform="translate(0.453 0.431)" fill="#29283b"/>
          <path id="Path_894766" data-name="Path 894766" d="M51.049,28.193h-.588l-.138,1.769h.968Z" transform="translate(0.522 0.441)" fill="#feb801"/>
          <path id="Path_894767" data-name="Path 894767" d="M46.993,27.994l-.425-.134-.728,1.622.874.275Z" transform="translate(0.475 0.436)" fill="#feb801"/>
          <path id="Path_894768" data-name="Path 894768" d="M50.116,18.509a.183.183,0,0,0,.015-.266.2.2,0,0,0-.277-.015.184.184,0,0,0-.015.267.2.2,0,0,0,.277.014" transform="translate(0.516 0.284)" fill="#2f7edd"/>
          <path id="Path_894769" data-name="Path 894769" d="M50.116,20.254a.183.183,0,0,0,.015-.266.2.2,0,0,0-.277-.015.183.183,0,0,0-.015.266.2.2,0,0,0,.277.015" transform="translate(0.516 0.312)" fill="#2f7edd"/>
          <path id="Path_894770" data-name="Path 894770" d="M50.035,21.791a.2.2,0,0,0-.277-.015.183.183,0,0,0-.015.266.2.2,0,0,0,.277.015.184.184,0,0,0,.015-.266" transform="translate(0.515 0.34)" fill="#2f7edd"/>
          <path id="Path_894771" data-name="Path 894771" d="M49.564,23.892a.183.183,0,0,0-.015.266.2.2,0,0,0,.277.015.183.183,0,0,0,.015-.266.2.2,0,0,0-.277-.015" transform="translate(0.513 0.373)" fill="#2f7edd"/>
          <path id="Path_894772" data-name="Path 894772" d="M49.394,26.306a.189.189,0,0,0-.014.266.185.185,0,0,0,.264.015.189.189,0,0,0,.015-.266.187.187,0,0,0-.265-.015" transform="translate(0.512 0.411)" fill="#2f7edd"/>
          <path id="Path_894773" data-name="Path 894773" d="M51.609,13.4s-2.794.6-2.638.833-.117.692-.124,1.14a2.551,2.551,0,0,1-.76,1.49c-.3.343.234.754.71.844,2.051.387,3.346-.383,2.913-1.05a3.56,3.56,0,0,1-.1-3.256" transform="translate(0.498 0.21)" fill="#cc8b6e"/>
          <path id="Path_894774" data-name="Path 894774" d="M48.843,15.369c.007-.448.28-.91.123-1.14s2.859-.88,2.859-.88a2.183,2.183,0,0,0-.535,1.177A5.539,5.539,0,0,1,48.5,16.314a2.293,2.293,0,0,0,.342-.945" transform="translate(0.503 0.209)" fill="#8b482a"/>
          <path id="Path_894775" data-name="Path 894775" d="M48.8,10.215c-1.1.835-2.038,3.719-.888,5.093.632.755,2.932-.047,4.011-1.689a3.562,3.562,0,0,0-.091-2.768,2.251,2.251,0,0,0-3.032-.637" transform="translate(0.491 0.154)" fill="#cc8b6e"/>
          <path id="Path_894776" data-name="Path 894776" d="M47.534,12.5c0,.177.248-1.745,1.323-1.875.436-.053.338.41.846.448.433.031,1.732-.844,1.232,1.75-.024.124.094.271.151.383.071.138-.15.453-.147.608s.451-.31.442-.16c-.013.226-.4.857-.079.944.157.042.348-.212.463-.3a5.711,5.711,0,0,0,.96-.716,2.474,2.474,0,0,0,.549-1.234,2.34,2.34,0,0,0-.112-1.33,1.709,1.709,0,0,0-1.008-.926,6.428,6.428,0,0,1-.809-.219c-.22-.109-.462-.137-.684-.246a.957.957,0,0,1-.359-.343,1.3,1.3,0,0,0-1.064-.512,1.09,1.09,0,0,0-.952.666c-.083.216-.113.492-.32.593-.075.038-.164.044-.234.088a.436.436,0,0,0-.147.186,1.824,1.824,0,0,0-.094,1.234,1.606,1.606,0,0,1,.088.5c-.01.154-.043.3-.042.462" transform="translate(0.492 0.137)" fill="#552b19"/>
          <path id="Path_894777" data-name="Path 894777" d="M50.636,13.4s.794-.7,1.232-.5-.177,1.4-1.081,1.235-.394-.545-.151-.735" transform="translate(0.521 0.201)" fill="#cc8b6e"/>
          <path id="Path_894778" data-name="Path 894778" d="M53.46,20.917H51.447l.095-.1c-.044.629-.027,1.9.732,2.1.716.191,1.181-.473,1.215-1.1a2.849,2.849,0,0,0-.122-.976.1.1,0,0,1,.184-.051c.281.923.132,2.442-1.165,2.339-1-.078-1.087-1.555-1.034-2.314a.1.1,0,0,1,.095-.1H53.46a.1.1,0,0,1,0,.191" transform="translate(0.532 0.324)" fill="#ec3b59"/>
          <path id="Path_894779" data-name="Path 894779" d="M46.141,20.355l2.086.229a.1.1,0,0,1,.095.1c.01.9-.285,2.42-1.47,2.281s-1.066-1.686-.8-2.536c.036-.117.22-.067.184.051a2.95,2.95,0,0,0-.1,1.655.892.892,0,0,0,1.132.61,1.3,1.3,0,0,0,.725-.965c.087-.308.075-.624.139-.93.011-.053,0-.111,0-.164-.033.26.166.029.028.084a.544.544,0,0,1-.175-.019l-1.845-.2c-.12-.013-.121-.2,0-.191" transform="translate(0.476 0.318)" fill="#ec3b59"/>
          <path id="Path_894780" data-name="Path 894780" d="M12.057,55.074l.316-2.356-1.044-.407-.585,2.238Z" transform="translate(0.111 0.818)" fill="#e6c4bf"/>
          <path id="Path_894781" data-name="Path 894781" d="M19.993,31.095a42.92,42.92,0,0,1-1.521,12.676c-.3.965-6.3,10.933-6.3,10.933s-.344.375-.894-.1c-.382-.328-.2-1.152-.2-1.152s1.292-9.356,3.83-10.7c0,0-.582-9.863.132-11.663.73-1.841,4.953,0,4.953,0" transform="translate(0.114 0.474)" fill="#fbb99d"/>
          <path id="Path_894782" data-name="Path 894782" d="M20.09,30.705s.041,8.26-.315,9.948c0,0-3.548,1.912-6.193-.986,0,0-.073-6.571.683-9.762Z" transform="translate(0.141 0.468)" fill="#afbefc"/>
          <path id="Path_894783" data-name="Path 894783" d="M24.392,56.746l-.553-2.264L22.8,54.9l.28,2.358Z" transform="translate(0.236 0.852)" fill="#e6c4bf"/>
          <path id="Path_894784" data-name="Path 894784" d="M22.879,31.092a32.22,32.22,0,0,1,3.01,11.262c.084,1.048-1.59,14.06-1.59,14.06a.832.832,0,0,1-.8.577c-.444,0-.579-.839-.579-.839s-2.61-9.271-.389-12.221c0,0-4.672-10.379-4.687-12.456-.015-2.125,5.04-.384,5.04-.384" transform="translate(0.185 0.476)" fill="#fbb99d"/>
          <path id="Path_894785" data-name="Path 894785" d="M23.858,30.276s1.755,7.086,2.041,8.8c0,0-1.379,2.385-5.113,1.821,0,0-3.19-7.173-3.659-10.477Z" transform="translate(0.178 0.474)" fill="#afbefc"/>
          <path id="Path_894786" data-name="Path 894786" d="M19.817,38.723a.068.068,0,0,0,.057-.04.145.145,0,0,0-.007-.153A7.309,7.309,0,0,1,18.4,34.1c0-.06-.03-.113-.072-.118s-.077.043-.08.1A7.608,7.608,0,0,0,19.769,38.7a.06.06,0,0,0,.049.026" transform="translate(0.189 0.532)" fill="#2566bb"/>
          <path id="Path_894787" data-name="Path 894787" d="M26.917,28.451s-2.434-.908-4.247-5.663a2.329,2.329,0,0,1,1.308-3.045s2.118,4.991,4.22,6.282-1.282,2.426-1.282,2.426" transform="translate(0.233 0.309)" fill="#fbb99d"/>
          <path id="Path_894788" data-name="Path 894788" d="M21.506,18.634c-2.565,2.239,2.1,7.4,2.1,7.4l3.149-1.852s-2.75-7.734-5.251-5.551" transform="translate(0.215 0.285)" fill="#050c68"/>
          <path id="Path_894789" data-name="Path 894789" d="M30.223,25.924c.067.037.477-.194.545-.221a8.208,8.208,0,0,0,1.763-.764,1.82,1.82,0,0,0,.607-.69,2.357,2.357,0,0,0,.165-.524c.014-.07.039-.152.107-.169a.143.143,0,0,1,.144.089,1.1,1.1,0,0,1,.037.467.521.521,0,0,0,.1.341.352.352,0,0,0,.3.012,2.911,2.911,0,0,0,.759-.4c.192-.128.388-.317.575-.078a.774.774,0,0,0,.245.172.2.2,0,0,1,.1.114.342.342,0,0,1,.005.072.392.392,0,0,0,.035.155.326.326,0,0,1,.037.1.157.157,0,0,1-.048.122,3,3,0,0,1-.247.235c-.1.084-.193.186-.3.263-.09.064-.186.106-.275.171a13.422,13.422,0,0,1-1.372.778,9.312,9.312,0,0,1-1.515.49,6.887,6.887,0,0,1-1.765-.739" transform="translate(0.313 0.368)" fill="#fbb99d"/>
          <path id="Path_894790" data-name="Path 894790" d="M27.436,28.464c1.807,0,6.107-2.317,6.107-2.317l-1.163-.822-5.694.908s-1.057,2.228.751,2.23" transform="translate(0.274 0.396)" fill="#fbb99d"/>
          <path id="Path_894791" data-name="Path 894791" d="M17.462,17.5c0,.355.725.644,1.622.644s1.622-.288,1.622-.644-.726-.644-1.622-.644-1.622.286-1.622.644" transform="translate(0.181 0.264)" fill="#fbb99d"/>
          <path id="Path_894792" data-name="Path 894792" d="M20.422,15.641s-.623.737.275,1.831c0,0-2.112,1.264-3.235-.011a3.274,3.274,0,0,0,.339-2.285Z" transform="translate(0.181 0.237)" fill="#fbb99d"/>
          <path id="Path_894793" data-name="Path 894793" d="M21.347,10.4A10.234,10.234,0,0,1,21.9,13.16c.088,2.091-.507,3.278-3.019,2.591-2.467-.675,1.258-5.718,2.463-5.347" transform="translate(0.187 0.162)" fill="#fbb99d"/>
          <path id="Path_894794" data-name="Path 894794" d="M20.286,15.851a6.093,6.093,0,0,1-1.226-.143.72.72,0,0,1-.214.2,2.578,2.578,0,0,0,1.44-.057" transform="translate(0.195 0.246)" fill="#dc8162"/>
          <path id="Path_894795" data-name="Path 894795" d="M20.317,13.483c-.559.295-.488,2.744-1.631,2.9-1.731.242-2.822-1.512-2.842-3.819a3.244,3.244,0,0,1,2.644-3.385c1.718-.365,3.717-.1,3.51,1.377a1.242,1.242,0,0,1-.737.967c-.546.289.3,1.3-.945,1.956" transform="translate(0.164 0.141)" fill="#29283b"/>
          <path id="Path_894796" data-name="Path 894796" d="M20.023,14.354s-.942-.982-.544-1.426c.568-.632,1.2.821,1.2.821Z" transform="translate(0.201 0.2)" fill="#fbb99d"/>
          <path id="Path_894797" data-name="Path 894797" d="M44.061,54.119s-.412.485-.9,1.142-.85,1.342-.17,1.655S44.5,56.46,44.765,56s.57-.407.938-.711.174-1.429.174-1.429Z" transform="translate(0.442 0.842)" fill="#552b19"/>
          <path id="Path_894798" data-name="Path 894798" d="M45.808,54.92c-.391.323-.713.27-1,.756s-1.162,1.306-1.885.972a.713.713,0,0,1-.305-.243.553.553,0,0,0,.373.5c.68.314,1.505-.457,1.772-.913s.57-.407.938-.711a.76.76,0,0,0,.207-.485.473.473,0,0,1-.1.127" transform="translate(0.442 0.857)" fill="#421f13"/>
          <path id="Path_894799" data-name="Path 894799" d="M50.3,32.937C49.3,34.2,46,54.551,46,54.551c-.993.839-2.483,0-2.483,0-1.076-10.377.256-25.789.256-25.789S51.29,34.2,50.3,32.937" transform="translate(0.447 0.45)" fill="#feb801"/>
          <path id="Path_894800" data-name="Path 894800" d="M45.551,29.052c-1.225,8.414-2.309,17.3-1.425,25.788.02.2.328.2.307,0-.88-8.46.194-17.319,1.415-25.706.028-.2-.269-.279-.3-.082" transform="translate(0.454 0.453)" fill="#e08b03"/>
          <path id="Path_894801" data-name="Path 894801" d="M44.717,29.092c.014.844-.013,3.208-1.214,3.208a.155.155,0,0,0,0,.31c1.47,0,1.54-2.484,1.523-3.518a.154.154,0,0,0-.308,0" transform="translate(0.45 0.453)" fill="#e08b03"/>
          <path id="Path_894802" data-name="Path 894802" d="M53.867,54.448s.412.485.9,1.142.85,1.342.17,1.655-1.505-.456-1.772-.913-.57-.407-.937-.711-.175-1.429-.175-1.429Z" transform="translate(0.539 0.848)" fill="#552b19"/>
          <path id="Path_894803" data-name="Path 894803" d="M52.12,55.249c.391.323.713.27,1,.756s1.162,1.306,1.885.972a.713.713,0,0,0,.305-.243.554.554,0,0,1-.373.5c-.68.314-1.505-.457-1.772-.913s-.57-.407-.937-.711a.756.756,0,0,1-.208-.485.489.489,0,0,0,.1.127" transform="translate(0.539 0.862)" fill="#421f13"/>
          <path id="Path_894804" data-name="Path 894804" d="M47.671,33.264c.993,1.263,4.3,21.614,4.3,21.614.993.839,2.483,0,2.483,0,1.076-10.377-.089-25.628-.089-25.628s-7.688,5.277-6.695,4.014" transform="translate(0.493 0.458)" fill="#feb801"/>
          <path id="Path_894805" data-name="Path 894805" d="M52.066,29.463c1.221,8.386,2.295,17.246,1.415,25.7-.021.2.287.2.308,0,.883-8.486-.2-17.374-1.426-25.787-.028-.2-.325-.113-.3.082" transform="translate(0.54 0.458)" fill="#e08b03"/>
          <path id="Path_894806" data-name="Path 894806" d="M52.886,29.421c-.018,1.034.052,3.518,1.523,3.518a.155.155,0,0,0,0-.31c-1.2,0-1.23-2.364-1.215-3.208a.154.154,0,0,0-.307,0" transform="translate(0.548 0.458)" fill="#e08b03"/>
          <path id="Path_894807" data-name="Path 894807" d="M24.1,31.1s-6.13,1.261-9.963-.68l.262-1.037A18.2,18.2,0,0,0,24,29.9Z" transform="translate(0.147 0.46)" fill="#29283b"/>
          <path id="Path_894808" data-name="Path 894808" d="M21,30.075h-.546l-.128,1.734h.9Z" transform="translate(0.211 0.47)" fill="#2f7edd"/>
          <path id="Path_894809" data-name="Path 894809" d="M17.236,29.88l-.4-.131-.676,1.59.811.269Z" transform="translate(0.168 0.465)" fill="#2f7edd"/>
          <path id="Path_894810" data-name="Path 894810" d="M21.86,31.873c.353.945,1.338,3.284,2.691,2.731.181-.073.1-.373-.082-.3-1.123.458-2.015-1.718-2.312-2.515-.069-.185-.367-.1-.3.082" transform="translate(0.227 0.496)" fill="#2566bb"/>
          <path id="Path_894811" data-name="Path 894811" d="M14.948,23.473a.929.929,0,0,1-.562,1.015c-.108.057-.184-.119-.076-.176a.735.735,0,0,0,.45-.811c-.033-.118.156-.144.188-.027" transform="translate(0.148 0.366)" fill="#4f4186"/>
          <path id="Path_894812" data-name="Path 894812" d="M23,24.492a.929.929,0,0,0,.562,1.015c.108.057.184-.119.076-.176a.735.735,0,0,1-.45-.811c.033-.118-.156-.144-.188-.027" transform="translate(0.238 0.382)" fill="#4f4186"/>
          <path id="Path_894813" data-name="Path 894813" d="M11.084,53.1s-.8,1.449-.546,2.054,3.6,2.571,3.084,1.572a12.37,12.37,0,0,1-1.441-2.376c-.03-.091-.619-.08-.646-.174-.328-1.237-.452-1.077-.452-1.077" transform="translate(0.109 0.83)" fill="#29283b"/>
          <path id="Path_894814" data-name="Path 894814" d="M22.863,55.757s-.178,1.835.25,2.169,4.005-.45,3.206-.927a6.863,6.863,0,0,1-2.072-.98c-.059-.054-.561.392-.616.329-.716-.82-.767-.591-.767-.591" transform="translate(0.237 0.872)" fill="#29283b"/>
          <path id="Path_894815" data-name="Path 894815" d="M49.808,13.087c.02-.01-.023.009-.03.012a.456.456,0,0,1-.1.024c-.138.012-.2-.079-.233-.2-.02-.074-.135-.033-.115.041a.361.361,0,0,0,.554.217c.07-.036,0-.133-.071-.1" transform="translate(0.511 0.202)" fill="#1e100c"/>
          <path id="Path_894816" data-name="Path 894816" d="M48.541,12.628a.4.4,0,0,1-.116.075c-.135.059-.21-.025-.259-.146-.029-.071-.144-.031-.116.041.058.143.161.271.336.242a.49.49,0,0,0,.249-.134c.057-.053-.037-.13-.094-.077" transform="translate(0.498 0.196)" fill="#1e100c"/>
          <path id="Path_894817" data-name="Path 894817" d="M48.321,12.007a.366.366,0,0,1,.433.254c.033.09.168.027.134-.061a.506.506,0,0,0-.593-.339c-.093.018-.069.166.025.146" transform="translate(0.5 0.185)" fill="#552b19"/>
          <path id="Path_894818" data-name="Path 894818" d="M49.49,12.506a.364.364,0,0,1,.485.127c.057.077.17-.019.113-.1a.5.5,0,0,0-.662-.165c-.085.044-.021.178.064.134" transform="translate(0.512 0.193)" fill="#552b19"/>
          <path id="Path_894819" data-name="Path 894819" d="M49,12.522a.752.752,0,0,1-.026.412c-.077.183-.3.244-.434.387-.185.2-.039.343.212.447.061.024.1-.052.039-.077-.564-.231.149-.456.265-.691a.791.791,0,0,0,.046-.485c-.01-.055-.112-.048-.1.007" transform="translate(0.502 0.195)" fill="#8b482a"/>
          <path id="Path_894820" data-name="Path 894820" d="M49.213,14.047s-.017.511-.435.467-.416-.5-.416-.5Z" transform="translate(0.502 0.219)" fill="#faffff"/>
          <path id="Path_894821" data-name="Path 894821" d="M50.006,14.01a.286.286,0,0,1-.381.14.29.29,0,0,1-.139-.384.285.285,0,0,1,.381-.139.288.288,0,0,1,.139.383" transform="translate(0.513 0.213)" fill="#c1775d"/>
          <path id="Path_894822" data-name="Path 894822" d="M47.71,13.048a.29.29,0,0,1,.4.089.293.293,0,0,1-.09.4.289.289,0,0,1-.4-.089.293.293,0,0,1,.089-.4" transform="translate(0.493 0.203)" fill="#c1775d"/>
          <path id="Rectangle_407360" data-name="Rectangle 407360" d="M.741,0H10.776a.742.742,0,0,1,.742.742V5.659a.741.741,0,0,1-.741.741H.742A.742.742,0,0,1,0,5.658V.741A.741.741,0,0,1,.741,0Z" transform="translate(27.497 10.119)" fill="#685700"/>
          <path id="Path_894823" data-name="Path 894823" d="M27.228,14.584,26.013,18.13l3.931-1.838Z" transform="translate(0.27 0.228)" fill="#685700"/>
          <path id="Path_894824" data-name="Path 894824" d="M36.847,12.158h-7.89a.257.257,0,0,1,0-.514h7.89a.257.257,0,0,1,0,.514" transform="translate(0.298 0.182)" fill="#e3eefe"/>
          <path id="Path_894825" data-name="Path 894825" d="M36.847,12.932h-7.89a.257.257,0,0,1,0-.514h7.89a.257.257,0,0,1,0,.514" transform="translate(0.298 0.194)" fill="#e3eefe"/>
          <path id="Path_894826" data-name="Path 894826" d="M36.847,13.706h-7.89a.257.257,0,0,1,0-.514h7.89a.257.257,0,0,1,0,.514" transform="translate(0.298 0.206)" fill="#e3eefe"/>
          <path id="Rectangle_407361" data-name="Rectangle 407361" d="M.725,0h9.81a.725.725,0,0,1,.725.725V5.533a.724.724,0,0,1-.724.724H.725A.725.725,0,0,1,0,5.532V.725A.725.725,0,0,1,.725,0Z" transform="translate(31.391 2.558)" fill="#685700"/>
          <path id="Path_894827" data-name="Path 894827" d="M42.24,7.036l1.071,3.189L39.586,8.7Z" transform="translate(0.411 0.11)" fill="#685700"/>
          <path id="Path_894828" data-name="Path 894828" d="M40.629,4.849h-7.89a.257.257,0,0,1,0-.514h7.89a.257.257,0,0,1,0,.514" transform="translate(0.337 0.068)" fill="#e3eefe"/>
          <path id="Path_894829" data-name="Path 894829" d="M40.629,5.623h-7.89a.257.257,0,0,1,0-.514h7.89a.257.257,0,0,1,0,.514" transform="translate(0.337 0.08)" fill="#e3eefe"/>
          <path id="Path_894830" data-name="Path 894830" d="M40.629,6.4h-7.89a.257.257,0,0,1,0-.514h7.89a.257.257,0,0,1,0,.514" transform="translate(0.337 0.092)" fill="#e3eefe"/>
        </g>
      </g>
    </g>
  </g>
</svg>
