<svg xmlns="http://www.w3.org/2000/svg" xmlns:xlink="http://www.w3.org/1999/xlink" width="99" height="99" viewBox="0 0 99 99">
  <defs>
    <clipPath id="clip-path">
      <rect id="Rectangle_401223" data-name="Rectangle 401223" width="99" height="99" transform="translate(0)" fill="#1e2ad5"/>
    </clipPath>
    <clipPath id="clip-path-2">
      <rect id="Rectangle_401223-2" data-name="Rectangle 401223" width="88.539" height="88.539" fill="#f3f9ff"/>
    </clipPath>
    <clipPath id="clip-path-3">
      <rect id="Rectangle_407373" data-name="Rectangle 407373" width="75" height="50" fill="none"/>
    </clipPath>
  </defs>
  <g id="Group_1100726" data-name="Group 1100726" transform="translate(-619.921 -5755.871)">
    <g id="Group_1100724" data-name="Group 1100724" transform="translate(619.921 5755.871)">
      <g id="Group_1099654" data-name="Group 1099654" transform="translate(0 0)">
        <g id="Mask_Group_1099652" data-name="Mask Group 1099652" clip-path="url(#clip-path)">
          <path id="Path_873521" data-name="Path 873521" d="M99,77.066A22,22,0,0,1,77.066,99H21.934A22,22,0,0,1,0,77.066V21.933A22,22,0,0,1,21.934,0H77.066A22,22,0,0,1,99,21.934Z" transform="translate(0)" fill="#1e2ad5"/>
        </g>
      </g>
      <g id="Group_1099659" data-name="Group 1099659" transform="translate(4.77 5.723)">
        <g id="Group_1099652" data-name="Group 1099652" transform="translate(0 0)" clip-path="url(#clip-path-2)">
          <path id="Path_873521-2" data-name="Path 873521" d="M88.539,68.922A19.674,19.674,0,0,1,68.923,88.539H19.616A19.674,19.674,0,0,1,0,68.922V19.616A19.674,19.674,0,0,1,19.616,0H68.923A19.674,19.674,0,0,1,88.539,19.616Z" fill="#f3f9ff"/>
        </g>
      </g>
    </g>
    <g id="Group_1100725" data-name="Group 1100725" transform="translate(632.343 5767.234)">
      <rect id="Rectangle_401104" data-name="Rectangle 401104" width="75" height="75" transform="translate(-0.421 0.497)" fill="none"/>
      <g id="Group_1117117" data-name="Group 1117117" transform="translate(-0.421 12.86)">
        <g id="Group_1117116" data-name="Group 1117116" transform="translate(0 0)" clip-path="url(#clip-path-3)">
          <path id="Path_895007" data-name="Path 895007" d="M22.852,47.049c12,3.668,28.656,1.81,40.274-6.851s11.647-16.867.918-27.037C35-14.371,20.6,8,13.513,19.833,6.589,31.4,8.639,42.7,22.852,47.049" transform="translate(-2.239 0)" fill="#ffe9a2"/>
          <path id="Path_895008" data-name="Path 895008" d="M83.772,34.258a4.747,4.747,0,0,0,1.607.838c.6.066.843-.77.843-.77l-1.642-.858Z" transform="translate(-19.387 -7.403)" fill="#cc8b6e"/>
          <path id="Path_895009" data-name="Path 895009" d="M67.98,62.361c0,.6-12.143,1.094-27.122,1.094s-27.121-.49-27.121-1.094,12.143-1.094,27.121-1.094,27.122.49,27.122,1.094" transform="translate(-3.179 -13.552)" fill="#a9c1d8"/>
          <path id="Path_895010" data-name="Path 895010" d="M63.315,19.787s1.572,2.81,3.163,3.28a1.874,1.874,0,0,0,2.257-.726s-3.353-1.958-4.094-3.612-1.326,1.058-1.326,1.058" transform="translate(-14.653 -4.024)" fill="#cc8b6e"/>
          <path id="Path_895011" data-name="Path 895011" d="M69.506,24.894c-1.789,1.717-4.943-2.262-4.943-2.262l1.563-2.179s5.124,2.766,3.379,4.441" transform="translate(-14.942 -4.524)" fill="#685700"/>
          <path id="Path_895012" data-name="Path 895012" d="M63.209,19.493c-.829-1.048-1.519-4.585-1.519-4.585l.988.3,2.111,3.71s-.749,1.618-1.579.572" transform="translate(-14.277 -3.298)" fill="#cc8b6e"/>
          <path id="Path_895013" data-name="Path 895013" d="M62.672,14.678A1.506,1.506,0,0,1,62.9,14.4a1.922,1.922,0,0,0,.282-.592c.038-.116.256-.313.17-.445-.141-.215-.413.212-.5.282a.248.248,0,0,1-.291.031.321.321,0,0,1-.1-.181,6.58,6.58,0,0,1-.115-.658c-.018-.115-.045-.227-.07-.34a1.265,1.265,0,0,0-.05-.28.116.116,0,0,0-.172-.048c-.051.044-.022.1-.019.16.006.129.008.256.009.385,0,.028.02.157,0,.176-.117.1-.173-.246-.184-.3a.7.7,0,0,0-.166-.375.066.066,0,0,0-.049-.023c-.029,0-.039.041-.042.072-.011.175.042.35.026.526,0,.029-.01.062-.035.073-.1.045-.187-.17-.22-.238-.021-.043-.051-.094-.1-.091a.079.079,0,0,0-.064.06.239.239,0,0,0,0,.093,2.239,2.239,0,0,0,.036.277c.01.043.053.167,0,.195a.043.043,0,0,1-.034,0,.228.228,0,0,1-.088-.093c-.025-.035-.065-.069-.106-.06s-.069.078-.07.132a2.009,2.009,0,0,0,.118.572q.085.3.2.581a6.9,6.9,0,0,0,.34.74,1.064,1.064,0,0,0,.483.53.915.915,0,0,0,.2.048.891.891,0,0,0,.273.006.361.361,0,0,0,.234-.132.071.071,0,0,0,.016-.034.089.089,0,0,0-.01-.046,2.471,2.471,0,0,1-.134-.344.642.642,0,0,1,.012-.385" transform="translate(-14.103 -2.688)" fill="#cc8b6e"/>
          <path id="Path_895014" data-name="Path 895014" d="M40.05,17.5C39.383,16.5,39,13.064,39,13.064l.855.277,1.632,3.574s-.766,1.59-1.434.586" transform="translate(-9.025 -2.89)" fill="#fbb99d"/>
          <path id="Path_895015" data-name="Path 895015" d="M39.666,12.586a1.292,1.292,0,0,1,.172-.254,1.68,1.68,0,0,0,.192-.53c.024-.1.193-.29.108-.395-.138-.172-.336.217-.408.284a.214.214,0,0,1-.247.051.272.272,0,0,1-.1-.146,5.514,5.514,0,0,1-.154-.554c-.025-.1-.057-.19-.088-.284a1.091,1.091,0,0,0-.066-.235.1.1,0,0,0-.151-.026c-.04.041-.01.09,0,.138.016.11.028.219.04.329,0,.024.03.132.011.151-.091.092-.168-.2-.182-.241a.59.59,0,0,0-.174-.307.051.051,0,0,0-.043-.015c-.025.006-.031.039-.03.065.005.151.065.3.066.448,0,.024,0,.054-.025.065-.086.048-.174-.129-.208-.185-.022-.035-.051-.076-.091-.07a.069.069,0,0,0-.05.057.218.218,0,0,0,.006.08,2.03,2.03,0,0,0,.054.234c.013.036.059.139.015.167a.042.042,0,0,1-.029,0,.206.206,0,0,1-.083-.072.1.1,0,0,0-.1-.043c-.044.014-.053.072-.049.119a1.765,1.765,0,0,0,.148.479q.1.245.218.481c.149.294.361.558.483.865a.591.591,0,0,0,.065.133.378.378,0,0,0,.24.133.6.6,0,0,0,.5-.125c.042-.037.134-.107.13-.166,0-.042-.056-.1-.076-.14a1.38,1.38,0,0,1-.078-.164.553.553,0,0,1-.022-.33" transform="translate(-8.807 -2.316)" fill="#fbb99d"/>
          <path id="Path_895016" data-name="Path 895016" d="M40.092,17.782s1.213,2.708,2.591,3.136a1.845,1.845,0,0,0,2.105-.845s-2.905-1.749-3.455-3.347-1.24,1.056-1.24,1.056" transform="translate(-9.279 -3.587)" fill="#fbb99d"/>
          <path id="Path_895017" data-name="Path 895017" d="M4.53,40.352a2.891,2.891,0,0,0-2.272-.819A2.63,2.63,0,0,0,.13,41c-.212.4.569.255,1.307.062,1.864-.488,2.488.449,2.488.449Z" transform="translate(-0.022 -8.735)" fill="#8b482a"/>
          <path id="Path_895018" data-name="Path 895018" d="M3.6,39.676S.7,39.935.984,41.113c0,0-.768.432-.955-.026s.558-1.27,1.345-1.493c1.433-.407,1.4-.383,1.6-.384.627,0,.621.466.621.466" transform="translate(0 -8.673)" fill="#feb801"/>
          <path id="Path_895019" data-name="Path 895019" d="M26.761,58.44a2.975,2.975,0,0,0-.586,2.37,2.658,2.658,0,0,0,1.65,2c.415.175.2-.6-.065-1.324-.659-1.833.2-2.553.2-2.553Z" transform="translate(-6.038 -12.926)" fill="#8b482a"/>
          <path id="Path_895020" data-name="Path 895020" d="M26.174,59.693s.533,2.9,1.664,2.5c0,0,.5.733.065.965s-1.252-.461-1.6-1.213c-.513-1.121-.443-1-.49-1.2a.9.9,0,0,1,.357-1.048" transform="translate(-5.966 -13.203)" fill="#feb801"/>
          <path id="Path_895021" data-name="Path 895021" d="M25.364,18.126s-.122,1.685.508,1.744,1.822-.062,1.98-1.181a5.613,5.613,0,0,0-1.726-4.171,1,1,0,0,0-1.536.357s2.539.881.774,3.251" transform="translate(-5.691 -3.16)" fill="#29283b"/>
          <path id="Path_895022" data-name="Path 895022" d="M12.855,20.629c-1.279-.343-4.324-2.679-4.324-2.679l1.133-.317,3.721,1.676s.749,1.662-.53,1.32" transform="translate(-1.974 -3.9)" fill="#8b482a"/>
          <path id="Path_895023" data-name="Path 895023" d="M35.719,17.092c1-.874,2.738-4.322,2.738-4.322l-.876.077-2.907,3.29s.041,1.827,1.044.954" transform="translate(-8.025 -2.825)" fill="#8b482a"/>
          <path id="Path_895024" data-name="Path 895024" d="M38.386,11.9a1.3,1.3,0,0,0-.133-.276,1.661,1.661,0,0,1-.113-.554c-.008-.105-.148-.315-.049-.407.161-.15.3.264.361.342a.215.215,0,0,0,.237.088.271.271,0,0,0,.119-.13,5.6,5.6,0,0,0,.233-.525c.039-.091.084-.179.128-.268a1.144,1.144,0,0,1,.1-.223.1.1,0,0,1,.154,0c.034.048,0,.09-.018.138-.031.105-.06.212-.087.319-.006.023-.048.126-.033.148.078.105.2-.169.215-.211a.592.592,0,0,1,.217-.277.054.054,0,0,1,.045-.009c.023.01.025.043.02.069-.028.149-.108.283-.131.433a.071.071,0,0,0,.015.069c.078.06.191-.1.232-.152.026-.031.062-.068.1-.055a.067.067,0,0,1,.041.063.2.2,0,0,1-.018.078,1.933,1.933,0,0,1-.088.224c-.018.033-.078.129-.039.162a.035.035,0,0,0,.029.006.2.2,0,0,0,.092-.059.1.1,0,0,1,.1-.027c.042.02.042.079.031.125a1.728,1.728,0,0,1-.216.452q-.133.228-.285.442a5.787,5.787,0,0,1-.437.544.9.9,0,0,1-.513.34.719.719,0,0,1-.178,0,.761.761,0,0,1-.229-.052.311.311,0,0,1-.168-.16.064.064,0,0,1-.007-.031.075.075,0,0,1,.018-.037,2.31,2.31,0,0,0,.184-.259.557.557,0,0,0,.069-.323" transform="translate(-8.807 -2.192)" fill="#8b482a"/>
          <path id="Path_895025" data-name="Path 895025" d="M9.105,17.029a1.007,1.007,0,0,1-.025-.3,1.617,1.617,0,0,0-.144-.547c-.038-.1-.005-.349-.135-.386-.211-.061-.151.373-.172.47a.217.217,0,0,1-.173.186.265.265,0,0,1-.163-.062,5.655,5.655,0,0,1-.44-.364c-.075-.065-.154-.122-.232-.181-.059-.044-.121-.127-.188-.154a.1.1,0,0,0-.138.068c-.009.057.043.079.076.114.075.08.148.162.219.245.016.018.1.09.095.118-.022.129-.248-.062-.285-.091A.574.574,0,0,0,7.082,16a.053.053,0,0,0-.045.013c-.017.019,0,.049.012.07.09.121.221.2.308.327a.071.071,0,0,1,.017.069c-.043.089-.215,0-.274-.03-.038-.016-.085-.032-.115,0a.069.069,0,0,0-.008.075.207.207,0,0,0,.051.062,2.04,2.04,0,0,0,.177.16c.031.022.128.079.107.127a.035.035,0,0,1-.023.019.2.2,0,0,1-.108-.011.1.1,0,0,0-.1.021c-.028.037,0,.09.028.125a1.717,1.717,0,0,0,.393.306q.219.143.45.266c.194.1.392.19.594.273a3.193,3.193,0,0,0,.48.218.378.378,0,0,0,.334-.114,3.314,3.314,0,0,0,.228-.28c.083-.1.155-.208.038-.313a.418.418,0,0,0-.085-.054c-.078-.042-.156-.082-.235-.121a.4.4,0,0,1-.154-.091.283.283,0,0,1-.043-.083" transform="translate(-1.613 -3.47)" fill="#8b482a"/>
          <path id="Path_895026" data-name="Path 895026" d="M30.973,17.727c-.174-.94-1.337-1.371-1.337-1.371a14.721,14.721,0,0,1-5.113,3.389v0a15.049,15.049,0,0,1-5.917.238,19.163,19.163,0,0,1-5.766-1.653,1.725,1.725,0,0,0-.822,1.524A25.754,25.754,0,0,0,18.224,23.1a9.906,9.906,0,0,1,.92,2.181c.9,3.173-.948,2.833-.64,3.558.553,1.3,4.043,1.864,6.023,1.083.7-.276.976-.659.811-1.023-1.175-2.588.886-3.718.35-5.266a3.79,3.79,0,0,1-.175-.807,33.089,33.089,0,0,0,5.461-5.1" transform="translate(-2.779 -3.618)" fill="#2f7edd"/>
          <path id="Path_895027" data-name="Path 895027" d="M24.891,23.265a1.54,1.54,0,0,0,1.333-2.356l-.1.022a1.45,1.45,0,0,1-.343,1.864,2.19,2.19,0,0,1-2.388-.283,4.452,4.452,0,0,1-1.261-1.4L21.95,21.1a3.914,3.914,0,0,0,2.941,2.168" transform="translate(-5.08 -4.625)" fill="#fdfefd"/>
          <path id="Path_895028" data-name="Path 895028" d="M23.579,17.908s1.939.526,1.8.714.028.612-.005,1a2.388,2.388,0,0,0,.444,1.358c.2.322-.1.625-.466.667a2.305,2.305,0,0,1-2.262-1c.669-.75.487-2.739.487-2.739" transform="translate(-5.344 -3.961)" fill="#8b482a"/>
          <path id="Path_895029" data-name="Path 895029" d="M25.522,19.625c.033-.391-.132-.815.005-1s-1.8-.714-1.8-.714a2.266,2.266,0,0,1,.245,1.05,8.586,8.586,0,0,0,1.638,1.309,2.232,2.232,0,0,1-.086-.642" transform="translate(-5.491 -3.961)" fill="#612c13"/>
          <path id="Path_895030" data-name="Path 895030" d="M25.291,14.541c.672.573,2.057,2.937.925,4.156-.483.521-1.977-.091-2.808-1.246a2.992,2.992,0,0,1-.027-2.557,1.252,1.252,0,0,1,1.909-.353" transform="translate(-5.349 -3.148)" fill="#8b482a"/>
          <path id="Path_895031" data-name="Path 895031" d="M26.075,15.742c-.115.25-.084-.343-.654-.541a1.09,1.09,0,0,0-.22-.044.49.49,0,0,0-.188.008.306.306,0,0,0-.205.292,1.373,1.373,0,0,1-.339.731,1.929,1.929,0,0,0-.418.793,1.1,1.1,0,0,1-.063.261.788.788,0,0,0-.079.328c0,.111.019.22.025.33a.422.422,0,0,1-.145.382.794.794,0,0,1-.154.109.845.845,0,0,1-.369.106.821.821,0,0,1-.728-.4,2.452,2.452,0,0,1-.224-1.53,7.167,7.167,0,0,1,.193-1.053,1.63,1.63,0,0,1,.5-.819A2.174,2.174,0,0,1,24.8,14.2c1.517.282,1.368,1.344,1.277,1.541" transform="translate(-5.158 -3.134)" fill="#29283b"/>
          <path id="Path_895032" data-name="Path 895032" d="M23.772,17.969s.228,1.52-.319,1.633-1.6.118-1.821-.882a5.361,5.361,0,0,1,1.213-3.956.85.85,0,0,1,1.371.178,1.786,1.786,0,0,0-.444,3.028" transform="translate(-4.995 -3.204)" fill="#29283b"/>
          <path id="Path_895033" data-name="Path 895033" d="M27.474,23.528s.719-2.567,1.425-.057c0,0,1.692,3.467-1.34,3.843-2.474.307-.541-3.189-.541-3.189Z" transform="translate(-6.087 -4.948)" fill="#2f7edd"/>
          <path id="Path_895034" data-name="Path 895034" d="M29.245,27.215a1.523,1.523,0,0,1-.472.581,1.647,1.647,0,0,1-1.854-.29c-.114-.078-.221.109-.107.186a1.876,1.876,0,0,0,2.007.33,1.567,1.567,0,0,0,.631-.749c.051-.129-.154-.185-.205-.058" transform="translate(-6.194 -6.004)" fill="#2566bb"/>
          <path id="Path_895035" data-name="Path 895035" d="M25.167,27.545a1.644,1.644,0,0,1-2.57-.1c-.089-.106-.239.048-.151.153a1.848,1.848,0,0,0,2.871.1c.1-.1-.053-.251-.151-.153" transform="translate(-5.188 -6.062)" fill="#2566bb"/>
          <path id="Path_895036" data-name="Path 895036" d="M20.56,24.255a.564.564,0,0,1-.5.508c-.094.019-.054.164.04.146a.71.71,0,0,0,.613-.653.074.074,0,0,0-.148,0" transform="translate(-4.629 -5.349)" fill="#2566bb"/>
          <path id="Path_895037" data-name="Path 895037" d="M29.175,23.541a.711.711,0,0,0,.614.653c.093.019.133-.126.039-.146a.565.565,0,0,1-.5-.508.074.074,0,0,0-.148,0" transform="translate(-6.752 -5.191)" fill="#2566bb"/>
          <path id="Path_895038" data-name="Path 895038" d="M37.282,14.026c-.208-.491.7-.151.836-.076a.809.809,0,0,1,.374.326.2.2,0,0,1-.287.262c-.069-.044-.136.065-.067.109a.316.316,0,0,0,.483-.184c.081-.246-.147-.439-.331-.561a1.392,1.392,0,0,0-.864-.278.313.313,0,0,0-.254.462c.032.076.143.014.111-.062" transform="translate(-8.595 -3.013)" fill="#fec44f"/>
          <path id="Path_895039" data-name="Path 895039" d="M37.471,13.549c-.208-.491.7-.151.836-.076a.809.809,0,0,1,.374.326.2.2,0,0,1-.287.262c-.069-.044-.136.065-.067.109a.316.316,0,0,0,.483-.184c.081-.246-.147-.439-.33-.561a1.388,1.388,0,0,0-.864-.277.313.313,0,0,0-.255.461c.032.076.144.014.111-.062" transform="translate(-8.638 -2.907)" fill="#fec44f"/>
          <path id="Path_895040" data-name="Path 895040" d="M21.506,16.418s-.274,1.184-.981.624-.695.126-.623.536c.118.686-.4.479-.58.787-.826,1.435,2.647,3.776,3.814,1.463.506-1-1.631-3.41-1.631-3.41" transform="translate(-4.443 -3.632)" fill="#29283b"/>
          <path id="Path_895041" data-name="Path 895041" d="M17.447,30.991c-1.913,1.52-2.371,2.364-3.366,8.712-.2,1.263-1.021.868-1.426.724L5.661,37.912a.638.638,0,0,0-.746.258A1.778,1.778,0,0,0,4.6,39.833a.613.613,0,0,0,.164.216c.807.7,7.257,4.792,9.685,4.527,5.768-.629,6.646-11.056,6.646-11.056a13.581,13.581,0,0,0,1.126-2.137Z" transform="translate(-1.041 -6.855)" fill="#f6ae5c"/>
          <path id="Path_895042" data-name="Path 895042" d="M18.8,31.271a4.631,4.631,0,0,0-2.537,2.344,10.137,10.137,0,0,0-.908,3.9c-.081.884.049,2.942-.694,3.629-.925.856-3.8-.813-4.684-1.176Q7.625,39,5.306,37.958c-.111-.05-.209.118-.1.167q2.271,1.019,4.574,1.967c1.058.434,2.124.882,3.216,1.22a2.5,2.5,0,0,0,1.353.2c1.23-.356,1.08-2.791,1.171-3.745.217-2.273.729-5.544,3.327-6.305a.1.1,0,0,0-.051-.187" transform="translate(-1.194 -6.916)" fill="#ec3b59"/>
          <path id="Path_895043" data-name="Path 895043" d="M20.631,33.878a1.476,1.476,0,0,1-.859-.291l.085-.124a1.281,1.281,0,0,0,1.1.221c1.225-.322,2.2-2.315,2.213-2.334l.133.066c-.041.084-1.018,2.075-2.308,2.414a1.453,1.453,0,0,1-.366.048" transform="translate(-4.576 -6.934)" fill="#ec3b59"/>
          <path id="Path_895044" data-name="Path 895044" d="M23.234,30.978l-1.887-.026a3.383,3.383,0,0,1,1.887.026" transform="translate(-4.94 -6.816)" fill="#fc636b"/>
          <path id="Path_895045" data-name="Path 895045" d="M30.276,43.657c.039,2.685-2.282,8.315-2.815,9.541a.613.613,0,0,1-.335.347.43.43,0,0,1-.085.033c-.02.007-.046.007-.066.013a1.668,1.668,0,0,1-1.25-.407.781.781,0,0,1-.3-.7l.381-8.682a3.232,3.232,0,0,0,0-.939c-1.664-5.843-2.894-9.055-2.071-10.495.433-.766.322-1.16-.013-1.346l3.932.06a46.037,46.037,0,0,1,2.617,12.573" transform="translate(-5.434 -6.862)" fill="#f6ae5c"/>
          <path id="Path_895046" data-name="Path 895046" d="M28.178,53.6a.484.484,0,0,1-.085.033c-.02.006-.046.006-.066.013a.032.032,0,0,1,0-.033c1.592-4.3,3.393-8.449,2.5-13.1a52.188,52.188,0,0,0-2.183-9.175c-.033-.08.1-.12.131-.04A50.833,50.833,0,0,1,30.808,41.3c.717,4.252-1.184,8.4-2.63,12.294" transform="translate(-6.485 -6.912)" fill="#ec3b59"/>
          <path id="Path_895047" data-name="Path 895047" d="M25.716,31.244a13.133,13.133,0,0,1-.963,7c-.038.078.077.146.115.069a13.263,13.263,0,0,0,.981-7.072c-.009-.086-.143-.086-.134,0" transform="translate(-5.727 -6.897)" fill="#ec3b59"/>
          <path id="Path_895048" data-name="Path 895048" d="M25.069,31.048c-.14.685-.946,4.977.669,4.2.078-.037.01-.154-.068-.117-1.276.61-.6-3.442-.473-4.052.017-.085-.111-.121-.129-.036" transform="translate(-5.727 -6.857)" fill="#ec3b59"/>
          <path id="Path_895049" data-name="Path 895049" d="M28.691,34.155a1.166,1.166,0,0,1-.71-.227,2.572,2.572,0,0,1-.648-2.254l.148.007c-.05,1.08.148,1.794.587,2.125a1.163,1.163,0,0,0,1.008.139l.05.142a1.359,1.359,0,0,1-.435.069" transform="translate(-6.324 -7.006)" fill="#ec3b59"/>
          <path id="Path_895050" data-name="Path 895050" d="M21.139,30.946a10.752,10.752,0,0,0,6.165.393l-.125-.793a9.886,9.886,0,0,1-5.76-.339Z" transform="translate(-4.892 -6.682)" fill="#29283b"/>
          <path id="Path_895051" data-name="Path 895051" d="M23.284,30.623l-.47.847.382.148.329-.964Z" transform="translate(-5.28 -6.774)" fill="#fc636b"/>
          <path id="Path_895052" data-name="Path 895052" d="M27.824,30.719l.089,1.076.493-.026-.291-1.108Z" transform="translate(-6.439 -6.782)" fill="#fc636b"/>
          <path id="Path_895053" data-name="Path 895053" d="M24.356,18.093s-.556-.518-.862-.369.124,1.034.757.912.276-.4.105-.543" transform="translate(-5.414 -3.914)" fill="#8b482a"/>
          <path id="Path_895054" data-name="Path 895054" d="M23.991,18.833a.23.23,0,1,0,.244-.224.233.233,0,0,0-.244.224" transform="translate(-5.552 -4.116)" fill="#fec44f"/>
          <path id="Path_895055" data-name="Path 895055" d="M33.92,17.352a1.333,1.333,0,0,1,1.216,1.4.124.124,0,0,0,.247,0A1.584,1.584,0,0,0,33.92,17.1c-.159-.007-.159.244,0,.251" transform="translate(-7.823 -3.783)" fill="#2566bb"/>
          <path id="Path_895056" data-name="Path 895056" d="M13.069,21.09a1.353,1.353,0,0,1,.836-1.688c.145-.065.019-.281-.125-.217a1.594,1.594,0,0,0-.95,1.973c.052.151.292.086.239-.067" transform="translate(-2.95 -4.241)" fill="#2566bb"/>
          <path id="Path_895057" data-name="Path 895057" d="M25.4,17.779c-.015-.011.017.011.023.014a.354.354,0,0,0,.079.033c.108.026.169-.039.209-.129.025-.057.112-.01.087.047a.289.289,0,0,1-.467.105c-.051-.037.018-.106.068-.069" transform="translate(-5.858 -3.909)" fill="#1e100c"/>
          <path id="Path_895058" data-name="Path 895058" d="M26.793,17.525a.332.332,0,0,0,.083.075c.1.064.171.005.224-.086.032-.054.118-.007.087.047-.062.107-.161.2-.3.153a.4.4,0,0,1-.181-.138c-.039-.05.045-.1.084-.051" transform="translate(-6.179 -3.869)" fill="#1e100c"/>
          <path id="Path_895059" data-name="Path 895059" d="M26.98,16.795a.293.293,0,0,0-.375.15c-.037.068-.136,0-.1-.065a.4.4,0,0,1,.512-.2c.072.026.035.141-.038.114" transform="translate(-6.132 -3.683)" fill="#612c13"/>
          <path id="Path_895060" data-name="Path 895060" d="M25.674,17.115a.291.291,0,0,0-.4.041c-.054.055-.131-.036-.078-.09a.4.4,0,0,1,.546-.051c.062.045,0,.145-.067.1" transform="translate(-5.827 -3.745)" fill="#612c13"/>
          <path id="Path_895061" data-name="Path 895061" d="M26.325,17.34a.6.6,0,0,0-.029.333c.038.157.208.232.3.364.123.18-.011.28-.223.331-.051.012-.073-.054-.022-.066.477-.115-.062-.384-.126-.586a.644.644,0,0,1,.022-.395c.015-.042.095-.024.08.019" transform="translate(-6.064 -3.826)" fill="#612c13"/>
          <path id="Path_895062" data-name="Path 895062" d="M25.9,18.911s-.048.411.29.428.391-.351.391-.351Z" transform="translate(-5.992 -4.183)" fill="#faffff"/>
          <path id="Path_895063" data-name="Path 895063" d="M25.069,18.654a.23.23,0,0,0,.286.159.234.234,0,0,0,.157-.29.23.23,0,0,0-.286-.159.234.234,0,0,0-.157.29" transform="translate(-5.8 -4.06)" fill="#612c13"/>
          <path id="Path_895064" data-name="Path 895064" d="M27.4,18.158a.23.23,0,0,0-.329.023.238.238,0,0,0,.022.333.231.231,0,0,0,.33-.023.239.239,0,0,0-.022-.333" transform="translate(-6.251 -4.004)" fill="#612c13"/>
          <path id="Path_895065" data-name="Path 895065" d="M25.379,18.328a.587.587,0,1,1,.58-.587.584.584,0,0,1-.58.587m0-1.007a.42.42,0,1,0,.414.42.418.418,0,0,0-.414-.42" transform="translate(-5.739 -3.794)" fill="#2f7edd"/>
          <path id="Path_895066" data-name="Path 895066" d="M26.944,18a.56.56,0,1,1,.553-.56.557.557,0,0,1-.553.56m0-.953a.393.393,0,1,0,.388.393.391.391,0,0,0-.388-.393" transform="translate(-6.108 -3.733)" fill="#2f7edd"/>
          <path id="Path_895152" data-name="Path 895152" d="M0,0H.268V.083H0Z" transform="translate(20.117 13.901) rotate(-8.584)" fill="#2f7edd"/>
          <path id="Path_895067" data-name="Path 895067" d="M24.6,17.906l-.683-.254s-.257-.086-.3.051l-.078-.027c.022-.064.081-.137.241-.134a.666.666,0,0,1,.168.03l.684.255Z" transform="translate(-5.447 -3.88)" fill="#2f7edd"/>
          <path id="Path_895068" data-name="Path 895068" d="M46.386,60.688s-.388.4-.845.938-.8,1.1-.16,1.358,1.416-.375,1.668-.749.536-.334.882-.583.164-1.174.164-1.174Z" transform="translate(-10.421 -13.377)" fill="#612c13"/>
          <path id="Path_895069" data-name="Path 895069" d="M48.031,61.577c-.368.265-.671.222-.938.621S46,63.27,45.318,63a.668.668,0,0,1-.287-.2c.007.168.108.311.35.408.64.258,1.416-.375,1.668-.749s.536-.334.882-.583a.589.589,0,0,0,.2-.4.388.388,0,0,1-.1.1" transform="translate(-10.422 -13.597)" fill="#421f13"/>
          <path id="Path_895070" data-name="Path 895070" d="M51.944,22.894c-.487-1.58-2.833-1.661-4.741-1.368-1.287.2-2.976-1.76-2.976-1.76L42.358,21.6a11.364,11.364,0,0,0,2.587,2.171c.892.52.158,5.632.786,6.834,0,0,2.149,1.608,7.106-.332a25.925,25.925,0,0,0-.894-7.382" transform="translate(-9.803 -4.372)" fill="#5f509b"/>
          <path id="Path_895071" data-name="Path 895071" d="M45.685,24.868a.663.663,0,0,0,.7-.465c.035-.09-.108-.129-.144-.04a.543.543,0,0,1-.519.36c-.093-.014-.134.131-.039.145" transform="translate(-10.56 -5.378)" fill="#4f4186"/>
          <path id="Path_895072" data-name="Path 895072" d="M50.08,22.821a67.876,67.876,0,0,0,.609,8.546l.609.038a38.778,38.778,0,0,1-.693-8.584Z" transform="translate(-11.59 -5.048)" fill="#fdfefd"/>
          <path id="Path_895073" data-name="Path 895073" d="M50.795,35.922c-.935,1.037-2.446,18.854-2.446,18.854a2.556,2.556,0,0,1-2.336,0c-1.013-8.517.241-21.168.241-21.168Z" transform="translate(-10.557 -7.434)" fill="#feb801"/>
          <path id="Path_895074" data-name="Path 895074" d="M48.168,33.892C47.023,40.756,46,48.117,46.827,55.059c.019.159.267.16.247,0-.825-6.917.191-14.265,1.332-21.1.026-.158-.212-.226-.239-.067" transform="translate(-10.768 -7.477)" fill="#fb8245"/>
          <path id="Path_895075" data-name="Path 895075" d="M55.536,60.569s.4.414.878.974.831,1.144.167,1.411-1.472-.389-1.732-.779-.557-.347-.916-.605-.171-1.219-.171-1.219Z" transform="translate(-12.43 -13.349)" fill="#612c13"/>
          <path id="Path_895076" data-name="Path 895076" d="M53.835,61.492c.382.276.7.231.975.645s1.136,1.113,1.843.828a.69.69,0,0,0,.3-.206c-.007.174-.111.322-.364.424-.665.268-1.471-.389-1.732-.779s-.557-.347-.916-.606a.61.61,0,0,1-.2-.414.418.418,0,0,0,.1.108" transform="translate(-12.436 -13.577)" fill="#421f13"/>
          <path id="Path_895077" data-name="Path 895077" d="M48.946,35.619C49.917,36.7,52,54.554,52,54.554a2.656,2.656,0,0,0,2.427,0c1.051-8.847-.486-21.547-.486-21.547s-8.192,1.606-7.221.529Z" transform="translate(-10.795 -7.301)" fill="#feb801"/>
          <path id="Path_895078" data-name="Path 895078" d="M54.072,33.36c1.189,6.973,2.253,14.45,1.392,21.5-.019.161-.277.163-.257,0,.858-7.026-.2-14.491-1.383-21.435-.027-.16.221-.229.248-.068" transform="translate(-12.456 -7.359)" fill="#fb8245"/>
          <path id="Path_895079" data-name="Path 895079" d="M47.25,33.926c.015.8-.072,2.636-1.164,2.635a.126.126,0,0,0,0,.252c1.284,0,1.429-1.932,1.411-2.886a.124.124,0,0,0-.247,0" transform="translate(-10.638 -7.477)" fill="#fb8245"/>
          <path id="Path_895080" data-name="Path 895080" d="M55.25,33.844a9.165,9.165,0,0,0,.233,1.629c.116.476.31,1.22.887,1.282.158.018.16-.234,0-.251-.526-.057-.666-1.116-.738-1.517a9.634,9.634,0,0,1-.137-1.14c-.009-.16-.257-.164-.247,0" transform="translate(-12.787 -7.46)" fill="#fb8245"/>
          <path id="Path_895081" data-name="Path 895081" d="M46.409,33.631s4.647.912,7.552-.492l-.2-.75a14.422,14.422,0,0,1-7.28.381Z" transform="translate(-10.741 -7.164)" fill="#29283b"/>
          <path id="Path_895082" data-name="Path 895082" d="M49.367,33.007h.413l.1,1.254H49.2Z" transform="translate(-11.386 -7.301)" fill="#feb801"/>
          <path id="Path_895083" data-name="Path 895083" d="M53.172,32.794l.3-.1.513,1.15-.615.195Z" transform="translate(-12.306 -7.233)" fill="#feb801"/>
          <path id="Path_895084" data-name="Path 895084" d="M50.263,23.983a.13.13,0,0,1-.012-.188.141.141,0,0,1,.194-.011.131.131,0,0,1,.011.189.14.14,0,0,1-.194.01" transform="translate(-11.622 -5.253)" fill="#30255b"/>
          <path id="Path_895085" data-name="Path 895085" d="M50.263,25.6a.13.13,0,0,1-.012-.188.141.141,0,0,1,.194-.011.13.13,0,0,1,.011.188.14.14,0,0,1-.194.011" transform="translate(-11.622 -5.61)" fill="#30255b"/>
          <path id="Path_895086" data-name="Path 895086" d="M50.341,27.074a.141.141,0,0,1,.194-.011.131.131,0,0,1,.011.189.141.141,0,0,1-.194.01.13.13,0,0,1-.011-.188" transform="translate(-11.642 -5.979)" fill="#30255b"/>
          <path id="Path_895087" data-name="Path 895087" d="M50.716,29.02a.13.13,0,0,1,.011.188.141.141,0,0,1-.194.011.131.131,0,0,1-.011-.189.141.141,0,0,1,.194-.01" transform="translate(-11.684 -6.412)" fill="#30255b"/>
          <path id="Path_895088" data-name="Path 895088" d="M50.876,31.252a.134.134,0,0,1,.01.188.13.13,0,0,1-.186.011.135.135,0,0,1-.01-.188.13.13,0,0,1,.186-.011" transform="translate(-11.723 -6.905)" fill="#30255b"/>
          <path id="Path_895089" data-name="Path 895089" d="M51.067,19.326s-1.966.428-1.856.59-.081.491-.088.808a1.812,1.812,0,0,1-.534,1.057c-.211.244.164.534.5.6,1.443.275,2.353-.271,2.049-.745a2.539,2.539,0,0,1-.071-2.308" transform="translate(-11.231 -4.275)" fill="#fbb99d"/>
          <path id="Path_895090" data-name="Path 895090" d="M49.269,20.715c0-.318.2-.646.087-.808s2.011-.624,2.011-.624a1.557,1.557,0,0,0-.377.835,5.934,5.934,0,0,1-1.838,1.047,1.252,1.252,0,0,0,.118-.45" transform="translate(-11.375 -4.266)" fill="#dc8162"/>
          <path id="Path_895091" data-name="Path 895091" d="M48.959,16.307c-.773.592-1.433,2.637-.623,3.611.444.535,2.061-.033,2.82-1.2a2.546,2.546,0,0,0-.064-1.963,1.576,1.576,0,0,0-2.133-.451" transform="translate(-11.101 -3.551)" fill="#fbb99d"/>
          <path id="Path_895092" data-name="Path 895092" d="M48.1,17.788c0,.125.174-1.237.93-1.329.307-.037.238.291.595.318.3.023,1.218-.6.866,1.241-.017.088.066.192.106.272.05.1-.105.321-.1.431s.317-.219.311-.114c-.009.16-.283.608-.055.669.271.073.616-.842.734-1.7.031-.22.213-1.076.226-1.262.029-.393-1.582-.847-2.419-.846-.494,0-.654.551-.82.977a3.691,3.691,0,0,0-.37,1.34" transform="translate(-11.131 -3.422)" fill="#612c13"/>
          <path id="Path_895093" data-name="Path 895093" d="M50.885,19.218s.558-.5.866-.354-.125.994-.76.876-.277-.387-.106-.522" transform="translate(-11.717 -4.167)" fill="#fbb99d"/>
          <path id="Path_895094" data-name="Path 895094" d="M47.155,26.243H48.57l-.075-.076c.032.442.021,1.342-.509,1.484-.5.134-.822-.333-.845-.774a2.056,2.056,0,0,1,.085-.69.074.074,0,0,0-.143-.04c-.2.66-.091,1.74.826,1.668.712-.056.772-1.106.734-1.649a.075.075,0,0,0-.074-.075H47.155a.075.075,0,0,0,0,.15" transform="translate(-10.877 -5.772)" fill="#4f4186"/>
          <path id="Path_895095" data-name="Path 895095" d="M53.488,25.75l-1.467.162a.077.077,0,0,0-.075.076c-.007.642.2,1.724,1.041,1.625s.759-1.2.572-1.808a.074.074,0,0,0-.143.04c.162.528.29,1.583-.5,1.623-.695.035-.831-.955-.825-1.481l-.074.076,1.467-.163c.094-.01.1-.161,0-.15" transform="translate(-12.022 -5.696)" fill="#4f4186"/>
          <path id="Path_895096" data-name="Path 895096" d="M48.631,16.085a4.684,4.684,0,0,0,.107-1.333.962.962,0,0,1,.159.49c0,.269.248-.931.248-.931s-.028.742.048.784.194-.308.194-.308l.139.217.194-.154L49.8,15l.3-.132.068.146.368-.532-.062.6.214-.126.092.2.178-.1s.152.15.173.146.261-.657.261-.657l-.033.882.2-.084s-.022.224.033.168a4.95,4.95,0,0,1,.588-.393,5.807,5.807,0,0,0-.489,1.646c-.085.833-.624-.61-.624-.61Z" transform="translate(-11.255 -3.165)" fill="#612c13"/>
          <path id="Path_895097" data-name="Path 895097" d="M50.405,18.9c.015-.009-.018.009-.024.012a.324.324,0,0,1-.081.027c-.11.019-.166-.051-.2-.144-.021-.058-.111-.018-.091.04a.289.289,0,0,0,.458.139c.054-.033-.01-.107-.063-.074" transform="translate(-11.573 -4.15)" fill="#1e100c"/>
          <path id="Path_895098" data-name="Path 895098" d="M49.031,18.543a.327.327,0,0,1-.088.069c-.105.056-.171-.007-.217-.1-.028-.056-.118-.016-.09.04.055.111.146.208.284.174a.4.4,0,0,0,.191-.125c.042-.047-.039-.1-.081-.056" transform="translate(-11.255 -4.088)" fill="#1e100c"/>
          <path id="Path_895099" data-name="Path 895099" d="M48.851,17.887a.293.293,0,0,1,.364.177c.032.07.136.011.1-.058a.4.4,0,0,0-.5-.235c-.074.022-.045.138.029.117" transform="translate(-11.289 -3.927)" fill="#612c13"/>
          <path id="Path_895100" data-name="Path 895100" d="M50.12,18.3a.291.291,0,0,1,.4.07c.051.059.134-.026.085-.085a.4.4,0,0,0-.54-.09c-.065.041-.006.145.059.1" transform="translate(-11.579 -4.01)" fill="#612c13"/>
          <path id="Path_895101" data-name="Path 895101" d="M49.512,18.4a.6.6,0,0,1,.005.334c-.05.153-.224.217-.323.341-.135.171-.009.28.2.347.051.016.077-.048.027-.064-.467-.15.089-.379.168-.576a.647.647,0,0,0,.006-.395c-.012-.044-.093-.031-.081.012" transform="translate(-11.372 -4.061)" fill="#dc8162"/>
          <path id="Path_895102" data-name="Path 895102" d="M49.771,20s.019.414-.319.406-.366-.379-.366-.379Z" transform="translate(-11.36 -4.424)" fill="#faffff"/>
          <path id="Path_895103" data-name="Path 895103" d="M50.676,19.8a.229.229,0,0,1-.3.138.235.235,0,0,1-.137-.3.231.231,0,0,1,.3-.138.235.235,0,0,1,.136.3" transform="translate(-11.625 -4.309)" fill="#f3a498"/>
          <path id="Path_895104" data-name="Path 895104" d="M48.29,19.06a.231.231,0,0,1,.327.046.239.239,0,0,1-.046.332.231.231,0,0,1-.327-.047.238.238,0,0,1,.046-.331" transform="translate(-11.154 -4.205)" fill="#f3a498"/>
          <path id="Path_895105" data-name="Path 895105" d="M58.88,19.806c.865-1,1.753-4.7,1.753-4.7l-.971.183-2.268,3.674s.619,1.843,1.486.841" transform="translate(-13.283 -3.342)" fill="#fbb99d"/>
          <path id="Path_895106" data-name="Path 895106" d="M60.214,14.453a1.464,1.464,0,0,0-.154-.3,1.82,1.82,0,0,1-.138-.606c-.012-.115-.171-.343-.065-.446.175-.168.337.283.407.368a.237.237,0,0,0,.263.09.3.3,0,0,0,.128-.146,5.939,5.939,0,0,0,.244-.583c.04-.1.087-.2.134-.3a1.2,1.2,0,0,1,.1-.248.11.11,0,0,1,.168-.007c.038.051,0,.1-.015.152-.032.117-.06.234-.088.353-.007.026-.051.139-.032.164.087.114.209-.191.231-.238a.651.651,0,0,1,.231-.311.064.064,0,0,1,.051-.01c.025.01.028.047.022.075-.026.164-.111.315-.133.48a.078.078,0,0,0,.018.075c.088.064.208-.117.252-.173.028-.035.066-.076.109-.063a.077.077,0,0,1,.047.069.22.22,0,0,1-.018.086,2,2,0,0,1-.091.248c-.018.037-.083.144-.039.18a.042.042,0,0,0,.032.006.226.226,0,0,0,.1-.067.108.108,0,0,1,.11-.033c.046.021.048.086.037.136a1.879,1.879,0,0,1-.227.5c-.093.17-.194.334-.3.495-.2.3-.471.558-.646.877a.642.642,0,0,1-.088.136.417.417,0,0,1-.281.111.656.656,0,0,1-.53-.206c-.041-.047-.131-.136-.118-.2.008-.046.075-.105.1-.143a1.721,1.721,0,0,0,.107-.168.619.619,0,0,0,.068-.357" transform="translate(-13.844 -2.707)" fill="#fbb99d"/>
          <path id="Path_895107" data-name="Path 895107" d="M58.191,20.074s-1.692,2.787-3.256,3.061a1.382,1.382,0,0,1-1.759-1.109s2.986-1.611,3.8-3.278,1.21,1.326,1.21,1.326" transform="translate(-12.307 -4.035)" fill="#fbb99d"/>
          <path id="Path_895108" data-name="Path 895108" d="M52.915,23.481c1.539,1.586,4.469-1.857,4.469-1.857l-1.324-1.99s-4.648,2.3-3.145,3.847" transform="translate(-12.177 -4.343)" fill="#5f509b"/>
          <path id="Path_895109" data-name="Path 895109" d="M54.152,24.359a.657.657,0,0,0,.653.5c.1.007.1-.143,0-.15a.51.51,0,0,1-.51-.394c-.013-.1-.156-.055-.142.04" transform="translate(-12.532 -5.367)" fill="#4f4186"/>
          <path id="Path_895110" data-name="Path 895110" d="M94.85,49.428s.284.472.684,1.044.852,1.037,1.251.474-.012-1.47-.307-1.8-.187-.6-.34-1-1.074-.434-1.074-.434Z" transform="translate(-21.951 -10.553)" fill="#612c13"/>
          <path id="Path_895111" data-name="Path 895111" d="M96.173,48.022c.162.421.048.706.361,1.061s.752,1.318.327,1.917a.677.677,0,0,1-.259.234.46.46,0,0,0,.473-.247c.4-.564-.012-1.47-.307-1.8s-.187-.6-.34-1A.569.569,0,0,0,96.1,47.9a.388.388,0,0,1,.076.118" transform="translate(-22.24 -10.596)" fill="#421f13"/>
          <path id="Path_895112" data-name="Path 895112" d="M89.914,44.325a2.465,2.465,0,0,1-.35,2.238c-3.19-.1-10.229-.316-11.466-1.07a46.824,46.824,0,0,1-5.783-4.928l-.626-7.308,4.9,1.139,3.7,6.97Z" transform="translate(-16.591 -7.356)" fill="#2f7edd"/>
          <path id="Path_895113" data-name="Path 895113" d="M79.33,30.082s-2.215-2.323-2.21-4a1.9,1.9,0,0,1,1.326-1.988s.9,3.813,2.26,5-1.377.989-1.377.989" transform="translate(-17.848 -5.329)" fill="#cc8b6e"/>
          <path id="Path_895114" data-name="Path 895114" d="M76.256,22.7C74.124,23.949,77,28.14,77,28.14l2.5-.9s-1.168-5.763-3.247-4.541" transform="translate(-17.466 -4.983)" fill="#685700"/>
          <path id="Path_895115" data-name="Path 895115" d="M79.5,30.9c.756,1.1,3.91,2.773,3.91,2.773l.135-1.076-3.057-3.07s-1.743.27-.988,1.373" transform="translate(-18.356 -6.531)" fill="#cc8b6e"/>
          <path id="Path_895116" data-name="Path 895116" d="M75.463,40.6l-8.576-6.131.169-1.255,8.155-.628Z" transform="translate(-15.48 -7.208)" fill="#2f7edd"/>
          <path id="Path_895117" data-name="Path 895117" d="M68.1,23.158c.552-1.79,3.209-1.882,5.371-1.551,1.457.224,2.395.7,2.557,2.548.1,1.177-.216,6.322-.928,7.684,0,0-2.482,1.408-8.013-.319A29.361,29.361,0,0,1,68.1,23.158" transform="translate(-15.524 -4.746)" fill="#685700"/>
          <path id="Path_895118" data-name="Path 895118" d="M73.371,22.553a76.825,76.825,0,0,1-.689,9.681l-.69.043a44,44,0,0,0,.785-9.724Z" transform="translate(-16.661 -4.989)" fill="#fdfefd"/>
          <path id="Path_895119" data-name="Path 895119" d="M75.369,34.8s-5.263,1.033-8.554-.558l.224-.85a16.331,16.331,0,0,0,8.246.431Z" transform="translate(-15.463 -7.386)" fill="#29283b"/>
          <path id="Path_895120" data-name="Path 895120" d="M70.008,33.85l-.339-.107-.58,1.3.7.22Z" transform="translate(-15.989 -7.463)" fill="#2f7edd"/>
          <path id="Path_895121" data-name="Path 895121" d="M73.486,23.869a.147.147,0,0,0,.012-.213.16.16,0,0,0-.221-.012.148.148,0,0,0-.012.214.159.159,0,0,0,.221.012" transform="translate(-16.947 -5.221)" fill="#2f7edd"/>
          <path id="Path_895122" data-name="Path 895122" d="M73.486,25.7a.147.147,0,0,0,.012-.213.16.16,0,0,0-.221-.012.148.148,0,0,0-.012.214.159.159,0,0,0,.221.012" transform="translate(-16.947 -5.625)" fill="#2f7edd"/>
          <path id="Path_895123" data-name="Path 895123" d="M73.4,27.371a.159.159,0,0,0-.221-.012.147.147,0,0,0-.012.213.159.159,0,0,0,.221.012.147.147,0,0,0,.012-.213" transform="translate(-16.923 -6.043)" fill="#2f7edd"/>
          <path id="Path_895124" data-name="Path 895124" d="M72.972,29.574a.147.147,0,0,0-.012.213.16.16,0,0,0,.221.012.148.148,0,0,0,.012-.214.159.159,0,0,0-.221-.012" transform="translate(-16.876 -6.533)" fill="#2f7edd"/>
          <path id="Path_895125" data-name="Path 895125" d="M72.795,32.1a.153.153,0,0,0-.012.214.148.148,0,0,0,.211.012.153.153,0,0,0,.012-.214.147.147,0,0,0-.211-.012" transform="translate(-16.836 -7.092)" fill="#2f7edd"/>
          <path id="Path_895126" data-name="Path 895126" d="M74.227,18.594s-2.226.484-2.1.669-.093.555-.1.915a2.053,2.053,0,0,1-.606,1.2c-.24.276.187.605.566.678,1.635.312,2.666-.307,2.321-.843a2.878,2.878,0,0,1-.081-2.614" transform="translate(-16.513 -4.113)" fill="#cc8b6e"/>
          <path id="Path_895127" data-name="Path 895127" d="M72.148,20.167c.005-.36.223-.731.1-.915s2.278-.706,2.278-.706a1.759,1.759,0,0,0-.427.945,4.409,4.409,0,0,1-2.221,1.435,1.86,1.86,0,0,0,.272-.759" transform="translate(-16.634 -4.102)" fill="#8b482a"/>
          <path id="Path_895128" data-name="Path 895128" d="M71.839,15.173c-.876.671-1.623,2.988-.706,4.09.5.607,2.335-.037,3.194-1.357a2.881,2.881,0,0,0-.072-2.222,1.784,1.784,0,0,0-2.416-.512" transform="translate(-16.365 -3.292)" fill="#cc8b6e"/>
          <path id="Path_895129" data-name="Path 895129" d="M70.836,16.746c0,.143.2-1.4,1.053-1.506.348-.042.27.329.674.36.345.026,1.38-.678.981,1.406-.019.1.075.217.12.308.057.111-.119.364-.116.488s.358-.248.351-.129c-.011.181-.32.688-.063.758.125.033.277-.171.369-.239a4.609,4.609,0,0,0,.765-.576,2,2,0,0,0,.437-.991,1.893,1.893,0,0,0-.089-1.069,1.368,1.368,0,0,0-.8-.744,5.038,5.038,0,0,1-.646-.177c-.175-.087-.367-.11-.545-.2a.762.762,0,0,1-.285-.276,1.038,1.038,0,0,0-.848-.411.869.869,0,0,0-.758.535c-.066.174-.09.395-.254.477a1.935,1.935,0,0,0-.188.07.348.348,0,0,0-.116.15,1.468,1.468,0,0,0-.075.991,1.316,1.316,0,0,1,.071.4c-.009.125-.035.245-.035.371" transform="translate(-16.373 -3.042)" fill="#552b19"/>
          <path id="Path_895130" data-name="Path 895130" d="M74.021,18.472s.633-.564.981-.4-.141,1.126-.862.992-.314-.438-.12-.59" transform="translate(-17.064 -3.99)" fill="#cc8b6e"/>
          <path id="Path_895131" data-name="Path 895131" d="M76.538,26.423h-1.6l.075-.076c-.035.5-.022,1.526.583,1.688.57.154.941-.38.968-.885a2.33,2.33,0,0,0-.1-.783.076.076,0,0,1,.146-.041c.224.741.106,1.961-.928,1.879-.8-.064-.866-1.249-.824-1.858a.078.078,0,0,1,.076-.077h1.6a.077.077,0,0,1,0,.153" transform="translate(-17.322 -5.811)" fill="#ec3b59"/>
          <path id="Path_895132" data-name="Path 895132" d="M69.336,25.882,71,26.066a.079.079,0,0,1,.075.077c.008.721-.227,1.944-1.171,1.832s-.849-1.354-.639-2.037a.076.076,0,0,1,.146.041,2.393,2.393,0,0,0-.081,1.329.709.709,0,0,0,.9.49,1.041,1.041,0,0,0,.579-.775c.069-.247.059-.5.111-.747.008-.042,0-.089,0-.131-.026.209.132.023.023.068a.454.454,0,0,1-.14-.016l-1.47-.163c-.1-.011-.1-.164,0-.153" transform="translate(-15.997 -5.725)" fill="#ec3b59"/>
          <path id="Path_895133" data-name="Path 895133" d="M66.864,61.182s-.329.389-.716.917-.677,1.078-.135,1.33,1.2-.367,1.412-.734.454-.327.746-.571.139-1.148.139-1.148Z" transform="translate(-15.209 -13.487)" fill="#552b19"/>
          <path id="Path_895134" data-name="Path 895134" d="M68.256,62.052c-.311.259-.568.217-.794.607s-.926,1.048-1.5.78a.578.578,0,0,1-.244-.2.445.445,0,0,0,.3.4c.541.252,1.2-.367,1.412-.734s.454-.326.747-.57a.617.617,0,0,0,.165-.39.382.382,0,0,1-.081.1" transform="translate(-15.209 -13.703)" fill="#421f13"/>
          <path id="Path_895135" data-name="Path 895135" d="M71.952,38.04C71.16,39.054,68.526,55.4,68.526,55.4c-.792.674-1.978,0-1.978,0-.858-8.334.2-20.712.2-20.712s5.993,4.368,5.2,3.354" transform="translate(-15.324 -7.672)" fill="#2f7edd"/>
          <path id="Path_895136" data-name="Path 895136" d="M68.349,34.962c-.975,6.757-1.839,13.9-1.135,20.71.016.158.261.16.245,0-.7-6.794.154-13.909,1.127-20.644.022-.157-.214-.224-.237-.066" transform="translate(-15.496 -7.713)" fill="#2566bb"/>
          <path id="Path_895137" data-name="Path 895137" d="M76.568,36.165c.25.791.932,2.664,2.041,2.283a.125.125,0,0,0-.079-.236c-.907.311-1.526-1.481-1.73-2.127a.123.123,0,0,0-.232.079" transform="translate(-17.719 -7.964)" fill="#2566bb"/>
          <path id="Path_895138" data-name="Path 895138" d="M73.122,18.222c.016-.009-.018.008-.025.01a.372.372,0,0,1-.082.019c-.11.01-.16-.064-.186-.158-.016-.06-.108-.026-.092.032a.287.287,0,0,0,.441.175c.056-.029,0-.107-.056-.079" transform="translate(-16.833 -3.995)" fill="#1e100c"/>
          <path id="Path_895139" data-name="Path 895139" d="M71.794,17.762a.317.317,0,0,1-.092.061c-.108.047-.168-.021-.207-.118-.023-.058-.115-.026-.092.032.045.115.128.218.267.195a.4.4,0,0,0,.2-.107c.045-.043-.031-.1-.075-.062" transform="translate(-16.524 -3.91)" fill="#1e100c"/>
          <path id="Path_895140" data-name="Path 895140" d="M71.667,17.1a.291.291,0,0,1,.345.2c.027.072.134.022.107-.05a.4.4,0,0,0-.472-.272c-.075.015-.055.132.02.118" transform="translate(-16.57 -3.755)" fill="#552b19"/>
          <path id="Path_895141" data-name="Path 895141" d="M72.886,17.613a.289.289,0,0,1,.387.1c.045.062.134-.016.09-.077a.4.4,0,0,0-.527-.132c-.068.034-.017.143.051.107" transform="translate(-16.849 -3.861)" fill="#552b19"/>
          <path id="Path_895142" data-name="Path 895142" d="M72.26,17.667a.605.605,0,0,1-.021.331c-.061.147-.239.2-.346.311-.148.158-.032.276.169.359.048.019.079-.042.031-.062-.45-.186.118-.367.211-.555a.644.644,0,0,0,.037-.39c-.008-.044-.089-.037-.081.006" transform="translate(-16.623 -3.9)" fill="#8b482a"/>
          <path id="Path_895143" data-name="Path 895143" d="M72.408,19.266s-.014.41-.347.375-.331-.4-.331-.4Z" transform="translate(-16.6 -4.255)" fill="#faffff"/>
          <path id="Path_895144" data-name="Path 895144" d="M73.315,19.136a.227.227,0,0,1-.3.112.232.232,0,0,1-.111-.308.227.227,0,0,1,.3-.112.233.233,0,0,1,.111.308" transform="translate(-16.866 -4.16)" fill="#c1775d"/>
          <path id="Path_895145" data-name="Path 895145" d="M71.015,18.218a.23.23,0,0,1,.32.072.237.237,0,0,1-.071.324.229.229,0,0,1-.319-.072.236.236,0,0,1,.071-.324" transform="translate(-16.41 -4.022)" fill="#c1775d"/>
          <path id="Path_895146" data-name="Path 895146" d="M80.495,43.132c-1.663-.459-2.578-1.342-3.809-3.406-.7-1.173-1.991-3.4-2.794-4.508l.267-.345c1.79,2.537,3.446,7.5,6.519,8.129,3.281.671,6.542,1.46,9.8,2.229.154.036.1.291-.052.249-3.821-1.028-6.517-1.4-9.933-2.349" transform="translate(-17.101 -7.714)" fill="#2566bb"/>
          <path id="Path_895147" data-name="Path 895147" d="M74.362,34.09h-.469l-.11,1.421h.771Z" transform="translate(-17.076 -7.541)" fill="#2f7edd"/>
          <path id="Path_895148" data-name="Path 895148" d="M87.968,42.739H79.96a.788.788,0,0,1-.78-.791V36.742a.788.788,0,0,1,.78-.79h8.008a.788.788,0,0,1,.78.79v5.206a.788.788,0,0,1-.78.791" transform="translate(-18.325 -7.952)" fill="#29283b"/>
          <path id="Path_895149" data-name="Path 895149" d="M86.255,33.962H82.808a.733.733,0,0,0-.726.736v2.215a.733.733,0,0,0,.726.735h3.448a.733.733,0,0,0,.726-.735V34.7a.733.733,0,0,0-.726-.736m-.127,2.471a.478.478,0,0,1-.473.48H83.408a.478.478,0,0,1-.473-.48V34.989a.478.478,0,0,1,.473-.479h2.247a.478.478,0,0,1,.473.479Z" transform="translate(-18.996 -7.512)" fill="#29283b"/>
          <path id="Path_895150" data-name="Path 895150" d="M87.968,35.952H79.96a.788.788,0,0,0-.78.79v1.13L81.849,40.1h4.524l2.375-2.213V36.742a.788.788,0,0,0-.78-.79" transform="translate(-18.325 -7.952)" fill="#1d1d2d"/>
          <path id="Path_895151" data-name="Path 895151" d="M84.594,33.255s.784-.194,1.127.172.589.431.438.611-.759-.145-.759-.145-1.055-.02-.805-.639" transform="translate(-19.569 -7.344)" fill="#cc8b6e"/>
        </g>
      </g>
    </g>
  </g>
</svg>
