<svg xmlns="http://www.w3.org/2000/svg" xmlns:xlink="http://www.w3.org/1999/xlink" width="56" height="56" viewBox="0 0 56 56">
  <defs>
    <clipPath id="clip-path">
      <rect id="Rectangle_408342" data-name="Rectangle 408342" width="35" height="35" fill="#050c68"/>
    </clipPath>
  </defs>
  <g id="Group_1117942" data-name="Group 1117942" transform="translate(0.289 0.382)">
    <circle id="Ellipse_5614" data-name="Ellipse 5614" cx="28" cy="28" r="28" transform="translate(-0.289 -0.382)" fill="#fff"/>
    <g id="Group_1117961" data-name="Group 1117961" transform="translate(10.711 10.619)">
      <g id="Group_1117960" data-name="Group 1117960" clip-path="url(#clip-path)">
        <path id="Path_918854" data-name="Path 918854" d="M201.081,164.665c-3.976-1.252-7.535,2.421-6.46,6.711a7.058,7.058,0,0,0,1.436,2.532,4.092,4.092,0,0,1-4.451,1.1,32.781,32.781,0,0,1-4.65-2.859,2.276,2.276,0,0,1,.76-3.582c1.458-.576,2.363.711,3.615,1.226l3.979-7.592c-.786-.644-2.113-.98-2.545-2a2.173,2.173,0,0,1,2.227-3.116,25.771,25.771,0,0,1,4.172,2.4,4.568,4.568,0,0,1,1.917,5.176" transform="translate(-167.65 -140.27)" fill="#050c68"/>
        <path id="Path_918855" data-name="Path 918855" d="M23.71,169.848c1.346-.571,2.257-1.92,3.824-1.129a2.29,2.29,0,0,1,.446,3.588,25.207,25.207,0,0,1-5.252,2.966,4.207,4.207,0,0,1-2.706-.487,8.92,8.92,0,0,1-.99-.765c-.14-.224.326-.518.454-.7,3.092-4.428-.617-10.09-5.525-8.6a4.748,4.748,0,0,1,1.2-4.652,32.476,32.476,0,0,1,4.72-2.892,2.189,2.189,0,0,1,1.806,3.845c-.275.237-1.977,1.145-1.988,1.29Z" transform="translate(-12.39 -140.322)" fill="#050c68"/>
        <path id="Path_918856" data-name="Path 918856" d="M96.155,50.876c-.276,2.486-3.4,2.808-4.027.648a37.928,37.928,0,0,1-.086-5.877,4.272,4.272,0,0,1,3.208-3.484,5.057,5.057,0,0,0,7.236,3.687,5.771,5.771,0,0,0,2.771-3.69,4.284,4.284,0,0,1,3.165,3.687,38.083,38.083,0,0,1-.013,5.34,2.018,2.018,0,0,1-3.562,1.027,3.41,3.41,0,0,1-.551-1.339v-2.3H96.155c-.058.731.079,1.584,0,2.3" transform="translate(-82.726 -37.653)" fill="#050c68"/>
        <path id="Path_918857" data-name="Path 918857" d="M2.549,246.056c4.663-.72,4.837,6.936.176,6.492-3.655-.348-3.553-5.97-.176-6.492" transform="translate(0 -219.709)" fill="#050c68"/>
        <path id="Path_918858" data-name="Path 918858" d="M289.578,246.126c4.239-.607,4.957,6.01.969,6.482-4.238.5-4.744-5.941-.969-6.482" transform="translate(-258.179 -219.78)" fill="#050c68"/>
        <path id="Path_918859" data-name="Path 918859" d="M146.323.048c4.357-.679,4.859,5.947,1.071,6.484-4.185.593-4.793-5.9-1.071-6.484" transform="translate(-129.399 0)" fill="#050c68"/>
      </g>
    </g>
  </g>
</svg>
