<svg xmlns="http://www.w3.org/2000/svg" xmlns:xlink="http://www.w3.org/1999/xlink" width="178" height="178" viewBox="0 0 178 178">
  <defs>
    <clipPath id="clip-path">
      <rect id="Rectangle_407505" data-name="Rectangle 407505" width="99.117" height="99.194" transform="translate(0 -12.999)" fill="none"/>
    </clipPath>
    <clipPath id="clip-path-2">
      <rect id="Rectangle_407504" data-name="Rectangle 407504" width="99.118" height="99.194" transform="translate(0 -13)" fill="none"/>
    </clipPath>
    <clipPath id="clip-path-3">
      <rect id="Rectangle_407500" data-name="Rectangle 407500" width="14.66" height="1.26" fill="none"/>
    </clipPath>
    <clipPath id="clip-path-4">
      <rect id="Rectangle_407501" data-name="Rectangle 407501" width="1.492" height="1.448" fill="none"/>
    </clipPath>
  </defs>
  <g id="Group_1117916" data-name="Group 1117916" transform="translate(341.926 9219.916)">
    <g id="Group_1117132" data-name="Group 1117132" transform="translate(-341.926 -9219.915)">
      <path id="Path_882862" data-name="Path 882862" d="M89,0A89.047,89.047,0,1,1,0,89,89,89,0,0,1,89,0Z" transform="translate(0 -0.001)" fill="#f6ae5c"/>
      <path id="Path_882863" data-name="Path 882863" d="M78.668,0A78.668,78.668,0,1,1,0,78.668,78.668,78.668,0,0,1,78.668,0Z" transform="translate(10.332 10.331)" fill="#f3f9ff"/>
    </g>
    <g id="Group_1117133" data-name="Group 1117133" transform="translate(-302.926 -9180.915)">
      <rect id="Rectangle_401104" data-name="Rectangle 401104" width="99.117" height="100.574" fill="none"/>
      <g id="Group_1117234" data-name="Group 1117234" transform="translate(0 9.302)">
        <g id="Group_1117233" data-name="Group 1117233" clip-path="url(#clip-path)">
          <g id="Group_1117232" data-name="Group 1117232" transform="translate(0 0.001)">
            <g id="Group_1117231" data-name="Group 1117231" clip-path="url(#clip-path-2)">
              <path id="Path_895501" data-name="Path 895501" d="M55.409,42.023c-.569-.418-4.809-.925-5.818-1.352-.375-.151-.773-.314-1.187-.459-2.8-1.036-7.217.443-10.057-.052-6.093.007-14.194,4.168-21.325,5.089-.378.053-9.041-.316-9.041-.316.336.036-11.506,24.115-2.785,23.131,1.125-.117,13.082-1.436,13.451-1.455C22.8,66.371,27.186,68.731,30,69.383c2.863.666,9.3,1.395,12.946,1.771.3.033.587.063.852.089l1.823.179Z" transform="translate(0.664 13.33)" fill="#fac48d"/>
              <path id="Path_895502" data-name="Path 895502" d="M44.116,62.337,44.1,60.865a2.937,2.937,0,0,0-2.967-2.907l-5.935.055a4.016,4.016,0,0,0-3.147,1.409,2.507,2.507,0,0,0-.559,1.571l.019,1.472a3.221,3.221,0,0,0,3.07,2.855,4.822,4.822,0,0,0,.687.045l5.934-.053a2.941,2.941,0,0,0,2.911-2.975" transform="translate(10.54 19.396)" fill="#fac48d"/>
              <path id="Path_895503" data-name="Path 895503" d="M47.007,56.813l-.017-1.481a2.937,2.937,0,0,0-2.971-2.907l-9.663.091a2.946,2.946,0,0,0-2.915,2.968l.013,1.48a2.939,2.939,0,0,0,2.968,2.906l9.67-.093a2.944,2.944,0,0,0,2.915-2.963" transform="translate(10.522 17.544)" fill="#fac48d"/>
              <path id="Path_895504" data-name="Path 895504" d="M48.976,51.285l-.017-1.471A2.94,2.94,0,0,0,45.992,46.9L34.3,47.012a2.946,2.946,0,0,0-2.915,2.97l.019,1.476a2.936,2.936,0,0,0,2.97,2.908l11.688-.111a2.944,2.944,0,0,0,2.915-2.97" transform="translate(10.503 15.695)" fill="#fac48d"/>
              <path id="Path_895505" data-name="Path 895505" d="M47.819,45.785,47.8,44.312A2.944,2.944,0,0,0,44.832,41.4l-10.584.1a2.944,2.944,0,0,0-2.915,2.972l.015,1.473a2.938,2.938,0,0,0,2.971,2.908l10.583-.1a2.941,2.941,0,0,0,2.918-2.967" transform="translate(10.486 13.854)" fill="#fac48d"/>
              <path id="Path_895506" data-name="Path 895506" d="M34.727,65.307a3.224,3.224,0,0,1-3.071-2.856l-.017-1.471a2.51,2.51,0,0,1,.558-1.571A4.022,4.022,0,0,1,35.345,58l-.57.007a4.044,4.044,0,0,0-3.146,1.408,2.478,2.478,0,0,0-.558,1.57l.009,1.471a3.244,3.244,0,0,0,3.079,2.863,6.087,6.087,0,0,0,.689.045l.566-.011a5.027,5.027,0,0,1-.687-.044" transform="translate(10.398 19.409)" fill="#f09e4f"/>
              <path id="Path_895507" data-name="Path 895507" d="M31.631,60.63l-.012-1.48a2.946,2.946,0,0,1,2.914-2.968,2.935,2.935,0,0,1-2.97-2.908L31.546,51.8a2.946,2.946,0,0,1,2.914-2.971,2.935,2.935,0,0,1-2.97-2.907l-.015-1.475a2.943,2.943,0,0,1,2.914-2.972l-.569.007a2.943,2.943,0,0,0-2.911,2.978l.013,1.463a2.938,2.938,0,0,0,2.967,2.916,2.942,2.942,0,0,0-2.911,2.97l.013,1.472a2.943,2.943,0,0,0,2.972,2.912,2.941,2.941,0,0,0-2.914,2.964l.012,1.48a2.939,2.939,0,0,0,2.97,2.9l.57,0a2.943,2.943,0,0,1-2.971-2.906" transform="translate(10.344 13.879)" fill="#f09e4f"/>
              <path id="Path_895508" data-name="Path 895508" d="M33.558,47.049c.926-.091,1.854-.14,2.775-.188s1.855-.06,2.779-.08c.929,0,1.855,0,2.783.027l1.388.044c.467.031.926.045,1.391.089-.462.053-.924.081-1.387.12l-1.391.072c-.928.049-1.85.064-2.777.077s-1.857.007-2.779-.021-1.855-.061-2.781-.14" transform="translate(11.231 15.655)" fill="#f09e4f"/>
              <path id="Path_895509" data-name="Path 895509" d="M33.249,58.067a32.592,32.592,0,0,1,3.944-.246A31.457,31.457,0,0,1,41.136,58a32.743,32.743,0,0,1-3.939.247,31.81,31.81,0,0,1-3.948-.178" transform="translate(11.127 19.35)" fill="#f09e4f"/>
              <path id="Path_895510" data-name="Path 895510" d="M33.2,52.568c.888-.095,1.779-.148,2.671-.187.894-.055,1.787-.065,2.676-.08s1.786-.005,2.681.023l1.339.045c.446.033.889.047,1.337.091-.446.057-.892.081-1.337.119l-1.336.076c-.894.043-1.787.056-2.679.069s-1.784.005-2.676-.024-1.783-.055-2.676-.132" transform="translate(11.11 17.502)" fill="#f09e4f"/>
              <path id="Path_895511" data-name="Path 895511" d="M33.48,46.045c-.761.976-1.393,2.034-2.085,3.06a23.437,23.437,0,0,1-2.248,2.984,9.287,9.287,0,0,1-1.4,1.269,7.155,7.155,0,0,1-1.684.885,9.724,9.724,0,0,1-3.678.6A15.092,15.092,0,0,0,24.2,54.5a11.089,11.089,0,0,0,1.734-.587,8.192,8.192,0,0,0,1.566-.884,10.939,10.939,0,0,0,1.341-1.223,35.6,35.6,0,0,0,2.3-2.872,25.921,25.921,0,0,1,2.333-2.89" transform="translate(7.492 15.409)" fill="#f09e4f"/>
              <rect id="Rectangle_407498" data-name="Rectangle 407498" width="5.671" height="27.917" transform="translate(14.567 56.763)" fill="#f5f5f5"/>
              <rect id="Rectangle_407499" data-name="Rectangle 407499" width="16.458" height="30.943" transform="translate(0 55.251)" fill="#1e2ad5"/>
              <g id="Group_1117227" data-name="Group 1117227" transform="translate(1.797 82.686)" opacity="0.5">
                <g id="Group_1117226" data-name="Group 1117226">
                  <g id="Group_1117225" data-name="Group 1117225" clip-path="url(#clip-path-3)">
                    <path id="Path_895512" data-name="Path 895512" d="M16.007,61.953l-14.66.629,14.66.631Z" transform="translate(-1.347 -61.953)"/>
                  </g>
                </g>
              </g>
              <path id="Path_895513" data-name="Path 895513" d="M6.452,60.106a2.173,2.173,0,1,0,2.173-2.165,2.174,2.174,0,0,0-2.173,2.165" transform="translate(2.159 19.39)" fill="#f9c14e"/>
              <g id="Group_1117230" data-name="Group 1117230" transform="translate(11.052 77.813)" opacity="0.3">
                <g id="Group_1117229" data-name="Group 1117229">
                  <g id="Group_1117228" data-name="Group 1117228" clip-path="url(#clip-path-4)">
                    <path id="Path_895514" data-name="Path 895514" d="M8.708,59.363c.372.351.813.488.99.306s.02-.625-.35-.98-.817-.491-.993-.3-.017.617.352.977" transform="translate(-8.28 -58.302)" fill="#fff"/>
                  </g>
                </g>
              </g>
              <path id="Path_895515" data-name="Path 895515" d="M38.575,45.919c-.93.044-1.858-1.63-.777-3.426s3.714-8.683,3.714-10.7-1.13-6.49-4.2-5.726-2.763,5.7-4.307,7.951-7.394,10.453-13.2,13.951c5.883,0,18.769-2.05,18.769-2.05" transform="translate(6.628 8.694)" fill="#fac48d"/>
              <g id="Group_1117235" data-name="Group 1117235" transform="translate(48.346 -9.667)">
                <path id="Path_895516" data-name="Path 895516" d="M32.251,1.877c.486-.358,4.1-.789,4.965-1.157.319-.128.66-.264,1.016-.392,2.382-.882,6.158.38,8.582-.043,5.2.007,12.114,3.558,18.2,4.344.324.047,7.717-.269,7.717-.269-.289.031,9.819,20.582,2.374,19.743-.958-.1-11.163-1.226-11.475-1.241-3.545-.2-7.292,1.811-9.693,2.366-2.442.571-7.934,1.192-11.048,1.514l-.727.075c-.957.095-1.554.152-1.554.152Z" transform="translate(-29.341 15.774)" fill="#fac48d"/>
                <path id="Path_895517" data-name="Path 895517" d="M33.313,3.74l.007-1.258A2.511,2.511,0,0,1,35.855,0l5.066.046a3.446,3.446,0,0,1,2.687,1.2,2.129,2.129,0,0,1,.475,1.342L44.07,3.847a2.753,2.753,0,0,1-2.621,2.437,3.841,3.841,0,0,1-.586.039L35.8,6.278A2.509,2.509,0,0,1,33.313,3.74" transform="translate(-29.193 36.429)" fill="#fac48d"/>
                <path id="Path_895518" data-name="Path 895518" d="M31.16,9.25l.013-1.266A2.508,2.508,0,0,1,33.707,5.5l8.253.077a2.512,2.512,0,0,1,2.485,2.532l-.008,1.267A2.514,2.514,0,0,1,41.9,11.859l-8.253-.08A2.508,2.508,0,0,1,31.16,9.25" transform="translate(-29.493 24.623)" fill="#fac48d"/>
                <path id="Path_895519" data-name="Path 895519" d="M29.7,14.755,29.71,13.5a2.512,2.512,0,0,1,2.537-2.486l9.978.095a2.513,2.513,0,0,1,2.486,2.535L44.7,14.9a2.5,2.5,0,0,1-2.532,2.484l-9.977-.095A2.512,2.512,0,0,1,29.7,14.755" transform="translate(-29.697 12.819)" fill="#fac48d"/>
                <path id="Path_895520" data-name="Path 895520" d="M30.577,20.268l.015-1.259a2.513,2.513,0,0,1,2.537-2.486l9.034.089a2.51,2.51,0,0,1,2.488,2.536l-.014,1.258A2.508,2.508,0,0,1,42.1,22.888L33.069,22.8a2.508,2.508,0,0,1-2.491-2.531" transform="translate(-29.574 1.04)" fill="#fac48d"/>
                <rect id="Rectangle_407502" data-name="Rectangle 407502" width="4.843" height="23.83" transform="translate(33.497 15.522)" fill="#f5f5f5"/>
                <rect id="Rectangle_407503" data-name="Rectangle 407503" width="14.049" height="26.411" transform="translate(36.723 14.231)" fill="#634419"/>
                <path id="Path_895521" data-name="Path 895521" d="M40.7,38.073c.791.036,1.584-1.392.66-2.923s-3.172-7.413-3.172-9.134.967-5.542,3.587-4.887,2.358,4.863,3.679,6.787,6.311,8.92,11.264,11.9C51.7,39.82,40.7,38.073,40.7,38.073" transform="translate(-28.514 -21.053)" fill="#fac48d"/>
              </g>
              <path id="Path_895522" data-name="Path 895522" d="M65.545,35.706c-6.859,0-12.418,4.542-12.418,10.143a9.377,9.377,0,0,0,3.992,7.435l-1.2,5.349L61.411,55.4a14.9,14.9,0,0,0,4.133.587c6.857,0,12.419-4.541,12.419-10.141S72.4,35.706,65.545,35.706" transform="translate(17.78 11.949)" fill="#ffefdb"/>
              <path id="Path_895523" data-name="Path 895523" d="M67.805,38.379a4.332,4.332,0,0,0-3.427,1.68,4.337,4.337,0,0,0-7.765,2.656c0,4.338,7.765,8.813,7.765,8.813S72.142,47,72.142,42.715a4.338,4.338,0,0,0-4.336-4.336" transform="translate(18.946 12.843)" fill="#f2562c"/>
              <path id="Path_895524" data-name="Path 895524" d="M15.26,8.273l2.165,4.386a2.971,2.971,0,0,0,2,1.452l4.845.7c.762.111.934.637.382,1.175L21.143,19.4a2.966,2.966,0,0,0-.762,2.35l.826,4.823c.132.758-.316,1.084-1,.725l-4.331-2.276a2.958,2.958,0,0,0-2.47,0L9.08,27.3c-.682.359-1.13.033-1-.725l.825-4.823a2.971,2.971,0,0,0-.762-2.35l-3.5-3.418c-.553-.538-.38-1.064.38-1.175l4.843-.7a2.974,2.974,0,0,0,2-1.452l2.162-4.386c.34-.691.894-.691,1.235,0" transform="translate(1.445 2.594)" fill="#f9c14e"/>
            </g>
          </g>
        </g>
      </g>
    </g>
  </g>
</svg>
