<svg id="Group_1117957" data-name="Group 1117957" xmlns="http://www.w3.org/2000/svg" xmlns:xlink="http://www.w3.org/1999/xlink" width="35" height="35" viewBox="0 0 35 35">
  <defs>
    <clipPath id="clip-path">
      <rect id="Rectangle_408340" data-name="Rectangle 408340" width="35" height="35" fill="#050c68"/>
    </clipPath>
  </defs>
  <g id="Group_1117956" data-name="Group 1117956" clip-path="url(#clip-path)">
    <path id="Path_918848" data-name="Path 918848" d="M13.018.039C25.562-.854,32.845,13.756,24.773,23.295l1.032.958c.227-.04,1.336-1.481,1.668-1.652.077-.04.123-.067.2,0l6.557,6.578a3.592,3.592,0,0,1-5.206,4.9L22.6,27.667c-.067-.076-.04-.122,0-.2.171-.332,1.612-1.442,1.653-1.668L23.3,24.768A14.094,14.094,0,1,1,13.018.039m9.007,6.118a11.207,11.207,0,1,0-5.4,18.836,11.247,11.247,0,0,0,5.4-18.836" transform="translate(0 0)" fill="#050c68"/>
    <path id="Path_918849" data-name="Path 918849" d="M58.4,49.353A9.137,9.137,0,1,1,50.683,62.92,9.158,9.158,0,0,1,58.4,49.353m7.938,9.091a7.786,7.786,0,0,0-7.469-7.619c-.084-.011-.249.1-.249.154v1.8A5.521,5.521,0,0,0,60,53.1a5.52,5.52,0,0,1,4.227,5.344Z" transform="translate(-44.579 -44.405)" fill="#050c68"/>
  </g>
</svg>
