<svg xmlns="http://www.w3.org/2000/svg" xmlns:xlink="http://www.w3.org/1999/xlink" width="297.309" height="266" viewBox="0 0 297.309 266">
  <defs>
    <clipPath id="clip-path">
      <rect id="Rectangle_407378" data-name="Rectangle 407378" width="297" height="266" transform="translate(0.02 7)" fill="none"/>
    </clipPath>
  </defs>
  <g id="Group_1117122" data-name="Group 1117122" transform="translate(0 -7)">
    <rect id="Rectangle_407375" data-name="Rectangle 407375" width="297.309" height="126.431" rx="21" transform="translate(0 146.57)" fill="#ffefdb"/>
    <g id="Group_1117121" data-name="Group 1117121">
      <g id="Group_1117120" data-name="Group 1117120" clip-path="url(#clip-path)">
        <path id="Path_895211" data-name="Path 895211" d="M188.625,132.945c.717-.971,1.284-2.142,1.884-3.083.706-1.106,2.048-1.861,2.211-3.256a.825.825,0,0,0-.049-.4H181.729a17.67,17.67,0,0,0,1.619,2.283,22.8,22.8,0,0,1,2.141,3.894,6.249,6.249,0,0,0-3.8,1.428,5.958,5.958,0,0,0-2.677,5.283c.109,2.667,1.816,5.214,3.3,7.314.966,1.366,2.493,4.307,4.466,4.317,2.6.011,4.784-1.9,6.576-3.589a10.321,10.321,0,0,0,2.923-6.516c.386-4.165-3.553-8.406-7.647-7.672" transform="translate(-72.564 -51.161)" fill="#a76445"/>
        <path id="Path_895212" data-name="Path 895212" d="M285.374,131.154c.717-.971,1.284-2.142,1.885-3.082.706-1.107,2.048-1.862,2.21-3.257a.822.822,0,0,0-.048-.4H278.477A17.811,17.811,0,0,0,280.1,126.7a22.778,22.778,0,0,1,2.141,3.894,6.246,6.246,0,0,0-3.8,1.427,5.955,5.955,0,0,0-2.676,5.283c.108,2.667,1.816,5.214,3.3,7.314.965,1.366,2.492,4.308,4.466,4.317,2.6.011,4.785-1.9,6.576-3.589a10.318,10.318,0,0,0,2.923-6.516c.386-4.165-3.553-8.406-7.647-7.672" transform="translate(-111.785 -50.435)" fill="#a76445"/>
        <path id="Path_895213" data-name="Path 895213" d="M246.774,139.216c-.625-1.579-5.064-4.585-2.251-5.938.636-.305,1.717-.921,1.343-1.8-.73-1.721-5.089-1.438-6.5-1.5-3.268-.142-6.542-.008-9.811-.008-2.9,0-5.8-.056-8.694.008a9.751,9.751,0,0,0-5.687,1.478.466.466,0,0,0-.093.721,4.2,4.2,0,0,0,1.91.944c.763.207,2.213.2.959,1.75.083-.1-.351.558-.624.934-2.275,1.393-3.964,3.99-2.689,6.538,2.258,4.512,7.574,6.895,12.271,7.822a24.2,24.2,0,0,0,14.007-1.027c3.878-1.644,7.6-5.519,5.859-9.919" transform="translate(-86.832 -52.664)" fill="#a76445"/>
        <rect id="Rectangle_407376" data-name="Rectangle 407376" width="130.221" height="4.757" transform="translate(101.299 97.55)" fill="#d2c6b9"/>
        <path id="Path_895214" data-name="Path 895214" d="M218.314,55.894c-.928-3.625-2.143-7.4-6.406-7.589a58.963,58.963,0,0,0-6.145.419c-1.806.114-3.556.174-5.322.206a.35.35,0,0,0-.153-.094,4.49,4.49,0,0,0-2.929.168.628.628,0,0,0-.106.044,12.526,12.526,0,0,0-4.767,4.156c-2.194,2.928-3.215,6.972-1.549,10.379,3.086,6.315,11.1,7.814,17.332,5.993a19.358,19.358,0,0,0,8.322-4.818c2.562-2.6,2.575-5.547,1.724-8.864" transform="translate(-77.067 -19.576)" fill="#a76445"/>
        <path id="Path_895215" data-name="Path 895215" d="M278.872,39.921c-2.8-10.261-9.523-13.28-12.841-14.443a13.018,13.018,0,0,0-8.515-.118,17.285,17.285,0,0,0-4.877,2.5c-8.29,6.594-12.36,17.564-5.924,26.425,3.025,4.165,11.167,7.119,16.335,6.629,5.368-.51,8.307-3.185,11.954-7.007,3.923-4.112,5.232-8.98,3.867-13.981" transform="translate(-98.73 -10.013)" fill="#a76445"/>
        <path id="Path_895216" data-name="Path 895216" d="M272.3,46.408c-3.225-1.318-6.714-.831-8.8,2.279-2.345,3.5-.527,7.9,3.184,9.513,3.313,1.441,7.327-1.409,8.535-4.429,1.031-2.578-.092-6.568-2.92-7.363m-4.692,10.953c-3.453-.577-4.866-4.772-3.558-7.6,1.293-2.8,4.418-3.646,7.2-3.052a.384.384,0,0,0,.2.351c5.617,2.9,2.11,11.291-3.841,10.3" transform="translate(-106.395 -18.535)" fill="#bf7b5c"/>
        <rect id="Rectangle_407377" data-name="Rectangle 407377" width="96.328" height="4.757" transform="translate(116.164 49.981)" fill="#d2c6b9"/>
        <path id="Path_895217" data-name="Path 895217" d="M254.494,228.974a11.2,11.2,0,0,1-1.44-2.345,5.575,5.575,0,0,1,.1-3.292,13.335,13.335,0,0,0,.224-5.844c-.672-3.147-2-6.506-4.64-8.518a12.147,12.147,0,0,0-9.061-2.034,18.96,18.96,0,0,0-5.4-2.4,12.115,12.115,0,0,0-10.39,3.059c-2.415,2.395-1.7,5.871-1.49,8.9a9.094,9.094,0,0,1-.964,5.286c-1.025,1.808-2.694,3.181-4.108,4.67a11.681,11.681,0,0,0-2.8,4.275c-.42,1.314-.074,3.087,1.32,3.618.838.319,1.744-.238,2.591.023.783.239,1.289,1.127,1.726,1.756a3.816,3.816,0,0,0,3.41,2.017c.929-.037,1.827-.373,2.75-.474a4.811,4.811,0,0,1,3.05.925c1.581.986,2.9,2.053,4.809,2.278,1.75.2,3.3-.756,4.721-1.633a6.084,6.084,0,0,1,2.729-1.1c1.1-.062,2.009.916,2.885,1.438a3.588,3.588,0,0,0,4.31-.582,7.865,7.865,0,0,0,1.53-1.788,5.521,5.521,0,0,1,.751-1.007c.54-.51,1.1-.283,1.67-.02,1.253.58,2.249-.876,2.615-1.9a5.606,5.606,0,0,0-.887-5.321" transform="translate(-86.892 -82.84)" fill="#292627"/>
        <path id="Path_895218" data-name="Path 895218" d="M271.1,430.795c0,2.858-22.755,5.173-50.824,5.173s-50.821-2.315-50.821-5.173,22.754-5.173,50.821-5.173,50.824,2.316,50.824,5.173" transform="translate(-68.693 -172.54)" fill="#d3c8bb"/>
        <path id="Path_895219" data-name="Path 895219" d="M251.675,317.433a8.59,8.59,0,0,0-5.6-2.747,19.537,19.537,0,0,0-6.74.65c-2.6.62-3.368-.1-6.065.116-1.4.115-10.369,4.727-11.162,6.082.177.143.651,7.382,2.994,10.073,2.7,3.1,5.833,5.825,10.346,5.445,3.58-.3,13.131,1.355,15.247-1.089,3.587-4.146,4.655-14.375.979-18.531" transform="translate(-90.039 -127.534)" fill="#7788b1"/>
        <path id="Path_895220" data-name="Path 895220" d="M256.7,261.624c-1.544-3-8.574-3.3-12.246-3.307-2.066,0-4.13-.07-6.194-.159-1.788-.077-6.129,1.073-7.879,1.561-4.218,1.176-3.609,3.165-3.9,7.283-.466,6.568,1.077,13.811,2.479,20.193,1.172,5.341,1.338,10.14,7.2,12.034,4.494,1.452,11.46,1.655,14.807-2.086,3.946-4.411,3.852-12.112,4.337-17.639.31-3.525.818-7.033,1.249-10.543.293-2.4,1.3-5.1.145-7.336" transform="translate(-91.776 -104.651)" fill="#d77f56"/>
        <path id="Path_895221" data-name="Path 895221" d="M213.792,323.449a53.209,53.209,0,0,0-5.777-.108c-1.133.026-2.261.066-3.392.082-1.52.02-3.176.059-4.879.151a44.527,44.527,0,0,0-11.909,1.944c-4.161,1.486-4.961,3.85-4.019,7.52.343,1.35.4,2.934,1.6,4.046,1.411,1.312,3.654,1.683,5.712,2.031a97.807,97.807,0,0,0,10.961,1.209c2.265.125,4.519.186,6.73.174a45.722,45.722,0,0,0,4.977-.3Z" transform="translate(-74.372 -131.065)" fill="#e2ab93"/>
        <path id="Path_895222" data-name="Path 895222" d="M200.732,377.194c-.616-5.167-1.623-10.3-2.342-15.464-.206-1.509-.419-3.022-.626-4.536-.245-1.715-.506-3.43-.823-5.135a60.376,60.376,0,0,0-1.807-7.383c-.6-1.884-1.28-3.746-2.031-5.572-1.351-3.261-3.976-10.764-8.7-9.746-5.293,1.138-4.683,9.981-4.177,13.7,1.116,8.2,4.351,16,7.406,23.633,1.513,3.778,3.125,7.515,4.623,11.3.654,1.656,1.355,3.323,1.862,5.032a3.277,3.277,0,0,1-.778,3.562A10.092,10.092,0,0,1,189.787,388c-.451.135-.92.261-1.388.392a14.859,14.859,0,0,0-2.728.97c-.561.288-2.391,1.627-1.089,2.2a11.2,11.2,0,0,0,4.763.567,49.731,49.731,0,0,0,5.4-.131c1.5-.2,2.662-.382,4.142-.664,1.973-.375,2.674-1.453,2.865-3.382.027-.25.043-.506.054-.768.142-3.234-.7-6.865-1.077-10" transform="translate(-72.932 -133.478)" fill="#e2ab93"/>
        <path id="Path_895223" data-name="Path 895223" d="M204.683,426.684c-.011.262-.028.517-.055.768-.191,1.928-.893,3.006-2.865,3.382-1.48.282-2.645.463-4.142.664a49.584,49.584,0,0,1-5.4.131,11.18,11.18,0,0,1-4.763-.567c-1.3-.577.528-1.916,1.089-2.2a14.963,14.963,0,0,1,2.728-.97,23.86,23.86,0,0,0,13.412-1.2" transform="translate(-75.805 -172.97)" fill="#b7483d"/>
        <path id="Path_895224" data-name="Path 895224" d="M204.89,347.574c-2.176-.422-3.731,3.326-3.607,5.012a.128.128,0,0,0,.256,0c.268-1.992,1.325-4.145,3.351-4.791.1-.032.118-.2,0-.221" transform="translate(-81.594 -140.887)" fill="#be7f6d"/>
        <path id="Path_895225" data-name="Path 895225" d="M234.281,337.691c-4.166,2.016-9.528,2.778-14.364,2.8-2.211.011-4.466-.049-6.731-.174l-2.34-16.75c1.7-.092,3.359-.131,4.879-.151,1.131-.016,2.258-.056,3.392-.082a48.836,48.836,0,0,1,6.381.158c2.021.223,5.249,1.617,9.039,4.863a8.751,8.751,0,0,1,1.421,1.487c.147.206.284.414.4.615a4.929,4.929,0,0,1-2.081,7.231" transform="translate(-85.473 -131.063)" fill="#533425"/>
        <path id="Path_895226" data-name="Path 895226" d="M275.639,323.449a53.2,53.2,0,0,1,5.777-.108c1.132.026,2.26.066,3.392.082,1.52.02,3.175.059,4.878.151a44.543,44.543,0,0,1,11.91,1.944c4.161,1.486,4.96,3.85,4.018,7.52-.343,1.35-.4,2.934-1.6,4.046-1.411,1.312-3.654,1.683-5.712,2.031a97.864,97.864,0,0,1-10.962,1.209c-2.265.125-4.518.186-6.729.174a45.733,45.733,0,0,1-4.978-.3Z" transform="translate(-111.739 -131.065)" fill="#e2ab93"/>
        <path id="Path_895227" data-name="Path 895227" d="M293.356,387.191c.011.262.027.517.055.768.19,1.928.894,3.006,2.865,3.382,1.481.282,2.645.463,4.143.664a49.552,49.552,0,0,0,5.4.131,11.183,11.183,0,0,0,4.765-.567c1.3-.577-.529-1.916-1.088-2.2a15.016,15.016,0,0,0-2.729-.97c-.469-.13-.937-.256-1.388-.392a10.091,10.091,0,0,1-3.556-1.421,3.277,3.277,0,0,1-.778-3.562c.507-1.709,1.209-3.375,1.863-5.032,1.5-3.783,3.108-7.52,4.623-11.3,3.055-7.634,6.29-15.437,7.4-23.634.507-3.719,1.117-12.561-4.176-13.7-4.721-1.018-7.345,6.486-8.7,9.746-.752,1.825-1.432,3.687-2.031,5.572a60.135,60.135,0,0,0-1.808,7.383c-.317,1.7-.577,3.42-.823,5.135-.206,1.514-.419,3.027-.626,4.536-.719,5.161-1.726,10.3-2.341,15.464-.376,3.131-1.22,6.764-1.079,10" transform="translate(-118.915 -133.478)" fill="#e2ab93"/>
        <path id="Path_895228" data-name="Path 895228" d="M293.367,426.684c.011.262.027.517.055.768.19,1.928.894,3.006,2.865,3.382,1.481.282,2.645.463,4.143.664a49.552,49.552,0,0,0,5.4.131,11.183,11.183,0,0,0,4.765-.567c1.3-.577-.529-1.916-1.088-2.2a15.017,15.017,0,0,0-2.729-.97,23.862,23.862,0,0,1-13.412-1.2" transform="translate(-118.926 -172.97)" fill="#b7483d"/>
        <path id="Path_895229" data-name="Path 895229" d="M302.7,347.574c2.176-.422,3.732,3.326,3.607,5.012a.128.128,0,0,1-.256,0c-.268-1.992-1.324-4.145-3.351-4.791-.1-.032-.118-.2,0-.221" transform="translate(-122.675 -140.887)" fill="#be7f6d"/>
        <path id="Path_895230" data-name="Path 895230" d="M257.885,337.691c4.165,2.016,9.529,2.778,14.365,2.8,2.211.011,4.464-.049,6.73-.174l2.34-16.75c-1.7-.092-3.358-.131-4.878-.151-1.133-.016-2.26-.056-3.392-.082a48.833,48.833,0,0,0-6.381.158c-2.021.223-5.25,1.617-9.04,4.863a8.773,8.773,0,0,0-1.421,1.487c-.147.206-.283.414-.4.615a4.931,4.931,0,0,0,2.081,7.231" transform="translate(-103.373 -131.063)" fill="#533425"/>
        <path id="Path_895231" data-name="Path 895231" d="M255.974,412.442c.01-.069.017-.313.017-.382a1.85,1.85,0,0,0-.3-.974l-4.33-16.856,4.357-13.09-28.588-.828-1.362.674,5.717,13.134L227.4,411.05a1.522,1.522,0,0,0-.268.833c0,.067.007.489.016.557l-.016.423h.03c.466,1.784,6.732,4.083,14.4,4.083s13.933-2.3,14.4-4.083h.031Z" transform="translate(-91.523 -154.172)" fill="#9a7549"/>
        <path id="Path_895232" data-name="Path 895232" d="M207.714,359.092l1.117,12.507s6.031,6.03,35.288,4.467c0,0,15.633-1.117,15.857-4.913l1.34-12.172Z" transform="translate(-84.204 -145.524)" fill="#b68a56"/>
        <path id="Path_895233" data-name="Path 895233" d="M261.315,355.555c0,2.776-12,5.026-26.8,5.026s-26.8-2.251-26.8-5.026,12-5.025,26.8-5.025,26.8,2.25,26.8,5.025" transform="translate(-84.204 -142.099)" fill="#cea473"/>
        <path id="Path_895234" data-name="Path 895234" d="M256.953,358.475c0,1.352-5.649,2.45-12.616,2.45s-12.615-1.1-12.615-2.45,5.649-2.45,12.615-2.45,12.616,1.1,12.616,2.45" transform="translate(-93.936 -144.326)" fill="#b68a56"/>
        <path id="Path_895235" data-name="Path 895235" d="M258.329,313.863c0,10.226-8.289,22.87-18.515,22.87-4.09,0-7.873-2.026-10.945-5.117a26.688,26.688,0,0,1-7.569-17.752c0-10.226,8.294-14.157,18.513-14.157,8.337,0,15.389,2.613,17.7,9.126a14.792,14.792,0,0,1,.812,5.031" transform="translate(-89.712 -121.496)" fill="#a76445"/>
        <path id="Path_895236" data-name="Path 895236" d="M255.389,305.422c0,.932-4.145,1.686-9.257,1.686s-9.258-.755-9.258-1.686,4.145-1.69,9.258-1.69,9.257.757,9.257,1.69" transform="translate(-96.025 -123.128)" fill="#784933"/>
        <path id="Path_895237" data-name="Path 895237" d="M263.489,320.085c0,10.226-8.289,22.87-18.515,22.87-4.09,0-7.873-2.026-10.945-5.117,6.671.3,20-2.015,28.647-22.783a14.793,14.793,0,0,1,.812,5.031" transform="translate(-94.872 -127.717)" fill="#784933"/>
        <path id="Path_895238" data-name="Path 895238" d="M297.048,284.344c.353-2.474-1.154-4.416-2.669-6.15-1.808-2.07-3.712-4.048-5.671-5.978a45.065,45.065,0,0,0-7.733-6.449c-2.269-1.4-7.682-4.828-10.472-3.75-3.782,1.463.354,8.118,1.949,10.4a16.626,16.626,0,0,0,2.532,2.842c2.97,2.661,6.534,4.773,9.641,7.342a10.94,10.94,0,0,0,2.8,1.741c1.953.8,9.429,1.334,9.619,0" transform="translate(-109.029 -106.134)" fill="#d77f56"/>
        <path id="Path_895239" data-name="Path 895239" d="M289.333,292.474c-6.936,1.351-13.722,4.772-20.627,5.616-.48-.318-1.074-.46-1.575-.811-.687-.486-1.244-1.13-1.93-1.623-1.152-.827-2.049-.556-3.476-.559-.206,0-.5.269-.359.466a7.2,7.2,0,0,0,.884.984,5.3,5.3,0,0,0-4.414,1.363.5.5,0,0,0-.068.689c1.409,1.274,3.75,1.467,5.519,2.214,1.2.5,6.061,2.907,19.6,1.048,3.741-.512,6.2-.8,8.775-3.859,2.829-3.363-.6-5.863-2.328-5.528" transform="translate(-104.451 -118.552)" fill="#e2ab93"/>
        <path id="Path_895240" data-name="Path 895240" d="M250.468,253.965a2.48,2.48,0,0,0-3.43,1.853c-1.208,1.4.495,3.689,1.4,4.762a2.446,2.446,0,0,0,2.861.76,3.832,3.832,0,0,0,1.685-2.471,4.317,4.317,0,0,0-2.512-4.9" transform="translate(-99.976 -102.875)" fill="#be7f6d"/>
        <path id="Path_895241" data-name="Path 895241" d="M244.7,222.745c-2.017,2.587-7.784,7.747-9.632,8.659-.068.034-.129.069-.193.1.472,5.921,3.747,12.982,9.541,14.152,4.178.844,7.529-3.514,8.9-7.951a.275.275,0,0,0,.068-.121,23.991,23.991,0,0,0,1.209-7.9c-3.283-.045-8.562-4.148-9.888-6.937" transform="translate(-95.215 -90.297)" fill="#e2ab93"/>
        <path id="Path_895242" data-name="Path 895242" d="M243.958,238.717c-1.332.6-2.477,1.434-4.008.975-.829-.249-1.2-1.224-1.811-1.764a.139.139,0,0,0-.216.168,3.794,3.794,0,0,0,2.139,2.219,4.146,4.146,0,0,0,4.073-1.369.147.147,0,0,0-.177-.23" transform="translate(-96.443 -96.436)" fill="#915e46"/>
        <path id="Path_895243" data-name="Path 895243" d="M261.882,237.923a7.832,7.832,0,0,1-2.735,1.859c-1.33.347-2-1.276-2.951-1.89-.144-.093-.285.11-.176.228.847.92,1.539,2.468,3.037,2.252a4.006,4.006,0,0,0,3.049-2.32c.052-.141-.132-.2-.225-.13" transform="translate(-103.771 -96.428)" fill="#915e46"/>
        <path id="Path_895244" data-name="Path 895244" d="M247.777,250.758a21.412,21.412,0,0,0,5.887.143s-3.015,5.887-5.887-.143" transform="translate(-100.445 -101.653)" fill="#fff"/>
        <path id="Path_895245" data-name="Path 895245" d="M223.572,263.657c-.58-1.421-.683-2.2-2.054-1.858a12.964,12.964,0,0,0-5.077,3.113,32.663,32.663,0,0,0-4.5,6.544c-1.954,3.641-4.94,14.392-4.94,14.392s6.69,1.72,8.077.817c.067.053,3.552-7.393,4.259-8.772,1.29-2.516,2.543-5.083,3.616-7.713.806-1.977,1.476-4.431.623-6.523" transform="translate(-83.913 -106.096)" fill="#d77f56"/>
        <path id="Path_895246" data-name="Path 895246" d="M207.571,303.443c2.412,3.182,4.856,3.6,8.566,4.3,13.426,2.547,18.4.4,19.627-.047,1.806-.655,4.152-.728,5.625-1.93a.5.5,0,0,0-.034-.691,5.3,5.3,0,0,0-4.338-1.586,7.273,7.273,0,0,0,.934-.938c.154-.189-.129-.473-.335-.483-1.425-.072-2.307-.388-3.5.379-.711.458-1.3,1.071-2.011,1.521-.518.328-1.118.439-1.614.73-6.854-1.192-13.456-4.957-20.315-6.66-1.709-.423-5.26,1.9-2.606,5.4" transform="translate(-83.759 -120.801)" fill="#e2ab93"/>
        <path id="Path_895247" data-name="Path 895247" d="M111.822,384.578c0,2.758-16.111,4.994-35.985,4.994s-35.984-2.235-35.984-4.994,16.111-4.993,35.984-4.993,35.985,2.235,35.985,4.993" transform="translate(-16.156 -153.877)" fill="#d3c8bb"/>
        <path id="Path_895248" data-name="Path 895248" d="M130.428,155.857a34.476,34.476,0,0,0-5.406-7.126c-1.2-1.166-4.385-4.383-6.271-3.977-2.1.453.649,7.451.929,8.828a38.727,38.727,0,0,0,2.3,8.411c1.57,3.473,5.363,6.7,9.25,4.624,3.513-1.877,1.592-6.759-.8-10.76" transform="translate(-47.821 -58.666)" fill="#d77f56"/>
        <path id="Path_895249" data-name="Path 895249" d="M102.939,90.95c-.442-3.22-3.06-8.2-6.8-8.414-2.9-.163-.959-.44-3.845-1.5-1.9-.7-7.855.147-10.057.708.079-.328.153-.654.215-.97.642-3.236-1.355-6.636-4.985-6.021a7.926,7.926,0,0,0-6.1,8.719c.547,2.912,3.606,3.027,6.132,2.788a18.99,18.99,0,0,0-1.107,3.1A25.153,25.153,0,0,0,76.2,101c1.028,4.713,4.249,6.83,8.737,7.872a17.154,17.154,0,0,0,6.337.232c1.877-.275,3.136-1.454,4.46-2.683.381-.354,1.051-.908,1.743-1.561a1.218,1.218,0,0,0,.085.154.5.5,0,0,0,.539.219c1.576-.256,2.133-1.617,2.157-3.036,1.272-3.7,3.229-7.256,2.681-11.243" transform="translate(-28.888 -30.273)" fill="#292627"/>
        <path id="Path_895250" data-name="Path 895250" d="M74.178,376.659c-1.363-1-5.344-2.387-6.833-3.239-1.215-.7-1.636-4.362-1.626-9.263l-5.919.506c.026.531-3.709,11.552,2.179,12.809,2.98.634,15.9,1.915,12.2-.813" transform="translate(-23.778 -147.623)" fill="#b7483d"/>
        <path id="Path_895251" data-name="Path 895251" d="M125.231,375.78c-1.362-1-5.343-2.386-6.835-3.241-1.212-.7-1.633-4.359-1.624-9.261l-5.919.505c.027.532-3.712,11.555,2.178,12.809,2.982.634,15.907,1.915,12.2-.812" transform="translate(-44.474 -147.267)" fill="#b7483d"/>
        <path id="Path_895252" data-name="Path 895252" d="M100.516,210.394c-.734-3.618-4.156-14.12-9.877-9.685a8.96,8.96,0,0,0-2.774,4.085,8.377,8.377,0,0,0-1.155-1.379c-2.325-2.181-6.152-1.959-8.6-.218-2.33,1.655-3.307,4.828-3.929,7.721-6.251,13.671-6.786,29-9.8,43.6q-2.353,11.4-3.952,22.911c-1.14,8.238-2.595,16.466-2.147,24.811.08,1.49,6.709,3.346,7.934-.5,2.378-7.446,6.224-29.085,8.728-36.49,4.538-13.425,8.737-26.933,12.357-40.634-1.817,22.772.871,45.343.643,68.236-.034,3.473-.839,13.5,5.961,10.71,5.96-2.444,4.824-15.751,5.2-20.523.967-12.275,1.763-24.476,2.214-36.781.442-12.033,1.623-23.939-.8-35.872" transform="translate(-23.592 -80.928)" fill="#533425"/>
        <path id="Path_895253" data-name="Path 895253" d="M107.952,183.761c-.438-9.044.467-18.217-.766-27.207-1.154-8.414-1.9-14.067-13.671-14.565-3.8.755-14.122.082-16.171,3.457-4.045,6.667-1.661,14.775-1.456,22.4.152,5.631.847,11.234,1.074,16.862.126,3.116-.727,7.918,1.128,10.663,1.57,2.329,6.5,2.275,8.948,2.728,4.568.851,9.093.593,13.7.41,2.774-.109,6.351-.755,7.58-3.547,1.309-2.967-.218-8.083-.367-11.206" transform="translate(-30.405 -57.56)" fill="#d77f56"/>
        <path id="Path_895254" data-name="Path 895254" d="M101.324,129.59c-4.076-1.924-4.775,3.83-5.07,6.434-.165,1.46-1.214,3.147-.442,4.593s2.817,1.691,4.288,1.808a3.5,3.5,0,0,0,3.669-2.625c1.076-3.186,1.83-8.193-2.445-10.211" transform="translate(-38.727 -52.377)" fill="#d5a275"/>
        <path id="Path_895255" data-name="Path 895255" d="M106.528,105.807a45.53,45.53,0,0,1-14.851,3.548,8.79,8.79,0,0,0-1.762-.05,11.335,11.335,0,0,0-.417,2.344c-.4,6.032,3.457,14.274,10.11,15.066,6.547.782,8.463-4.594,8.325-9.982.576-3.853.485-7.932-1.4-10.926" transform="translate(-36.269 -42.892)" fill="#e1b68a"/>
        <path id="Path_895256" data-name="Path 895256" d="M89.835,119.273c-1.074-1.756-4.084-4.462-4.366-.633-.171,2.314,2.719,6.58,4.691,3.36Z" transform="translate(-34.645 -47.306)" fill="#e1b68a"/>
        <path id="Path_895257" data-name="Path 895257" d="M106.061,128.038s5.424.483,6.384-.182c0,0-1.576,5.816-6.384.182" transform="translate(-42.995 -51.831)" fill="#fff"/>
        <path id="Path_895258" data-name="Path 895258" d="M86.384,236.454c-.023-.143-.229-.1-.24.029-.164,1.975-.873,3.917-1.211,5.874a20.7,20.7,0,0,1-1.587,5.328,11.135,11.135,0,0,1-2.252,3.481c-1.142,1.092-4.357.878-4.97-.876-.082-.241-.477-.227-.467.056.046,1.315,1.935,1.8,2.961,2.03a3.488,3.488,0,0,0,3.457-1.465,17.28,17.28,0,0,0,2.837-5.893c.463-1.656.634-3.4.951-5.083.229-1.226.722-2.214.52-3.481" transform="translate(-30.67 -95.818)" fill="#784933"/>
        <path id="Path_895259" data-name="Path 895259" d="M72.024,300.752c-.807-.305-1.661-.244-2.462-.634a4.008,4.008,0,0,1-1.95-2.137.153.153,0,0,0-.155-.091c-.012,0-.024,0-.039,0a.21.21,0,0,0-.062.011.135.135,0,0,0-.068.055.133.133,0,0,0-.038.059s-.006,0-.006.008c-.234,1.415,1.27,6.757,3.477,4.931a.157.157,0,0,0-.106-.268c-1.685.055-2.583-1.92-2.874-3.559a5.122,5.122,0,0,0,1.284,1.425,3.354,3.354,0,0,0,3.04.565c.175-.078.106-.313-.043-.368" transform="translate(-27.25 -120.759)" fill="#784933"/>
        <path id="Path_895260" data-name="Path 895260" d="M111.707,301.943a3.19,3.19,0,0,0-1.687-.091,4.855,4.855,0,0,1-2.585-.4.2.2,0,0,0-.2.336,4.287,4.287,0,0,0,2.053.728,5.079,5.079,0,0,0,2.42-.217.2.2,0,0,0,0-.352" transform="translate(-43.432 -122.192)" fill="#784933"/>
        <path id="Path_895261" data-name="Path 895261" d="M111.165,304.5c-.492-.385-1.45-.373-2.041-.548-.865-.254-2.162-.752-2.122-1.84.008-.2-.315-.257-.358-.053-.224,1.087.671,1.777,1.542,2.226.653.337,2.259,1.056,2.975.57a.209.209,0,0,0,0-.354" transform="translate(-43.217 -122.399)" fill="#784933"/>
        <path id="Path_895262" data-name="Path 895262" d="M138.908,178.625a20.279,20.279,0,0,0-2.067-1.881c-1.1-.887-2.25-1.719-3.33-2.635-1.413-1.2-1.145-2.025.134-2.9a4.943,4.943,0,0,0,2.365-2.749.525.525,0,0,0-.5-.661c-3.913-.432-7.834.015-11.761,0a54.444,54.444,0,0,0-11.819.725.533.533,0,0,0-.369.646c.822,2.818,4.235,3.156,6.5,4.241-.385.8-1.8.979-2.541,1.171a19.7,19.7,0,0,0-2.949.994c-2.676,1.161-5,3.041-5.79,5.951a12.79,12.79,0,0,0,.568,7.344,16.277,16.277,0,0,0,1.526,3.225c3.665,5.9,11.442,7.756,17.926,7.209,6.733-.561,14.027-4.5,15.008-11.811a10.119,10.119,0,0,0-2.9-8.87" transform="translate(-43.161 -67.947)" fill="#a76445"/>
        <path id="Path_895263" data-name="Path 895263" d="M86.659,85.542a2.509,2.509,0,0,0,.148-.625.664.664,0,0,0-.491-.645,2.978,2.978,0,0,0-2.525.793A10.828,10.828,0,0,0,80.2,89.721a.469.469,0,0,0-.026.208.654.654,0,0,0,.96.7,1.686,1.686,0,0,0,.313-.246A8.893,8.893,0,0,0,84.3,88.406a8.264,8.264,0,0,0,2.326-2.794c.006-.014.015-.027.021-.04s0-.02.008-.03" transform="translate(-32.492 -34.139)" fill="#d77f56"/>
        <path id="Path_895264" data-name="Path 895264" d="M105.145,185.049c-.557-1.424-2.424-1.991-3.791-2.257-1.561-.3-3.15-.423-4.709-.757a22.141,22.141,0,0,1-5.218-2.276c-5.646-2.871-10.765-6.11-12.681-12.382-1.154-3.775-.395-8,.291-11.785.5-2.753,1.637-5.944.708-8.7-.594-1.761-2.842-2.273-4.426-1.808-1.982.582-3.2,2.3-4.051,4.043a21.331,21.331,0,0,0-1.162,2.991c-.26.834-.475,1.687-.653,2.542-1.1,5.241-.417,10.791.973,15.914A27.62,27.62,0,0,0,79.79,184.8c4.633,3.741,10.849,6.759,16.967,6.312,2.8-.206,10-1.931,8.388-6.058" transform="translate(-27.934 -58.748)" fill="#d77f56"/>
        <path id="Path_895265" data-name="Path 895265" d="M138.931,206.474c-.243-.665-1.186-.718-1.766-.794a13.732,13.732,0,0,0-5.311.707c1.176-.515,2.346-1.035,2.778-2.2a.51.51,0,0,0-.352-.62c-1.679-.649-3.292.194-4.74,1.044-.812.476-1.573,1.035-2.379,1.52-.983.593-1.961.715-2.783,1.455-1.009.278-1.541,1.188-.755,2.475,1.51,2.474,4.847,2,7.206,1.569,1.246-.228,6.066-.671,6.543-2.422a2.131,2.131,0,0,0,.074-.526c.972-.592,1.794-1.357,1.484-2.2" transform="translate(-49.962 -82.428)" fill="#e1b68a"/>
        <path id="Path_895266" data-name="Path 895266" d="M102.436,214.343a24.576,24.576,0,0,1-20.762-8.69c-.228-.265-.593.115-.379.379,5.027,6.2,13.053,10.472,21.179,8.586a.141.141,0,0,0-.038-.275" transform="translate(-32.929 -83.332)" fill="#a76445"/>
        <path id="Path_895267" data-name="Path 895267" d="M96.533,184.316c-3.644-2.372-7.194-4.76-9.852-8.171a18.83,18.83,0,0,1,.1-12.754.1.1,0,0,0-.178-.075c-1.613,3.174-2.48,6.936-1.536,10.39-2.316-4.45-1.422-9.861-1.712-14.72a.1.1,0,0,0-.2,0c-.33,5.161-.478,11.108,1.911,15.841,2.25,4.457,6.9,7.691,11.19,9.965a.276.276,0,0,0,.278-.476" transform="translate(-33.634 -64.411)" fill="#a76445"/>
        <path id="Path_895268" data-name="Path 895268" d="M154.029,177.836a.663.663,0,0,0-.154-.234c-.058-.06-.121-.121-.184-.183a.879.879,0,0,0-.307-.826,1.668,1.668,0,0,0-1.892-.318.732.732,0,0,0-.092.075,1.364,1.364,0,0,0-.62.489.667.667,0,0,0,.239.911,2.8,2.8,0,0,0,1.479.359l.057.052a1.615,1.615,0,0,0-.156.12,4.024,4.024,0,0,0-1.37,4.34,1.187,1.187,0,0,0,.948.928c.027.03.048.065.08.095.634.589,1.795.109,2.477-.1a4.018,4.018,0,0,0,2.515-1.744c1.135-1.972-1.242-3.754-3.02-3.959" transform="translate(-61.083 -71.392)" fill="#e1b68a"/>
        <path id="Path_895269" data-name="Path 895269" d="M112.873,238.578c-.08-2.961-.61-5.877-.636-8.838-.016-1.779.078-4.437-1.344-5.8-1.675-1.6-4.043-1.145-6.188-1.029a91.641,91.641,0,0,1-9.991-.387c-2.691-.147-5.376-.4-8.067-.568-2.279-.141-6.758-.206-7.79-2.795a.639.639,0,0,0-1.055-.279c-1.25,1.428.27,3.151,1.5,4.184-.114,2.967.863,5.739,1.466,8.647.71,3.42,1.2,6.928,2.186,10.282A36.215,36.215,0,0,0,89.5,255.164c2.7,3.237,7.21,5.982,11.576,5.214,4.329-.76,7.188-4.192,9.062-7.943a28.946,28.946,0,0,0,2.733-13.856" transform="translate(-31.35 -88.654)" fill="#f5e9d1"/>
        <path id="Path_895270" data-name="Path 895270" d="M419.983,384.578c0,2.758-16.111,4.994-35.985,4.994s-35.984-2.235-35.984-4.994,16.111-4.993,35.984-4.993,35.985,2.235,35.985,4.993" transform="translate(-141.079 -153.877)" fill="#d3c8bb"/>
        <path id="Path_895271" data-name="Path 895271" d="M356.644,132.72c-1.611-1.5-2.435-.756-4.492-.851-3.07-.14-6.672,1.483-9.163,3.043-3.025,1.9-7.545,4.2-10.507.711-2.356-2.772-3.842-6.292-5.57-9.455-.4-.741-2.441-6.584-4.652-9.041a43.536,43.536,0,0,0-4.242,2.243c-.508,3.44,1.921,7.707,3.117,10.3,2.025,4.4,3.994,9.063,7.176,12.763,3.276,3.811,8.272,4.462,13.014,3.435,3.313-.717,6.323-2.091,9.509-3.179,2.061-.7,4.135-1.339,5.419-3.09,2.353-1.528,3.085-4.375.391-6.881" transform="translate(-128.891 -47.481)" fill="#d77f56"/>
        <path id="Path_895272" data-name="Path 895272" d="M315.686,100.8a.409.409,0,0,0-.563.146,6.562,6.562,0,0,0-.442,2.905,14.733,14.733,0,0,0-3.759-4.241c-.276-.214-.588.088-.617.354a5.879,5.879,0,0,0,.568,3.03,5.9,5.9,0,0,0-1.857-1.716.414.414,0,0,0-.616.353,3.748,3.748,0,0,0,.014.64l0,0c-.279-.322-.73-.036-.762.316-.305,3.426,2.946,7.816,5.569,9.78.9.67,2.93,1.8,3.925.556a3.4,3.4,0,0,0,.77-2.015.238.238,0,0,0,.2-.225c.233-3.256.505-7.689-2.426-9.881" transform="translate(-124.707 -40.352)" fill="#e1b68a"/>
        <path id="Path_895273" data-name="Path 895273" d="M334.867,90.987c-.161-.253-.328-.495-.514-.736-1.561-2.034-3.737-3.68-5.573-5.517-2.525-2.532-1.767-5.843-2.191-8.921-.1-.787-.068-2.264-1.387-2.511-4.322-.809-8.5-.809-10.5.315-.238.134-.455.163-.52.342a.329.329,0,0,0-.064.164c-.141,3.2-.115,6.415-1.7,9.376-1.206,2.264-3.429,4.213-5.085,6.23-2.319,2.82-4.059,6.3-3.423,9.748a8.1,8.1,0,0,0,.674,2.039c3.212,6.624,12.838,9.444,20.474,8.411,9.639-1.3,14.425-11.816,9.813-18.939" transform="translate(-123.145 -29.483)" fill="#a76445"/>
        <path id="Path_895274" data-name="Path 895274" d="M382.324,135.706c-1.611-1.5-2.434-.756-4.492-.852-3.069-.14-6.671,1.484-9.162,3.044-3.025,1.9-7.546,4.2-10.508.711-2.355-2.772-3.842-6.292-5.57-9.455-.406-.74-2.441-6.584-4.653-9.041a43.4,43.4,0,0,0-4.242,2.243c-.508,3.44,1.921,7.707,3.117,10.3,2.025,4.4,3.995,9.063,7.176,12.763,3.276,3.811,8.272,4.462,13.014,3.435,3.313-.717,6.322-2.09,9.509-3.179,2.061-.705,4.135-1.34,5.419-3.09,2.353-1.528,3.085-4.375.391-6.881" transform="translate(-139.301 -48.692)" fill="#d77f56"/>
        <path id="Path_895275" data-name="Path 895275" d="M341.365,103.787a.409.409,0,0,0-.563.146,6.547,6.547,0,0,0-.441,2.906,14.772,14.772,0,0,0-3.76-4.241c-.276-.213-.588.089-.617.354a5.89,5.89,0,0,0,.568,3.031,5.891,5.891,0,0,0-1.856-1.717.414.414,0,0,0-.617.353,3.74,3.74,0,0,0,.014.64l0,0c-.279-.322-.73-.036-.762.316-.3,3.427,2.946,7.816,5.569,9.78.9.671,2.931,1.8,3.926.557a3.411,3.411,0,0,0,.77-2.016.237.237,0,0,0,.2-.224c.233-3.256.5-7.689-2.427-9.882" transform="translate(-135.117 -41.562)" fill="#e1b68a"/>
        <path id="Path_895276" data-name="Path 895276" d="M404.7,106.906c-.769-1,1.31-5.725,1.564-7,.384-1.933.574-4.24-.929-5.786-2.437-2.507-5.972-2.24-7.043-6.1-.835-3-.657-6.185-2.026-9.032-1.186-2.471-4.363-3.829-6.82-4.553a15.986,15.986,0,0,0-11,1.074c-3.392,1.553-4.888,5.08-6.561,8.253a22.039,22.039,0,0,0-3.878,2.476c-2.191,2-.065,4.531-1.095,6.778-1.067,2.333-2.041,4.623-1.147,7.176.482,1.372,1.427,2.3,1.123,3.9-.312,1.633-1.905,3.4-2.563,4.956a4.617,4.617,0,0,0,.574,5.094,5.226,5.226,0,0,0,2.858,1.441c.706.171,1.453.234,2.168.362,1.349.24,2.2,1.39,3.176,2.2,2.039,1.7,4.582,1.145,6.93.643,2.407-.516,4.045.511,6.095,1.522a11.533,11.533,0,0,0,4.48.959c2.381.162,4.269-.571,5.255-2.783,1.273-2.863,5.786-2.861,8.344-4.464,1.321-.827,2.561-2.39,2.136-4.052a8.265,8.265,0,0,0-1.645-3.061" transform="translate(-147.49 -29.956)" fill="#292627"/>
        <path id="Path_895277" data-name="Path 895277" d="M371.668,343.12c3.993.821,6.7-1.448,8.815-4.593a41.067,41.067,0,0,0,3.7-6.072c.583-1.3-.638-3.6-1.516-5.49a10.8,10.8,0,0,1-.733-1.918c-1.286-6.071-.143-10.292-.915-16.452-.352-2.876-.6-5.765-1.038-8.634a46.183,46.183,0,0,1-.344-7.425.321.321,0,0,0,.1-.209c.316-2.8-2.206-14.856-5.1-15.858-3.325-1.143-5.75,3.9-6.073,6.38-1.279,9.807,7.554,42.555,7.65,45.7.086,2.612-1.5,7.509-2.861,9.846-.638,1.105-5.07,4.041-1.685,4.726" transform="translate(-149.358 -112.008)" fill="#e1b68a"/>
        <path id="Path_895278" data-name="Path 895278" d="M373.012,377.66c3.993.821,6.7-1.448,8.815-4.593a41.07,41.07,0,0,0,3.7-6.072c.583-1.3-.638-3.6-1.516-5.49-1.343,3.021-5.021,10.428-9.312,11.429-.638,1.105-5.07,4.041-1.685,4.726" transform="translate(-150.701 -146.548)" fill="#b7483d"/>
        <path id="Path_895279" data-name="Path 895279" d="M416.1,343.388c4.5-.828,6.358-4.323,7.235-8.486a45.921,45.921,0,0,0,1.291-7.867c.06-1.591-2.177-3.477-3.883-5.069a12.034,12.034,0,0,1-1.569-1.683c-3.892-5.772-4.477-10.642-7.87-16.721-1.577-2.845-3.049-5.743-4.712-8.54a51.7,51.7,0,0,1-3.479-7.574.364.364,0,0,0,.021-.263c-.852-3.044-4.863-7.372-8.3-7.2-3.938.21-3.745,5.562-3.039,8.276,2.8,10.733,21.479,34.828,22.9,38.061,1.188,2.678,1.6,8.435,1.169,11.437-.2,1.421-3.573,6.331.232,5.625" transform="translate(-158.665 -113.501)" fill="#e1b68a"/>
        <path id="Path_895280" data-name="Path 895280" d="M431.709,372.009c4.5-.828,6.358-4.323,7.235-8.486a45.922,45.922,0,0,0,1.291-7.867c.06-1.591-2.177-3.477-3.883-5.069-.128,3.7-.84,12.953-4.876,15.8-.2,1.421-3.573,6.331.232,5.625" transform="translate(-174.277 -142.122)" fill="#b7483d"/>
        <path id="Path_895281" data-name="Path 895281" d="M396.173,247c-.426-2.989-.505-5.955-.681-8.964a128.812,128.812,0,0,0-6.5-32.677,15.3,15.3,0,0,0-2.367-4.972,9.573,9.573,0,0,0-4.67-2.55,39.8,39.8,0,0,0-6.15-1.071c-2.223-.312-6.7.108-7.164,2.233-.5,2.281-2.677,8.592-3.02,10.9-.792,5.329-1.5,10.657-2.5,15.952-.92,4.878-1.01,9.871-1.6,14.787-.3,2.494-.305,4.964-.368,7.47-.057,2.245-.567,4.419.019,6.636a.538.538,0,0,0,.508.386,54.475,54.475,0,0,1,8.077,1.176,40.41,40.41,0,0,0,8.492.529c2.4-.093,4.753-.564,7.141-.753,1.786-.137,3.572-.17,5.354-.364,2.575-.281,5.51-.77,5.829-3.759a21,21,0,0,0-.4-4.963" transform="translate(-146.298 -79.727)" fill="#d77f56"/>
        <path id="Path_895282" data-name="Path 895282" d="M394.08,138.77c-3.063-2.625-6.353-2.532-12.856-2.336-3.6.078-7.358.709-9.9,3.282-3.743,3.787,1.259,29.309.984,34.826-.243,4.834,7.506,4.154,11.668,4.474a9.045,9.045,0,0,0,5.535-1.123c2.475-1.745,2.194-4.042,2.847-6.834,1.66-7.1,3.48-13.994,3.942-21.3.281-4.449,1.387-7.9-2.221-10.989" transform="translate(-149.963 -55.272)" fill="#d77f56"/>
        <path id="Path_895283" data-name="Path 895283" d="M390.175,119.676c-1.953-.714-3.559,1.617-3.776,3.58,0,.009-.007.015-.009.026-.555,2.839-.888,5.721-1.325,8.58a1.9,1.9,0,0,0,1.722,2.289c3.877-.011,5.995-2.38,6.592-6.046.463-2.859-.074-7.286-3.2-8.428" transform="translate(-156.089 -48.461)" fill="#d5a275"/>
        <path id="Path_895284" data-name="Path 895284" d="M386.875,92.03a27.812,27.812,0,0,1-9.321,8.568c-.166.5-.319,1-.442,1.491-1.273,5.079.524,12.521,6.553,13.55,3.292.558,5.935-.837,8.329-3.022,2.114-1.931,3.176-5.024,3.649-7.752.138-.8.263-1.632.346-2.481-4.386-.822-7.11-6.005-9.115-10.354" transform="translate(-152.719 -37.307)" fill="#e1b68a" fill-rule="evenodd"/>
        <path id="Path_895285" data-name="Path 895285" d="M407.347,112.439c-1.68.5-2.375,2.065-3.123,3.526l-.7.3c-.295,2.928,5.781-.039,6.112-2.188.242-1.585-.717-2.106-2.289-1.636" transform="translate(-163.577 -45.513)" fill="#e1b68a" fill-rule="evenodd"/>
        <path id="Path_895286" data-name="Path 895286" d="M381.549,116.188s5.411,1.022,8.18.507c0,0-4.875,6.882-8.18-.507" transform="translate(-154.673 -47.101)" fill="#fff"/>
        <path id="Path_895287" data-name="Path 895287" d="M413.36,160.6v0Z" transform="translate(-167.569 -65.106)" fill="#ab801f"/>
        <path id="Path_895288" data-name="Path 895288" d="M391.485,202.266c-5.053,2.793-11.5,1.952-16.375-.767a.229.229,0,0,0-.231.4,16.591,16.591,0,0,0,1.561.877,23.666,23.666,0,0,0-3.041,11.236.176.176,0,0,0,.344.046c.445-1.8.764-3.63,1.236-5.428.506-1.929,1.309-3.744,1.912-5.635a17.348,17.348,0,0,0,2.57.946,35.749,35.749,0,0,0-1.094,9.479c.011.191.317.256.351.048.238-1.428.356-2.872.523-4.309a47.541,47.541,0,0,0,.726-5.076,17.5,17.5,0,0,0,3.745.521,36.25,36.25,0,0,0,.511,10.035.129.129,0,0,0,.252-.034c-.169-3.328.023-6.679-.2-10,.284,0,.567,0,.852-.013a21.013,21.013,0,0,0,3.736-.512c.65,3.584.536,7.278,1.574,10.813a.2.2,0,0,0,.382-.051c-.076-2.1-.409-4.209-.68-6.3a20.453,20.453,0,0,0-.674-4.636,3.907,3.907,0,0,0,2.248-1.415.164.164,0,0,0-.223-.224" transform="translate(-151.37 -81.671)" fill="#ad6847"/>
        <path id="Path_895289" data-name="Path 895289" d="M356.9,158.091c-.482-.986-1.117-1.891-1.6-2.883a14.265,14.265,0,0,0-1.708-2.876c-.181-.224-.532.063-.39.3,1.064,1.792,1.617,4.523,3.431,5.724.175.116.345-.1.266-.266" transform="translate(-143.17 -61.72)" fill="#ad6847"/>
        <path id="Path_895290" data-name="Path 895290" d="M383.856,146.692c-4.36,5.406-15.6,9.465-18.065.02-.059-.228-.452-.186-.42.057a7.566,7.566,0,0,0,7.764,6.61c3.937.058,9.6-2.644,11.181-6.418.106-.252-.293-.477-.461-.268" transform="translate(-148.114 -59.414)" fill="#ad6847"/>
        <path id="Path_895291" data-name="Path 895291" d="M394.764,157.931c-.557-.774-1.755-.9-2.638-.963a5.485,5.485,0,0,0-1.55.1,12.63,12.63,0,0,0,2.813-3.424c.073-.139-.082-.329-.228-.229A39.922,39.922,0,0,0,389.6,156.6a30.885,30.885,0,0,1-5.13,3.561,19.987,19.987,0,0,1-6.139,2.241,25.066,25.066,0,0,1-3.335.487,19.008,19.008,0,0,1-3.593-.677c-.294-.043-.429.378-.126.456a12.322,12.322,0,0,0,5.506.64,27.654,27.654,0,0,0,6.635-1.778,29.054,29.054,0,0,0,5.921-3.442,5.29,5.29,0,0,1,2.975-.318c.754.107,1.474.511,2.226.543a.254.254,0,0,0,.218-.38" transform="translate(-150.442 -62.181)" fill="#ad6847"/>
        <path id="Path_895292" data-name="Path 895292" d="M400.3,221.769c-3.656-2.955-5.426-6.7-7.253-10.954a42.979,42.979,0,0,0-3.005-5.959c-.721-1.15-1.48-2.258-2.182-3.395a7.682,7.682,0,0,0,3.483,2.2,4.4,4.4,0,0,0,5.284-3.344c.5-2.913-3.028-5.059-6.274-5.618,2.466-1.887,4.429-5.215,2.706-7.4-1.375-1.744-3.5-1.048-4.678.6a11.019,11.019,0,0,0-2.091,6.595,2.632,2.632,0,0,0-1.5.058,5.944,5.944,0,0,0-1.375.491,12.173,12.173,0,0,0-5.146,1.583c-3.9-.733-11.486-4.409-12.652-.882a.484.484,0,0,0,.069.475c-.318.739-.542,1.531-.714,1.975-1.325,3.428-2.361,6.97-3.41,10.489-.834,2.8-1.611,5.583-2.622,8.318a78.844,78.844,0,0,0-2.525,9.684,13.889,13.889,0,0,0-.593,5.777c.742,3.831,7.148,4.305,10.076,4.517,3.778.272,8.463.673,10.2-3.427a28.318,28.318,0,0,0,1.337-6.331q.8-4.713,1.435-9.453c.454-3.387.856-6.78,1.185-10.182a65.3,65.3,0,0,0,.645-9.361c.13-.072.259-.147.387-.224a21.289,21.289,0,0,0,3.188.06,4.749,4.749,0,0,0,.614-.092,25.122,25.122,0,0,1,.35,4.229c.139,1.674.376,3.339.624,5a57.13,57.13,0,0,0,2.421,10.409,72.316,72.316,0,0,0,3.744,8.2c1.012,2.047,2.246,4.83,4.568,5.631a.407.407,0,0,0,.457-.593,58.7,58.7,0,0,1-8.25-15.96,68.968,68.968,0,0,1-2.219-10.9c-.115-.784-.146-1.8-.227-2.842a33.052,33.052,0,0,0,1.72,2.965,51.259,51.259,0,0,1,3.981,7.811c1.534,3.662,3.512,9.384,7.691,10.8.523.177,1-.593.555-.954m-12.7-29.739a11.546,11.546,0,0,1,1-2.507c.114-.188.23-.377.344-.566q1.169-2.275,3.577.365c.1,1.8-2.092,4.309-4.134,5.247a5.575,5.575,0,0,0-1.243.191,18.273,18.273,0,0,1,.456-2.73m-.538,4.106a4.509,4.509,0,0,0,1.513-.377c2.782,0,7.095,2.022,6.653,4.553-.26,1.5-2.24,2.2-3.509,1.995a5.9,5.9,0,0,1-3.355-2.392c-.71-.923-1.183-1.9-1.835-2.752a1.944,1.944,0,0,0,.533-1.027" transform="translate(-144.189 -75.515)" fill="#f5e9d1"/>
      </g>
    </g>
  </g>
</svg>
