<svg xmlns="http://www.w3.org/2000/svg" xmlns:xlink="http://www.w3.org/1999/xlink" width="75" height="75" viewBox="0 0 75 75">
  <defs>
    <clipPath id="clip-path">
      <rect id="Rectangle_407307" data-name="Rectangle 407307" width="75" height="75" fill="#fff" stroke="#707070" stroke-width="1"/>
    </clipPath>
    <clipPath id="clip-path-2">
      <rect id="Rectangle_407302" data-name="Rectangle 407302" width="75.289" height="69.828" fill="#ffc811"/>
    </clipPath>
    <clipPath id="clip-path-3">
      <path id="Path_893561" data-name="Path 893561" d="M56.905,35.172c-5.253,3.9-19.261,4.854-19.261,4.854s-14.007-.955-19.261-4.854S5.331,31.431,1.828,34.853C.886,35.773,0,38.278,0,41.527v.039A20.642,20.642,0,0,0,5.132,54.908c4.975,5.846,13.491,11.622,32.513,11.622s27.538-5.776,32.513-11.622c7.151-8.4,5.369-18.037,3.3-20.055a10.812,10.812,0,0,0-7.521-2.587,15.344,15.344,0,0,0-9.034,2.906" transform="translate(0 -32.266)" fill="none"/>
    </clipPath>
    <linearGradient id="linear-gradient" y1="1.37" x2="0.009" y2="1.37" gradientUnits="objectBoundingBox">
      <stop offset="0" stop-color="#c0b3a7"/>
      <stop offset="0.505" stop-color="#e2dcd6"/>
      <stop offset="1" stop-color="#c3b5aa"/>
    </linearGradient>
    <clipPath id="clip-path-4">
      <rect id="Rectangle_407304" data-name="Rectangle 407304" width="75.289" height="69.828" fill="none"/>
    </clipPath>
    <clipPath id="clip-path-5">
      <path id="Path_893569" data-name="Path 893569" d="M44.568,23.98c-3.422.414-10.658,1.468-11.709,3.089-1.384,2.133-3.922,14.188-3.922,14.188S33.09,45.8,46.356,45.8s17.419-4.542,17.419-4.542S61.236,29.2,59.852,27.069c-1.051-1.621-8.287-2.675-11.709-3.089a14.811,14.811,0,0,0-3.574,0" transform="translate(-28.938 -23.872)" fill="none"/>
    </clipPath>
    <linearGradient id="linear-gradient-2" x1="-0.58" y1="2.424" x2="-0.56" y2="2.424" xlink:href="#linear-gradient"/>
  </defs>
  <g id="Mask_Group_1116928" data-name="Mask Group 1116928" clip-path="url(#clip-path)">
    <g id="Group_1116951" data-name="Group 1116951" transform="translate(0 4.139)">
      <g id="Group_1116942" data-name="Group 1116942">
        <g id="Group_1116941" data-name="Group 1116941" clip-path="url(#clip-path-2)">
          <path id="Path_893560" data-name="Path 893560" d="M73.547,34.914A34.914,34.914,0,1,1,38.633,0,34.914,34.914,0,0,1,73.547,34.914" transform="translate(-1.122)" fill="#ffc811"/>
        </g>
      </g>
      <g id="Group_1116944" data-name="Group 1116944" transform="translate(0 22.531)">
        <g id="Group_1116943" data-name="Group 1116943" clip-path="url(#clip-path-3)">
          <rect id="Rectangle_407303" data-name="Rectangle 407303" width="77.308" height="35.259" transform="translate(0 -0.994)" fill="url(#linear-gradient)"/>
        </g>
      </g>
      <g id="Group_1116946" data-name="Group 1116946">
        <g id="Group_1116945" data-name="Group 1116945" clip-path="url(#clip-path-4)">
          <path id="Path_893562" data-name="Path 893562" d="M73.46,34.853c-3.5-3.422-11.3-3.581-16.555.318-.2.147-.411.29-.632.429,4.745-2.694,11.14-2.388,14.123.364,1.889,1.742,3.519,10.057-3.021,17.31C62.827,58.32,55.039,63.305,37.644,63.305S12.461,58.32,7.912,53.274C1.374,46.021,3,37.706,4.891,35.964c2.984-2.752,9.379-3.058,14.124-.364-.222-.139-.434-.281-.632-.429-5.253-3.9-13.053-3.741-16.555-.318-2.065,2.018-3.847,11.652,3.3,20.055,4.975,5.846,13.491,11.622,32.513,11.622s27.538-5.776,32.513-11.622c7.151-8.4,5.369-18.037,3.3-20.055" transform="translate(0 -9.735)" fill="#554b54"/>
          <path id="Path_893563" data-name="Path 893563" d="M46.061,41.989s12.81-.825,17.614-4.19c.18-.126.365-.246.552-.363-5.873,3.312-18.166,4.151-18.166,4.151S33.768,40.748,27.9,37.436c.186.117.371.237.552.363,4.8,3.366,17.614,4.19,17.614,4.19" transform="translate(-8.417 -11.295)" fill="#554b54"/>
          <path id="Path_893564" data-name="Path 893564" d="M69.85,38.647c-2.855-2.447-9.215-2.561-13.5.228-.162.105-.334.207-.515.307,3.868-1.926,9.083-1.707,11.515.26,1.54,1.245,2.869,7.19-2.463,12.376-3.709,3.607-10.059,7.172-24.241,7.172s-20.532-3.565-24.241-7.172c-5.331-5.185-4-11.131-2.464-12.376,2.434-1.968,7.648-2.186,11.517-.26-.182-.1-.355-.2-.515-.307-4.284-2.788-10.643-2.674-13.5-.228C9.762,40.09,8.309,46.978,14.14,52.985c4.056,4.18,11,8.31,26.508,8.31s22.452-4.13,26.509-8.31c5.83-6.007,4.377-12.9,2.693-14.338" transform="translate(-3.004 -11.103)" fill="#554b54"/>
          <path id="Path_893565" data-name="Path 893565" d="M47.51,43.748s10.444-.589,14.361-3c.147-.09.3-.177.45-.26-4.788,2.368-14.811,2.968-14.811,2.968s-10.023-.6-14.811-2.968c.152.083.3.17.45.26,3.916,2.407,14.361,3,14.361,3" transform="translate(-9.866 -12.218)" fill="#554b54"/>
          <path id="Path_893566" data-name="Path 893566" d="M66.775,41.422c-2.3-1.642-7.437-1.718-10.895.153-.131.071-.27.139-.416.205,3.123-1.293,7.331-1.146,9.295.175,1.243.836,2.315,4.825-1.988,8.305-2.994,2.421-8.119,4.813-19.566,4.813S26.633,52.681,23.639,50.26c-4.3-3.48-3.23-7.469-1.988-8.305,1.964-1.321,6.173-1.468,9.295-.175-.146-.066-.286-.135-.415-.205-3.457-1.871-8.59-1.8-10.895-.153-1.36.969-2.532,5.591,2.174,9.623,3.273,2.8,8.878,5.576,21.4,5.576s18.122-2.771,21.4-5.576c4.706-4.032,3.533-8.654,2.174-9.623" transform="translate(-5.561 -12.123)" fill="#554b54"/>
          <path id="Path_893567" data-name="Path 893567" d="M48.745,44.846s8.43-.4,11.591-2.01c.119-.061.24-.119.363-.175-3.864,1.589-11.955,1.991-11.955,1.991s-8.09-.4-11.955-1.991c.123.056.244.114.363.175,3.161,1.615,11.591,2.01,11.591,2.01" transform="translate(-11.1 -12.872)" fill="#554b54"/>
          <path id="Path_893568" data-name="Path 893568" d="M64.3,46.38a2.863,2.863,0,0,0-.994-.649c-1.419-.611-3-.336-4.509-.257a36.46,36.46,0,0,1-3.858,0,11.211,11.211,0,0,1-1.519.6c-1.082.343-2.225.442-3.331.691-.208.046-.484.093-.766.152a4.094,4.094,0,0,1-2.9,1.159,4,4,0,0,1-.672-.059q-.3.051-.6.094-.3-.043-.6-.094a3.988,3.988,0,0,1-.671.059,4.093,4.093,0,0,1-2.9-1.159c-.282-.059-.558-.106-.766-.152-1.107-.249-2.249-.348-3.331-.691a11.211,11.211,0,0,1-1.519-.6,36.46,36.46,0,0,1-3.858,0C30,45.395,28.421,45.12,27,45.731a2.863,2.863,0,0,0-.994.649,2.052,2.052,0,0,0-.3,2.184c.578,1.355,2.341,2.427,3.632,3.154a18.885,18.885,0,0,0,1.88.921,22.659,22.659,0,0,0,2.229.808c.86.263,1.737.481,2.622.663,1.011.207,2.033.365,3.061.486,1.177.139,2.36.228,3.544.279.824.036,1.649.052,2.474.054s1.65-.018,2.474-.054c1.184-.052,2.368-.14,3.544-.279,1.027-.121,2.049-.279,3.061-.486.885-.182,1.762-.4,2.622-.663a22.659,22.659,0,0,0,2.229-.808,18.96,18.96,0,0,0,1.88-.921c1.291-.727,3.054-1.8,3.632-3.154a2.052,2.052,0,0,0-.3-2.184" transform="translate(-7.703 -13.681)" fill="#554b54"/>
        </g>
      </g>
      <g id="Group_1116948" data-name="Group 1116948" transform="translate(20.207 16.669)">
        <g id="Group_1116947" data-name="Group 1116947" clip-path="url(#clip-path-5)">
          <rect id="Rectangle_407305" data-name="Rectangle 407305" width="34.836" height="21.927" transform="translate(0 0)" fill="url(#linear-gradient-2)"/>
        </g>
      </g>
      <g id="Group_1116950" data-name="Group 1116950">
        <g id="Group_1116949" data-name="Group 1116949" clip-path="url(#clip-path-4)">
          <path id="Path_893570" data-name="Path 893570" d="M38.981,48.277c.064-.373.128-.753.179-1.142a.228.228,0,0,0-.175-.259,15.907,15.907,0,0,1-5.194-2.192h0a.226.226,0,0,0-.342.161c-.265,1.176-.459,2.116-.526,2.444a.258.258,0,0,0,.068.23c.375.385,1.883,1.723,5.469,2.475a.245.245,0,0,0,.29-.2c.071-.492.145-1,.235-1.516" transform="translate(-9.931 -13.471)" fill="#554b54"/>
          <path id="Path_893571" data-name="Path 893571" d="M40.033,42.044c.066-.387.132-.781.186-1.182a.226.226,0,0,0-.169-.261A14.481,14.481,0,0,1,35,38.515l0,0a.229.229,0,0,0-.338.175c-.281,1.212-.49,2.185-.562,2.524a.266.266,0,0,0,.062.236c.361.385,1.823,1.723,5.345,2.389a.254.254,0,0,0,.287-.215c.074-.513.152-1.037.244-1.577" transform="translate(-10.285 -11.61)" fill="#554b54"/>
          <path id="Path_893572" data-name="Path 893572" d="M40.764,37.232a.257.257,0,0,0,.271-.23c.077-.528.158-1.068.252-1.622.068-.4.134-.8.19-1.21a.217.217,0,0,0-.152-.26,12.124,12.124,0,0,1-4.647-1.96l0,0c-.12-.082-.277.011-.318.186-.29,1.238-.509,2.236-.585,2.584a.279.279,0,0,0,.053.239c.327.383,1.663,1.707,4.939,2.275" transform="translate(-10.791 -9.63)" fill="#554b54"/>
          <path id="Path_893573" data-name="Path 893573" d="M66.163,48.277c-.065-.373-.128-.753-.179-1.142a.228.228,0,0,1,.175-.259,15.914,15.914,0,0,0,5.194-2.192h0a.226.226,0,0,1,.342.161c.265,1.176.459,2.116.527,2.444a.26.26,0,0,1-.068.23c-.376.385-1.883,1.723-5.469,2.475a.245.245,0,0,1-.29-.2c-.071-.492-.145-1-.234-1.516" transform="translate(-19.908 -13.471)" fill="#554b54"/>
          <path id="Path_893574" data-name="Path 893574" d="M65.161,42.044c-.066-.387-.132-.781-.186-1.182a.226.226,0,0,1,.169-.261A14.48,14.48,0,0,0,70.2,38.515l0,0a.229.229,0,0,1,.338.175c.281,1.212.49,2.185.562,2.524a.266.266,0,0,1-.062.236c-.361.385-1.823,1.723-5.345,2.389a.254.254,0,0,1-.287-.215c-.074-.513-.152-1.037-.244-1.577" transform="translate(-19.604 -11.61)" fill="#554b54"/>
          <path id="Path_893575" data-name="Path 893575" d="M64.609,37.232a.257.257,0,0,1-.271-.23c-.077-.528-.158-1.068-.252-1.622-.068-.4-.135-.8-.191-1.21a.217.217,0,0,1,.153-.26,12.124,12.124,0,0,0,4.647-1.96l0,0c.12-.082.277.011.318.186.291,1.238.51,2.236.586,2.584a.279.279,0,0,1-.053.239c-.327.383-1.663,1.707-4.939,2.275" transform="translate(-19.278 -9.63)" fill="#554b54"/>
          <path id="Path_893576" data-name="Path 893576" d="M48.068,30.048c5.324,0,11.339-.913,13.2-2.218a.991.991,0,0,0,.279-.76c-1.051-1.62-8.286-2.676-11.709-3.089a14.852,14.852,0,0,0-3.574,0c-3.422.413-10.658,1.469-11.709,3.089-.054.085.546.568.965.714a38.88,38.88,0,0,0,12.552,2.264" transform="translate(-10.424 -7.203)" fill="#ebe7e3"/>
          <path id="Path_893577" data-name="Path 893577" d="M59.5,27c-.767-1.09-6.053-1.8-8.552-2.077a11.4,11.4,0,0,0-2.557,0c-2.5.278-7.784.987-8.552,2.077a.635.635,0,0,0,.2.511c1.355.877,5.741,1.717,9.626,1.718s8.271-.841,9.626-1.718A.635.635,0,0,0,59.5,27m-2.442.186c-1.04.6-4.406,1.178-7.388,1.179s-6.349-.577-7.388-1.179a.411.411,0,0,1-.156-.351c.589-.748,4.645-1.235,6.564-1.426q.489-.048.981-.049t.981.049c1.919.191,5.974.678,6.564,1.426a.411.411,0,0,1-.156.351" transform="translate(-12.018 -7.498)" fill="#554b54"/>
          <path id="Path_893578" data-name="Path 893578" d="M56.571,27.315c-.365-.415-2.875-.685-4.062-.791q-.3-.027-.607-.028t-.607.028c-1.187.106-3.7.376-4.062.791-.02.023.026.159.1.2a13.811,13.811,0,0,0,4.572.654,13.811,13.811,0,0,0,4.572-.654c.071-.037.117-.172.1-.2m-1.16.071a11.758,11.758,0,0,1-3.509.449,11.758,11.758,0,0,1-3.509-.449c-.054-.025-.089-.119-.075-.134a10.375,10.375,0,0,1,3.118-.543c.154-.013.31-.018.466-.019s.311.006.466.019a10.366,10.366,0,0,1,3.117.543c.015.015-.02.109-.074.134" transform="translate(-14.25 -7.994)" fill="#554b54"/>
          <path id="Path_893579" data-name="Path 893579" d="M51.1,39c1.008.089.886-.737.563-.855s-1.121-.221-.992-.959c.112-.646,1.043-.342,1.177-.61a.583.583,0,0,0-.219-.795.828.828,0,0,0-.56-.055c-.843.171-1.628.554-1.657,1.364A1.65,1.65,0,0,0,51.1,39" transform="translate(-14.908 -10.773)" fill="#554b54"/>
          <path id="Path_893580" data-name="Path 893580" d="M55.511,37.189c.129.738-.669.841-.992.959s-.446.943.563.855a1.651,1.651,0,0,0,1.688-1.91c-.03-.81-.814-1.193-1.657-1.364a.828.828,0,0,0-.56.055.583.583,0,0,0-.219.8c.135.267,1.065-.036,1.177.61" transform="translate(-16.372 -10.773)" fill="#554b54"/>
          <path id="Path_893581" data-name="Path 893581" d="M53.437,38.491a.455.455,0,1,0-.455-.455.455.455,0,0,0,.455.455" transform="translate(-15.986 -11.339)" fill="#554b54"/>
          <path id="Path_893582" data-name="Path 893582" d="M51.1,45.486c1.008.089.886-.737.563-.855s-1.121-.221-.992-.959c.112-.646,1.043-.342,1.177-.61a.583.583,0,0,0-.219-.795.828.828,0,0,0-.56-.055c-.843.171-1.628.554-1.657,1.364a1.65,1.65,0,0,0,1.688,1.91" transform="translate(-14.908 -12.729)" fill="#554b54"/>
          <path id="Path_893583" data-name="Path 893583" d="M55.113,42.213a.828.828,0,0,0-.56.055.582.582,0,0,0-.219.795c.135.267,1.064-.036,1.177.61.128.737-.669.841-.992.959s-.446.944.564.855a1.649,1.649,0,0,0,1.687-1.91c-.029-.809-.814-1.193-1.656-1.364" transform="translate(-16.372 -12.729)" fill="#554b54"/>
          <path id="Path_893584" data-name="Path 893584" d="M52.982,44.494a.455.455,0,1,0,.455-.455.455.455,0,0,0-.455.455" transform="translate(-15.986 -13.288)" fill="#554b54"/>
          <path id="Path_893585" data-name="Path 893585" d="M51.664,51.115c-.324-.119-1.121-.221-.993-.959.113-.646,1.043-.342,1.178-.61a.582.582,0,0,0-.22-.795.828.828,0,0,0-.56-.055c-.842.171-1.627.554-1.656,1.364a1.65,1.65,0,0,0,1.688,1.91c1.008.089.886-.737.564-.855" transform="translate(-14.908 -14.685)" fill="#554b54"/>
          <path id="Path_893586" data-name="Path 893586" d="M55.113,48.7a.828.828,0,0,0-.56.055.582.582,0,0,0-.219.795c.135.267,1.064-.036,1.177.61.128.738-.669.841-.992.959s-.446.944.564.855a1.649,1.649,0,0,0,1.687-1.91c-.029-.809-.814-1.193-1.656-1.364" transform="translate(-16.372 -14.685)" fill="#554b54"/>
          <path id="Path_893587" data-name="Path 893587" d="M53.437,50.428a.427.427,0,1,0,.455.426.441.441,0,0,0-.455-.426" transform="translate(-15.986 -15.215)" fill="#554b54"/>
          <path id="Path_893588" data-name="Path 893588" d="M44.952,36.96l.832,1.781,1.222-1.415-.783-1.677Z" transform="translate(-13.563 -10.756)" fill="#554b54"/>
          <path id="Path_893589" data-name="Path 893589" d="M44.232,43.323l.832,1.78,1.222-1.415L45.5,42.011Z" transform="translate(-13.346 -12.676)" fill="#554b54"/>
          <path id="Path_893590" data-name="Path 893590" d="M43.513,49.686l.832,1.78,1.222-1.415-.783-1.677Z" transform="translate(-13.129 -14.596)" fill="#554b54"/>
          <path id="Path_893591" data-name="Path 893591" d="M61.429,36.96l-1.27-1.311-.783,1.677L60.6,38.74Z" transform="translate(-17.915 -10.756)" fill="#554b54"/>
          <path id="Path_893592" data-name="Path 893592" d="M62.148,43.323l-1.27-1.311-.783,1.676L61.317,45.1Z" transform="translate(-18.132 -12.676)" fill="#554b54"/>
          <path id="Path_893593" data-name="Path 893593" d="M61.6,48.375l-.783,1.676,1.221,1.415.832-1.78Z" transform="translate(-18.349 -14.596)" fill="#554b54"/>
        </g>
      </g>
    </g>
  </g>
</svg>
