<svg xmlns="http://www.w3.org/2000/svg" xmlns:xlink="http://www.w3.org/1999/xlink" width="105.336" height="105.336" viewBox="0 0 105.336 105.336">
  <defs>
    <clipPath id="clip-path">
      <rect id="Rectangle_401492" data-name="Rectangle 401492" width="98.986" height="98.987" transform="translate(0 0)" fill="#fff" stroke="#707070" stroke-width="1"/>
    </clipPath>
    <clipPath id="clip-path-2">
      <rect id="Rectangle_401491" data-name="Rectangle 401491" width="78.626" height="90.827" fill="#fff"/>
    </clipPath>
    <clipPath id="clip-path-3">
      <rect id="Rectangle_406251" data-name="Rectangle 406251" width="105" height="105" fill="#1e2ad5"/>
    </clipPath>
    <clipPath id="clip-path-4">
      <rect id="Rectangle_401492-2" data-name="Rectangle 401492" width="97.621" height="97.622" transform="translate(-0.062 0.119)" fill="#fffceb" stroke="#707070" stroke-width="1"/>
    </clipPath>
    <clipPath id="clip-path-5">
      <rect id="Rectangle_407547" data-name="Rectangle 407547" width="60.255" height="55.134" fill="#fff"/>
    </clipPath>
  </defs>
  <g id="Group_1117142" data-name="Group 1117142" transform="translate(-313 -7638)">
    <g id="Group_1115376" data-name="Group 1115376" transform="translate(319.35 7641.083)">
      <rect id="Rectangle_401104" data-name="Rectangle 401104" width="92.228" height="93.717" transform="translate(3.379 0)" fill="none"/>
      <g id="Mask_Group_1098697" data-name="Mask Group 1098697" transform="translate(0 0.001)" clip-path="url(#clip-path)">
        <g id="Group_1100236" data-name="Group 1100236" transform="translate(13.462 4.038)">
          <g id="Group_1100235" data-name="Group 1100235" clip-path="url(#clip-path-2)">
            <path id="Path_873786" data-name="Path 873786" d="M69.95,73.053c.224,0,.449,0,.673,0,1.369-.008,2.738-.035,4.107-.013a2.764,2.764,0,0,1,1.174.248,1.708,1.708,0,0,1,.92,1.677,15.314,15.314,0,0,1-3.113,9.277,15.759,15.759,0,0,1-10.091,6.3,16.356,16.356,0,0,1-2.99.274q-25.131.024-50.261,0a9.8,9.8,0,0,1-9.35-5.811A10.022,10.022,0,0,1,.091,81.16C.03,80.3,0,79.428,0,78.561Q0,42.449.02,6.337A8.2,8.2,0,0,1,.5,3.434,5.247,5.247,0,0,1,5.673,0c.068,0,.136,0,.2,0Q33.141,0,60.407,0a5.618,5.618,0,0,1,3.925,1.393A5.31,5.31,0,0,1,66.113,5.23c.018.352.016.705.016,1.057q0,18.555,0,37.109a.809.809,0,0,0,.294.556,24.021,24.021,0,0,0,10.123,4.468,4.023,4.023,0,0,1,.9.257,1.528,1.528,0,0,1,.944,1.239,27.632,27.632,0,0,1,.236,3.12,25.982,25.982,0,0,1-6.764,17.936c-.612.683-1.288,1.309-1.934,1.961.007.04.015.08.022.119M50.1,55.205c0-1.09-.03-2.12.01-3.147a14.046,14.046,0,0,1,.246-2.216,1.607,1.607,0,0,1,1.415-1.328c.48-.081.958-.174,1.438-.262a19.8,19.8,0,0,0,9.131-4.27.92.92,0,0,0,.266-.619c.024-.718-.016-1.437-.016-2.156q.011-17.781.034-35.562a1.875,1.875,0,0,0-2.061-2.08c-3.361.051-6.723.016-10.084.016H5.465A1.65,1.65,0,0,0,3.627,5.135a5.319,5.319,0,0,0-.043.851q0,37.19.005,74.379a10.743,10.743,0,0,0,.164,1.818,6.272,6.272,0,0,0,5.3,5.026,6.156,6.156,0,0,0,6.776-4.081,9.392,9.392,0,0,0,.342-3.258c-.008-1.641-.01-3.282.015-4.922a1.77,1.77,0,0,1,1.759-1.9,5.075,5.075,0,0,1,.568-.027q19.8.01,39.605.021c.232,0,.464-.032.8-.057A26.458,26.458,0,0,1,50.7,58.76c-.136-.008-.256-.02-.375-.02q-11.345,0-22.69,0a8.382,8.382,0,0,1-.893-.037,1.8,1.8,0,0,1-1.672-1.733,1.85,1.85,0,0,1,1.667-1.714,10.388,10.388,0,0,1,1.1-.052q10.471,0,20.941,0H50.1M73.2,76.529h-.78q-11.1,0-22.2-.006-15.043,0-30.087,0c-.358,0-.465.1-.459.459.021,1.369.028,2.739.006,4.109a9.492,9.492,0,0,1-2.124,5.971.748.748,0,0,0-.067.178h.479q21.65,0,43.3,0a8.768,8.768,0,0,0,1.539-.1,12.42,12.42,0,0,0,9.355-7.045,10.761,10.761,0,0,0,1.037-3.56m-19.49-24.8a24.021,24.021,0,0,0,.427,6.368A22.755,22.755,0,0,0,63.82,72.4c.541.371.551.378,1.1,0,7.1-4.921,10.426-11.73,10.171-20.337-.009-.307-.112-.41-.4-.478a27.184,27.184,0,0,1-8.042-3.292c-.768-.474-1.512-.985-2.266-1.479a24.079,24.079,0,0,1-10.672,4.91" transform="translate(0 0)" fill="#fff"/>
            <path id="Path_873787" data-name="Path 873787" d="M51.693,50.362H30.064a5.66,5.66,0,0,1-.649-.023A1.8,1.8,0,0,1,27.63,48.37q-.011-9.6,0-19.2A1.827,1.827,0,0,1,29.544,27.2c.392-.023.786-.006,1.179-.006q21.344,0,42.689,0a4.382,4.382,0,0,1,.967.094,1.913,1.913,0,0,1,1.476,1.78c.009.135.005.271.005.407q0,9.3,0,18.591a1.991,1.991,0,0,1-2.255,2.29c-4.282.016-8.565.008-12.847.008H51.693M72.26,30.7h-2.3q-19.172,0-38.344-.005c-.394,0-.5.1-.494.5q.021,7.629,0,15.258c0,.311.085.384.387.383,2.453-.014,4.907-.012,7.36-.013l32.936-.008c.144,0,.289-.012.452-.02Z" transform="translate(-18.603 -18.307)" fill="#fff"/>
            <path id="Path_873788" data-name="Path 873788" d="M40.064,175.247c0,1.342-.057,2.687.015,4.024A2.043,2.043,0,0,1,37.8,181.54c-1.625,0-3.251.008-4.876,0-1.191-.009-2.384-.019-3.573-.076a1.732,1.732,0,0,1-1.722-1.8q-.03-4.411-.009-8.822a1.693,1.693,0,0,1,1.682-1.782c.417-.038.839-.026,1.259-.027,2.37,0,4.74-.007,7.11,0a4.277,4.277,0,0,1,1.122.131,1.75,1.75,0,0,1,1.274,1.73q0,2.175,0,4.35m-3.593-2.677c-1.7,0-3.352.006-5-.005-.3,0-.358.111-.355.386.017,1.56.014,3.119.021,4.679a2.733,2.733,0,0,0,.032.3h5.307Z" transform="translate(-18.591 -113.828)" fill="#fff"/>
            <path id="Path_873789" data-name="Path 873789" d="M40.076,120.788c0,1.451,0,2.9,0,4.352a1.747,1.747,0,0,1-1.828,1.849q-4.349,0-8.7,0a1.745,1.745,0,0,1-1.915-1.883q-.021-4.311,0-8.622a1.763,1.763,0,0,1,1.908-1.864c2.845,0,5.69,0,8.535-.008a1.848,1.848,0,0,1,1.8,1.017,1.593,1.593,0,0,1,.186.686c.016,1.491.008,2.982.008,4.473m-3.6-2.564a1.471,1.471,0,0,0-.171-.022c-1.624-.008-3.248-.008-4.872-.028-.314,0-.307.162-.305.384.008,1.435.01,2.871.014,4.306,0,.171,0,.342,0,.514h5.334Z" transform="translate(-18.603 -77.183)" fill="#fff"/>
            <path id="Path_873790" data-name="Path 873790" d="M91.882,114.622q6.545,0,13.09,0a3.467,3.467,0,0,1,.763.081,1.714,1.714,0,0,1,.138,3.281,4.628,4.628,0,0,1-1.274.212q-12.46.018-24.919,0a7.085,7.085,0,0,1-1.451-.14,1.729,1.729,0,0,1,.4-3.434c2.412-.005,4.824,0,7.235,0h6.016Z" transform="translate(-51.667 -77.189)" fill="#fff"/>
            <path id="Path_873791" data-name="Path 873791" d="M86.558,196.366q3.943,0,7.887,0a1.776,1.776,0,0,1,1.877,1.963,1.712,1.712,0,0,1-1.232,1.462,3.772,3.772,0,0,1-1,.15q-7.135.014-14.269,0c-.474,0-.948-.03-1.42-.077a1.908,1.908,0,0,1-1.681-1.8,1.928,1.928,0,0,1,1.868-1.7q3.984-.006,7.968,0" transform="translate(-51.666 -132.237)" fill="#fff"/>
            <path id="Path_873792" data-name="Path 873792" d="M86.584,145.122q-3.983,0-7.965,0a1.752,1.752,0,0,1-1.587-.881,1.54,1.54,0,0,1,.487-2.2,3.2,3.2,0,0,1,1.516-.48c5.012-.035,10.024-.025,15.037-.012a3.474,3.474,0,0,1,1.069.209,1.715,1.715,0,0,1,1.2,2,1.741,1.741,0,0,1-1.745,1.359c-2.425.007-4.85,0-7.275,0h-.732" transform="translate(-51.692 -95.314)" fill="#fff"/>
            <path id="Path_873793" data-name="Path 873793" d="M182.493,173.286c.835-.84,1.646-1.654,2.455-2.471.848-.856,1.677-1.732,2.545-2.568a1.755,1.755,0,0,1,2.985.752,1.725,1.725,0,0,1-.569,1.8c-.6.625-1.222,1.23-1.836,1.842q-2.072,2.066-4.146,4.129a1.964,1.964,0,0,1-1.45.708,1.537,1.537,0,0,1-1.106-.423c-.888-.873-1.79-1.734-2.652-2.633a1.715,1.715,0,0,1-.154-2.3,1.8,1.8,0,0,1,2.575-.176c.451.407.866.854,1.353,1.339" transform="translate(-120.002 -112.926)" fill="#fff"/>
          </g>
        </g>
      </g>
    </g>
    <g id="Group_1115379" data-name="Group 1115379" transform="translate(313 7638)">
      <g id="Group_1115374" data-name="Group 1115374" transform="translate(0)">
        <g id="Group_1113673" data-name="Group 1113673">
          <g id="Group_1113672" data-name="Group 1113672" clip-path="url(#clip-path-3)">
            <path id="Path_886855" data-name="Path 886855" d="M77.487,91.81c52.974-5.3,23.189-97.065-29.4-91.573C25.781,2.566,7.479,20,1.893,42.456c-4.738,19.049-.528,40.678,12.068,55.212,16.648,19.208,39.287-3.433,63.527-5.859" transform="translate(0 0)" fill="#1e2ad5"/>
          </g>
        </g>
      </g>
      <g id="Group_1115378" data-name="Group 1115378" transform="translate(63.368 61.449)">
        <path id="Path_886575" data-name="Path 886575" d="M2.3.08A1.992,1.992,0,0,0,.007,1.718,1.959,1.959,0,0,0,1.932,3.745,1.956,1.956,0,0,0,3.825,1.69C3.707.655,3.31-.284,2.3.08" transform="translate(24.008 0) rotate(19)" fill="#ffc811"/>
        <path id="Path_886576" data-name="Path 886576" d="M3.331.074C-.965-.863-.081,7.339.469,9.4a3.178,3.178,0,0,0,.463,1.1,2.28,2.28,0,0,0,2.443.667A3.762,3.762,0,0,0,5.387,9.5C6.945,7.014,7.3.942,3.331.074" transform="translate(14.172 7.033) rotate(19)" fill="#ffc811"/>
        <path id="Path_886577" data-name="Path 886577" d="M2.762,4.49c2.919-1.363.3-6.145-1.969-3.9A2.874,2.874,0,0,0,0,2.7a2.273,2.273,0,0,0,.25,1.043,2,2,0,0,0,2.511.744" transform="translate(27.898 7.145) rotate(19)" fill="#ffc811"/>
        <path id="Path_886578" data-name="Path 886578" d="M3.921,7.266C5.3,6.007,7.039,2.479,5.533.831,4.12-.712,1.827.079.977,1.69A10.442,10.442,0,0,0,.07,5.136,2.417,2.417,0,0,0,.248,6.852a2.543,2.543,0,0,0,.636.584,2.862,2.862,0,0,0,1.11.577,2.362,2.362,0,0,0,1.926-.747" transform="translate(20.618 17.257) rotate(19)" fill="#ffc811"/>
        <path id="Path_886579" data-name="Path 886579" d="M1.044,4.482a1.9,1.9,0,0,0,2.38-.213C5.484,2.212,1.874-1.766.3.878a2.883,2.883,0,0,0,0,2.565,2.451,2.451,0,0,0,.74,1.04" transform="translate(36.058 16.485) rotate(19)" fill="#ffc811"/>
        <path id="Path_886580" data-name="Path 886580" d="M.027.846A1.715,1.715,0,0,0,.469,2.24a1.911,1.911,0,0,0,.745.593,1.394,1.394,0,0,0,1.452-.281C4.349.907.476-1.2.027.846" transform="translate(35.28 24.662) rotate(19)" fill="#ffc811"/>
        <path id="Path_886581" data-name="Path 886581" d="M1,.785A3.852,3.852,0,0,0,.114,2.918,5.435,5.435,0,0,0,.275,5.784a2.681,2.681,0,0,0,2.2,1.744A2.835,2.835,0,0,0,5.12,5.547C5.856,3.5,3.741-2.037,1,.785" transform="translate(27.712 28.297) rotate(19)" fill="#ffc811"/>
        <path id="Path_886582" data-name="Path 886582" d="M.617,2.99a1.852,1.852,0,0,0,2.149.042C5.156,1.315,1.484-1.5.174.97A1.654,1.654,0,0,0,.617,2.99" transform="translate(9.087 20.713) rotate(19)" fill="#ffc811"/>
        <path id="Path_886583" data-name="Path 886583" d="M1.875.187A2.421,2.421,0,0,0,.7.948,3.136,3.136,0,0,0,.173,2.5,19.859,19.859,0,0,0,0,4.65,4.8,4.8,0,0,0,.352,6.883,2.08,2.08,0,0,0,2.181,8.115,2.445,2.445,0,0,0,3.966,6.993C5.321,5.148,6.055-1.159,1.875.187" transform="translate(2.642 25.923) rotate(19)" fill="#ffc811"/>
        <path id="Path_886584" data-name="Path 886584" d="M4.874.8C3.853.1,2.108-.417,1.139.472.278,1.263.084,2.976.02,4.044A5.626,5.626,0,0,0,.581,7.208,2.9,2.9,0,0,0,3.337,8.724a3.144,3.144,0,0,0,1.57-.761C7.085,6.127,7.351,2.486,4.874.8" transform="translate(13.438 33.458) rotate(19)" fill="#ffc811"/>
      </g>
    </g>
    <g id="Group_1115380" data-name="Group 1115380" transform="translate(316.726 7641.881)">
      <rect id="Rectangle_401104-2" data-name="Rectangle 401104" width="90.956" height="92.424" transform="translate(3.332 0)" fill="none"/>
      <g id="Mask_Group_1098697-2" data-name="Mask Group 1098697" transform="translate(0 0.001)" clip-path="url(#clip-path-4)">
        <g id="Group_1117294" data-name="Group 1117294" transform="translate(18.938 21.119)">
          <g id="Group_1117293" data-name="Group 1117293" clip-path="url(#clip-path-5)">
            <path id="Path_895661" data-name="Path 895661" d="M58.8,28.85V20.942H42.646V28.85H53.562a2.576,2.576,0,0,1,.577.64c.315,1.16-1.076,1.156-1.867,1.078V46.9a7.457,7.457,0,0,1,7.69,4.257c.821,1.991.751,7.963.568,10.273a7.1,7.1,0,0,1-12.551,3.944,9.323,9.323,0,0,1-1.551-3.262V57.556H32.848v4.125h2.836c1.159,0,2.823,1.727,3,2.847a11.3,11.3,0,0,1-.078,2.823c-.262.586-1.161.655-1.709.7-6.8.533-14.284-.419-21.157,0-2.364.227-1.866-3.563-1.014-4.809a4.218,4.218,0,0,1,2.4-1.558h2.836V57.556H2.681A3.092,3.092,0,0,1,.65,55.634L.525,23.772a2.75,2.75,0,0,1,2.664-2.664l37.145.016.593-.267V16.9c0-.3.9-1,1.282-.953,5.373.385,11.4-.486,16.689,0a1.581,1.581,0,0,1,1.629,1.465c-.422,3.6.57,8.556-.045,12a1.244,1.244,0,0,1-1.244,1.162c-1.016.117-3.383.245-2.582-1.38.29-.588,1.572-.268,2.149-.342m0-11.173H42.646v1.547H58.8Zm-8.251,29.91V30.826l-.258-.258H41.873a2.14,2.14,0,0,1-.945-.945V23.091l-.258-.258H3.025c-.973,0-.861,2.433-.7,3.105.438.629,4.054-.652,4.391,1.11L6.63,45.691a2.3,2.3,0,0,1-1.371.864H2.251v2.407H15.573c.985,0,.985,1.891,0,1.891H2.251v4.211c0,.388.861.9,1.281.781h42.3l.593-.267V52.657a9.478,9.478,0,0,1,.688-1.8H19.526a.949.949,0,0,1,.182-1.881l28.911-.139ZM5,27.818H2.251v2.063H5ZM5,31.6H2.251V44.664H5ZM52.615,48.789a5.045,5.045,0,0,0-4.131,3.346c-.543,1.56-.516,7.461-.336,9.287.621,6.287,10.108,6.536,10.662-.508.158-2.012.221-7.437-.487-9.151a5.24,5.24,0,0,0-3.987-2.974l.026,2.037c1.774.489,1.915,2.7,1.681,4.227-.188,1.217-1.551,1.72-1.68,2.1-.2.588.34,1.979-.828,2.085-1.243.113-.771-1.562-.947-2.084s-1.514-.5-1.7-2.428c-.149-1.56-.051-3.411,1.7-3.9Zm1.507,3.823c-.343-.342-1.3-.33-1.471.251-.267.9-.226,2.94,1.226,2.431.62-.213.6-2.325.246-2.682M31.129,57.556H21.675v4.125h9.454Zm5.844,8.595c.148-1.419-.3-2.529-1.82-2.735-5.535.284-11.529-.43-17.01-.022-1.834.136-2.455.9-2.313,2.758Z" transform="translate(-0.435 -13.082)" fill="#fff"/>
            <path id="Path_895662" data-name="Path 895662" d="M5.942,2.016v2.75H25.194V2.016H13.935c-.941,0-1.544-1.625.188-1.874,3.7.224,7.86-.355,11.507-.023a25.338,25.338,0,0,1,5.293,2.1c2.9,1.9-3.459,3.528-4.524,4.185L1.77,6.446C-.176,6.049-.138,3.325.138,1.8.36.578,1.481.213,2.584.119A45.247,45.247,0,0,1,9.768.167c1.543.284.96,1.849.042,1.849Zm-1.719,0-2.245.075c-.306.213-.167,2.051-.086,2.514l2.331.161ZM28.975,3.221l-2.061-.689V4.25Z" transform="translate(0 0)" fill="#fff"/>
            <path id="Path_895663" data-name="Path 895663" d="M256.437,54.75l10.8-.04c1.522.174,1.29,1.728-.171,1.9a71,71,0,0,1-10.321,0c-1.289-.152-1.52-1.406-.3-1.857" transform="translate(-211.696 -45.306)" fill="#fff"/>
            <path id="Path_895664" data-name="Path 895664" d="M293.951,71.475a39.211,39.211,0,0,1,4.947-.031.86.86,0,0,1-.18,1.7,28.515,28.515,0,0,1-4.453.007c-.857-.159-1.11-1.445-.314-1.68" transform="translate(-243.023 -59.111)" fill="#fff"/>
            <path id="Path_895665" data-name="Path 895665" d="M256.214,71.726h4.125c.434,0,.947,1.572-.677,1.73-1.249.122-5.042.344-3.449-1.73" transform="translate(-211.853 -59.397)" fill="#fff"/>
            <path id="Path_895666" data-name="Path 895666" d="M124.839,91.4a1.375,1.375,0,0,1-1.285,1.121c-4.386-.3-9.267.387-13.592,0-1.249-.11-1.364-.662-1.459-1.807a95.232,95.232,0,0,1,0-12.733,1.943,1.943,0,0,1,.6-1.467l11.837-.2c1.24-.725,1.992-4.74,3.948-3.235l5.628,8.868c1.942-.336,3.434-.433,5.143.69a5.4,5.4,0,1,1-8.409,4.2h-2.407c-.168,1.369.228,3.257,0,4.555m5.5-6.274-6.274-9.967-6.274,9.967Zm-10.314-7.048H110.4V90.8h12.462l.258-.258v-3.7H116.5c-.518,0-1.278-1.191-.9-1.763Zm8.939,8.767a3.646,3.646,0,1,0,2.75-3.264c-.251.276,1.375,1.559.7,2.675a3.293,3.293,0,0,1-.785.589Z" transform="translate(-89.675 -60.246)" fill="#fff"/>
            <path id="Path_895667" data-name="Path 895667" d="M50.971,125.308a39.073,39.073,0,0,1,6.136-.021,1.9,1.9,0,0,1,.976.4.955.955,0,0,1-.621,1.473,45.884,45.884,0,0,1-6.516-.007c-1.243-.2-1.08-1.594.025-1.842" transform="translate(-41.468 -103.66)" fill="#fff"/>
            <path id="Path_895668" data-name="Path 895668" d="M50.441,151.7c-.128-.954-.117-1.408.917-1.526a40.412,40.412,0,0,1,6.181.013c1.388.227,1.373,1.689-.334,1.881a36.8,36.8,0,0,1-5.5,0,5.532,5.532,0,0,1-1.263-.369" transform="translate(-41.724 -124.264)" fill="#fff"/>
            <path id="Path_895669" data-name="Path 895669" d="M58.259,167.726c.678.191.488,1.719-.172,1.719H51.039c-.561,0-.561-1.719,0-1.719Z" transform="translate(-41.918 -138.895)" fill="#fff"/>
            <path id="Path_895670" data-name="Path 895670" d="M58.182,109.381a.916.916,0,0,1-.393,1.5,54.471,54.471,0,0,1-6.866,0,.864.864,0,0,1,.179-1.7,40.7,40.7,0,0,1,6.184-.019c.267.022.707.03.9.22" transform="translate(-41.624 -90.307)" fill="#fff"/>
            <path id="Path_895671" data-name="Path 895671" d="M50.8,93.785l7.008-.03c.974.184.724,1.543-.172,1.71a45.574,45.574,0,0,1-6.516-.007.877.877,0,0,1-.321-1.673" transform="translate(-41.641 -77.639)" fill="#fff"/>
            <path id="Path_895672" data-name="Path 895672" d="M50.807,183.531a20.222,20.222,0,0,1,3.708,0,.905.905,0,0,1,.285,1.588,9.761,9.761,0,0,1-3.822.23c-1.048-.235-1.26-1.574-.171-1.816" transform="translate(-41.475 -151.911)" fill="#fff"/>
            <path id="Path_895673" data-name="Path 895673" d="M141.39,227.7a.932.932,0,0,1-.564,1.5,21.9,21.9,0,0,1-3.429,0c-.968-.18-1.011-1.563-.177-1.715.535-.1,3.893-.063,4.17.213" transform="translate(-113.144 -188.342)" fill="#fff"/>
          </g>
        </g>
      </g>
    </g>
  </g>
</svg>
