<svg xmlns="http://www.w3.org/2000/svg" xmlns:xlink="http://www.w3.org/1999/xlink" width="56" height="56" viewBox="0 0 56 56">
  <defs>
    <clipPath id="clip-path">
      <rect id="Rectangle_408343" data-name="Rectangle 408343" width="39" height="35.491" fill="#050c68"/>
    </clipPath>
  </defs>
  <g id="Group_1117943" data-name="Group 1117943" transform="translate(0.289 0.382)">
    <circle id="Ellipse_5614" data-name="Ellipse 5614" cx="28" cy="28" r="28" transform="translate(-0.289 -0.382)" fill="#fff"/>
    <g id="Group_1117963" data-name="Group 1117963" transform="translate(8.711 10.618)">
      <g id="Group_1117962" data-name="Group 1117962" clip-path="url(#clip-path)">
        <path id="Path_918860" data-name="Path 918860" d="M93.918,22.634c1.046,2.056,2.486,4.031,3.509,6.083a2.746,2.746,0,0,1,.438,2.339,2.528,2.528,0,0,1-3.315,1.7c-.593-.183-1-.829-1.395-.931A8.8,8.8,0,0,0,92.12,31.7a31.483,31.483,0,0,0-13.5,2.3L73.478,25.13a34.27,34.27,0,0,0,8.016-9.165,13.549,13.549,0,0,0,1.087-2.287c.2-.906-.379-1.545.264-2.642a2.585,2.585,0,0,1,4.026-.488l4.024,6.8.153.032a3.009,3.009,0,1,1,2.871,5.254" transform="translate(-64.933 -8.663)" fill="#050c68"/>
        <path id="Path_918861" data-name="Path 918861" d="M6.852,146.24l5.616,9.347c-1.033.576-2.024,1.255-3.06,1.822a8.873,8.873,0,0,1-3.278,1.374A5.448,5.448,0,0,1,2.6,148.735c1.342-.9,2.914-1.578,4.257-2.5" transform="translate(0 -129.233)" fill="#050c68"/>
        <path id="Path_918862" data-name="Path 918862" d="M86.211,240.386l3.375-1.808,3.819,4.9c.482.862-.3,1.557-.912,2.079-.531.453-.988.951-1.741.69a15.318,15.318,0,0,1-2.028-2.39,33.435,33.435,0,0,1-2.377-3.089.594.594,0,0,1-.135-.386" transform="translate(-76.181 -210.832)" fill="#050c68"/>
        <path id="Path_918863" data-name="Path 918863" d="M238.8.038a1.126,1.126,0,0,1,1.4,1.4,31.9,31.9,0,0,1-2.068,3.632c-.89,1.052-2.228.319-1.95-1.02C236.235,3.8,237.958.8,238.2.485a1.142,1.142,0,0,1,.6-.448" transform="translate(-208.683 0)" fill="#050c68"/>
        <path id="Path_918864" data-name="Path 918864" d="M284.076,110.722a31.968,31.968,0,0,1,4.487,0,1.113,1.113,0,0,1-.219,2.175,25.287,25.287,0,0,1-4.149-.016,1.118,1.118,0,0,1-.119-2.158" transform="translate(-250.356 -97.776)" fill="#050c68"/>
        <path id="Path_918865" data-name="Path 918865" d="M281.536,43.389a1.141,1.141,0,0,1,.744,2.007c-.19.182-3.154,1.915-3.374,1.975-1.282.345-2.184-.833-1.23-1.81a19.792,19.792,0,0,1,2.892-1.76,3.461,3.461,0,0,1,.968-.412" transform="translate(-245.031 -38.341)" fill="#050c68"/>
      </g>
    </g>
  </g>
</svg>
