<svg xmlns="http://www.w3.org/2000/svg" xmlns:xlink="http://www.w3.org/1999/xlink" width="295" height="196" viewBox="0 0 295 196">
  <defs>
    <clipPath id="clip-path">
      <rect id="Rectangle_407573" data-name="Rectangle 407573" width="295" height="196" transform="translate(179.711 2763)" fill="#fff" stroke="#707070" stroke-width="1"/>
    </clipPath>
    <clipPath id="clip-path-2">
      <rect id="Rectangle_407576" data-name="Rectangle 407576" width="295" height="193.319" transform="translate(-34)" fill="none"/>
    </clipPath>
  </defs>
  <g id="Mask_Group_1116932" data-name="Mask Group 1116932" transform="translate(-179.711 -2763)" clip-path="url(#clip-path)">
    <g id="Group_1117327" data-name="Group 1117327" transform="translate(214 2764)">
      <g id="Group_1117326" data-name="Group 1117326" clip-path="url(#clip-path-2)">
        <path id="Path_895730" data-name="Path 895730" d="M290.789,96.659c0,53.384-65.1,94.841-145.395,94.841S0,150.043,0,96.659,65.1,4.5,145.395,4.5,290.789,43.276,290.789,96.659" transform="translate(-29.789 0)" fill="#ffe9a2"/>
        <path id="Path_895731" data-name="Path 895731" d="M97.653,254.741a.331.331,0,0,0,.107.3.163.163,0,0,0-.025.079,7.384,7.384,0,0,1-.316,1.764,7.717,7.717,0,0,1-.811,1.7,9.271,9.271,0,0,1-1.393,1.638,11.512,11.512,0,0,1-2.268,1.591l-.008,0h.008l-.029.019v-.005a13.17,13.17,0,0,1-3.09,1.137,24.788,24.788,0,0,1-5.171.409h-.431a31.612,31.612,0,0,0-5.018.285,12.173,12.173,0,0,0-2.5.678,7.892,7.892,0,0,0-1.453.768,9.289,9.289,0,0,0-2.318,2.294,15.2,15.2,0,0,0-1.682,3.057,27.654,27.654,0,0,0-1.184,3.515c-.571,2.1-.966,4.273-1.348,6.378l-.14.773c-.2,1.069-.376,2.035-.611,3.008-.225.934-.48,1.89-.7,2.735l-.093.35c-.525,1.983-1.069,4.033-1.525,6.069a49.627,49.627,0,0,0-1.112,6.918,21.925,21.925,0,0,0,.323,6.532,12.34,12.34,0,0,0,.988,2.851,10.671,10.671,0,0,0,.758,1.281,9.647,9.647,0,0,0,3.452,3.017A14.481,14.481,0,0,0,74,315.224a28.556,28.556,0,0,0,5.413.5c.195,0,.389,0,.583,0,1.571,0,3.167-.078,4.711-.154l.22-.01q1.342-.066,2.684-.119c.885-.034,1.807-.1,2.738-.2a34.479,34.479,0,0,0,5.327-1.006,28.973,28.973,0,0,0,5.116-1.933,23.225,23.225,0,0,0,3.9-2.4,19.506,19.506,0,0,0,5.275-6.182,25.114,25.114,0,0,0,2.6-7.724,36.745,36.745,0,0,0,.487-4.3c.1-1.716.16-3.51.181-5.485a90.745,90.745,0,0,0-.535-11.348,60.91,60.91,0,0,0-1.831-9.553,29.834,29.834,0,0,0-1.312-3.78,16.031,16.031,0,0,0-1.968-3.462,8.343,8.343,0,0,0-2.792-2.4,7.407,7.407,0,0,0-2.1-.652c-.747-.134-1.517-.2-2.262-.255l-.26-.022c-.66-.056-1.264-.112-1.856-.208-.094-.007-.188-.014-.281-.024l-.156-.016a.333.333,0,0,0-.228.255" transform="translate(-35.101 -138.636)" fill="#305a9a"/>
        <path id="Path_895732" data-name="Path 895732" d="M75.233,276.982a9.237,9.237,0,0,0-2.323,2.292,15.14,15.14,0,0,0-1.681,3.061,27.384,27.384,0,0,0-1.184,3.515c-.573,2.1-.965,4.258-1.344,6.348l-.145.806c-.2,1.079-.38,2.052-.61,3.006s-.493,1.941-.7,2.734l-.093.35c-.5,1.873-1.063,4-1.527,6.069a50.072,50.072,0,0,0-1.111,6.924,21.824,21.824,0,0,0,.323,6.531,12.28,12.28,0,0,0,.99,2.853,10.316,10.316,0,0,0,.757,1.28,10.083,10.083,0,0,0,.951,1.157,9.912,9.912,0,0,0,2.5,1.863,14.35,14.35,0,0,0,3.949,1.334,28.339,28.339,0,0,0,5.414.5c.194,0,.39,0,.584,0,1.326,0,2.673-.058,3.985-.119A23.96,23.96,0,0,1,81.661,325a22.407,22.407,0,0,1-1.432-2,19.838,19.838,0,0,1-1.215-2.218,18.711,18.711,0,0,1-.895-2.3,17.614,17.614,0,0,1-.595-2.515,18.972,18.972,0,0,1-.236-2.822,25.068,25.068,0,0,1,.15-2.905c.1-.939.239-1.875.407-2.806.172-.965.366-1.927.567-2.887.4-1.923.813-3.846,1.08-5.795,0,.01,0,.02-.005.028.11-.814.2-1.633.237-2.454.019-.391.032-.782.032-1.175s-.007-.814-.02-1.221c-.054-1.662-.2-3.32-.419-4.971l.005.029q-.3-2.227-.772-4.429c-.08-.361-.158-.725-.244-1.084-.059-.254-.118-.5-.175-.758-.1-.452-.2-.907-.3-1.363-.22-1.03-.443-2.062-.713-3.081-.179-.671-.375-1.336-.6-1.992a7.948,7.948,0,0,0-1.287.7" transform="translate(-35.089 -150.508)" fill="#050c68"/>
        <path id="Path_895733" data-name="Path 895733" d="M426.4,95.76a4.346,4.346,0,0,0-.763.067,3.539,3.539,0,0,0-1.988,1.159,5.067,5.067,0,0,0-1.085,2.179,6.626,6.626,0,0,0-.108,2.525c.015.105.034.21.054.313a15.552,15.552,0,0,0-1.361-1.067,13.165,13.165,0,0,0-1.548-.931,14.266,14.266,0,0,0-1.708-.725,14.02,14.02,0,0,0-3.453-.781c-.328-.029-.654-.044-.97-.044a10.643,10.643,0,0,0-2.369.267,10.1,10.1,0,0,0-3.153,1.342,11.442,11.442,0,0,0-2.39,2.027,12.958,12.958,0,0,0-2.609,4.618,11.549,11.549,0,0,0,1.146,10.13q.193.279.405.542a7.8,7.8,0,0,0-.972.747,6.353,6.353,0,0,0-.906,1.024,5.734,5.734,0,0,0-.964,2.272,8.432,8.432,0,0,0,.753,4.945,14.761,14.761,0,0,0,4.2,5.418.4.4,0,0,0,.156.082,74.239,74.239,0,0,0,12,7.644,65.3,65.3,0,0,0,13.016,4.91,68.436,68.436,0,0,0,14.111,2.076c.093.005.184.009.277.011a.314.314,0,0,0,.153.039.338.338,0,0,0,.231-.1,37.284,37.284,0,0,0,9.848-13.112,27.782,27.782,0,0,0,2.232-7.464,16.687,16.687,0,0,0-.387-6.927,13.458,13.458,0,0,0-1.362-3.138,14.192,14.192,0,0,0-2.24-2.833,23.616,23.616,0,0,0-6.77-4.347c-1.033-.474-2.1-.922-3.131-1.354-.89-.374-1.811-.76-2.706-1.162a28.7,28.7,0,0,1-5.544-3.146l-.05-.038c-.473-.364-.9-.721-1.284-1.085s-.734-.717-1.13-1.122l-.259-.264c-.726-.742-1.475-1.509-2.265-2.21A11.726,11.726,0,0,0,428.67,96.3a5.384,5.384,0,0,0-2.27-.538" transform="translate(-218.749 -52.167)" fill="#fba92d"/>
        <path id="Path_895734" data-name="Path 895734" d="M407.633,154.755a5.246,5.246,0,0,0-.747.057,4.724,4.724,0,0,0-2.9,1.688,8.428,8.428,0,0,0-1.647,3.376A12.675,12.675,0,0,0,402,161.9a12.877,12.877,0,0,0-.015,2.048,11.215,11.215,0,0,0,.957,3.91,6,6,0,0,0,2.844,3.039.4.4,0,0,0,.171.044.3.3,0,0,0,.082-.011.329.329,0,0,0,.2-.15.338.338,0,0,0,.037-.238,13.647,13.647,0,0,0,4.194-4.519,11.45,11.45,0,0,0,1.14-2.989,12.282,12.282,0,0,0,.291-2.256,10.156,10.156,0,0,0-.191-2.457,5.244,5.244,0,0,0-.908-2.117,3.714,3.714,0,0,0-.833-.806,3.384,3.384,0,0,0-1.071-.487,5.061,5.061,0,0,0-1.063-.154c-.066,0-.13-.005-.194-.005" transform="translate(-218.969 -84.306)" fill="#f3c6b1"/>
        <path id="Path_895735" data-name="Path 895735" d="M411.157,159.168a.17.17,0,0,0,.117.207c.086.03.172.062.256.1l-.007,0,.009,0,.031.012-.026-.01a3.514,3.514,0,0,1,.681.4,3.35,3.35,0,0,1,.5.5,4.639,4.639,0,0,1,.534.931,8.826,8.826,0,0,1,.534,2.161c-.006-.044-.011-.088-.018-.132a16.254,16.254,0,0,1,.12,1.81.482.482,0,0,0,.478.476.487.487,0,0,0,.338-.139.5.5,0,0,0,.139-.337,10.924,10.924,0,0,0-.093-1.944,5.816,5.816,0,0,0-.568-1.849,4.3,4.3,0,0,0-1.118-1.388,5.389,5.389,0,0,0-1.7-.917.152.152,0,0,0-.044-.007.176.176,0,0,0-.162.125m1.58,1.238.016.02-.016-.02m-1.2-.932-.005,0h0l.007,0" transform="translate(-223.982 -86.642)" fill="#da8c67"/>
        <path id="Path_895736" data-name="Path 895736" d="M422.609,123.657a.362.362,0,0,0-.241.1,23.413,23.413,0,0,0-4.6,5.754,46.231,46.231,0,0,0-3.091,6.721c-.443,1.154-.87,2.336-1.283,3.479-.554,1.533-1.127,3.118-1.745,4.657l.021-.034c-.233.557-.465,1.112-.707,1.663-.123.28-.251.556-.379.833-.136.295-.272.589-.4.885a23.984,23.984,0,0,0-1.249,3.6,18.862,18.862,0,0,0-.564,3.614,15.2,15.2,0,0,0,.216,3.54,13.551,13.551,0,0,0,1.088,3.384A14.344,14.344,0,0,0,411.73,165a17.045,17.045,0,0,0,2.742,2.551,19.759,19.759,0,0,0,3.049,1.884,21.782,21.782,0,0,0,1.994.88,11.3,11.3,0,0,1-.9,2.462,9.979,9.979,0,0,1-1.44,2.061l.062-.056a9.815,9.815,0,0,1-1.8,1.508.332.332,0,0,0,.076-.036,10.253,10.253,0,0,1-2.152,1.017c-.122.039-.244.075-.369.108a.287.287,0,0,0-.116-.031.348.348,0,0,0-.236.077.32.32,0,0,0-.116.227,4.081,4.081,0,0,0,.2,1.163,4.862,4.862,0,0,0,.51,1.082,7.808,7.808,0,0,0,1.741,1.888,14.158,14.158,0,0,0,2.276,1.475,21.68,21.68,0,0,0,2.431,1.1,20.165,20.165,0,0,0,2.242.72,21.461,21.461,0,0,0,3.975.606c.532.034,1.093.051,1.669.051.737,0,1.514-.027,2.372-.084,1.389-.09,2.779-.267,3.973-.425a20.639,20.639,0,0,0,5.492-1.317.333.333,0,0,0,.165-.419.344.344,0,0,0-.074-.267,11.827,11.827,0,0,1-1.648-1.986,9.874,9.874,0,0,1-1.017-2.115h0a9.768,9.768,0,0,1-.448-2.369,12.08,12.08,0,0,1,.238-3.014v0a18.893,18.893,0,0,1,1.738-4.711l0,.006c.366-.7.784-1.433,1.244-2.165a12.391,12.391,0,0,0,2.994.362,13.089,13.089,0,0,0,3.4-.452,12.041,12.041,0,0,0,3.138-1.35,9.212,9.212,0,0,0,2.186-1.82,7.507,7.507,0,0,0,1.766-4.087,7.076,7.076,0,0,0-.1-2.128,6.276,6.276,0,0,0-.7-1.88,5.137,5.137,0,0,0-2.8-2.351,5.62,5.62,0,0,0-1.784-.282c-.106,0-.214,0-.322.009a6.87,6.87,0,0,0-1.188.169,19.563,19.563,0,0,0,2.83-3.862,17.808,17.808,0,0,0,2.159-6.033,12.291,12.291,0,0,0,.088-3.075,9.576,9.576,0,0,0-.758-2.906,12.394,12.394,0,0,0-.7-1.32c-.241-.41-.513-.83-.809-1.25a18.536,18.536,0,0,0-1.858-2.223,26.131,26.131,0,0,0-10.049-6.1,42.233,42.233,0,0,0-5.835-1.6,52.761,52.761,0,0,0-5.784-.834c-.684-.062-1.255-.11-1.846-.11-.266,0-.519.01-.773.032a.148.148,0,0,0-.034-.044.31.31,0,0,0-.223-.094" transform="translate(-222.455 -67.364)" fill="#f6cfbe"/>
        <path id="Path_895737" data-name="Path 895737" d="M434.037,123.736a23.114,23.114,0,0,0-4.255,5.187l.226.127-.016-.007a12.79,12.79,0,0,0,1.666.749,15.138,15.138,0,0,0,1.693.5h0l.007,0,0,0h0l.022.005h0a16.683,16.683,0,0,0,4.3.4h-.029a15.27,15.27,0,0,0,2.447-.289l0,0a.1.1,0,0,1,.069-.044l.015,0a.113.113,0,0,1,.1.069.089.089,0,0,1,.024.051.1.1,0,0,1-.01.068,9.56,9.56,0,0,0,.134.949,10.461,10.461,0,0,0,.253,1.02,11.14,11.14,0,0,0,.525,1.377,12.725,12.725,0,0,0,.692,1.287l-.015-.024a13.728,13.728,0,0,0,1.062,1.486,15.985,15.985,0,0,0,1.265,1.362l-.02-.02a17.384,17.384,0,0,0,3.714,2.687l-.026-.015a16.656,16.656,0,0,0,4.081,1.559l.023.005h-.006a.016.016,0,0,1,.008,0l0,0a13.18,13.18,0,0,0,3.365.338h-.029c.161-.005.32-.015.478-.027a.11.11,0,0,1,.082.019.112.112,0,0,1,.042.069v.01a.1.1,0,0,1,.024.022.116.116,0,0,1,.024.078c0,.1,0,.194.007.292v0a8.19,8.19,0,0,0,.106,1.059,8.091,8.091,0,0,0,.237,1.014v0a7.358,7.358,0,0,0,.348.92,8.186,8.186,0,0,0,.459.866,8.749,8.749,0,0,0,1.375,1.684l-.02-.02a10.337,10.337,0,0,0,1.8,1.362q.212-.345.414-.7a17.867,17.867,0,0,0,2.164-6.037,12.476,12.476,0,0,0,.088-3.076,9.657,9.657,0,0,0-.762-2.91,11.684,11.684,0,0,0-.7-1.319c-.235-.4-.507-.821-.809-1.25a18.034,18.034,0,0,0-1.858-2.227,26.127,26.127,0,0,0-10.052-6.1,42.533,42.533,0,0,0-5.834-1.6,54.161,54.161,0,0,0-5.788-.834c-.632-.056-1.23-.11-1.846-.11-.257,0-.508.012-.774.032,0-.007-.009-.02-.027-.041a.328.328,0,0,0-.23-.1.377.377,0,0,0-.248.1" transform="translate(-234.132 -67.354)" fill="#f3c6b1"/>
        <path id="Path_895738" data-name="Path 895738" d="M478.513,164.457h0Z" transform="translate(-260.679 -89.591)" fill="#f3c6b1"/>
        <path id="Path_895739" data-name="Path 895739" d="M437.676,138.276h0" transform="translate(-238.432 -75.328)" fill="#f3c6b1"/>
        <path id="Path_895740" data-name="Path 895740" d="M443.334,225.8a16.25,16.25,0,0,1-3.651.745,18.964,18.964,0,0,1-3.714-.04,21.729,21.729,0,0,1-4.018-.833q-.261-.061-.518-.137l-.044-.011-.042-.01c-.062-.013-.127-.028-.189-.044.049.019.1.037.149.058a11.677,11.677,0,0,1-.9,2.451q-.19.358-.4.694c.046.013.09.027.135.039-.01,0-.019-.005-.029-.007a14.835,14.835,0,0,0,3.828.544h-.012a18.567,18.567,0,0,0,4.8-.564h.01l.013,0h-.005a16.373,16.373,0,0,0,3.856-1.507s0,0,0,0a11.861,11.861,0,0,0,2.392-1.736c.148-.144.3-.29.434-.444-.687.282-1.375.572-2.079.8m-.723,1.363-.02.01a.141.141,0,0,1,.02-.01" transform="translate(-234.25 -122.571)" fill="#da8c67"/>
        <path id="Path_895741" data-name="Path 895741" d="M462.9,225.975a0,0,0,0,0,0,0Z" transform="translate(-252.173 -123.102)" fill="#da8c67"/>
        <path id="Path_895742" data-name="Path 895742" d="M462.873,225.991l.012-.012Z" transform="translate(-252.159 -123.106)" fill="#da8c67"/>
        <path id="Path_895743" data-name="Path 895743" d="M485.909,193.427a.366.366,0,0,0-.319.4,5.355,5.355,0,0,1,.049.74,6.063,6.063,0,0,1-.218,1.427c0-.007,0-.015.007-.022,0,.013-.007.025-.011.038l-.01.038c0-.009,0-.017.007-.025a7.669,7.669,0,0,1-.8,1.773,7.925,7.925,0,0,1-1.217,1.509,6.044,6.044,0,0,1-1.2.879c-.147.077-.3.147-.453.212a.131.131,0,0,0,.095.244,7.5,7.5,0,0,0,3.282-2.749,7.327,7.327,0,0,0,.946-1.974,5.644,5.644,0,0,0,.251-2.173.365.365,0,0,0-.362-.322l-.042,0m-.5,2.6,0-.012,0-.016-.008.029" transform="translate(-262.392 -105.371)" fill="#da8c67"/>
        <path id="Path_895744" data-name="Path 895744" d="M491.369,192.85a3.738,3.738,0,0,0-.468.076c-.076.017-.152.036-.226.057a1.028,1.028,0,0,0-.176.075l-.035.011a.287.287,0,0,0-.027.529.3.3,0,0,0,.212.014c.129-.007.259-.037.389-.056s.287-.037.432-.049a6.3,6.3,0,0,1,.875-.014,7.147,7.147,0,0,1,1.725.325l-.058-.02a4.824,4.824,0,0,1,1.064.5,4.064,4.064,0,0,1,.713.608l0,0a3.09,3.09,0,0,1,.423.612,2.878,2.878,0,0,1,.187.48.138.138,0,0,0,.175.083.14.14,0,0,0,.083-.176,3.4,3.4,0,0,0-.35-.8,3.685,3.685,0,0,0-.549-.687,4.472,4.472,0,0,0-.716-.573,6.137,6.137,0,0,0-.87-.488,5.733,5.733,0,0,0-1.853-.5c-.171-.015-.343-.024-.514-.024-.144,0-.289.006-.433.019m4.827,2.635.006.013-.006-.013" transform="translate(-267.086 -105.048)" fill="#da8c67"/>
        <path id="Path_895745" data-name="Path 895745" d="M432.216,118.081a24.66,24.66,0,0,0-3.068.184c-.6.074-1.209.179-1.8.312-.686.154-1.366.371-2.024.58-.478.152-.971.309-1.464.441l.009,0c-.12.031-.239.06-.359.088a.519.519,0,0,0-.105.036.316.316,0,0,0-.372.028.336.336,0,0,0-.117.234.3.3,0,0,0,.075.228,14.059,14.059,0,0,0,2.3,2.038,16.4,16.4,0,0,0,2.736,1.547,17.842,17.842,0,0,0,6.133,1.509c.359.023.721.036,1.077.036a15.265,15.265,0,0,0,3.1-.313,14.776,14.776,0,0,0,.8,2.582,15.548,15.548,0,0,0,1.446,2.671,16.212,16.212,0,0,0,4.24,4.256,16.038,16.038,0,0,0,4.684,2.218,15.53,15.53,0,0,0,2.571.507,14.305,14.305,0,0,0,1.571.085c.371,0,.753-.014,1.136-.041a.3.3,0,0,0,.045-.009,24.834,24.834,0,0,0-2.8,6.6,11.22,11.22,0,0,0-.312,3.712,6.491,6.491,0,0,0,.377,1.683,2.5,2.5,0,0,0,.7,1.029,1.517,1.517,0,0,0,.925.341h.045a2.432,2.432,0,0,0,1-.237,5.251,5.251,0,0,0,1.036-.646,10.729,10.729,0,0,0,1.007-.9,17.18,17.18,0,0,0,1.607-1.868,20.045,20.045,0,0,0,1.5-2.316,14.746,14.746,0,0,0,1.69-4.7,12.059,12.059,0,0,0-.081-4.409,12.648,12.648,0,0,0-.625-2.1,14.357,14.357,0,0,0-.976-1.993,18.328,18.328,0,0,0-2.828-3.631,25.99,25.99,0,0,0-3.771-3.132,35.124,35.124,0,0,0-4.5-2.617,41.044,41.044,0,0,0-10.026-3.363,35.455,35.455,0,0,0-4.983-.633c-.537-.03-1.071-.044-1.588-.044" transform="translate(-230.388 -64.327)" fill="#fba92d"/>
        <path id="Path_895746" data-name="Path 895746" d="M424.479,124.782a.11.11,0,0,0-.011.157,12.8,12.8,0,0,0,2.326,1.836c.438.271.889.519,1.349.748s.966.444,1.461.635a19.056,19.056,0,0,0,3.1.87c.52.1,1.044.188,1.572.243q.768.079,1.542.095a14.477,14.477,0,0,0,1.473-.052c.229-.02.457-.049.684-.083.159-.022.317-.042.477-.071a2.834,2.834,0,0,0,.434-.115l.032-.008a.4.4,0,0,0,.246-.161.378.378,0,0,0-.38-.586c-.106.019-.213.026-.319.041-.132.02-.264.046-.393.069-.211.039-.424.063-.635.085-.349.036-.7.062-1.045.08a19.392,19.392,0,0,1-2.374-.038,20.155,20.155,0,0,1-2.464-.338,17.637,17.637,0,0,1-4.164-1.428l0,0-.011-.005-.026-.013.007,0a11.179,11.179,0,0,1-2.372-1.61h0q-.185-.169-.359-.346a.126.126,0,0,0-.088-.039.108.108,0,0,0-.071.027m.528.366.011.01Zm2.38,1.61.008,0-.027-.013.019.01" transform="translate(-231.221 -67.963)" fill="#e38907"/>
        <path id="Path_895747" data-name="Path 895747" d="M456.089,132.548a.363.363,0,0,0-.235.153.342.342,0,0,0-.056.265,19.174,19.174,0,0,0,1.132,2.917,18.776,18.776,0,0,0,1.625,2.69,17.476,17.476,0,0,0,4.457,4.311,15.054,15.054,0,0,0,4.292,1.98,15.294,15.294,0,0,0,5.643.431.389.389,0,0,0-.039-.77c-.79,0-1.581,0-2.371-.054a14.827,14.827,0,0,1-2.032-.282,15.665,15.665,0,0,1-3.561-1.25l.024.012-.039-.02-.069-.034.042.021a16.8,16.8,0,0,1-3.542-2.431,17.317,17.317,0,0,1-2.873-3.4l.056.088a17.558,17.558,0,0,1-1.993-4.19l0,.007c-.016-.051-.032-.1-.048-.156a.377.377,0,0,0-.152-.233.36.36,0,0,0-.263-.058m.475.486.013.041Zm8.365,9.9.015.008-.042-.021Z" transform="translate(-248.3 -72.205)" fill="#e38907"/>
        <path id="Path_895748" data-name="Path 895748" d="M429.245,121.894a.108.108,0,0,0,.021.151,16.668,16.668,0,0,0,4.535,2.324,13.426,13.426,0,0,0,2.531.537,10.756,10.756,0,0,0,1.277.062,8.807,8.807,0,0,0,1.347-.106.334.334,0,1,0-.093-.661,12.641,12.641,0,0,1-1.616.134h.081a13.082,13.082,0,0,1-3.27-.4l.061.014a15.648,15.648,0,0,1-3.621-1.4l.029.015a12.294,12.294,0,0,1-1.131-.7.113.113,0,0,0-.065-.02.106.106,0,0,0-.086.044" transform="translate(-233.828 -66.38)" fill="#e38907"/>
        <path id="Path_895749" data-name="Path 895749" d="M472.2,143.467a.107.107,0,0,0,.024.15c.309.3.63.585.956.863s.691.561,1.051.823a15.335,15.335,0,0,0,2.319,1.388,12.091,12.091,0,0,0,2.535.9,9.888,9.888,0,0,0,1.3.2,7.753,7.753,0,0,0,1.372,0,.329.329,0,0,0,.148-.591.335.335,0,0,0-.239-.061c-.27.025-.54.042-.813.045h.081a9.719,9.719,0,0,1-2.33-.29h0l-.009,0-.06-.015.026.005a13.076,13.076,0,0,1-1.647-.541,14.892,14.892,0,0,1-1.616-.772l0,0a14.57,14.57,0,0,1-2.954-2.131.085.085,0,0,0-.059-.022.118.118,0,0,0-.092.046m3.117,2.114.025.014-.025-.014m3.28,1.312h.005l-.039-.01Z" transform="translate(-257.23 -78.131)" fill="#e38907"/>
        <path id="Path_895750" data-name="Path 895750" d="M471.462,131.08a.22.22,0,0,0-.035.3,18.948,18.948,0,0,0,1.547,1.956,15.875,15.875,0,0,0,1.855,1.76,13.7,13.7,0,0,0,2.145,1.4,12.738,12.738,0,0,0,1.162.538,9.493,9.493,0,0,0,1.225.408.377.377,0,0,0,.259,0,.344.344,0,0,0,.182-.451.331.331,0,0,0-.191-.186c-.5-.142-1-.3-1.483-.488a12.449,12.449,0,0,1-1.36-.638,14.673,14.673,0,0,1-3.025-2.229,15.872,15.872,0,0,1-1.976-2.335.2.2,0,0,0-.167-.081.222.222,0,0,0-.137.046m2.294,2.384.015.014-.015-.014m3.025,2.224.018.01-.018-.01" transform="translate(-256.794 -71.383)" fill="#e38907"/>
        <path id="Path_895751" data-name="Path 895751" d="M396.553,235.176a8.466,8.466,0,0,1-1.708.8,8.756,8.756,0,0,1-1.905.43c-.072.007-.145.014-.218.019l-.13.022c-.19.028-.379.049-.569.062-.1.01-.188.017-.283.024l-.213.02c-.336.036-.689.064-1.062.083l.086,0c-.486.015-1.017.027-1.668.027-.367,0-.732,0-1.1-.006l-.083,0h-.174c-.338,0-.676-.005-1.013-.005h0c-.241,0-.481,0-.722.005a21.69,21.69,0,0,0-2.3.145,11.008,11.008,0,0,0-2.145.484,7.282,7.282,0,0,0-1.916.993,8.581,8.581,0,0,0-1.623,1.628,17.163,17.163,0,0,0-2.41,4.289,31.373,31.373,0,0,0-1.522,5.011c-.338,1.483-.627,3.093-.91,5.068-.2,1.363-.37,2.751-.537,4.094l-.074.6c-.17,1.363-.392,3.163-.588,4.993A104.716,104.716,0,0,0,371.1,274.5a53.132,53.132,0,0,0,.86,10.477,31.347,31.347,0,0,0,3.4,9.56,24.744,24.744,0,0,0,2.954,4.152,17.914,17.914,0,0,0,3.906,3.277,26.309,26.309,0,0,0,9.736,3.466,38.781,38.781,0,0,0,5.212.486q.593.018,1.189.019c.453,0,.9-.009,1.357-.022.944-.029,1.784-.085,2.567-.169a23.106,23.106,0,0,0,9.079-2.853,22.236,22.236,0,0,0,3.691-2.654,25.767,25.767,0,0,0,3.181-3.412,31.624,31.624,0,0,0,2.726-4.133,46.235,46.235,0,0,0,2.394-4.983,58.24,58.24,0,0,0,3.319-11.352,61.39,61.39,0,0,0,1.063-11.993,56.336,56.336,0,0,0-.366-5.861,43.783,43.783,0,0,0-1.01-5.689,24.968,24.968,0,0,0-2.38-6.231c-.246-.442-.527-.889-.854-1.364a11.159,11.159,0,0,0-1.015-1.252c-.535-.571-1.135-1.1-1.716-1.608-.236-.208-.474-.417-.707-.629-.421-.386-.777-.743-1.091-1.091-.152-.168-.3-.346-.451-.544-.284-.3-.557-.62-.812-.949l-.039-.048c-.046-.058-.092-.116-.137-.174-.025-.03-.051-.059-.075-.091a13.949,13.949,0,0,1-.863-1.165.3.3,0,0,0-.088.061,5.152,5.152,0,0,1-.559.482,9.583,9.583,0,0,1-1.992,1.045,12.347,12.347,0,0,1-2.976.709,14.3,14.3,0,0,1-1.586.085,16.553,16.553,0,0,1-2.307-.164l-.037-.005a17.5,17.5,0,0,1-4.361-1.25,14.777,14.777,0,0,1-3.169-1.9l-.044-.028,0,0a12.067,12.067,0,0,1-1.449-1.42c-.051-.051-.1-.1-.152-.155-.117-.122-.231-.245-.341-.372a6.188,6.188,0,0,1-.6.421m-24.718,43.073v-.007h0l0-.015.007-.039c.007.177.016.353.024.53-.008-.148-.017-.295-.025-.444h0l0-.019v-.005Zm28.684,26.978-.039,0c.11,0,.22-.008.331-.013-.1.007-.191.012-.285.017l-.007,0Z" transform="translate(-202.165 -127.887)" fill="#634419"/>
        <path id="Path_895752" data-name="Path 895752" d="M372.687,330.265v0Z" transform="translate(-203.028 -179.913)" fill="#021621"/>
        <path id="Path_895753" data-name="Path 895753" d="M425.06,239.461a.109.109,0,0,0-.046.147,13.488,13.488,0,0,0,1.719,2.01,16.018,16.018,0,0,0,2.145,1.711,16.645,16.645,0,0,0,2.485,1.367,18.1,18.1,0,0,0,2.713.951,19.53,19.53,0,0,0,2.839.525,14.318,14.318,0,0,0,2.821.032,13.475,13.475,0,0,0,2.751-.519,11.45,11.45,0,0,0,2.535-1.1c.093-.056.186-.115.277-.174.046-.028.09-.061.135-.091.073-.049.14-.1.212-.155a.406.406,0,0,0,.14-.3.432.432,0,0,0-.112-.3.423.423,0,0,0-.3-.138l-.11.01a.442.442,0,0,0-.169.082c-.083.048-.163.1-.245.155-.107.068-.215.135-.323.2-.2.122-.409.235-.616.345a11.292,11.292,0,0,1-1.276.565,13.814,13.814,0,0,1-3.254.715l.043,0a16.608,16.608,0,0,1-4.3-.16h.007a17.959,17.959,0,0,1-4.476-1.426l.049.022a17.355,17.355,0,0,1-1.79-.973,14.2,14.2,0,0,1-1.632-1.19l.005,0a12.022,12.022,0,0,1-2.066-2.239l.011.016c-.01-.013-.02-.028-.031-.044a.12.12,0,0,0-.1-.057.109.109,0,0,0-.048.012m17.661,5.292-.068.025.068-.025m-7.656.571.04.007-.04-.007m4.268.179.051-.005-.051.005m-14.108-5.969,0-.006,0,.006" transform="translate(-231.527 -130.444)" fill="#04293e"/>
        <path id="Path_895754" data-name="Path 895754" d="M441.911,163.626a.106.106,0,0,0-.1.053c-.226.423-.493.834-.752,1.231l-.067.1c-.21.317-.421.633-.633.951-.186.277-.37.554-.554.833a36.063,36.063,0,0,0-2.483,4.211,11.27,11.27,0,0,0-.8,2.077,6.84,6.84,0,0,0-.186,1,4.444,4.444,0,0,0,0,.926,2.707,2.707,0,0,0,.717,1.555,2.974,2.974,0,0,0,1.029.678,3.829,3.829,0,0,0,.818.207,3.635,3.635,0,0,0,.536.038c.13,0,.261-.006.391-.015a3.837,3.837,0,0,0,.459-.065,3.081,3.081,0,0,0,.524-.171.433.433,0,0,0-.2-.822.464.464,0,0,0-.084.007c-.348.063-.63.1-.888.127-.116.009-.233.014-.349.014a3.952,3.952,0,0,1-.677-.056,2.806,2.806,0,0,1-.547-.178,1.885,1.885,0,0,1-.976-1.1,3.065,3.065,0,0,1-.132-.676,4.914,4.914,0,0,1,.093-1.2,10.517,10.517,0,0,1,.438-1.5,17.683,17.683,0,0,1,.719-1.658l-.04.042c.692-1.368,1.47-2.642,2.141-3.709l.264-.415.265-.417.449-.708c.244-.381.494-.777.71-1.183a.117.117,0,0,0-.033-.161.112.112,0,0,0-.064-.02" transform="translate(-237.693 -89.138)" fill="#da8c67"/>
        <path id="Path_895755" data-name="Path 895755" d="M443.537,198.823h0l0,0a10.94,10.94,0,0,1-1.17.391,13.471,13.471,0,0,1-2.347.407c-.5.044-1.025.066-1.556.066a22.255,22.255,0,0,1-2.677-.169.2.2,0,0,0-.024.091,5.042,5.042,0,0,0,.433,2.287,3.89,3.89,0,0,0,2.981,2.232,3.757,3.757,0,0,0,.545.042,3.809,3.809,0,0,0,1.283-.226,3.71,3.71,0,0,0,1.841-1.473,4.443,4.443,0,0,0,.564-1.268,6.311,6.311,0,0,0,.224-1.766l-.029-.239-.02-.173c-.012-.074-.022-.135-.034-.2,0,0-.009-.008-.012-.008" transform="translate(-237.387 -108.312)" fill="#021621"/>
        <path id="Path_895756" data-name="Path 895756" d="M445.78,202.975h.027a6.14,6.14,0,0,0-1.5.231c.008,0,.017-.005.027-.006a7.859,7.859,0,0,0-1.8.77c.008-.005.017-.009.025-.014a7.181,7.181,0,0,0-1.439,1.1,5.656,5.656,0,0,0-.453.524c-.091.12-.177.245-.256.374a4.121,4.121,0,0,0,1.3.432,3.618,3.618,0,0,0,.544.044,3.818,3.818,0,0,0,1.284-.228,3.709,3.709,0,0,0,1.841-1.473,4.453,4.453,0,0,0,.565-1.266q.067-.238.113-.487c-.072,0-.143,0-.216,0Z" transform="translate(-239.919 -110.574)" fill="#f68677"/>
        <path id="Path_895757" data-name="Path 895757" d="M428.632,169.179c-.556,0-1.223.717-1.587,1.7-.417,1.131-.29,2.222.281,2.433a.593.593,0,0,0,.2.036c.555,0,1.223-.717,1.586-1.705a2.868,2.868,0,0,0,.1-2.041.691.691,0,0,0-.386-.39.588.588,0,0,0-.2-.036" transform="translate(-232.507 -92.163)" fill="#021621"/>
        <path id="Path_895758" data-name="Path 895758" d="M462.688,179.5c-.567,0-1.248.731-1.619,1.739a2.931,2.931,0,0,0-.108,2.081.71.71,0,0,0,.394.4.583.583,0,0,0,.209.037c.567,0,1.247-.731,1.617-1.739a3.577,3.577,0,0,0,.234-1.591.981.981,0,0,0-.521-.889.578.578,0,0,0-.207-.037" transform="translate(-251.038 -97.788)" fill="#021621"/>
        <path id="Path_895759" data-name="Path 895759" d="M469.472,150.16a1.808,1.808,0,0,0-1.683.732,1.9,1.9,0,0,0,.357,1.963A6.938,6.938,0,0,0,470.5,154.9a6.788,6.788,0,0,0,3.148.935,1.807,1.807,0,0,0,1.683-.732c.584-1.047-.632-2.844-2.711-4.005a6.819,6.819,0,0,0-3.149-.935" transform="translate(-254.756 -81.802)" fill="#e38907"/>
        <path id="Path_895760" data-name="Path 895760" d="M431.078,140.146c-1.964,0-3.529.779-3.563,1.773-.017.509.36,1,1.059,1.384a6.033,6.033,0,0,0,2.636.651c.088,0,.177,0,.263,0,1.962,0,3.528-.779,3.563-1.774.017-.51-.359-1-1.059-1.384a6.048,6.048,0,0,0-2.634-.649h-.059Z" transform="translate(-232.897 -76.347)" fill="#e38907"/>
        <path id="Path_895761" data-name="Path 895761" d="M415.827,148.9H415.7c-.208.005-.427.021-.671.051l-.061.008-.061.007c-.047.007-.095.013-.142.022a6.828,6.828,0,0,0-1.195.291c-.174.057-.345.122-.514.191l-.054.022-.089.038a8.637,8.637,0,0,0-3.11,2.321,9.894,9.894,0,0,0-1.668,2.745,10.1,10.1,0,0,0-.507,1.616,9.966,9.966,0,0,0-.248,2.7c0,.03,0,.057,0,.084.005.1.012.194.019.291a9.333,9.333,0,0,0,1.115,3.735,7.661,7.661,0,0,0,2.655,2.807,6.888,6.888,0,0,0,3.647,1.019h.145a7.61,7.61,0,0,0,3.767-1.144,9.141,9.141,0,0,0,2.806-2.714,10.149,10.149,0,0,0,1.5-3.547c.045-.2.084-.412.116-.618.092,0,.194-.005.295-.005.123,0,.244.005.368.017a4.54,4.54,0,0,1,1.007.241,4.294,4.294,0,0,1,.815.441l.157.123a11.37,11.37,0,0,0-.544,1.587,8.955,8.955,0,0,0-.284,2.209c0,.177,0,.356.011.536a9.01,9.01,0,0,0,.849,3.371l.034.061c.047.107.1.212.152.315l.039.073.028.052a9.085,9.085,0,0,0,6.167,4.544,8.984,8.984,0,0,0,1.8.181,9.38,9.38,0,0,0,2.286-.285,9.051,9.051,0,0,0,3.517-1.8,8.993,8.993,0,0,0,2.373-3.01,9.122,9.122,0,0,0,.7-5.99,9.112,9.112,0,0,0-3.011-4.957,9.12,9.12,0,0,0-5.389-2.125c-.157-.009-.313-.014-.468-.014a9.145,9.145,0,0,0-1,.058c-.159.017-.316.036-.472.062l-.122.02a8.73,8.73,0,0,0-1.958.578l-.056.024c-.057.025-.08.036-.1.046-.162.073-.31.143-.457.22l-.079.042-.056.034a8.8,8.8,0,0,0-1,.621c-.192.136-.376.279-.563.438-.108.089-.214.183-.317.277a8.772,8.772,0,0,0-1.369,1.6c-.147.215-.281.434-.4.651a3.43,3.43,0,0,0-.6-.4,4.627,4.627,0,0,0-.839-.333,4.159,4.159,0,0,0-1.209-.177c-.079,0-.158,0-.238.006a9.179,9.179,0,0,0-1.623-6.256,7.342,7.342,0,0,0-2.883-2.385,6.888,6.888,0,0,0-2.04-.57l-.059-.01a7.668,7.668,0,0,0-.8-.042m-.815.72a.3.3,0,0,0,.032-.005l.056-.005.061-.007.049,0,.11-.01.056,0,.054,0,.054,0,.054,0c.108-.005.216-.007.324-.007.071,0,.14,0,.21,0,.189,0,.375.018.561.039a6.85,6.85,0,0,1,1.7.459,6.954,6.954,0,0,1,1.378.812,7.386,7.386,0,0,1,1.239,1.247,8.391,8.391,0,0,1,1,1.732,9.173,9.173,0,0,1,.589,2.2l.013-.043a10.9,10.9,0,0,1,0,2.384.314.314,0,0,0-.029.139l.009.051h0a10.438,10.438,0,0,1-.654,2.391l-.028.071a9.921,9.921,0,0,1-1.179,2.023,9.119,9.119,0,0,1-1.556,1.566,8.361,8.361,0,0,1-1.742,1.02,7.44,7.44,0,0,1-1.723.469,6.556,6.556,0,0,1-.837.052,6.21,6.21,0,0,1-2.419-.474,7.05,7.05,0,0,1-1.446-.846,7.471,7.471,0,0,1-1.231-1.235,8.4,8.4,0,0,1-.986-1.69,9.162,9.162,0,0,1-.6-2.208,9.7,9.7,0,0,1-.076-.982,9.919,9.919,0,0,1,.068-1.457l.01-.083c.041-.291.091-.564.154-.832l.01-.046.007-.05.019-.058.01-.042.012-.063.012-.047h0s.005-.01.021-.068c.089-.331.19-.651.3-.95l.015-.042.032-.085.068-.171a10.024,10.024,0,0,1,1.219-2.1c.111-.142.226-.28.346-.416.021-.025.042-.049.064-.073a9.184,9.184,0,0,1,.944-.908c.052-.046.106-.089.161-.132a8.378,8.378,0,0,1,1.739-1.026,7.938,7.938,0,0,1,.939-.317,7.633,7.633,0,0,1,.815-.165h0m16.786,5.749h0a9.1,9.1,0,0,1,1.176-.242,8.526,8.526,0,0,1,4.437.621,8.428,8.428,0,0,1,5,8.863l0,.064a9.378,9.378,0,0,1-.591,2.109l.049-.071a9.989,9.989,0,0,1-1.11,1.891,8.955,8.955,0,0,1-1.551,1.555,8.862,8.862,0,0,1-1.9,1.106,9,9,0,0,1-2.117.571,9.017,9.017,0,0,1-2.259,0,8.44,8.44,0,0,1-6.609-5.018l-.024-.056c-.044-.106-.077-.189-.107-.274l-.02-.056a9.41,9.41,0,0,1-.292-.962l-.02-.065-.005-.046-.015-.044-.01-.046-.006-.054-.012-.054-.01-.052s0,0-.012-.052l-.017-.069a.4.4,0,0,0-.009-.077l-.013-.051-.017-.1-.017-.14-.007-.051-.007-.059-.01-.054,0-.069-.012-.078v-.052l0-.061-.005-.048a9.462,9.462,0,0,1,.014-1.475l.005-.059c.011-.1.02-.19.032-.279.044-.307.106-.617.182-.922l.009-.044.012-.047.025-.074.02-.074a9.214,9.214,0,0,1,.326-.949,8.354,8.354,0,0,1,2.625-3.413c.134-.1.269-.2.407-.292l.042-.029.063-.042c.1-.066.2-.128.3-.188l.054-.032.054-.032.044-.025a9.612,9.612,0,0,1,.914-.458,9.14,9.14,0,0,1,.891-.312.264.264,0,0,1,.058-.015l.056-.022v0" transform="translate(-221.923 -81.114)" fill="#206969"/>
        <path id="Path_895762" data-name="Path 895762" d="M109.7,10.651a.353.353,0,0,0-.1.015.378.378,0,0,0-.275.369,54.167,54.167,0,0,1-.394,8.429l-.013.133-.011.107c-.124,1.246-.253,2.535-.317,3.807-.062,1.191-.075,2.372-.039,3.51a33.208,33.208,0,0,0,.876,6.713,26.567,26.567,0,0,0,2.355,6.251,28.894,28.894,0,0,0,4.066,5.769,30.034,30.034,0,0,0,5.327,4.643,26.494,26.494,0,0,0,6.386,3.24,20.948,20.948,0,0,0,3.2.823.461.461,0,0,0-.066.247.536.536,0,0,0,.163.376.525.525,0,0,0,.365.144.516.516,0,0,0,.379-.163,2.92,2.92,0,0,0,.328-.441,18.42,18.42,0,0,0,2.049.113c.173,0,.345,0,.517-.007.071,0,.142,0,.211-.007a.13.13,0,0,0,.128-.129.128.128,0,0,0-.124-.128c-.2.008-.4.011-.6.011a17.942,17.942,0,0,1-2.033-.119c.152-.259.281-.515.407-.776.262-.535.5-1.07.7-1.522a24.261,24.261,0,0,0,1.167-3.242,26.811,26.811,0,0,0,.96-6.884,27.177,27.177,0,0,0-.76-6.794,25.228,25.228,0,0,0-1-3.154,27.936,27.936,0,0,0-1.414-3.1,25.1,25.1,0,0,0-3.887-5.415A22.594,22.594,0,0,0,123,19.347c-.768-.437-1.578-.832-2.362-1.214l-.993-.485c-.52-.252-1.039-.5-1.555-.762a34.056,34.056,0,0,1-4.827-2.817,14.719,14.719,0,0,1-2.769-2.6l.041.063c-.173-.23-.347-.464-.511-.7a.4.4,0,0,0-.324-.183" transform="translate(-59.121 -5.802)" fill="#ffc811"/>
        <path id="Path_895763" data-name="Path 895763" d="M134.228,52.843c-.313-.622-.662-1.226-1.012-1.826s-.716-1.193-1.084-1.784c-.541-.869-1.1-1.73-1.658-2.588q.27-.61.491-1.239c.179-.51.331-1.027.466-1.549s.252-1.018.355-1.53.179-1,.248-1.51a23.771,23.771,0,0,0,.214-3.027c.01-1.1-.049-2.206-.133-3.305a.109.109,0,0,0-.11-.089h-.015a.111.111,0,0,0-.087.127c.02.26.036.52.048.781V35.3a25.906,25.906,0,0,1-.043,3.043,20.013,20.013,0,0,1-.394,2.79v0a20.823,20.823,0,0,1-.792,2.7c-.171.462-.351.919-.537,1.373q-.127.309-.257.619c-1.307-1.973-2.659-3.916-4.007-5.861.087-.309.165-.621.229-.935a14.1,14.1,0,0,0,.2-1.419,20.669,20.669,0,0,0,.052-2.942c-.044-.959-.142-1.917-.264-2.872q-.091-.714-.189-1.427c-.069-.5-.142-1-.2-1.493a.107.107,0,0,0-.107-.089h-.018a.11.11,0,0,0-.088.125q.255,2.141.356,4.294c.039,1,.039,2-.021,3-.031.5-.077,1.008-.147,1.509s-.162,1-.27,1.489c0,.019-.01.037-.014.056-.65-.938-1.3-1.876-1.94-2.823q-1.074-1.6-2.123-3.208c-.266-.408-.527-.82-.788-1.232a.217.217,0,0,0,.036-.06,11.81,11.81,0,0,0,.363-1.942,19.106,19.106,0,0,0,.1-2.047c0-.672-.034-1.345-.074-2.013-.044-.689-.111-1.377-.172-2.064a.108.108,0,0,0-.109-.09l-.018,0a.111.111,0,0,0-.086.127c.036.436.066.873.086,1.309.021.489.036.977.036,1.467s-.019.983-.046,1.473a18.14,18.14,0,0,1-.407,2.87c-.029.126-.059.251-.088.377-.972-1.556-1.907-3.135-2.792-4.742q-.3-.537-.583-1.08a.19.19,0,0,0-.061-.114c-.039-.073-.075-.147-.113-.22a15.36,15.36,0,0,0,.008-2.052,11.4,11.4,0,0,0-.4-2.359.114.114,0,0,0-.106-.088l-.021,0a.107.107,0,0,0-.086.125,8.624,8.624,0,0,1,.213,1.012,10.709,10.709,0,0,1,.1,1.084v.011c0,.008,0,.016,0,.025v-.006a15.178,15.178,0,0,1-.042,1.6c-.468-.917-.917-1.844-1.338-2.783h0c-.525-1.176-1.016-2.37-1.458-3.581a.113.113,0,0,0-.1-.077.106.106,0,0,0-.031,0,.109.109,0,0,0-.072.135c.845,2.318,1.818,4.589,2.881,6.816-.3-.182-.6-.368-.881-.572l.019.013a9.719,9.719,0,0,1-1.764-1.643l.005.005c-.129-.16-.254-.325-.374-.492a.119.119,0,0,0-.094-.051.1.1,0,0,0-.054.015.11.11,0,0,0-.036.15,11.721,11.721,0,0,0,1.584,1.812,11.36,11.36,0,0,0,.909.748,7.672,7.672,0,0,0,.982.621c.492,1,1,2,1.53,2.987s1.079,1.99,1.642,2.973c-.564-.26-1.129-.519-1.681-.8a17.42,17.42,0,0,1-2.14-1.305c-.289-.209-.571-.425-.844-.653s-.558-.491-.819-.753a.1.1,0,0,0-.073-.029.108.108,0,0,0-.076.187,17.528,17.528,0,0,0,1.366,1.235,16.617,16.617,0,0,0,1.432,1.032c.5.329,1.021.636,1.544.932.549.311,1.116.6,1.693.857.582,1,1.171,2,1.775,2.992.667,1.094,1.347,2.182,2.023,3.272.254.41.515.816.773,1.225-.335-.1-.669-.191-1-.291q-1.044-.31-2.063-.7a21,21,0,0,1-2.1-.949,17.119,17.119,0,0,1-1.983-1.215l-.006,0-.016-.012,0,0q-.4-.295-.786-.615a.12.12,0,0,0-.076-.028.106.106,0,0,0-.077.033.108.108,0,0,0,.005.153,19.273,19.273,0,0,0,1.971,1.451,22.363,22.363,0,0,0,2.266,1.265,24.29,24.29,0,0,0,2.312.988,16.918,16.918,0,0,0,1.982.6q1.447,2.287,2.906,4.568c.384.6.771,1.205,1.157,1.808-.219-.027-.438-.049-.657-.072-.376-.039-.75-.074-1.124-.114a20.244,20.244,0,0,1-2.17-.354c-.343-.076-.684-.166-1.02-.265-.354-.107-.7-.231-1.044-.363l.022.01a12.96,12.96,0,0,1-2.806-1.524l.024.015c-.043-.029-.083-.059-.123-.09a.139.139,0,0,0-.078-.027.1.1,0,0,0-.074.032.109.109,0,0,0,.005.154,17.248,17.248,0,0,0,2.189,1.39c.375.2.758.387,1.149.554s.773.318,1.165.461.8.27,1.211.387.823.218,1.24.307.846.162,1.273.213a7.606,7.606,0,0,0,1.311.063c.29.455.581.909.866,1.367.458.732.9,1.473,1.334,2.216s.856,1.5,1.3,2.238a.644.644,0,0,0,1.172-.188.69.69,0,0,0-.079-.493" transform="translate(-61.566 -9.89)" fill="#fffceb"/>
        <path id="Path_895764" data-name="Path 895764" d="M122.852,58.9l-.014-.01.012.009h0" transform="translate(-66.918 -32.081)" fill="#fba92d"/>
        <path id="Path_895765" data-name="Path 895765" d="M122.874,58.916l-.005,0,0,0h0" transform="translate(-66.935 -32.093)" fill="#fba92d"/>
        <path id="Path_895766" data-name="Path 895766" d="M120.392,28.722c0,.009,0,.018,0,.027,0-.006,0-.012,0-.019v-.008" transform="translate(-65.586 -15.647)" fill="#fba92d"/>
        <path id="Path_895767" data-name="Path 895767" d="M60.608,38.476c-.287,0-.576.009-.865.027a14.5,14.5,0,0,0-2.023.264,13.679,13.679,0,0,0-1.982.592,13.411,13.411,0,0,0-3.645,2.12,11.659,11.659,0,0,0-2.545,2.793,10.254,10.254,0,0,0-.8,1.535,8.832,8.832,0,0,0-.483,1.5,10.073,10.073,0,0,0-.222,3.175,12.644,12.644,0,0,0,.255,1.644,12.963,12.963,0,0,0,.493,1.619,14.923,14.923,0,0,0,1.487,2.95,18.666,18.666,0,0,0,4.91,5.09,26.861,26.861,0,0,0,7.828,3.661c2.015.616,4.079,1.1,6.076,1.571.757.178,1.514.356,2.269.54,1.656.406,3.094.81,4.4,1.236A44.581,44.581,0,0,1,80,70.463l-.027-.039a59.54,59.54,0,0,1,5.562,2.964c.868.523,1.749,1.1,2.692,1.761.838.585,1.708,1.244,2.584,1.961a37.621,37.621,0,0,1,4.388,4.23l.023.4q.04.613.088,1.227l.006.071.007.078a.626.626,0,0,0,.146.278.611.611,0,0,0,.412.191.628.628,0,0,0,.428-.16.575.575,0,0,0,.191-.416l-.005-.135.055.1c.217.292.433.585.644.882l.025.037.066.1a.2.2,0,0,0,.164.1.18.18,0,0,0,.081-.02.2.2,0,0,0,.1-.13.135.135,0,0,0-.017-.117c-.346-.5-.733-1.016-1.15-1.545-.038-.581-.091-1.169-.146-1.754l-.037-.4-.021.065v-.305c-.059-.656-.114-1.274-.184-1.891-.073-.635-.168-1.315-.28-2.02-.209-1.3-.482-2.607-.809-3.893a43.973,43.973,0,0,0-2.573-7.318,48.943,48.943,0,0,0-8.574-12.735,67.077,67.077,0,0,0-5.819-5.606,41.417,41.417,0,0,0-6.578-4.679,30.186,30.186,0,0,0-3.8-1.82,21.5,21.5,0,0,0-3.885-1.14,16.862,16.862,0,0,0-3.141-.311" transform="translate(-26.152 -20.961)" fill="#050c68"/>
        <path id="Path_895768" data-name="Path 895768" d="M102.869,78.266a74.022,74.022,0,0,0-5.3-5.783c-1.63-1.607-3.336-3.133-5.088-4.606a20.655,20.655,0,0,0-.959-2.72c-.383-.9-.819-1.779-1.285-2.638-.452-.831-.939-1.642-1.441-2.443-.53-.844-1.094-1.664-1.658-2.485a.1.1,0,0,0-.083-.04.107.107,0,0,0-.085.176c.247.363.488.728.716,1.1l-.009-.015q.125.206.25.409l-.02-.031a36.483,36.483,0,0,1,2.238,4.265c.324.737.625,1.482.907,2.235.176.467.34.938.5,1.41-1.964-1.612-3.992-3.141-6.062-4.616-.735-.524-1.478-1.035-2.224-1.541-.066-.192-.132-.384-.2-.574-.095-.259-.2-.514-.3-.769-.221-.529-.461-1.05-.715-1.566a31.673,31.673,0,0,0-1.679-2.995c-.306-.48-.621-.956-.955-1.417s-.675-.92-1.02-1.375-.71-.9-1.076-1.341c-.176-.213-.357-.419-.538-.625-.2-.227-.4-.453-.6-.678a.116.116,0,0,0-.086-.039.1.1,0,0,0-.066.024.109.109,0,0,0-.015.152c.547.616,1.064,1.26,1.556,1.922s.981,1.378,1.423,2.1c.726,1.193,1.4,2.414,2.019,3.668.318.649.618,1.306.91,1.966q.2.453.391.9-1.54-1.028-3.1-2.029c-2.1-1.358-4.246-2.669-6.437-3.883-.247-.137-.5-.267-.745-.4,0-.008,0-.016-.005-.024a14.229,14.229,0,0,0-1.4-2.581c-.269-.4-.554-.8-.852-1.179-.312-.4-.645-.789-.98-1.172-.642-.735-1.334-1.424-2.029-2.11s-1.433-1.365-2.157-2.035a.082.082,0,0,0-.059-.022.115.115,0,0,0-.091.046.109.109,0,0,0,.024.15l.369.346-.014-.013q.772.729,1.508,1.495c.492.508.963,1.034,1.422,1.571.221.259.434.524.647.789.229.284.448.574.662.87.412.569.811,1.151,1.18,1.75q.342.561.658,1.136c.1.175.185.353.277.53-1.749-.916-3.535-1.764-5.363-2.511a33.214,33.214,0,0,0-8.128-2.286h-.02a.206.206,0,0,0,.01.412c.138.019.277.037.414.057l-.051-.007a32.343,32.343,0,0,1,7.923,2.407l-.059-.023c1.548.672,3.051,1.436,4.53,2.247-.394-.1-.792-.193-1.193-.264-.553-.1-1.11-.164-1.671-.209s-1.15-.071-1.728-.075h-.135a28.7,28.7,0,0,0-3.338.209c-.549.065-1.1.151-1.642.247s-1.063.2-1.59.327q-.509.119-1.015.259a.108.108,0,1,0,.062.208,25.194,25.194,0,0,1,2.593-.559,26.023,26.023,0,0,1,6.765-.221,16.714,16.714,0,0,1,4.242.986q.157.062.313.129a.241.241,0,0,0,.171.019c.006,0,.01-.006.016-.009.158.092.317.18.474.273,2.15,1.27,4.241,2.636,6.315,4.028q1.195.8,2.377,1.625c-.356-.1-.715-.2-1.077-.279a22.2,22.2,0,0,0-3.429-.463c-.588-.037-1.174-.052-1.761-.056h-.225c-.515,0-1.031.015-1.546.041-.588.029-1.174.078-1.76.137s-1.154.128-1.728.214a33.008,33.008,0,0,0-4.459.98.111.111,0,0,0-.073.135.11.11,0,0,0,.135.072,27.28,27.28,0,0,1,3.345-.751,29.758,29.758,0,0,1,3.986-.359q1.026-.025,2.056.009c.682.022,1.366.074,2.046.145l-.075-.006a30.776,30.776,0,0,1,3.264.529c.522.113,1.039.241,1.552.39.479.138.954.3,1.427.456,1.782,1.28,3.538,2.6,5.252,3.965q1.123.9,2.219,1.83l-.079-.024q-.8-.215-1.61-.384a29.249,29.249,0,0,0-3.415-.511q-.841-.074-1.686-.086l-.307,0c-.456,0-.911.018-1.367.047-.549.034-1.1.1-1.642.175a15.962,15.962,0,0,0-1.617.323.11.11,0,0,0-.074.135.112.112,0,0,0,.135.073q.49-.122.986-.2c.387-.061.778-.109,1.169-.142.426-.034.851-.044,1.279-.046s.865.017,1.3.042.851.067,1.276.112a32.478,32.478,0,0,1,3.524.606c.59.132,1.175.277,1.76.431q.746.2,1.486.41,1.277,1.11,2.516,2.262,1.209,1.134,2.377,2.309l-.472-.091c-.7-.128-1.4-.241-2.106-.318a16.349,16.349,0,0,0-1.771-.1q-.153,0-.307,0a14.36,14.36,0,0,0-2.1.211.108.108,0,0,0-.074.135.112.112,0,0,0,.135.072l.169-.029-.029.005c.277-.042.554-.074.834-.1s.549-.026.824-.026a15.745,15.745,0,0,1,1.618.1c.773.086,1.539.225,2.3.383.524.108,1.043.229,1.563.351Q98.5,75.226,99.73,76.59q1.127,1.262,2.2,2.569a.628.628,0,0,0,.452.2.652.652,0,0,0,.463-.179.659.659,0,0,0,.2-.454.684.684,0,0,0-.179-.461" transform="translate(-31.324 -24.443)" fill="#1e2ad5"/>
        <path id="Path_895769" data-name="Path 895769" d="M380.243,49.866l-2.718-1.45c0-.1,0-.207,0-.309q-.016-.479-.058-.951l0-.051-.005-.056c-.023-.243-.058-.484-.092-.725l.7-.593,1.905-1.621a.182.182,0,0,0,.044-.182L379.267,42l-.741-1.932a.226.226,0,0,0-.021-.042.183.183,0,0,0-.164-.095l-3.241.091c-.046-.074-.089-.153-.135-.225s-.083-.128-.125-.192c-.244-.372-.5-.73-.776-1.079l.317-.835.888-2.339a.182.182,0,0,0-.049-.181l-1.581-1.335L372.06,32.5a.249.249,0,0,0-.039-.027.183.183,0,0,0-.189,0l-2.88,1.69-.014-.009c-.38-.207-.773-.4-1.168-.578l-.057-.025-.041-.018c-.1-.046-.21-.088-.315-.132l-.192-1.229-.386-2.471a.181.181,0,0,0-.133-.132l-2.034-.377-2.035-.377a.228.228,0,0,0-.047,0,.183.183,0,0,0-.166.091L360.579,32l-.086.151a16.7,16.7,0,0,0-1.666.139l-.746-.941-1.553-1.961a.18.18,0,0,0-.18-.05l-1.957.672-1.957.672a.285.285,0,0,0-.043.02.183.183,0,0,0-.1.161l-.026,3.579v.234q-.571.361-1.113.768l-1.053-.413-2.328-.913a.18.18,0,0,0-.181.047l-1.352,1.566-1.353,1.566a.275.275,0,0,0-.027.039.183.183,0,0,0-.006.189l1.778,3.1q-.38.686-.694,1.405l-1.114.188-2.466.417a.181.181,0,0,0-.131.134l-.352,2.039-.353,2.039a.274.274,0,0,0,0,.047.183.183,0,0,0,.093.165l2.949,1.649c0,.19,0,.38.01.568.018.443.057.881.108,1.313l-.8.624-1.969,1.542a.18.18,0,0,0-.051.18l.662,1.961.662,1.96a.246.246,0,0,0,.02.043.185.185,0,0,0,.161.1l3.507.044c.163.274.332.544.512.808.191.28.391.55.6.817l-.315.771-.946,2.316a.182.182,0,0,0,.045.182l1.547,1.375,1.546,1.374a.276.276,0,0,0,.038.028.183.183,0,0,0,.189.008l3-1.662a16.2,16.2,0,0,0,1.6.781l.1.746.348,2.477a.178.178,0,0,0,.13.134l2.028.41,2.029.409a.237.237,0,0,0,.047,0,.183.183,0,0,0,.168-.088l1.684-2.826a16.229,16.229,0,0,0,1.851-.121l.028,0,.544.671,1.574,1.945a.181.181,0,0,0,.181.048l1.949-.693,1.949-.694a.243.243,0,0,0,.043-.02.185.185,0,0,0,.1-.163l-.011-3.259a16.609,16.609,0,0,0,1.65-1.117l.866.359,2.311.959a.18.18,0,0,0,.182-.044l1.383-1.539L377.2,59.9a.205.205,0,0,0,.028-.038.182.182,0,0,0,.01-.189l-1.717-3.139-.007-.013a16.647,16.647,0,0,0,.765-1.589l.847-.16,2.457-.465a.179.179,0,0,0,.128-.136l.313-2.045.312-2.045a.235.235,0,0,0,0-.047.184.184,0,0,0-.1-.164m-20.422-9.3a8,8,0,0,1,3.9.445l.047.018.052.02c.055.022.112.044.167.068.184.079.351.157.513.239l.026.013.025.013.034.017v0l.039.023.032.017.029.015.042.023.03.017.051.028c.234.132.465.277.688.432l.028.02c.082.058.164.119.246.18.2.159.4.328.589.5l.021.02.031.03.047.046.019.019.019.018,0,0,.022.025.038.038.047.048.03.031.019.02,0,0,.024.029.033.035.025.026,0,0,.02.025,0,0,.022.028.022.024h0l.017.022.032.036.044.048c.108.123.214.249.315.379h0l.017.023a8.414,8.414,0,0,1,1.031,1.76l.009.02c.043.1.085.208.123.313a8.515,8.515,0,0,1,.36,1.294l.009.046c0,.012.005.025.011.06.017.093.032.188.049.3h0v.031c.005.039.01.08.016.131a8.468,8.468,0,0,1-.02,2.012,8.57,8.57,0,0,1-.548,2.02l.015-.047a8,8,0,0,1-6.311,4.867l-.026,0a8.425,8.425,0,0,1-2.155-.005,8.005,8.005,0,0,1-5.234-3.038,8.593,8.593,0,0,1-1.065-1.82l.024.043a8.3,8.3,0,0,1-.554-2.018,8.388,8.388,0,0,1,0-2.166,7.964,7.964,0,0,1,1.584-3.8,7.979,7.979,0,0,1,5.049-3.024c.07-.011.142-.023.229-.035" transform="translate(-186.046 -15.692)" fill="#1e2ad5"/>
        <path id="Path_895770" data-name="Path 895770" d="M370.819,46.6a11.557,11.557,0,0,1,3.439.738l.027.009q.195.076.387.158a11.609,11.609,0,0,1,2.125,1.179l.012.008.067.048.024.017.055.039.037.028.025.018.064.047.014.01.039.029a12.032,12.032,0,0,1,1.313,1.151q.222.226.431.465l0,0,.056.066.024.028.04.047.037.044.029.035.046.056.021.025.051.063.018.023.051.064.019.024.048.061.023.029.041.054.029.038.031.041.039.052.018.024.105.143A11.642,11.642,0,0,1,380,64.42a11.728,11.728,0,0,1-5.112,4.449,11.364,11.364,0,0,1-3.4.937,11.644,11.644,0,0,1-12.93-12.974,11.388,11.388,0,0,1,.954-3.412,11.647,11.647,0,0,1,10.627-6.838q.341,0,.681.02m-2.178.823a10.94,10.94,0,0,0-8.59,6.613c.009-.021.018-.043.026-.065l-.033.079a.076.076,0,0,1,0,.01l0-.01a10.89,10.89,0,0,0,1.433,10.833,10.958,10.958,0,0,0,4.408,3.4,11.49,11.49,0,0,0,2.758.756,11.683,11.683,0,0,0,2.959,0,11.47,11.47,0,0,0,2.782-.765l-.061.025a10.911,10.911,0,0,0,6.618-8.653,11.71,11.71,0,0,0-.006-2.884,10.861,10.861,0,0,0-2.206-5.235q-.3-.384-.638-.74h0l-.046-.05-.019-.02-.018-.019a11.517,11.517,0,0,0-.889-.835l-.01-.009-.046-.039-.03-.025L377,49.772l-.05-.041-.008-.006q-.088-.072-.178-.142l-.018-.014-.032-.025-.037-.028-.042-.031-.028-.02-.049-.036-.023-.016-.058-.041-.013-.01-.065-.046-.008-.006-.07-.048,0,0a10.881,10.881,0,0,0-7.681-1.837m-7.147,4.137-.035.044.035-.044m19.441,5.206c0,.029.008.058.012.086,0-.029-.008-.057-.012-.086m0,2.938c0,.01,0,.021,0,.032,0-.011,0-.022,0-.032m-12.32,9.335.029,0-.029,0m.03,0,.069.01-.069-.01m-8.6-14.992h0l.006-.014-.006.015" transform="translate(-195.284 -25.376)" fill="#afbefc"/>
        <path id="Path_895771" data-name="Path 895771" d="M461.8,62.426l-.557-1.174c.026-.035.052-.07.077-.105q.115-.167.219-.337l.011-.018.012-.02c.053-.088.1-.178.151-.269l.385-.026,1.053-.071a.075.075,0,0,0,.06-.051l.234-.841.234-.84a.148.148,0,0,0,0-.02.078.078,0,0,0-.032-.073l-1.121-.782c0-.037.008-.074.01-.111s0-.064.006-.1c.011-.187.012-.374.008-.56l.317-.2.888-.57a.076.076,0,0,0,.029-.073l-.2-.849-.2-.849a.1.1,0,0,0-.006-.019.078.078,0,0,0-.063-.049l-1.4-.15,0-.007c-.077-.165-.161-.33-.251-.488l-.013-.023-.01-.016c-.024-.042-.049-.082-.073-.124l.243-.464.489-.935a.076.076,0,0,0-.011-.078l-.595-.638-.595-.639a.133.133,0,0,0-.015-.013.078.078,0,0,0-.079-.011l-1.383.6-.067.03a6.947,6.947,0,0,0-.6-.371l-.016-.506-.034-1.054a.076.076,0,0,0-.049-.062l-.832-.263-.832-.263-.02,0a.077.077,0,0,0-.074.029l-.907,1.206-.059.079c-.189-.014-.379-.02-.569-.019l-.254-.4-.56-.894a.077.077,0,0,0-.073-.03l-.851.192-.851.191-.019.006a.078.078,0,0,0-.05.063l-.177,1.5q-.3.137-.588.3l-.425-.216-.941-.478a.077.077,0,0,0-.078.012l-.631.6-.631.6a.108.108,0,0,0-.013.015.077.077,0,0,0-.01.079l.586,1.3c-.047.065-.1.129-.139.195-.105.155-.2.313-.293.472l-.427.011-1.054.029a.077.077,0,0,0-.063.048l-.267.831-.268.83a.139.139,0,0,0,0,.02.077.077,0,0,0,.029.074l1.177.9c-.013.133-.024.267-.029.4s-.006.285,0,.427l-.3.182-.9.547a.077.077,0,0,0-.031.073l.179.854.179.854a.089.089,0,0,0,.006.019.076.076,0,0,0,.062.051l1.434.19a6.959,6.959,0,0,0,.347.666l-.152.279-.5.927a.075.075,0,0,0,.01.078l.585.648.585.648.015.013a.078.078,0,0,0,.079.012l1.28-.535a6.869,6.869,0,0,0,.658.423l.01.006.016.364.046,1.054a.075.075,0,0,0,.049.061l.835.254.834.254.02,0a.078.078,0,0,0,.074-.03l.814-1.107a7.113,7.113,0,0,0,.839.035l.2.339.542.905a.077.077,0,0,0,.073.031l.855-.175.855-.174.019-.006a.078.078,0,0,0,.05-.062l.206-1.495v-.006a7.067,7.067,0,0,0,.658-.346l.327.158.95.459a.075.075,0,0,0,.078-.014l.619-.615.62-.615.013-.015a.078.078,0,0,0,.008-.08m-4.588-8.276a3.373,3.373,0,0,1,1.209,1.129l.011.018.012.02c.014.021.027.043.04.065.043.073.08.141.114.209l.005.011,0,.011.007.014h0l.007.018.007.014.006.012.009.019.006.013.01.022c.046.1.088.211.124.319l0,.014c.014.041.026.081.038.123.029.105.054.212.073.319l0,.012,0,.018,0,.027,0,.011,0,.01h0v.014l0,.022,0,.028,0,.018,0,.011h0v.016l0,.02,0,.015h0v.013h0v.029h0v.012l0,.02,0,.027c.005.069.01.138.011.208v.012a3.56,3.56,0,0,1-.092.855l0,.01c-.011.046-.024.092-.037.137a3.536,3.536,0,0,1-.2.529l-.009.018-.011.023c-.018.036-.036.072-.059.114h0l-.007.011-.028.049a3.553,3.553,0,0,1-.512.676,3.619,3.619,0,0,1-.692.547l.017-.012a3.41,3.41,0,0,1-1.679.48,3.563,3.563,0,0,1-.841-.09,3.506,3.506,0,0,1-.841-.324l-.01-.005a3.547,3.547,0,0,1-.374-.242,3.608,3.608,0,0,1-.355-.3,3.481,3.481,0,0,1-.549-.7h0a3.391,3.391,0,0,1-.462-1.64,3.615,3.615,0,0,1,.1-.884l0,.02a3.488,3.488,0,0,1,.319-.823,3.528,3.528,0,0,1,.542-.735,3.361,3.361,0,0,1,1.49-.89,3.577,3.577,0,0,1,.863-.13,3.351,3.351,0,0,1,1.606.372l.087.046" transform="translate(-243.742 -26.643)" fill="#050c68"/>
        <path id="Path_895772" data-name="Path 895772" d="M462.6,57.305a4.885,4.885,0,0,1,.981,1.113l.007.01c.031.05.061.1.091.151a4.9,4.9,0,0,1,.425.933l0,.006.011.033,0,.012.009.027.006.019a.116.116,0,0,1,0,.013c0,.01.007.021.01.032l0,.007.006.02a4.984,4.984,0,0,1,.156.72c.013.088.022.177.03.265v0l0,.036c0,.005,0,.01,0,.015s0,.017,0,.026,0,.016,0,.024,0,.013,0,.019v.187c0,.01,0,.019,0,.029s0,.013,0,.02v.021c0,.009,0,.018,0,.027v.013c0,.025,0,.05,0,.075a4.91,4.91,0,0,1-3.118,4.488,4.944,4.944,0,0,1-2.849.225A4.788,4.788,0,0,1,457,65.337a4.914,4.914,0,1,1,5.37-8.21c.077.057.153.116.226.178m-.945-.267a4.612,4.612,0,0,0-4.571.086l.025-.015-.031.019,0,0,0,0a4.6,4.6,0,0,0-.848,7.239,4.907,4.907,0,0,0,1,.742,4.836,4.836,0,0,0,1.135.439l-.027-.007a4.6,4.6,0,0,0,4.414-1.272,4.933,4.933,0,0,0,.722-.979,4.582,4.582,0,0,0,.566-2.328c0-.137-.015-.274-.03-.411,0-.01,0-.019,0-.029V60.5a4.893,4.893,0,0,0-.092-.506v-.005c0-.008,0-.016-.006-.025s0-.011,0-.016l0-.015-.007-.026v0l-.025-.092,0-.009,0-.016-.006-.019c0-.007,0-.014-.006-.021l0-.014-.008-.024,0-.011-.009-.028,0-.007-.01-.031v0l-.011-.034v0a4.584,4.584,0,0,0-2.142-2.55m-3.46-.392-.023.006.023-.006m5.283,6.643-.018.032.018-.032m-.737,1-.01.01.01-.01m-6.518.073.009.008-.009-.008m.009.009.021.02-.021-.02m.848-7.239h0l.006,0-.006,0" transform="translate(-247.613 -30.594)" fill="#fba92d"/>
        <path id="Path_895773" data-name="Path 895773" d="M158.126,24.459a6.19,6.19,0,0,0-1.138.122,5.417,5.417,0,0,0-1.295.432,4.881,4.881,0,0,0-1.845,1.566,5.906,5.906,0,0,0-.931,2.182,11.561,11.561,0,0,0,.115,5.007A13.784,13.784,0,0,0,153.727,36a8.942,8.942,0,0,0-2.164-.792,6,6,0,0,0-1.252-.14,4.061,4.061,0,0,0-1.478.259,3.481,3.481,0,0,0-1.18.763,3.942,3.942,0,0,0-.8,1.106,3.254,3.254,0,0,0-.3,1.218,3.407,3.407,0,0,0,.161,1.164,6.036,6.036,0,0,0,1.325,2.2,13.071,13.071,0,0,0,2.024,1.825c.274.207.573.419.887.629a5.029,5.029,0,0,0-1.17.456,3.96,3.96,0,0,0-1.6,1.606,4.3,4.3,0,0,0-.468,2.178,6.246,6.246,0,0,0,.632,2.406,8.433,8.433,0,0,0,1.573,2.242,12.64,12.64,0,0,0,2.3,1.855,17.906,17.906,0,0,0,2.762,1.428,23.615,23.615,0,0,0,2.98,1.017,27.892,27.892,0,0,0,3.127.647,30.887,30.887,0,0,0,3.2.316q.623.028,1.248.028c.567,0,1.137-.018,1.693-.054s1.042-.089,1.485-.155a11.022,11.022,0,0,0,1.439-.321,12.833,12.833,0,0,0,2.2-.875,12.182,12.182,0,0,0,2.064-1.321,9.335,9.335,0,0,0,1.678-1.712,7.756,7.756,0,0,0,.963-1.639c.2-.392.374-.8.513-1.143a18.4,18.4,0,0,0,.811-2.545,19.5,19.5,0,0,0,.472-2.937,12.081,12.081,0,0,0-.108-2.965,5.9,5.9,0,0,0-.972-2.483,4.577,4.577,0,0,0-1.089-1.065,3.748,3.748,0,0,0-1.275-.559,4.007,4.007,0,0,0-.926-.107,4.7,4.7,0,0,0-1.776.361,5.723,5.723,0,0,0-.913.477,12.7,12.7,0,0,0,.5-2.648,6.973,6.973,0,0,0-.345-2.918,5.081,5.081,0,0,0-1.785-2.377,3.828,3.828,0,0,0-2.251-.741c-.07,0-.139,0-.208.005a4.851,4.851,0,0,0-2.391.864,7.1,7.1,0,0,0-1.609,1.5,18.623,18.623,0,0,0-.437-3.145,11.149,11.149,0,0,0-.905-2.557,7.057,7.057,0,0,0-.713-1.111,4.772,4.772,0,0,0-.808-.826,5.361,5.361,0,0,0-.528-.371,4.649,4.649,0,0,0-.626-.3,4.176,4.176,0,0,0-1.265-.269c-.1-.008-.2-.012-.3-.012" transform="translate(-79.83 -13.324)" fill="#f6ae5c"/>
        <path id="Path_895774" data-name="Path 895774" d="M179.17,44.409a.181.181,0,0,0-.046-.006.178.178,0,0,0-.165.126c-.1.307-.214.61-.339.91a18.34,18.34,0,0,1-1.073,2.1q-.326.552-.7,1.074c-.247.346-.5.691-.759,1.028-.3.386-.609.765-.93,1.132-.335.383-.688.75-1.046,1.112s-.722.7-1.1,1.037-.752.633-1.14.935c-.33.252-.663.5-1,.735l-.157.108q-1.368-2.329-2.519-4.777c-.371-.786-.716-1.585-1.057-2.386l.037.089-.037-.09h0v0c-.139-.334-.269-.671-.4-1.008q.429-.378.825-.789c.346-.363.678-.74.991-1.132s.618-.813.91-1.231.574-.85.838-1.29a20.706,20.706,0,0,0,1.347-2.711,16.211,16.211,0,0,0,.867-2.811.125.125,0,0,0-.088-.153.1.1,0,0,0-.032-.005.123.123,0,0,0-.121.091,13.531,13.531,0,0,1-.75,2.368c-.149.351-.307.7-.478,1.037-.184.368-.386.728-.6,1.083a20.763,20.763,0,0,1-1.4,2.052,21.521,21.521,0,0,1-1.447,1.64c-.371.386-.763.752-1.159,1.112q-.292-.77-.565-1.549c-.2-.571-.4-1.142-.591-1.716s-.363-1.154-.533-1.733-.331-1.159-.486-1.741-.287-1.169-.417-1.755l-.081-.361a.29.29,0,0,0,.073-.106c.153-.4.291-.8.414-1.209.132-.432.241-.872.341-1.312a16.622,16.622,0,0,0,.373-2.562.107.107,0,0,0-.108-.108.112.112,0,0,0-.108.108c-.017.234-.038.467-.069.7a13.338,13.338,0,0,1-.5,2.165c-.17.537-.373,1.063-.581,1.586-.047-.218-.1-.435-.138-.654q-.175-.88-.326-1.762-.114-.669-.2-1.342h0c-.109-.811-.211-1.622-.273-2.439a.14.14,0,1,0-.28,0c.042.591.081,1.185.125,1.775s.1,1.188.164,1.779.122,1.187.2,1.779c.049.36.1.719.153,1.078-.041-.031-.084-.061-.126-.092a11.66,11.66,0,0,1-.968-.841,9.643,9.643,0,0,1-.835-.94q-.263-.341-.5-.7a7.491,7.491,0,0,1-.452-.806.1.1,0,0,0-.092-.054.106.106,0,0,0-.055.015.109.109,0,0,0-.039.147,11.065,11.065,0,0,0,.622,1.12,9.882,9.882,0,0,0,.742,1.012,10.415,10.415,0,0,0,1.782,1.709c.007.047.013.1.02.142.092.6.21,1.187.326,1.779s.236,1.185.361,1.775.275,1.177.424,1.761.3,1.171.468,1.752c.161.557.341,1.11.524,1.661l-.8-.309c-.576-.224-1.151-.451-1.723-.691-.472-.2-.938-.412-1.4-.636s-.948-.468-1.414-.717a19.893,19.893,0,0,1-2.622-1.7l.007,0a14.274,14.274,0,0,1-1.248-1.081.112.112,0,0,0-.077-.031.1.1,0,0,0-.075.031.109.109,0,0,0,0,.153A19.583,19.583,0,0,0,158,42.66c.4.292.808.571,1.22.843.439.29.883.573,1.336.843.432.257.878.492,1.322.727s.884.454,1.333.666.893.4,1.349.585c.228.092.459.178.691.258.086.031.174.055.262.083.11.319.216.639.332.956.427,1.162.9,2.307,1.4,3.439q.737,1.65,1.591,3.247l-1.242-.12c-.764-.074-1.528-.157-2.29-.258-.531-.072-1.062-.151-1.59-.246-.556-.1-1.11-.221-1.657-.36-.519-.132-1.032-.287-1.542-.451-.525-.169-1.046-.36-1.554-.573l.007,0a17.732,17.732,0,0,1-2.181-1.1.106.106,0,0,0-.054-.015.11.11,0,0,0-.054.2,24.962,24.962,0,0,0,3.032,1.534c.525.226,1.059.439,1.6.628.556.194,1.113.382,1.678.551a29.636,29.636,0,0,0,3.415.828,19.04,19.04,0,0,0,2.948.3c.073.129.143.259.217.388a.474.474,0,0,0,.385.65c.231.386.462.772.7,1.15.608.948,1.25,1.872,1.934,2.767q.532.7,1.093,1.373c.367.439.755.856,1.15,1.27a.6.6,0,0,0,1.01-.267.58.58,0,0,0-.061-.466c-.361-.471-.713-.948-1.071-1.42s-.713-.956-1.059-1.441q-1.045-1.462-2.007-2.978c-.13-.206-.253-.417-.381-.625.14-.1.282-.187.418-.288a15.93,15.93,0,0,0,1.382-1.15c.436-.4.852-.831,1.257-1.265s.8-.911,1.177-1.387.748-.973,1.094-1.478q.243-.36.475-.727c.164-.264.314-.535.466-.807.287-.512.564-1.029.815-1.559.239-.505.455-1.022.651-1.544.1-.265.194-.533.282-.8a.172.172,0,0,0-.12-.211" transform="translate(-84.901 -16.262)" fill="#634419"/>
        <path id="Path_895775" data-name="Path 895775" d="M144.687,82.317V218.662H258.015V82.317Z" transform="translate(-78.821 -44.844)" fill="#afbefc"/>
        <path id="Path_895776" data-name="Path 895776" d="M259.025,99.6H156.312L156.3,223.179l13.882.008h88.839L259.034,99.6Z" transform="translate(-85.15 -54.256)" fill="#fefefe"/>
        <path id="Path_895777" data-name="Path 895777" d="M240.257,27.775a16.771,16.771,0,0,0-1.882.108,15.083,15.083,0,0,0-7.429,2.954,14.115,14.115,0,0,0-1.507,1.335,13,13,0,0,0-1.252,1.5,11.73,11.73,0,0,0-1.744,3.585,11.223,11.223,0,0,0,.074,6.5l-8.049-.02h-1.789a.335.335,0,0,0-.284.161.14.14,0,0,0-.056.044,6.633,6.633,0,0,0-.759,1.152,7.886,7.886,0,0,0-.527,1.335,10.842,10.842,0,0,0-.422,2.979,12.936,12.936,0,0,0,.326,3.013,9.3,9.3,0,0,0,1.023,2.663,7.14,7.14,0,0,0,.585.841.334.334,0,0,0,.241.1.243.243,0,0,0,.079-.012l15.522,0h30.05a.336.336,0,0,0,.137-.031h0a.362.362,0,0,0,.326-.166,8.555,8.555,0,0,0,.722-1.527,10.653,10.653,0,0,0,.411-1.391A14.272,14.272,0,0,0,264.4,49.8a13.928,13.928,0,0,0-.343-3.146,9.381,9.381,0,0,0-1.07-2.739.336.336,0,0,0-.295-.173.456.456,0,0,0-.07.007.361.361,0,0,0-.072-.009h-8.6a1.179,1.179,0,0,0,.089-.239,11.313,11.313,0,0,0,.054-6.025,11.639,11.639,0,0,0-1.647-3.579,13.014,13.014,0,0,0-2.7-2.9,14.277,14.277,0,0,0-1.673-1.147,14.421,14.421,0,0,0-1.8-.894,15.551,15.551,0,0,0-6.006-1.188m6.3,15.973-12.28,0c-.091-.172-.182-.355-.261-.538a6.07,6.07,0,0,1-.37-1.36,5.349,5.349,0,0,1,.366-2.765,6.424,6.424,0,0,1,.775-1.316,6.852,6.852,0,0,1,1.154-1.141,7.713,7.713,0,0,1,1.541-.891,7.514,7.514,0,0,1,2.942-.577,8.57,8.57,0,0,1,1.028.062l.046.007a8.134,8.134,0,0,1,1.88.516,7.827,7.827,0,0,1,1.529.891,7.059,7.059,0,0,1,1.16,1.15,6.3,6.3,0,0,1,.761,1.3,5.377,5.377,0,0,1,.366,2.756,6.038,6.038,0,0,1-.38,1.387c-.079.177-.165.351-.259.519" transform="translate(-116.924 -15.131)" fill="#e68d0c"/>
        <path id="Path_895778" data-name="Path 895778" d="M246.748,62.236q-1.844,0-3.685.007c-1.25,0-2.5,0-3.748.022-.559.009-1.116.014-1.675.02s-1.117.022-1.676.031q-1.895.028-3.793.061c-.6.01-1.2.02-1.8.034-.52.012-1.039.031-1.559.047-.437.014-.877.02-1.316.029-.57.012-1.14,0-1.709,0a.108.108,0,0,0,0,.216c.569,0,1.14-.007,1.709,0,.459.008.917.015,1.375.03.556.018,1.112.037,1.667.049.622.015,1.243.025,1.865.036,1.263.022,2.527.037,3.79.059q1.655.028,3.307.051c1.266.015,2.533.017,3.8.019q1.827.005,3.655.009,1.855,0,3.713-.007c1.135,0,2.27,0,3.406-.015,1.172-.011,2.344-.005,3.517-.005,1.129,0,2.261.009,3.391.015.986.007,1.972,0,2.957-.011.412-.005.823-.005,1.235-.019.466-.017.932-.015,1.4-.012.49,0,.98.01,1.47.012.1,0,.2,0,.307,0,.034,0,.069,0,.1,0s.082,0,.122,0l.066.006-.012,0c.029,0,.057,0,.087.006a.311.311,0,0,0,.228-.095.323.323,0,0,0,0-.456.315.315,0,0,0-.228-.095c-.043.006-.083,0-.127.009a1.042,1.042,0,0,1-.131,0c-.036,0-.072,0-.109,0-.108-.005-.216,0-.324,0-.533,0-1.066.012-1.6.012-.221,0-.441,0-.662,0-.252,0-.5-.012-.755-.02-.414-.012-.828-.009-1.241-.015q-1.485-.023-2.973-.009c-1.127.007-2.255.014-3.383.014-1.185,0-2.367,0-3.549-.007-1.142-.01-2.283-.012-3.422-.014q-1.513,0-3.024-.005h-.679" transform="translate(-122.945 -33.904)" fill="#fba92d"/>
        <path id="Path_895779" data-name="Path 895779" d="M278.907,32.01q.341.1.671.24l0,0,.01,0,.022.009-.006,0a8.069,8.069,0,0,1,1.661.973l-.008-.005a10.063,10.063,0,0,1,1.719,1.713,11.313,11.313,0,0,1,.766,1.136,11.791,11.791,0,0,1,.647,1.313,13.27,13.27,0,0,1,.849,3.108,12.008,12.008,0,0,1,.1,1.551,13.09,13.09,0,0,1-.122,1.625c0,.021-.006.043-.009.064a.6.6,0,0,0,.441.578.6.6,0,0,0,.737-.418,8.871,8.871,0,0,0,.126-2.936,11.117,11.117,0,0,0-.293-1.525,10.448,10.448,0,0,0-.516-1.454,12.581,12.581,0,0,0-.667-1.3,10.844,10.844,0,0,0-.858-1.235,12.409,12.409,0,0,0-.954-1.1,11.083,11.083,0,0,0-1.084-.958,10.137,10.137,0,0,0-1.491-.95,9.314,9.314,0,0,0-1.671-.681.14.14,0,0,0-.039-.006.131.131,0,0,0-.029.254m5.436,5.278c0,.014.011.027.017.041-.006-.014-.012-.027-.017-.041M279.6,32.26l-.015-.007-.006,0,.022.01" transform="translate(-151.891 -17.3)" fill="#fba92d"/>
        <path id="Path_895780" data-name="Path 895780" d="M297.582,48.451a.109.109,0,0,0-.074.134c.049.157.095.315.133.476.044.184.073.375.1.563l0-.036a8.672,8.672,0,0,1,.064,1.37,14.3,14.3,0,0,1-.135,1.468.266.266,0,0,0,.081.2.277.277,0,0,0,.2.081.271.271,0,0,0,.2-.081.282.282,0,0,0,.081-.2,10.193,10.193,0,0,0-.049-1.954,9.868,9.868,0,0,0-.452-1.944.114.114,0,0,0-.107-.08.116.116,0,0,0-.027,0" transform="translate(-162.07 -26.392)" fill="#fba92d"/>
        <path id="Path_895781" data-name="Path 895781" d="M314.737,66.7a.231.231,0,0,0-.082.315,5.16,5.16,0,0,1,.455.828,7.037,7.037,0,0,1,.442,1.655,10.228,10.228,0,0,1,0,2.525,12.553,12.553,0,0,1-.761,2.79.516.516,0,0,0,.054.41.543.543,0,0,0,.319.247.549.549,0,0,0,.412-.054c.036-.029.072-.056.108-.084a.536.536,0,0,0,.137-.235,8.383,8.383,0,0,0,.512-2.081,11.117,11.117,0,0,0,.071-2.166,8.179,8.179,0,0,0-1.35-4.066.248.248,0,0,0-.2-.114.22.22,0,0,0-.113.032" transform="translate(-171.396 -36.319)" fill="#fba92d"/>
        <path id="Path_895782" data-name="Path 895782" d="M182.779,131.8H172.384a2.538,2.538,0,0,0-2.5,2.5V144.7a2.538,2.538,0,0,0,2.5,2.5h10.394a2.538,2.538,0,0,0,2.5-2.5V134.306a2.538,2.538,0,0,0-2.5-2.5" transform="translate(-92.545 -71.802)" fill="#ffbf6c"/>
        <path id="Path_895783" data-name="Path 895783" d="M182.779,179.294H172.384a2.538,2.538,0,0,0-2.5,2.5v10.394a2.538,2.538,0,0,0,2.5,2.5h10.394a2.538,2.538,0,0,0,2.5-2.5V181.8a2.538,2.538,0,0,0-2.5-2.5" transform="translate(-92.545 -97.674)" fill="#ffbf6c"/>
        <path id="Path_895784" data-name="Path 895784" d="M182.779,226.786H172.384a2.538,2.538,0,0,0-2.5,2.5v10.395a2.538,2.538,0,0,0,2.5,2.5h10.394a2.538,2.538,0,0,0,2.5-2.5V229.29a2.538,2.538,0,0,0-2.5-2.5" transform="translate(-92.545 -123.546)" fill="#ffbf6c"/>
        <path id="Path_895785" data-name="Path 895785" d="M182.779,274.278H172.384a2.538,2.538,0,0,0-2.5,2.5v10.394a2.538,2.538,0,0,0,2.5,2.5h10.394a2.538,2.538,0,0,0,2.5-2.5V276.782a2.538,2.538,0,0,0-2.5-2.5" transform="translate(-92.545 -149.418)" fill="#ffbf6c"/>
        <path id="Path_895786" data-name="Path 895786" d="M187.165,172.811h0a.62.62,0,0,0-.311.088.764.764,0,0,0-.336.33c-.056.1-.113.2-.171.294l-.115.2-.314.549-.806,1.4-.492.853-1.346,2.343-.156.269-.159.277q-1.723,3-3.428,6c-.257.454-.512.912-.765,1.368l-.255.456-.51.913-.2-.367-.025-.041c-.068-.117-.109-.186-.152-.254l-.415-.679-.259-.418-.289-.473-.2-.332q-.488-.793-.973-1.58l-.323-.523-.029-.047-.113-.183c-.74-1.2-1.578-2.564-2.352-3.9a.242.242,0,0,0-.218-.125.228.228,0,0,0-.126.036.251.251,0,0,0-.089.342c.467.814.914,1.61,1.326,2.366l.432.8.216.4q.322.6.648,1.2c.244.448.485.894.727,1.342.2.373.4.748.606,1.12l.409.757.2.378.112.2.056.1.056.1c.049.085.1.171.141.257a.434.434,0,0,0,.078.293l.159.282.16.282a.553.553,0,0,0,.492.282.568.568,0,0,0,.5-.282c.38-.656.768-1.3,1.159-1.954.268-.448.537-.9.8-1.348l.064-.108.256-.434.084-.142q.753-1.284,1.5-2.566,1.88-3.238,3.751-6.466.425-.737.853-1.475l.272-.468.157-.274.087-.15.086-.152.058-.1a.687.687,0,0,0,.1-.416.631.631,0,0,0-.622-.624" transform="translate(-93.812 -94.142)" fill="#f58800"/>
        <path id="Path_895787" data-name="Path 895787" d="M187.165,220.3h0a.62.62,0,0,0-.311.088.764.764,0,0,0-.336.33c-.056.1-.113.2-.171.294l-.115.2-.314.549-.806,1.4-.492.853-1.346,2.343-.156.269-.159.277q-1.723,3-3.428,6c-.257.454-.512.912-.765,1.368l-.255.456-.51.913-.2-.367-.025-.04c-.068-.118-.109-.187-.152-.254l-.415-.679-.259-.418-.289-.473-.2-.332q-.488-.793-.973-1.58l-.323-.524-.029-.047-.113-.183c-.74-1.2-1.578-2.564-2.352-3.9a.242.242,0,0,0-.218-.125.225.225,0,0,0-.126.036.251.251,0,0,0-.089.342c.467.814.914,1.61,1.326,2.366l.432.8.216.4q.322.6.648,1.2c.244.448.485.894.727,1.341.2.373.4.748.606,1.12l.409.757.2.378.112.2.056.1.056.1c.049.085.1.171.141.257a.435.435,0,0,0,.078.293l.159.282.16.282a.553.553,0,0,0,.492.282.568.568,0,0,0,.5-.282c.38-.656.768-1.3,1.159-1.954.268-.448.537-.9.8-1.348l.064-.108.256-.434.084-.142q.753-1.284,1.5-2.566,1.88-3.238,3.751-6.466.425-.737.853-1.474l.272-.468.157-.274.087-.15.086-.152.058-.1a.687.687,0,0,0,.1-.416.631.631,0,0,0-.622-.624" transform="translate(-93.812 -120.014)" fill="#f58800"/>
        <line id="Line_3283" data-name="Line 3283" x2="29.187" transform="translate(99.213 64.679)" fill="none" stroke="#89afae" stroke-linecap="round" stroke-miterlimit="10" stroke-width="1.9"/>
        <line id="Line_3284" data-name="Line 3284" x2="63.975" transform="translate(99.213 69.003)" fill="none" stroke="#89afae" stroke-linecap="round" stroke-miterlimit="10" stroke-width="1.9"/>
        <line id="Line_3285" data-name="Line 3285" x2="63.975" transform="translate(99.213 73.327)" fill="none" stroke="#89afae" stroke-linecap="round" stroke-miterlimit="10" stroke-width="1.9"/>
        <line id="Line_3286" data-name="Line 3286" x2="29.187" transform="translate(99.213 86.299)" fill="none" stroke="#89afae" stroke-linecap="round" stroke-miterlimit="10" stroke-width="1.9"/>
        <line id="Line_3287" data-name="Line 3287" x2="63.975" transform="translate(99.213 90.623)" fill="none" stroke="#89afae" stroke-linecap="round" stroke-miterlimit="10" stroke-width="1.9"/>
        <line id="Line_3288" data-name="Line 3288" x2="63.975" transform="translate(99.213 94.947)" fill="none" stroke="#89afae" stroke-linecap="round" stroke-miterlimit="10" stroke-width="1.9"/>
        <line id="Line_3289" data-name="Line 3289" x2="29.187" transform="translate(99.213 107.919)" fill="none" stroke="#89afae" stroke-linecap="round" stroke-miterlimit="10" stroke-width="1.9"/>
        <line id="Line_3290" data-name="Line 3290" x2="63.975" transform="translate(99.213 112.243)" fill="none" stroke="#89afae" stroke-linecap="round" stroke-miterlimit="10" stroke-width="1.9"/>
        <line id="Line_3291" data-name="Line 3291" x2="63.975" transform="translate(99.213 116.567)" fill="none" stroke="#89afae" stroke-linecap="round" stroke-miterlimit="10" stroke-width="1.9"/>
        <line id="Line_3292" data-name="Line 3292" x2="29.187" transform="translate(99.213 129.538)" fill="none" stroke="#89afae" stroke-linecap="round" stroke-miterlimit="10" stroke-width="1.9"/>
        <line id="Line_3293" data-name="Line 3293" x2="63.975" transform="translate(99.213 133.862)" fill="none" stroke="#89afae" stroke-linecap="round" stroke-miterlimit="10" stroke-width="1.9"/>
        <line id="Line_3294" data-name="Line 3294" x2="63.975" transform="translate(99.213 138.186)" fill="none" stroke="#89afae" stroke-linecap="round" stroke-miterlimit="10" stroke-width="1.9"/>
        <path id="Path_895788" data-name="Path 895788" d="M348.066,341.032c-.049,0-.1,0-.149,0a2.059,2.059,0,0,0-.778.22,3.618,3.618,0,0,0-1.314,1.227,9.066,9.066,0,0,0-.965,1.895,16.983,16.983,0,0,0-.664,2.166,19.107,19.107,0,0,0-.37,1.968,8.666,8.666,0,0,0-.094,1.373c-.279-.049-.562-.1-.845-.143-.559-.091-1.118-.169-1.677-.242a14.754,14.754,0,0,0-1.808-.14,6.842,6.842,0,0,0-1.024.072,3.844,3.844,0,0,0-1.319.435,2.575,2.575,0,0,0-.983,1.015,2.334,2.334,0,0,0-.266,1.388,2.744,2.744,0,0,0,.519,1.29,3.075,3.075,0,0,0,.832.786l-.083.028a2.687,2.687,0,0,0-.861.608,2.648,2.648,0,0,0-.519.82,3.138,3.138,0,0,0-.216,1,3.03,3.03,0,0,0,.508,1.859,2.75,2.75,0,0,0,.743.734,2.417,2.417,0,0,0,.315.183.442.442,0,0,0-.118.1,1.1,1.1,0,0,0-.13.226c-.016.035-.032.068-.05.1-.054.1-.113.193-.174.288l-.1.15a4.087,4.087,0,0,0-.221.357,1.335,1.335,0,0,0-.152.552,1.647,1.647,0,0,0,.13.684,3.37,3.37,0,0,0,.83,1.238,5.475,5.475,0,0,0,1.187.825,9.994,9.994,0,0,0,1.357.593,17.366,17.366,0,0,0,3.159.824,19.53,19.53,0,0,0,3.127.232,45.51,45.51,0,0,0,4.957-.344.329.329,0,0,0,0-.657l-.127.012-.1.01a5.865,5.865,0,0,0,.774-.749,8.327,8.327,0,0,0,.965-1.4,13.192,13.192,0,0,0,1.186-3.173c.659-2.57.55-4.7-.321-6.327a6.22,6.22,0,0,0-.451-.721,6.58,6.58,0,0,0-.624-.717c-.127-.128-.259-.25-.391-.372l-.208-.2c-.166-.158-.331-.321-.492-.488a4.479,4.479,0,0,1-.638-.837,3.64,3.64,0,0,1-.3-.788,6.644,6.644,0,0,1-.14-.883,7.053,7.053,0,0,1-.039-.854l-.01.039c.019-.321.052-.645.084-.958l.028-.274c.032-.308.063-.616.088-.925.039-.466.056-.885.051-1.279a5.277,5.277,0,0,0-.125-1.138,2.622,2.622,0,0,0-.423-.98,1.678,1.678,0,0,0-.813-.591,2.345,2.345,0,0,0-.755-.129" transform="translate(-182.756 -185.784)" fill="#f6cfbe"/>
        <path id="Path_895789" data-name="Path 895789" d="M339.845,370.369a.111.111,0,0,0,.091.123c.785.211,1.575.412,2.373.566a12.694,12.694,0,0,0,2.394.243.2.2,0,0,0,.14-.076.21.21,0,0,0-.029-.3.223.223,0,0,0-.159-.047c-.246,0-.493,0-.74,0h.033a16.319,16.319,0,0,1-1.992-.175,18.636,18.636,0,0,1-1.988-.424l-.02,0a.114.114,0,0,0-.1.092" transform="translate(-185.136 -201.715)" fill="#da8c67"/>
        <path id="Path_895790" data-name="Path 895790" d="M339.5,381.389a.109.109,0,0,0,.056.145c.338.115.681.221,1.026.321s.716.183,1.078.257a7.346,7.346,0,0,0,2.2.152.273.273,0,0,0,.24-.3.277.277,0,0,0-.1-.181.292.292,0,0,0-.2-.059c-.555,0-1.111.036-1.667.027h.006a9.029,9.029,0,0,1-1.05-.082,8.572,8.572,0,0,1-1.149-.243c-.1-.03-.2-.062-.294-.094a.138.138,0,0,0-.046-.008.1.1,0,0,0-.1.064" transform="translate(-184.946 -207.734)" fill="#da8c67"/>
        <path id="Path_895791" data-name="Path 895791" d="M414.189,242.9a.323.323,0,0,0-.128.209.31.31,0,0,0,.061.25l.049.049h0a73.145,73.145,0,0,1,1.316,7.9l0,.047a44.573,44.573,0,0,1,.2,6.449c-.051,1.111-.154,2.25-.309,3.383-.143,1.052-.314,2.1-.476,3.083l.016-.041.008-.044a133.728,133.728,0,0,1-4.739,19.247,116.636,116.636,0,0,1-4.846,12.413c-.277.6-.569,1.221-.871,1.841-1.274-.274-2.628-.493-4.02-.654-1.284-.145-2.614-.241-4.068-.292-.677-.024-1.4-.035-2.268-.035-.64,0-1.281.007-1.924.015-5.58.066-11.247.405-16.726.733l-.485.029c-2.045.122-4.054.244-6.065.348q.063.507.106,1.017.1,1.183.108,2.373a32.252,32.252,0,0,1-.138,3.282,29.5,29.5,0,0,1-.477,3.241,22.227,22.227,0,0,1-.853,3.072c-.184.506-.389,1-.62,1.49.514.227,1.037.44,1.561.645l-.012,0c.255.1.512.2.767.3a81.219,81.219,0,0,0,11.811,2.926c2.128.376,4.4.714,7.16,1.062,1.939.245,3.991.482,6.273.72a89.883,89.883,0,0,0,9.231.566c.693,0,1.378-.014,2.04-.039a30.611,30.611,0,0,0,10.923-2.184,19.461,19.461,0,0,0,4.687-2.809,25.621,25.621,0,0,0,2.007-1.845c.613-.615,1.219-1.281,1.853-2.038a39.922,39.922,0,0,0,5.8-9.584,54.893,54.893,0,0,0,3.414-10.936,60.917,60.917,0,0,0,1.226-11.014c.02-.983.012-1.937-.029-2.833-.04-.951-.12-1.929-.244-2.991a42.04,42.04,0,0,0-1.159-5.989,33.462,33.462,0,0,0-5.1-10.992c-.455-.625-.931-1.221-1.417-1.772a19.553,19.553,0,0,0-1.588-1.588,35.089,35.089,0,0,0-3.712-2.834c-.471-.323-.944-.638-1.417-.956-.812-.544-1.65-1.107-2.459-1.684a26.746,26.746,0,0,1-3.574-3l.034.046c-.1-.121-.232-.254-.356-.391a.312.312,0,0,0-.113-.125.354.354,0,0,0-.21-.128.312.312,0,0,0-.051,0,.325.325,0,0,0-.2.066" transform="translate(-199.95 -132.286)" fill="#634419"/>
        <path id="Path_895792" data-name="Path 895792" d="M371,367.06l0,0,0-.043c0,.014,0,.027,0,.04" transform="translate(-202.108 -199.94)" fill="#021621"/>
        <path id="Path_895793" data-name="Path 895793" d="M391.235,360.73q-1.915.043-3.831.113c-.677.025-1.356.046-2.035.072q-1.07.046-2.139.108c-2.083.116-4.162.279-6.243.424q-1.584.111-3.167.2-.773.043-1.542.079c-.257.012-.512.024-.768.024-.056,0-.11,0-.166,0-.09,0-.182,0-.273,0,.031.234.061.468.086.7l.061,0c.169-.008.34-.02.51-.028.37-.015.742-.019,1.111-.029.714-.022,1.427-.054,2.14-.09q2.138-.106,4.275-.255c2.807-.191,5.611-.416,8.42-.574,2.56-.145,5.123-.262,7.688-.272a60.249,60.249,0,0,1,7.651.414q1.341.165,2.669.416h-.007q.38.07.76.152c.207.039.411.083.615.132.09.02.179.044.269.067a30.984,30.984,0,0,1,6.29,2.2.137.137,0,0,0,.174-.086.14.14,0,0,0-.086-.173,31.706,31.706,0,0,0-3.569-1.461,35.554,35.554,0,0,0-3.67-1.027,47.237,47.237,0,0,0-7.535-1.01c-1.615-.1-3.233-.137-4.851-.137q-1.419,0-2.837.036" transform="translate(-202.148 -196.495)" fill="#04293e"/>
        <path id="Path_895794" data-name="Path 895794" d="M458.507,297.9c-.034.513-.088,1.023-.155,1.532l0-.035a42.755,42.755,0,0,1-1.944,7.713c-.42,1.258-.856,2.511-1.292,3.767s-.855,2.533-1.292,3.8q-.771,2.222-1.608,4.422c-.568,1.491-1.17,2.969-1.794,4.439v0c-.29.687-.585,1.372-.91,2.044-.172.351-.35.7-.522,1.052-.086.177-.169.356-.247.535a1.511,1.511,0,0,0-.184.7.186.186,0,0,0,0,.029c.235.044.468.091.7.147l.024.006a.876.876,0,0,0,.09-.111,2.555,2.555,0,0,0,.174-.285c.122-.222.225-.453.328-.682.211-.473.405-.953.608-1.429l-.046.107c.277-.651.564-1.3.834-1.956s.523-1.294.772-1.947c.5-1.306.966-2.623,1.418-3.947s.873-2.655,1.285-3.989c.194-.632.385-1.266.583-1.9s.4-1.243.593-1.863c.645-2.01,1.282-4.025,1.8-6.071a34.24,34.24,0,0,0,1.046-6.067.135.135,0,0,0-.27,0" transform="translate(-244.362 -162.215)" fill="#04293e"/>
        <path id="Path_895795" data-name="Path 895795" d="M452.685,354.215c.01-.026.021-.049.03-.073-.011.024-.021.049-.03.073" transform="translate(-246.608 -192.925)" fill="#04293e"/>
        <path id="Path_895796" data-name="Path 895796" d="M452.658,354.332c0-.01.008-.02.012-.03a.194.194,0,0,0-.012.03" transform="translate(-246.594 -193.013)" fill="#04293e"/>
        <path id="Path_895797" data-name="Path 895797" d="M27.277,98.2a13.179,13.179,0,0,0-3.432.467,17.037,17.037,0,0,0-5.5,2.691,19.474,19.474,0,0,0-4.369,4.373,17.157,17.157,0,0,0-1.539,2.563,14.717,14.717,0,0,0-1.015,2.71A16.129,16.129,0,0,0,11,113.376a17.313,17.313,0,0,0-.081,2.463,13.321,13.321,0,0,0,1.034,4.868,8.861,8.861,0,0,0,.875,1.536,7.008,7.008,0,0,0,1.212,1.3,5.934,5.934,0,0,0,1.068.717,4.455,4.455,0,0,0-.341.619,4.4,4.4,0,0,0-.343,1.22,4.686,4.686,0,0,0,0,1.245,5.126,5.126,0,0,0,.311,1.22A6.345,6.345,0,0,0,15.3,129.7a7.427,7.427,0,0,0,1.8,1.956,6.924,6.924,0,0,0,2.388,1.181c.468.127.95.214,1.4.293s.935.139,1.424.186c.665.064,1.355.1,2.051.1A26.119,26.119,0,0,0,28.3,133.1a30.852,30.852,0,0,0,11.578-4.374,25.225,25.225,0,0,0,4.652-3.76,20.362,20.362,0,0,0,1.834-2.195,12.527,12.527,0,0,0,1.032-1.725,15.777,15.777,0,0,0,1.4-4.134,10.587,10.587,0,0,0,.056-4.21,5.984,5.984,0,0,0-.617-1.675,4.6,4.6,0,0,0-2.876-2.222,6.977,6.977,0,0,0-1.887-.242,5.308,5.308,0,0,0,.266-1.849,4.23,4.23,0,0,0-.534-1.9,4.951,4.951,0,0,0-2.994-2.212,6.332,6.332,0,0,0-3.764.111,5.9,5.9,0,0,0-.711.3,7.778,7.778,0,0,0-.975-1.6,7.57,7.57,0,0,0-2.145-1.849,9.784,9.784,0,0,0-2.851-1.088,11.5,11.5,0,0,0-2.5-.269" transform="translate(-5.943 -53.498)" fill="#021621"/>
        <path id="Path_895798" data-name="Path 895798" d="M26.572,104.365A12.807,12.807,0,0,0,23,106.886a18.906,18.906,0,0,0-1.675,1.838,21.4,21.4,0,0,0-1.53,2.152,18.644,18.644,0,0,0-1.2,2.265,14.878,14.878,0,0,0-.843,2.38,11.431,11.431,0,0,0-.346,2.393,8.4,8.4,0,0,0,.229,2.3,6.747,6.747,0,0,0,1.15,2.441,6.864,6.864,0,0,0,1.028,1.1,7.937,7.937,0,0,0,.664.5c.223.152.456.279.688.416a.443.443,0,0,0,.447-.765,6.988,6.988,0,0,1-.679-.473,8.283,8.283,0,0,1-1.371-1.346,6.764,6.764,0,0,1-.814-1.388A7.252,7.252,0,0,1,18.284,119a9.268,9.268,0,0,1,.01-2.26,14.456,14.456,0,0,1,1.021-3.623c-.01.027-.022.052-.032.08a18.87,18.87,0,0,1,2.42-4.117l-.04.054a17.537,17.537,0,0,1,3.052-3.111,10.428,10.428,0,0,1,2.079-1.275.221.221,0,0,0,.079-.3.206.206,0,0,0-.183-.1.284.284,0,0,0-.117.026" transform="translate(-9.477 -56.841)" fill="#04293e"/>
        <path id="Path_895799" data-name="Path 895799" d="M26.721,131.4a6.041,6.041,0,0,0-.159,1.909,5.893,5.893,0,0,0,.456,1.861,5.634,5.634,0,0,0,.431.811,4.354,4.354,0,0,0,.641.767,3.835,3.835,0,0,0,1.782.969.452.452,0,1,0,.24-.871,5.066,5.066,0,0,1-.711-.223,3.881,3.881,0,0,1-1.6-1.219,4.555,4.555,0,0,1-.544-.929,5.2,5.2,0,0,1-.337-1.228v0c0-.013,0-.027-.006-.041a.156.156,0,0,1,0,.022,5.125,5.125,0,0,1,.011-1.3l0,.009c.023-.153.054-.305.092-.457a.155.155,0,0,0-.107-.186.143.143,0,0,0-.039-.005.153.153,0,0,0-.148.11m.508,3.022.01.025-.01-.025m.52.924c.016.018.032.038.047.058l-.047-.058m-.834-2.1h0c0-.006,0-.013,0-.02s0,.013,0,.019" transform="translate(-14.461 -71.522)" fill="#04293e"/>
        <path id="Path_895800" data-name="Path 895800" d="M74.006,133.076c-.095,0-.188,0-.28,0a28.746,28.746,0,0,0-6.731,1.2l-.364.1a37.448,37.448,0,0,1-6.8,1.353h.007c-.514.033-1.041.049-1.608.049-.79,0-1.633-.031-2.655-.1-.559-.037-1.116-.08-1.674-.124-.842-.066-1.712-.133-2.569-.175-.559-.028-1.069-.042-1.563-.042a20.619,20.619,0,0,0-2.567.148,13.041,13.041,0,0,0-3.995,1.155,12.431,12.431,0,0,0-1.936,1.164,16.44,16.44,0,0,0-1.717,1.453,23.05,23.05,0,0,0-2.71,3.065,23.836,23.836,0,0,0-3.555,7.079,27.822,27.822,0,0,0-1.223,7.845,32.08,32.08,0,0,0,.905,8.016,29.713,29.713,0,0,0,1.193,3.838,24.512,24.512,0,0,0,1.667,3.443,23.338,23.338,0,0,0,4.59,5.631,24.6,24.6,0,0,0,2.83,2.181,25.672,25.672,0,0,0,3.129,1.739,27.173,27.173,0,0,0,6.923,2.141,29.554,29.554,0,0,0,5.031.424,32.894,32.894,0,0,0,5.407-.457.33.33,0,0,0,.264-.344c1.064-.61,2.195-1.144,3.288-1.661,1.112-.526,2.261-1.07,3.346-1.7a23.441,23.441,0,0,0,5.509-4.591,69.412,69.412,0,0,0,6.078-8.123c.731-1.084,1.488-2.206,2.255-3.289q.391-.552.787-1.1a44.418,44.418,0,0,0,3.38-5.208A16.1,16.1,0,0,0,90,154.8a12.208,12.208,0,0,0,.412-3.121,10.576,10.576,0,0,0-1.592-5.6,11.673,11.673,0,0,0-4.4-4.035A5.493,5.493,0,0,0,84.609,141a5.156,5.156,0,0,0-.21-1.914,6.238,6.238,0,0,0-.845-1.733,7.614,7.614,0,0,0-1.342-1.47,9.529,9.529,0,0,0-1.813-1.2,14.893,14.893,0,0,0-2.291-.978,13.183,13.183,0,0,0-4.1-.632" transform="translate(-17.467 -72.496)" fill="#021621"/>
        <path id="Path_895801" data-name="Path 895801" d="M46.175,137.651a13.045,13.045,0,0,0-3.112,1.186,12.58,12.58,0,0,0-1.488.941,16.431,16.431,0,0,0-1.405,1.158,22.625,22.625,0,0,0-4.359,5.468c-.355.616-.678,1.251-.975,1.9a24.069,24.069,0,0,0-.905,2.248c-.132.38-.25.765-.365,1.15s-.213.777-.309,1.169-.172.785-.245,1.18-.133.8-.192,1.2a.108.108,0,0,0,.1.112.109.109,0,0,0,.112-.1c0-.02.007-.04.01-.061l0,.012a14.165,14.165,0,0,1,.307-1.393c.125-.464.267-.927.424-1.382s.322-.914.5-1.363.384-.913.585-1.365l-.014.031.028-.062,0-.006v0c.247-.547.512-1.087.783-1.623s.548-1.044.841-1.556a23.286,23.286,0,0,1,1.958-2.878c-.017.022-.034.042-.049.063a18.656,18.656,0,0,1,3.462-3.352,14.214,14.214,0,0,1,1.43-.9,12.7,12.7,0,0,1,1.513-.7,14.994,14.994,0,0,1,3.832-.856l-.078.009a22.063,22.063,0,0,1,3.127-.052c1.122.052,2.235.182,3.351.29.6.057,1.2.111,1.8.143s1.21.051,1.816.049a14.631,14.631,0,0,0,3.478-.392.108.108,0,1,0-.049-.21,10.444,10.444,0,0,1-1.5.252l.03,0a18.8,18.8,0,0,1-3.915-.12c-.649-.076-1.3-.16-1.942-.243-.617-.079-1.232-.159-1.85-.223a27.082,27.082,0,0,0-2.781-.154,16.939,16.939,0,0,0-3.955.432m-1.287,1.05-.066.025.066-.025M33.047,155.2c0-.005,0-.01,0-.017s0,.011,0,.017m1.831-5.522c0,.01-.009.021-.014.031l.015-.034v0" transform="translate(-17.879 -74.753)" fill="#04293e"/>
        <path id="Path_895802" data-name="Path 895802" d="M144.223,174.983a3.16,3.16,0,0,0-1.443.345,2.989,2.989,0,0,0-.854.665,3.434,3.434,0,0,0-.386.528.28.28,0,0,0-.194-.222.387.387,0,0,0-.1-.017.354.354,0,0,0-.321.233,10.2,10.2,0,0,0-.591,2.34,17.251,17.251,0,0,0-.184,2.263,13.627,13.627,0,0,0,.171,2.44,7.006,7.006,0,0,0,.7,2.15,3.527,3.527,0,0,0,1.41,1.473,3.305,3.305,0,0,0,1.118.356,2.411,2.411,0,0,0,.35.025,3.006,3.006,0,0,0,1.056-.2,4.637,4.637,0,0,0,2.133-1.814,7.645,7.645,0,0,0,1.129-2.567,9.685,9.685,0,0,0,.216-3.177,6.42,6.42,0,0,0-.987-2.958,4.244,4.244,0,0,0-2.19-1.7,3.4,3.4,0,0,0-1.03-.164" transform="translate(-76.345 -95.325)" fill="#c94e2b"/>
        <path id="Path_895803" data-name="Path 895803" d="M147.17,177.452h0v0l-.027,0a4.7,4.7,0,0,0-.771.154,3.346,3.346,0,0,0-.757.353,4.641,4.641,0,0,0-1.24,1.09,5.57,5.57,0,0,0-.838,1.5,5.741,5.741,0,0,0-.247.811,3.969,3.969,0,0,0-.088.789.458.458,0,0,0,.08.3.434.434,0,0,0,.282.164c.017,0,.036,0,.053,0a.43.43,0,0,0,.415-.366c.045-.268.114-.531.176-.763.007-.02.012-.039.017-.059a7.607,7.607,0,0,1,.745-1.765l-.07.09c.136-.2.262-.387.39-.559a4.637,4.637,0,0,1,.415-.482,3.157,3.157,0,0,1,.574-.432,3.353,3.353,0,0,1,.629-.266,2.23,2.23,0,0,1,.3-.052.246.246,0,0,0,.167-.1.259.259,0,0,0,.055-.19.263.263,0,0,0-.263-.225" transform="translate(-78.011 -96.67)" fill="#a54022"/>
        <path id="Path_895804" data-name="Path 895804" d="M90.627,146.386a15.611,15.611,0,0,0-1.968.137,21.665,21.665,0,0,0-5.465,1.568,32.051,32.051,0,0,0-4.894,2.586,25.013,25.013,0,0,0-2.341,1.663,20.235,20.235,0,0,0-2.411,2.33,17.878,17.878,0,0,0-3.4,5.694,15.468,15.468,0,0,0-.778,3.151,14.065,14.065,0,0,0-.056,3.269,15.007,15.007,0,0,0,.26,1.627l.066.323.039.184c.091.442.183.887.285,1.329a15.805,15.805,0,0,0,1.181,3.574.293.293,0,0,0,.046.071,4.922,4.922,0,0,0-1.132-.122c-.211,0-.434.012-.681.036a5.631,5.631,0,0,0-1.408.333,4.818,4.818,0,0,0-.637.294,4.742,4.742,0,0,0-.631.426,4.292,4.292,0,0,0-.976,1.119,3.77,3.77,0,0,0-.514,1.444,5.156,5.156,0,0,0,.583,2.992,8.138,8.138,0,0,0,.864,1.357,8.739,8.739,0,0,0,1.068,1.143,7.974,7.974,0,0,0,1.195.884,8.9,8.9,0,0,0,1.457.691,10.2,10.2,0,0,0,3.278.639c.1,0,.2,0,.306,0a8.3,8.3,0,0,0,2.944-.512c.041-.015.081-.031.12-.047.3.567.582,1.158.834,1.752l-.009-.087a21.8,21.8,0,0,1,1.386,5.192l.017-.086a19.04,19.04,0,0,1,0,4.631,13.607,13.607,0,0,1-.888,3.32l.056-.067a14.02,14.02,0,0,1-1.063,1.914.3.3,0,0,0-.22.144.335.335,0,0,0-.042.26.311.311,0,0,0,.145.2,32.542,32.542,0,0,0,5.71,2.82,16.3,16.3,0,0,0,5.557,1.085c.167,0,.333,0,.5-.01a10.629,10.629,0,0,0,2.972-.546,10.209,10.209,0,0,0,1.445-.616,11.213,11.213,0,0,0,1.389-.875,12.239,12.239,0,0,0,2.264-2.2,9.734,9.734,0,0,0,1.625-2.736,3.728,3.728,0,0,0,.255-1.632.407.407,0,0,0-.078-.225l.019-.036.017-.05a14.19,14.19,0,0,1-1.526-1.654,15.533,15.533,0,0,1-1.93-3.379A25.516,25.516,0,0,1,94.16,187.4a17.929,17.929,0,0,0,4.72-2.362,15.566,15.566,0,0,0,2.324-1.979,13.443,13.443,0,0,0,1.75-2.267,13.3,13.3,0,0,0,1.831-5.267c.6-4.515-.913-8.952-2.512-13.109-.137-.359-.277-.717-.417-1.075l-.123-.315-.163-.41-.018-.048-.037-.094c-.508-1.3-1.033-2.637-1.5-3.973A35.7,35.7,0,0,1,98.4,150.48a.307.307,0,0,0,.049-.152.355.355,0,0,0-.084-.244,9.693,9.693,0,0,0-2.033-2,8.691,8.691,0,0,0-2.361-1.19,10.587,10.587,0,0,0-3.349-.508" transform="translate(-35.507 -79.746)" fill="#db633c"/>
        <path id="Path_895805" data-name="Path 895805" d="M95.485,146.364a16.143,16.143,0,0,0-1.968.137,21.69,21.69,0,0,0-5.468,1.571,31.645,31.645,0,0,0-4.894,2.587,24.773,24.773,0,0,0-2.345,1.662,20.645,20.645,0,0,0-2.41,2.33,17.85,17.85,0,0,0-3.4,5.7,15.593,15.593,0,0,0-.782,3.154,14.06,14.06,0,0,0-.056,3.269,15.564,15.564,0,0,0,.26,1.63l.066.322.041.184.013.059c.065.314.13.628.2.941.25-.063.488-.132.727-.2,1.144-.342,2.254-.715,3.3-1.109a41.548,41.548,0,0,0,4.559-2.034A34.534,34.534,0,0,0,87.491,164a28.567,28.567,0,0,0,2.848-2.355c.452-.428.883-.865,1.282-1.3.36-.393.733-.826,1.14-1.322.672-.824,1.226-1.557,1.693-2.24a18.1,18.1,0,0,0,1.458-2.523,10.005,10.005,0,0,0,.456-1.16,8.06,8.06,0,0,0,.271-1.075,6.307,6.307,0,0,0,.076-.639.1.1,0,0,1,.1-.094l.058-.007a19.076,19.076,0,0,1,4.468,1.576,27.308,27.308,0,0,1,2.863,1.62,34.119,34.119,0,0,1-.933-4.009.3.3,0,0,0,.049-.152.361.361,0,0,0-.087-.251,9.681,9.681,0,0,0-2.033-2,8.666,8.666,0,0,0-2.364-1.19,10.567,10.567,0,0,0-3.352-.512" transform="translate(-40.365 -79.734)" fill="#cb5c37"/>
        <path id="Path_895806" data-name="Path 895806" d="M102.943,235.4a.013.013,0,0,0-.008.008,16.749,16.749,0,0,0,1.952,1.549,18.374,18.374,0,0,0,4.276,2.137,15.646,15.646,0,0,0,1.9.522,13.849,13.849,0,0,0,1.872.255c.248.015.5.024.748.024s.473-.009.71-.024a10.855,10.855,0,0,0,1.4-.184l.044-.01a28.242,28.242,0,0,1-1.083-3.742c-.422.113-.829.211-1.216.289a17.615,17.615,0,0,1-3.479.346l-.148,0a21.392,21.392,0,0,1-3.676-.344,25.651,25.651,0,0,1-3.283-.822Z" transform="translate(-56.076 -128.236)" fill="#c94e2b"/>
        <path id="Path_895807" data-name="Path 895807" d="M71.267,211.151c-.168,0-.333.009-.5.02a5.916,5.916,0,0,0-1.359.25,3.818,3.818,0,0,0-1.156.571,2.264,2.264,0,0,0-.743.966.1.1,0,0,0,0,.081.126.126,0,0,0,.071.065h.009c.08,0,.118-.025.137-.074l.029-.062.027-.063a2.069,2.069,0,0,1,.246-.367,2.714,2.714,0,0,1,.42-.371,3.2,3.2,0,0,1,.6-.3,4.289,4.289,0,0,1,.965-.208q.217-.018.435-.019a5.112,5.112,0,0,1,.8.064c.106.02.214.044.322.067.051.014.1.027.15.042A6.054,6.054,0,0,0,72.8,215.3a6.217,6.217,0,0,0,1.255,1.327,6.442,6.442,0,0,0,1.688.949.2.2,0,0,0,.074.015.183.183,0,0,0,.17-.109.192.192,0,0,0,0-.149.164.164,0,0,0-.094-.1,5.318,5.318,0,0,1-.778-.382l.032.039a6.217,6.217,0,0,1-1.011-.835,5.388,5.388,0,0,1-.746-1.02,6.954,6.954,0,0,1-.373-.8,7.074,7.074,0,0,1-.273-.866c-.056-.232-.105-.485-.151-.773s-.069-.569-.094-.854l-.005-.064a.386.386,0,0,0-.164-.277.342.342,0,0,0-.293-.195,4.2,4.2,0,0,0-.6-.056c-.056,0-.112,0-.166,0" transform="translate(-36.773 -115.028)" fill="#c94e2b"/>
        <path id="Path_895808" data-name="Path 895808" d="M91.564,142.17a17.924,17.924,0,0,0-3.583.371,25.723,25.723,0,0,0-3.279.955c-1.022.357-2.013.746-2.946,1.157-4.562,2.014-7.833,4.66-9.724,7.866a14.335,14.335,0,0,0-1.4,3.274,16.173,16.173,0,0,0-.6,3.735,20.151,20.151,0,0,0,.2,3.793,25.164,25.164,0,0,0,.838,3.721c.166.546.359,1.107.575,1.667a19.639,19.639,0,0,0,.807,1.846,9.941,9.941,0,0,0,.492.879,5.667,5.667,0,0,0,.551.754,2.23,2.23,0,0,0,.584.491,1.258,1.258,0,0,0,.317.127,1.041,1.041,0,0,0,.241.028,1.235,1.235,0,0,0,.161-.011,1.118,1.118,0,0,0,.585-.319,2.69,2.69,0,0,0,.523-.823,6.825,6.825,0,0,0,.527-2.545,14.576,14.576,0,0,0-.192-3.025,11.638,11.638,0,0,0-.575-2.262,19.619,19.619,0,0,0,2.484-.891,28.669,28.669,0,0,0,5.02-2.826,32.613,32.613,0,0,0,4.622-3.874,25.382,25.382,0,0,0,3.619-4.544,14.55,14.55,0,0,0,1.965-4.807,38.175,38.175,0,0,1,5.127,1.954l.046.016,0,0a25.416,25.416,0,0,1,5.522,3.549l.156.136a.4.4,0,0,0,.252.13h0a.343.343,0,0,0,.233-.082.335.335,0,0,0,.11-.231.313.313,0,0,0-.083-.233l-.108-.095-.108-.095a.3.3,0,0,0,.089-.291,11.506,11.506,0,0,0-3.332-5.931,12.333,12.333,0,0,0-1.433-1.1,14.11,14.11,0,0,0-1.557-.905,14.435,14.435,0,0,0-3.3-1.184,15.418,15.418,0,0,0-3.413-.374" transform="translate(-38.137 -77.45)" fill="#021621"/>
        <path id="Path_895809" data-name="Path 895809" d="M96.315,153.134a20.787,20.787,0,0,1-2.1,3.224c.008-.012.017-.022.023-.032a29.606,29.606,0,0,1-5.517,5.349c-.485.359-.982.7-1.489,1.029-.537.348-1.074.692-1.628,1.013-.522.306-1.051.6-1.6.861s-1.106.51-1.672.738l.13-.051q-.7.278-1.422.5c-.482.15-.971.273-1.466.381a.584.584,0,0,0-.147,1.069.6.6,0,0,0,.443.061,16.808,16.808,0,0,0,3-1.012,22.344,22.344,0,0,0,2.908-1.547,24.8,24.8,0,0,0,2.821-2.035c.89-.745,1.754-1.52,2.574-2.341a33.168,33.168,0,0,0,3.02-3.475,25.238,25.238,0,0,0,2.309-3.63.108.108,0,0,0-.039-.147.114.114,0,0,0-.056-.015.1.1,0,0,0-.091.052" transform="translate(-43.113 -83.394)" fill="#04293e"/>
        <path id="Path_895810" data-name="Path 895810" d="M104.719,156.11c-.08.112-.163.224-.249.334a12.618,12.618,0,0,1-1.311,1.413,19.025,19.025,0,0,1-1.576,1.3l.011-.009c-.291.214-.591.415-.9.609s-.63.377-.951.554a.289.289,0,0,0-.11.386.285.285,0,0,0,.387.108c.451-.294.885-.611,1.312-.941.458-.351.905-.715,1.331-1.1a17.1,17.1,0,0,0,1.21-1.241,15.418,15.418,0,0,0,1.031-1.3.108.108,0,0,0-.039-.147.1.1,0,0,0-.053-.015.12.12,0,0,0-.1.054m-3.126,3.038.031-.023-.031.023" transform="translate(-54.26 -85.014)" fill="#04293e"/>
        <path id="Path_895811" data-name="Path 895811" d="M109.717,254.536c-.059.191-.127.378-.2.566a7.8,7.8,0,0,1-.951,1.6,8.147,8.147,0,0,1-.693.785,7.827,7.827,0,0,1-.719.63,11.213,11.213,0,0,1-2.4,1.373l.005,0a16.153,16.153,0,0,1-3.957,1.052,18.476,18.476,0,0,1-2.427.162,17.688,17.688,0,0,1-2.263-.145h0l-.049,0v0a14.408,14.408,0,0,1-3.342-.886,9.55,9.55,0,0,1-2.024-1.151c-.125-.1-.248-.2-.368-.3a.373.373,0,0,0-.125-.074,14.857,14.857,0,0,1-1.213,1.194,9.8,9.8,0,0,1-.78.62c-.075.051-.149.1-.223.149-.247.186-.51.365-.782.53a.328.328,0,0,0-.118.447.312.312,0,0,0,.162.139,28.768,28.768,0,0,0,2.578,2.5,14.716,14.716,0,0,0,2.551,1.728,14.265,14.265,0,0,0,4.469,1.443,16.485,16.485,0,0,0,2.552.2,16.085,16.085,0,0,0,6.788-1.481,12.093,12.093,0,0,0,3.681-2.626,10.04,10.04,0,0,0,2.287-3.912,10.714,10.714,0,0,0,.447-3.337.333.333,0,0,0-.145-.27.313.313,0,0,0-.091-.2.343.343,0,0,0-.233-.1c-.058,0-.113-.009-.171-.015a3.871,3.871,0,0,1-.843-.231,4.3,4.3,0,0,1-.789-.458.389.389,0,0,0-.034-.051q-.229-.024-.457-.056a.327.327,0,0,0-.116.173" transform="translate(-47.414 -138.569)" fill="#305a9a"/>
        <path id="Path_895812" data-name="Path 895812" d="M151.469,350.658a3.348,3.348,0,0,0-.709.086,6.021,6.021,0,0,0-2.384,1.138,14.588,14.588,0,0,0-2.011,1.952l-.356.4c-.479.541-.974,1.1-1.512,1.6l-.036.034a11.842,11.842,0,0,1-2.376,1.627l-.075.04.079-.033a17.928,17.928,0,0,1-4.358,1.5v0a24.344,24.344,0,0,1-2.859.414.329.329,0,0,0,.021.657,7.247,7.247,0,0,0-1.568,1.216A6.875,6.875,0,0,0,132.095,363a6.155,6.155,0,0,0-.6,1.917,5.179,5.179,0,0,0,.1,1.969,4.384,4.384,0,0,0,.883,1.724,6.877,6.877,0,0,0,4.79,2.107c.244.02.487.03.729.034-.593.128-1.185.261-1.778.393q-1.4.309-2.809.6a.307.307,0,0,0-.19.164.328.328,0,0,0-.017.251.333.333,0,0,0,.164.19.3.3,0,0,0,.137.032.579.579,0,0,0,.115-.015c3.175-.656,5.79-1.26,8.229-1.9l.122-.032c.517-.135,1.052-.275,1.571-.436.265-.081.53-.165.794-.25,1.909-.616,3.882-1.3,6.032-2.1,3.086-1.143,5.571-2.159,7.821-3.2,1.377-.636,2.48-1.195,3.471-1.757a15.356,15.356,0,0,0,2.492-1.68,3.584,3.584,0,0,0,1.19-1.564,1.321,1.321,0,0,0,0-.772,1.418,1.418,0,0,0-.356-.571,3.8,3.8,0,0,0,.406-.5,2.8,2.8,0,0,0,.429-.937,2.37,2.37,0,0,0,.053-.447,1.6,1.6,0,0,0-.048-.41,1.023,1.023,0,0,0-.356-.563,1.348,1.348,0,0,0-.639-.268,2.377,2.377,0,0,0-.4-.032,3.8,3.8,0,0,0-.389.022,6.5,6.5,0,0,0-.93.174,14.646,14.646,0,0,0-1.833.606,3.733,3.733,0,0,0,.484-.486,2.122,2.122,0,0,0,.4-.672,1.336,1.336,0,0,0,.076-.349,1.311,1.311,0,0,0-.042-.432,1.372,1.372,0,0,0-.456-.663,1.99,1.99,0,0,0-.352-.244,2.059,2.059,0,0,0-.41-.168,3.166,3.166,0,0,0-.878-.124c-.032,0-.066,0-.1,0a5.774,5.774,0,0,0-.886.08,13.3,13.3,0,0,0-2.318.614c-1.351.466-2.657,1.051-3.92,1.617l-.1.044c-.468.21-.936.419-1.408.621a10.086,10.086,0,0,0,.913-1.573,7.773,7.773,0,0,0,.363-.933,3.841,3.841,0,0,0,.174-.813,1.468,1.468,0,0,0-.46-1.353,1.443,1.443,0,0,0-.9-.263" transform="translate(-71.606 -191.027)" fill="#db633c"/>
        <path id="Path_895813" data-name="Path 895813" d="M193.343,367.414a10.168,10.168,0,0,1-1.025.871,14.109,14.109,0,0,1-1.3.85c-.461.265-.936.508-1.415.74-.967.464-1.959.876-2.959,1.267l.041-.016c-.8.312-1.608.611-2.409.925l.014,0-.015,0-.048.019.044-.017-.042.016-.061.024a.246.246,0,0,0-.122.276.249.249,0,0,0,.3.183c.184-.056.368-.11.55-.167.21-.066.417-.136.625-.2.408-.138.814-.289,1.216-.447a25.121,25.121,0,0,0,2.476-1.116,20.793,20.793,0,0,0,2.314-1.409,15.2,15.2,0,0,0,1.968-1.638.107.107,0,0,0-.075-.185.111.111,0,0,0-.076.03m-9.076,4.639,0,0h0l-.005,0" transform="translate(-100.257 -200.139)" fill="#c94e2b"/>
        <path id="Path_895814" data-name="Path 895814" d="M187.138,361.949q-.626.408-1.279.767c-.458.252-.924.485-1.392.715-.937.459-1.9.861-2.873,1.241l.084-.034-1.108.431c-.365.143-.731.282-1.091.439a.32.32,0,0,0-.115.11.311.311,0,0,0-.037.239.315.315,0,0,0,.378.229c.327-.088.65-.2.97-.316.349-.127.692-.265,1.033-.414.644-.277,1.272-.59,1.89-.92s1.228-.679,1.83-1.044c.313-.191.619-.392.926-.59s.616-.4.924-.6a.145.145,0,0,0,.056-.2.153.153,0,0,0-.13-.074.124.124,0,0,0-.066.019" transform="translate(-97.687 -197.168)" fill="#c94e2b"/>
        <path id="Path_895815" data-name="Path 895815" d="M56.646,263.7c-.055.056-.109.111-.165.165a8.987,8.987,0,0,1-.918.821c-.145.117-.292.23-.443.336-.186.129-.375.251-.571.363a30.416,30.416,0,0,1-3.135,1.589c-.524.242-1.048.482-1.564.737-.828.406-1.67.872-2.579,1.422-.808.49-1.617,1.032-2.4,1.615A26.8,26.8,0,0,0,40.6,274.7c-.7.809-1.348,1.686-1.884,2.439-.6.833-1.189,1.713-1.81,2.687a67.466,67.466,0,0,0-5.9,11.614c-.381.97-.755,2-1.109,3.049s-.681,2.125-.954,3.037c-.684,2.285-1.22,4.352-1.637,6.319a35.76,35.76,0,0,0-.685,12.9,20.2,20.2,0,0,0,1.277,4.635,15.438,15.438,0,0,0,7.269,7.879,23.6,23.6,0,0,0,7.062,2.306,38.484,38.484,0,0,0,6.717.54c.417,0,.836-.006,1.254-.015a65.669,65.669,0,0,0,8.166-.737c2.456-.365,4.949-.851,7.621-1.484,1.1-.26,2.237-.551,3.373-.86,1.748-.476,3.544-1,5.336-1.552a63.054,63.054,0,0,0,10.011-3.9.336.336,0,0,0,.184-.309.328.328,0,0,0,.054-.191,16.775,16.775,0,0,0-.409-3.084,20.433,20.433,0,0,0-.828-2.8,18.555,18.555,0,0,0-1.294-2.768,12.087,12.087,0,0,0-1.736-2.343,7.314,7.314,0,0,0-1.7-1.322.3.3,0,0,0-.145-.037.284.284,0,0,0-.069.006.249.249,0,0,0-.1-.018.363.363,0,0,0-.046,0,24.221,24.221,0,0,1-4.119.461c-1.289.057-2.652.093-4.289.113q-1.3.012-2.6.011-1.119,0-2.241,0c-.813,0-1.625-.007-2.435-.007q-.654,0-1.3,0c-1.417.006-2.858.035-4.251.062l-.753.016q-1.251.025-2.5.042c-.495,0-.99.012-1.483.012-.26,0-.522,0-.782-.005l-.732-.015c-.534-.012-1.067-.026-1.6-.026-.222,0-.442,0-.664.009a154.412,154.412,0,0,0,7.229-13.648c1.26-2.714,2.4-5.437,3.383-8.09.378-1.02.772-2.115,1.089-3.219.26-.907.483-1.849.662-2.8a26.635,26.635,0,0,0,.461-5.94,17.626,17.626,0,0,0-1.106-5.685,13.239,13.239,0,0,0-.914-1.9,11.936,11.936,0,0,0-1.223-1.713,11.412,11.412,0,0,0-3.261-2.608,9.354,9.354,0,0,0,1.854-1.525.359.359,0,0,0,.112-.23.322.322,0,0,0-.307-.346h-.02a.346.346,0,0,0-.176.048" transform="translate(-14.331 -143.628)" fill="#305a9a"/>
        <path id="Path_895816" data-name="Path 895816" d="M78.323,324.053a.125.125,0,0,0-.114.091c-.122.346-.25.693-.38,1.037a65.062,65.062,0,0,1-3.382,7.29c-.62,1.159-1.262,2.333-1.963,3.59q-.78,1.391-1.57,2.781l-.434.767c-.4.7-.792,1.4-1.179,2.112q-.287.524-.566,1.054c-.206.393-.376.721-.525,1.066a.387.387,0,0,0-.039.138c-.562.025-1.154.071-1.755.136a23.294,23.294,0,0,0-4.009.786l-.092.028-.066.02a.114.114,0,0,0-.084.14.117.117,0,0,0,.111.089A19.982,19.982,0,0,1,66,344.457c.821-.078,1.68-.117,2.626-.117,1.85,0,3.647.146,5.479.31,1.246.108,2.693.23,4.094.3.576.027,1.154.039,1.729.049L80.2,345l.229,0c.6.012,1.178.023,1.761.032q1.56.025,3.122.027c1.8,0,3.433-.033,5-.1,1.34-.059,2.709-.156,4.069-.289.654-.066,1.3-.143,1.976-.235.313-.043.624-.091.936-.142l.21-.036.252-.043.257-.052c.124-.026.21-.045.294-.06.052-.01.107-.019.159-.026a.363.363,0,0,0,.239-.173.371.371,0,0,0,.046-.29.367.367,0,0,0-.171-.236.352.352,0,0,0-.2-.056.5.5,0,0,0-.094.009c-.167.028-.337.048-.506.068-.131.015-.251.03-.369.045l-.056.009-.234.031c-.215.029-.43.058-.646.083-.607.076-1.211.142-1.819.2l.057.014.058,0c-2.476.227-5.05.358-8.1.4q-1.188.018-2.376.017c-.559,0-1.12,0-1.679-.006-1.326-.012-2.654-.029-3.979-.058-1-.02-2.022-.061-3.008-.1l-.254-.01c-1.563-.064-3.18-.13-4.789-.13h-.146q-.768,0-1.532.031c.264-.391.5-.815.737-1.225l.15-.266q.494-.874.973-1.757c.66-1.2,1.3-2.407,1.919-3.584.566-1.078,1.169-2.275,1.842-3.657.555-1.139,1.114-2.351,1.708-3.706.826-1.88,1.565-3.744,2.2-5.54a.091.091,0,0,0-.007-.08.132.132,0,0,0-.079-.062Z" transform="translate(-33.863 -176.534)" fill="#050c68"/>
        <path id="Path_895817" data-name="Path 895817" d="M103.487,368.239l-.343,0q.9.012,1.8.02c.559.005,1.12.007,1.679.007q1.188,0,2.377-.017l.323-.005-2.1,0q-1.218-.005-2.435-.007c-.436,0-.87,0-1.3,0" transform="translate(-56.19 -200.603)" fill="#2fc3b0"/>
        <path id="Path_895818" data-name="Path 895818" d="M26.316,372.808h0a27.135,27.135,0,0,0,.3,3.374,20.273,20.273,0,0,0,1.281,4.638A15.43,15.43,0,0,0,35.17,388.7a21.615,21.615,0,0,0,4.819,1.826q-.059-.813-.167-1.62c0,.006,0,.013,0,.019a23.935,23.935,0,0,0-.6-3,22.569,22.569,0,0,0-.966-2.821c0,.008.006.017.01.027a21.238,21.238,0,0,0-1.368-2.7c-.229-.378-.466-.753-.719-1.116-.187-.265-.377-.524-.574-.781h0l0,0h0a.065.065,0,0,1-.01-.013l0,.006-.005-.009h0a22.824,22.824,0,0,0-1.623-1.865,19.529,19.529,0,0,0-2-1.792,12.16,12.16,0,0,0-2.594-1.556l.027.01A7.755,7.755,0,0,0,28.5,373a6.979,6.979,0,0,0-.838-.177h.012a5.611,5.611,0,0,0-.694-.051,5.354,5.354,0,0,0-.662.04m1.327.007.017,0-.017,0" transform="translate(-14.336 -203.072)" fill="#050c68"/>
        <path id="Path_895819" data-name="Path 895819" d="M46.718,385.429l0,0,0,0h0" transform="translate(-25.45 -209.969)" fill="#34d9c4"/>
        <path id="Path_895820" data-name="Path 895820" d="M46.723,385.434v0h0l0,0" transform="translate(-25.453 -209.972)" fill="#34d9c4"/>
        <path id="Path_895821" data-name="Path 895821" d="M112.873,253.721c-.026.1-.056.2-.087.294a5.988,5.988,0,0,1-.673,1.311l.047-.068a8.943,8.943,0,0,1-1.4,1.576l.012-.01-.02.017-.043.038.031-.027a11.521,11.521,0,0,1-2.383,1.608l.01-.005a12.7,12.7,0,0,1-1.734.676,19.642,19.642,0,0,1-1.984.511c.027-.007.056-.011.085-.018a17.46,17.46,0,0,1-4.551.331l.064.005A12.982,12.982,0,0,1,96.9,259.3l.08.029a10.422,10.422,0,0,1-2.294-1.132,10.07,10.07,0,0,1-1.054-.832.324.324,0,0,0-.457.03.33.33,0,0,0,.031.458,10.064,10.064,0,0,0,2.62,1.712,11.915,11.915,0,0,0,3,.884,17.052,17.052,0,0,0,6.347-.258,18.71,18.71,0,0,0,2.581-.757,11.007,11.007,0,0,0,2.364-1.269,10.475,10.475,0,0,0,2.113-1.926,6.332,6.332,0,0,0,1.276-2.386.325.325,0,0,0-.251-.384.346.346,0,0,0-.067-.007.335.335,0,0,0-.317.259m-4.434,4.7-.046.022a.466.466,0,0,1,.046-.022m2.306-1.571.013-.011.008-.007-.02.018" transform="translate(-50.717 -138.078)" fill="#050c68"/>
        <path id="Path_895822" data-name="Path 895822" d="M99.535,194.8a.587.587,0,0,0-.209.037.982.982,0,0,0-.521.889,3.577,3.577,0,0,0,.234,1.591c.371,1.008,1.052,1.739,1.619,1.739a.561.561,0,0,0,.208-.037.709.709,0,0,0,.394-.4,2.931,2.931,0,0,0-.108-2.081c-.369-1.008-1.049-1.739-1.617-1.739" transform="translate(-53.817 -106.121)" fill="#021621"/>
        <path id="Path_895823" data-name="Path 895823" d="M133.651,184.471a.585.585,0,0,0-.2.036c-.571.21-.7,1.3-.281,2.433.364.987,1.032,1.705,1.589,1.705a.584.584,0,0,0,.2-.036.965.965,0,0,0,.512-.873,3.51,3.51,0,0,0-.23-1.561c-.364-.987-1.032-1.705-1.588-1.705" transform="translate(-72.412 -100.494)" fill="#021621"/>
        <path id="Path_895824" data-name="Path 895824" d="M125.132,163.282c-1.511,0-2.649.526-2.707,1.251a.894.894,0,0,0,.25.651,4.233,4.233,0,0,0,2.734,1.056q.256.018.5.019c1.51,0,2.648-.526,2.706-1.251.03-.393-.265-.787-.83-1.109a5.292,5.292,0,0,0-2.154-.6c-.171-.012-.339-.019-.5-.019" transform="translate(-66.692 -88.951)" fill="#021621"/>
        <path id="Path_895825" data-name="Path 895825" d="M118.192,178.043a.127.127,0,0,0-.108.19c.163.3.339.6.513.895l.024.039.056.1q.4.673.787,1.351a31.733,31.733,0,0,1,1.68,3.33,12.343,12.343,0,0,1,.932,3.156,5,5,0,0,1,.01,1.292,3.159,3.159,0,0,1-.189.684,2.564,2.564,0,0,1-.28.48,2.727,2.727,0,0,1-.4.4,2.82,2.82,0,0,1-.492.292,3.079,3.079,0,0,1-.665.18c-.111.012-.221.019-.332.024a.375.375,0,0,0-.264.641.385.385,0,0,0,.251.111,3.516,3.516,0,0,0,1.732-.585,3.248,3.248,0,0,0,.392-.316,2.622,2.622,0,0,0,.333-.4,2.737,2.737,0,0,0,.4-.843,3.8,3.8,0,0,0,.141-.967,5.766,5.766,0,0,0-.083-1.055,8.078,8.078,0,0,0-.262-1.093,16.421,16.421,0,0,0-.92-2.291c-.551-1.154-1.188-2.256-1.738-3.183-.191-.324-.387-.649-.581-.97l-.224-.371c-.2-.34-.407-.68-.6-1.027a.121.121,0,0,0-.108-.063" transform="translate(-64.319 -96.992)" fill="#c94e2b"/>
        <path id="Path_895826" data-name="Path 895826" d="M112.856,212.967h0v0a6.734,6.734,0,0,0,.119,2.492,4.393,4.393,0,0,0,1.121,2.134,2.915,2.915,0,0,0,1.022.638,2.817,2.817,0,0,0,.983.164c.107,0,.213-.005.318-.014a3.362,3.362,0,0,0,1.423-.456,3.675,3.675,0,0,0,1.047-.966,5.1,5.1,0,0,0,.733-1.431,7.48,7.48,0,0,0,.345-1.659c-.432.034-.89.073-1.352.088-.178.007-.356.01-.534.01a14.539,14.539,0,0,1-1.715-.1,11.917,11.917,0,0,1-3.5-.9l0,0" transform="translate(-61.443 -116.018)" fill="#021621"/>
        <path id="Path_895827" data-name="Path 895827" d="M113.714,217.611a4.717,4.717,0,0,0-.488.041l.027-.005c-.069.011-.138.024-.207.038.019.1.041.2.065.307a4.408,4.408,0,0,0,1.122,2.133,2.906,2.906,0,0,0,1.022.637,2.791,2.791,0,0,0,.983.165c.107,0,.213-.005.317-.013a3.348,3.348,0,0,0,1.422-.458,3.182,3.182,0,0,0,.678-.537,10.68,10.68,0,0,0-1.014-.842h0l-.023-.016h0a8.844,8.844,0,0,0-1.982-1.09,6.2,6.2,0,0,0-.718-.221,5.768,5.768,0,0,0-.679-.118l.027,0c-.153-.015-.305-.025-.458-.025h-.1" transform="translate(-61.584 -118.547)" fill="#f68677"/>
      </g>
    </g>
  </g>
</svg>
