<svg xmlns="http://www.w3.org/2000/svg" xmlns:xlink="http://www.w3.org/1999/xlink" width="178" height="178" viewBox="0 0 178 178">
  <defs>
    <clipPath id="clip-path">
      <rect id="Rectangle_407540" data-name="Rectangle 407540" width="96.643" height="102.601" fill="none"/>
    </clipPath>
    <clipPath id="clip-path-3">
      <rect id="Rectangle_407514" data-name="Rectangle 407514" width="74.154" height="84.7" fill="none"/>
    </clipPath>
    <clipPath id="clip-path-4">
      <rect id="Rectangle_407531" data-name="Rectangle 407531" width="4.553" height="2.561" fill="none"/>
    </clipPath>
    <clipPath id="clip-path-5">
      <rect id="Rectangle_407532" data-name="Rectangle 407532" width="32.858" height="32.853" fill="none"/>
    </clipPath>
    <clipPath id="clip-path-6">
      <rect id="Rectangle_407533" data-name="Rectangle 407533" width="26.118" height="23.85" fill="none"/>
    </clipPath>
    <clipPath id="clip-path-7">
      <rect id="Rectangle_407534" data-name="Rectangle 407534" width="28.417" height="28.26" fill="none"/>
    </clipPath>
    <clipPath id="clip-path-8">
      <rect id="Rectangle_407535" data-name="Rectangle 407535" width="30.739" height="30.743" fill="none"/>
    </clipPath>
    <clipPath id="clip-path-9">
      <rect id="Rectangle_407536" data-name="Rectangle 407536" width="25.879" height="25.885" fill="none"/>
    </clipPath>
    <clipPath id="clip-path-10">
      <rect id="Rectangle_407537" data-name="Rectangle 407537" width="2.085" height="25.039" fill="none"/>
    </clipPath>
    <clipPath id="clip-path-11">
      <rect id="Rectangle_407538" data-name="Rectangle 407538" width="8.454" height="8.451" fill="none"/>
    </clipPath>
  </defs>
  <g id="Group_1117918" data-name="Group 1117918" transform="translate(-362.074 9219.916)">
    <g id="Group_1117128" data-name="Group 1117128" transform="translate(362.074 -9219.915)">
      <path id="Path_882862" data-name="Path 882862" d="M89,0A89.047,89.047,0,1,1,0,89,89,89,0,0,1,89,0Z" transform="translate(0 -0.001)" fill="#f6ae5c"/>
      <path id="Path_882863" data-name="Path 882863" d="M78.668,0A78.668,78.668,0,1,1,0,78.668,78.668,78.668,0,0,1,78.668,0Z" transform="translate(10.332 10.331)" fill="#f3f9ff"/>
    </g>
    <g id="Group_1117131" data-name="Group 1117131" transform="translate(403.361 -9185.886)">
      <rect id="Rectangle_401104" data-name="Rectangle 401104" width="96.83" height="98.254" fill="none"/>
      <g id="Group_1117279" data-name="Group 1117279" transform="translate(0 2.848)">
        <g id="Group_1117278" data-name="Group 1117278" clip-path="url(#clip-path)">
          <g id="Group_1117277" data-name="Group 1117277" transform="translate(0 0)">
            <g id="Group_1117276" data-name="Group 1117276" clip-path="url(#clip-path)">
              <path id="Path_895549" data-name="Path 895549" d="M72.623,37.921V6.162A6.163,6.163,0,0,0,66.461,0H39.014a6.162,6.162,0,0,1,6.16,6.162h.047V7.906H18.978V37.017a6.163,6.163,0,0,0,6.162,6.162H78.694a6.147,6.147,0,0,1-6.071-5.258" transform="translate(17.949 0)" fill="#bfbfbf"/>
              <g id="Group_1117251" data-name="Group 1117251" transform="translate(8.192 10.281)" opacity="0.2">
                <g id="Group_1117250" data-name="Group 1117250">
                  <g id="Group_1117249" data-name="Group 1117249" clip-path="url(#clip-path-3)">
                    <path id="Path_895550" data-name="Path 895550" d="M78.364,5.284V60.116a5.842,5.842,0,0,1-5.837,5.837H53.419v24.03H12.635c-4.672,0-8.425-.156-8.425-3.113l6.75-7.88V22.777H24.855V5.284Z" transform="translate(-4.21 -5.283)" fill="#8e9093"/>
                  </g>
                </g>
              </g>
              <path id="Path_895551" data-name="Path 895551" d="M12.82,6.162V69H60.492a5.838,5.838,0,0,0,5.837-5.837v-57A6.23,6.23,0,0,1,72.536,0H18.982A6.163,6.163,0,0,0,12.82,6.162" transform="translate(12.125 0)" fill="#fffceb"/>
              <rect id="Rectangle_407515" data-name="Rectangle 407515" width="39.174" height="2.53" transform="translate(31.621 7.676)" fill="#8e9093"/>
              <rect id="Rectangle_407516" data-name="Rectangle 407516" width="25.274" height="2.53" transform="translate(31.621 14.119)" fill="#8e9093"/>
              <rect id="Rectangle_407517" data-name="Rectangle 407517" width="39.174" height="2.53" transform="translate(31.621 20.561)" fill="#8e9093"/>
              <rect id="Rectangle_407518" data-name="Rectangle 407518" width="25.274" height="2.53" transform="translate(31.621 27.006)" fill="#8e9093"/>
              <rect id="Rectangle_407519" data-name="Rectangle 407519" width="39.174" height="2.53" transform="translate(31.621 33.448)" fill="#8e9093"/>
              <rect id="Rectangle_407520" data-name="Rectangle 407520" width="25.274" height="2.53" transform="translate(31.621 39.891)" fill="#8e9093"/>
              <rect id="Rectangle_407521" data-name="Rectangle 407521" width="39.174" height="2.53" transform="translate(31.621 46.312)" fill="#8e9093"/>
              <rect id="Rectangle_407522" data-name="Rectangle 407522" width="25.274" height="2.53" transform="translate(31.621 52.731)" fill="#8e9093"/>
              <rect id="Rectangle_407523" data-name="Rectangle 407523" width="39.174" height="2.53" transform="translate(31.621 59.152)" fill="#8e9093"/>
              <path id="Path_895552" data-name="Path 895552" d="M59.873,51.191V19.432a6.163,6.163,0,0,0-6.162-6.162H26.264a6.162,6.162,0,0,1,6.16,6.162h.047v1.743H6.228V50.287a6.163,6.163,0,0,0,6.162,6.162H65.944a6.147,6.147,0,0,1-6.071-5.258" transform="translate(5.89 12.551)" fill="#bfbfbf"/>
              <path id="Path_895553" data-name="Path 895553" d="M6.162,13.27A6.163,6.163,0,0,0,0,19.432V90.051H53.509V19.432h.045a6.163,6.163,0,0,1,6.162-6.162Z" transform="translate(0 12.551)" fill="#fffceb"/>
              <path id="Path_895554" data-name="Path 895554" d="M25.344,33.6A11.5,11.5,0,1,1,14.2,17.589V29.476l.376.134Z" transform="translate(3.084 16.635)" fill="#1e2ad5"/>
              <path id="Path_895555" data-name="Path 895555" d="M20.836,28.642a11.5,11.5,0,0,1-.714,3.938L9.51,28.642V17.316A11.331,11.331,0,0,1,20.836,28.642" transform="translate(8.994 16.377)" fill="#f6ae5c"/>
              <rect id="Rectangle_407524" data-name="Rectangle 407524" width="39.174" height="2.53" transform="translate(6.752 61.911)" fill="#8e9093"/>
              <rect id="Rectangle_407525" data-name="Rectangle 407525" width="25.274" height="2.53" transform="translate(6.754 68.353)" fill="#8e9093"/>
              <rect id="Rectangle_407526" data-name="Rectangle 407526" width="39.174" height="2.53" transform="translate(6.752 74.796)" fill="#8e9093"/>
              <rect id="Rectangle_407527" data-name="Rectangle 407527" width="25.274" height="2.53" transform="translate(6.754 81.24)" fill="#8e9093"/>
              <rect id="Rectangle_407528" data-name="Rectangle 407528" width="39.174" height="2.53" transform="translate(6.752 87.683)" fill="#8e9093"/>
              <rect id="Rectangle_407529" data-name="Rectangle 407529" width="25.274" height="2.53" transform="translate(6.754 94.125)" fill="#8e9093"/>
              <rect id="Rectangle_407530" data-name="Rectangle 407530" width="4.552" height="35.578" transform="translate(75.345 51.488)" fill="#707474"/>
              <g id="Group_1117254" data-name="Group 1117254" transform="translate(75.344 51.487)" opacity="0.5">
                <g id="Group_1117253" data-name="Group 1117253">
                  <g id="Group_1117252" data-name="Group 1117252" clip-path="url(#clip-path-4)">
                    <path id="Path_895556" data-name="Path 895556" d="M38.724,26.463l0,2.389a18.055,18.055,0,0,0,4.553.045V26.461Z" transform="translate(-38.721 -26.46)"/>
                  </g>
                </g>
              </g>
              <g id="Group_1117257" data-name="Group 1117257" transform="translate(61.402 18.634)" opacity="0.3">
                <g id="Group_1117256" data-name="Group 1117256">
                  <g id="Group_1117255" data-name="Group 1117255" clip-path="url(#clip-path-5)">
                    <path id="Path_895557" data-name="Path 895557" d="M64.414,26A16.433,16.433,0,1,1,56.46,11.933,16.425,16.425,0,0,1,64.414,26" transform="translate(-31.557 -9.576)" fill="#1d3a61"/>
                  </g>
                </g>
              </g>
              <g id="Group_1117260" data-name="Group 1117260" transform="translate(61.402 18.634)" opacity="0.2">
                <g id="Group_1117259" data-name="Group 1117259">
                  <g id="Group_1117258" data-name="Group 1117258" clip-path="url(#clip-path-6)">
                    <path id="Path_895558" data-name="Path 895558" d="M57.674,17.952A15.47,15.47,0,0,1,31.933,29.525,16.428,16.428,0,0,1,56.46,11.935a15.375,15.375,0,0,1,1.214,6.016" transform="translate(-31.557 -9.576)" fill="#fff"/>
                  </g>
                </g>
              </g>
              <g id="Group_1117263" data-name="Group 1117263" transform="translate(61.4 18.63)" opacity="0.2">
                <g id="Group_1117262" data-name="Group 1117262">
                  <g id="Group_1117261" data-name="Group 1117261" clip-path="url(#clip-path-7)">
                    <path id="Path_895559" data-name="Path 895559" d="M33.779,27.724A16.039,16.039,0,0,1,59.973,15.406,15.99,15.99,0,1,0,37.41,37.835a15.841,15.841,0,0,1-3.631-10.11" transform="translate(-31.556 -9.575)"/>
                  </g>
                </g>
              </g>
              <path id="Path_895560" data-name="Path 895560" d="M48.673,44.543A17.851,17.851,0,1,1,66.527,26.695,17.863,17.863,0,0,1,48.673,44.543m0-32.853a15.006,15.006,0,1,0,15,15,15.014,15.014,0,0,0-15-15" transform="translate(29.155 8.363)" fill="#707474"/>
              <g id="Group_1117266" data-name="Group 1117266" transform="translate(59.981 17.206)" opacity="0.2">
                <g id="Group_1117265" data-name="Group 1117265">
                  <g id="Group_1117264" data-name="Group 1117264" clip-path="url(#clip-path-8)">
                    <path id="Path_895561" data-name="Path 895561" d="M31.39,27.264A17.833,17.833,0,0,1,61.565,14.377a17.831,17.831,0,1,0-25.21,25.21A17.82,17.82,0,0,1,31.39,27.264" transform="translate(-30.826 -8.842)" fill="#fff"/>
                  </g>
                </g>
              </g>
              <g id="Group_1117269" data-name="Group 1117269" transform="translate(67.525 24.748)" opacity="0.2">
                <g id="Group_1117268" data-name="Group 1117268">
                  <g id="Group_1117267" data-name="Group 1117267" clip-path="url(#clip-path-9)">
                    <path id="Path_895562" data-name="Path 895562" d="M45.578,38.6A14.992,14.992,0,0,0,55.891,12.719,14.986,14.986,0,0,1,34.7,33.9a14.941,14.941,0,0,0,10.875,4.7" transform="translate(-34.703 -12.719)"/>
                  </g>
                </g>
              </g>
              <path id="Path_895563" data-name="Path 895563" d="M44.678,58.369H38.984a1.134,1.134,0,0,1-1.134-1.136l0-25.752a1.137,1.137,0,0,1,1.138-1.136h5.693a1.142,1.142,0,0,1,1.14,1.136l0,25.752a1.134,1.134,0,0,1-1.136,1.136" transform="translate(35.794 28.699)" fill="#1e2ad5"/>
              <g id="Group_1117272" data-name="Group 1117272" transform="translate(74.907 60.535)" opacity="0.3">
                <g id="Group_1117271" data-name="Group 1117271">
                  <g id="Group_1117270" data-name="Group 1117270" clip-path="url(#clip-path-10)">
                    <path id="Path_895564" data-name="Path 895564" d="M40.53,55.889V31.374a1.184,1.184,0,0,1,.051-.263H39.513A1.015,1.015,0,0,0,38.5,32.127V55.134a1.008,1.008,0,0,0,1.016,1.012l1.068,0a1.189,1.189,0,0,1-.051-.261" transform="translate(-38.497 -31.111)" fill="#fff"/>
                  </g>
                </g>
              </g>
              <g id="Group_1117275" data-name="Group 1117275" transform="translate(69.415 27.015)" opacity="0.2">
                <g id="Group_1117274" data-name="Group 1117274">
                  <g id="Group_1117273" data-name="Group 1117273" clip-path="url(#clip-path-11)">
                    <path id="Path_895565" data-name="Path 895565" d="M44.13,18.108A4.228,4.228,0,1,1,39.9,13.884a4.229,4.229,0,0,1,4.228,4.224" transform="translate(-35.676 -13.884)" fill="#fff"/>
                  </g>
                </g>
              </g>
            </g>
          </g>
        </g>
      </g>
    </g>
  </g>
</svg>
