<svg xmlns="http://www.w3.org/2000/svg" xmlns:xlink="http://www.w3.org/1999/xlink" width="99" height="99" viewBox="0 0 99 99">
  <defs>
    <clipPath id="clip-path">
      <rect id="Rectangle_401223" data-name="Rectangle 401223" width="99" height="99" transform="translate(0)" fill="#1e2ad5"/>
    </clipPath>
    <clipPath id="clip-path-2">
      <rect id="Rectangle_401223-2" data-name="Rectangle 401223" width="88.539" height="88.539" fill="#f3f9ff"/>
    </clipPath>
    <clipPath id="clip-path-3">
      <rect id="Rectangle_407371" data-name="Rectangle 407371" width="73.411" height="53.079" fill="none"/>
    </clipPath>
  </defs>
  <g id="Group_1100727" data-name="Group 1100727" transform="translate(-619.921 -5755.871)">
    <g id="Group_1100724" data-name="Group 1100724" transform="translate(619.921 5755.871)">
      <g id="Group_1099654" data-name="Group 1099654" transform="translate(0 0)">
        <g id="Group_1099652" data-name="Group 1099652" clip-path="url(#clip-path)">
          <path id="Path_873521" data-name="Path 873521" d="M99,77.066A22,22,0,0,1,77.066,99H21.934A22,22,0,0,1,0,77.066V21.933A22,22,0,0,1,21.934,0H77.066A22,22,0,0,1,99,21.934Z" transform="translate(0)" fill="#1e2ad5"/>
        </g>
      </g>
      <g id="Group_1099659" data-name="Group 1099659" transform="translate(4.77 5.723)">
        <g id="Group_1099652-2" data-name="Group 1099652" transform="translate(0 0)" clip-path="url(#clip-path-2)">
          <path id="Path_873521-2" data-name="Path 873521" d="M88.539,68.922A19.674,19.674,0,0,1,68.923,88.539H19.616A19.674,19.674,0,0,1,0,68.922V19.616A19.674,19.674,0,0,1,19.616,0H68.923A19.674,19.674,0,0,1,88.539,19.616Z" fill="#f3f9ff"/>
        </g>
      </g>
    </g>
    <g id="Group_1100725" data-name="Group 1100725" transform="translate(632.343 5767.234)">
      <rect id="Rectangle_401104" data-name="Rectangle 401104" width="75" height="75" transform="translate(-0.421 0.496)" fill="none"/>
      <g id="Group_1117115" data-name="Group 1117115" transform="translate(0.697 11.614)">
        <g id="Group_1117114" data-name="Group 1117114" transform="translate(0 0)" clip-path="url(#clip-path-3)">
          <path id="Path_894905" data-name="Path 894905" d="M23.148,49.794c10.309-6.3,12.26-4.16,21.563-.11C54.788,54.07,63,45.523,63.651,38.758c1.848-19.3-9.569-35.707-22-38.375C34.5-1.154,21.082,2.246,21.013,14.77c-.03,5.7,2.793,10.665-3.064,13.264C11.892,30.722,2.005,26.356.153,37.2c-1.836,10.746,13.358,18.489,22.995,12.6" transform="translate(0 -0.003)" fill="#ffe9a2"/>
          <rect id="Rectangle_407366" data-name="Rectangle 407366" width="10.777" height="35.153" transform="translate(34.054 16.596)" fill="#afbefc"/>
          <path id="Path_894906" data-name="Path 894906" d="M52.832,21.043H33.238l9.8-16.087Z" transform="translate(-3.593 -0.475)" fill="#afbefc"/>
          <rect id="Rectangle_407367" data-name="Rectangle 407367" width="5.671" height="18.499" transform="translate(41.309 33.25)" fill="#bacfe5"/>
          <path id="Path_894907" data-name="Path 894907" d="M54.025,38.193H43.715l5.155-8.466Z" transform="translate(-4.726 -2.852)" fill="#bacfe5"/>
          <rect id="Rectangle_407368" data-name="Rectangle 407368" width="13.71" height="4.965" transform="translate(41.308 46.784)" fill="#bacfe5"/>
          <rect id="Rectangle_407369" data-name="Rectangle 407369" width="13.71" height="4.965" transform="translate(18.709 46.784)" fill="#a9c1d8"/>
          <rect id="Rectangle_407370" data-name="Rectangle 407370" width="5.671" height="39.824" transform="translate(26.749 11.924)" fill="#f6ae5c"/>
          <path id="Path_894908" data-name="Path 894908" d="M37.7,14.6H27.389l5.156-8.466Z" transform="translate(-2.961 -0.589)" fill="#f6ae5c"/>
          <path id="Path_894909" data-name="Path 894909" d="M2.1,56.544c-2.87.834,6.031,1.951,34.855,1.67,39.112-.383,32.715-1.757,34.466-1.864,9.042-.552-11.833-1.088-34.068-1.088S3.239,56.215,2.1,56.544" transform="translate(-0.172 -5.302)" fill="#bacfe5"/>
          <path id="Path_894910" data-name="Path 894910" d="M49.021,17.133c0,.168.009.336.021.5a16.036,16.036,0,0,0,.6,2.885,5.168,5.168,0,0,1,.232,1.908,3.68,3.68,0,0,1-.453,1.314,3.734,3.734,0,0,1-.982,1.193,1.517,1.517,0,0,1-1.21.354,1.589,1.589,0,0,1-.659-.365,6.106,6.106,0,0,1-1.465-2.2,18.924,18.924,0,0,1-1.162-3.242c-.019-.077-.037-.155-.054-.231a6.085,6.085,0,0,1-.162-1.974,5.151,5.151,0,0,1,.6-1.729,6.042,6.042,0,0,1,2.17-2.653,1.166,1.166,0,0,1,1.621.322,2.746,2.746,0,0,1,.314.982c.124.433.328.838.441,1.274a7.168,7.168,0,0,1,.146,1.661" transform="translate(-4.724 -1.219)" fill="#53424d"/>
          <path id="Path_894911" data-name="Path 894911" d="M50.847,15.975c-.087-.224-.172-.448-.26-.672a5.627,5.627,0,0,0-1-1.887c-.6-.6-1.143-.3-1.812-.071A4.54,4.54,0,0,0,45.8,14.873a5.641,5.641,0,0,0-1.045,1.708,5.046,5.046,0,0,0-.218,1.884,12.733,12.733,0,0,0,1.51,5.12,10.186,10.186,0,0,0,1.082,1.96,8.42,8.42,0,0,0,1.712,1.518,4.957,4.957,0,0,0,2.991,1.13,5,5,0,0,0,1.624-.448,4.018,4.018,0,0,0,2.3-1.839,2.882,2.882,0,0,0,.208-1.312,6.633,6.633,0,0,0-1.795-3.756,22.1,22.1,0,0,1-2.628-3.3,12.564,12.564,0,0,1-.7-1.561" transform="translate(-4.814 -1.254)" fill="#53424d"/>
          <path id="Path_894912" data-name="Path 894912" d="M43.954,19.569h0c.384.03.615-.327.9-.275,2.149.4,4.081.593,5.533.813,1.005.153,1.731.423,1.935.795.379.693-2.181.715-.763,2.418a11.547,11.547,0,0,0-1.28,2.454c-1.349,3.614.29,3.784-.138,4.6-.769,1.465-3.958,1.256-6.309.433-.919-.322-1.238-.444-1.088-.887,1.087-3.2-.283-5.344.491-7.1.127-.287-.449.1-.384-.219,1.557-2.616,1.1-3.035,1.1-3.035" transform="translate(-4.617 -1.851)" fill="#fec44f"/>
          <path id="Path_894913" data-name="Path 894913" d="M54.442,52.424a6.068,6.068,0,0,0,.481,1.634c.307.6-.971,2.2-1.829,2.473-.377.121-.357-.526.062-1.069a1.478,1.478,0,0,0-.078-2.017Z" transform="translate(-5.71 -5.03)" fill="#8b482a"/>
          <path id="Path_894914" data-name="Path 894914" d="M54.746,53.751s-.806,2.407-1.725,1.982c0,0-.553.8-.211,1.031s1.13-.306,1.518-.93c.579-.93.464-.67.689-1.068a.773.773,0,0,0-.27-1.014" transform="translate(-5.697 -5.157)" fill="#fec44f"/>
          <path id="Path_894915" data-name="Path 894915" d="M50.523,45.852a10.759,10.759,0,0,1,3.1,4.312c.052.17.526,2.186.538,2.361.052.791-.862,1.206-.936,1.066-.522-1-4.726-5.215-4.779-7.529-.037-1.629.976-1.2,2.075-.211" transform="translate(-5.237 -4.315)" fill="#8b482a"/>
          <path id="Path_894916" data-name="Path 894916" d="M51.036,31.545c1.7,3.517.531,3.323.309,10.42a2.951,2.951,0,0,0,.272.947l2.18,6.62c.1.263-.119.5-.261.716a1.952,1.952,0,0,1-1.32.777,1.554,1.554,0,0,1-.866-.258,22.724,22.724,0,0,1-3.793-6.76,53.275,53.275,0,0,1-1.29-13.383l4.063-.278a4,4,0,0,1,.705,1.2" transform="translate(-4.995 -2.912)" fill="#fc636b"/>
          <path id="Path_894917" data-name="Path 894917" d="M42.993,55a6.105,6.105,0,0,0-.245,1.685c.026.674-1.8,1.6-2.7,1.49-.393-.047-.1-.627.5-.946a1.479,1.479,0,0,0,.773-1.866Z" transform="translate(-4.31 -5.277)" fill="#8b482a"/>
          <path id="Path_894918" data-name="Path 894918" d="M42.763,56.357s-1.74,1.854-2.4,1.087c0,0-.837.5-.623.849s1.156.191,1.77-.215c.915-.607.7-.418,1.072-.686a.772.772,0,0,0,.179-1.034" transform="translate(-4.292 -5.407)" fill="#fec44f"/>
          <path id="Path_894919" data-name="Path 894919" d="M42.34,47.378a10.721,10.721,0,0,1,1.016,5.206c-.024.175-.437,2.2-.5,2.37-.284.741-1.289.739-1.3.58-.057-1.122-2.115-6.7-1.194-8.825.648-1.5,1.387-.682,1.975.669" transform="translate(-4.338 -4.405)" fill="#8b482a"/>
          <path id="Path_894920" data-name="Path 894920" d="M46.775,30.512c.783,4.85-2.07,5.834-3.232,12.512a5.417,5.417,0,0,0-.044.984l-.046,6.97c.01.281-.271.432-.475.593a1.948,1.948,0,0,1-1.5.308c-.176-.057-.671-.325-.739-.524-.441-1.3-1.754-5.428-1.593-8.234.235-4.1,2.529-11.068,3.357-12.776l3.51.232Z" transform="translate(-4.23 -2.911)" fill="#fc636b"/>
          <path id="Path_894921" data-name="Path 894921" d="M36.912,25.232s-2.389-.824-2.62-.851c-1.476-.166-2.163-.542-2.09-.252.136.534,1.766,1.135,2.008,1.229a10.777,10.777,0,0,0,1.351.387,4.845,4.845,0,0,0,1.35-.513" transform="translate(-3.481 -2.305)" fill="#8b482a"/>
          <path id="Path_894922" data-name="Path 894922" d="M40.115,27.3c-1.516-.028-5.668-1.856-5.668-1.856l.829-.581,5.165.608s1.19,1.855-.326,1.829" transform="translate(-3.724 -2.385)" fill="#8b482a"/>
          <path id="Path_894923" data-name="Path 894923" d="M42.825,20.043a1.76,1.76,0,0,1,2.151-.6c.4.244.479.939.359,1.532-.287,1.423-2.913,6.96-4.654,5.243-.617-.609-.8-.782-.535-1.7a16.463,16.463,0,0,1,2.679-4.481" transform="translate(-4.327 -1.849)" fill="#fec44f"/>
          <path id="Path_894924" data-name="Path 894924" d="M44.682,21.807s.139-2.814-1.4.114c0,0-2.564,3.561.936,4.3,2.856.6.934-3.669.934-3.669Z" transform="translate(-4.581 -1.975)" fill="#fec44f"/>
          <path id="Path_894925" data-name="Path 894925" d="M42.27,25.193a1.794,1.794,0,0,0,.653.909,2.171,2.171,0,0,0,2.339-.2.091.091,0,0,0-.09-.157c-.959.542-2.331.7-2.729-.6a.09.09,0,0,0-.173.048" transform="translate(-4.569 -2.406)" fill="#feb801"/>
          <path id="Path_894926" data-name="Path 894926" d="M46.315,25.98a2.126,2.126,0,0,0,3.309.146A.09.09,0,0,0,49.5,26a1.959,1.959,0,0,1-3.057-.146c-.075-.089-.2.04-.126.128" transform="translate(-5.004 -2.477)" fill="#feb801"/>
          <path id="Path_894927" data-name="Path 894927" d="M45.092,19.295s-.655,1.985.365,2.9,3.336,1.268,5.169-2.088Z" transform="translate(-4.852 -1.851)" fill="#8b482a"/>
          <path id="Path_894928" data-name="Path 894928" d="M49.074,16.494s-2.312.424-2.17.657-.091.711-.089,1.171a2.793,2.793,0,0,1-.648,1.54c-.26.357.056.74.48.824a2.69,2.69,0,0,0,2.734-.949c-.708-.941-.307-3.244-.307-3.244" transform="translate(-4.981 -1.582)" fill="#8b482a"/>
          <path id="Path_894929" data-name="Path 894929" d="M46.89,18.322c0-.459.232-.938.089-1.171s2.17-.657,2.17-.657a2.635,2.635,0,0,0-.385,1.2,8.7,8.7,0,0,1-1.994,1.239,1.774,1.774,0,0,0,.12-.612" transform="translate(-5.056 -1.582)" fill="#612c13"/>
          <path id="Path_894930" data-name="Path 894930" d="M47.251,12.983c-.837.6-2.678,3.226-1.474,4.759.514.655,2.314.086,3.393-1.181a3.5,3.5,0,0,0,.275-2.98,1.467,1.467,0,0,0-2.193-.6" transform="translate(-4.906 -1.218)" fill="#8b482a"/>
          <path id="Path_894931" data-name="Path 894931" d="M46.069,14.3c.111.3.131-.392.814-.568a1.316,1.316,0,0,1,.261-.03.575.575,0,0,1,.218.027.359.359,0,0,1,.211.361,1.6,1.6,0,0,0,.326.886,2.274,2.274,0,0,1,.412.966A5.638,5.638,0,0,0,49,18.019a1.532,1.532,0,0,0,.284.375.694.694,0,0,0,.417.192.464.464,0,0,0,.21-.035.714.714,0,0,0,.35-.476,4.245,4.245,0,0,0,.137-1c.015-.273.036-.546.046-.819a1.094,1.094,0,0,0-.061-.266,2.2,2.2,0,0,1,0-.368,8.593,8.593,0,0,0-.125-1.248,1.924,1.924,0,0,0-.506-1,2.55,2.55,0,0,0-2.042-.749c-1.8.18-1.724,1.435-1.636,1.673" transform="translate(-4.976 -1.21)" fill="#53424d"/>
          <path id="Path_894932" data-name="Path 894932" d="M48.448,16.674s.7-.55,1.041-.346-.243,1.2-.969.991-.284-.5-.071-.645" transform="translate(-5.202 -1.562)" fill="#8b482a"/>
          <path id="Path_894933" data-name="Path 894933" d="M47.781,20.288a2.6,2.6,0,0,0,1.583-.457l-.05-.084a2.428,2.428,0,0,1-2.026.355,1.13,1.13,0,0,1-.745-.628l-.084.041a1.22,1.22,0,0,0,.8.683,2.035,2.035,0,0,0,.519.09" transform="translate(-5.022 -1.868)" fill="#fea603"/>
          <path id="Path_894934" data-name="Path 894934" d="M47.183,20.939A4.431,4.431,0,0,0,49.274,19.9l.089-.063-.05-.083-.089.063c-.794.562-1.781,1.261-2.3.951-.266-.159-.392-.586-.377-1.267l-.091,0c-.017.732.121,1.175.423,1.357a.654.654,0,0,0,.3.087" transform="translate(-5.022 -1.87)" fill="#fea603"/>
          <path id="Path_894935" data-name="Path 894935" d="M46.58,21.735c.651.032,2.245-1.352,2.771-1.91l-.064-.071c-.5.531-2.087,1.91-2.7,1.881a.19.19,0,0,1-.162-.076.282.282,0,0,1-.039-.117,8.092,8.092,0,0,1,.143-1.931l-.086-.034a8.083,8.083,0,0,0-.147,1.983.361.361,0,0,0,.058.161.282.282,0,0,0,.224.112h.005" transform="translate(-5.003 -1.869)" fill="#fea603"/>
          <path id="Path_894936" data-name="Path 894936" d="M46.133,21.974a.328.328,0,1,1,.31.371.341.341,0,0,1-.31-.371" transform="translate(-4.987 -2.076)" fill="#fea603"/>
          <path id="Path_894937" data-name="Path 894937" d="M52.165,30.632s-2.214,1.336-2.386,1.5c-1.105,1.053-1.848,1.345-1.577,1.48.5.246,2.038-.641,2.271-.769a10.978,10.978,0,0,0,1.192-.808,5.1,5.1,0,0,0,.5-1.4" transform="translate(-5.205 -2.939)" fill="#8b482a"/>
          <path id="Path_894938" data-name="Path 894938" d="M55.93,29.35c-1.025,1.176-5.175,3.238-5.175,3.238l.1-1.039,3.884-3.668s2.211.291,1.187,1.468" transform="translate(-5.487 -2.675)" fill="#8b482a"/>
          <path id="Path_894939" data-name="Path 894939" d="M51.612,22.688a1.585,1.585,0,0,1,.479-2.057c.422-.231,1,.172,1.447.588,1.082,1,4.559,6.851,2.587,7.268-2.295.485-3.61-3.529-4.512-5.8" transform="translate(-5.561 -1.973)" fill="#fec44f"/>
          <path id="Path_894940" data-name="Path 894940" d="M50.156,31.384a2.351,2.351,0,0,0,1.05,2.763s-.829,2.792-2.537,1.883-1.722-3.538,1.488-4.646" transform="translate(-5.138 -3.011)" fill="#fc636b"/>
          <path id="Path_894941" data-name="Path 894941" d="M42.77,30.451a12.808,12.808,0,0,0,7.381-.07l-.326-.876a11.311,11.311,0,0,1-6.794.06Z" transform="translate(-4.623 -2.831)" fill="#ec3b59"/>
          <path id="Path_894942" data-name="Path 894942" d="M44.416,29.807l-.5,1.06.472.146.318-1.188Z" transform="translate(-4.748 -2.86)" fill="#ff4650"/>
          <path id="Path_894943" data-name="Path 894943" d="M49.5,29.6l.2,1.289.591-.073L49.848,29.5Z" transform="translate(-5.351 -2.831)" fill="#ff4650"/>
          <path id="Path_894944" data-name="Path 894944" d="M47.858,16.284c.019-.01-.021.009-.029.011a.372.372,0,0,1-.095.024c-.127.011-.184-.073-.214-.183-.018-.068-.124-.031-.106.038a.331.331,0,0,0,.508.2c.064-.033,0-.123-.065-.09" transform="translate(-5.125 -1.545)" fill="#1e100c"/>
          <path id="Path_894945" data-name="Path 894945" d="M46.541,15.817a.38.38,0,0,1-.106.07c-.124.054-.194-.024-.238-.136-.026-.066-.132-.029-.106.038.053.132.147.25.309.224a.457.457,0,0,0,.228-.125c.052-.049-.035-.12-.087-.071" transform="translate(-4.982 -1.508)" fill="#1e100c"/>
          <path id="Path_894946" data-name="Path 894946" d="M46.363,15.167a.335.335,0,0,1,.4.235c.031.082.154.025.123-.057a.463.463,0,0,0-.543-.314c-.086.017-.062.153.023.136" transform="translate(-5.003 -1.441)" fill="#552b19"/>
          <path id="Path_894947" data-name="Path 894947" d="M47.575,15.681a.333.333,0,0,1,.445.117c.052.071.154-.017.1-.089a.459.459,0,0,0-.606-.152c-.078.04-.02.164.058.124" transform="translate(-5.133 -1.487)" fill="#552b19"/>
          <path id="Path_894948" data-name="Path 894948" d="M47.009,15.715a.7.7,0,0,1-.024.381c-.07.17-.275.226-.4.358-.169.182-.037.317.194.413.055.023.091-.048.036-.071-.517-.214.136-.422.243-.639a.735.735,0,0,0,.043-.448c-.01-.051-.1-.044-.094.006" transform="translate(-5.028 -1.504)" fill="#612c13"/>
          <path id="Path_894949" data-name="Path 894949" d="M47.2,17.3s-.016.472-.4.432-.381-.465-.381-.465Z" transform="translate(-5.017 -1.657)" fill="#faffff"/>
          <path id="Path_894950" data-name="Path 894950" d="M48.055,17.219a.261.261,0,0,1-.35.129.269.269,0,0,1-.128-.354.263.263,0,0,1,.35-.129.268.268,0,0,1,.128.354" transform="translate(-5.141 -1.616)" fill="#612c13"/>
          <path id="Path_894951" data-name="Path 894951" d="M45.722,16.261a.264.264,0,0,1,.367.083.271.271,0,0,1-.082.372.265.265,0,0,1-.367-.083.272.272,0,0,1,.082-.372" transform="translate(-4.929 -1.556)" fill="#612c13"/>
          <path id="Path_894952" data-name="Path 894952" d="M16.555,17.57c-.133.022-.267.04-.4.062a5.211,5.211,0,0,0-.949.259,1.034,1.034,0,0,0-.4.229,1.737,1.737,0,0,0-.394,1.729,2.379,2.379,0,0,0,.7,1.161,1.823,1.823,0,0,0,1.244.472,2.958,2.958,0,0,0,1.61-.715,5.665,5.665,0,0,1,1.369-.86,3.682,3.682,0,0,1,1.7-.194,1.085,1.085,0,0,1,.549.174,3.172,3.172,0,0,0,.525.329,1.135,1.135,0,0,0,.715.146,1.042,1.042,0,0,0,.62-.485,2.936,2.936,0,0,0,.381-1.822,17.733,17.733,0,0,0-.327-1.865,5.06,5.06,0,0,0-.423-1.55,10.567,10.567,0,0,0-.7-.848,1.52,1.52,0,0,0-.878-.61,2.493,2.493,0,0,0-1.343.082,1.8,1.8,0,0,0-.9.552,3.519,3.519,0,0,0-.531,1.028c-.17.48-.292.979-.507,1.44a2.193,2.193,0,0,1-1,1.107,2.53,2.53,0,0,1-.664.18" transform="translate(-1.55 -1.259)" fill="#53424d"/>
          <path id="Path_894953" data-name="Path 894953" d="M25.282,53.419A3.058,3.058,0,0,1,25.161,55c-.256.815,1.438,2.409,2.455,2.511.448.044.281-.688-.232-1.283-1.018-1.18-.268-3.281-.268-3.281Z" transform="translate(-2.717 -5.08)" fill="#fbb99d"/>
          <path id="Path_894954" data-name="Path 894954" d="M25.249,54.633s.917,2.692,2.22,1.915c0,0,.747.758.393,1.134s-1.344-.054-1.867-.72c-.813-1.036-.844-.707-1.071-1.026-.468-.656.325-1.3.325-1.3" transform="translate(-2.678 -5.242)" fill="#53424d"/>
          <path id="Path_894955" data-name="Path 894955" d="M21.382,30.417c-.718,1.612.21,5.544,3.406,10.944.365.617-.218,1.6-.418,2.805a18.957,18.957,0,0,0,.447,6.736,3.725,3.725,0,0,1,.078.639c.061.977,1.164,1.233,1.225,1.043.442-1.353,2.3-8.169,2.067-11.01-.334-4.148-2.067-11.249-2.982-12.922,0,0-2.754-.639-3.824,1.763" transform="translate(-2.287 -2.742)" fill="#fbb99d"/>
          <path id="Path_894956" data-name="Path 894956" d="M17.609,52.916a3.045,3.045,0,0,1-.529,1.493c-.459.717.759,2.709,1.713,3.079.419.163.45-.588.11-1.3-.674-1.41.6-3.236.6-3.236Z" transform="translate(-1.836 -5.077)" fill="#fbb99d"/>
          <path id="Path_894957" data-name="Path 894957" d="M17.3,54.039s.183,2.842,1.642,2.441c0,0,.524.932.085,1.2s-1.283-.411-1.613-1.193c-.516-1.217-.63-.908-.766-1.277-.281-.758.652-1.17.652-1.17" transform="translate(-1.794 -5.185)" fill="#53424d"/>
          <path id="Path_894958" data-name="Path 894958" d="M19.71,29.723c-1.112,1.362-1.242,5.4.433,11.468.192.692-.626,1.485-1.134,2.594A18.921,18.921,0,0,0,17.686,50.4a3.7,3.7,0,0,1-.091.638c-.2.958.8,1.5.911,1.333.779-1.186,4.344-7.263,4.862-10.065.757-4.09.936-11.4.49-13.261,0,0-2.489-1.353-4.147.676" transform="translate(-1.899 -2.744)" fill="#fbb99d"/>
          <path id="Path_894959" data-name="Path 894959" d="M33.8,23.975c1.279.1,4.651-1.338,4.651-1.338l-.705-.665-4.159.334s-1.065,1.564.213,1.669" transform="translate(-3.586 -2.108)" fill="#fbb99d"/>
          <path id="Path_894960" data-name="Path 894960" d="M38.041,21.574a1.6,1.6,0,0,0,.047-.371,2.015,2.015,0,0,1,.249-.637c.061-.112.056-.42.217-.446.262-.043.131.471.143.591a.264.264,0,0,0,.182.249.328.328,0,0,0,.206-.052,6.577,6.577,0,0,0,.581-.375c.1-.067.2-.126.306-.185a1.269,1.269,0,0,1,.248-.159.122.122,0,0,1,.157.1c0,.071-.062.09-.108.128-.1.086-.2.174-.3.264-.021.02-.132.095-.13.128.01.158.309-.04.357-.069a.693.693,0,0,1,.4-.136.066.066,0,0,1,.052.023c.018.025,0,.06-.025.082-.125.132-.294.215-.417.351a.085.085,0,0,0-.03.08c.04.113.26.025.335,0,.047-.014.108-.027.138.012a.086.086,0,0,1,0,.092.247.247,0,0,1-.07.067,2.385,2.385,0,0,1-.235.168c-.04.022-.165.077-.147.138a.045.045,0,0,0,.026.025.242.242,0,0,0,.132,0,.118.118,0,0,1,.12.04c.029.048-.01.108-.051.147a2.056,2.056,0,0,1-.516.312c-.19.095-.384.18-.58.257a6.722,6.722,0,0,1-.8.257,1.084,1.084,0,0,1-.744,0,.963.963,0,0,1-.178-.125.984.984,0,0,1-.2-.207.388.388,0,0,1-.064-.275.078.078,0,0,1,.013-.037.092.092,0,0,1,.043-.024,2.617,2.617,0,0,0,.356-.138.659.659,0,0,0,.283-.281" transform="translate(-4.037 -1.93)" fill="#fbb99d"/>
          <path id="Path_894961" data-name="Path 894961" d="M33.32,23.874s-4.9.436-6.8-1.167c-1.19-1,1.588-1.847,1.588-1.847s.822,1.513,4.962,1.322c1.791-.083.254,1.692.254,1.692" transform="translate(-2.834 -2.001)" fill="#fbb99d"/>
          <path id="Path_894962" data-name="Path 894962" d="M24.732,28.895c-.186.127-.409.382-.513.447-1.734,1.107-4.047.1-5.608-.834-.245-.147-1.066,1.356-1.171,1.552a8.243,8.243,0,0,0-.808,2.3,15.911,15.911,0,0,0-.215,3.775,8.261,8.261,0,0,0,.66,3.34c.719,1.462,3.279.8,4.41.278A15.509,15.509,0,0,0,24.4,37.734,7.535,7.535,0,0,1,27.512,36.1c.252-.047.507-.071.761-.1.134-.015.389.034.461-.082s-.081-.459-.128-.578a26.684,26.684,0,0,0-1.883-3.99,14.97,14.97,0,0,0-1.265-1.815c-.117-.143-.264-.276-.367-.428-.036-.052-.1-.259-.156-.278a.266.266,0,0,0-.2.069" transform="translate(-1.772 -2.734)" fill="#afbefc"/>
          <path id="Path_894963" data-name="Path 894963" d="M27.617,23.881s-4.526-1.171-4.461-3.088c.094-2.787,5.691.319,5.691.319s-.214,2.077-1.23,2.769" transform="translate(-2.503 -1.883)" fill="#1e2ad5"/>
          <path id="Path_894964" data-name="Path 894964" d="M25.084,27.89c.175.325-.084.679-.775.962-1.946.786-5.45.425-6.05-.736-.335-.644,1.521-.41.509-3.246a8.467,8.467,0,0,0-1.005-1.938l.564-2.828a7.727,7.727,0,0,1,.993-.178,1.247,1.247,0,0,1,.161-.029,29.442,29.442,0,0,1,3.971-.254h.119c.119-.007.27.039.4.032l.2.04A16.579,16.579,0,0,1,25.3,22.35c.042.255-.161.523-.063.75.593,1.38-1.423,2.49-.153,4.789" transform="translate(-1.92 -1.884)" fill="#1e2ad5"/>
          <path id="Path_894965" data-name="Path 894965" d="M22.432,22a3.9,3.9,0,0,1-2.924-2.079,1.221,1.221,0,0,1,.161-.029,4.517,4.517,0,0,0,1.263,1.372,2.192,2.192,0,0,0,2.387.255,1.482,1.482,0,0,0,.321-1.881h.119A1.563,1.563,0,0,1,22.432,22" transform="translate(-2.109 -1.884)" fill="#fdfefd"/>
          <path id="Path_894966" data-name="Path 894966" d="M24.264,22.224s.614-2.594,1.42-.117c0,0,1.83,3.394-1.182,3.9-2.457.409-.669-3.163-.669-3.163Z" transform="translate(-2.508 -2.018)" fill="#1e2ad5"/>
          <path id="Path_894967" data-name="Path 894967" d="M26.092,25.173c-.383,1.085-1.541.891-2.33.4-.1-.062-.192.1-.092.159a1.866,1.866,0,0,0,2,.251,1.559,1.559,0,0,0,.594-.764c.039-.112-.136-.16-.176-.049" transform="translate(-2.554 -2.409)" fill="#2566bb"/>
          <path id="Path_894968" data-name="Path 894968" d="M22.628,25.628a1.656,1.656,0,0,1-2.592.011c-.08-.087-.209.044-.128.13a1.831,1.831,0,0,0,2.849-.011c.079-.087-.048-.217-.128-.13" transform="translate(-2.149 -2.456)" fill="#2566bb"/>
          <path id="Path_894969" data-name="Path 894969" d="M22.493,13.388a2.136,2.136,0,0,0-2.762.677c-1.078,1.569.471,3.968,1.921,4.263.139.029-.814-1.9-.65-2.451.017-.057.055-.112.069-.169a1.3,1.3,0,0,0,.012-.131,3.1,3.1,0,0,1,.062-.341,3.6,3.6,0,0,1,.214-.634,3.05,3.05,0,0,1,.561-.869,1.418,1.418,0,0,1,.3-.252c.049-.031.209-.126.271-.093" transform="translate(-2.094 -1.26)" fill="#53424d"/>
          <path id="Path_894970" data-name="Path 894970" d="M20.821,16.616s2.057.467,1.921.671.055.641.037,1.053a2.51,2.51,0,0,0,.524,1.4c.221.33-.077.661-.459.721a2.415,2.415,0,0,1-2.415-.954c.669-.816.393-2.9.393-2.9" transform="translate(-2.208 -1.594)" fill="#fbb99d"/>
          <path id="Path_894971" data-name="Path 894971" d="M22.827,18.339c.019-.411-.173-.85-.037-1.053s-1.921-.67-1.921-.67a2.369,2.369,0,0,1,.3,1.091,7.567,7.567,0,0,0,1.752,1.157,1.467,1.467,0,0,1-.1-.525" transform="translate(-2.256 -1.594)" fill="#dc8162"/>
          <path id="Path_894972" data-name="Path 894972" d="M22.622,13.613c.656.608,2.112,3.217.878,4.358-.524.488-2.023-.21-2.809-1.4a2.881,2.881,0,0,1,.118-2.536,1.16,1.16,0,0,1,1.814-.419" transform="translate(-2.211 -1.277)" fill="#fbb99d"/>
          <path id="Path_894973" data-name="Path 894973" d="M22.647,14.2S22,16.434,20.361,16.349a2.821,2.821,0,0,1,.982-3s2.246-.812,2.726,2.266c0,0-1.114.145-1.422-1.421" transform="translate(-2.19 -1.271)" fill="#53424d"/>
          <path id="Path_894974" data-name="Path 894974" d="M21.367,16.624s-.416-.579-.73-.509-.087.952.526.974.336-.3.2-.465" transform="translate(-2.216 -1.546)" fill="#fbb99d"/>
          <path id="Path_894975" data-name="Path 894975" d="M21.077,18.632l-.02-.119.009.061-.06-.005c0-.032-.013-.425-.027-.771-.009-.221-.017-.448-.023-.619a.059.059,0,1,1,.119,0c.006.17.015.4.023.617.032.831.032.831-.021.841" transform="translate(-2.265 -1.642)" fill="#fec44f"/>
          <path id="Path_894976" data-name="Path 894976" d="M20.66,18.586a.055.055,0,0,1-.037-.011.06.06,0,0,1-.014-.084,1.156,1.156,0,0,0,.188-.551c.012-.091.016-.184.021-.275s.012-.215.027-.324a.579.579,0,0,1,.045-.171.059.059,0,0,1,.079-.028.061.061,0,0,1,.029.08.44.44,0,0,0-.034.135c-.014.1-.021.211-.027.314s-.011.188-.021.282a1.277,1.277,0,0,1-.21.607.06.06,0,0,1-.046.025" transform="translate(-2.227 -1.644)" fill="#fec44f"/>
          <path id="Path_894977" data-name="Path 894977" d="M21.477,18.379l-.077-.093.037.047-.055.022c0-.005-.01-.022-.022-.045a5.527,5.527,0,0,1-.414-1.069.062.062,0,0,1,.049-.07.058.058,0,0,1,.069.049,4.78,4.78,0,0,0,.4,1.037c.031.065.044.092.009.123" transform="translate(-2.264 -1.647)" fill="#fec44f"/>
          <path id="Path_894978" data-name="Path 894978" d="M21.178,17.151a.219.219,0,1,0-.21.231.221.221,0,0,0,.21-.231" transform="translate(-2.242 -1.625)" fill="#fec44f"/>
          <path id="Path_894979" data-name="Path 894979" d="M18.434,23.549a1.352,1.352,0,0,0-.532-1.721c-.374-.171-.838.208-1.2.589-.862.918-2.654,5.022-1.551,6.136,1.013,1.023,2.648-3.014,3.28-5" transform="translate(-1.601 -2.09)" fill="#fbb99d"/>
          <path id="Path_894980" data-name="Path 894980" d="M14.425,27.551a19.861,19.861,0,0,0-3.568,2.6l-.474,1.443.2-.1.532-.26.759-.372.883-.431.9-.442.82-.4.633-.309.2-.1a.564.564,0,0,0,.293-.329.953.953,0,0,0,.051-.372,1.172,1.172,0,0,0-.381-.834.852.852,0,0,0-.113-.083.841.841,0,0,0-.736-.014" transform="translate(-1.122 -2.636)" fill="#fbb99d"/>
          <path id="Path_894981" data-name="Path 894981" d="M8.271,33.681a1.335,1.335,0,0,1,.142-.485,11.033,11.033,0,0,1,.459-1.135,2.3,2.3,0,0,1,.363-.591,3.453,3.453,0,0,1,.715-.57c.127-.079.258-.153.388-.224a1.291,1.291,0,0,0,.29-.241l.7.836a1.344,1.344,0,0,1-.276.2,2.166,2.166,0,0,1-.256.1.638.638,0,0,0-.349.323,1.271,1.271,0,0,0-.095.341c-.026.138-.051.278-.077.416a1.009,1.009,0,0,1-.124.382c-.071.108-.284.26-.352.082a.908.908,0,0,1,.048-.523.11.11,0,0,0,.013-.064.073.073,0,0,0-.078-.051.212.212,0,0,0-.093.04c-.2.128-.262.292-.4.471-.176.228-.367.447-.554.665a.594.594,0,0,1-.173.155.2.2,0,0,1-.292-.127" transform="translate(-0.894 -2.92)" fill="#fbb99d"/>
          <path id="Path_894982" data-name="Path 894982" d="M15.593,23.666s1.309-4.06,3.021-3.477c1.935.66-.3,4.726-.3,4.726a4.811,4.811,0,0,1-2.724-1.249" transform="translate(-1.686 -1.931)" fill="#1e2ad5"/>
          <path id="Path_894983" data-name="Path 894983" d="M26.518,23.612A.55.55,0,0,1,26.19,23a.091.091,0,0,0-.18-.022.733.733,0,0,0,.439.808c.111.035.181-.136.07-.171" transform="translate(-2.811 -2.197)" fill="#2566bb"/>
          <path id="Path_894984" data-name="Path 894984" d="M22.2,16.482c-.017-.01.019.01.025.013a.375.375,0,0,0,.087.029c.117.02.176-.054.211-.154.022-.061.118-.019.1.043a.306.306,0,0,1-.485.147c-.057-.035.011-.114.067-.079" transform="translate(-2.39 -1.568)" fill="#1e100c"/>
          <path id="Path_894985" data-name="Path 894985" d="M23.451,16.147a.352.352,0,0,0,.094.073c.111.06.181-.008.23-.108.029-.059.125-.016.1.043-.059.118-.156.221-.3.184a.43.43,0,0,1-.2-.133c-.045-.05.042-.108.086-.06" transform="translate(-2.524 -1.543)" fill="#1e100c"/>
          <path id="Path_894986" data-name="Path 894986" d="M23.658,15.558a.31.31,0,0,0-.385.188c-.035.074-.144.012-.111-.062a.43.43,0,0,1,.527-.25c.078.023.047.146-.031.124" transform="translate(-2.503 -1.479)" fill="#552b19"/>
          <path id="Path_894987" data-name="Path 894987" d="M22.491,15.943a.308.308,0,0,0-.421.075c-.054.062-.143-.029-.09-.09a.428.428,0,0,1,.574-.095c.069.043.006.154-.063.11" transform="translate(-2.374 -1.512)" fill="#552b19"/>
          <path id="Path_894988" data-name="Path 894988" d="M23.018,16.013a.65.65,0,0,0-.006.355c.054.163.238.231.343.363.144.182.01.3-.211.367-.054.017-.081-.051-.028-.068.5-.159-.1-.4-.178-.611A.687.687,0,0,1,22.931,16c.012-.046.1-.033.087.014" transform="translate(-2.476 -1.532)" fill="#dc8162"/>
          <path id="Path_894989" data-name="Path 894989" d="M22.709,17.469s-.021.439.339.431.387-.4.387-.4Z" transform="translate(-2.455 -1.676)" fill="#faffff"/>
          <path id="Path_894990" data-name="Path 894990" d="M21.944,17.332a.244.244,0,0,0,.314.146.249.249,0,0,0,.144-.319.244.244,0,0,0-.314-.146.249.249,0,0,0-.144.319" transform="translate(-2.37 -1.631)" fill="#dc8162"/>
          <path id="Path_894991" data-name="Path 894991" d="M24.179,16.619a.246.246,0,0,0-.347.049.254.254,0,0,0,.048.352.246.246,0,0,0,.347-.049.254.254,0,0,0-.048-.352" transform="translate(-2.571 -1.59)" fill="#dc8162"/>
          <path id="Path_894992" data-name="Path 894992" d="M54.555,9.615l-2.015,2.67.427-3.1Z" transform="translate(-5.68 -0.881)" fill="#1e2ad5"/>
          <path id="Path_894993" data-name="Path 894993" d="M61.555,9.228H52.929a1.674,1.674,0,0,1-1.652-1.466l-.355-2.7a1.682,1.682,0,0,1,1.652-1.913H61.91a1.682,1.682,0,0,1,1.652,1.913l-.355,2.7a1.674,1.674,0,0,1-1.652,1.466" transform="translate(-5.503 -0.302)" fill="#1e2ad5"/>
          <path id="Path_894994" data-name="Path 894994" d="M56.375,6.451a.578.578,0,1,1-.577-.585.582.582,0,0,1,.577.585" transform="translate(-5.969 -0.563)" fill="#f0f8ff"/>
          <path id="Path_894995" data-name="Path 894995" d="M58.518,6.451a.578.578,0,1,1-.578-.585.582.582,0,0,1,.578.585" transform="translate(-6.201 -0.563)" fill="#f0f8ff"/>
          <path id="Path_894996" data-name="Path 894996" d="M60.661,6.451a.578.578,0,1,1-.577-.585.582.582,0,0,1,.577.585" transform="translate(-6.433 -0.563)" fill="#f0f8ff"/>
          <path id="Path_894997" data-name="Path 894997" d="M18.832,9.939h6.932A3.323,3.323,0,0,0,29.054,6.6V3.335A3.323,3.323,0,0,0,25.764,0H18.832a3.323,3.323,0,0,0-3.29,3.335V6.6a3.323,3.323,0,0,0,3.29,3.335" transform="translate(-1.68 0)" fill="#685700"/>
          <path id="Path_894998" data-name="Path 894998" d="M27.6,10.594v1.779l-2.653-1.779Z" transform="translate(-2.697 -1.016)" fill="#685700"/>
          <path id="Path_894999" data-name="Path 894999" d="M25.268,5.408a.83.83,0,1,0,.83-.842.836.836,0,0,0-.83.842" transform="translate(-2.731 -0.438)" fill="#f0f8ff"/>
          <path id="Path_895000" data-name="Path 895000" d="M22.185,5.408a.83.83,0,1,0,.83-.842.836.836,0,0,0-.83.842" transform="translate(-2.398 -0.438)" fill="#f0f8ff"/>
          <path id="Path_895001" data-name="Path 895001" d="M19.1,5.408a.83.83,0,1,0,.83-.842.836.836,0,0,0-.83.842" transform="translate(-2.065 -0.438)" fill="#f0f8ff"/>
          <path id="Path_895002" data-name="Path 895002" d="M62.25,43.361l-2.531,3.354.537-3.9Z" transform="translate(-6.456 -4.108)" fill="#f6ae5c"/>
          <path id="Path_895003" data-name="Path 895003" d="M71.045,42.876H60.207a2.1,2.1,0,0,1-2.075-1.842l-.446-3.389a2.112,2.112,0,0,1,2.075-2.4h11.73a2.113,2.113,0,0,1,2.075,2.4l-.446,3.389a2.1,2.1,0,0,1-2.075,1.842" transform="translate(-6.234 -3.381)" fill="#f6ae5c"/>
          <path id="Path_895004" data-name="Path 895004" d="M64.536,39.386a.726.726,0,1,1-.725-.735.73.73,0,0,1,.725.735" transform="translate(-6.819 -3.708)" fill="#f0f8ff"/>
          <path id="Path_895005" data-name="Path 895005" d="M67.229,39.386a.726.726,0,1,1-.726-.735.731.731,0,0,1,.726.735" transform="translate(-7.11 -3.708)" fill="#f0f8ff"/>
          <path id="Path_895006" data-name="Path 895006" d="M69.921,39.386a.726.726,0,1,1-.725-.735.73.73,0,0,1,.725.735" transform="translate(-7.402 -3.708)" fill="#f0f8ff"/>
        </g>
      </g>
    </g>
  </g>
</svg>
