<svg xmlns="http://www.w3.org/2000/svg" xmlns:xlink="http://www.w3.org/1999/xlink" width="178" height="178" viewBox="0 0 178 178">
  <defs>
    <clipPath id="clip-path">
      <path id="Path_896183" data-name="Path 896183" d="M71.966,12.555c-6.643,5.585-24.359,6.953-24.359,6.953S29.892,18.14,23.249,12.555,6.741,7.2,2.312,12.1C1.121,13.417,0,17,0,21.657v.056A31.966,31.966,0,0,0,6.49,40.82c6.292,8.372,17.062,16.644,41.117,16.644S82.433,49.192,88.724,40.82C97.768,28.786,95.514,14.989,92.9,12.1A12.723,12.723,0,0,0,83.39,8.4a17.91,17.91,0,0,0-11.424,4.16" transform="translate(0 -8.394)" fill="none"/>
    </clipPath>
    <linearGradient id="linear-gradient" y1="1" x2="0.009" y2="1" gradientUnits="objectBoundingBox">
      <stop offset="0" stop-color="#c0b3a7"/>
      <stop offset="0.505" stop-color="#e2dcd6"/>
      <stop offset="1" stop-color="#c3b5aa"/>
    </linearGradient>
    <clipPath id="clip-path-2">
      <rect id="Rectangle_408030" data-name="Rectangle 408030" width="95.215" height="57.464" fill="none"/>
    </clipPath>
    <clipPath id="clip-path-3">
      <path id="Path_896191" data-name="Path 896191" d="M50.966,0A16.635,16.635,0,0,0,48.7.154C44.377.747,35.226,2.258,33.9,4.578c-1.75,3.057-4.959,20.32-4.959,20.32s5.251,6.5,22.028,6.5,22.028-6.5,22.028-6.5-3.21-17.263-4.96-20.32C66.7,2.258,57.553.747,53.225.154A16.632,16.632,0,0,0,50.966,0Z" transform="translate(-28.938)" fill="none"/>
    </clipPath>
    <linearGradient id="linear-gradient-2" x1="-0.58" y1="1.83" x2="-0.56" y2="1.83" xlink:href="#linear-gradient"/>
  </defs>
  <g id="Group_1117929" data-name="Group 1117929" transform="translate(-360.785 -4121.084)">
    <g id="Group_1115325" data-name="Group 1115325" transform="translate(360.785 4121.085)">
      <path id="Path_882862" data-name="Path 882862" d="M89,0A89.047,89.047,0,1,1,0,89,89,89,0,0,1,89,0Z" transform="translate(0 -0.001)" fill="#f6ae5c"/>
      <path id="Path_882863" data-name="Path 882863" d="M78.668,0A78.668,78.668,0,1,1,0,78.668,78.668,78.668,0,0,1,78.668,0Z" transform="translate(10.332 10.331)" fill="#f3f9ff"/>
    </g>
    <g id="Group_1115326" data-name="Group 1115326" transform="translate(399.785 4160.085)">
      <circle id="Ellipse_11769" data-name="Ellipse 11769" cx="47.5" cy="47.5" r="47.5" transform="translate(-0.074 1.915)" fill="#ffc811"/>
      <rect id="Rectangle_401104" data-name="Rectangle 401104" width="99.117" height="100.574" fill="none"/>
      <g id="Group_1117527" data-name="Group 1117527" transform="translate(-0.074 20.915)">
        <g id="Group_1117520" data-name="Group 1117520" transform="translate(0 8.394)">
          <g id="Group_1117519" data-name="Group 1117519" clip-path="url(#clip-path)">
            <rect id="Rectangle_408029" data-name="Rectangle 408029" width="97.768" height="50.494" transform="translate(0 -1.424)" fill="url(#linear-gradient)"/>
          </g>
        </g>
        <g id="Group_1117522" data-name="Group 1117522" transform="translate(0 0)">
          <g id="Group_1117521" data-name="Group 1117521" clip-path="url(#clip-path-2)">
            <path id="Path_896184" data-name="Path 896184" d="M92.9,12.1c-4.429-4.9-14.293-5.129-20.936.456-.251.211-.519.415-.8.614,6-3.858,14.088-3.42,17.861.521,2.389,2.495,4.45,14.4-3.82,24.79-5.753,7.226-15.6,14.365-37.6,14.365s-31.847-7.139-37.6-14.365C1.737,28.093,3.8,16.185,6.186,13.69c3.773-3.941,11.862-4.379,17.862-.521-.281-.2-.549-.4-.8-.614C16.605,6.97,6.741,7.2,2.312,12.1-.3,14.989-2.553,28.786,6.49,40.82c6.291,8.372,17.062,16.644,41.117,16.644S82.433,49.192,88.724,40.82C97.768,28.786,95.514,14.989,92.9,12.1" transform="translate(0 0)" fill="#554b54"/>
            <path id="Path_896185" data-name="Path 896185" d="M50.868,20.085s16.2-1.181,22.276-6c.228-.181.462-.353.7-.52-7.427,4.743-22.973,5.944-22.973,5.944s-15.547-1.2-22.973-5.944c.236.167.47.339.7.52,6.076,4.82,22.276,6,22.276,6" transform="translate(-3.261 0)" fill="#554b54"/>
            <path id="Path_896186" data-name="Path 896186" d="M85.7,15.574c-3.611-3.5-11.654-3.667-17.07.326-.2.151-.423.3-.652.439,4.892-2.758,11.486-2.445,14.563.373,1.947,1.783,3.628,10.3-3.115,17.723C74.737,39.6,66.706,44.706,48.771,44.706S22.8,39.6,18.114,34.435C11.371,27.009,13.052,18.5,15,16.712c3.078-2.818,9.672-3.131,14.565-.373-.23-.143-.449-.288-.652-.439-5.418-3.993-13.46-3.83-17.071-.326C9.71,17.64,7.874,27.5,15.247,36.108c5.129,5.986,13.911,11.9,33.524,11.9s28.395-5.914,33.524-11.9c7.373-8.6,5.535-18.468,3.406-20.534" transform="translate(-1.164 0)" fill="#554b54"/>
            <path id="Path_896187" data-name="Path 896187" d="M51.43,21.284s13.208-.844,18.161-4.291c.186-.129.377-.252.57-.371-6.055,3.391-18.731,4.249-18.731,4.249S38.754,20.013,32.7,16.622c.193.119.383.242.57.371,4.952,3.447,18.161,4.291,18.161,4.291" transform="translate(-3.823 0)" fill="#554b54"/>
            <path id="Path_896188" data-name="Path 896188" d="M79.57,18.086c-2.914-2.352-9.406-2.461-13.778.219-.165.1-.342.2-.526.294,3.949-1.851,9.271-1.641,11.755.25,1.572,1.2,2.928,6.911-2.514,11.895-3.786,3.467-10.268,6.893-24.744,6.893S28.8,34.211,25.017,30.744c-5.441-4.984-4.085-10.7-2.514-11.895,2.484-1.891,7.806-2.1,11.755-.25-.185-.1-.361-.193-.525-.294-4.372-2.68-10.864-2.571-13.778-.219-1.719,1.387-3.2,8.007,2.75,13.781,4.139,4.017,11.228,7.986,27.058,7.986s22.919-3.969,27.059-7.986c5.951-5.774,4.468-12.394,2.749-13.781" transform="translate(-2.155 0)" fill="#554b54"/>
            <path id="Path_896189" data-name="Path 896189" d="M51.908,21.918s10.661-.566,14.659-2.879c.15-.087.3-.17.459-.25-4.887,2.276-15.118,2.852-15.118,2.852s-10.231-.576-15.118-2.852c.155.08.309.163.459.25,4,2.313,14.659,2.879,14.659,2.879" transform="translate(-4.301 0)" fill="#554b54"/>
            <path id="Path_896190" data-name="Path 896190" d="M74.561,22.956a3.615,3.615,0,0,0-1.258-.93c-1.794-.875-3.788-.481-5.7-.368a40.729,40.729,0,0,1-4.879,0,13.242,13.242,0,0,1-1.922.856c-1.369.491-2.814.633-4.213.989-.263.066-.612.133-.969.218a4.881,4.881,0,0,1-3.666,1.66,4.487,4.487,0,0,1-.85-.084q-.376.073-.755.135-.379-.061-.756-.135a4.471,4.471,0,0,1-.849.084,4.879,4.879,0,0,1-3.666-1.66c-.357-.085-.706-.152-.969-.218-1.4-.356-2.844-.5-4.213-.989a13.242,13.242,0,0,1-1.922-.856,40.729,40.729,0,0,1-4.879,0c-1.915-.113-3.909-.507-5.7.368a3.615,3.615,0,0,0-1.258.93,3.253,3.253,0,0,0-.374,3.128c.731,1.94,2.96,3.476,4.593,4.517a22.846,22.846,0,0,0,2.377,1.319,26.565,26.565,0,0,0,2.819,1.157,32.733,32.733,0,0,0,3.316.949c1.279.3,2.572.523,3.871.7,1.488.2,2.985.326,4.483.4,1.042.051,2.086.074,3.129.077s2.087-.026,3.129-.077c1.5-.074,2.995-.2,4.483-.4,1.3-.173,2.592-.4,3.871-.7a32.733,32.733,0,0,0,3.316-.949,26.565,26.565,0,0,0,2.819-1.157A22.937,22.937,0,0,0,70.342,30.6c1.633-1.041,3.862-2.577,4.593-4.517a3.253,3.253,0,0,0-.374-3.128" transform="translate(-2.985 0)" fill="#554b54"/>
          </g>
        </g>
        <g id="Group_1117524" data-name="Group 1117524" transform="translate(25.555)">
          <g id="Group_1117523" data-name="Group 1117523" clip-path="url(#clip-path-3)">
            <rect id="Rectangle_408031" data-name="Rectangle 408031" width="44.056" height="31.401" transform="translate(0 0)" fill="url(#linear-gradient-2)"/>
          </g>
        </g>
        <g id="Group_1117526" data-name="Group 1117526" transform="translate(0 0)">
          <g id="Group_1117525" data-name="Group 1117525" clip-path="url(#clip-path-2)">
            <path id="Path_896192" data-name="Path 896192" d="M40.586,25.974c.081-.534.162-1.079.226-1.636a.327.327,0,0,0-.221-.371,18.936,18.936,0,0,1-6.569-3.139l0,0c-.172-.125-.385-.01-.433.23-.335,1.684-.581,3.031-.665,3.5a.4.4,0,0,0,.086.33c.474.551,2.381,2.468,6.916,3.544a.315.315,0,0,0,.366-.285c.089-.7.184-1.427.3-2.171" transform="translate(-3.848 0)" fill="#554b54"/>
            <path id="Path_896193" data-name="Path 896193" d="M41.607,19.712c.084-.554.167-1.118.235-1.693a.325.325,0,0,0-.214-.374,17.2,17.2,0,0,1-6.39-2.987l0,0c-.167-.121-.377,0-.427.25-.356,1.735-.62,3.129-.711,3.614a.418.418,0,0,0,.079.338c.457.552,2.3,2.468,6.76,3.421a.33.33,0,0,0,.363-.308c.094-.734.193-1.485.309-2.258" transform="translate(-3.986 0)" fill="#554b54"/>
            <path id="Path_896194" data-name="Path 896194" d="M42.087,15.656c.155.03.316-.126.343-.33.1-.756.2-1.529.319-2.323.086-.568.17-1.145.24-1.733A.314.314,0,0,0,42.8,10.9,14.429,14.429,0,0,1,36.919,8.09l0,0c-.152-.117-.35.016-.4.267-.367,1.773-.644,3.2-.74,3.7a.44.44,0,0,0,.067.342c.414.548,2.1,2.445,6.246,3.258" transform="translate(-4.182 0)" fill="#554b54"/>
            <path id="Path_896195" data-name="Path 896195" d="M66.212,25.974c-.082-.534-.162-1.079-.227-1.636a.327.327,0,0,1,.221-.371,18.944,18.944,0,0,0,6.569-3.139l0,0c.172-.125.385-.01.433.23.336,1.684.581,3.031.666,3.5a.407.407,0,0,1-.086.33c-.475.551-2.382,2.468-6.916,3.544a.315.315,0,0,1-.367-.285c-.089-.7-.184-1.427-.3-2.171" transform="translate(-7.714 0)" fill="#554b54"/>
            <path id="Path_896196" data-name="Path 896196" d="M65.21,19.712c-.084-.554-.167-1.118-.235-1.693a.325.325,0,0,1,.214-.374,17.2,17.2,0,0,0,6.39-2.987l0,0c.167-.121.377,0,.427.25.356,1.735.62,3.129.711,3.614a.418.418,0,0,1-.079.338c-.457.552-2.3,2.468-6.76,3.421a.33.33,0,0,1-.363-.308c-.094-.734-.193-1.485-.309-2.258" transform="translate(-7.596 0)" fill="#554b54"/>
            <path id="Path_896197" data-name="Path 896197" d="M64.8,15.656c-.155.03-.316-.126-.343-.33-.1-.756-.2-1.529-.319-2.323-.086-.568-.17-1.145-.241-1.733a.315.315,0,0,1,.193-.372A14.429,14.429,0,0,0,69.967,8.09l0,0c.152-.117.35.016.4.267.368,1.773.645,3.2.741,3.7a.44.44,0,0,1-.067.342c-.414.548-2.1,2.445-6.246,3.258" transform="translate(-7.47 0)" fill="#554b54"/>
            <path id="Path_896198" data-name="Path 896198" d="M51.646,8.845c6.734,0,14.34-1.308,16.689-3.177a1.536,1.536,0,0,0,.353-1.089C67.36,2.259,58.209.748,53.88.155a16.6,16.6,0,0,0-4.52,0c-4.328.593-13.478,2.1-14.808,4.424-.069.122.691.814,1.22,1.023A44.122,44.122,0,0,0,51.646,8.845" transform="translate(-4.039 0)" fill="#ebe7e3"/>
            <path id="Path_896199" data-name="Path 896199" d="M64.706,4.057C63.736,2.5,57.052,1.48,53.891,1.082a12.743,12.743,0,0,0-3.234,0C47.5,1.48,40.814,2.5,39.842,4.057a.979.979,0,0,0,.258.732c1.714,1.256,7.261,2.459,12.174,2.461s10.46-1.2,12.174-2.461a.979.979,0,0,0,.258-.732m-3.088.266c-1.316.862-5.572,1.687-9.344,1.689s-8.029-.827-9.344-1.689a.627.627,0,0,1-.2-.5c.745-1.071,5.874-1.768,8.3-2.042a11.031,11.031,0,0,1,2.481,0c2.427.274,7.556.971,8.3,2.042a.627.627,0,0,1-.2.5" transform="translate(-4.657 0)" fill="#554b54"/>
            <path id="Path_896200" data-name="Path 896200" d="M59.044,3.8c-.461-.594-3.636-.981-5.137-1.133q-.383-.039-.767-.04t-.767.04c-1.5.152-4.676.539-5.137,1.133a.332.332,0,0,0,.123.28,15.622,15.622,0,0,0,5.782.938,15.622,15.622,0,0,0,5.782-.938.332.332,0,0,0,.123-.28m-1.467.1a13.276,13.276,0,0,1-4.437.644A13.276,13.276,0,0,1,48.7,3.9c-.069-.036-.113-.169-.094-.192.354-.408,2.791-.674,3.943-.778.2-.018.392-.026.589-.027s.394.009.589.027c1.152.1,3.589.37,3.942.778.019.023-.025.156-.094.192" transform="translate(-5.522 0)" fill="#554b54"/>
            <path id="Path_896201" data-name="Path 896201" d="M51.548,16.556c1.275.128,1.121-1.055.712-1.224s-1.417-.317-1.254-1.374c.142-.925,1.318-.49,1.489-.873a.9.9,0,0,0-.277-1.138.936.936,0,0,0-.708-.079c-1.066.245-2.058.794-2.1,1.953-.047,1.464.495,2.57,2.134,2.735" transform="translate(-5.777 0)" fill="#554b54"/>
            <path id="Path_896202" data-name="Path 896202" d="M55.842,13.958c.163,1.057-.846,1.2-1.254,1.374s-.564,1.352.712,1.224c1.639-.165,2.181-1.272,2.134-2.735-.038-1.16-1.03-1.708-2.1-1.954a.936.936,0,0,0-.708.079.9.9,0,0,0-.277,1.139c.17.383,1.347-.052,1.489.873" transform="translate(-6.344 0)" fill="#554b54"/>
            <path id="Path_896203" data-name="Path 896203" d="M53.558,15.012a.657.657,0,1,0-.576-.652.618.618,0,0,0,.576.652" transform="translate(-6.195 0)" fill="#554b54"/>
            <path id="Path_896204" data-name="Path 896204" d="M51.548,23.039c1.275.128,1.121-1.055.712-1.224s-1.417-.317-1.254-1.374c.142-.925,1.318-.49,1.489-.873a.9.9,0,0,0-.277-1.138.936.936,0,0,0-.708-.079c-1.066.245-2.058.794-2.1,1.953-.047,1.464.495,2.57,2.134,2.735" transform="translate(-5.777 0)" fill="#554b54"/>
            <path id="Path_896205" data-name="Path 896205" d="M55.338,18.351a.936.936,0,0,0-.708.079.9.9,0,0,0-.277,1.138c.17.383,1.346-.052,1.489.874C56,21.5,55,21.646,54.587,21.815s-.563,1.352.713,1.224c1.639-.164,2.181-1.271,2.134-2.735-.037-1.159-1.03-1.708-2.095-1.953" transform="translate(-6.344 0)" fill="#554b54"/>
            <path id="Path_896206" data-name="Path 896206" d="M52.982,20.819a.58.58,0,1,0,.576-.652.618.618,0,0,0-.576.652" transform="translate(-6.195 0)" fill="#554b54"/>
            <path id="Path_896207" data-name="Path 896207" d="M52.261,28.3c-.41-.169-1.418-.317-1.256-1.374.143-.925,1.319-.49,1.49-.873a.9.9,0,0,0-.278-1.138.936.936,0,0,0-.708-.079c-1.065.245-2.058.793-2.095,1.953-.047,1.464.495,2.57,2.134,2.735,1.275.128,1.121-1.055.713-1.224" transform="translate(-5.777 0)" fill="#554b54"/>
            <path id="Path_896208" data-name="Path 896208" d="M55.338,24.834a.936.936,0,0,0-.708.079.9.9,0,0,0-.277,1.138c.17.383,1.346-.052,1.489.874C56,27.981,55,28.129,54.587,28.3s-.563,1.352.713,1.224c1.639-.164,2.181-1.271,2.134-2.735-.037-1.159-1.03-1.708-2.095-1.953" transform="translate(-6.344 0)" fill="#554b54"/>
            <path id="Path_896209" data-name="Path 896209" d="M53.558,26.556a.612.612,0,1,0,.576.61.594.594,0,0,0-.576-.61" transform="translate(-6.195 0)" fill="#554b54"/>
            <path id="Path_896210" data-name="Path 896210" d="M44.952,13.654,46,16.2l1.545-2.027-.991-2.4Z" transform="translate(-5.256 0)" fill="#554b54"/>
            <path id="Path_896211" data-name="Path 896211" d="M44.232,20.018l1.052,2.549,1.545-2.026-.99-2.4Z" transform="translate(-5.172 0)" fill="#554b54"/>
            <path id="Path_896212" data-name="Path 896212" d="M43.513,26.381l1.052,2.549L46.11,26.9l-.991-2.4Z" transform="translate(-5.087 0)" fill="#554b54"/>
            <path id="Path_896213" data-name="Path 896213" d="M61.972,13.654l-1.606-1.878-.991,2.4L60.92,16.2Z" transform="translate(-6.942 0)" fill="#554b54"/>
            <path id="Path_896214" data-name="Path 896214" d="M62.692,20.018,61.085,18.14l-.991,2.4,1.545,2.026Z" transform="translate(-7.026 0)" fill="#554b54"/>
            <path id="Path_896215" data-name="Path 896215" d="M61.8,24.5l-.99,2.4,1.545,2.027,1.053-2.549Z" transform="translate(-7.11 0)" fill="#554b54"/>
          </g>
        </g>
      </g>
    </g>
  </g>
</svg>
