<svg xmlns="http://www.w3.org/2000/svg" xmlns:xlink="http://www.w3.org/1999/xlink" width="190" height="190" viewBox="0 0 190 190">
  <defs>
    <clipPath id="clip-path">
      <rect id="Rectangle_408238" data-name="Rectangle 408238" width="154.044" height="147.11" fill="none"/>
    </clipPath>
  </defs>
  <g id="Group_1117933" data-name="Group 1117933" transform="translate(-179.711 -12833)">
    <rect id="Rectangle_408239" data-name="Rectangle 408239" width="190" height="190" rx="17" transform="translate(179.711 12833)" fill="#ffc811"/>
    <g id="Group_1117798" data-name="Group 1117798" transform="translate(197.711 12854)">
      <g id="Group_1117797" data-name="Group 1117797" clip-path="url(#clip-path)">
        <path id="Path_918597" data-name="Path 918597" d="M147.11,73.556A73.555,73.555,0,1,1,73.555,0,73.554,73.554,0,0,1,147.11,73.556" transform="translate(0 -0.001)" fill="#ffe9a2"/>
        <path id="Path_918598" data-name="Path 918598" d="M21.366,135.654a2.437,2.437,0,0,1,1.886-1.607c4.718-.684,4.2,10.535,7.258,12.328,2.757,1.616,11.1,3.589,14.58,4.491a178.324,178.324,0,0,0,43.2,6c.732-.177,5.512-11.728,6.791-13.449a4.009,4.009,0,0,1,2.388-1.822c.893-.081,8.931,6.388,10.818,7.527,1.185.715,2.447,1.264,3.666,1.9,15.252,7.909,36.526,8.3,49,21.721,1.656,1.781,2.011,10.453.845,11.967-1.5,1.942-20.122,4.588-23.629,4.977-29.186,3.237-60.272,2.242-89.524.012-7.8-.595-15.981-.677-23.689-2.268-6.169-1.273-7.771-1.373-8.346-8.076-.779-9.064,1.268-17.194,4.761-25.417.73-1.716,3.039-4.971,3.174-6.413.276-2.939-3.842-8.956-3.176-11.864m133.492,39.194c-11.207-11.2-27.726-11.287-41.3-17.227a80.609,80.609,0,0,1-10.246-5.646c-.993-.622-3.567-3.1-4.345-3.108-1.683-.024-13.032,25.445-15.091,28.631,23.645,1.1,47.555.72,70.983-2.65m-69.4-12.7a243.774,243.774,0,0,1-28.725-3.324c-9.547-1.781-18.726-4.92-28.128-7.219a39.738,39.738,0,0,0-6.715,22.2l55.353,3.719,1.278-.863Zm71.514,18.011c-25.564,3.276-51.336,2.672-77.1,2.668-1.078.058-2.127-.512-3.162-.546-18.229-.609-36.373-1.828-54.523-3.191-1.523,2.958,2.762,3.195,4.88,3.568,26.324,4.645,60.966,4.386,87.767,3.3,12.3-.5,29.467-.721,41.084-4.5.918-.3,1.263-.037,1.05-1.3" transform="translate(-8.435 -68.75)" fill="#492e28"/>
        <path id="Path_918599" data-name="Path 918599" d="M263.3,138.822c7.556-.558,10.38,10.15,3.461,13.239-10.116,4.517-13.831-12.474-3.461-13.239" transform="translate(-131.897 -71.204)" fill="#4a2f29"/>
        <path id="Path_918600" data-name="Path 918600" d="M220.238,56.6c2.991-.643,8.873,6.973,4.87,7.792-3.609.739-9.467-6.8-4.87-7.792" transform="translate(-112.114 -29.014)" fill="#4f352f"/>
        <path id="Path_918601" data-name="Path 918601" d="M76.688,73.77c7.712-1.125,11.2,9.859,3.862,13.132-9.873,4.4-13.8-11.683-3.862-13.132m-.736,8.54c2.253,2.252,5.428-1.475,3.092-3.333a2.276,2.276,0,0,0-3.092,3.333" transform="translate(-36.375 -37.802)" fill="#4a2f29"/>
        <path id="Path_918602" data-name="Path 918602" d="M202.907,57.222c1.97,2.253-3.371,7.5-5.45,7.2-5.871-.856,2.7-10.34,5.45-7.2" transform="translate(-100.261 -29.028)" fill="#4e352f"/>
        <path id="Path_918603" data-name="Path 918603" d="M201.666,44.264c-2.992.643-8.873-6.973-4.87-7.792,3.609-.739,9.467,6.8,4.87,7.792" transform="translate(-100.262 -18.684)" fill="#4f352f"/>
        <path id="Path_918604" data-name="Path 918604" d="M219.016,43.676c-1.97-2.253,3.371-7.5,5.45-7.2,5.871.856-2.7,10.34-5.45,7.2" transform="translate(-112.133 -18.707)" fill="#4e352f"/>
        <path id="Path_918605" data-name="Path 918605" d="M70.246,35.957a2.517,2.517,0,0,1-4.292-1.574c-.218-5.249,7.451-1.573,4.292,1.574" transform="translate(-33.832 -16.284)" fill="#503630"/>
        <path id="Path_918606" data-name="Path 918606" d="M151.223,129.649c4.323-1.277,4.413,5.974.123,4.582-2.182-.709-1.912-4.053-.123-4.582" transform="translate(-76.843 -66.431)" fill="#513832"/>
        <path id="Path_918607" data-name="Path 918607" d="M225.89,190.49c-23.428,3.37-47.338,3.75-70.983,2.65,2.059-3.187,13.408-28.655,15.091-28.631.778.011,3.352,2.486,4.345,3.108a80.64,80.64,0,0,0,10.246,5.646c13.574,5.94,30.094,6.028,41.3,17.227" transform="translate(-79.466 -84.392)" fill="#c6d7d8"/>
        <path id="Path_918608" data-name="Path 918608" d="M91.2,180.664l-6.938,14.51-1.278.863-55.352-3.719a39.734,39.734,0,0,1,6.715-22.2c9.4,2.3,18.581,5.439,28.128,7.219A243.874,243.874,0,0,0,91.2,180.664" transform="translate(-14.174 -87.27)" fill="#fcfcfc"/>
        <path id="Path_918609" data-name="Path 918609" d="M162.7,227.626c.213,1.266-.132,1-1.05,1.3-11.617,3.778-28.785,4-41.084,4.5-26.8,1.082-61.443,1.341-87.767-3.3-2.118-.374-6.4-.61-4.88-3.568,18.15,1.363,36.293,2.582,54.523,3.191,1.035.035,2.084.6,3.162.546,25.76,0,51.532.608,77.1-2.668" transform="translate(-14.158 -116.222)" fill="#a97965"/>
      </g>
    </g>
  </g>
</svg>
