<svg xmlns="http://www.w3.org/2000/svg" xmlns:xlink="http://www.w3.org/1999/xlink" width="70" height="70" viewBox="0 0 70 70">
  <defs>
    <clipPath id="clip-path">
      <rect id="Rectangle_407550" data-name="Rectangle 407550" width="45.251" height="37.168" fill="#050c68"/>
    </clipPath>
  </defs>
  <g id="Group_1117159" data-name="Group 1117159" transform="translate(-269 -958)">
    <circle id="Ellipse_5614" data-name="Ellipse 5614" cx="35" cy="35" r="35" transform="translate(269 958)" fill="#fff"/>
    <g id="Group_1117300" data-name="Group 1117300" transform="translate(281.46 974.272)">
      <g id="Group_1117299" data-name="Group 1117299" clip-path="url(#clip-path)">
        <path id="Path_895681" data-name="Path 895681" d="M.7.39A1.655,1.655,0,0,1,1.723.043L38.136,0a1.863,1.863,0,0,1,1.745,1.91L39.8,26.99a1.7,1.7,0,0,1-.375,1.061l-.078.1a1.705,1.705,0,0,1-1.326.638l-36.175.081a1.7,1.7,0,0,1-1.708-1.7L0,1.745A1.659,1.659,0,0,1,.7.39M24.01,5.49c-.646.226-.456,1.661,0,1.661h9.966a1.049,1.049,0,0,0,0-1.661Zm0,4.2c-.646.226-.456,1.661,0,1.661h9.966a1.049,1.049,0,0,0,0-1.661Zm0,4.4c-.646.226-.456,1.661,0,1.661h9.966a1.049,1.049,0,0,0,0-1.661Zm0,5.333c-.646.226-.456,1.661,0,1.661h9.966a1.049,1.049,0,0,0,0-1.661ZM12.439,7.192c-10.6.4-8.258,17.012,2.13,14.269,8.247-2.177,6.271-14.582-2.13-14.269" transform="translate(0 0)" fill="#050c68"/>
        <path id="Path_895682" data-name="Path 895682" d="M32.39,83.651H67.021c1.584.005,1.578-.851,1.578-1.246V63.72h2.574c.987.085,1.086.579,1.088,1.736l0,23.266a1.815,1.815,0,0,1-1.74,1.582l-36.553,0a1.746,1.746,0,0,1-1.574-1.416Zm24,1.827a1.049,1.049,0,0,0,0,1.661h9.966c.542,0,.542-1.661,0-1.661Z" transform="translate(-27.01 -53.136)" fill="#050c68"/>
      </g>
    </g>
  </g>
</svg>
