<svg xmlns="http://www.w3.org/2000/svg" xmlns:xlink="http://www.w3.org/1999/xlink" width="400" height="652" viewBox="0 0 400 652">
  <defs>
    <clipPath id="clip-path">
      <path id="Path_608976" data-name="Path 608976" d="M5.214,0H393.786C397.218,0,400,1.63,400,8.918l-.784,634.165c0,7.287-2.782,8.918-6.214,8.918H6.429C3,652,.216,650.37.216,643.082L0,8.918C0,1.63,1.782,0,5.214,0Z" fill="#d9e6ff"/>
    </clipPath>
    <radialGradient id="radial-gradient" cx="0.5" cy="0.5" r="0.5" gradientUnits="objectBoundingBox">
      <stop offset="0" stop-color="#fff"/>
      <stop offset="0.679" stop-color="#fffffb"/>
      <stop offset="1" stop-color="#fffceb"/>
    </radialGradient>
    <clipPath id="clip-path-2">
      <rect id="Rectangle_406251" data-name="Rectangle 406251" width="130.843" height="102.722" fill="#685700"/>
    </clipPath>
    <clipPath id="clip-path-3">
      <rect id="Rectangle_406251-2" data-name="Rectangle 406251" width="104.604" height="82.123" fill="#685700"/>
    </clipPath>
    <clipPath id="clip-path-4">
      <rect id="Rectangle_406251-3" data-name="Rectangle 406251" width="105" height="82.434" fill="#685700"/>
    </clipPath>
    <clipPath id="clip-path-5">
      <rect id="Rectangle_408108" data-name="Rectangle 408108" width="125.124" height="153.859" fill="none"/>
    </clipPath>
    <clipPath id="clip-path-7">
      <rect id="Rectangle_408105" data-name="Rectangle 408105" width="2.577" height="2.727" fill="none"/>
    </clipPath>
    <clipPath id="clip-path-8">
      <rect id="Rectangle_408106" data-name="Rectangle 408106" width="1.42" height="2.627" fill="none"/>
    </clipPath>
    <clipPath id="clip-path-9">
      <rect id="Rectangle_408129" data-name="Rectangle 408129" width="155.455" height="167.749" fill="none"/>
    </clipPath>
    <clipPath id="clip-path-11">
      <rect id="Rectangle_408120" data-name="Rectangle 408120" width="16.458" height="25.686" fill="#afbefc"/>
    </clipPath>
    <clipPath id="clip-path-12">
      <rect id="Rectangle_408125" data-name="Rectangle 408125" width="4.254" height="4.766" fill="none"/>
    </clipPath>
    <clipPath id="clip-path-13">
      <rect id="Rectangle_408126" data-name="Rectangle 408126" width="2.283" height="2.284" fill="none"/>
    </clipPath>
    <clipPath id="clip-path-14">
      <rect id="Rectangle_408127" data-name="Rectangle 408127" width="0.7" height="1.947" fill="none"/>
    </clipPath>
    <clipPath id="clip-path-15">
      <rect id="Rectangle_408133" data-name="Rectangle 408133" width="79.769" height="126.398" fill="none"/>
    </clipPath>
    <clipPath id="clip-path-17">
      <rect id="Rectangle_408130" data-name="Rectangle 408130" width="71.265" height="69.4" fill="none"/>
    </clipPath>
    <clipPath id="clip-path-18">
      <rect id="Rectangle_408131" data-name="Rectangle 408131" width="39.657" height="38.117" fill="none"/>
    </clipPath>
  </defs>
  <g id="Group_1118039" data-name="Group 1118039" transform="translate(-2213.468 3384)">
    <g id="Group_1118038" data-name="Group 1118038">
      <g id="Mask_Group_1098656" data-name="Mask Group 1098656" transform="translate(2213.468 -3384)" clip-path="url(#clip-path)">
        <path id="Path_874294" data-name="Path 874294" d="M0,0H412.023V670.374H0Z" transform="translate(-5.809 -9.896)" fill="url(#radial-gradient)"/>
      </g>
      <path id="Path_919022" data-name="Path 919022" d="M9,0H221.5a9,9,0,0,1,9,9V68a9,9,0,0,1-9,9H9a9,9,0,0,1-9-9V9A9,9,0,0,1,9,0Z" transform="translate(2229.1 -3368.525)" fill="#f6ae5c"/>
      <path id="Path_919023" data-name="Path 919023" d="M9,0H184.227a9,9,0,0,1,9,9V70.586a9,9,0,0,1-9,9H9a9,9,0,0,1-9-9V9A9,9,0,0,1,9,0Z" transform="translate(2401.999 -2889)" fill="#f6ae5c"/>
      <path id="Path_919024" data-name="Path 919024" d="M6.973,17,8.949,5.625l3.547.008a4.705,4.705,0,0,1,2.969.8,2.488,2.488,0,0,1,.9,2.242A2.865,2.865,0,0,1,14.371,11.2a1.911,1.911,0,0,1,1.055.879,2.63,2.63,0,0,1,.32,1.52,3.291,3.291,0,0,1-1.262,2.5A5,5,0,0,1,11.34,17Zm3.156-4.953-.539,3.07,1.8.008a2.327,2.327,0,0,0,1.414-.418,1.658,1.658,0,0,0,.68-1.129,1.4,1.4,0,0,0-.191-1.1,1.269,1.269,0,0,0-1.012-.426Zm.281-1.656,1.555.016A2.475,2.475,0,0,0,13.383,10a1.575,1.575,0,0,0,.66-1.086q.2-1.375-1.445-1.383L10.91,7.523ZM21.707,17a2.281,2.281,0,0,1-.086-.766,2.863,2.863,0,0,1-2.156.922,2.594,2.594,0,0,1-1.84-.723,2.186,2.186,0,0,1-.684-1.746,2.527,2.527,0,0,1,1.16-2.121,5.266,5.266,0,0,1,2.965-.738l1.031.016.109-.508a1.764,1.764,0,0,0,.023-.492.846.846,0,0,0-.277-.574.955.955,0,0,0-.629-.215,1.345,1.345,0,0,0-.875.254,1.231,1.231,0,0,0-.461.777l-2.211.008a2.457,2.457,0,0,1,1.113-1.965A4.312,4.312,0,0,1,21.5,8.391a3.117,3.117,0,0,1,2.25.855,2.5,2.5,0,0,1,.68,2.121l-.648,4.047-.039.5a2.412,2.412,0,0,0,.133.938L23.871,17Zm-1.7-1.555a2.017,2.017,0,0,0,1.664-.828l.273-1.461-.766-.008a2.139,2.139,0,0,0-1.758.742,1.292,1.292,0,0,0-.242.633.75.75,0,0,0,.176.668A.891.891,0,0,0,20.012,15.445Zm8.906-.1a1.447,1.447,0,0,0,1.016-.332,1.632,1.632,0,0,0,.531-.926l2.07-.008a3.037,3.037,0,0,1-.559,1.6,3.394,3.394,0,0,1-1.344,1.109,3.847,3.847,0,0,1-1.77.375A3.123,3.123,0,0,1,26.426,16.1a3.965,3.965,0,0,1-.867-2.766l.023-.43.008-.086a5.284,5.284,0,0,1,1.391-3.27,3.761,3.761,0,0,1,2.914-1.16,3.047,3.047,0,0,1,2.27.934,3.3,3.3,0,0,1,.824,2.379H30.934a1.73,1.73,0,0,0-.3-1.07,1.128,1.128,0,0,0-.891-.422q-1.578-.047-1.914,2.3a7.782,7.782,0,0,0-.086,1.438Q27.824,15.32,28.918,15.344Zm8.125-1.711-1.023.891L35.59,17h-2.2L35.465,5h2.211l-1.141,6.516.43-.461,2.508-2.508H42.3l-3.7,3.633L40.957,17H38.543ZM45.3,15.344a1.447,1.447,0,0,0,1.016-.332,1.632,1.632,0,0,0,.531-.926l2.07-.008a3.037,3.037,0,0,1-.559,1.6,3.394,3.394,0,0,1-1.344,1.109,3.847,3.847,0,0,1-1.77.375A3.123,3.123,0,0,1,42.809,16.1a3.965,3.965,0,0,1-.867-2.766l.023-.43.008-.086a5.284,5.284,0,0,1,1.391-3.27,3.761,3.761,0,0,1,2.914-1.16,3.047,3.047,0,0,1,2.27.934,3.3,3.3,0,0,1,.824,2.379H47.316a1.73,1.73,0,0,0-.3-1.07,1.128,1.128,0,0,0-.891-.422q-1.578-.047-1.914,2.3a7.782,7.782,0,0,0-.086,1.438Q44.207,15.32,45.3,15.344ZM54.66,17a2.281,2.281,0,0,1-.086-.766,2.863,2.863,0,0,1-2.156.922,2.594,2.594,0,0,1-1.84-.723,2.186,2.186,0,0,1-.684-1.746,2.527,2.527,0,0,1,1.16-2.121,5.266,5.266,0,0,1,2.965-.738l1.031.016.109-.508a1.764,1.764,0,0,0,.023-.492.846.846,0,0,0-.277-.574.955.955,0,0,0-.629-.215,1.345,1.345,0,0,0-.875.254,1.231,1.231,0,0,0-.461.777l-2.211.008a2.457,2.457,0,0,1,1.113-1.965,4.312,4.312,0,0,1,2.613-.738,3.117,3.117,0,0,1,2.25.855,2.5,2.5,0,0,1,.68,2.121l-.648,4.047-.039.5a2.412,2.412,0,0,0,.133.938L56.824,17Zm-1.7-1.555a2.017,2.017,0,0,0,1.664-.828l.273-1.461-.766-.008a2.139,2.139,0,0,0-1.758.742,1.292,1.292,0,0,0-.242.633.75.75,0,0,0,.176.668A.891.891,0,0,0,52.965,15.445Zm10.1-.828q.125-.625-.867-.906l-.711-.18q-2.523-.7-2.453-2.453a2.428,2.428,0,0,1,1.059-1.949,3.942,3.942,0,0,1,2.457-.738,3.536,3.536,0,0,1,2.313.758,2.5,2.5,0,0,1,.9,1.977l-2.187-.008a.963.963,0,0,0-1.078-1.1,1.552,1.552,0,0,0-.895.258,1.061,1.061,0,0,0-.465.7q-.117.625.945.883l.313.07a6.285,6.285,0,0,1,1.648.59,2.488,2.488,0,0,1,.879.824,2.04,2.04,0,0,1,.285,1.18,2.251,2.251,0,0,1-.52,1.406,3.18,3.18,0,0,1-1.359.93,4.736,4.736,0,0,1-1.816.3,3.568,3.568,0,0,1-2.344-.809,2.607,2.607,0,0,1-.953-2.051l2.078.016a1.142,1.142,0,0,0,1.3,1.227,1.845,1.845,0,0,0,1-.25A.987.987,0,0,0,63.066,14.617Zm7.625-8.148-.367,2.078H71.73L71.441,10.2H70.035l-.719,4.234a1.077,1.077,0,0,0,.063.609q.109.211.531.227.125.008.672-.039l-.156,1.727a3.706,3.706,0,0,1-1.266.18,1.985,1.985,0,0,1-1.617-.68,2.456,2.456,0,0,1-.437-1.8l.727-4.461h-1.2l.289-1.656h1.2l.359-2.078ZM73.871,17H71.652l1.469-8.453H75.34ZM73.379,6.4a1.1,1.1,0,0,1,.344-.867,1.323,1.323,0,0,1,1.734-.039,1.1,1.1,0,0,1,.383.828,1.132,1.132,0,0,1-.324.844,1.215,1.215,0,0,1-.887.375,1.235,1.235,0,0,1-.863-.3A1.091,1.091,0,0,1,73.379,6.4Zm5.844,2.141-.187,1A3.042,3.042,0,0,1,81.5,8.391a2.028,2.028,0,0,1,1.766.875,3.526,3.526,0,0,1,.414,2.359L82.785,17h-2.2l.906-5.4a2.528,2.528,0,0,0,.016-.555.9.9,0,0,0-1-.82,1.9,1.9,0,0,0-1.555.8L77.895,17h-2.2L77.16,8.547Zm5.711,4.227a5.849,5.849,0,0,1,1.277-3.184,3.242,3.242,0,0,1,2.629-1.2,2.37,2.37,0,0,1,2.016.977l.289-.82,2.023.008-1.383,8.164a3.983,3.983,0,0,1-1.437,2.672,4.471,4.471,0,0,1-3,.953,4.168,4.168,0,0,1-1.672-.379,3.575,3.575,0,0,1-1.312-1l1.094-1.344a2.349,2.349,0,0,0,1.844.961,2.166,2.166,0,0,0,1.469-.449,2.4,2.4,0,0,0,.828-1.355l.125-.508a2.749,2.749,0,0,1-2.07.891,2.428,2.428,0,0,1-1.961-.918,3.947,3.947,0,0,1-.8-2.348A7.89,7.89,0,0,1,84.934,12.766Zm2.164.927a2.02,2.02,0,0,0,.309,1.178,1.08,1.08,0,0,0,.895.466,1.972,1.972,0,0,0,1.594-.767l.656-3.583a1.3,1.3,0,0,0-1.242-.767,1.728,1.728,0,0,0-1.43.681,3.561,3.561,0,0,0-.734,1.87A8.213,8.213,0,0,0,87.1,13.693Zm7.3,2.2a1.137,1.137,0,0,1,.363-.875,1.412,1.412,0,0,1,1.828,0,1.137,1.137,0,0,1,.363.875,1.121,1.121,0,0,1-.359.863,1.435,1.435,0,0,1-1.836,0A1.121,1.121,0,0,1,94.4,15.891Zm0-6.4a1.137,1.137,0,0,1,.363-.875,1.412,1.412,0,0,1,1.828,0,1.137,1.137,0,0,1,.363.875,1.121,1.121,0,0,1-.359.863,1.435,1.435,0,0,1-1.836,0A1.121,1.121,0,0,1,94.4,9.492Zm12.094,2.2a4.58,4.58,0,0,1-.168,1.324,2.959,2.959,0,0,1-.535.957q-.375.461-1.094,1.215a2.674,2.674,0,0,0-.8,1.527l-.016.289a1.752,1.752,0,0,0,.453,1.3,1.775,1.775,0,0,0,1.3.449,1.821,1.821,0,0,0,1.27-.441,1.48,1.48,0,0,0,.488-1.152h1.445a2.7,2.7,0,0,1-.895,2.055,3.85,3.85,0,0,1-4.676.012,2.85,2.85,0,0,1-.836-2.184,4.076,4.076,0,0,1,1.25-2.719l.852-.883a2.638,2.638,0,0,0,.516-1.75Zm.063-2.473a.869.869,0,0,1-.215.6.8.8,0,0,1-.637.243.817.817,0,0,1-.641-.243.86.86,0,0,1-.219-.6.821.821,0,0,1,.219-.581.832.832,0,0,1,.641-.235.819.819,0,0,1,.637.235A.83.83,0,0,1,106.559,9.215ZM119.48,11.68a7.026,7.026,0,0,1-.523,2.84,4.388,4.388,0,0,1-1.469,1.863l2.031,1.594-1.023.945-2.4-1.906a4.88,4.88,0,0,1-1.187.141,4.244,4.244,0,0,1-4-2.543,6.752,6.752,0,0,1-.59-2.832v-.82a6.953,6.953,0,0,1,.57-2.9,4.218,4.218,0,0,1,4-2.594,4.4,4.4,0,0,1,2.418.664,4.284,4.284,0,0,1,1.605,1.91,7.016,7.016,0,0,1,.563,2.91Zm-1.5-.734a5.162,5.162,0,0,0-.8-3.1,2.89,2.89,0,0,0-4.516-.008,5,5,0,0,0-.84,3v.836a5.147,5.147,0,0,0,.816,3.078,2.885,2.885,0,0,0,4.52.066,5.079,5.079,0,0,0,.82-3.035Zm8.8,5.219a3.07,3.07,0,0,1-2.477.992,2.628,2.628,0,0,1-2.059-.785,3.4,3.4,0,0,1-.715-2.324v-5.5h1.445v5.461q0,1.922,1.563,1.922a2.163,2.163,0,0,0,2.2-1.234V8.547h1.445V17h-1.375Zm7.109.992a3.693,3.693,0,0,1-2.8-1.129,4.19,4.19,0,0,1-1.078-3.02v-.266a5.073,5.073,0,0,1,.48-2.246,3.748,3.748,0,0,1,1.344-1.547,3.378,3.378,0,0,1,1.871-.559,3.166,3.166,0,0,1,2.563,1.086,4.7,4.7,0,0,1,.914,3.109v.6h-5.727a3,3,0,0,0,.73,2.02,2.3,2.3,0,0,0,1.777.77,2.517,2.517,0,0,0,1.3-.312,3.258,3.258,0,0,0,.93-.828l.883.688A3.55,3.55,0,0,1,133.895,17.156Zm-.18-7.578a1.928,1.928,0,0,0-1.469.637A3.1,3.1,0,0,0,131.512,12h4.234v-.109a2.753,2.753,0,0,0-.594-1.707A1.815,1.815,0,0,0,133.715,9.578Zm.7-4.578h1.75l-2.094,2.3-1.164,0Zm13.328,9.758a1.064,1.064,0,0,0-.441-.91,4.249,4.249,0,0,0-1.539-.559,7.277,7.277,0,0,1-1.742-.562,2.479,2.479,0,0,1-.953-.781,1.869,1.869,0,0,1-.309-1.078,2.193,2.193,0,0,1,.879-1.758,3.432,3.432,0,0,1,2.246-.719,3.532,3.532,0,0,1,2.332.742,2.357,2.357,0,0,1,.895,1.9H147.66a1.3,1.3,0,0,0-.5-1.023,1.888,1.888,0,0,0-1.27-.43,1.976,1.976,0,0,0-1.234.344,1.082,1.082,0,0,0-.445.9.877.877,0,0,0,.414.789,5.1,5.1,0,0,0,1.5.508,7.8,7.8,0,0,1,1.754.578,2.558,2.558,0,0,1,1,.809,1.988,1.988,0,0,1,.324,1.152,2.163,2.163,0,0,1-.906,1.816,3.8,3.8,0,0,1-2.352.684,4.257,4.257,0,0,1-1.8-.359,2.922,2.922,0,0,1-1.223-1,2.42,2.42,0,0,1-.441-1.395h1.445a1.5,1.5,0,0,0,.582,1.152,2.258,2.258,0,0,0,1.434.426,2.331,2.331,0,0,0,1.316-.332A1.02,1.02,0,0,0,147.746,14.758Zm6.836,2.4a3.693,3.693,0,0,1-2.8-1.129,4.19,4.19,0,0,1-1.078-3.02v-.266a5.073,5.073,0,0,1,.48-2.246,3.748,3.748,0,0,1,1.344-1.547,3.378,3.378,0,0,1,1.871-.559,3.166,3.166,0,0,1,2.563,1.086,4.7,4.7,0,0,1,.914,3.109v.6h-5.727a3,3,0,0,0,.73,2.02,2.3,2.3,0,0,0,1.777.77,2.517,2.517,0,0,0,1.3-.312,3.258,3.258,0,0,0,.93-.828l.883.688A3.55,3.55,0,0,1,154.582,17.156Zm-.18-7.578a1.928,1.928,0,0,0-1.469.637A3.1,3.1,0,0,0,152.2,12h4.234v-.109a2.753,2.753,0,0,0-.594-1.707A1.815,1.815,0,0,0,154.4,9.578Zm16.25,3.289a5.062,5.062,0,0,1-.883,3.109,2.829,2.829,0,0,1-2.391,1.18,3.1,3.1,0,0,1-2.422-.977v4.07h-1.445V8.547h1.32l.07.938a2.977,2.977,0,0,1,2.453-1.094,2.882,2.882,0,0,1,2.41,1.148,5.117,5.117,0,0,1,.887,3.2Zm-1.445-.164a3.735,3.735,0,0,0-.609-2.258,1.963,1.963,0,0,0-1.672-.828,2.125,2.125,0,0,0-1.969,1.164V14.82a2.129,2.129,0,0,0,1.984,1.156,1.954,1.954,0,0,0,1.652-.824A4.077,4.077,0,0,0,169.207,12.7Zm8.5,3.461a3.07,3.07,0,0,1-2.477.992,2.628,2.628,0,0,1-2.059-.785,3.4,3.4,0,0,1-.715-2.324v-5.5H173.9v5.461q0,1.922,1.563,1.922a2.163,2.163,0,0,0,2.2-1.234V8.547h1.445V17h-1.375Zm7.109.992a3.693,3.693,0,0,1-2.8-1.129,4.19,4.19,0,0,1-1.078-3.02v-.266a5.073,5.073,0,0,1,.48-2.246,3.748,3.748,0,0,1,1.344-1.547,3.378,3.378,0,0,1,1.871-.559A3.166,3.166,0,0,1,187.2,9.477a4.7,4.7,0,0,1,.914,3.109v.6h-5.727a3,3,0,0,0,.73,2.02,2.3,2.3,0,0,0,1.777.77,2.517,2.517,0,0,0,1.3-.312,3.258,3.258,0,0,0,.93-.828l.883.688A3.55,3.55,0,0,1,184.816,17.156Zm-.18-7.578a1.928,1.928,0,0,0-1.469.637A3.1,3.1,0,0,0,182.434,12h4.234v-.109a2.753,2.753,0,0,0-.594-1.707A1.815,1.815,0,0,0,184.637,9.578Zm4.8,3.125a4.952,4.952,0,0,1,.922-3.129,3.137,3.137,0,0,1,4.766-.168V5h1.445V17h-1.328l-.07-.906a2.943,2.943,0,0,1-2.414,1.063,2.887,2.887,0,0,1-2.395-1.2,5.008,5.008,0,0,1-.926-3.141Zm1.445.164a3.749,3.749,0,0,0,.594,2.25,1.919,1.919,0,0,0,1.641.813,2.108,2.108,0,0,0,2.008-1.234V10.813a2.125,2.125,0,0,0-1.992-1.2,1.929,1.929,0,0,0-1.656.82A4.128,4.128,0,0,0,190.879,12.867Zm11.438,4.289a3.693,3.693,0,0,1-2.8-1.129,4.19,4.19,0,0,1-1.078-3.02v-.266a5.073,5.073,0,0,1,.48-2.246,3.748,3.748,0,0,1,1.344-1.547,3.378,3.378,0,0,1,1.871-.559A3.166,3.166,0,0,1,204.7,9.477a4.7,4.7,0,0,1,.914,3.109v.6h-5.727a3,3,0,0,0,.73,2.02,2.3,2.3,0,0,0,1.777.77,2.517,2.517,0,0,0,1.3-.312,3.258,3.258,0,0,0,.93-.828l.883.688A3.55,3.55,0,0,1,202.316,17.156Zm-.18-7.578a1.928,1.928,0,0,0-1.469.637A3.1,3.1,0,0,0,199.934,12h4.234v-.109a2.753,2.753,0,0,0-.594-1.707A1.815,1.815,0,0,0,202.137,9.578ZM40.684,29.57a3.073,3.073,0,0,1,2.5-1.18q2.68,0,2.7,3.023V37H44.441V31.406a1.946,1.946,0,0,0-.418-1.352,1.675,1.675,0,0,0-1.277-.437,2.086,2.086,0,0,0-1.234.375,2.546,2.546,0,0,0-.828.984V37H39.238V25h1.445ZM53.27,37a3.036,3.036,0,0,1-.2-.891,3.225,3.225,0,0,1-2.406,1.047,2.984,2.984,0,0,1-2.051-.707,2.287,2.287,0,0,1-.8-1.793,2.39,2.39,0,0,1,1-2.051,4.733,4.733,0,0,1,2.824-.73h1.406v-.664A1.623,1.623,0,0,0,52.59,30a1.821,1.821,0,0,0-1.336-.449,2.107,2.107,0,0,0-1.3.391,1.151,1.151,0,0,0-.523.945H47.98a2,2,0,0,1,.449-1.223,3.066,3.066,0,0,1,1.219-.934,4.1,4.1,0,0,1,1.691-.344,3.342,3.342,0,0,1,2.289.73,2.635,2.635,0,0,1,.859,2.012v3.891a4.757,4.757,0,0,0,.3,1.852V37Zm-2.4-1.1a2.54,2.54,0,0,0,1.289-.352,2.127,2.127,0,0,0,.883-.914V32.9H51.91q-2.656,0-2.656,1.555a1.316,1.316,0,0,0,.453,1.063A1.742,1.742,0,0,0,50.871,35.9Zm9.273.078a2.082,2.082,0,0,0,1.352-.469,1.649,1.649,0,0,0,.641-1.172H63.5a2.621,2.621,0,0,1-.5,1.383,3.293,3.293,0,0,1-1.23,1.047,3.55,3.55,0,0,1-1.629.391A3.482,3.482,0,0,1,57.4,36a4.59,4.59,0,0,1-1.02-3.152v-.242a5.089,5.089,0,0,1,.453-2.2,3.451,3.451,0,0,1,1.3-1.492,3.7,3.7,0,0,1,2-.531,3.39,3.39,0,0,1,2.363.852,3.043,3.043,0,0,1,1,2.211H62.137a1.992,1.992,0,0,0-.621-1.348,1.932,1.932,0,0,0-1.379-.527,2.023,2.023,0,0,0-1.707.793,3.724,3.724,0,0,0-.605,2.293v.273a3.65,3.65,0,0,0,.6,2.25A2.033,2.033,0,0,0,60.145,35.977Zm8.492,1.18a3.693,3.693,0,0,1-2.8-1.129,4.19,4.19,0,0,1-1.078-3.02v-.266a5.073,5.073,0,0,1,.48-2.246,3.748,3.748,0,0,1,1.344-1.547,3.378,3.378,0,0,1,1.871-.559,3.166,3.166,0,0,1,2.563,1.086,4.7,4.7,0,0,1,.914,3.109v.6H66.207a3,3,0,0,0,.73,2.02,2.3,2.3,0,0,0,1.777.77,2.517,2.517,0,0,0,1.3-.312,3.259,3.259,0,0,0,.93-.828l.883.688A3.55,3.55,0,0,1,68.637,37.156Zm-.18-7.578a1.928,1.928,0,0,0-1.469.637A3.1,3.1,0,0,0,66.254,32h4.234v-.109a2.753,2.753,0,0,0-.594-1.707A1.815,1.815,0,0,0,68.457,29.578Zm9.234.266a4.331,4.331,0,0,0-.711-.055A1.9,1.9,0,0,0,75.051,31v6H73.605V28.547h1.406l.023.977a2.251,2.251,0,0,1,2.016-1.133,1.477,1.477,0,0,1,.641.109Zm12.43,3.023a5.062,5.062,0,0,1-.883,3.109,2.829,2.829,0,0,1-2.391,1.18,3.1,3.1,0,0,1-2.422-.977v4.07H82.98v-11.7H84.3l.07.938a2.977,2.977,0,0,1,2.453-1.094,2.882,2.882,0,0,1,2.41,1.148,5.117,5.117,0,0,1,.887,3.2ZM88.676,32.7a3.735,3.735,0,0,0-.609-2.258,1.963,1.963,0,0,0-1.672-.828,2.125,2.125,0,0,0-1.969,1.164V34.82a2.129,2.129,0,0,0,1.984,1.156,1.954,1.954,0,0,0,1.652-.824A4.077,4.077,0,0,0,88.676,32.7Zm8.5,4.3a3.036,3.036,0,0,1-.2-.891,3.225,3.225,0,0,1-2.406,1.047,2.984,2.984,0,0,1-2.051-.707,2.288,2.288,0,0,1-.8-1.793,2.39,2.39,0,0,1,1-2.051,4.733,4.733,0,0,1,2.824-.73h1.406v-.664A1.623,1.623,0,0,0,96.5,30a1.821,1.821,0,0,0-1.336-.449,2.108,2.108,0,0,0-1.3.391,1.151,1.151,0,0,0-.523.945H91.887a2,2,0,0,1,.449-1.223,3.066,3.066,0,0,1,1.219-.934,4.1,4.1,0,0,1,1.691-.344,3.342,3.342,0,0,1,2.289.73,2.635,2.635,0,0,1,.859,2.012v3.891a4.757,4.757,0,0,0,.3,1.852V37Zm-2.4-1.1a2.54,2.54,0,0,0,1.289-.352,2.127,2.127,0,0,0,.883-.914V32.9H95.816q-2.656,0-2.656,1.555a1.316,1.316,0,0,0,.453,1.063A1.742,1.742,0,0,0,94.777,35.9Zm9.969-6.055a4.331,4.331,0,0,0-.711-.055A1.9,1.9,0,0,0,102.105,31v6H100.66V28.547h1.406l.023.977a2.251,2.251,0,0,1,2.016-1.133,1.477,1.477,0,0,1,.641.109ZM110.98,37a3.036,3.036,0,0,1-.2-.891,3.225,3.225,0,0,1-2.406,1.047,2.984,2.984,0,0,1-2.051-.707,2.288,2.288,0,0,1-.8-1.793,2.39,2.39,0,0,1,1-2.051,4.733,4.733,0,0,1,2.824-.73h1.406v-.664A1.623,1.623,0,0,0,110.3,30a1.821,1.821,0,0,0-1.336-.449,2.108,2.108,0,0,0-1.3.391,1.151,1.151,0,0,0-.523.945h-1.453a2,2,0,0,1,.449-1.223,3.066,3.066,0,0,1,1.219-.934,4.1,4.1,0,0,1,1.691-.344,3.342,3.342,0,0,1,2.289.73,2.635,2.635,0,0,1,.859,2.012v3.891a4.757,4.757,0,0,0,.3,1.852V37Zm-2.4-1.1a2.54,2.54,0,0,0,1.289-.352,2.127,2.127,0,0,0,.883-.914V32.9h-1.133q-2.656,0-2.656,1.555a1.316,1.316,0,0,0,.453,1.063A1.742,1.742,0,0,0,108.582,35.9ZM120,37h-1.445V25H120Zm1.93-4.3a4.993,4.993,0,0,1,.488-2.234,3.643,3.643,0,0,1,1.359-1.531,3.7,3.7,0,0,1,1.988-.539,3.565,3.565,0,0,1,2.793,1.2,4.6,4.6,0,0,1,1.066,3.18v.1a5.036,5.036,0,0,1-.473,2.215,3.589,3.589,0,0,1-1.352,1.527,3.743,3.743,0,0,1-2.02.547,3.556,3.556,0,0,1-2.785-1.2,4.575,4.575,0,0,1-1.066-3.164Zm1.453.172a3.616,3.616,0,0,0,.652,2.258,2.211,2.211,0,0,0,3.5-.012,3.955,3.955,0,0,0,.648-2.418,3.61,3.61,0,0,0-.66-2.254,2.1,2.1,0,0,0-1.754-.863,2.075,2.075,0,0,0-1.727.852A3.925,3.925,0,0,0,123.379,32.867Zm7.711-.164A4.968,4.968,0,0,1,132,29.559a3.151,3.151,0,0,1,4.836-.074l.07-.937h1.32V36.8a3.439,3.439,0,0,1-.973,2.586,3.589,3.589,0,0,1-2.613.945,4.348,4.348,0,0,1-1.789-.391,3.08,3.08,0,0,1-1.336-1.07l.75-.867a2.826,2.826,0,0,0,2.273,1.148,2.214,2.214,0,0,0,1.645-.594,2.269,2.269,0,0,0,.59-1.672v-.727a2.971,2.971,0,0,1-2.367,1,2.887,2.887,0,0,1-2.4-1.2A5.224,5.224,0,0,1,131.09,32.7Zm1.453.164a3.79,3.79,0,0,0,.586,2.246,1.9,1.9,0,0,0,1.641.816,2.117,2.117,0,0,0,2.008-1.242V30.828a2.142,2.142,0,0,0-1.992-1.211,1.921,1.921,0,0,0-1.648.82A4.128,4.128,0,0,0,132.543,32.867ZM144.5,29.844a4.331,4.331,0,0,0-.711-.055A1.9,1.9,0,0,0,141.855,31v6H140.41V28.547h1.406l.023.977a2.251,2.251,0,0,1,2.016-1.133,1.477,1.477,0,0,1,.641.109ZM150.73,37a3.036,3.036,0,0,1-.2-.891,3.225,3.225,0,0,1-2.406,1.047,2.984,2.984,0,0,1-2.051-.707,2.287,2.287,0,0,1-.8-1.793,2.39,2.39,0,0,1,1-2.051,4.733,4.733,0,0,1,2.824-.73H150.5v-.664A1.623,1.623,0,0,0,150.051,30a1.821,1.821,0,0,0-1.336-.449,2.107,2.107,0,0,0-1.3.391,1.151,1.151,0,0,0-.523.945h-1.453a2,2,0,0,1,.449-1.223,3.066,3.066,0,0,1,1.219-.934,4.1,4.1,0,0,1,1.691-.344,3.342,3.342,0,0,1,2.289.73,2.635,2.635,0,0,1,.859,2.012v3.891a4.757,4.757,0,0,0,.3,1.852V37Zm-2.4-1.1a2.54,2.54,0,0,0,1.289-.352,2.127,2.127,0,0,0,.883-.914V32.9h-1.133q-2.656,0-2.656,1.555a1.316,1.316,0,0,0,.453,1.063A1.742,1.742,0,0,0,148.332,35.9Zm9.969-6.055a4.331,4.331,0,0,0-.711-.055A1.9,1.9,0,0,0,155.66,31v6h-1.445V28.547h1.406l.023.977a2.251,2.251,0,0,1,2.016-1.133,1.477,1.477,0,0,1,.641.109Zm8.8,7.313a3.693,3.693,0,0,1-2.8-1.129,4.19,4.19,0,0,1-1.078-3.02v-.266a5.073,5.073,0,0,1,.48-2.246,3.748,3.748,0,0,1,1.344-1.547,3.378,3.378,0,0,1,1.871-.559,3.166,3.166,0,0,1,2.563,1.086,4.7,4.7,0,0,1,.914,3.109v.6h-5.727a3,3,0,0,0,.73,2.02,2.3,2.3,0,0,0,1.777.77,2.517,2.517,0,0,0,1.3-.312,3.258,3.258,0,0,0,.93-.828l.883.688A3.55,3.55,0,0,1,167.1,37.156Zm-.18-7.578a1.928,1.928,0,0,0-1.469.637A3.1,3.1,0,0,0,164.715,32h4.234v-.109a2.753,2.753,0,0,0-.594-1.707A1.815,1.815,0,0,0,166.918,29.578ZM173.637,37h-1.445V25h1.445ZM14,52.7a4.993,4.993,0,0,1,.488-2.234,3.643,3.643,0,0,1,1.359-1.531,3.7,3.7,0,0,1,1.988-.539,3.565,3.565,0,0,1,2.793,1.2,4.6,4.6,0,0,1,1.066,3.18v.1a5.036,5.036,0,0,1-.473,2.215,3.589,3.589,0,0,1-1.352,1.527,3.743,3.743,0,0,1-2.02.547,3.556,3.556,0,0,1-2.785-1.2A4.575,4.575,0,0,1,14,52.8Zm1.453.172a3.616,3.616,0,0,0,.652,2.258,2.211,2.211,0,0,0,3.5-.012,3.955,3.955,0,0,0,.648-2.418,3.61,3.61,0,0,0-.66-2.254,2.1,2.1,0,0,0-1.754-.863,2.075,2.075,0,0,0-1.727.852A3.925,3.925,0,0,0,15.457,52.867Zm15.211,0a5.026,5.026,0,0,1-.891,3.113,2.846,2.846,0,0,1-2.391,1.176,2.947,2.947,0,0,1-2.477-1.133L24.84,57H23.512V45h1.445v4.477a2.93,2.93,0,0,1,2.414-1.086,2.863,2.863,0,0,1,2.418,1.164,5.177,5.177,0,0,1,.879,3.188ZM29.223,52.7a3.906,3.906,0,0,0-.57-2.281,1.888,1.888,0,0,0-1.641-.8,2.122,2.122,0,0,0-2.055,1.328V54.6a2.181,2.181,0,0,0,2.07,1.328,1.878,1.878,0,0,0,1.617-.8A4.153,4.153,0,0,0,29.223,52.7Zm4.758-4.156v9.43q0,2.438-2.211,2.438a2.7,2.7,0,0,1-.883-.14V59.125a2.794,2.794,0,0,0,.656.063.982.982,0,0,0,.738-.262,1.3,1.3,0,0,0,.254-.911V48.547ZM32.387,46.3a.867.867,0,0,1,.215-.59.79.79,0,0,1,.629-.246.819.819,0,0,1,.641.242.854.854,0,0,1,.219.594.826.826,0,0,1-.219.586.834.834,0,0,1-.641.234.808.808,0,0,1-.633-.234A.843.843,0,0,1,32.387,46.3Zm7.43,10.852a3.693,3.693,0,0,1-2.8-1.129,4.19,4.19,0,0,1-1.078-3.02v-.266a5.073,5.073,0,0,1,.48-2.246,3.748,3.748,0,0,1,1.344-1.547,3.378,3.378,0,0,1,1.871-.559A3.166,3.166,0,0,1,42.2,49.477a4.7,4.7,0,0,1,.914,3.109v.6H37.387a3,3,0,0,0,.73,2.02,2.3,2.3,0,0,0,1.777.77,2.517,2.517,0,0,0,1.3-.312,3.258,3.258,0,0,0,.93-.828l.883.688A3.55,3.55,0,0,1,39.816,57.156Zm-.18-7.578a1.928,1.928,0,0,0-1.469.637A3.1,3.1,0,0,0,37.434,52h4.234v-.109a2.753,2.753,0,0,0-.594-1.707A1.815,1.815,0,0,0,39.637,49.578ZM46.746,46.5v2.047h1.578v1.117H46.746v5.249a1.173,1.173,0,0,0,.211.763.888.888,0,0,0,.719.254,3.5,3.5,0,0,0,.688-.094V57a4.215,4.215,0,0,1-1.109.155,1.8,1.8,0,0,1-1.461-.586,2.517,2.517,0,0,1-.492-1.664V49.664H43.762V48.547H45.3V46.5ZM51.582,57H50.137V48.547h1.445ZM50.02,46.3a.863.863,0,0,1,.215-.594.807.807,0,0,1,.637-.242.819.819,0,0,1,.641.242.854.854,0,0,1,.219.594.826.826,0,0,1-.219.586.834.834,0,0,1-.641.234.821.821,0,0,1-.637-.234A.834.834,0,0,1,50.02,46.3Zm6.664,8.734,2.094-6.492h1.477L57.223,57h-1.1l-3.062-8.453h1.477ZM61.145,52.7a4.993,4.993,0,0,1,.488-2.234,3.643,3.643,0,0,1,1.359-1.531,3.7,3.7,0,0,1,1.988-.539,3.565,3.565,0,0,1,2.793,1.2,4.6,4.6,0,0,1,1.066,3.18v.1a5.036,5.036,0,0,1-.473,2.215,3.589,3.589,0,0,1-1.352,1.527,3.743,3.743,0,0,1-2.02.547,3.556,3.556,0,0,1-2.785-1.2A4.575,4.575,0,0,1,61.145,52.8Zm1.453.172a3.616,3.616,0,0,0,.652,2.258,2.211,2.211,0,0,0,3.5-.012,3.955,3.955,0,0,0,.648-2.418,3.61,3.61,0,0,0-.66-2.254,2.1,2.1,0,0,0-1.754-.863,2.075,2.075,0,0,0-1.727.852A3.925,3.925,0,0,0,62.6,52.867Zm8-.484a12.079,12.079,0,0,1,.473-3.391,9.85,9.85,0,0,1,1.41-2.953,6,6,0,0,1,1.945-1.875l.3.953a6.222,6.222,0,0,0-1.871,2.672,11.583,11.583,0,0,0-.8,4.023l-.008.664a11.643,11.643,0,0,0,1.1,5.234,6.252,6.252,0,0,0,1.578,2.078l-.3.883a6.192,6.192,0,0,1-1.984-1.937A10.859,10.859,0,0,1,70.6,52.383Zm10.445,2.375a1.064,1.064,0,0,0-.441-.91,4.249,4.249,0,0,0-1.539-.559,7.277,7.277,0,0,1-1.742-.562,2.479,2.479,0,0,1-.953-.781,1.869,1.869,0,0,1-.309-1.078,2.193,2.193,0,0,1,.879-1.758,3.432,3.432,0,0,1,2.246-.719,3.532,3.532,0,0,1,2.332.742,2.357,2.357,0,0,1,.895,1.9H80.957a1.3,1.3,0,0,0-.5-1.023,1.888,1.888,0,0,0-1.27-.43,1.976,1.976,0,0,0-1.234.344,1.082,1.082,0,0,0-.445.9.877.877,0,0,0,.414.789,5.1,5.1,0,0,0,1.5.508,7.8,7.8,0,0,1,1.754.578,2.558,2.558,0,0,1,1,.809,1.988,1.988,0,0,1,.324,1.152,2.163,2.163,0,0,1-.906,1.816,3.8,3.8,0,0,1-2.352.684,4.257,4.257,0,0,1-1.8-.359,2.922,2.922,0,0,1-1.223-1A2.42,2.42,0,0,1,75.77,54.4h1.445a1.5,1.5,0,0,0,.582,1.152,2.258,2.258,0,0,0,1.434.426,2.331,2.331,0,0,0,1.316-.332A1.02,1.02,0,0,0,81.043,54.758Zm8.547,1.406a3.07,3.07,0,0,1-2.477.992,2.628,2.628,0,0,1-2.059-.785,3.4,3.4,0,0,1-.715-2.324v-5.5h1.445v5.461q0,1.922,1.563,1.922a2.163,2.163,0,0,0,2.2-1.234V48.547H91V57H89.621Zm7.109.992a3.693,3.693,0,0,1-2.8-1.129,4.19,4.19,0,0,1-1.078-3.02v-.266A5.073,5.073,0,0,1,93.3,50.5a3.748,3.748,0,0,1,1.344-1.547,3.378,3.378,0,0,1,1.871-.559,3.166,3.166,0,0,1,2.563,1.086A4.7,4.7,0,0,1,100,52.586v.6H94.27a3,3,0,0,0,.73,2.02,2.3,2.3,0,0,0,1.777.77,2.517,2.517,0,0,0,1.3-.312,3.259,3.259,0,0,0,.93-.828l.883.688A3.55,3.55,0,0,1,96.7,57.156Zm-.18-7.578a1.928,1.928,0,0,0-1.469.637A3.1,3.1,0,0,0,94.316,52h4.234v-.109a2.753,2.753,0,0,0-.594-1.707A1.815,1.815,0,0,0,96.52,49.578Zm6.516-1.031.047,1.063a3.08,3.08,0,0,1,2.531-1.219q2.68,0,2.7,3.023V57h-1.445V51.406a1.946,1.946,0,0,0-.418-1.352,1.675,1.675,0,0,0-1.277-.437,2.086,2.086,0,0,0-1.234.375,2.546,2.546,0,0,0-.828.984V57h-1.445V48.547Zm4.781-3.3a1.942,1.942,0,0,1-.48,1.367,1.561,1.561,0,0,1-1.2.523,1.76,1.76,0,0,1-.555-.078,2.993,2.993,0,0,1-.613-.32,2.656,2.656,0,0,0-.547-.293,1.338,1.338,0,0,0-.387-.051.717.717,0,0,0-.547.246.892.892,0,0,0-.227.629l-.969-.055a2.039,2.039,0,0,1,.473-1.383,1.516,1.516,0,0,1,1.2-.547,1.457,1.457,0,0,1,.492.078,3.587,3.587,0,0,1,.594.3,3.494,3.494,0,0,0,.574.3,1.319,1.319,0,0,0,.441.07.7.7,0,0,0,.559-.266.932.932,0,0,0,.223-.617Zm2.3,7.445a4.993,4.993,0,0,1,.488-2.234,3.643,3.643,0,0,1,1.359-1.531,3.7,3.7,0,0,1,1.988-.539,3.565,3.565,0,0,1,2.793,1.2,4.6,4.6,0,0,1,1.066,3.18v.1a5.036,5.036,0,0,1-.473,2.215,3.589,3.589,0,0,1-1.352,1.527,3.743,3.743,0,0,1-2.02.547,3.556,3.556,0,0,1-2.785-1.2,4.575,4.575,0,0,1-1.066-3.164Zm1.453.172a3.616,3.616,0,0,0,.652,2.258,2.211,2.211,0,0,0,3.5-.012,3.955,3.955,0,0,0,.648-2.418,3.61,3.61,0,0,0-.66-2.254,2.1,2.1,0,0,0-1.754-.863,2.075,2.075,0,0,0-1.727.852A3.925,3.925,0,0,0,111.566,52.867Zm15.406,3.109a2.082,2.082,0,0,0,1.352-.469,1.649,1.649,0,0,0,.641-1.172h1.367a2.621,2.621,0,0,1-.5,1.383,3.293,3.293,0,0,1-1.23,1.047,3.55,3.55,0,0,1-1.629.391A3.482,3.482,0,0,1,124.227,56a4.59,4.59,0,0,1-1.02-3.152v-.242a5.089,5.089,0,0,1,.453-2.2,3.451,3.451,0,0,1,1.3-1.492,3.7,3.7,0,0,1,2-.531,3.39,3.39,0,0,1,2.363.852,3.043,3.043,0,0,1,1,2.211h-1.367a1.992,1.992,0,0,0-.621-1.348,1.932,1.932,0,0,0-1.379-.527,2.023,2.023,0,0,0-1.707.793,3.724,3.724,0,0,0-.605,2.293v.273a3.65,3.65,0,0,0,.6,2.25A2.033,2.033,0,0,0,126.973,55.977Zm4.6-3.281a4.993,4.993,0,0,1,.488-2.234,3.642,3.642,0,0,1,1.359-1.531,3.7,3.7,0,0,1,1.988-.539,3.565,3.565,0,0,1,2.793,1.2,4.6,4.6,0,0,1,1.066,3.18v.1a5.036,5.036,0,0,1-.473,2.215,3.589,3.589,0,0,1-1.352,1.527,3.743,3.743,0,0,1-2.02.547,3.556,3.556,0,0,1-2.785-1.2,4.575,4.575,0,0,1-1.066-3.164Zm1.453.172a3.616,3.616,0,0,0,.652,2.258,2.211,2.211,0,0,0,3.5-.012,3.954,3.954,0,0,0,.648-2.418,3.61,3.61,0,0,0-.66-2.254,2.1,2.1,0,0,0-1.754-.863,2.075,2.075,0,0,0-1.727.852A3.925,3.925,0,0,0,133.027,52.867ZM142.652,57h-1.445V45h1.445Zm5.82.156a3.693,3.693,0,0,1-2.8-1.129,4.19,4.19,0,0,1-1.078-3.02v-.266a5.073,5.073,0,0,1,.48-2.246,3.748,3.748,0,0,1,1.344-1.547,3.378,3.378,0,0,1,1.871-.559,3.166,3.166,0,0,1,2.563,1.086,4.7,4.7,0,0,1,.914,3.109v.6h-5.727a3,3,0,0,0,.73,2.02,2.3,2.3,0,0,0,1.777.77,2.517,2.517,0,0,0,1.3-.312,3.258,3.258,0,0,0,.93-.828l.883.688A3.55,3.55,0,0,1,148.473,57.156Zm-.18-7.578a1.928,1.928,0,0,0-1.469.637A3.1,3.1,0,0,0,146.09,52h4.234v-.109a2.753,2.753,0,0,0-.594-1.707A1.815,1.815,0,0,0,148.293,49.578Zm8.539,6.4a2.082,2.082,0,0,0,1.352-.469,1.649,1.649,0,0,0,.641-1.172h1.367a2.621,2.621,0,0,1-.5,1.383,3.293,3.293,0,0,1-1.23,1.047,3.55,3.55,0,0,1-1.629.391A3.482,3.482,0,0,1,154.086,56a4.59,4.59,0,0,1-1.02-3.152v-.242a5.089,5.089,0,0,1,.453-2.2,3.451,3.451,0,0,1,1.3-1.492,3.7,3.7,0,0,1,2-.531,3.39,3.39,0,0,1,2.363.852,3.043,3.043,0,0,1,1,2.211h-1.367a1.992,1.992,0,0,0-.621-1.348,1.932,1.932,0,0,0-1.379-.527,2.023,2.023,0,0,0-1.707.793,3.724,3.724,0,0,0-.605,2.293v.273a3.65,3.65,0,0,0,.6,2.25A2.033,2.033,0,0,0,156.832,55.977Zm6.945-9.477v2.047h1.578v1.117h-1.578v5.249a1.173,1.173,0,0,0,.211.763.888.888,0,0,0,.719.254,3.5,3.5,0,0,0,.688-.094V57a4.215,4.215,0,0,1-1.109.155,1.8,1.8,0,0,1-1.461-.586,2.517,2.517,0,0,1-.492-1.664V49.664h-1.539V48.547h1.539V46.5ZM168.613,57h-1.445V48.547h1.445Zm-1.562-10.7a.863.863,0,0,1,.215-.594.807.807,0,0,1,.637-.242.819.819,0,0,1,.641.242.854.854,0,0,1,.219.594.826.826,0,0,1-.219.586.834.834,0,0,1-.641.234.821.821,0,0,1-.637-.234A.834.834,0,0,1,167.051,46.3Zm6.664,8.734,2.094-6.492h1.477L174.254,57h-1.1l-3.062-8.453h1.477Zm4.461-2.344a4.993,4.993,0,0,1,.488-2.234,3.642,3.642,0,0,1,1.359-1.531,3.7,3.7,0,0,1,1.988-.539,3.565,3.565,0,0,1,2.793,1.2,4.6,4.6,0,0,1,1.066,3.18v.1a5.036,5.036,0,0,1-.473,2.215,3.589,3.589,0,0,1-1.352,1.527,3.743,3.743,0,0,1-2.02.547,3.556,3.556,0,0,1-2.785-1.2,4.575,4.575,0,0,1-1.066-3.164Zm1.453.172a3.616,3.616,0,0,0,.652,2.258,2.211,2.211,0,0,0,3.5-.012,3.954,3.954,0,0,0,.648-2.418,3.61,3.61,0,0,0-.66-2.254,2.1,2.1,0,0,0-1.754-.863,2.075,2.075,0,0,0-1.727.852A3.925,3.925,0,0,0,179.629,52.867Zm11.391-.406a12.085,12.085,0,0,1-.457,3.34,9.876,9.876,0,0,1-1.4,2.949,6.127,6.127,0,0,1-1.973,1.922l-.3-.883a6.281,6.281,0,0,0,1.934-2.863,12.387,12.387,0,0,0,.746-4.309v-.25a12.861,12.861,0,0,0-.344-3.051,10.3,10.3,0,0,0-.957-2.527,5.838,5.838,0,0,0-1.379-1.742l.3-.883a6.1,6.1,0,0,1,1.965,1.906,9.9,9.9,0,0,1,1.4,2.945A12.364,12.364,0,0,1,191.02,52.461Zm3.922,1.323a4.663,4.663,0,0,1,.211-1.466,3.761,3.761,0,0,1,.8-1.193l1.023-1.053a2.36,2.36,0,0,0,.656-1.59,1.815,1.815,0,0,0-.43-1.282,1.62,1.62,0,0,0-1.25-.464,1.881,1.881,0,0,0-1.281.422,1.426,1.426,0,0,0-.484,1.133h-1.445a2.632,2.632,0,0,1,.9-2.043,3.374,3.374,0,0,1,2.309-.777,3.185,3.185,0,0,1,2.3.792,2.87,2.87,0,0,1,.824,2.172,3.926,3.926,0,0,1-1.266,2.691l-.852.842a2.623,2.623,0,0,0-.57,1.818Zm-.062,2.482a.861.861,0,0,1,.215-.6.81.81,0,0,1,.637-.241.822.822,0,0,1,.641.241.852.852,0,0,1,.219.6.824.824,0,0,1-.219.588.837.837,0,0,1-.641.233.774.774,0,0,1-.852-.82Z" transform="translate(2237.6 -3360.025)" fill="#12263f"/>
      <path id="Path_919025" data-name="Path 919025" d="M23.8,12.352H19.443L18.631,17H16.342L18.318,5.625h7.2l-.336,1.9H20.279l-.516,2.938h4.375Zm5.648-3.961a3.39,3.39,0,0,1,1.926.574A3.234,3.234,0,0,1,32.564,10.5a4.762,4.762,0,0,1,.27,2.176,5.143,5.143,0,0,1-1.4,3.262,3.96,3.96,0,0,1-3.02,1.215,3.38,3.38,0,0,1-1.906-.566,3.222,3.222,0,0,1-1.187-1.527,4.657,4.657,0,0,1-.273-2.156,5.3,5.3,0,0,1,1.422-3.328A3.878,3.878,0,0,1,29.451,8.391Zm-2.227,5.315a1.95,1.95,0,0,0,.352,1.182,1.168,1.168,0,0,0,.945.449,1.712,1.712,0,0,0,1.594-.932,4.647,4.647,0,0,0,.539-2.531,2.122,2.122,0,0,0-.363-1.2,1.149,1.149,0,0,0-.949-.464,1.715,1.715,0,0,0-1.574.924A4.6,4.6,0,0,0,27.225,13.706Zm12.031-3.042a4.548,4.548,0,0,0-.742-.078,2.136,2.136,0,0,0-1.867.883L35.67,17h-2.2l1.469-8.453,2.07-.008L36.8,9.57a2.325,2.325,0,0,1,1.969-1.2,3.214,3.214,0,0,1,.766.109Zm3.969,6.492a3.677,3.677,0,0,1-1.965-.543,3.292,3.292,0,0,1-1.277-1.469,4.093,4.093,0,0,1-.328-2.059l.023-.312a5.465,5.465,0,0,1,.719-2.266,4.341,4.341,0,0,1,1.547-1.59,3.827,3.827,0,0,1,2.094-.527,2.924,2.924,0,0,1,2.473,1.2,4.117,4.117,0,0,1,.637,2.962l-.125.962h-5.18a1.814,1.814,0,0,0,.4,1.313,1.521,1.521,0,0,0,1.172.508,2.7,2.7,0,0,0,2.109-.937l1.008,1.25a3.135,3.135,0,0,1-1.375,1.121A4.5,4.5,0,0,1,43.225,17.156Zm.7-6.945a1.565,1.565,0,0,0-1.082.383A3.363,3.363,0,0,0,42,11.977h3.031l.047-.2a2.071,2.071,0,0,0,.008-.594,1.134,1.134,0,0,0-.383-.707A1.2,1.2,0,0,0,43.928,10.211Zm7.453,5.133a1.447,1.447,0,0,0,1.016-.332,1.632,1.632,0,0,0,.531-.926L55,14.078a3.037,3.037,0,0,1-.559,1.6A3.394,3.394,0,0,1,53.1,16.789a3.847,3.847,0,0,1-1.77.375A3.123,3.123,0,0,1,48.889,16.1a3.965,3.965,0,0,1-.867-2.766l.023-.43.008-.086a5.284,5.284,0,0,1,1.391-3.27,3.761,3.761,0,0,1,2.914-1.16,3.047,3.047,0,0,1,2.27.934,3.3,3.3,0,0,1,.824,2.379H53.4a1.73,1.73,0,0,0-.3-1.07,1.128,1.128,0,0,0-.891-.422q-1.578-.047-1.914,2.3a7.782,7.782,0,0,0-.086,1.438Q50.287,15.32,51.381,15.344ZM60.74,17a2.281,2.281,0,0,1-.086-.766,2.863,2.863,0,0,1-2.156.922,2.594,2.594,0,0,1-1.84-.723,2.186,2.186,0,0,1-.684-1.746,2.527,2.527,0,0,1,1.16-2.121,5.266,5.266,0,0,1,2.965-.738l1.031.016.109-.508a1.764,1.764,0,0,0,.023-.492.846.846,0,0,0-.277-.574.955.955,0,0,0-.629-.215,1.345,1.345,0,0,0-.875.254,1.231,1.231,0,0,0-.461.777l-2.211.008a2.457,2.457,0,0,1,1.113-1.965,4.312,4.312,0,0,1,2.613-.738,3.117,3.117,0,0,1,2.25.855,2.5,2.5,0,0,1,.68,2.121l-.648,4.047-.039.5a2.412,2.412,0,0,0,.133.938L62.9,17Zm-1.7-1.555a2.017,2.017,0,0,0,1.664-.828l.273-1.461-.766-.008a2.139,2.139,0,0,0-1.758.742,1.292,1.292,0,0,0-.242.633.75.75,0,0,0,.176.668A.891.891,0,0,0,59.045,15.445Zm10.1-.828q.125-.625-.867-.906l-.711-.18q-2.523-.7-2.453-2.453a2.428,2.428,0,0,1,1.059-1.949,3.942,3.942,0,0,1,2.457-.738,3.536,3.536,0,0,1,2.313.758,2.5,2.5,0,0,1,.9,1.977l-2.187-.008a.963.963,0,0,0-1.078-1.1,1.552,1.552,0,0,0-.895.258,1.061,1.061,0,0,0-.465.7q-.117.625.945.883l.313.07a6.285,6.285,0,0,1,1.648.59,2.488,2.488,0,0,1,.879.824,2.04,2.04,0,0,1,.285,1.18,2.251,2.251,0,0,1-.52,1.406,3.18,3.18,0,0,1-1.359.93,4.736,4.736,0,0,1-1.816.3,3.568,3.568,0,0,1-2.344-.809,2.607,2.607,0,0,1-.953-2.051l2.078.016a1.142,1.142,0,0,0,1.3,1.227,1.845,1.845,0,0,0,1-.25A.987.987,0,0,0,69.147,14.617Zm7.625-8.148L76.4,8.547h1.406L77.522,10.2H76.115L75.4,14.438a1.077,1.077,0,0,0,.063.609q.109.211.531.227.125.008.672-.039l-.156,1.727a3.706,3.706,0,0,1-1.266.18,1.985,1.985,0,0,1-1.617-.68,2.456,2.456,0,0,1-.437-1.8l.727-4.461h-1.2l.289-1.656h1.2l.359-2.078ZM79.951,17H77.732L79.2,8.547H81.42ZM79.459,6.4a1.1,1.1,0,0,1,.344-.867,1.323,1.323,0,0,1,1.734-.039,1.1,1.1,0,0,1,.383.828,1.132,1.132,0,0,1-.324.844,1.215,1.215,0,0,1-.887.375,1.235,1.235,0,0,1-.863-.3A1.091,1.091,0,0,1,79.459,6.4ZM85.3,8.539l-.187,1a3.042,3.042,0,0,1,2.461-1.148,2.028,2.028,0,0,1,1.766.875,3.526,3.526,0,0,1,.414,2.359L88.865,17h-2.2l.906-5.4a2.528,2.528,0,0,0,.016-.555.9.9,0,0,0-1-.82,1.9,1.9,0,0,0-1.555.8L83.975,17h-2.2L83.24,8.547Zm5.711,4.227a5.849,5.849,0,0,1,1.277-3.184,3.242,3.242,0,0,1,2.629-1.2,2.37,2.37,0,0,1,2.016.977l.289-.82,2.023.008-1.383,8.164a3.983,3.983,0,0,1-1.437,2.672,4.471,4.471,0,0,1-3,.953,4.168,4.168,0,0,1-1.672-.379,3.575,3.575,0,0,1-1.312-1l1.094-1.344a2.349,2.349,0,0,0,1.844.961,2.166,2.166,0,0,0,1.469-.449,2.4,2.4,0,0,0,.828-1.355l.125-.508a2.749,2.749,0,0,1-2.07.891,2.428,2.428,0,0,1-1.961-.918,3.947,3.947,0,0,1-.8-2.348A7.89,7.89,0,0,1,91.014,12.766Zm2.164.927a2.02,2.02,0,0,0,.309,1.178,1.08,1.08,0,0,0,.895.466,1.972,1.972,0,0,0,1.594-.767l.656-3.583a1.3,1.3,0,0,0-1.242-.767,1.728,1.728,0,0,0-1.43.681,3.561,3.561,0,0,0-.734,1.87A8.213,8.213,0,0,0,93.178,13.693Zm7.3,2.2a1.137,1.137,0,0,1,.363-.875,1.412,1.412,0,0,1,1.828,0,1.137,1.137,0,0,1,.363.875,1.121,1.121,0,0,1-.359.863,1.435,1.435,0,0,1-1.836,0A1.121,1.121,0,0,1,100.482,15.891Zm0-6.4a1.137,1.137,0,0,1,.363-.875,1.412,1.412,0,0,1,1.828,0,1.137,1.137,0,0,1,.363.875,1.121,1.121,0,0,1-.359.863,1.435,1.435,0,0,1-1.836,0A1.121,1.121,0,0,1,100.482,9.492Zm12.094,2.2a4.58,4.58,0,0,1-.168,1.324,2.959,2.959,0,0,1-.535.957q-.375.461-1.094,1.215a2.674,2.674,0,0,0-.8,1.527l-.016.289a1.752,1.752,0,0,0,.453,1.3,1.775,1.775,0,0,0,1.3.449,1.821,1.821,0,0,0,1.27-.441,1.48,1.48,0,0,0,.488-1.152h1.445a2.7,2.7,0,0,1-.895,2.055,3.85,3.85,0,0,1-4.676.012,2.85,2.85,0,0,1-.836-2.184,4.076,4.076,0,0,1,1.25-2.719l.852-.883a2.638,2.638,0,0,0,.516-1.75Zm.063-2.473a.869.869,0,0,1-.215.6.8.8,0,0,1-.637.243.817.817,0,0,1-.641-.243.86.86,0,0,1-.219-.6.821.821,0,0,1,.219-.581.832.832,0,0,1,.641-.235.819.819,0,0,1,.637.235A.83.83,0,0,1,112.639,9.215Zm12.922,2.465a7.026,7.026,0,0,1-.523,2.84,4.388,4.388,0,0,1-1.469,1.863l2.031,1.594-1.023.945-2.4-1.906a4.88,4.88,0,0,1-1.187.141,4.244,4.244,0,0,1-4-2.543,6.752,6.752,0,0,1-.59-2.832v-.82a6.953,6.953,0,0,1,.57-2.9,4.218,4.218,0,0,1,4-2.594,4.4,4.4,0,0,1,2.418.664A4.284,4.284,0,0,1,125,8.043a7.016,7.016,0,0,1,.563,2.91Zm-1.5-.734a5.162,5.162,0,0,0-.8-3.1,2.89,2.89,0,0,0-4.516-.008,5,5,0,0,0-.84,3v.836a5.147,5.147,0,0,0,.816,3.078,2.885,2.885,0,0,0,4.52.066,5.079,5.079,0,0,0,.82-3.035Zm8.8,5.219a3.07,3.07,0,0,1-2.477.992,2.628,2.628,0,0,1-2.059-.785,3.4,3.4,0,0,1-.715-2.324v-5.5h1.445v5.461q0,1.922,1.563,1.922a2.163,2.163,0,0,0,2.2-1.234V8.547h1.445V17H132.9Zm7.109.992a3.693,3.693,0,0,1-2.8-1.129,4.19,4.19,0,0,1-1.078-3.02v-.266a5.073,5.073,0,0,1,.48-2.246,3.748,3.748,0,0,1,1.344-1.547,3.378,3.378,0,0,1,1.871-.559,3.166,3.166,0,0,1,2.563,1.086,4.7,4.7,0,0,1,.914,3.109v.6h-5.727a3,3,0,0,0,.73,2.02,2.3,2.3,0,0,0,1.777.77,2.517,2.517,0,0,0,1.3-.312,3.258,3.258,0,0,0,.93-.828l.883.688A3.55,3.55,0,0,1,139.975,17.156Zm-.18-7.578a1.928,1.928,0,0,0-1.469.637A3.1,3.1,0,0,0,137.592,12h4.234v-.109a2.753,2.753,0,0,0-.594-1.707A1.815,1.815,0,0,0,139.795,9.578ZM140.5,5h1.75l-2.094,2.3-1.164,0Zm13.328,9.758a1.064,1.064,0,0,0-.441-.91,4.249,4.249,0,0,0-1.539-.559,7.277,7.277,0,0,1-1.742-.562,2.479,2.479,0,0,1-.953-.781,1.869,1.869,0,0,1-.309-1.078,2.193,2.193,0,0,1,.879-1.758,3.432,3.432,0,0,1,2.246-.719,3.532,3.532,0,0,1,2.332.742,2.357,2.357,0,0,1,.895,1.9H153.74a1.3,1.3,0,0,0-.5-1.023,1.888,1.888,0,0,0-1.27-.43,1.976,1.976,0,0,0-1.234.344,1.082,1.082,0,0,0-.445.9.877.877,0,0,0,.414.789,5.1,5.1,0,0,0,1.5.508,7.8,7.8,0,0,1,1.754.578,2.558,2.558,0,0,1,1,.809,1.988,1.988,0,0,1,.324,1.152,2.163,2.163,0,0,1-.906,1.816,3.8,3.8,0,0,1-2.352.684,4.257,4.257,0,0,1-1.8-.359,2.922,2.922,0,0,1-1.223-1,2.42,2.42,0,0,1-.441-1.395H150a1.5,1.5,0,0,0,.582,1.152,2.258,2.258,0,0,0,1.434.426,2.331,2.331,0,0,0,1.316-.332A1.02,1.02,0,0,0,153.826,14.758Zm6.836,2.4a3.693,3.693,0,0,1-2.8-1.129,4.19,4.19,0,0,1-1.078-3.02v-.266a5.073,5.073,0,0,1,.48-2.246,3.748,3.748,0,0,1,1.344-1.547,3.378,3.378,0,0,1,1.871-.559,3.166,3.166,0,0,1,2.563,1.086,4.7,4.7,0,0,1,.914,3.109v.6h-5.727a3,3,0,0,0,.73,2.02,2.3,2.3,0,0,0,1.777.77,2.517,2.517,0,0,0,1.3-.312,3.258,3.258,0,0,0,.93-.828l.883.688A3.55,3.55,0,0,1,160.662,17.156Zm-.18-7.578a1.928,1.928,0,0,0-1.469.637A3.1,3.1,0,0,0,158.279,12h4.234v-.109a2.753,2.753,0,0,0-.594-1.707A1.815,1.815,0,0,0,160.482,9.578ZM22.955,32.867a5.062,5.062,0,0,1-.883,3.109,2.829,2.829,0,0,1-2.391,1.18,3.1,3.1,0,0,1-2.422-.977v4.07H15.814v-11.7h1.32l.07.938a2.977,2.977,0,0,1,2.453-1.094,2.882,2.882,0,0,1,2.41,1.148,5.117,5.117,0,0,1,.887,3.2ZM21.51,32.7a3.735,3.735,0,0,0-.609-2.258,1.963,1.963,0,0,0-1.672-.828,2.125,2.125,0,0,0-1.969,1.164V34.82a2.129,2.129,0,0,0,1.984,1.156,1.954,1.954,0,0,0,1.652-.824A4.077,4.077,0,0,0,21.51,32.7Zm8.5,3.461a3.07,3.07,0,0,1-2.477.992,2.628,2.628,0,0,1-2.059-.785,3.4,3.4,0,0,1-.715-2.324v-5.5h1.445v5.461q0,1.922,1.563,1.922a2.163,2.163,0,0,0,2.2-1.234V28.547h1.445V37H30.041Zm7.109.992a3.693,3.693,0,0,1-2.8-1.129,4.19,4.19,0,0,1-1.078-3.02v-.266a5.073,5.073,0,0,1,.48-2.246,3.748,3.748,0,0,1,1.344-1.547,3.378,3.378,0,0,1,1.871-.559A3.166,3.166,0,0,1,39.5,29.477a4.7,4.7,0,0,1,.914,3.109v.6H34.689a3,3,0,0,0,.73,2.02,2.3,2.3,0,0,0,1.777.77,2.517,2.517,0,0,0,1.3-.312,3.258,3.258,0,0,0,.93-.828l.883.688A3.55,3.55,0,0,1,37.119,37.156Zm-.18-7.578a1.928,1.928,0,0,0-1.469.637A3.1,3.1,0,0,0,34.736,32h4.234v-.109a2.753,2.753,0,0,0-.594-1.707A1.815,1.815,0,0,0,36.939,29.578Zm4.8,3.125a4.952,4.952,0,0,1,.922-3.129,3.137,3.137,0,0,1,4.766-.168V25h1.445V37H47.541l-.07-.906a2.943,2.943,0,0,1-2.414,1.063,2.887,2.887,0,0,1-2.395-1.2,5.008,5.008,0,0,1-.926-3.141Zm1.445.164a3.749,3.749,0,0,0,.594,2.25,1.919,1.919,0,0,0,1.641.813A2.108,2.108,0,0,0,47.424,34.7V30.813a2.125,2.125,0,0,0-1.992-1.2,1.929,1.929,0,0,0-1.656.82A4.128,4.128,0,0,0,43.182,32.867Zm11.438,4.289a3.693,3.693,0,0,1-2.8-1.129,4.19,4.19,0,0,1-1.078-3.02v-.266a5.073,5.073,0,0,1,.48-2.246,3.748,3.748,0,0,1,1.344-1.547,3.378,3.378,0,0,1,1.871-.559A3.166,3.166,0,0,1,57,29.477a4.7,4.7,0,0,1,.914,3.109v.6H52.189a3,3,0,0,0,.73,2.02,2.3,2.3,0,0,0,1.777.77,2.517,2.517,0,0,0,1.3-.312,3.258,3.258,0,0,0,.93-.828l.883.688A3.55,3.55,0,0,1,54.619,37.156Zm-.18-7.578a1.928,1.928,0,0,0-1.469.637A3.1,3.1,0,0,0,52.236,32h4.234v-.109a2.753,2.753,0,0,0-.594-1.707A1.815,1.815,0,0,0,54.439,29.578Zm10.555-.008a3.073,3.073,0,0,1,2.5-1.18q2.68,0,2.7,3.023V37H68.752V31.406a1.946,1.946,0,0,0-.418-1.352,1.675,1.675,0,0,0-1.277-.437,2.086,2.086,0,0,0-1.234.375,2.546,2.546,0,0,0-.828.984V37H63.549V25h1.445ZM77.58,37a3.036,3.036,0,0,1-.2-.891,3.225,3.225,0,0,1-2.406,1.047,2.984,2.984,0,0,1-2.051-.707,2.288,2.288,0,0,1-.8-1.793,2.39,2.39,0,0,1,1-2.051,4.733,4.733,0,0,1,2.824-.73h1.406v-.664A1.623,1.623,0,0,0,76.9,30a1.821,1.821,0,0,0-1.336-.449,2.108,2.108,0,0,0-1.3.391,1.151,1.151,0,0,0-.523.945H72.291a2,2,0,0,1,.449-1.223,3.066,3.066,0,0,1,1.219-.934,4.1,4.1,0,0,1,1.691-.344,3.342,3.342,0,0,1,2.289.73,2.635,2.635,0,0,1,.859,2.012v3.891a4.757,4.757,0,0,0,.3,1.852V37Zm-2.4-1.1a2.54,2.54,0,0,0,1.289-.352,2.127,2.127,0,0,0,.883-.914V32.9H76.221q-2.656,0-2.656,1.555a1.316,1.316,0,0,0,.453,1.063A1.742,1.742,0,0,0,75.182,35.9Zm9.273.078a2.082,2.082,0,0,0,1.352-.469,1.649,1.649,0,0,0,.641-1.172h1.367a2.621,2.621,0,0,1-.5,1.383,3.293,3.293,0,0,1-1.23,1.047,3.55,3.55,0,0,1-1.629.391A3.482,3.482,0,0,1,81.709,36a4.59,4.59,0,0,1-1.02-3.152v-.242a5.089,5.089,0,0,1,.453-2.2,3.451,3.451,0,0,1,1.3-1.492,3.7,3.7,0,0,1,2-.531,3.39,3.39,0,0,1,2.363.852,3.043,3.043,0,0,1,1,2.211H86.447a1.992,1.992,0,0,0-.621-1.348,1.932,1.932,0,0,0-1.379-.527,2.023,2.023,0,0,0-1.707.793,3.724,3.724,0,0,0-.605,2.293v.273a3.65,3.65,0,0,0,.6,2.25A2.033,2.033,0,0,0,84.455,35.977Zm8.492,1.18a3.693,3.693,0,0,1-2.8-1.129,4.19,4.19,0,0,1-1.078-3.02v-.266a5.073,5.073,0,0,1,.48-2.246A3.748,3.748,0,0,1,90.9,28.949a3.378,3.378,0,0,1,1.871-.559,3.166,3.166,0,0,1,2.563,1.086,4.7,4.7,0,0,1,.914,3.109v.6H90.518a3,3,0,0,0,.73,2.02,2.3,2.3,0,0,0,1.777.77,2.517,2.517,0,0,0,1.3-.312,3.259,3.259,0,0,0,.93-.828l.883.688A3.55,3.55,0,0,1,92.947,37.156Zm-.18-7.578a1.928,1.928,0,0,0-1.469.637A3.1,3.1,0,0,0,90.564,32H94.8v-.109a2.753,2.753,0,0,0-.594-1.707A1.815,1.815,0,0,0,92.768,29.578Zm9.234.266a4.331,4.331,0,0,0-.711-.055A1.9,1.9,0,0,0,99.361,31v6H97.916V28.547h1.406l.023.977a2.251,2.251,0,0,1,2.016-1.133A1.477,1.477,0,0,1,102,28.5Zm4.938,2.859a4.952,4.952,0,0,1,.922-3.129,3.137,3.137,0,0,1,4.766-.168V25h1.445V37h-1.328l-.07-.906a2.943,2.943,0,0,1-2.414,1.063,2.887,2.887,0,0,1-2.395-1.2,5.008,5.008,0,0,1-.926-3.141Zm1.445.164a3.749,3.749,0,0,0,.594,2.25,1.92,1.92,0,0,0,1.641.813,2.108,2.108,0,0,0,2.008-1.234V30.813a2.125,2.125,0,0,0-1.992-1.2,1.929,1.929,0,0,0-1.656.82A4.128,4.128,0,0,0,108.385,32.867Zm11.438,4.289a3.693,3.693,0,0,1-2.8-1.129,4.19,4.19,0,0,1-1.078-3.02v-.266a5.073,5.073,0,0,1,.48-2.246,3.748,3.748,0,0,1,1.344-1.547,3.378,3.378,0,0,1,1.871-.559,3.166,3.166,0,0,1,2.563,1.086,4.7,4.7,0,0,1,.914,3.109v.6h-5.727a3,3,0,0,0,.73,2.02,2.3,2.3,0,0,0,1.777.77,2.517,2.517,0,0,0,1.3-.312,3.259,3.259,0,0,0,.93-.828l.883.688A3.55,3.55,0,0,1,119.822,37.156Zm-.18-7.578a1.928,1.928,0,0,0-1.469.637A3.1,3.1,0,0,0,117.439,32h4.234v-.109a2.753,2.753,0,0,0-.594-1.707A1.815,1.815,0,0,0,119.643,29.578Zm10.07,5.18a1.064,1.064,0,0,0-.441-.91,4.249,4.249,0,0,0-1.539-.559,7.277,7.277,0,0,1-1.742-.562,2.479,2.479,0,0,1-.953-.781,1.869,1.869,0,0,1-.309-1.078,2.193,2.193,0,0,1,.879-1.758,3.432,3.432,0,0,1,2.246-.719,3.532,3.532,0,0,1,2.332.742,2.357,2.357,0,0,1,.895,1.9h-1.453a1.3,1.3,0,0,0-.5-1.023,1.888,1.888,0,0,0-1.27-.43,1.976,1.976,0,0,0-1.234.344,1.082,1.082,0,0,0-.445.9.877.877,0,0,0,.414.789,5.1,5.1,0,0,0,1.5.508,7.8,7.8,0,0,1,1.754.578,2.558,2.558,0,0,1,1,.809,1.988,1.988,0,0,1,.324,1.152,2.163,2.163,0,0,1-.906,1.816,3.8,3.8,0,0,1-2.352.684,4.257,4.257,0,0,1-1.8-.359,2.922,2.922,0,0,1-1.223-1,2.42,2.42,0,0,1-.441-1.395h1.445a1.5,1.5,0,0,0,.582,1.152,2.258,2.258,0,0,0,1.434.426,2.331,2.331,0,0,0,1.316-.332A1.02,1.02,0,0,0,129.713,34.758Zm2.977-2.055a4.952,4.952,0,0,1,.922-3.129,3.137,3.137,0,0,1,4.766-.168V25h1.445V37h-1.328l-.07-.906a2.943,2.943,0,0,1-2.414,1.063,2.887,2.887,0,0,1-2.395-1.2,5.008,5.008,0,0,1-.926-3.141Zm1.445.164a3.749,3.749,0,0,0,.594,2.25,1.919,1.919,0,0,0,1.641.813,2.108,2.108,0,0,0,2.008-1.234V30.813a2.125,2.125,0,0,0-1.992-1.2,1.929,1.929,0,0,0-1.656.82A4.128,4.128,0,0,0,134.135,32.867Zm11.438,4.289a3.693,3.693,0,0,1-2.8-1.129,4.19,4.19,0,0,1-1.078-3.02v-.266a5.073,5.073,0,0,1,.48-2.246,3.748,3.748,0,0,1,1.344-1.547,3.378,3.378,0,0,1,1.871-.559,3.166,3.166,0,0,1,2.563,1.086,4.7,4.7,0,0,1,.914,3.109v.6h-5.727a3,3,0,0,0,.73,2.02,2.3,2.3,0,0,0,1.777.77,2.517,2.517,0,0,0,1.3-.312,3.258,3.258,0,0,0,.93-.828l.883.688A3.55,3.55,0,0,1,145.572,37.156Zm-.18-7.578a1.928,1.928,0,0,0-1.469.637A3.1,3.1,0,0,0,143.189,32h4.234v-.109a2.753,2.753,0,0,0-.594-1.707A1.815,1.815,0,0,0,145.393,29.578ZM156.072,37h-1.445V25h1.445Zm7.531,0a3.036,3.036,0,0,1-.2-.891,3.225,3.225,0,0,1-2.406,1.047,2.984,2.984,0,0,1-2.051-.707,2.287,2.287,0,0,1-.8-1.793,2.39,2.39,0,0,1,1-2.051,4.733,4.733,0,0,1,2.824-.73h1.406v-.664A1.623,1.623,0,0,0,162.924,30a1.821,1.821,0,0,0-1.336-.449,2.107,2.107,0,0,0-1.3.391,1.151,1.151,0,0,0-.523.945h-1.453a2,2,0,0,1,.449-1.223,3.066,3.066,0,0,1,1.219-.934,4.1,4.1,0,0,1,1.691-.344,3.342,3.342,0,0,1,2.289.73,2.635,2.635,0,0,1,.859,2.012v3.891a4.757,4.757,0,0,0,.3,1.852V37Zm-2.4-1.1a2.54,2.54,0,0,0,1.289-.352,2.127,2.127,0,0,0,.883-.914V32.9h-1.133q-2.656,0-2.656,1.555a1.316,1.316,0,0,0,.453,1.063A1.742,1.742,0,0,0,161.205,35.9ZM27.006,54.758a1.064,1.064,0,0,0-.441-.91,4.249,4.249,0,0,0-1.539-.559,7.277,7.277,0,0,1-1.742-.562,2.479,2.479,0,0,1-.953-.781,1.869,1.869,0,0,1-.309-1.078,2.193,2.193,0,0,1,.879-1.758,3.432,3.432,0,0,1,2.246-.719,3.532,3.532,0,0,1,2.332.742,2.357,2.357,0,0,1,.895,1.9H26.92a1.3,1.3,0,0,0-.5-1.023,1.888,1.888,0,0,0-1.27-.43,1.976,1.976,0,0,0-1.234.344,1.082,1.082,0,0,0-.445.9.877.877,0,0,0,.414.789,5.1,5.1,0,0,0,1.5.508,7.8,7.8,0,0,1,1.754.578,2.558,2.558,0,0,1,1,.809,1.988,1.988,0,0,1,.324,1.152,2.163,2.163,0,0,1-.906,1.816,3.8,3.8,0,0,1-2.352.684,4.257,4.257,0,0,1-1.8-.359,2.922,2.922,0,0,1-1.223-1,2.42,2.42,0,0,1-.441-1.395h1.445a1.5,1.5,0,0,0,.582,1.152,2.258,2.258,0,0,0,1.434.426,2.331,2.331,0,0,0,1.316-.332A1.02,1.02,0,0,0,27.006,54.758ZM31.9,57H30.459V48.547H31.9ZM30.342,46.3a.863.863,0,0,1,.215-.594.807.807,0,0,1,.637-.242.819.819,0,0,1,.641.242.854.854,0,0,1,.219.594.826.826,0,0,1-.219.586.834.834,0,0,1-.641.234.821.821,0,0,1-.637-.234A.834.834,0,0,1,30.342,46.3Zm5.836.2v2.047h1.578v1.117H36.178v5.249a1.173,1.173,0,0,0,.211.763.888.888,0,0,0,.719.254,3.5,3.5,0,0,0,.688-.094V57a4.215,4.215,0,0,1-1.109.155,1.8,1.8,0,0,1-1.461-.586,2.517,2.517,0,0,1-.492-1.664V49.664H33.193V48.547h1.539V46.5Zm8.484,9.664a3.07,3.07,0,0,1-2.477.992,2.628,2.628,0,0,1-2.059-.785,3.4,3.4,0,0,1-.715-2.324v-5.5h1.445v5.461q0,1.922,1.563,1.922a2.163,2.163,0,0,0,2.2-1.234V48.547h1.445V57H44.693Zm8.82.836a3.036,3.036,0,0,1-.2-.891,3.225,3.225,0,0,1-2.406,1.047,2.984,2.984,0,0,1-2.051-.707,2.287,2.287,0,0,1-.8-1.793,2.39,2.39,0,0,1,1-2.051,4.733,4.733,0,0,1,2.824-.73h1.406v-.664A1.623,1.623,0,0,0,52.8,50a1.821,1.821,0,0,0-1.336-.449,2.107,2.107,0,0,0-1.3.391,1.151,1.151,0,0,0-.523.945H48.193a2,2,0,0,1,.449-1.223,3.066,3.066,0,0,1,1.219-.934,4.1,4.1,0,0,1,1.691-.344,3.342,3.342,0,0,1,2.289.73,2.635,2.635,0,0,1,.859,2.012v3.891a4.757,4.757,0,0,0,.3,1.852V57Zm-2.4-1.1a2.54,2.54,0,0,0,1.289-.352,2.127,2.127,0,0,0,.883-.914V52.9H52.123q-2.656,0-2.656,1.555a1.316,1.316,0,0,0,.453,1.063A1.742,1.742,0,0,0,51.084,55.9Zm9.273.078a2.082,2.082,0,0,0,1.352-.469,1.649,1.649,0,0,0,.641-1.172h1.367a2.621,2.621,0,0,1-.5,1.383,3.293,3.293,0,0,1-1.23,1.047,3.55,3.55,0,0,1-1.629.391A3.482,3.482,0,0,1,57.611,56a4.59,4.59,0,0,1-1.02-3.152v-.242a5.089,5.089,0,0,1,.453-2.2,3.451,3.451,0,0,1,1.3-1.492,3.7,3.7,0,0,1,2-.531,3.39,3.39,0,0,1,2.363.852,3.043,3.043,0,0,1,1,2.211H62.35a1.992,1.992,0,0,0-.621-1.348,1.932,1.932,0,0,0-1.379-.527,2.023,2.023,0,0,0-1.707.793,3.724,3.724,0,0,0-.605,2.293v.273a3.65,3.65,0,0,0,.6,2.25A2.033,2.033,0,0,0,60.357,55.977ZM66.912,57H65.467V48.547h1.445ZM65.35,46.3a.863.863,0,0,1,.215-.594.807.807,0,0,1,.637-.242.819.819,0,0,1,.641.242.854.854,0,0,1,.219.594.826.826,0,0,1-.219.586.834.834,0,0,1-.641.234.821.821,0,0,1-.637-.234A.834.834,0,0,1,65.35,46.3ZM68.842,52.7a4.993,4.993,0,0,1,.488-2.234,3.643,3.643,0,0,1,1.359-1.531,3.7,3.7,0,0,1,1.988-.539,3.565,3.565,0,0,1,2.793,1.2,4.6,4.6,0,0,1,1.066,3.18v.1a5.036,5.036,0,0,1-.473,2.215,3.589,3.589,0,0,1-1.352,1.527,3.743,3.743,0,0,1-2.02.547,3.556,3.556,0,0,1-2.785-1.2A4.575,4.575,0,0,1,68.842,52.8Zm1.453.172a3.616,3.616,0,0,0,.652,2.258,2.211,2.211,0,0,0,3.5-.012,3.955,3.955,0,0,0,.648-2.418,3.61,3.61,0,0,0-.66-2.254,2.1,2.1,0,0,0-1.754-.863,2.075,2.075,0,0,0-1.727.852A3.925,3.925,0,0,0,70.295,52.867ZM73.334,45h1.75L72.99,47.3l-1.164,0Zm6.383,3.547.047,1.063a3.08,3.08,0,0,1,2.531-1.219q2.68,0,2.7,3.023V57H83.553V51.406a1.946,1.946,0,0,0-.418-1.352,1.675,1.675,0,0,0-1.277-.437,2.086,2.086,0,0,0-1.234.375,2.546,2.546,0,0,0-.828.984V57H78.35V48.547Zm18.563,4.32a5.062,5.062,0,0,1-.883,3.109,2.829,2.829,0,0,1-2.391,1.18,3.1,3.1,0,0,1-2.422-.977v4.07H91.139v-11.7h1.32l.07.938a2.977,2.977,0,0,1,2.453-1.094,2.882,2.882,0,0,1,2.41,1.148,5.117,5.117,0,0,1,.887,3.2ZM96.834,52.7a3.735,3.735,0,0,0-.609-2.258,1.963,1.963,0,0,0-1.672-.828,2.125,2.125,0,0,0-1.969,1.164V54.82a2.129,2.129,0,0,0,1.984,1.156,1.954,1.954,0,0,0,1.652-.824A4.077,4.077,0,0,0,96.834,52.7Zm7.367-2.859a4.331,4.331,0,0,0-.711-.055A1.9,1.9,0,0,0,101.561,51v6h-1.445V48.547h1.406l.023.977a2.251,2.251,0,0,1,2.016-1.133,1.477,1.477,0,0,1,.641.109Zm4.836,7.313a3.693,3.693,0,0,1-2.8-1.129,4.19,4.19,0,0,1-1.078-3.02v-.266a5.073,5.073,0,0,1,.48-2.246,3.748,3.748,0,0,1,1.344-1.547,3.378,3.378,0,0,1,1.871-.559,3.166,3.166,0,0,1,2.563,1.086,4.7,4.7,0,0,1,.914,3.109v.6h-5.727a3,3,0,0,0,.73,2.02,2.3,2.3,0,0,0,1.777.77,2.517,2.517,0,0,0,1.3-.312,3.259,3.259,0,0,0,.93-.828l.883.688A3.55,3.55,0,0,1,109.037,57.156Zm-.18-7.578a1.928,1.928,0,0,0-1.469.637A3.1,3.1,0,0,0,106.654,52h4.234v-.109a2.753,2.753,0,0,0-.594-1.707A1.815,1.815,0,0,0,108.857,49.578Zm10.07,5.18a1.064,1.064,0,0,0-.441-.91,4.249,4.249,0,0,0-1.539-.559,7.277,7.277,0,0,1-1.742-.562,2.479,2.479,0,0,1-.953-.781,1.869,1.869,0,0,1-.309-1.078,2.193,2.193,0,0,1,.879-1.758,3.432,3.432,0,0,1,2.246-.719,3.532,3.532,0,0,1,2.332.742,2.357,2.357,0,0,1,.895,1.9h-1.453a1.3,1.3,0,0,0-.5-1.023,1.888,1.888,0,0,0-1.27-.43,1.976,1.976,0,0,0-1.234.344,1.082,1.082,0,0,0-.445.9.877.877,0,0,0,.414.789,5.1,5.1,0,0,0,1.5.508,7.8,7.8,0,0,1,1.754.578,2.558,2.558,0,0,1,1,.809,1.988,1.988,0,0,1,.324,1.152,2.163,2.163,0,0,1-.906,1.816,3.8,3.8,0,0,1-2.352.684,4.257,4.257,0,0,1-1.8-.359,2.922,2.922,0,0,1-1.223-1,2.42,2.42,0,0,1-.441-1.395H115.1a1.5,1.5,0,0,0,.582,1.152,2.258,2.258,0,0,0,1.434.426,2.331,2.331,0,0,0,1.316-.332A1.02,1.02,0,0,0,118.928,54.758Zm6.836,2.4a3.693,3.693,0,0,1-2.8-1.129,4.19,4.19,0,0,1-1.078-3.02v-.266a5.073,5.073,0,0,1,.48-2.246,3.748,3.748,0,0,1,1.344-1.547,3.378,3.378,0,0,1,1.871-.559,3.166,3.166,0,0,1,2.563,1.086,4.7,4.7,0,0,1,.914,3.109v.6h-5.727a3,3,0,0,0,.73,2.02,2.3,2.3,0,0,0,1.777.77,2.517,2.517,0,0,0,1.3-.312,3.259,3.259,0,0,0,.93-.828l.883.688A3.55,3.55,0,0,1,125.764,57.156Zm-.18-7.578a1.928,1.928,0,0,0-1.469.637A3.1,3.1,0,0,0,123.381,52h4.234v-.109a2.753,2.753,0,0,0-.594-1.707A1.815,1.815,0,0,0,125.584,49.578Zm6.516-1.031.047,1.063a3.08,3.08,0,0,1,2.531-1.219q2.68,0,2.7,3.023V57h-1.445V51.406a1.946,1.946,0,0,0-.418-1.352,1.675,1.675,0,0,0-1.277-.437,2.086,2.086,0,0,0-1.234.375,2.546,2.546,0,0,0-.828.984V57h-1.445V48.547Zm9.422-2.047v2.047H143.1v1.117h-1.578v5.249a1.173,1.173,0,0,0,.211.763.888.888,0,0,0,.719.254,3.5,3.5,0,0,0,.688-.094V57a4.215,4.215,0,0,1-1.109.155,1.8,1.8,0,0,1-1.461-.586,2.517,2.517,0,0,1-.492-1.664V49.664h-1.539V48.547h1.539V46.5Zm6.773,10.656a3.693,3.693,0,0,1-2.8-1.129,4.19,4.19,0,0,1-1.078-3.02v-.266a5.073,5.073,0,0,1,.48-2.246,3.748,3.748,0,0,1,1.344-1.547,3.378,3.378,0,0,1,1.871-.559,3.166,3.166,0,0,1,2.563,1.086,4.7,4.7,0,0,1,.914,3.109v.6h-5.727a3,3,0,0,0,.73,2.02,2.3,2.3,0,0,0,1.777.77,2.517,2.517,0,0,0,1.3-.312,3.258,3.258,0,0,0,.93-.828l.883.688A3.55,3.55,0,0,1,148.295,57.156Zm-.18-7.578a1.928,1.928,0,0,0-1.469.637A3.1,3.1,0,0,0,145.912,52h4.234v-.109a2.753,2.753,0,0,0-.594-1.707A1.815,1.815,0,0,0,148.115,49.578Zm6.844,4.206a4.663,4.663,0,0,1,.211-1.466,3.761,3.761,0,0,1,.8-1.193l1.023-1.053a2.36,2.36,0,0,0,.656-1.59,1.815,1.815,0,0,0-.43-1.282,1.62,1.62,0,0,0-1.25-.464,1.881,1.881,0,0,0-1.281.422,1.426,1.426,0,0,0-.484,1.133h-1.445a2.632,2.632,0,0,1,.9-2.043,3.374,3.374,0,0,1,2.309-.777,3.185,3.185,0,0,1,2.3.792,2.87,2.87,0,0,1,.824,2.172,3.926,3.926,0,0,1-1.266,2.691l-.852.842a2.623,2.623,0,0,0-.57,1.818Zm-.062,2.482a.861.861,0,0,1,.215-.6.81.81,0,0,1,.637-.241.822.822,0,0,1,.641.241.852.852,0,0,1,.219.6.824.824,0,0,1-.219.588.837.837,0,0,1-.641.233.774.774,0,0,1-.852-.82Z" transform="translate(2407.999 -2880)" fill="#12263f"/>
      <g id="Group_1117583" data-name="Group 1117583" transform="translate(2184.663 -2797.439)">
        <path id="Path_896353" data-name="Path 896353" d="M48,39.919l7.479,13.4L48,65.438h81.272l7.479-12.121-7.479-13.4Z" transform="translate(0 -31.625)" fill="#ffc811"/>
        <path id="Path_896354" data-name="Path 896354" d="M2402.161,39.92h-72.271l7.479,13.4-7.479,12.121h72.271l7.479-12.121Z" transform="translate(-2011.723 -31.626)" fill="#ffc811"/>
        <path id="Path_896355" data-name="Path 896355" d="M2879.933,0l12.341,22.105-12.341,20h16.006l12.341-20L2895.939,0Z" transform="translate(-2491.604)" fill="#ffc811"/>
        <path id="Path_896356" data-name="Path 896356" d="M821.721,39.92H640l7.479,13.4L640,65.438H821.721L829.2,53.317Z" transform="translate(-507.035 -31.626)" fill="#ffe9a2"/>
      </g>
      <path id="Path_919026" data-name="Path 919026" d="M13.512,12.992V17H11.168V5.625h4.438a5.134,5.134,0,0,1,2.254.469,3.454,3.454,0,0,1,1.5,1.332,3.714,3.714,0,0,1,.523,1.965,3.266,3.266,0,0,1-1.145,2.637,4.767,4.767,0,0,1-3.168.965Zm0-1.9h2.094a2.059,2.059,0,0,0,1.418-.437,1.591,1.591,0,0,0,.488-1.25,1.876,1.876,0,0,0-.492-1.352,1.839,1.839,0,0,0-1.359-.531H13.512Zm12.578-.43a6.134,6.134,0,0,0-.812-.062,1.654,1.654,0,0,0-1.68.867V17H21.34V8.547h2.133l.063,1.008a2.092,2.092,0,0,1,1.883-1.164,2.366,2.366,0,0,1,.7.1Zm4.977,6.492a4.15,4.15,0,0,1-3.027-1.141,4.054,4.054,0,0,1-1.168-3.039v-.219a5.106,5.106,0,0,1,.492-2.277,3.612,3.612,0,0,1,1.395-1.547,3.914,3.914,0,0,1,2.059-.543,3.508,3.508,0,0,1,2.73,1.094,4.444,4.444,0,0,1,1,3.1v.922H29.16a2.1,2.1,0,0,0,.66,1.328,2,2,0,0,0,1.395.5,2.437,2.437,0,0,0,2.039-.945l1.109,1.242a3.389,3.389,0,0,1-1.375,1.121A4.511,4.511,0,0,1,31.066,17.156Zm-.258-6.945a1.411,1.411,0,0,0-1.09.455,2.357,2.357,0,0,0-.535,1.3h3.141v-.181a1.681,1.681,0,0,0-.406-1.165A1.456,1.456,0,0,0,30.809,10.211ZM40.4,14.664a.727.727,0,0,0-.41-.652,4.659,4.659,0,0,0-1.316-.426q-3.016-.633-3.016-2.562a2.323,2.323,0,0,1,.934-1.879,3.766,3.766,0,0,1,2.441-.754,4.053,4.053,0,0,1,2.574.758,2.388,2.388,0,0,1,.965,1.969H40.316a1.092,1.092,0,0,0-.312-.8A1.322,1.322,0,0,0,39.027,10a1.351,1.351,0,0,0-.883.258.814.814,0,0,0-.312.656.7.7,0,0,0,.355.605,3.657,3.657,0,0,0,1.2.4,9.8,9.8,0,0,1,1.422.379A2.336,2.336,0,0,1,42.6,14.57a2.2,2.2,0,0,1-.992,1.871,4.28,4.28,0,0,1-2.562.715,4.47,4.47,0,0,1-1.887-.379,3.166,3.166,0,0,1-1.293-1.039,2.414,2.414,0,0,1-.469-1.426h2.141a1.179,1.179,0,0,0,.445.922,1.766,1.766,0,0,0,1.109.32,1.635,1.635,0,0,0,.98-.246A.766.766,0,0,0,40.4,14.664Zm7.539,2.492a4.15,4.15,0,0,1-3.027-1.141,4.054,4.054,0,0,1-1.168-3.039v-.219a5.106,5.106,0,0,1,.492-2.277,3.612,3.612,0,0,1,1.395-1.547,3.914,3.914,0,0,1,2.059-.543,3.508,3.508,0,0,1,2.73,1.094,4.444,4.444,0,0,1,1,3.1v.922H46.035a2.1,2.1,0,0,0,.66,1.328,2,2,0,0,0,1.395.5,2.437,2.437,0,0,0,2.039-.945l1.109,1.242a3.389,3.389,0,0,1-1.375,1.121A4.511,4.511,0,0,1,47.941,17.156Zm-.258-6.945a1.411,1.411,0,0,0-1.09.455,2.357,2.357,0,0,0-.535,1.3H49.2v-.181a1.681,1.681,0,0,0-.406-1.165A1.456,1.456,0,0,0,47.684,10.211Zm7.094-1.664.07.977a2.951,2.951,0,0,1,2.43-1.133,2.453,2.453,0,0,1,2,.789,3.682,3.682,0,0,1,.672,2.359V17H57.691V11.594a1.465,1.465,0,0,0-.312-1.043,1.4,1.4,0,0,0-1.039-.324,1.553,1.553,0,0,0-1.43.813V17H52.652V8.547Zm9.586-2.078V8.547h1.445V10.2H64.363v4.219a1.007,1.007,0,0,0,.18.672.9.9,0,0,0,.688.2,3.6,3.6,0,0,0,.664-.055v1.711a4.648,4.648,0,0,1-1.367.2,2.156,2.156,0,0,1-2.422-2.4V10.2H60.871V8.547h1.234V6.469Zm6.594,10.688a4.15,4.15,0,0,1-3.027-1.141,4.054,4.054,0,0,1-1.168-3.039v-.219a5.106,5.106,0,0,1,.492-2.277,3.612,3.612,0,0,1,1.395-1.547,3.914,3.914,0,0,1,2.059-.543,3.508,3.508,0,0,1,2.73,1.094,4.444,4.444,0,0,1,1,3.1v.922H69.051a2.1,2.1,0,0,0,.66,1.328,2,2,0,0,0,1.395.5,2.437,2.437,0,0,0,2.039-.945l1.109,1.242a3.389,3.389,0,0,1-1.375,1.121A4.511,4.511,0,0,1,70.957,17.156ZM70.7,10.211a1.411,1.411,0,0,0-1.09.455,2.357,2.357,0,0,0-.535,1.3h3.141v-.181a1.681,1.681,0,0,0-.406-1.165A1.456,1.456,0,0,0,70.7,10.211Z" transform="translate(2236.612 -2786.386)" fill="#12263f"/>
      <path id="Path_919027" data-name="Path 919027" d="M27.105,12.352h-4.5V17H20.262V5.625h7.406v1.9H22.605v2.938h4.5Zm6.664,3.789a2.831,2.831,0,0,1-2.312,1.016,2.67,2.67,0,0,1-2.074-.781,3.335,3.335,0,0,1-.73-2.289V8.547H30.91v5.467q0,1.322,1.2,1.322a1.63,1.63,0,0,0,1.578-.8V8.547h2.266V17H33.832Zm6.594-9.672V8.547h1.445V10.2H40.363v4.219a1.007,1.007,0,0,0,.18.672.9.9,0,0,0,.688.2,3.6,3.6,0,0,0,.664-.055v1.711a4.648,4.648,0,0,1-1.367.2,2.156,2.156,0,0,1-2.422-2.4V10.2H36.871V8.547h1.234V6.469Zm7.766,9.672a2.831,2.831,0,0,1-2.312,1.016,2.67,2.67,0,0,1-2.074-.781,3.335,3.335,0,0,1-.73-2.289V8.547H45.27v5.467q0,1.322,1.2,1.322a1.63,1.63,0,0,0,1.578-.8V8.547h2.266V17H48.191Zm8.641-5.477a6.134,6.134,0,0,0-.812-.062,1.654,1.654,0,0,0-1.68.867V17H52.02V8.547h2.133l.063,1.008A2.092,2.092,0,0,1,56.1,8.391a2.366,2.366,0,0,1,.7.1Zm.453,2.031a5.013,5.013,0,0,1,.484-2.242A3.546,3.546,0,0,1,59.1,8.93a4.069,4.069,0,0,1,2.113-.539,3.849,3.849,0,0,1,2.793,1.047,4.2,4.2,0,0,1,1.207,2.844l.016.578a4.418,4.418,0,0,1-1.086,3.121,4.209,4.209,0,0,1-5.832,0,4.5,4.5,0,0,1-1.09-3.187Zm2.258.16a3.16,3.16,0,0,0,.453,1.843,1.628,1.628,0,0,0,2.578.008,3.457,3.457,0,0,0,.461-2.015,3.128,3.128,0,0,0-.461-1.831,1.5,1.5,0,0,0-1.3-.649,1.474,1.474,0,0,0-1.281.646A3.516,3.516,0,0,0,59.48,12.856Z" transform="translate(2498.612 -2786.386)" fill="#12263f"/>
      <g id="Group_1117584" data-name="Group 1117584" transform="translate(1892.612 -11480.93)">
        <g id="Group_1117580" data-name="Group 1117580" transform="translate(338 8462.612)">
          <g id="Group_1113673" data-name="Group 1113673">
            <g id="Group_1113672" data-name="Group 1113672" clip-path="url(#clip-path-2)">
              <path id="Path_886855" data-name="Path 886855" d="M96.251,89.531c65.8-5.17,28.8-94.657-36.521-89.3C32.024,2.5,9.29,19.5,2.351,41.4a51.587,51.587,0,0,0,14.99,53.842c20.679,18.732,48.8-3.348,78.91-5.714" transform="translate(0 0)" fill="#685700"/>
            </g>
          </g>
        </g>
        <g id="Group_1117581" data-name="Group 1117581" transform="translate(609.373 8168.474)">
          <g id="Group_1113673-2" data-name="Group 1113673">
            <g id="Group_1113672-2" data-name="Group 1113672" clip-path="url(#clip-path-3)">
              <path id="Path_886855-2" data-name="Path 886855" d="M76.949,71.577C129.555,67.444,99.977-4.1,47.752.185,25.6,2,7.427,15.589,1.879,33.1A41.242,41.242,0,0,0,13.864,76.145C30.4,91.12,52.878,73.469,76.949,71.577" transform="translate(0 0)" fill="#685700"/>
            </g>
          </g>
        </g>
        <g id="Group_1117582" data-name="Group 1117582" transform="translate(580.738 8330.724)">
          <g id="Group_1113673-3" data-name="Group 1113673">
            <g id="Group_1113672-3" data-name="Group 1113672" clip-path="url(#clip-path-4)">
              <path id="Path_886855-3" data-name="Path 886855" d="M77.24,71.848C130.046,67.7,100.355-4.113,47.933.185,25.7,2.008,7.455,15.648,1.887,33.225a41.4,41.4,0,0,0,12.03,43.208c16.595,15.032,39.162-2.686,63.324-4.585" transform="translate(0 0)" fill="#685700"/>
            </g>
          </g>
        </g>
        <text id="Presente" transform="translate(360.843 8505.489)" fill="#fff" font-size="16" font-family="Roboto-Bold, Roboto" font-weight="700"><tspan x="10.152" y="17">Presente</tspan></text>
        <text id="Futuro" transform="translate(620.379 8201.474)" fill="#fff" font-size="16" font-family="Roboto-Bold, Roboto" font-weight="700"><tspan x="19.246" y="17">Futuro</tspan></text>
        <text id="Futuro-2" data-name="Futuro" transform="translate(590.738 8366.601)" fill="#fff" font-size="16" font-family="Roboto-Bold, Roboto" font-weight="700"><tspan x="19.246" y="17">Futuro</tspan></text>
        <path id="Path_896357" data-name="Path 896357" d="M3350.748-3291.711c160-207.333,73.333-102.667,160-208" transform="translate(-2909.037 11745.974)" fill="none" stroke="#707070" stroke-width="3" stroke-dasharray="7"/>
        <path id="Path_896358" data-name="Path 896358" d="M110.736,136.845c87.1-97.269,87.64-98.042,87.64-98.042" transform="matrix(0.985, 0.174, -0.174, 0.985, 380.42, 8325.602)" fill="none" stroke="#707070" stroke-width="3" stroke-dasharray="7"/>
        <g id="Polygon_13" data-name="Polygon 13" transform="translate(573.729 8383.045) rotate(52)" fill="#685700">
          <path d="M 16.18153953552246 14.74071979522705 L 0.8521875739097595 14.74071979522705 L 8.516863822937012 1.024962186813354 L 16.18153953552246 14.74071979522705 Z" stroke="none"/>
          <path d="M 8.516863822937012 2.049924850463867 L 1.704371452331543 14.24071979522705 L 15.32935619354248 14.24071979522705 L 8.516863822937012 2.049924850463867 M 8.516863822937012 -9.5367431640625e-07 L 17.03372383117676 15.24071979522705 L 3.814697265625e-06 15.24071979522705 L 8.516863822937012 -9.5367431640625e-07 Z" stroke="none" fill="#707070"/>
        </g>
        <g id="Polygon_15" data-name="Polygon 15" transform="translate(601.691 8232.628) rotate(38)" fill="#685700">
          <path d="M 16.18153953552246 14.74071979522705 L 0.8521875739097595 14.74071979522705 L 8.516863822937012 1.024962186813354 L 16.18153953552246 14.74071979522705 Z" stroke="none"/>
          <path d="M 8.516863822937012 2.049924850463867 L 1.704371452331543 14.24071979522705 L 15.32935619354248 14.24071979522705 L 8.516863822937012 2.049924850463867 M 8.516863822937012 -9.5367431640625e-07 L 17.03372383117676 15.24071979522705 L 3.814697265625e-06 15.24071979522705 L 8.516863822937012 -9.5367431640625e-07 Z" stroke="none" fill="#707070"/>
        </g>
        <path id="Path_896359" data-name="Path 896359" d="M3117.289-3344.361s33.085,15.126,31.5,58.69" transform="translate(-1436.188 12633.161) rotate(-19)" fill="none" stroke="#ffc811" stroke-width="2" opacity="0.37"/>
      </g>
      <g id="Group_1117594" data-name="Group 1117594" transform="translate(2712.935 -3198)">
        <g id="Group_1117593" data-name="Group 1117593" transform="translate(-482.322 -6)" clip-path="url(#clip-path-5)">
          <rect id="Rectangle_408101" data-name="Rectangle 408101" width="48.365" height="52.996" transform="translate(35.029 100.351)" fill="#fff2d2"/>
          <path id="Path_896360" data-name="Path 896360" d="M304.469,586.914h-47.4v51.974h47.4Zm.966,53H256.1V585.892h49.332Z" transform="translate(-221.558 -486.052)" fill="#bfa564"/>
          <g id="Group_1117592" data-name="Group 1117592">
            <g id="Group_1117591" data-name="Group 1117591" clip-path="url(#clip-path-5)">
              <path id="Path_896361" data-name="Path 896361" d="M617.318,16.208c0,8.951-6.858,16.208-15.318,16.208s-15.318-7.257-15.318-16.208S593.539,0,602,0s15.318,7.257,15.318,16.208" transform="translate(-586.681)" fill="#ffc811"/>
              <path id="Path_896362" data-name="Path 896362" d="M547.882,88.2l12.394,11.2-13.369-1.768Z" transform="translate(-523.233 -73.167)" fill="#ffc811"/>
              <path id="Path_896363" data-name="Path 896363" d="M644.635,60.315a.938.938,0,0,1-1.691.046l-4.712-8.642a1.309,1.309,0,0,1,.439-1.733,1.163,1.163,0,0,1,1.638.465l3.391,6.219,6.156-12.755a1.217,1.217,0,0,1,1.586-.646A1.3,1.3,0,0,1,652.024,45Z" transform="translate(-629.795 -35.809)" fill="#fff"/>
              <path id="Path_896364" data-name="Path 896364" d="M174.373,805.493l-2.8,15.734H193.2l-10.675-6.686.867-9.717Z" transform="translate(-95.706 -667.676)" fill="#013d55"/>
              <path id="Path_896365" data-name="Path 896365" d="M134.553,496.8l-10.211,41h14.534s28.669-53.673,5.477-58.956Z" transform="translate(-48.311 -397.25)" fill="#432b0a"/>
              <path id="Path_896366" data-name="Path 896366" d="M212.373,806.257l-2.8,15.734H231.2L220.523,815.3l.867-9.717Z" transform="translate(-139.826 -668.309)" fill="#007ba7"/>
              <path id="Path_896367" data-name="Path 896367" d="M157.36,453.284s-9.859,32.7,35.88,23.5l-7.7,41.823,12.158-.176s28.274-52.853,9.941-61.077Z" transform="translate(-113.895 -376.041)" fill="#634419"/>
              <path id="Path_896395" data-name="Path 896395" d="M.1,4.465l.675.014L.675.014,0,0Z" transform="translate(76.793 149.221) rotate(-114.15)" fill="#013d55"/>
              <path id="Path_896368" data-name="Path 896368" d="M194.856,435.448l4.316,5.078,15.139.177c-.161-5.065-9.18-7.334-9.18-7.334Z" transform="translate(-120.57 -359.52)" fill="#ff9498"/>
              <path id="Path_896369" data-name="Path 896369" d="M251.576,267.991l6.8,8.009,10.32-1.316c-.859-25.788-11.751-33.516-11.751-33.516Z" transform="translate(-184.086 -200.072)" fill="#a28d22"/>
              <path id="Path_896370" data-name="Path 896370" d="M307.436,226.849s10.782,3.351,10.307,22.323c-.273,10.923-.644,17.893-.644,17.893l-33.338.341,5.476-30.162Z" transform="translate(-238.336 -188.192)" fill="#a28d22"/>
              <rect id="Rectangle_408103" data-name="Rectangle 408103" width="18.501" height="3.37" transform="translate(77.744 79.366)" fill="#7a8ddf"/>
              <path id="Path_896371" data-name="Path 896371" d="M0,333.146H19.741l12.131-31.3H12.131Z" transform="translate(93.252 -250.411)" fill="#afbefc"/>
              <path id="Path_896396" data-name="Path 896396" d="M0,.483,24.027.565l0-.483L0,0Z" transform="translate(78.707 74.982) rotate(-93.576)" fill="#2a5044"/>
              <path id="Path_896372" data-name="Path 896372" d="M231.748,431.426s17.193-3.706,18.047,2.725c0,0,.267.741-.746.507,0,0,1.157,2.7-3.069,1.448,0,0,.593.566-1.628.7s-14.7,2.8-14.7,2.8Z" transform="translate(-161.69 -357.027)" fill="#ff9498"/>
              <path id="Path_896373" data-name="Path 896373" d="M228.865,438.848l.255-.055c.125-.027,12.491-2.663,14.675-2.794,1.5-.091,1.763-.381,1.833-.59a.336.336,0,0,0,.011-.04c1.488.4,2.467.335,2.905-.205a1.463,1.463,0,0,0,.177-1.275.612.612,0,0,0,.556-.189.745.745,0,0,0,.052-.675c-.67-2.716-3.956-4.013-9.745-3.823a50.876,50.876,0,0,0-8.436,1.079l-.1.022Zm15.932-4.079.508.486s.023.029.018.041-.115.276-1.548.362c-2.057.125-12.628,2.356-14.465,2.746l2-7.812c1.344-.292,16.251-3.372,17.712,2.539.034.093.07.27.006.349s-.252.093-.513.033l-.312-.072.132.308c0,.008.316.758-.038,1.193-.257.317-.961.578-2.841.021Z" transform="translate(-161.124 -356.047)" fill="#974245"/>
              <path id="Path_896374" data-name="Path 896374" d="M257.049,460.589a.16.16,0,0,0,.131-.071.177.177,0,0,0-.036-.238c-.064-.047-1.587-1.171-4.486-.252a.171.171,0,0,0-.108.212.157.157,0,0,0,.2.114c2.739-.867,4.192.192,4.206.2a.155.155,0,0,0,.093.032" transform="translate(-172.76 -381.337)" fill="#974245"/>
              <path id="Path_896375" data-name="Path 896375" d="M242.666,451.256a.155.155,0,0,0,.058-.011.174.174,0,0,0,.092-.22c-.037-.1-.959-2.493-5.891-2.988a.161.161,0,0,0-.175.154.168.168,0,0,0,.145.186c4.711.473,5.612,2.748,5.62,2.772a.162.162,0,0,0,.15.108" transform="translate(-155.833 -371.687)" fill="#974245"/>
              <path id="Path_896376" data-name="Path 896376" d="M237.738,441.6a.155.155,0,0,0,.115-.051.177.177,0,0,0,0-.241,12.193,12.193,0,0,0-4.153-2.775.16.16,0,0,0-.2.109.172.172,0,0,0,.1.215,12.1,12.1,0,0,1,4.027,2.694.157.157,0,0,0,.113.049" transform="translate(-150.379 -363.799)" fill="#974245"/>
              <path id="Path_896377" data-name="Path 896377" d="M361.44,222.668l-17.56,31.5,19.68,3.579-2.671,8.52c-28.466,5.532-29.089-9.543-29.089-9.543-2.5-43.151,28.733-34.721,29.639-34.06" transform="translate(-291.852 -183.82)" fill="#a28d22"/>
              <path id="Path_896378" data-name="Path 896378" d="M350.956,343.59l.057-.507-16.328-2.057a3.931,3.931,0,0,1-3.309-4.117l.486-12.1-.483-.021-.486,12.1a4.437,4.437,0,0,0,3.735,4.646Z" transform="translate(-279.18 -269.44)" fill="#2a5044"/>
              <path id="Path_896379" data-name="Path 896379" d="M343.986,270.189a3.225,3.225,0,0,0,.478-.035,3.9,3.9,0,0,0,2.644-1.953l-.4-.288a3.446,3.446,0,0,1-2.315,1.734c-1.219.186-2.708-.473-4.419-1.958l-.306.4c1.612,1.4,3.061,2.1,4.316,2.1" transform="translate(-276.69 -222.073)" fill="#2a5044"/>
              <path id="Path_896380" data-name="Path 896380" d="M335.272,181.9l.038.015a2.969,2.969,0,0,0,3.9-1.992l.456-1.474,2.223-6.346.419-1.2-9.483-3.708-1.749,5.221a7.584,7.584,0,0,0,4.2,9.484" transform="translate(-270.439 -138.705)" fill="#ff9498"/>
              <path id="Path_896381" data-name="Path 896381" d="M333.269,179.016a13.339,13.339,0,0,0,5.69,8.094l1.821-5.2Z" transform="translate(-269.331 -148.51)" fill="#974245"/>
              <path id="Path_896382" data-name="Path 896382" d="M260.624,80.412c12.162-4.581,14.417,9.961,1.936,12.318Z" transform="translate(-187.75 -65.974)" fill="#013d55"/>
              <path id="Path_896383" data-name="Path 896383" d="M292.633,113.731l3.35,7.587s6.687,5.664,10.127,4.649c1.353-.4,2.467-2.2,3.208-4.628a21.411,21.411,0,0,0,.606-2.617,23.244,23.244,0,0,0-.464-10.245l-10.514.4Z" transform="translate(-232.283 -89.991)" fill="#ff9498"/>
              <path id="Path_896384" data-name="Path 896384" d="M321.048,80.982c-.274-.8-5.012,1.182-5.536,1.514-1.647,1.042-2.181,3.754-2.91,5.609-1.49,3.792-2.772,7.175-6.12,8.946-.322.17,1.284,13.473-3.326,14.642-2.463.625-4.687-1.677-5.206-4.411-.842-4.437.6-6.809,4.975-11.3-4.832-24.993,16.213-23.63,18.122-15" transform="translate(-243.873 -62.498)" fill="#013d55"/>
              <path id="Path_896385" data-name="Path 896385" d="M324.382,153a.588.588,0,1,1-.553-.736.655.655,0,0,1,.553.736" transform="translate(-251.316 -126.314)" fill="#013d55"/>
              <path id="Path_896386" data-name="Path 896386" d="M301.906,154.85a.589.589,0,1,1-.553-.736.655.655,0,0,1,.553.736" transform="translate(-225.22 -127.851)" fill="#013d55"/>
              <path id="Path_896387" data-name="Path 896387" d="M308.957,162.716a.185.185,0,0,0,.12-.045,1.525,1.525,0,0,0,.666-1.056c.018-.474-.337-.827-.713-1.2-.129-.128-.262-.26-.384-.4a.186.186,0,0,0-.272-.014.213.213,0,0,0-.013.288c.129.15.269.29.406.425.323.322.6.6.591.887a1.211,1.211,0,0,1-.521.755.211.211,0,0,0-.03.286.187.187,0,0,0,.15.077" transform="translate(-234.274 -132.689)" fill="#013d55"/>
              <path id="Path_896388" data-name="Path 896388" d="M323.481,142.6c.023.455-.593.434-1.348.476s-1.351.122-1.388-.324c-.044-.539,1.991-.537,2.289-.543a.626.626,0,0,1,.243.028.386.386,0,0,1,.2.363" transform="translate(-250.015 -117.972)" fill="#013d55"/>
              <path id="Path_896389" data-name="Path 896389" d="M296.134,144.1c-.032.464.446.491,1.032.6a2.659,2.659,0,0,0,.8.143.4.4,0,0,0,.132-.736,3.315,3.315,0,0,0-1.6-.366.368.368,0,0,0-.19.009c-.112.046-.16.2-.17.355" transform="translate(-220.857 -119.236)" fill="#013d55"/>
              <path id="Path_896390" data-name="Path 896390" d="M313.239,180.226a3.355,3.355,0,0,0,.88-.134.172.172,0,0,0,.116-.208.162.162,0,0,0-.2-.122c-1.219.333-1.72.034-2.809-1.164a.156.156,0,0,0-.228-.005.177.177,0,0,0,0,.241c.821.9,1.377,1.393,2.242,1.393" transform="translate(-239.196 -148.12)" fill="#013d55"/>
              <g id="Group_1117587" data-name="Group 1117587" transform="translate(69.172 27.183)" opacity="0.5">
                <g id="Group_1117586" data-name="Group 1117586">
                  <g id="Group_1117585" data-name="Group 1117585" clip-path="url(#clip-path-7)">
                    <path id="Path_896391" data-name="Path 896391" d="M331.786,159.915a1.42,1.42,0,0,0,0,1.928,1.239,1.239,0,0,0,1.822,0,1.42,1.42,0,0,0,0-1.928,1.239,1.239,0,0,0-1.822,0" transform="translate(-331.409 -159.516)" fill="#ff6e73"/>
                  </g>
                </g>
              </g>
              <g id="Group_1117590" data-name="Group 1117590" transform="translate(76.22 28.72)" opacity="0.5">
                <g id="Group_1117589" data-name="Group 1117589">
                  <g id="Group_1117588" data-name="Group 1117588" clip-path="url(#clip-path-8)">
                    <path id="Path_896392" data-name="Path 896392" d="M295.206,170.86a1.3,1.3,0,0,0,.438.307,21.407,21.407,0,0,0,.606-2.617,1.2,1.2,0,0,0-1.044.389,1.414,1.414,0,0,0,0,1.922" transform="translate(-294.829 -168.539)" fill="#ff6e73"/>
                  </g>
                </g>
              </g>
              <path id="Path_896393" data-name="Path 896393" d="M292.551,105.209c-2.891,2.79-6.6,3.515-11.059,2.386l1.933-3.579,6.55.114Z" transform="translate(-212.762 -86.291)" fill="#013d55"/>
              <path id="Path_896394" data-name="Path 896394" d="M390.7,197.467a6.616,6.616,0,0,1-1.207.165,4.751,4.751,0,0,1-.971-.064,3.35,3.35,0,0,1-.87-.262,1.391,1.391,0,0,1-.751-.791,1.3,1.3,0,0,0,.06,1.575,2.087,2.087,0,0,0,1.355.824,2.229,2.229,0,0,0,1.484-.264,1.86,1.86,0,0,0,.9-1.183" transform="translate(-327.845 -163.028)" fill="#f5cc00"/>
            </g>
          </g>
        </g>
      </g>
      <g id="Group_1117610" data-name="Group 1117610" transform="translate(2457.878 -3062.667)">
        <g id="Group_1117609" data-name="Group 1117609" clip-path="url(#clip-path-9)">
          <g id="Group_1117608" data-name="Group 1117608" transform="translate(0 0)">
            <g id="Group_1117607" data-name="Group 1117607" clip-path="url(#clip-path-9)">
              <path id="Path_896397" data-name="Path 896397" d="M792.008,489h.019v-5.986h-.019L771.7,461.61c-7.59-8-6.5-19.741,1.823-26.579a9.026,9.026,0,0,1,5.733-2.03l35.7.005a9.027,9.027,0,0,1,5.73,2.029c8.324,6.836,9.414,18.569,1.831,26.573l-20.283,21.408h-.057V489h.057l20.283,21.408c7.583,8,6.493,19.737-1.831,26.573a9.027,9.027,0,0,1-5.73,2.029l-35.7.005a9.027,9.027,0,0,1-5.733-2.03c-8.326-6.839-9.413-18.576-1.823-26.579Z" transform="translate(-759.318 -383.775)" fill="#d9e6ff"/>
              <path id="Path_896398" data-name="Path 896398" d="M836.627,578.289a2.146,2.146,0,0,1,2.166-1.231c14.885,1.275,23.377-12.887,32.669-11.815a7.035,7.035,0,0,1,5.733,9.445c-2.135,5.685-8.868,11.411-11.336,14.016l-8.611,9.064v15.216h-.013c.018.01.026.012.013,0v16.267a.852.852,0,0,1-.852.852H855.5a.852.852,0,0,1-.852-.852v-4.663a.852.852,0,0,0-.852-.852.852.852,0,0,1-.852-.852v-9.9l-.008-15.216-8.6-9.063c-3.041-3.206-8.945-7.554-7.717-10.415" transform="translate(-817.282 -500.931)" fill="#ffc811"/>
              <path id="Path_896399" data-name="Path 896399" d="M1017.9,1160.121h0a1.194,1.194,0,0,0,1.194-1.194v-3.183a1.194,1.194,0,1,0-2.387,0v3.183a1.194,1.194,0,0,0,1.194,1.194" transform="translate(-979.222 -1023.294)" fill="#ffc811"/>
              <path id="Path_896400" data-name="Path 896400" d="M918.281,1279.095h16.257l7.769.187c-13.339-20.767-18.341-6.922-24.935-1.566Z" transform="translate(-891.144 -1124.039)" fill="#ffc811"/>
              <rect id="Rectangle_408109" data-name="Rectangle 408109" width="65.704" height="10.424" transform="translate(4.94 153.79)" fill="#1e2ad5"/>
              <rect id="Rectangle_408110" data-name="Rectangle 408110" width="65.704" height="5.197" transform="translate(4.94 159.018)" fill="#36295b"/>
              <path id="Path_896401" data-name="Path 896401" d="M705.224,1429.216h70.259a2.663,2.663,0,0,0,2.663-2.663v-.413a2.663,2.663,0,0,0-2.663-2.663H705.224a2.663,2.663,0,0,0-2.663,2.663v.413a2.663,2.663,0,0,0,2.663,2.663" transform="translate(-702.561 -1261.648)" fill="#1e2ad5"/>
              <rect id="Rectangle_408111" data-name="Rectangle 408111" width="39.563" height="0.682" transform="translate(87.738 100.364)" fill="#bfa564"/>
              <rect id="Rectangle_408112" data-name="Rectangle 408112" width="39.563" height="0.682" transform="translate(87.738 84.752)" fill="#bfa564"/>
              <rect id="Rectangle_408113" data-name="Rectangle 408113" width="39.563" height="0.682" transform="translate(87.738 116.28)" fill="#bfa564"/>
              <rect id="Rectangle_408114" data-name="Rectangle 408114" width="39.563" height="0.682" transform="translate(87.738 132.196)" fill="#bfa564"/>
              <rect id="Rectangle_408115" data-name="Rectangle 408115" width="39.563" height="0.682" transform="translate(87.738 148.112)" fill="#bfa564"/>
              <rect id="Rectangle_408116" data-name="Rectangle 408116" width="0.682" height="87.841" transform="translate(126.732 79.908)" fill="#bfa564"/>
              <rect id="Rectangle_408117" data-name="Rectangle 408117" width="0.682" height="87.841" transform="translate(87.624 79.908)" fill="#bfa564"/>
              <path id="Path_896402" data-name="Path 896402" d="M464.016,157.254c-10.838-.455-26.482,3.264-42.644,6.549l2.324,7.548,35.243-1.971Z" transform="translate(-356.465 -139.343)" fill="#f6ae5c"/>
              <path id="Path_896403" data-name="Path 896403" d="M444.266,791.42l1.5,10.623H432.034l6.253-5.137-1.046-5.61Z" transform="translate(-339.43 -701.337)" fill="#974245"/>
              <path id="Path_896404" data-name="Path 896404" d="M343.615,445.531l-8.741,8.979a7.653,7.653,0,0,0-1.76,7.808l7.811,22.917,12.654-.152-6.845-24.478,16.5-17.055Z" transform="translate(-245.605 -393.125)" fill="#050c68"/>
              <rect id="Rectangle_408118" data-name="Rectangle 408118" width="3.287" height="0.455" transform="translate(101.477 97.567) rotate(-146.623)" fill="#572628"/>
              <path id="Path_896405" data-name="Path 896405" d="M374.656,930.008l.447,10.5H361.368l6.254-5.137.67-5.807Z" transform="translate(-260.73 -823.884)" fill="#974245"/>
              <path id="Path_896406" data-name="Path 896406" d="M309.471,426.529a416.476,416.476,0,0,0-6.518,56.388H292.039l-2.387-29.331,5.116-31.036Z" transform="translate(-186.945 -374.512)" fill="#050c68"/>
              <rect id="Rectangle_408119" data-name="Rectangle 408119" width="3.995" height="0.454" transform="matrix(-0.782, -0.623, 0.623, -0.782, 109.873, 114.153)" fill="#572628"/>
              <path id="Path_896407" data-name="Path 896407" d="M433.227,561.428l.339-.034c-.022-.227-2.242-22.791-2.288-28.11s3.419-20.792,3.454-20.948l.035-.155-3.563-1.069-.1.327,3.259.977c-.365,1.645-3.472,15.813-3.428,20.871.047,5.334,2.268,27.913,2.29,28.14" transform="translate(-328.302 -453.006)" fill="#013d55"/>
              <path id="Path_896408" data-name="Path 896408" d="M617.109,6.964c1.182-3.4,4.341-5.974,10.853-6.9,3.979-.568,9.754,3.249,12.3,11.39s.689,15.495-3.8,17.371c-5.794,2.42-9.563,2.272-12.182.683-3.028-1.32-6.011-5.106-7.566-10.077-1.531-4.9-1.268-9.635.4-12.462" transform="translate(-555.954 -0.004)" fill="#d9e6ff"/>
              <g id="Group_1117597" data-name="Group 1117597" transform="translate(59.743 4.322)" opacity="0.3">
                <g id="Group_1117596" data-name="Group 1117596" transform="translate(0)">
                  <g id="Group_1117595" data-name="Group 1117595" clip-path="url(#clip-path-11)">
                    <path id="Path_896409" data-name="Path 896409" d="M698.145,53.122c2.183,6.981,7.184,11.63,11.169,10.384s5.446-7.916,3.262-14.9-7.184-11.63-11.169-10.384-5.446,7.916-3.262,14.9" transform="translate(-697.132 -38.023)" fill="#afbefc"/>
                  </g>
                </g>
              </g>
              <path id="Path_896410" data-name="Path 896410" d="M697.951,179.955c-.65-.845-1.163-1.819-.422-2.142l.014-.006a2.7,2.7,0,0,1,1.547-.055,5.882,5.882,0,0,0,1.553.193,4.262,4.262,0,0,0,2.19-1.085,7.3,7.3,0,0,1,2.08-1.356,2.166,2.166,0,0,1,2.264.9c.059,2.437-.125,6.956-3.509,6.957a6.775,6.775,0,0,1-4.52-2.076,12.667,12.667,0,0,1-1.2-1.329" transform="translate(-630.988 -155.486)" fill="#ffc811"/>
              <path id="Path_896411" data-name="Path 896411" d="M796.128,215.088c-.661.722-1.192.926-.607,1.847.605.953,1.125-.046,1.786-.769s.933-1.55.607-1.847-1.125.047-1.786.769" transform="translate(-733.007 -189.859)" fill="#ffba9a"/>
              <path id="Path_896412" data-name="Path 896412" d="M805.874,203.19c-.532.822-.81,1.211-.293,1.922.566.779,1.1-.232,1.634-1.055s.663-1.683.292-1.922-1.1.232-1.634,1.055" transform="translate(-743.815 -179.101)" fill="#ffba9a"/>
              <path id="Path_896413" data-name="Path 896413" d="M789.642,227.694c-.661.722-1.234.83-.544,1.905.569.887,1.188.011,1.849-.711s.9-1.575.544-1.905-1.189-.011-1.849.711" transform="translate(-725.877 -201.063)" fill="#ffba9a"/>
              <path id="Path_896414" data-name="Path 896414" d="M783.188,242.023c-.7.494-1.056.793-1.665.326-.524-.4.162-.969.859-1.463s1.442-.64,1.665-.326-.162.969-.859,1.463" transform="translate(-717.482 -213.066)" fill="#ffba9a"/>
              <path id="Path_896415" data-name="Path 896415" d="M302.95,161.467l-13.3,4.86,3.5,29.19,24.516-.39-1.311-20.857Z" transform="translate(-195.137 -143.111)" fill="#f6ae5c"/>
              <path id="Path_896416" data-name="Path 896416" d="M326.869,164.756l-3.67-9.095c5.64-.152,13.523-1.364,13.674,16.674l-14.249,1.213s-20.635-7.739-22.282-8.488l-.3-8.773c7.967,2.676,26.83,8.47,26.83,8.47" transform="translate(-215.528 -137.902)" fill="#f6ae5c"/>
              <path id="Path_896417" data-name="Path 896417" d="M621.922,144.991a8.348,8.348,0,0,1,.171-2.16s-1.762-1.933.114-1.819a63.932,63.932,0,0,1,8.437,2.354l.3,8.6c-9.287-4.225-8.909-5.44-9.022-6.975" transform="translate(-546.127 -124.977)" fill="#ffba9a"/>
              <rect id="Rectangle_408121" data-name="Rectangle 408121" width="14.232" height="0.341" transform="translate(98.104 22.624) rotate(-163.365)" fill="#974245"/>
              <path id="Path_896418" data-name="Path 896418" d="M360.7,244.548a17.35,17.35,0,0,0,3.795-.421l4.934-1.1-.075-.333-4.934,1.1a16.909,16.909,0,0,1-10.08-.831l-17.168-6.952-.128.316,17.168,6.952a17.258,17.258,0,0,0,6.487,1.269" transform="translate(-252.289 -209.18)" fill="#974245"/>
              <rect id="Rectangle_408122" data-name="Rectangle 408122" width="3.186" height="0.227" transform="matrix(-0.964, -0.268, 0.268, -0.964, 79.005, 18.816)" fill="#bf643a"/>
              <rect id="Rectangle_408123" data-name="Rectangle 408123" width="3.186" height="0.227" transform="matrix(-0.964, -0.268, 0.268, -0.964, 78.948, 20.124)" fill="#bf643a"/>
              <rect id="Rectangle_408124" data-name="Rectangle 408124" width="3.186" height="0.227" transform="matrix(-0.964, -0.268, 0.268, -0.964, 79.062, 21.602)" fill="#bf643a"/>
              <path id="Path_896419" data-name="Path 896419" d="M405.742,100.917v8.626a2.375,2.375,0,0,0,2.962,2.226,4.17,4.17,0,0,0,3.3-3.9l.2-6.953Z" transform="translate(-302.877 -89.444)" fill="#ffba9a"/>
              <g id="Group_1117600" data-name="Group 1117600" transform="translate(102.865 14.094)" opacity="0.5">
                <g id="Group_1117599" data-name="Group 1117599" transform="translate(0)">
                  <g id="Group_1117598" data-name="Group 1117598" clip-path="url(#clip-path-12)">
                    <path id="Path_896420" data-name="Path 896420" d="M425.179,123.985v4.766a7.465,7.465,0,0,0,4.254-4.2Z" transform="translate(-425.179 -123.984)" fill="#bf643a"/>
                  </g>
                </g>
              </g>
              <path id="Path_896421" data-name="Path 896421" d="M410.829,40a16.224,16.224,0,0,0,.269,1.947c.294,1.463.793,2.657,1.639,3,2.133.876,4.951-.372,6.052-1.84s1.409-8.743,1.409-8.743L416.9,32.1l-6.116,2.51A37.883,37.883,0,0,0,410.829,40" transform="translate(-311.435 -28.45)" fill="#ffba9a"/>
              <path id="Path_896422" data-name="Path 896422" d="M401,30.754a5.851,5.851,0,0,1-2.263-4.281c-5.123,2.239-7.967,1.419-10.137-1.96a12.084,12.084,0,0,0,5.632-2.044c3.334-2.1,11.783-.215,8.358,8.1Z" transform="translate(-292.111 -19.214)" fill="#013d55"/>
              <path id="Path_896423" data-name="Path 896423" d="M389.829,76.945a1.826,1.826,0,1,0,2.652-.821,1.975,1.975,0,0,0-2.652.821" transform="translate(-282.072 -67.254)" fill="#ffba9a"/>
              <path id="Path_896424" data-name="Path 896424" d="M458.345,91.931a.412.412,0,1,0,.406-.48.448.448,0,0,0-.406.48" transform="translate(-355.81 -81.055)" fill="#013d55"/>
              <path id="Path_896425" data-name="Path 896425" d="M481.414,92.581a.412.412,0,1,0,.406-.48.448.448,0,0,0-.406.48" transform="translate(-381.501 -81.631)" fill="#013d55"/>
              <path id="Path_896426" data-name="Path 896426" d="M474.931,100.655c-.138.1-.273.188-.408.293a1.466,1.466,0,0,0-.375.393.586.586,0,0,0,.016.6,1.187,1.187,0,0,0,.4.359l.069-.081a2.464,2.464,0,0,1-.261-.392.362.362,0,0,1,.011-.357,1.774,1.774,0,0,1,.293-.353,2.814,2.814,0,0,0,.331-.39Z" transform="translate(-373.447 -89.212)" fill="#013d55"/>
              <path id="Path_896427" data-name="Path 896427" d="M448.949,82.675c-.025.3.411.3.944.347s.976-.039.989-.186c.03-.361-1.4-.4-1.608-.413a.465.465,0,0,0-.173.014.256.256,0,0,0-.152.238" transform="translate(-346.466 -73.051)" fill="#013d55"/>
              <path id="Path_896428" data-name="Path 896428" d="M482.213,83.267c.013.311-.326.319-.742.376s-.759-.02-.766-.171c-.016-.369,1.1-.441,1.261-.456a.274.274,0,0,1,.134.01c.078.033.109.14.113.241" transform="translate(-381.408 -73.575)" fill="#013d55"/>
              <path id="Path_896429" data-name="Path 896429" d="M457.421,120.934a1.773,1.773,0,0,1-.212-.432l2.567-.3a2.37,2.37,0,0,1-.229.482,4.785,4.785,0,0,1-2.126.246" transform="translate(-356.299 -106.541)" fill="#fff"/>
              <path id="Path_896430" data-name="Path 896430" d="M461.346,124.443c-.563.9-1.587,1.039-2.126.246a4.786,4.786,0,0,0,2.126-.246" transform="translate(-358.098 -110.296)" fill="#013d55"/>
              <g id="Group_1117603" data-name="Group 1117603" transform="translate(103.884 11.174)" opacity="0.6">
                <g id="Group_1117602" data-name="Group 1117602" transform="translate(0)">
                  <g id="Group_1117601" data-name="Group 1117601" clip-path="url(#clip-path-13)">
                    <path id="Path_896431" data-name="Path 896431" d="M433.545,99.434a1.142,1.142,0,1,0,1.142-1.142,1.142,1.142,0,0,0-1.142,1.142" transform="translate(-433.545 -98.292)" fill="#ff9498"/>
                  </g>
                </g>
              </g>
              <g id="Group_1117606" data-name="Group 1117606" transform="translate(99.394 11.546)" opacity="0.6">
                <g id="Group_1117605" data-name="Group 1117605" transform="translate(0)">
                  <g id="Group_1117604" data-name="Group 1117604" clip-path="url(#clip-path-14)">
                    <path id="Path_896432" data-name="Path 896432" d="M486.97,101.562a16.242,16.242,0,0,0,.269,1.947,1.123,1.123,0,0,0,.431-.89,1.15,1.15,0,0,0-.7-1.057" transform="translate(-486.97 -101.562)" fill="#ff9498"/>
                  </g>
                </g>
              </g>
              <path id="Path_896433" data-name="Path 896433" d="M400.745,87.851a3.121,3.121,0,0,1,.409-.748,1.677,1.677,0,0,1,.67-.475l-.02-.1a1.075,1.075,0,0,0-.861.41,1.488,1.488,0,0,0-.3.9Z" transform="translate(-291.916 -76.686)" fill="#013d55"/>
            </g>
          </g>
        </g>
      </g>
      <g id="Group_1117620" data-name="Group 1117620" transform="translate(2333.202 -3196.079) rotate(-90)">
        <g id="Group_1117619" data-name="Group 1117619" clip-path="url(#clip-path-15)">
          <g id="Group_1117618" data-name="Group 1117618">
            <g id="Group_1117617" data-name="Group 1117617" clip-path="url(#clip-path-15)">
              <g id="Group_1117613" data-name="Group 1117613" transform="translate(8.504 56.998)" opacity="0.3">
                <g id="Group_1117612" data-name="Group 1117612">
                  <g id="Group_1117611" data-name="Group 1117611" clip-path="url(#clip-path-17)">
                    <path id="Path_896434" data-name="Path 896434" d="M99.591,302.7a27.492,27.492,0,0,0,1.924-7.671l8.194-1.157-1.761-12.459-8.078,1.142a27.449,27.449,0,0,0-9.713-12.632l3.066-7.469-11.641-4.779-3.066,7.469a27.452,27.452,0,0,0-15.787,2.164l-4.946-6.489-10.007,7.628,5.017,6.58A27.58,27.58,0,0,0,46.8,290l-8.36,1.18L40.2,303.636l8.463-1.194a27.441,27.441,0,0,0,9.079,11.842l-3.117,7.593,12.659,5.2,3.117-7.593a27.438,27.438,0,0,0,14.781-2.047l5.183,6.8,10.007-7.628-5.119-6.714a27.415,27.415,0,0,0,4.333-7.189m-31.282,3.873a15.463,15.463,0,1,1,20.178-8.432,15.463,15.463,0,0,1-20.178,8.432" transform="translate(-38.444 -257.675)" fill="#bfa564"/>
                  </g>
                </g>
              </g>
              <g id="Group_1117616" data-name="Group 1117616" opacity="0.3">
                <g id="Group_1117615" data-name="Group 1117615">
                  <g id="Group_1117614" data-name="Group 1117614" clip-path="url(#clip-path-18)">
                    <path id="Path_896435" data-name="Path 896435" d="M33.2,26.89a15.5,15.5,0,0,0,1.721-4.115l4.667.047.071-7.1-4.6-.046a15.482,15.482,0,0,0-4.349-7.865l2.341-3.906L26.958.258,24.617,4.164a15.481,15.481,0,0,0-8.987-.128L13.421,0,7.2,3.408,9.437,7.5a15.558,15.558,0,0,0-4.6,7.842L.07,15.3,0,22.393l4.821.049a15.476,15.476,0,0,0,4.062,7.371L6.5,33.785l6.62,3.968,2.38-3.971a15.478,15.478,0,0,0,8.416.108l2.316,4.228,6.225-3.408-2.287-4.177A15.454,15.454,0,0,0,33.2,26.89m-17.772-.484a8.722,8.722,0,1,1,11.965-3,8.722,8.722,0,0,1-11.965,3" transform="translate(0.001)" fill="#bfa564"/>
                  </g>
                </g>
              </g>
            </g>
          </g>
        </g>
      </g>
      <g id="Group_1117631" data-name="Group 1117631" transform="translate(1411.601 -11356.359)">
        <g id="Group_1117622" data-name="Group 1117622" transform="translate(880.52 8483.377)">
          <g id="Group_1117623" data-name="Group 1117623" transform="translate(0 0)">
            <path id="Path_896436" data-name="Path 896436" d="M201.865,13.4H119.682a1.417,1.417,0,0,1,0-2.834h82.183a1.417,1.417,0,0,1,0,2.834" transform="translate(-118.265 -10.563)" fill="#ece4ce"/>
            <path id="Path_896437" data-name="Path 896437" d="M219.94,45.4H181.682a1.417,1.417,0,1,1,0-2.834H219.94a1.417,1.417,0,0,1,0,2.834" transform="translate(-136.34 -19.892)" fill="#ece4ce"/>
            <path id="Path_896438" data-name="Path 896438" d="M147.312,45.4h-27.63a1.417,1.417,0,1,1,0-2.834h27.63a1.417,1.417,0,1,1,0,2.834" transform="translate(-118.265 -19.892)" fill="#ece4ce"/>
            <path id="Path_896439" data-name="Path 896439" d="M201.865,77.4H119.682a1.417,1.417,0,1,1,0-2.834h82.183a1.417,1.417,0,0,1,0,2.834" transform="translate(-118.265 -29.221)" fill="#ece4ce"/>
          </g>
        </g>
        <g id="Group_1117624" data-name="Group 1117624" transform="translate(854.486 8476.359)">
          <path id="Path_896442" data-name="Path 896442" d="M0,8.458A8.457,8.457,0,1,0,8.457,0,8.458,8.458,0,0,0,0,8.458" transform="translate(0 0)" fill="#ece4ce"/>
          <path id="Path_896443" data-name="Path 896443" d="M28.871,30.155a.531.531,0,0,1-.933.024l-2.6-4.51a.662.662,0,0,1,1.147-.662l1.872,3.245,3.4-6.656a.687.687,0,0,1,.875-.337.662.662,0,0,1,.321.906Z" transform="translate(-20.677 -17.368)" fill="#fff"/>
        </g>
        <g id="Group_1117625" data-name="Group 1117625" transform="translate(854.486 8499.007)">
          <path id="Path_896442-2" data-name="Path 896442" d="M0,8.458A8.457,8.457,0,1,0,8.457,0,8.458,8.458,0,0,0,0,8.458" transform="translate(0 0)" fill="#ece4ce"/>
          <path id="Path_896443-2" data-name="Path 896443" d="M28.871,30.155a.531.531,0,0,1-.933.024l-2.6-4.51a.662.662,0,0,1,1.147-.662l1.872,3.245,3.4-6.656a.687.687,0,0,1,.875-.337.662.662,0,0,1,.321.906Z" transform="translate(-20.677 -17.368)" fill="#fff"/>
        </g>
        <g id="Group_1117626" data-name="Group 1117626" transform="translate(854.486 8521.655)">
          <path id="Path_896442-3" data-name="Path 896442" d="M0,8.458A8.457,8.457,0,1,0,8.457,0,8.458,8.458,0,0,0,0,8.458" transform="translate(0 0)" fill="#ece4ce"/>
          <path id="Path_896443-3" data-name="Path 896443" d="M28.871,30.155a.531.531,0,0,1-.933.024l-2.6-4.51a.662.662,0,0,1,1.147-.662l1.872,3.245,3.4-6.656a.687.687,0,0,1,.875-.337.662.662,0,0,1,.321.906Z" transform="translate(-20.677 -17.368)" fill="#fff"/>
        </g>
      </g>
    </g>
  </g>
</svg>
