<svg xmlns="http://www.w3.org/2000/svg" xmlns:xlink="http://www.w3.org/1999/xlink" width="178" height="178" viewBox="0 0 178 178">
  <defs>
    <clipPath id="clip-path">
      <rect id="Rectangle_408028" data-name="Rectangle 408028" width="94.452" height="98.659" fill="none"/>
    </clipPath>
  </defs>
  <g id="Group_1117930" data-name="Group 1117930" transform="translate(-712.785 -4121.084)">
    <g id="Group_1116833" data-name="Group 1116833" transform="translate(712.785 4121.085)">
      <path id="Path_882862" data-name="Path 882862" d="M89,0A89.047,89.047,0,1,1,0,89,89,89,0,0,1,89,0Z" transform="translate(0 -0.001)" fill="#f6ae5c"/>
      <path id="Path_882863" data-name="Path 882863" d="M78.668,0A78.668,78.668,0,1,1,0,78.668,78.668,78.668,0,0,1,78.668,0Z" transform="translate(10.332 10.331)" fill="#f3f9ff"/>
    </g>
    <g id="Group_1116834" data-name="Group 1116834" transform="translate(751.785 4160.085)">
      <rect id="Rectangle_401104" data-name="Rectangle 401104" width="99.117" height="100.574" transform="translate(-0.074 -0.085)" fill="none"/>
      <g id="Group_1117518" data-name="Group 1117518" transform="translate(1.926 0.915)">
        <g id="Group_1117517" data-name="Group 1117517" clip-path="url(#clip-path)">
          <path id="Path_896167" data-name="Path 896167" d="M211.7,208.43c.128,1.332-.178,2.871-1.734,3.083-3.3.451-2.332-3.932-5.35-4.959-1.327-.452-7.931-.407-9.591-.251-2.276.214-2.888,2.432-2.274,4.408.487,1.569,3.33,1.921,3.836,4.064.915,3.884-4.858,2.933-5.464,4.967-.639,2.143,3.016,4.863,3.62,6.8a46.636,46.636,0,0,1-18.595,6.56c-.36.046-.782-.245-.675.377h-7.322c-.915-2.372-2.21-4.95-4.625-6.069-1.938-.9-4.084-.627-5.479-2.614-.749-1.067-.779-2.408-1.891-3.312-1.237-1.006-2.617-.943-4-1.3a28.346,28.346,0,0,0,1.729-2.992c.833-1.286,2.577-2.907,2.705-4.428.134-1.591-.957-2.9-1.138-4.451-.163-1.4.1-2.923-.075-4.358-.158-1.329-1.011-2.424-1.1-3.523-.2-2.326,2.273-5.069.773-7.61a8.982,8.982,0,0,0,1.349,0c5.242-.181,7.488-5.659,4.625-9.827,3.209-3.557,6.551-7.441,9.635-11.176A30.989,30.989,0,0,0,174.318,167c-.33,2,1.13,4.634,3.227,4.965,1.812.287,5.643-1.648,7.876-1.859,5.822-.549,5.394,3,8.279,6.512,2.237,2.721,4.173.941,7.015.3,2.213-.5,8.4-1.761,8.848,1.561.328,2.443-1.63,3.028-2.527,4.76-.938,1.812-.686,7.57-.048,9.57.4,1.265,1.883,3.037,1.975,4,.145,1.521-1.915,2.057-1.418,4.111.209.863.963,1.181,1.452,1.822a11.723,11.723,0,0,1,2.7,5.679M166.174,185.16a1.722,1.722,0,0,0-.345,3.337,28.269,28.269,0,0,0,5.106.075,1.719,1.719,0,0,0,.41-3.279,19.881,19.881,0,0,0-5.171-.133" transform="translate(-122.838 -134.821)" fill="#ffc811"/>
          <path id="Path_896168" data-name="Path 896168" d="M115.021,442.965c1.381.357,2.761.294,4,1.3,1.111.9,1.142,2.246,1.891,3.312,1.395,1.987,3.541,1.717,5.479,2.614,2.416,1.119,3.71,3.7,4.625,6.069h-3.276c.108-.62-.313-.332-.675-.377a44.922,44.922,0,0,1-20.907-8.1c2.712-1.752,6.164-2.551,8.479-4.817.113.028.275-.029.385,0" transform="translate(-85.701 -357.602)" fill="#685700"/>
          <path id="Path_896169" data-name="Path 896169" d="M255.682,0c.3.753.885,1.172,1.192,1.988.481,1.281.736,3.155-.614,3.986a11.912,11.912,0,0,0-3.842,1.265c-2.095,1.458-2.271,4.835-5.408,5.094a38.725,38.725,0,0,0-3.854-4.817A34.564,34.564,0,0,0,247.2,4.432a41.86,41.86,0,0,1,5.66-3.889c.269-.145.609-.077.507-.543Z" transform="translate(-196.302)" fill="#ffc811"/>
          <path id="Path_896170" data-name="Path 896170" d="M272.406,31a37.615,37.615,0,0,1,5.393,1.833c19.746,8.068,31.5,28.9,28.686,50.07a45.909,45.909,0,0,1-5.175,15.732,11.724,11.724,0,0,0-2.7-5.679c-.489-.642-1.243-.959-1.452-1.822-.5-2.054,1.563-2.589,1.418-4.111-.093-.967-1.572-2.74-1.975-4-.638-2-.89-7.759.048-9.57.9-1.732,2.855-2.317,2.527-4.76-.446-3.322-6.635-2.057-8.848-1.561-2.842.637-4.778,2.419-7.015-.3-2.884-3.508-2.456-7.061-8.279-6.512-2.234.211-6.064,2.145-7.876,1.859-2.1-.331-3.558-2.968-3.227-4.966a20.66,20.66,0,0,0-.771-19.847c3.137-.259,3.313-3.636,5.408-5.094A11.913,11.913,0,0,1,272.406,31" transform="translate(-212.448 -25.026)" fill="#685700"/>
          <path id="Path_896171" data-name="Path 896171" d="M82.581,41.359a12.1,12.1,0,0,0-.388,18.983A11.9,11.9,0,0,0,97.8,60.147c0-.5-3.352-1.514-3.98-1.8A17.486,17.486,0,0,1,83.676,45.756c-.322-1.5-.245-3.041-.9-4.4,11.16-8.14,24.7,5.221,17.193,16.519-.306.461-1.938,2.222-1.934,2.424a6.268,6.268,0,0,0,1.987,3.6c1.247.933,2.69,1.018,4.143,1.349-3.083,3.735-6.426,7.619-9.635,11.176-.325.36-.877.745-1.255,1.153-1.058,1.141-1.78,2.808-3.562,2.7A1.607,1.607,0,0,1,88.65,79.9a36.59,36.59,0,0,1-3.371-3.661c-3.551-3.949-10.782-11.295-13.1-15.608a21.832,21.832,0,0,1-1.927-14.259A21.56,21.56,0,0,1,77.957,35c-.189,2.068.228,3.835,2.059,4.975.844.526,1.94.629,2.566,1.384" transform="translate(-56.345 -28.256)" fill="#e2953c"/>
          <path id="Path_896172" data-name="Path 896172" d="M52.084,183.608c-3.147,3.216-1.072,9.384,3.276,10.02,1.5,2.542-.97,5.285-.773,7.61.093,1.1.946,2.195,1.1,3.523.171,1.434-.089,2.957.075,4.357.181,1.55,1.272,2.86,1.137,4.452-.128,1.521-1.872,3.142-2.705,4.428a28.331,28.331,0,0,1-1.729,2.992c-.111-.029-.273.028-.385,0-3.3-.816-4.84-2.986-8.385-3.273-2.393-.193-4.282.3-6.583-.932-2.946-1.58-3.437-5.593-5.97-7.325-.78-.533-2.941-.89-2.377-2.151.113-.084.245-.4.48-.574,2.572-1.891,6.679-3.063,8.874-5.2.3-.292,3.485-5.255,3.785-5.85,1.109-2.2.045-2.681-.479-4.6-.556-2.037-.1-3.973-.574-5.978-.191-.809-.8-1.6-.9-2.183-.472-2.748,2.181-5.136.345-8.053-.6-.958-2.453-2.508-2.667-3.6-.23-1.169.07-2.874,1.349-3.276,2.321,4.313,9.552,11.659,13.1,15.608" transform="translate(-23.15 -135.627)" fill="#fed54e"/>
          <path id="Path_896173" data-name="Path 896173" d="M132.408,16.035l4.817,3.083a38.724,38.724,0,0,1,3.854,4.817,20.66,20.66,0,0,1,.771,19.847,30.981,30.981,0,0,1-3.661,4.817c-1.453-.331-2.9-.416-4.143-1.349a6.268,6.268,0,0,1-1.987-3.6c0-.2,1.628-1.963,1.934-2.424,7.5-11.3-6.033-24.659-17.193-16.519-.042.031-.152-.031-.193,0-.626-.755-1.722-.858-2.566-1.384-1.831-1.14-2.248-2.907-2.059-4.975,5.227-3.927,11.268-4.823,17.577-3.221a24.406,24.406,0,0,0,2.849.909" transform="translate(-90.371 -11.603)" fill="#f6ae5c"/>
          <path id="Path_896174" data-name="Path 896174" d="M372.9,375.714a47.38,47.38,0,0,1-15.223,15.03c-.6-1.938-4.259-4.659-3.621-6.8.606-2.034,6.379-1.083,5.464-4.967-.505-2.144-3.348-2.5-3.836-4.064-.614-1.976,0-4.194,2.274-4.408,1.66-.156,8.264-.2,9.591.251,3.018,1.028,2.045,5.41,5.35,4.959" transform="translate(-285.771 -299.022)" fill="#685700"/>
          <path id="Path_896175" data-name="Path 896175" d="M169.063,259.827c-.827-1.446-1.477-2.512-1.112-4.291.139-.678.776-1.041.919-1.682,1.782.108,2.5-1.56,3.562-2.7.379-.409.931-.794,1.255-1.153,2.864,4.169.617,9.646-4.625,9.827" transform="translate(-135.504 -201.827)" fill="#a40f1e"/>
          <path id="Path_896176" data-name="Path 896176" d="M148.24,253.047c-.144.641-.78,1-.919,1.682-.365,1.779.285,2.845,1.112,4.291a8.93,8.93,0,0,1-1.349,0c-4.348-.636-6.423-6.8-3.276-10.02a36.591,36.591,0,0,0,3.371,3.661,1.607,1.607,0,0,0,1.061.385" transform="translate(-114.873 -201.019)" fill="#a40f1e"/>
          <path id="Path_896177" data-name="Path 896177" d="M218.559,260.8a19.884,19.884,0,0,1,5.171.133,1.719,1.719,0,0,1-.41,3.279,28.28,28.28,0,0,1-5.106-.075,1.722,1.722,0,0,1,.345-3.337" transform="translate(-175.223 -210.459)" fill="#97831d"/>
          <path id="Path_896178" data-name="Path 896178" d="M14.482,145.442c.214,1.088,2.064,2.638,2.667,3.6,1.837,2.917-.816,5.3-.345,8.053.1.581.709,1.374.9,2.183.473,2.005.018,3.941.574,5.978.525,1.921,1.588,2.4.479,4.6-.3.595-3.484,5.558-3.785,5.85-2.195,2.135-6.3,3.307-8.874,5.2-.235.172-.367.49-.48.574a1.285,1.285,0,0,1-.771.193c-7.269-15.242-6.357-31.424,2.7-45.668,2.31,1.3,2.842,4.256,4.235,6.459a8.547,8.547,0,0,0,2.7,2.983" transform="translate(0 -109.794)" fill="#1e2ad5"/>
          <path id="Path_896179" data-name="Path 896179" d="M49.244,385.681c-2.315,2.266-5.767,3.066-8.479,4.817a42.371,42.371,0,0,1-15.608-18.306,1.285,1.285,0,0,0,.771-.193c-.564,1.261,1.6,1.618,2.377,2.151,2.533,1.733,3.025,5.745,5.97,7.325,2.3,1.234,4.19.738,6.583.932,3.546.286,5.082,2.457,8.385,3.273" transform="translate(-20.309 -300.318)" fill="#9d850c"/>
          <path id="Path_896180" data-name="Path 896180" d="M47.443,108.259c-1.279.4-1.579,2.107-1.349,3.276a8.547,8.547,0,0,1-2.7-2.983c-1.393-2.2-1.926-5.161-4.235-6.459a2.141,2.141,0,0,1,.177-.681A42.03,42.03,0,0,1,45.516,94a21.832,21.832,0,0,0,1.927,14.259" transform="translate(-31.612 -75.887)" fill="#ffc811"/>
          <path id="Path_896181" data-name="Path 896181" d="M227.021,22.04a34.563,34.563,0,0,1-4.047,3.083l-4.817-3.083a17.718,17.718,0,0,0,2.593-.2,39.947,39.947,0,0,1,6.27.2" transform="translate(-176.12 -17.608)" fill="#1e2ad5"/>
          <path id="Path_896182" data-name="Path 896182" d="M116.268,67.962c.657,1.356.58,2.9.9,4.4a17.486,17.486,0,0,0,10.144,12.594c.629.283,3.983,1.3,3.98,1.8a11.9,11.9,0,0,1-15.607.2,12.1,12.1,0,0,1,.388-18.983c.04-.031.151.031.193,0" transform="translate(-89.839 -54.859)" fill="#f6ae5c"/>
        </g>
      </g>
    </g>
  </g>
</svg>
