<svg xmlns="http://www.w3.org/2000/svg" xmlns:xlink="http://www.w3.org/1999/xlink" width="104.668" height="126" viewBox="0 0 104.668 126">
  <defs>
    <clipPath id="clip-path">
      <rect id="Rectangle_400938" data-name="Rectangle 400938" width="85" height="85" transform="translate(-0.004)" fill="none"/>
    </clipPath>
    <clipPath id="clip-path-2">
      <rect id="Rectangle_401492" data-name="Rectangle 401492" width="52.101" height="52.101" transform="translate(-0.294 0)" fill="#fffceb" stroke="#707070" stroke-width="1"/>
    </clipPath>
    <clipPath id="clip-path-3">
      <rect id="Rectangle_407552" data-name="Rectangle 407552" width="45.83" height="46.076" fill="#fffceb"/>
    </clipPath>
  </defs>
  <g id="Group_1118032" data-name="Group 1118032" transform="translate(-810.998 -5503)">
    <rect id="Rectangle_407423" data-name="Rectangle 407423" width="104.668" height="126" transform="translate(810.998 5503)" fill="#ffc811"/>
    <g id="Group_1117152" data-name="Group 1117152" transform="translate(428.002 2774.992)">
      <g id="Group_1111452" data-name="Group 1111452" transform="translate(393 2749.008)">
        <g id="Group_1113606" data-name="Group 1113606" transform="translate(6.891 79.253) rotate(-90)">
          <path id="Union_11" data-name="Union 11" d="M35.5,70C15.9,70,0,54.333,0,35V0H35.5C55.107,0,71,15.672,71,35V70Z" transform="translate(0.254 0.105)" fill="#685700" stroke="rgba(0,0,0,0)" stroke-miterlimit="10" stroke-width="1"/>
          <g id="Group_1110743" data-name="Group 1110743" transform="translate(61.936 10.111) rotate(90)">
            <rect id="Rectangle_401104" data-name="Rectangle 401104" width="48.544" height="49.327" transform="translate(1.778)" fill="none"/>
            <g id="Mask_Group_1098697" data-name="Mask Group 1098697" transform="translate(0 0)" clip-path="url(#clip-path-2)">
              <g id="Group_1117304" data-name="Group 1117304" transform="translate(2.706 3.683)">
                <g id="Group_1117303" data-name="Group 1117303" clip-path="url(#clip-path-3)">
                  <path id="Path_895697" data-name="Path 895697" d="M39,20.762h6.037c.993,0,1.212,3.689-.473,3.526V42.579c1.579-.1,1.625,3.235.443,3.5L1.044,46.046a1.571,1.571,0,0,1-.925-1.2l0-13.67c.166-1.458,1.3-1.483,2.521-1.393V14.261C1.156,13.848-.5,11.443.143,9.968L6.814.319C7.279.04,10.26.225,11.074.2c.35-.01.672-.136,1.05-.144,7.533-.164,15.1.08,22.629.073l6.74,9.845A4.132,4.132,0,0,1,39,14.194ZM2.245,9.617h6.1l3.184-8.093c-1.317.074-2.627.163-3.954.16ZM17.239,1.523H13.126L9.808,9.617h6.369Zm6.767,8.094L22.82,1.58,18.7,1.524,17.637,9.617Zm4.511-8.094H24.4l1.061,8.094H31.7ZM39.53,9.617,33.891,1.523H29.977l3.317,8.094ZM7.951,11.076H1.582c.553,2.886,5.775,2.879,6.369,0m7.961,0H9.543c.645,2.869,5.8,2.907,6.369,0m8.094,0H17.637c.55,2.905,5.76,2.868,6.369,0m7.961,0H25.6c.579,2.863,5.832,2.906,6.369,0m7.961,0H33.692c.687,2.687,5.571,2.711,6.236,0M6.889,14.327V29.785h5.772c1.018-2.286,2.606-4.436,5.108-5.176.054-.2-.052-.22-.13-.332a12.471,12.471,0,0,1-1.085-1.3,4.892,4.892,0,1,1,7.19,1.437c2.274,1.122,4.342,2.835,5.039,5.374h3.052V24.212c-1.253.153-1.251-2.094-1.034-2.826a2.778,2.778,0,0,1,.57-.624h3.184c.189-.116.183-.264.206-.458.22-1.874-.182-4.166,0-6.088L32.829,12.8a5.294,5.294,0,0,1-7.979.14c-.452.239-.725.629-1.173.922a5.29,5.29,0,0,1-6.9-1.062c-1.814,2.531-5.985,2.456-7.979.14Zm30.65.2H36.213v6.037a1.054,1.054,0,0,0,1.327,0Zm-32.11.133H4.1V29.785H5.43ZM20.392,17.08c-4.446.523-3.845,7.532,1.015,6.855,4.221-.588,3.457-7.38-1.015-6.855m23.914,5.672-.018-.447-.181-.217H32.232v.663Zm-1.194,1.46H33.294V42.655h9.819ZM27.19,29.785c-2.205-5.832-10.555-5.72-12.871,0Zm4.644,1.46H1.582v13.4H30.773c-.064-1.038-.088-1.807,1.07-2.071L31.834,41.2H5.629c-.331,0-.436-.462-.464-.728a46.211,46.211,0,0,1,.069-5.373,2.294,2.294,0,0,1,.4-.4H31.834Zm0,4.909H6.624v3.583h25.21Zm12.472,7.961H32.232v.531H44.307Z" transform="translate(0 0)" fill="#fffceb"/>
                  <path id="Path_895698" data-name="Path 895698" d="M271.724,210.851c.027.045.763.311.952.441,1.413.97.458,2.144-.482,1.575-.15-.091-.162-.374-.481-.479-.856-.282-2.17,0-1.948,1.141.2,1.038,1.2.7,1.947.851a2.477,2.477,0,0,1,.664,4.527,5.3,5.3,0,0,1-.657.2c-.142.163.277,1.538-.741,1.586-1.081.052-.555-1.113-.755-1.447-.135-.223-2.053-.538-1.677-1.785.316-1.049,1.446.2,1.793.276.966.221,2.08-.188,1.736-1.338-.238-.8-1.157-.555-1.732-.655a2.485,2.485,0,0,1-.807-4.592c.183-.113.562-.149.649-.28.253-.38-.283-1.525.794-1.474.969.046.574,1.16.747,1.447" transform="translate(-232.704 -181.617)" fill="#fffceb"/>
                </g>
              </g>
            </g>
          </g>
        </g>
      </g>
      <g id="Group_1115343" data-name="Group 1115343" transform="translate(456.03 2805.465)">
        <path id="Path_886575" data-name="Path 886575" d="M1.139.04A.987.987,0,0,0,0,.851.971.971,0,0,0,.958,1.857.97.97,0,0,0,1.9.838c-.059-.513-.255-.979-.758-.8" transform="translate(9.053 0) rotate(19)" fill="#ffefdb"/>
        <path id="Path_886576" data-name="Path 886576" d="M1.651.037C-.478-.428-.04,3.638.233,4.66a1.575,1.575,0,0,0,.229.547,1.13,1.13,0,0,0,1.211.331,1.865,1.865,0,0,0,1-.828C3.443,3.477,3.62.467,1.651.037" transform="translate(5.496 3.487) rotate(19)" fill="#ffefdb"/>
        <path id="Path_886577" data-name="Path 886577" d="M1.369,2.226C2.816,1.551,1.518-.82.393.293A1.425,1.425,0,0,0,0,1.34a1.127,1.127,0,0,0,.124.517.993.993,0,0,0,1.245.369" transform="translate(10.483 3.542) rotate(19)" fill="#ffefdb"/>
        <path id="Path_886578" data-name="Path 886578" d="M1.944,3.6c.684-.624,1.546-2.373.8-3.19A1.406,1.406,0,0,0,.484.838a5.177,5.177,0,0,0-.45,1.708A1.2,1.2,0,0,0,.123,3.4a1.261,1.261,0,0,0,.316.289,1.419,1.419,0,0,0,.55.286,1.171,1.171,0,0,0,.955-.37" transform="translate(7.717 8.555) rotate(19)" fill="#ffefdb"/>
        <path id="Path_886579" data-name="Path 886579" d="M.518,2.222A.944.944,0,0,0,1.7,2.116C2.719,1.1.929-.876.149.435a1.429,1.429,0,0,0,0,1.271,1.215,1.215,0,0,0,.367.515" transform="translate(13.495 8.172) rotate(19)" fill="#ffefdb"/>
        <path id="Path_886580" data-name="Path 886580" d="M.013.42a.85.85,0,0,0,.219.691A.947.947,0,0,0,.6,1.4a.691.691,0,0,0,.72-.139C2.156.45.236-.6.013.42" transform="translate(13.11 12.226) rotate(19)" fill="#ffefdb"/>
        <path id="Path_886581" data-name="Path 886581" d="M.5.389A1.91,1.91,0,0,0,.057,1.447a2.694,2.694,0,0,0,.08,1.421,1.329,1.329,0,0,0,1.092.864,1.405,1.405,0,0,0,1.31-.982C2.9,1.737,1.854-1.01.5.389" transform="translate(10.328 14.028) rotate(19)" fill="#ffefdb"/>
        <path id="Path_886582" data-name="Path 886582" d="M.306,1.482A.918.918,0,0,0,1.371,1.5C2.556.652.735-.742.086.481a.82.82,0,0,0,.22,1" transform="translate(3.516 10.268) rotate(19)" fill="#ffefdb"/>
        <path id="Path_886583" data-name="Path 886583" d="M.93.092A1.2,1.2,0,0,0,.345.47a1.555,1.555,0,0,0-.259.769A9.845,9.845,0,0,0,0,2.305,2.38,2.38,0,0,0,.175,3.412a1.031,1.031,0,0,0,.907.61,1.212,1.212,0,0,0,.885-.556C2.638,2.552,3-.574.93.092" transform="translate(1.31 12.851) rotate(19)" fill="#ffefdb"/>
        <path id="Path_886584" data-name="Path 886584" d="M2.416.395C1.91.049,1.045-.207.565.234A2.827,2.827,0,0,0,.01,2,2.789,2.789,0,0,0,.288,3.573a1.436,1.436,0,0,0,1.366.752,1.558,1.558,0,0,0,.778-.378A2.255,2.255,0,0,0,2.416.395" transform="translate(5.154 16.586) rotate(19)" fill="#ffefdb"/>
      </g>
      <g id="Group_1115350" data-name="Group 1115350" transform="translate(416.571 2779.005) rotate(180)">
        <path id="Path_886575-2" data-name="Path 886575" d="M1.139.04A.987.987,0,0,0,0,.851.971.971,0,0,0,.958,1.857.97.97,0,0,0,1.9.838c-.059-.513-.255-.979-.758-.8" transform="translate(9.053 0) rotate(19)" fill="#ffefdb"/>
        <path id="Path_886576-2" data-name="Path 886576" d="M1.651.037C-.478-.428-.04,3.638.233,4.66a1.575,1.575,0,0,0,.229.547,1.13,1.13,0,0,0,1.211.331,1.865,1.865,0,0,0,1-.828C3.443,3.477,3.62.467,1.651.037" transform="translate(5.496 3.487) rotate(19)" fill="#ffefdb"/>
        <path id="Path_886577-2" data-name="Path 886577" d="M1.369,2.226C2.816,1.551,1.518-.82.393.293A1.425,1.425,0,0,0,0,1.34a1.127,1.127,0,0,0,.124.517.993.993,0,0,0,1.245.369" transform="translate(10.483 3.542) rotate(19)" fill="#ffefdb"/>
        <path id="Path_886578-2" data-name="Path 886578" d="M1.944,3.6c.684-.624,1.546-2.373.8-3.19A1.406,1.406,0,0,0,.484.838a5.177,5.177,0,0,0-.45,1.708A1.2,1.2,0,0,0,.123,3.4a1.261,1.261,0,0,0,.316.289,1.419,1.419,0,0,0,.55.286,1.171,1.171,0,0,0,.955-.37" transform="translate(7.717 8.555) rotate(19)" fill="#ffefdb"/>
        <path id="Path_886579-2" data-name="Path 886579" d="M.518,2.222A.944.944,0,0,0,1.7,2.116C2.719,1.1.929-.876.149.435a1.429,1.429,0,0,0,0,1.271,1.215,1.215,0,0,0,.367.515" transform="translate(13.495 8.172) rotate(19)" fill="#ffefdb"/>
        <path id="Path_886580-2" data-name="Path 886580" d="M.013.42a.85.85,0,0,0,.219.691A.947.947,0,0,0,.6,1.4a.691.691,0,0,0,.72-.139C2.156.45.236-.6.013.42" transform="translate(13.11 12.226) rotate(19)" fill="#ffefdb"/>
        <path id="Path_886581-2" data-name="Path 886581" d="M.5.389A1.91,1.91,0,0,0,.057,1.447a2.694,2.694,0,0,0,.08,1.421,1.329,1.329,0,0,0,1.092.864,1.405,1.405,0,0,0,1.31-.982C2.9,1.737,1.854-1.01.5.389" transform="translate(10.328 14.028) rotate(19)" fill="#ffefdb"/>
        <path id="Path_886582-2" data-name="Path 886582" d="M.306,1.482A.918.918,0,0,0,1.371,1.5C2.556.652.735-.742.086.481a.82.82,0,0,0,.22,1" transform="translate(3.516 10.268) rotate(19)" fill="#ffefdb"/>
        <path id="Path_886583-2" data-name="Path 886583" d="M.93.092A1.2,1.2,0,0,0,.345.47a1.555,1.555,0,0,0-.259.769A9.845,9.845,0,0,0,0,2.305,2.38,2.38,0,0,0,.175,3.412a1.031,1.031,0,0,0,.907.61,1.212,1.212,0,0,0,.885-.556C2.638,2.552,3-.574.93.092" transform="translate(1.31 12.851) rotate(19)" fill="#ffefdb"/>
        <path id="Path_886584-2" data-name="Path 886584" d="M2.416.395C1.91.049,1.045-.207.565.234A2.827,2.827,0,0,0,.01,2,2.789,2.789,0,0,0,.288,3.573a1.436,1.436,0,0,0,1.366.752,1.558,1.558,0,0,0,.778-.378A2.255,2.255,0,0,0,2.416.395" transform="translate(5.154 16.586) rotate(19)" fill="#ffefdb"/>
      </g>
    </g>
  </g>
</svg>
