<svg xmlns="http://www.w3.org/2000/svg" xmlns:xlink="http://www.w3.org/1999/xlink" width="178" height="178" viewBox="0 0 178 178">
  <defs>
    <clipPath id="clip-path">
      <rect id="Rectangle_408033" data-name="Rectangle 408033" width="91.922" height="96.104" fill="none"/>
    </clipPath>
  </defs>
  <g id="Group_1117931" data-name="Group 1117931" transform="translate(-1064.785 -4121.084)">
    <g id="Group_1116836" data-name="Group 1116836" transform="translate(1064.785 4121.085)">
      <path id="Path_882862" data-name="Path 882862" d="M89,0A89.047,89.047,0,1,1,0,89,89,89,0,0,1,89,0Z" transform="translate(0 -0.001)" fill="#f6ae5c"/>
      <path id="Path_882863" data-name="Path 882863" d="M78.668,0A78.668,78.668,0,1,1,0,78.668,78.668,78.668,0,0,1,78.668,0Z" transform="translate(10.332 10.331)" fill="#f3f9ff"/>
    </g>
    <g id="Group_1116837" data-name="Group 1116837" transform="translate(1103.785 4160.085)">
      <rect id="Rectangle_401104" data-name="Rectangle 401104" width="99.117" height="100.574" transform="translate(-0.074 -0.085)" fill="none"/>
      <g id="Group_1117529" data-name="Group 1117529" transform="translate(3.926 2.915)">
        <g id="Group_1117528" data-name="Group 1117528" clip-path="url(#clip-path)">
          <path id="Path_896216" data-name="Path 896216" d="M99.089,389.795c0,.014.178.157.134.25-2.061,4.336-3.059,8.642.617,12.514-1.171,1.709-.366,4.257.6,5.875a16.67,16.67,0,0,1,1.652,2.383H92.707c.1-.6-.305-.323-.657-.367A44.831,44.831,0,0,1,63.8,395.613a6.971,6.971,0,0,1,6.614-2.391c1.568.227,2.905,1.965,4.371.706.335-.288.526-.878.844-1.22a6.447,6.447,0,0,1,4.125-2.35,7.839,7.839,0,0,1,3.754.469c.383.145.673.525,1.071.617,1.951.451,2.064-.872,3.054-1.936a6.662,6.662,0,0,1,7.266-1.626c1.593.59,2.412,2.417,4.189,1.912" transform="translate(-51.825 -314.714)" fill="#00b69f"/>
          <path id="Path_896217" data-name="Path 896217" d="M260.984,461.761a10.438,10.438,0,0,0,.939,6.757,46.014,46.014,0,0,1-4.974.947c-.351.045-.762-.238-.657.367h-.751a16.7,16.7,0,0,0-1.652-2.383c-.966-1.618-1.771-4.166-.6-5.875a6.17,6.17,0,0,1,1.558-1.163c2-.835,4.521.074,6.137,1.351" transform="translate(-205.273 -373.729)" fill="#95da76"/>
          <path id="Path_896218" data-name="Path 896218" d="M295.659,0a15.108,15.108,0,0,1,.15,4.373c-.184.622-.8.475-1.276.507-2.529.172-5.332-.047-7.881-.1-1.625-1.386-.888-3.223,0-4.784Z" transform="translate(-232.065)" fill="#fda1c7"/>
          <path id="Path_896219" data-name="Path 896219" d="M251.428,0c-.885,1.561-1.623,3.4,0,4.784,2.549.05,5.352.269,7.881.1v4.88c-2.489-.169-5.35-.005-7.884,0-.051-.546-.566-.707-.765-1.206-.6-1.5.173-2.41.764-3.674-2.532-.108-5.176.142-7.695,0-.646-.037-1.164.08-1.314-.751A9,9,0,0,1,242.794,0Z" transform="translate(-196.844)" fill="#fc77a3"/>
          <path id="Path_896220" data-name="Path 896220" d="M27.7,164a8.82,8.82,0,0,0,4.683,5.559c-.636,1.674-1.4,4.162.377,5.428,1.828,1.3,4.116-.413,5.075-1.978a19.512,19.512,0,0,0,1.318,2.154c1,1.264,3.259,2.717,4.876,1.788,1.219,2.961.482,5.369-.889,8.036-.1.194-.013.536-.05.6-.016.027-.384.047-.572.264-5.659,6.575-12.5,10.183-13.129,19.915-.066,1.024.043,2.07,0,3.1a6.448,6.448,0,0,0-4.125,2.35c-.318.342-.509.933-.844,1.22-1.466,1.258-2.8-.48-4.371-.706a6.971,6.971,0,0,0-6.614,2.391A43.393,43.393,0,0,1,1.8,188.4c2.862-2.351,4.793-5.539,7.137-8.348A66.526,66.526,0,0,1,27.7,164" transform="translate(-1.463 -133.217)" fill="#b56651"/>
          <path id="Path_896221" data-name="Path 896221" d="M45.574,22c.15.831.668.714,1.314.751v4.88c-.523.064-.788.153-.893.694a16.6,16.6,0,0,0,.128,4.483,2.332,2.332,0,0,0,.765.455v9.2C42.7,44.71,41,44.609,36.463,45.08c-4.176.433-6.688,1.643-10.222,3.574A66.524,66.524,0,0,0,7.475,64.707C5.13,67.516,3.2,70.7.338,73.055A44,44,0,0,1,.959,58.379,46.094,46.094,0,0,1,45.574,22" transform="translate(0 -17.871)" fill="#afbefc"/>
          <path id="Path_896222" data-name="Path 896222" d="M323.883,224.44c-1.5,2.624-2.365,4.869-2.063,7.976.227,2.338,3.712,9.7,4.905,12.176,1.677,3.476,4.072,8.056,8.232,8.755a43,43,0,0,1-5.256,7.32,6.821,6.821,0,0,0-7.074-1.537c-.467.165-1.06.676-1.373.786-1.935.68-2.52-1.512-3.752-2.536a6.7,6.7,0,0,0-5.521-1.386c-1.4.277-2.969,1.891-4.338.734-.517-.437-.527-1.15-.655-1.317l6.546-5.749a2.028,2.028,0,0,0-.345-2.425c-.242-.237-.6-.318-.757-.46a74.255,74.255,0,0,0-5.631-4.88c2.317-1.866,4.458-4.013,6.733-5.936a2.021,2.021,0,0,0-1.1-2.886l-5.443-4.88c.205-.166.45-.6.749-.847a52.9,52.9,0,0,0,5.072-4.124,2.672,2.672,0,0,0,.561-1.223,10.015,10.015,0,0,0,10.511,2.44" transform="translate(-249.214 -180.33)" fill="#cd7867"/>
          <path id="Path_896223" data-name="Path 896223" d="M397.061,219a135.705,135.705,0,0,0,8.259,16.142,44.252,44.252,0,0,1-5.631,15.767c-4.16-.7-6.555-5.278-8.232-8.755-1.193-2.473-4.678-9.837-4.905-12.176-.3-3.106.56-5.351,2.063-7.976,2.855-.861,5.492-2.465,8.447-3" transform="translate(-313.946 -177.893)" fill="#e18a7c"/>
          <path id="Path_896224" data-name="Path 896224" d="M374.49,69a45.844,45.844,0,0,1,18.395,44.3,135.717,135.717,0,0,1-8.259-16.142c-.382-.9-.68-1.989-1.093-2.943-.53-1.225-1.125-2.435-1.723-3.627.018-.009-.045-.283.129-.378,1.191-.655,2.65-1.512,2.7-3.092.1-2.886-3.546-3.16-5.648-2.536.569-2.163.044-6.092-2.91-5.827-.857.077-1.626,1.03-2.026.927a17.421,17.421,0,0,1-2.76-2.608c-.365-2.292.271-5.488,0-7.883A16.163,16.163,0,0,0,374.49,69" transform="translate(-301.511 -56.049)" fill="#afbefc"/>
          <path id="Path_896225" data-name="Path 896225" d="M251.716,387.635a16.465,16.465,0,0,1,3.191,2.065c.127.167.137.88.655,1.317,1.369,1.157,2.935-.457,4.338-.734a6.7,6.7,0,0,1,5.521,1.386c1.232,1.024,1.817,3.216,3.752,2.536-.927,2.7-.961,5.471.751,7.884a45.173,45.173,0,0,1-8.259,4.693c1.438-3.084.435-10.273-4.179-9.528-2.211.357-4.19,3.372-4.643,5.4-1.617-1.276-4.134-2.186-6.138-1.351a6.171,6.171,0,0,0-1.558,1.163c-3.676-3.872-2.678-8.178-.617-12.514.044-.093-.138-.237-.134-.25a10.9,10.9,0,0,1,2.628-1.877,7.059,7.059,0,0,1,4.693-.188" transform="translate(-197.132 -314.619)" fill="#3fcc8c"/>
          <path id="Path_896226" data-name="Path 896226" d="M304.693,449.535a44.689,44.689,0,0,1-7.884,2.628,10.438,10.438,0,0,1-.939-6.757c.453-2.026,2.433-5.041,4.643-5.4,4.614-.745,5.617,6.444,4.179,9.528" transform="translate(-240.16 -357.373)" fill="#b8ec63"/>
          <path id="Path_896227" data-name="Path 896227" d="M389.51,419.622a42.344,42.344,0,0,1-7.7,7.133c-1.712-2.412-1.678-5.18-.751-7.883.313-.11.906-.621,1.373-.786a6.821,6.821,0,0,1,7.074,1.537" transform="translate(-309.023 -339.285)" fill="#95da76"/>
          <path id="Path_896228" data-name="Path 896228" d="M343.313,47.88a16.162,16.162,0,0,1-3.191.188c-1.118-.005-2.264.055-3.379,0a10.778,10.778,0,0,0-2.628-.188,13.645,13.645,0,0,0-.038-2.684c-.184-.622-.8-.475-1.276-.507V43l10.132.1c.975.431.562,3.787.38,4.782" transform="translate(-270.334 -34.929)" fill="#baeef6"/>
          <path id="Path_896229" data-name="Path 896229" d="M162.416,279c5.314,5.773,4.456,14.291,8.259,20.835a10.9,10.9,0,0,0-2.628,1.877c-1.777.506-2.6-1.322-4.189-1.912a6.662,6.662,0,0,0-7.266,1.626c-.99,1.064-1.1,2.387-3.054,1.936-.4-.092-.688-.472-1.071-.617a7.839,7.839,0,0,0-3.754-.469c.045-1.025-.065-2.071,0-3.1.631-9.733,7.469-13.34,13.128-19.915.188-.218.556-.237.572-.264" transform="translate(-120.784 -226.631)" fill="#9d533b"/>
          <path id="Path_896230" data-name="Path 896230" d="M249.8,25.884c2.518.143,5.163-.107,7.695,0-.591,1.263-1.362,2.178-.764,3.674.2.5.715.66.765,1.206h-.188a74.908,74.908,0,0,0-7.508,0Z" transform="translate(-202.913 -21.003)" fill="#fd3e97"/>
          <path id="Path_896231" data-name="Path 896231" d="M232.689,208.375a4.428,4.428,0,0,1,.751.188c1.651.533,3.465,1.884,5.256,2.252a1.048,1.048,0,0,1-.273.564c-.846.685-5.044,3.9-5.255,4.512-.5,1.445.188,1.8,1.023,2.619,1.766,1.735,3.756,3.267,5.631,4.88a2.068,2.068,0,0,1-.46.759c-2.055,1.756-4.177,3.445-6.087,5.365a1.974,1.974,0,0,0,.371,2.405c.158.166.446.2.544.293,1.848,1.723,3.805,3.322,5.631,5.068-.27.224-.587.741-.936,1.035a43.262,43.262,0,0,0-4.132,3.658,7.059,7.059,0,0,0-4.693.188c-3.8-6.544-2.944-15.062-8.259-20.835.037-.063-.05-.4.05-.6,1.37-2.667,2.107-5.075.889-8.036a10.27,10.27,0,0,0,.724-.873,4.714,4.714,0,0,0,.027-3.82c2.933,1.06,6.173.034,9.2.375" transform="translate(-180.169 -168.958)" fill="#cd7867"/>
          <path id="Path_896232" data-name="Path 896232" d="M163.828,127.133a53.067,53.067,0,0,0,5.631,1.314c-.045.058-.05.3-.183.467-.8,1.025-4,4.811-4.237,5.724a2.09,2.09,0,0,0,1.041,2.256c-3.025-.341-6.264.684-9.2-.375-.806-1.978-3.788-4.821-6-3.277-1.029.719-1.2,2.942-.946,4.028-.959,1.565-3.247,3.28-5.075,1.978-1.778-1.267-1.013-3.754-.377-5.428a8.82,8.82,0,0,1-4.683-5.559c3.534-1.931,6.046-3.141,10.222-3.574,4.535-.471,6.237-.369,10.425-2.62,1.161-.624,2.254-1.38,3.379-2.065-.47,2.175-4.429,5.867-.793,7.09.273.092.606-.009.793.043" transform="translate(-113.561 -97.476)" fill="#3fcc8c"/>
          <path id="Path_896233" data-name="Path 896233" d="M200.287,191.905a4.714,4.714,0,0,1-.027,3.82,10.271,10.271,0,0,1-.724.873c-1.617.929-3.872-.524-4.876-1.788a19.516,19.516,0,0,1-1.318-2.154c-.258-1.085-.083-3.309.946-4.028,2.21-1.544,5.192,1.3,6,3.277" transform="translate(-156.965 -152.863)" fill="#95da76"/>
          <path id="Path_896234" data-name="Path 896234" d="M245.557,51.507a74.908,74.908,0,0,1,7.508,0c-.48,1.114-1.257,1.742-1.135,3.1a4.275,4.275,0,0,0,1.514,2.436,68.469,68.469,0,0,0,7.692.1v2.44a36.585,36.585,0,0,0-3.669-.111c-.149.022-2.306,1.049-2.713,1.237-.052.024-.137-.024-.188,0-1.333-.935-1.445-2-1.313-3.567h-7.7a2.332,2.332,0,0,1-.765-.455,16.6,16.6,0,0,1-.128-4.483c.105-.54.37-.63.893-.694" transform="translate(-198.669 -41.747)" fill="#fc77a3"/>
          <path id="Path_896235" data-name="Path 896235" d="M249.8,82h7.7c-.132,1.566-.02,2.632,1.313,3.567a66.064,66.064,0,0,0-5.631,3.566c-1.125.685-2.218,1.441-3.379,2.065Z" transform="translate(-202.913 -66.604)" fill="#fd3e97"/>
          <path id="Path_896236" data-name="Path 896236" d="M352.692,119.508c-4.649,1.381-4.816,6.482.28,6.4.252,0,2.422-.331,2.536-.39.6,1.192,1.193,2.4,1.723,3.627.413.954.711,2.047,1.093,2.943-2.955.538-5.592,2.142-8.447,3a10.015,10.015,0,0,1-10.511-2.44,2.463,2.463,0,0,0-.563-1.5c1.2-.164,3.084-1.341,3.336-2.577.5-2.45-1.195-4.54-1.436-6.925a9.794,9.794,0,0,1,3.6-8.927c.242-.215.52-.292.5-.716H345a17.422,17.422,0,0,0,2.76,2.608c.4.1,1.169-.85,2.026-.927,2.954-.265,3.479,3.664,2.91,5.827" transform="translate(-275.208 -90.977)" fill="#95da76"/>
          <path id="Path_896237" data-name="Path 896237" d="M291.957,280.8a2.021,2.021,0,0,1,1.1,2.886c-2.275,1.923-4.416,4.07-6.733,5.936-.95.765-2.271,2.263-3.566,1.689-.1-.092-.386-.126-.544-.293a1.974,1.974,0,0,1-.371-2.405c1.91-1.92,4.031-3.609,6.087-5.365a2.069,2.069,0,0,0,.459-.759c.048-.035.412.023.658-.178.914-.748,1.411-1.786,2.908-1.511" transform="translate(-228.739 -228.061)" fill="#baeef6"/>
          <path id="Path_896238" data-name="Path 896238" d="M290.906,211c.422.213.934.2,1.314.563a2.463,2.463,0,0,1,.563,1.5,2.672,2.672,0,0,1-.561,1.223,52.9,52.9,0,0,1-5.072,4.124c-.3.242-.544.681-.749.847-.053.043-.3.051-.467.183-1.087.843-1.676,1.833-3.287,1.507-.834-.82-1.521-1.174-1.023-2.619.211-.611,4.409-3.827,5.255-4.512a1.047,1.047,0,0,0,.273-.564c.044-.033.411.021.659-.178.97-.777,1.77-1.918,3.1-2.075" transform="translate(-228.626 -171.395)" fill="#e5f6fa"/>
          <path id="Path_896239" data-name="Path 896239" d="M299.436,353.9c.157.143.515.223.757.46a2.028,2.028,0,0,1,.345,2.425l-6.546,5.749a16.467,16.467,0,0,0-3.191-2.065,43.256,43.256,0,0,1,4.132-3.658c.349-.294.667-.811.936-1.035.054-.045.306-.048.469-.181.941-.764,1.655-1.894,3.1-1.7" transform="translate(-236.218 -287.455)" fill="#baeef6"/>
          <path id="Path_896240" data-name="Path 896240" d="M291.556,255,297,259.88c-1.5-.274-1.994.763-2.908,1.511-.246.2-.61.143-.658.178-1.875-1.613-3.865-3.146-5.631-4.88,1.612.326,2.2-.664,3.287-1.507.17-.132.414-.14.467-.183" transform="translate(-233.781 -207.136)" fill="#8ddff6"/>
          <path id="Path_896241" data-name="Path 896241" d="M297,332.88c-1.442-.2-2.157.932-3.1,1.7-.163.133-.415.136-.469.181-1.826-1.746-3.783-3.345-5.631-5.068,1.3.574,2.616-.925,3.566-1.689A74.273,74.273,0,0,1,297,332.88" transform="translate(-233.781 -266.434)" fill="#8ddff6"/>
          <path id="Path_896242" data-name="Path 896242" d="M397.593,150.807c2.1-.624,5.745-.351,5.648,2.536-.053,1.58-1.513,2.437-2.7,3.092-.173.1-.111.369-.129.378-.114.059-2.284.386-2.536.39-5.1.085-4.929-5.016-.28-6.4" transform="translate(-320.109 -122.276)" fill="#b8ec63"/>
          <path id="Path_896243" data-name="Path 896243" d="M357.181,70c.271,2.4-.365,5.592,0,7.884h-.188c-1.056-.432-2.253-1.629-3.191-2.065V70c1.115.055,2.26-.005,3.379,0" transform="translate(-287.393 -56.859)" fill="#8ddff6"/>
          <path id="Path_896244" data-name="Path 896244" d="M292.905,51.67c.472.032,1.092-.115,1.276.507a13.647,13.647,0,0,1,.038,2.684c-.04,1.352.4,2.206-1.314,2.44a68.472,68.472,0,0,1-7.692-.1,4.276,4.276,0,0,1-1.514-2.436c-.122-1.355.655-1.984,1.135-3.1h.188c2.533-.005,5.395-.169,7.883,0" transform="translate(-230.437 -41.909)" fill="#fda1c7"/>
          <path id="Path_896245" data-name="Path 896245" d="M336.744,68.974v5.819a23.6,23.6,0,0,0-3.942-1.126v-2.44c1.709-.234,1.274-1.088,1.314-2.44a10.778,10.778,0,0,1,2.628.188" transform="translate(-270.334 -55.835)" fill="#fcef56"/>
          <path id="Path_896246" data-name="Path 896246" d="M281.774,148.951c.484.147.786-.092,1.318.466a2.041,2.041,0,0,1,.077,2.712,72.952,72.952,0,0,1-4.4,5.832c-.829,1.045-1.605,2.449-3,2.628a4.427,4.427,0,0,0-.751-.188,2.09,2.09,0,0,1-1.041-2.256c.24-.913,3.44-4.7,4.237-5.724.133-.171.138-.409.183-.467a31.88,31.88,0,0,1,2.154-2.632,1.569,1.569,0,0,1,1.225-.371" transform="translate(-222.497 -120.983)" fill="#e5f6fa"/>
          <path id="Path_896247" data-name="Path 896247" d="M292.812,199.628c-1.325.157-2.126,1.3-3.1,2.075-.248.2-.615.145-.659.178-1.79-.368-3.6-1.719-5.256-2.252,1.4-.179,2.174-1.583,3-2.628a46.369,46.369,0,0,1,6.007,2.628" transform="translate(-230.532 -160.023)" fill="#8ddff6"/>
          <path id="Path_896248" data-name="Path 896248" d="M260.222,108.478c-.027.049-.25.137-.344.306-.626,1.12-.825,2.3-2.1,2.885-.187-.052-.52.049-.793-.043-3.636-1.223.323-4.915.793-7.09a66.047,66.047,0,0,1,5.631-3.566c.051-.024.136.024.188,0a1.753,1.753,0,0,1-.21,1.008c-.782,1.9-2.176,4.683-3.168,6.5" transform="translate(-207.515 -82.012)" fill="#e5f6fa"/>
          <path id="Path_896249" data-name="Path 896249" d="M276.812,142.5a1.569,1.569,0,0,0-1.225.371,31.875,31.875,0,0,0-2.154,2.632,53.074,53.074,0,0,1-5.631-1.314c1.271-.587,1.47-1.765,2.1-2.885.094-.169.317-.257.344-.306,2.188.5,4.418.851,6.57,1.5" transform="translate(-217.535 -114.534)" fill="#8ddff6"/>
          <path id="Path_896250" data-name="Path 896250" d="M290.563,94.436a23.6,23.6,0,0,1,3.942,1.126c.938.436,2.135,1.633,3.191,2.065.017.425-.261.5-.5.716a9.794,9.794,0,0,0-3.6,8.927c.241,2.385,1.935,4.475,1.436,6.925-.252,1.236-2.135,2.413-3.336,2.577-.38-.367-.892-.35-1.314-.563a46.371,46.371,0,0,0-6.007-2.628,72.947,72.947,0,0,0,4.4-5.832,2.041,2.041,0,0,0-.077-2.712c-.532-.558-.833-.319-1.318-.466-2.151-.651-4.382-1-6.57-1.5.992-1.817,2.386-4.6,3.168-6.5a1.754,1.754,0,0,0,.21-1.008c.407-.188,2.564-1.215,2.713-1.237a36.59,36.59,0,0,1,3.669.111" transform="translate(-228.095 -76.604)" fill="#3fcc8c"/>
        </g>
      </g>
    </g>
  </g>
</svg>
