<svg xmlns="http://www.w3.org/2000/svg" xmlns:xlink="http://www.w3.org/1999/xlink" width="70" height="70" viewBox="0 0 70 70">
  <defs>
    <clipPath id="clip-path">
      <rect id="Rectangle_407549" data-name="Rectangle 407549" width="32.184" height="33.386" fill="#050c68"/>
    </clipPath>
  </defs>
  <g id="Group_1117160" data-name="Group 1117160" transform="translate(-269 -958)">
    <circle id="Ellipse_5614" data-name="Ellipse 5614" cx="35" cy="35" r="35" transform="translate(269 958)" fill="#fff"/>
    <g id="Group_1117298" data-name="Group 1117298" transform="translate(289.908 974.307)">
      <g id="Group_1117297" data-name="Group 1117297" clip-path="url(#clip-path)">
        <path id="Path_895677" data-name="Path 895677" d="M4.6,46.113v1.766c0,1.341,1.7,2.355,2.907,2.439,3.457.239,7.2-.178,10.684-.016.918-.1,1.924.158,2.637-1.28a6.118,6.118,0,0,0,0-1.047V46.113c1.193.1,2.608-.138,3.773,0,.555.065.764.476.814,1l-.024,6.763-9,9.046c-.713,1.837-2.141,3.97-2.674,5.821a2.92,2.92,0,0,0,3.5,3.786,39.057,39.057,0,0,0,6.186-2.882c.693-.558,1.274-1.418,2-1.958v6.634c0,.2-.7.844-1,.72l-23.8-.077-.534-.612L.013,47.111c-.1-.282.433-1,.625-1Zm7.231,6.7c-.74.142-2.275,2.257-3,2.742-.191.033-.882-.891-1.154-1.021a.986.986,0,0,0-1.307,1.4,26.932,26.932,0,0,0,1.914,1.9,1.173,1.173,0,0,0,.966.035L12.928,54.2a.968.968,0,0,0-1.1-1.388m-8.213,2.96a.974.974,0,0,0,.529,1.868.974.974,0,1,0-.529-1.868m9.158,3.64a1.017,1.017,0,0,0-1.242-.114l-2.7,2.651c-.2.035-.928-.943-1.187-1.083A.985.985,0,0,0,6.265,62.06a21.937,21.937,0,0,0,2.009,2.1.964.964,0,0,0,1.291-.141A32.334,32.334,0,0,0,12.752,60.8a1.065,1.065,0,0,0,.023-1.39m-9.06,2.66a.972.972,0,1,0,.53,1.868.972.972,0,0,0-.53-1.868m8.113,3.438c-.76.156-2.259,2.245-2.994,2.74-.213.037-.919-.983-1.27-1.1a1,1,0,0,0-1.191,1.477,26.931,26.931,0,0,0,1.914,1.9,1.173,1.173,0,0,0,.966.035L12.928,66.9c.3-.81-.207-1.569-1.1-1.386M3.2,70.044a.98.98,0,0,0,1.5-1.261.98.98,0,1,0-1.5,1.261" transform="translate(0 -41.671)" fill="#050c68"/>
        <path id="Path_895678" data-name="Path 895678" d="M206.581,129.4a1.123,1.123,0,0,1,.883.127,32.888,32.888,0,0,1,2.823,2.81.973.973,0,0,1,.243,1.107l-9.218,9.3-4.05-4.137,8.964-8.988a.765.765,0,0,1,.356-.216" transform="translate(-178.431 -117.016)" fill="#050c68"/>
        <path id="Path_895679" data-name="Path 895679" d="M77.57,2.152h1.861c.329,0,.679.682.716,1a16.563,16.563,0,0,1-.006,2.667c-.1.64-.593.865-1.183.917-2.989.051-6.489-.136-10.366-.046a1.037,1.037,0,0,1-.848-.871,16.345,16.345,0,0,1,.016-2.835c.047-.258.454-.834.693-.834h1.957C70.455,1.027,70.068.16,71.5.048c1.708-.133,3.656.055,5.382.067.807.246.694,1.372.684,2.037" transform="translate(-61.229 0)" fill="#050c68"/>
        <path id="Path_895680" data-name="Path 895680" d="M164.517,243.5l3.536,3.719-4.388,1.961a1.017,1.017,0,0,1-1.415-1.125c.736-1.312,1.191-3,1.932-4.275.077-.132.131-.327.335-.279" transform="translate(-146.747 -220.249)" fill="#050c68"/>
      </g>
    </g>
  </g>
</svg>
