<svg id="Group_1117543" data-name="Group 1117543" xmlns="http://www.w3.org/2000/svg" xmlns:xlink="http://www.w3.org/1999/xlink" width="69" height="69" viewBox="0 0 69 69">
  <defs>
    <clipPath id="clip-path">
      <rect id="Rectangle_407310" data-name="Rectangle 407310" width="69" height="69" fill="none"/>
    </clipPath>
  </defs>
  <g id="Group_1116971" data-name="Group 1116971" clip-path="url(#clip-path)">
    <path id="Path_893595" data-name="Path 893595" d="M69,34.5A34.5,34.5,0,1,1,34.5,0,34.5,34.5,0,0,1,69,34.5" fill="#afbefc"/>
    <rect id="Rectangle_407319" data-name="Rectangle 407319" width="55" height="65" rx="4" transform="translate(6 2)" fill="#fff"/>
    <g id="Group_1116998" data-name="Group 1116998" transform="translate(-5.659 -11.231)">
      <path id="Path_893598" data-name="Path 893598" d="M78.881,53.825c1.8.008,3.607-.006,5.406,0V71c-1.8.006-3.607-.008-5.406,0-12.928.057-25.866-.043-38.795,0V53.825c12.929.043,25.867-.057,38.795,0" transform="translate(-12.427 -16.68)" fill="#0a8d17"/>
      <text id="XLS" transform="translate(35.659 51.162)" fill="#fff" font-size="16" font-family="Roboto-Bold, Roboto" font-weight="700" letter-spacing="0.01em"><tspan x="0" y="0">XLS</tspan></text>
    </g>
    <g id="Group_1116997" data-name="Group 1116997">
      <g id="Group_1116995" data-name="Group 1116995" transform="translate(19.608 39.573) rotate(180)" opacity="0.65">
        <path id="Path_885865" data-name="Path 885865" d="M9.05,4.873,4.525,0,0,4.873,4.525,9.745ZM4.525,2.26,6.952,4.873,4.525,7.485,2.1,4.873Z" transform="translate(2.293 0)" fill="#685700"/>
        <path id="Path_885866" data-name="Path 885866" d="M6.624,14.264V0L0,7.132Zm0-9.29-2,2.158,2,2.158v2.361l-4.2-4.519,4.2-4.519Z" transform="translate(6.818 5.032)" fill="#685700"/>
        <path id="Path_885867" data-name="Path 885867" d="M0,0V14.264L6.624,7.132ZM0,9.29,2,7.132,0,4.974V2.613L4.2,7.132,0,11.651Z" transform="translate(0 5.032)" fill="#685700"/>
        <path id="Path_885868" data-name="Path 885868" d="M9.05,4.873,4.525,0,0,4.873,4.525,9.745ZM4.525,2.26,6.952,4.873,4.525,7.485,2.1,4.873Z" transform="translate(2.293 13.601)" fill="#685700"/>
        <path id="Path_885869" data-name="Path 885869" d="M6.624,14.264V0L0,7.132Zm0-9.29-2,2.158,2,2.158v2.361l-4.2-4.519,4.2-4.519Z" transform="translate(6.818 18.199)" fill="#685700"/>
        <path id="Path_885870" data-name="Path 885870" d="M0,0V14.264L6.624,7.132ZM0,9.29,2,7.132,0,4.974V2.613L4.2,7.132,0,11.651Z" transform="translate(0 18.199)" fill="#685700"/>
      </g>
      <g id="Group_1116996" data-name="Group 1116996" transform="translate(19.608 67) rotate(180)" opacity="0.65">
        <path id="Path_885865-2" data-name="Path 885865" d="M9.05,4.873,4.525,0,0,4.873,4.525,9.745ZM4.525,2.26,6.952,4.873,4.525,7.485,2.1,4.873Z" transform="translate(2.293 0)" fill="#685700"/>
        <path id="Path_893661" data-name="Path 893661" d="M9.05,4.873,4.525,0,0,4.873,4.525,9.745ZM4.525,2.26,6.952,4.873,4.525,7.485,2.1,4.873Z" transform="translate(2.293 55.256)" fill="#685700"/>
        <path id="Path_885866-2" data-name="Path 885866" d="M6.624,14.264V0L0,7.132Zm0-9.29-2,2.158,2,2.158v2.361l-4.2-4.519,4.2-4.519Z" transform="translate(6.818 5.032)" fill="#685700"/>
        <path id="Path_885867-2" data-name="Path 885867" d="M0,0V14.264L6.624,7.132ZM0,9.29,2,7.132,0,4.974V2.613L4.2,7.132,0,11.651Z" transform="translate(0 5.032)" fill="#685700"/>
        <path id="Path_885868-2" data-name="Path 885868" d="M9.05,4.873,4.525,0,0,4.873,4.525,9.745ZM4.525,2.26,6.952,4.873,4.525,7.485,2.1,4.873Z" transform="translate(2.293 13.601)" fill="#685700"/>
        <path id="Path_885869-2" data-name="Path 885869" d="M6.624,14.264V0L0,7.132Zm0-9.29-2,2.158,2,2.158v2.361l-4.2-4.519,4.2-4.519Z" transform="translate(6.818 18.199)" fill="#685700"/>
        <path id="Path_885870-2" data-name="Path 885870" d="M0,0V14.264L6.624,7.132ZM0,9.29,2,7.132,0,4.974V2.613L4.2,7.132,0,11.651Z" transform="translate(0 18.199)" fill="#685700"/>
      </g>
    </g>
  </g>
</svg>
