<svg xmlns="http://www.w3.org/2000/svg" xmlns:xlink="http://www.w3.org/1999/xlink" width="400" height="900" viewBox="0 0 400 900">
  <defs>
    <clipPath id="clip-path">
      <path id="Path_608976" data-name="Path 608976" d="M15.214,0H384.786C388.218,0,400,3.955,400,21.169V878.831C400,896.045,388.218,900,384.786,900H15.214C11.782,900,0,896.045,0,878.831V21.169C0,3.955,11.782,0,15.214,0Z" transform="translate(0)" fill="#d9e6ff"/>
    </clipPath>
    <radialGradient id="radial-gradient" cx="0.5" cy="0.5" r="0.5" gradientUnits="objectBoundingBox">
      <stop offset="0" stop-color="#fff"/>
      <stop offset="0.679" stop-color="#fffffb"/>
      <stop offset="1" stop-color="#fffceb"/>
    </radialGradient>
    <clipPath id="clip-path-2">
      <rect id="Rectangle_408137" data-name="Rectangle 408137" width="169.377" height="94.494" fill="none"/>
    </clipPath>
    <clipPath id="clip-path-3">
      <rect id="Rectangle_408136" data-name="Rectangle 408136" width="744.307" height="94.494" fill="none"/>
    </clipPath>
    <clipPath id="clip-path-4">
      <rect id="Rectangle_408265" data-name="Rectangle 408265" width="69.198" height="62.112" fill="#12263f"/>
    </clipPath>
    <clipPath id="clip-path-5">
      <rect id="Rectangle_408268" data-name="Rectangle 408268" width="62.101" height="76.734" fill="#12263f"/>
    </clipPath>
    <clipPath id="clip-path-6">
      <rect id="Rectangle_408270" data-name="Rectangle 408270" width="85.633" height="75.75" fill="#fff"/>
    </clipPath>
    <clipPath id="clip-path-7">
      <rect id="Rectangle_408272" data-name="Rectangle 408272" width="76.409" height="70.891" fill="#fff"/>
    </clipPath>
    <clipPath id="clip-path-8">
      <rect id="Rectangle_408274" data-name="Rectangle 408274" width="69.198" height="69.02" fill="#12263f"/>
    </clipPath>
  </defs>
  <g id="Group_1118045" data-name="Group 1118045" transform="translate(-2190.289 -6312)">
    <g id="Group_1118043" data-name="Group 1118043">
      <g id="Group_1117838" data-name="Group 1117838">
        <g id="Group_1117836" data-name="Group 1117836" transform="translate(1905.578 -2882.663)">
          <g id="Group_1116936" data-name="Group 1116936" transform="translate(284.711 9194.663)">
            <g id="Mask_Group_1098656" data-name="Mask Group 1098656" transform="translate(0 0)" clip-path="url(#clip-path)">
              <path id="Path_874294" data-name="Path 874294" d="M0,0H400V942.857H0Z" transform="translate(0.112 -23.377)" fill="url(#radial-gradient)"/>
            </g>
          </g>
          <g id="Group_1117641" data-name="Group 1117641" transform="translate(284.711 10000.17)">
            <g id="Group_1117640" data-name="Group 1117640" clip-path="url(#clip-path-2)">
              <g id="Group_1117639" data-name="Group 1117639">
                <g id="Group_1117638" data-name="Group 1117638" clip-path="url(#clip-path-3)">
                  <path id="Path_896447" data-name="Path 896447" d="M67.409,66c.7-2.332,1.184-5.054-.221-7.041a5.847,5.847,0,0,0-5.545-2.049,15.582,15.582,0,0,0-5.712,2.337,44.229,44.229,0,0,0,3.813-25.719c-.577-3.73-2.1-7.91-5.674-9.136-2.714-.932-5.794.258-7.872,2.237s-3.359,4.63-4.6,7.218a49.132,49.132,0,0,0-2.08-24.556c-1.13-3.2-2.765-6.479-5.7-8.18C29.3-1.506,23.12.782,20.111,5.048s-3.423,9.869-2.762,15.047,2.277,10.2,2.946,15.375a19.3,19.3,0,0,0-13.9-1.625,9.259,9.259,0,0,0-4.917,2.8A7.925,7.925,0,0,0,.455,44a18.235,18.235,0,0,0,4.164,6.46A54.919,54.919,0,0,0,18.637,61.547c-3.523-.108-7.577.012-9.81,2.74a7.554,7.554,0,0,0-.76,7.477,16.911,16.911,0,0,0,4.828,6.141c7.217,6.328,16.257,10.2,25.571,12.228,3.458.752,9.894,2.765,13.034,1.045,3.67-2.01,7.084-7.53,9.305-10.948A55.274,55.274,0,0,0,67.409,66" transform="translate(0 0)" fill="#7099ff"/>
                  <path id="Path_896448" data-name="Path 896448" d="M58.5,92.049a.112.112,0,0,0,.044-.009.114.114,0,0,0,.06-.149C58.412,91.446,39.579,46.8,35.244.45a.11.11,0,0,0-.124-.1.114.114,0,0,0-.1.124C39.357,46.858,58.2,91.535,58.394,91.981a.113.113,0,0,0,.1.069" transform="translate(-8.318 -0.082)" fill="#42353b"/>
                  <path id="Path_896449" data-name="Path 896449" d="M37.193,60.049a.114.114,0,0,0,.095-.05L55.5,32.538a.113.113,0,0,0-.188-.125L37.152,59.793,1.948,44.232a.113.113,0,1,0-.091.207l35.29,15.6a.122.122,0,0,0,.046.009" transform="translate(-0.425 -7.687)" fill="#42353b"/>
                  <path id="Path_896450" data-name="Path 896450" d="M48.621,99.668a.112.112,0,0,0,.091-.046L67.088,75.011a.113.113,0,1,0-.181-.136L48.582,99.418l-38.5-15.19a.112.112,0,0,0-.146.063.113.113,0,0,0,.064.147L48.58,99.66a.1.1,0,0,0,.041.008" transform="translate(-2.359 -17.775)" fill="#42353b"/>
                  <path id="Path_896451" data-name="Path 896451" d="M35.683,28.609h.008a.111.111,0,0,0,.081-.043L45.842,15.792a.113.113,0,0,0-.018-.159.114.114,0,0,0-.159.018L35.67,28.328,22.77,16.042a.114.114,0,0,0-.157.164L35.6,28.578a.113.113,0,0,0,.079.031" transform="translate(-5.363 -3.708)" fill="#42353b"/>
                  <path id="Path_896452" data-name="Path 896452" d="M163.279,112.529H24.943a13.142,13.142,0,0,1,6.645-7.41c4.079-2.049,8.8-2.342,13.366-2.29a4.836,4.836,0,0,0,2.384-.37,5.017,5.017,0,0,0,1.678-2.04c3.5-6.171,8.977-11.568,15.854-13.315s15.1.981,18.255,7.333c2.513-5.147,5.672-10.1,10.13-13.693s10.4-5.664,16-4.492a16.022,16.022,0,0,1,12.385,14.3c.034.62.095,1.351.62,1.687a1.871,1.871,0,0,0,1.369.069c4.32-.878,8.744-1.842,13.1-1.136s8.676,3.5,9.76,7.772c.327,1.274.576,2.892,1.833,3.262a3.732,3.732,0,0,0,1.954-.207,10.381,10.381,0,0,1,13,10.535" transform="translate(-5.925 -18.035)" fill="#ffb149"/>
                </g>
              </g>
            </g>
          </g>
        </g>
        <g id="Group_1117837" data-name="Group 1117837" transform="translate(2571.608 6298) rotate(90)">
          <path id="Path_919049" data-name="Path 919049" d="M52,0H644.124a52,52,0,0,1,52,52V309.072a52,52,0,0,1-52,52H52a52,52,0,0,1-52-52V52A52,52,0,0,1,52,0Z" transform="translate(189.257 -0.465)" fill="#050c68"/>
          <path id="Path_919050" data-name="Path 919050" d="M52,0H462.947a52,52,0,0,1,52,52V250.52a52,52,0,0,1-52,52H52a52,52,0,0,1-52-52V52A52,52,0,0,1,52,0Z" transform="translate(362.563 29.088)" fill="#1e2ad5"/>
          <path id="Path_919051" data-name="Path 919051" d="M41,0H274.3a41,41,0,0,1,41,41V189.66a41,41,0,0,1-41,41H41a41,41,0,0,1-41-41V41A41,41,0,0,1,41,0Z" transform="translate(555.334 64.947)" fill="#afbefc"/>
          <g id="Group_1117819" data-name="Group 1117819" transform="translate(855.887 21.735) rotate(90)">
            <rect id="Rectangle_408264" data-name="Rectangle 408264" width="127.75" height="121.541" rx="37" transform="translate(95.122 -9)" fill="#d9e6ff"/>
            <path id="Path_919066" data-name="Path 919066" d="M4.427,13.742V18H1.937V5.914H6.652a5.455,5.455,0,0,1,2.395.5,3.67,3.67,0,0,1,1.59,1.415,3.946,3.946,0,0,1,.556,2.088,3.47,3.47,0,0,1-1.216,2.8A5.065,5.065,0,0,1,6.61,13.742Zm0-2.017H6.652a2.187,2.187,0,0,0,1.507-.465,1.691,1.691,0,0,0,.519-1.328A1.994,1.994,0,0,0,8.154,8.5,1.953,1.953,0,0,0,6.71,7.931H4.427Zm13.364-.457a6.517,6.517,0,0,0-.863-.066,1.757,1.757,0,0,0-1.785.921V18h-2.4V9.019h2.266l.066,1.071a2.223,2.223,0,0,1,2-1.237,2.514,2.514,0,0,1,.747.108Zm.481,2.158a5.327,5.327,0,0,1,.515-2.382,3.768,3.768,0,0,1,1.482-1.619,4.323,4.323,0,0,1,2.245-.573,4.09,4.09,0,0,1,2.968,1.112,4.464,4.464,0,0,1,1.282,3.021l.017.614a4.694,4.694,0,0,1-1.154,3.316,4.011,4.011,0,0,1-3.1,1.249,4.031,4.031,0,0,1-3.1-1.245,4.777,4.777,0,0,1-1.158-3.387Zm2.4.17a3.357,3.357,0,0,0,.481,1.958,1.73,1.73,0,0,0,2.739.008,3.674,3.674,0,0,0,.49-2.141,3.324,3.324,0,0,0-.49-1.945,1.592,1.592,0,0,0-1.378-.69,1.566,1.566,0,0,0-1.361.686A3.735,3.735,0,0,0,20.672,13.6Zm7.213-.154a5.413,5.413,0,0,1,.942-3.345A3.057,3.057,0,0,1,31.4,8.853a2.751,2.751,0,0,1,2.167.979V5.25h2.407V18H33.812l-.116-.955a2.823,2.823,0,0,1-2.308,1.121,3.049,3.049,0,0,1-2.544-1.249A5.587,5.587,0,0,1,27.885,13.443Zm2.4.179a3.546,3.546,0,0,0,.44,1.937A1.433,1.433,0,0,0,32,16.232a1.605,1.605,0,0,0,1.569-.939v-3.55a1.582,1.582,0,0,0-1.552-.939Q30.284,10.8,30.284,13.621Zm12.933,3.465a3.008,3.008,0,0,1-2.457,1.079,2.837,2.837,0,0,1-2.2-.83A3.543,3.543,0,0,1,37.78,14.9V9.019h2.4v5.809q0,1.4,1.278,1.4a1.732,1.732,0,0,0,1.677-.848V9.019h2.407V18H43.283Zm7.869-.855a1.573,1.573,0,0,0,1.079-.365A1.28,1.28,0,0,0,52.6,14.9h2.25a3.077,3.077,0,0,1-.5,1.673,3.286,3.286,0,0,1-1.341,1.179,4.2,4.2,0,0,1-1.88.419,3.9,3.9,0,0,1-3.038-1.224,4.845,4.845,0,0,1-1.112-3.383V13.4a4.79,4.79,0,0,1,1.1-3.312,3.854,3.854,0,0,1,3.03-1.237,3.778,3.778,0,0,1,2.7.959,3.4,3.4,0,0,1,1.033,2.552H52.6a1.648,1.648,0,0,0-.432-1.139A1.6,1.6,0,0,0,49.8,11.4a3.541,3.541,0,0,0-.427,1.983v.249a3.586,3.586,0,0,0,.423,2A1.463,1.463,0,0,0,51.086,16.232Zm8-9.421V9.019h1.536v1.76H59.088v4.482a1.07,1.07,0,0,0,.191.714.959.959,0,0,0,.73.216,3.826,3.826,0,0,0,.706-.058V17.95a4.939,4.939,0,0,1-1.453.216,2.29,2.29,0,0,1-2.573-2.548V10.778H55.377V9.019h1.312V6.811Zm2.25,6.616a5.327,5.327,0,0,1,.515-2.382,3.767,3.767,0,0,1,1.482-1.619,4.323,4.323,0,0,1,2.245-.573,4.09,4.09,0,0,1,2.968,1.112,4.464,4.464,0,0,1,1.282,3.021l.017.614a4.694,4.694,0,0,1-1.154,3.316,4.472,4.472,0,0,1-6.2,0,4.777,4.777,0,0,1-1.158-3.387Zm2.4.17a3.357,3.357,0,0,0,.481,1.958,1.73,1.73,0,0,0,2.739.008,3.674,3.674,0,0,0,.49-2.141,3.324,3.324,0,0,0-.49-1.945,1.592,1.592,0,0,0-1.378-.69,1.566,1.566,0,0,0-1.361.686A3.736,3.736,0,0,0,63.736,13.6Zm12.451,1.922a.773.773,0,0,0-.436-.693,4.95,4.95,0,0,0-1.4-.452q-3.2-.672-3.2-2.723a2.468,2.468,0,0,1,.992-2,4,4,0,0,1,2.594-.8,4.307,4.307,0,0,1,2.735.805,2.538,2.538,0,0,1,1.025,2.092H76.1a1.161,1.161,0,0,0-.332-.851,1.405,1.405,0,0,0-1.038-.336,1.436,1.436,0,0,0-.938.274.865.865,0,0,0-.332.7.739.739,0,0,0,.378.643,3.885,3.885,0,0,0,1.274.423,10.407,10.407,0,0,1,1.511.4,2.482,2.482,0,0,1,1.9,2.416,2.343,2.343,0,0,1-1.054,1.988,4.548,4.548,0,0,1-2.723.76,4.75,4.75,0,0,1-2-.4,3.363,3.363,0,0,1-1.374-1.1,2.565,2.565,0,0,1-.5-1.515h2.274a1.252,1.252,0,0,0,.473.979,1.877,1.877,0,0,0,1.179.34,1.737,1.737,0,0,0,1.042-.261A.814.814,0,0,0,76.187,15.518ZM28.375,34.231a7.3,7.3,0,0,1-.631,3.129,4.751,4.751,0,0,1-1.805,2.075,5.335,5.335,0,0,1-5.375.008,4.8,4.8,0,0,1-1.826-2.063,7.087,7.087,0,0,1-.656-3.084v-.6a7.258,7.258,0,0,1,.643-3.142,4.79,4.79,0,0,1,1.818-2.083,5.327,5.327,0,0,1,5.371,0,4.79,4.79,0,0,1,1.818,2.083,7.237,7.237,0,0,1,.643,3.134Zm-2.523-.548a5.086,5.086,0,0,0-.681-2.889,2.4,2.4,0,0,0-3.876-.012,5.028,5.028,0,0,0-.689,2.86v.589a5.15,5.15,0,0,0,.681,2.872,2.383,2.383,0,0,0,3.885.037,5.12,5.12,0,0,0,.681-2.868ZM34.468,37l2.739-9.089h2.772L35.771,40h-2.6L28.981,27.914h2.764Zm16.469-2.772a7.3,7.3,0,0,1-.631,3.129A4.751,4.751,0,0,1,48.5,39.436a5.335,5.335,0,0,1-5.375.008A4.8,4.8,0,0,1,41.3,37.381a7.087,7.087,0,0,1-.656-3.084v-.6a7.258,7.258,0,0,1,.643-3.142A4.79,4.79,0,0,1,43.1,28.474a5.327,5.327,0,0,1,5.371,0,4.79,4.79,0,0,1,1.818,2.083,7.237,7.237,0,0,1,.643,3.134Zm-2.523-.548a5.086,5.086,0,0,0-.681-2.889,2.4,2.4,0,0,0-3.876-.012,5.028,5.028,0,0,0-.689,2.86v.589a5.15,5.15,0,0,0,.681,2.872,2.383,2.383,0,0,0,3.885.037,5.12,5.12,0,0,0,.681-2.868Zm6.823,2.059V40h-2.49V27.914h4.715a5.455,5.455,0,0,1,2.395.5,3.67,3.67,0,0,1,1.59,1.415A3.946,3.946,0,0,1,62,31.915a3.47,3.47,0,0,1-1.216,2.8,5.065,5.065,0,0,1-3.366,1.025Zm0-2.017h2.225a2.187,2.187,0,0,0,1.507-.465,1.691,1.691,0,0,0,.519-1.328,1.994,1.994,0,0,0-.523-1.436,1.953,1.953,0,0,0-1.444-.564H55.236Z" transform="translate(198.872 36.992) rotate(180)" fill="#12263f"/>
            <g id="Group_1117818" data-name="Group 1117818" transform="translate(124.674 36.689)">
              <g id="Group_1117817" data-name="Group 1117817" clip-path="url(#clip-path-4)">
                <path id="Path_918780" data-name="Path 918780" d="M17.2,62.112A81.942,81.942,0,0,0,10.04,44.851c-3-5.191-6.577-9.1-8.249-15.082C.141,23.869-.3,14.357.186,8.225.694,1.8,7.128-.912,12.9.269c1.28.262,5.254,3.275,6.147,3.136A6.14,6.14,0,0,1,23.823.227L63.373.218C65.821.123,69.2,3.045,69.2,5.464V62.112Zm5.141-4.152H65.046V53.61H22.338Zm-4.152-5.734V7.837L12.114,4.418c-3-.324-7.349-.277-7.769,3.616a76.405,76.405,0,0,0,.85,18.528c1.5,7.266,5.887,11.6,9.269,17.819Zm4.152-2.966H65.046V35.024L46.01,46.931l-4.482.044L22.338,35.024Zm1.781-18,18.4,11.561,2.217.059L63.263,31.168l-18.4-11.655-2.475.073Zm-1.781-3.952,19.19-11.951,4.482.044L65.046,27.313V13.077H22.338Zm0-18.586H65.046V5.662c0-.368-1.153-1.43-1.676-1.29l-39.163,0c-.7-.258-1.869,1-1.869,1.492Z" transform="translate(0 0)" fill="#12263f"/>
                <path id="Path_918781" data-name="Path 918781" d="M18.015,4.971V7.462c-2.527,1.209-5.043,3.49-7.536,4.623a3.222,3.222,0,0,1-2.65.207C5.782,10.62,2.414,9.4.466,7.792A3.111,3.111,0,0,1,.349,4.723L8.279,0l1.948.206ZM9.21,8.068a19.132,19.132,0,0,0,2.911-1.851c-.745-.423-2.635-2.038-3.4-1.843A19.912,19.912,0,0,0,5.8,6.217c.784.391,2.632,2,3.408,1.851" transform="translate(34.731 24.952)" fill="#12263f"/>
              </g>
            </g>
          </g>
          <path id="Path_919052" data-name="Path 919052" d="M13,0H139.591a13,13,0,0,1,13,13V39.342a13,13,0,0,1-13,13H13a13,13,0,0,1-13-13V13A13,13,0,0,1,13,0Z" transform="translate(732.863 104.017) rotate(90)" fill="#ffc811"/>
          <path id="Path_919053" data-name="Path 919053" d="M13,0H139.591a13,13,0,0,1,13,13V39.342a13,13,0,0,1-13,13H13a13,13,0,0,1-13-13V13A13,13,0,0,1,13,0Z" transform="translate(544.591 104.017) rotate(90)" fill="#ffc811"/>
          <path id="Path_919054" data-name="Path 919054" d="M13,0H127.171a13,13,0,0,1,13,13V39.342a13,13,0,0,1-13,13H13a13,13,0,0,1-13-13V13A13,13,0,0,1,13,0Z" transform="translate(358.044 109.12) rotate(90)" fill="#ffc811"/>
          <path id="Path_919055" data-name="Path 919055" d="M13,0H127.171a13,13,0,0,1,13,13V36.5a13,13,0,0,1-13,13H13a13,13,0,0,1-13-13V13A13,13,0,0,1,13,0Z" transform="translate(180.126 112.921) rotate(90)" fill="#ffc811"/>
          <g id="Group_1117820" data-name="Group 1117820" transform="translate(726.66 170.09)">
            <g id="Group_1117821" data-name="Group 1117821" transform="translate(0 0)">
              <path id="Polygon_18" data-name="Polygon 18" d="M8.006,3.186a2,2,0,0,1,3.5,0l6.376,11.593a2,2,0,0,1-1.752,2.964H3.383A2,2,0,0,1,1.63,14.779Z" transform="translate(32.825) rotate(90)" fill="#f6ae5c"/>
              <rect id="Rectangle_408267" data-name="Rectangle 408267" width="18.63" height="9.759" rx="3" transform="translate(0 5.323)" fill="#f6ae5c"/>
            </g>
          </g>
          <g id="Group_1117824" data-name="Group 1117824" transform="translate(540.857 170.09)">
            <g id="Group_1117821-2" data-name="Group 1117821" transform="translate(0 0)">
              <path id="Polygon_18-2" data-name="Polygon 18" d="M8.006,3.186a2,2,0,0,1,3.5,0l6.376,11.593a2,2,0,0,1-1.752,2.964H3.383A2,2,0,0,1,1.63,14.779Z" transform="translate(32.825) rotate(90)" fill="#f6ae5c"/>
              <rect id="Rectangle_408267-2" data-name="Rectangle 408267" width="18.63" height="9.759" rx="3" transform="translate(0 5.323)" fill="#f6ae5c"/>
            </g>
          </g>
          <g id="Group_1117828" data-name="Group 1117828" transform="translate(346.15 170.09)">
            <g id="Group_1117821-3" data-name="Group 1117821" transform="translate(0 0)">
              <path id="Polygon_18-3" data-name="Polygon 18" d="M8.006,3.186a2,2,0,0,1,3.5,0l6.376,11.593a2,2,0,0,1-1.752,2.964H3.383A2,2,0,0,1,1.63,14.779Z" transform="translate(32.825) rotate(90)" fill="#f6ae5c"/>
              <rect id="Rectangle_408267-3" data-name="Rectangle 408267" width="18.63" height="9.759" rx="3" transform="translate(0 5.323)" fill="#f6ae5c"/>
            </g>
          </g>
          <g id="Group_1117832" data-name="Group 1117832" transform="translate(172.845 173.247)">
            <g id="Group_1117821-4" data-name="Group 1117821" transform="translate(0 0)">
              <path id="Polygon_18-4" data-name="Polygon 18" d="M8.006,3.186a2,2,0,0,1,3.5,0l6.376,11.593a2,2,0,0,1-1.752,2.964H3.383A2,2,0,0,1,1.63,14.779Z" transform="translate(32.825) rotate(90)" fill="#f6ae5c"/>
              <rect id="Rectangle_408267-4" data-name="Rectangle 408267" width="18.63" height="9.759" rx="3" transform="translate(0 5.323)" fill="#f6ae5c"/>
            </g>
          </g>
          <path id="Path_919056" data-name="Path 919056" d="M13.75,13.391a4.185,4.185,0,0,1-1.332,2.785,4.365,4.365,0,0,1-2.98.98,4.008,4.008,0,0,1-3.23-1.445,5.815,5.815,0,0,1-1.215-3.867V10.75a6.481,6.481,0,0,1,.566-2.789A4.231,4.231,0,0,1,7.164,6.113,4.47,4.47,0,0,1,9.57,5.469,4.11,4.11,0,0,1,12.477,6.48a4.235,4.235,0,0,1,1.273,2.8H12.242a3.268,3.268,0,0,0-.848-1.975A2.565,2.565,0,0,0,9.57,6.7,2.684,2.684,0,0,0,7.316,7.759,4.882,4.882,0,0,0,6.5,10.785v1.1a5.018,5.018,0,0,0,.773,2.948A2.5,2.5,0,0,0,9.438,15.93a2.886,2.886,0,0,0,1.918-.566,3.143,3.143,0,0,0,.887-1.973Zm1.438-.7a4.993,4.993,0,0,1,.488-2.234A3.643,3.643,0,0,1,17.035,8.93a3.7,3.7,0,0,1,1.988-.539,3.565,3.565,0,0,1,2.793,1.2,4.6,4.6,0,0,1,1.066,3.18v.1a5.036,5.036,0,0,1-.473,2.215,3.589,3.589,0,0,1-1.352,1.527,3.743,3.743,0,0,1-2.02.547,3.556,3.556,0,0,1-2.785-1.2A4.575,4.575,0,0,1,15.188,12.8Zm1.453.172a3.616,3.616,0,0,0,.652,2.258,2.211,2.211,0,0,0,3.5-.012,3.955,3.955,0,0,0,.648-2.418,3.61,3.61,0,0,0-.66-2.254,2.1,2.1,0,0,0-1.754-.863,2.075,2.075,0,0,0-1.727.852A3.925,3.925,0,0,0,16.641,12.867Zm9.414-4.32.039.938A3.122,3.122,0,0,1,28.6,8.391,2.417,2.417,0,0,1,31.016,9.75a3.2,3.2,0,0,1,1.1-.984,3.242,3.242,0,0,1,1.6-.375q2.781,0,2.828,2.945V17H35.094V11.422a1.941,1.941,0,0,0-.414-1.355,1.823,1.823,0,0,0-1.391-.449,1.917,1.917,0,0,0-1.336.48,1.949,1.949,0,0,0-.617,1.293V17H29.883V11.461a1.613,1.613,0,0,0-1.8-1.844,1.934,1.934,0,0,0-1.945,1.211V17H24.688V8.547Zm16.172,8.609a3.693,3.693,0,0,1-2.8-1.129,4.19,4.19,0,0,1-1.078-3.02v-.266a5.073,5.073,0,0,1,.48-2.246,3.748,3.748,0,0,1,1.344-1.547,3.378,3.378,0,0,1,1.871-.559,3.166,3.166,0,0,1,2.563,1.086,4.7,4.7,0,0,1,.914,3.109v.6H39.8a3,3,0,0,0,.73,2.02,2.3,2.3,0,0,0,1.777.77,2.517,2.517,0,0,0,1.3-.312,3.259,3.259,0,0,0,.93-.828l.883.688A3.55,3.55,0,0,1,42.227,17.156Zm-.18-7.578a1.928,1.928,0,0,0-1.469.637A3.1,3.1,0,0,0,39.844,12h4.234v-.109a2.753,2.753,0,0,0-.594-1.707A1.815,1.815,0,0,0,42.047,9.578Zm9.234.266a4.331,4.331,0,0,0-.711-.055A1.9,1.9,0,0,0,48.641,11v6H47.2V8.547H48.6l.023.977a2.251,2.251,0,0,1,2.016-1.133,1.477,1.477,0,0,1,.641.109Zm4.57,6.133a2.082,2.082,0,0,0,1.352-.469,1.649,1.649,0,0,0,.641-1.172h1.367a2.621,2.621,0,0,1-.5,1.383,3.293,3.293,0,0,1-1.23,1.047,3.55,3.55,0,0,1-1.629.391A3.482,3.482,0,0,1,53.105,16a4.59,4.59,0,0,1-1.02-3.152v-.242a5.089,5.089,0,0,1,.453-2.2,3.451,3.451,0,0,1,1.3-1.492,3.7,3.7,0,0,1,2-.531,3.39,3.39,0,0,1,2.363.852,3.043,3.043,0,0,1,1,2.211H57.844a1.992,1.992,0,0,0-.621-1.348,1.932,1.932,0,0,0-1.379-.527,2.023,2.023,0,0,0-1.707.793,3.724,3.724,0,0,0-.605,2.293v.273a3.65,3.65,0,0,0,.6,2.25A2.033,2.033,0,0,0,55.852,15.977ZM62.406,17H60.961V8.547h1.445ZM60.844,6.3a.863.863,0,0,1,.215-.594.807.807,0,0,1,.637-.242.819.819,0,0,1,.641.242.854.854,0,0,1,.219.594.826.826,0,0,1-.219.586.834.834,0,0,1-.641.234.821.821,0,0,1-.637-.234A.834.834,0,0,1,60.844,6.3ZM69.938,17a3.036,3.036,0,0,1-.2-.891,3.225,3.225,0,0,1-2.406,1.047,2.984,2.984,0,0,1-2.051-.707,2.288,2.288,0,0,1-.8-1.793,2.39,2.39,0,0,1,1-2.051,4.733,4.733,0,0,1,2.824-.73h1.406v-.664A1.623,1.623,0,0,0,69.258,10a1.821,1.821,0,0,0-1.336-.449,2.108,2.108,0,0,0-1.3.391,1.151,1.151,0,0,0-.523.945H64.648A2,2,0,0,1,65.1,9.668a3.066,3.066,0,0,1,1.219-.934,4.1,4.1,0,0,1,1.691-.344,3.342,3.342,0,0,1,2.289.73,2.635,2.635,0,0,1,.859,2.012v3.891a4.757,4.757,0,0,0,.3,1.852V17Zm-2.4-1.1a2.54,2.54,0,0,0,1.289-.352,2.127,2.127,0,0,0,.883-.914V12.9H68.578q-2.656,0-2.656,1.555a1.316,1.316,0,0,0,.453,1.063A1.742,1.742,0,0,0,67.539,15.9ZM74.992,17H73.547V5h1.445Zm3.883,0H77.43V8.547h1.445ZM77.313,6.3a.863.863,0,0,1,.215-.594.807.807,0,0,1,.637-.242.819.819,0,0,1,.641.242.854.854,0,0,1,.219.594.826.826,0,0,1-.219.586.834.834,0,0,1-.641.234.821.821,0,0,1-.637-.234A.834.834,0,0,1,77.313,6.3Zm5.234,9.516h4.945V17H80.781V15.938l4.664-6.2H80.852v-1.2h6.406V9.57ZM94.336,17a3.036,3.036,0,0,1-.2-.891,3.225,3.225,0,0,1-2.406,1.047,2.984,2.984,0,0,1-2.051-.707,2.288,2.288,0,0,1-.8-1.793,2.39,2.39,0,0,1,1-2.051,4.733,4.733,0,0,1,2.824-.73h1.406v-.664A1.623,1.623,0,0,0,93.656,10a1.821,1.821,0,0,0-1.336-.449,2.108,2.108,0,0,0-1.3.391,1.151,1.151,0,0,0-.523.945H89.047A2,2,0,0,1,89.5,9.668a3.066,3.066,0,0,1,1.219-.934,4.1,4.1,0,0,1,1.691-.344,3.342,3.342,0,0,1,2.289.73,2.635,2.635,0,0,1,.859,2.012v3.891a4.757,4.757,0,0,0,.3,1.852V17Zm-2.4-1.1a2.54,2.54,0,0,0,1.289-.352,2.127,2.127,0,0,0,.883-.914V12.9H92.977q-2.656,0-2.656,1.555a1.316,1.316,0,0,0,.453,1.063A1.742,1.742,0,0,0,91.938,15.9Zm9.273.078a2.082,2.082,0,0,0,1.352-.469,1.649,1.649,0,0,0,.641-1.172h1.367a2.621,2.621,0,0,1-.5,1.383,3.293,3.293,0,0,1-1.23,1.047,3.55,3.55,0,0,1-1.629.391A3.482,3.482,0,0,1,98.465,16a4.59,4.59,0,0,1-1.02-3.152v-.242a5.089,5.089,0,0,1,.453-2.2,3.451,3.451,0,0,1,1.3-1.492,3.7,3.7,0,0,1,2-.531,3.39,3.39,0,0,1,2.363.852,3.043,3.043,0,0,1,1,2.211H103.2a1.992,1.992,0,0,0-.621-1.348,1.932,1.932,0,0,0-1.379-.527,2.023,2.023,0,0,0-1.707.793,3.724,3.724,0,0,0-.605,2.293v.273a3.65,3.65,0,0,0,.6,2.25A2.033,2.033,0,0,0,101.211,15.977ZM107.766,17H106.32V8.547h1.445ZM106.2,6.3a.863.863,0,0,1,.215-.594.807.807,0,0,1,.637-.242.819.819,0,0,1,.641.242.854.854,0,0,1,.219.594.826.826,0,0,1-.219.586.834.834,0,0,1-.641.234.821.821,0,0,1-.637-.234A.834.834,0,0,1,106.2,6.3ZM109.7,12.7a4.993,4.993,0,0,1,.488-2.234,3.643,3.643,0,0,1,1.359-1.531,3.7,3.7,0,0,1,1.988-.539,3.565,3.565,0,0,1,2.793,1.2,4.6,4.6,0,0,1,1.066,3.18v.1a5.036,5.036,0,0,1-.473,2.215,3.589,3.589,0,0,1-1.352,1.527,3.743,3.743,0,0,1-2.02.547,3.556,3.556,0,0,1-2.785-1.2A4.575,4.575,0,0,1,109.7,12.8Zm1.453.172a3.616,3.616,0,0,0,.652,2.258,2.211,2.211,0,0,0,3.5-.012,3.955,3.955,0,0,0,.648-2.418,3.61,3.61,0,0,0-.66-2.254,2.1,2.1,0,0,0-1.754-.863,2.075,2.075,0,0,0-1.727.852A3.925,3.925,0,0,0,111.148,12.867ZM114.188,5h1.75l-2.094,2.3-1.164,0Zm6.383,3.547.047,1.063a3.08,3.08,0,0,1,2.531-1.219q2.68,0,2.7,3.023V17h-1.445V11.406a1.946,1.946,0,0,0-.418-1.352,1.675,1.675,0,0,0-1.277-.437,2.086,2.086,0,0,0-1.234.375,2.546,2.546,0,0,0-.828.984V17H119.2V8.547ZM27.492,35.977a2.082,2.082,0,0,0,1.352-.469,1.649,1.649,0,0,0,.641-1.172h1.367a2.621,2.621,0,0,1-.5,1.383,3.293,3.293,0,0,1-1.23,1.047,3.55,3.55,0,0,1-1.629.391A3.482,3.482,0,0,1,24.746,36a4.59,4.59,0,0,1-1.02-3.152v-.242a5.089,5.089,0,0,1,.453-2.2,3.451,3.451,0,0,1,1.3-1.492,3.7,3.7,0,0,1,2-.531,3.39,3.39,0,0,1,2.363.852,3.043,3.043,0,0,1,1,2.211H29.484a1.992,1.992,0,0,0-.621-1.348,1.932,1.932,0,0,0-1.379-.527,2.023,2.023,0,0,0-1.707.793,3.724,3.724,0,0,0-.605,2.293v.273a3.65,3.65,0,0,0,.6,2.25A2.033,2.033,0,0,0,27.492,35.977Zm4.6-3.281a4.993,4.993,0,0,1,.488-2.234,3.643,3.643,0,0,1,1.359-1.531,3.7,3.7,0,0,1,1.988-.539,3.565,3.565,0,0,1,2.793,1.2,4.6,4.6,0,0,1,1.066,3.18v.1a5.036,5.036,0,0,1-.473,2.215,3.589,3.589,0,0,1-1.352,1.527,3.743,3.743,0,0,1-2.02.547,3.556,3.556,0,0,1-2.785-1.2A4.575,4.575,0,0,1,32.094,32.8Zm1.453.172a3.616,3.616,0,0,0,.652,2.258,2.211,2.211,0,0,0,3.5-.012,3.955,3.955,0,0,0,.648-2.418,3.61,3.61,0,0,0-.66-2.254,2.1,2.1,0,0,0-1.754-.863,2.075,2.075,0,0,0-1.727.852A3.925,3.925,0,0,0,33.547,32.867Zm9.414-4.32.039.938a3.122,3.122,0,0,1,2.508-1.094,2.417,2.417,0,0,1,2.414,1.359,3.2,3.2,0,0,1,1.1-.984,3.242,3.242,0,0,1,1.6-.375q2.781,0,2.828,2.945V37H52V31.422a1.941,1.941,0,0,0-.414-1.355,1.823,1.823,0,0,0-1.391-.449,1.916,1.916,0,0,0-1.336.48,1.949,1.949,0,0,0-.617,1.293V37H46.789V31.461a1.613,1.613,0,0,0-1.8-1.844,1.934,1.934,0,0,0-1.945,1.211V37H41.594V28.547Zm17.883,7.617a3.07,3.07,0,0,1-2.477.992,2.628,2.628,0,0,1-2.059-.785,3.4,3.4,0,0,1-.715-2.324v-5.5h1.445v5.461q0,1.922,1.563,1.922A2.163,2.163,0,0,0,60.8,34.7V28.547H62.25V37H60.875Zm4.969-7.617.047,1.063a3.08,3.08,0,0,1,2.531-1.219q2.68,0,2.7,3.023V37H69.648V31.406a1.946,1.946,0,0,0-.418-1.352,1.675,1.675,0,0,0-1.277-.437,2.086,2.086,0,0,0-1.234.375,2.546,2.546,0,0,0-.828.984V37H64.445V28.547ZM74.844,37H73.4V28.547h1.445ZM73.281,26.3a.863.863,0,0,1,.215-.594.807.807,0,0,1,.637-.242.819.819,0,0,1,.641.242.854.854,0,0,1,.219.594.826.826,0,0,1-.219.586.834.834,0,0,1-.641.234.821.821,0,0,1-.637-.234A.834.834,0,0,1,73.281,26.3Zm5.836.2v2.047H80.7v1.117H79.117v5.249a1.173,1.173,0,0,0,.211.763.888.888,0,0,0,.719.254,3.5,3.5,0,0,0,.688-.094V37a4.215,4.215,0,0,1-1.109.155,1.8,1.8,0,0,1-1.461-.586,2.517,2.517,0,0,1-.492-1.664V29.664H76.133V28.547h1.539V26.5ZM87.6,37a3.036,3.036,0,0,1-.2-.891,3.225,3.225,0,0,1-2.406,1.047,2.984,2.984,0,0,1-2.051-.707,2.288,2.288,0,0,1-.8-1.793,2.39,2.39,0,0,1,1-2.051,4.733,4.733,0,0,1,2.824-.73h1.406v-.664A1.623,1.623,0,0,0,86.922,30a1.821,1.821,0,0,0-1.336-.449,2.108,2.108,0,0,0-1.3.391,1.151,1.151,0,0,0-.523.945H82.313a2,2,0,0,1,.449-1.223,3.066,3.066,0,0,1,1.219-.934,4.1,4.1,0,0,1,1.691-.344,3.342,3.342,0,0,1,2.289.73,2.635,2.635,0,0,1,.859,2.012v3.891a4.757,4.757,0,0,0,.3,1.852V37Zm-2.4-1.1a2.54,2.54,0,0,0,1.289-.352,2.127,2.127,0,0,0,.883-.914V32.9H86.242q-2.656,0-2.656,1.555a1.316,1.316,0,0,0,.453,1.063A1.742,1.742,0,0,0,85.2,35.9Zm9.969-6.055a4.331,4.331,0,0,0-.711-.055A1.9,1.9,0,0,0,92.531,31v6H91.086V28.547h1.406l.023.977a2.251,2.251,0,0,1,2.016-1.133,1.477,1.477,0,0,1,.641.109ZM98.07,37H96.625V28.547H98.07ZM96.508,26.3a.863.863,0,0,1,.215-.594.807.807,0,0,1,.637-.242.819.819,0,0,1,.641.242.854.854,0,0,1,.219.594.826.826,0,0,1-.219.586.834.834,0,0,1-.641.234.821.821,0,0,1-.637-.234A.834.834,0,0,1,96.508,26.3ZM105.6,37a3.036,3.036,0,0,1-.2-.891,3.225,3.225,0,0,1-2.406,1.047,2.984,2.984,0,0,1-2.051-.707,2.288,2.288,0,0,1-.8-1.793,2.39,2.39,0,0,1,1-2.051,4.733,4.733,0,0,1,2.824-.73h1.406v-.664A1.623,1.623,0,0,0,104.922,30a1.821,1.821,0,0,0-1.336-.449,2.108,2.108,0,0,0-1.3.391,1.151,1.151,0,0,0-.523.945h-1.453a2,2,0,0,1,.449-1.223,3.066,3.066,0,0,1,1.219-.934,4.1,4.1,0,0,1,1.691-.344,3.342,3.342,0,0,1,2.289.73,2.635,2.635,0,0,1,.859,2.012v3.891a4.757,4.757,0,0,0,.3,1.852V37Zm-2.4-1.1a2.54,2.54,0,0,0,1.289-.352,2.127,2.127,0,0,0,.883-.914V32.9h-1.133q-2.656,0-2.656,1.555a1.316,1.316,0,0,0,.453,1.063A1.742,1.742,0,0,0,103.2,35.9Z" transform="translate(683.66 245.608) rotate(-90)" fill="#12263f"/>
          <path id="Path_919057" data-name="Path 919057" d="M16.434,15.008l3.25-9.383h1.641L17.105,17H15.777L11.566,5.625H13.2ZM27.48,17a3.036,3.036,0,0,1-.2-.891,3.225,3.225,0,0,1-2.406,1.047,2.984,2.984,0,0,1-2.051-.707,2.287,2.287,0,0,1-.8-1.793,2.39,2.39,0,0,1,1-2.051,4.733,4.733,0,0,1,2.824-.73h1.406v-.664A1.623,1.623,0,0,0,26.8,10a1.821,1.821,0,0,0-1.336-.449,2.107,2.107,0,0,0-1.3.391,1.151,1.151,0,0,0-.523.945H22.191a2,2,0,0,1,.449-1.223,3.066,3.066,0,0,1,1.219-.934,4.1,4.1,0,0,1,1.691-.344,3.342,3.342,0,0,1,2.289.73,2.635,2.635,0,0,1,.859,2.012v3.891a4.757,4.757,0,0,0,.3,1.852V17Zm-2.4-1.1a2.54,2.54,0,0,0,1.289-.352,2.127,2.127,0,0,0,.883-.914V12.9H26.121q-2.656,0-2.656,1.555a1.316,1.316,0,0,0,.453,1.063A1.742,1.742,0,0,0,25.082,15.9ZM32.535,17H31.09V5h1.445Zm1.93-4.3a4.993,4.993,0,0,1,.488-2.234A3.643,3.643,0,0,1,36.313,8.93,3.7,3.7,0,0,1,38.3,8.391a3.565,3.565,0,0,1,2.793,1.2,4.6,4.6,0,0,1,1.066,3.18v.1a5.036,5.036,0,0,1-.473,2.215,3.589,3.589,0,0,1-1.352,1.527,3.743,3.743,0,0,1-2.02.547,3.556,3.556,0,0,1-2.785-1.2A4.575,4.575,0,0,1,34.465,12.8Zm1.453.172a3.616,3.616,0,0,0,.652,2.258,2.211,2.211,0,0,0,3.5-.012,3.955,3.955,0,0,0,.648-2.418,3.61,3.61,0,0,0-.66-2.254A2.1,2.1,0,0,0,38.3,9.578a2.075,2.075,0,0,0-1.727.852A3.925,3.925,0,0,0,35.918,12.867ZM48.059,9.844a4.331,4.331,0,0,0-.711-.055A1.9,1.9,0,0,0,45.418,11v6H43.973V8.547h1.406l.023.977a2.251,2.251,0,0,1,2.016-1.133,1.477,1.477,0,0,1,.641.109ZM58.566,17a3.036,3.036,0,0,1-.2-.891,3.225,3.225,0,0,1-2.406,1.047,2.984,2.984,0,0,1-2.051-.707,2.287,2.287,0,0,1-.8-1.793,2.39,2.39,0,0,1,1-2.051,4.733,4.733,0,0,1,2.824-.73H58.34v-.664A1.623,1.623,0,0,0,57.887,10a1.821,1.821,0,0,0-1.336-.449,2.107,2.107,0,0,0-1.3.391,1.151,1.151,0,0,0-.523.945H53.277a2,2,0,0,1,.449-1.223,3.066,3.066,0,0,1,1.219-.934,4.1,4.1,0,0,1,1.691-.344,3.342,3.342,0,0,1,2.289.73,2.635,2.635,0,0,1,.859,2.012v3.891a4.757,4.757,0,0,0,.3,1.852V17Zm-2.4-1.1a2.54,2.54,0,0,0,1.289-.352,2.127,2.127,0,0,0,.883-.914V12.9H57.207q-2.656,0-2.656,1.555A1.316,1.316,0,0,0,55,15.516,1.742,1.742,0,0,0,56.168,15.9Zm5.539-3.2a4.968,4.968,0,0,1,.914-3.145,3.151,3.151,0,0,1,4.836-.074l.07-.937h1.32V16.8a3.439,3.439,0,0,1-.973,2.586,3.589,3.589,0,0,1-2.613.945,4.348,4.348,0,0,1-1.789-.391,3.08,3.08,0,0,1-1.336-1.07l.75-.867a2.826,2.826,0,0,0,2.273,1.148,2.214,2.214,0,0,0,1.645-.594,2.269,2.269,0,0,0,.59-1.672v-.727a2.971,2.971,0,0,1-2.367,1,2.887,2.887,0,0,1-2.4-1.2A5.224,5.224,0,0,1,61.707,12.7Zm1.453.164a3.79,3.79,0,0,0,.586,2.246,1.9,1.9,0,0,0,1.641.816,2.117,2.117,0,0,0,2.008-1.242V10.828A2.142,2.142,0,0,0,65.4,9.617a1.921,1.921,0,0,0-1.648.82A4.128,4.128,0,0,0,63.16,12.867ZM75.113,9.844a4.331,4.331,0,0,0-.711-.055A1.9,1.9,0,0,0,72.473,11v6H71.027V8.547h1.406l.023.977a2.251,2.251,0,0,1,2.016-1.133,1.477,1.477,0,0,1,.641.109Zm4.836,7.313a3.693,3.693,0,0,1-2.8-1.129,4.19,4.19,0,0,1-1.078-3.02v-.266a5.073,5.073,0,0,1,.48-2.246A3.748,3.748,0,0,1,77.9,8.949a3.378,3.378,0,0,1,1.871-.559,3.166,3.166,0,0,1,2.563,1.086,4.7,4.7,0,0,1,.914,3.109v.6H77.52a3,3,0,0,0,.73,2.02,2.3,2.3,0,0,0,1.777.77,2.517,2.517,0,0,0,1.3-.312,3.259,3.259,0,0,0,.93-.828l.883.688A3.55,3.55,0,0,1,79.949,17.156Zm-.18-7.578a1.928,1.928,0,0,0-1.469.637A3.1,3.1,0,0,0,77.566,12H81.8v-.109a2.753,2.753,0,0,0-.594-1.707A1.815,1.815,0,0,0,79.77,9.578Zm4.8,3.125a4.968,4.968,0,0,1,.914-3.145,3.151,3.151,0,0,1,4.836-.074l.07-.937h1.32V16.8a3.439,3.439,0,0,1-.973,2.586,3.589,3.589,0,0,1-2.613.945,4.348,4.348,0,0,1-1.789-.391A3.08,3.08,0,0,1,85,18.867l.75-.867a2.826,2.826,0,0,0,2.273,1.148,2.214,2.214,0,0,0,1.645-.594,2.269,2.269,0,0,0,.59-1.672v-.727a2.971,2.971,0,0,1-2.367,1,2.887,2.887,0,0,1-2.4-1.2A5.224,5.224,0,0,1,84.574,12.7Zm1.453.164a3.79,3.79,0,0,0,.586,2.246,1.9,1.9,0,0,0,1.641.816,2.117,2.117,0,0,0,2.008-1.242V10.828A2.142,2.142,0,0,0,88.27,9.617a1.921,1.921,0,0,0-1.648.82A4.128,4.128,0,0,0,86.027,12.867ZM99.113,17a3.036,3.036,0,0,1-.2-.891A3.225,3.225,0,0,1,96.5,17.156a2.984,2.984,0,0,1-2.051-.707,2.288,2.288,0,0,1-.8-1.793,2.39,2.39,0,0,1,1-2.051,4.733,4.733,0,0,1,2.824-.73h1.406v-.664A1.623,1.623,0,0,0,98.434,10,1.821,1.821,0,0,0,97.1,9.555a2.108,2.108,0,0,0-1.3.391,1.151,1.151,0,0,0-.523.945H93.824a2,2,0,0,1,.449-1.223,3.066,3.066,0,0,1,1.219-.934,4.1,4.1,0,0,1,1.691-.344,3.342,3.342,0,0,1,2.289.73,2.635,2.635,0,0,1,.859,2.012v3.891a4.757,4.757,0,0,0,.3,1.852V17Zm-2.4-1.1A2.54,2.54,0,0,0,98,15.547a2.127,2.127,0,0,0,.883-.914V12.9H97.754q-2.656,0-2.656,1.555a1.316,1.316,0,0,0,.453,1.063A1.742,1.742,0,0,0,96.715,15.9Zm5.531-3.2a4.952,4.952,0,0,1,.922-3.129,3.137,3.137,0,0,1,4.766-.168V5h1.445V17h-1.328l-.07-.906a2.943,2.943,0,0,1-2.414,1.063,2.887,2.887,0,0,1-2.395-1.2,5.008,5.008,0,0,1-.926-3.141Zm1.445.164a3.749,3.749,0,0,0,.594,2.25,1.92,1.92,0,0,0,1.641.813,2.108,2.108,0,0,0,2.008-1.234V10.813a2.125,2.125,0,0,0-1.992-1.2,1.929,1.929,0,0,0-1.656.82A4.128,4.128,0,0,0,103.691,12.867Zm7.547-.172a4.993,4.993,0,0,1,.488-2.234,3.643,3.643,0,0,1,1.359-1.531,3.7,3.7,0,0,1,1.988-.539,3.565,3.565,0,0,1,2.793,1.2,4.6,4.6,0,0,1,1.066,3.18v.1a5.036,5.036,0,0,1-.473,2.215,3.589,3.589,0,0,1-1.352,1.527,3.743,3.743,0,0,1-2.02.547,3.556,3.556,0,0,1-2.785-1.2,4.575,4.575,0,0,1-1.066-3.164Zm1.453.172a3.616,3.616,0,0,0,.652,2.258,2.211,2.211,0,0,0,3.5-.012,3.955,3.955,0,0,0,.648-2.418,3.61,3.61,0,0,0-.66-2.254,2.1,2.1,0,0,0-1.754-.863,2.075,2.075,0,0,0-1.727.852A3.925,3.925,0,0,0,112.691,12.867Z" transform="translate(506.961 245.608) rotate(-90)" fill="#12263f"/>
          <path id="Path_919058" data-name="Path 919058" d="M8.234,12.547V17h-1.5V5.625h4.2a4.215,4.215,0,0,1,2.926.953A3.231,3.231,0,0,1,14.914,9.1a3.189,3.189,0,0,1-1.035,2.551,4.4,4.4,0,0,1-2.965.895Zm0-1.227h2.7a2.7,2.7,0,0,0,1.844-.567,2.075,2.075,0,0,0,.641-1.64,2.143,2.143,0,0,0-.641-1.628,2.525,2.525,0,0,0-1.758-.634H8.234ZM21.82,16.164a3.07,3.07,0,0,1-2.477.992,2.628,2.628,0,0,1-2.059-.785,3.4,3.4,0,0,1-.715-2.324v-5.5h1.445v5.461q0,1.922,1.563,1.922a2.163,2.163,0,0,0,2.2-1.234V8.547h1.445V17H21.852Zm4.969-7.617.047,1.063a3.08,3.08,0,0,1,2.531-1.219q2.68,0,2.7,3.023V17H30.625V11.406a1.946,1.946,0,0,0-.418-1.352,1.675,1.675,0,0,0-1.277-.437,2.086,2.086,0,0,0-1.234.375,2.546,2.546,0,0,0-.828.984V17H25.422V8.547ZM36.211,6.5V8.547h1.578V9.664H36.211v5.249a1.173,1.173,0,0,0,.211.763.888.888,0,0,0,.719.254,3.5,3.5,0,0,0,.688-.094V17a4.215,4.215,0,0,1-1.109.155,1.8,1.8,0,0,1-1.461-.586,2.517,2.517,0,0,1-.492-1.664V9.664H33.227V8.547h1.539V6.5Zm2.727,6.2a4.993,4.993,0,0,1,.488-2.234A3.643,3.643,0,0,1,40.785,8.93a3.7,3.7,0,0,1,1.988-.539,3.565,3.565,0,0,1,2.793,1.2,4.6,4.6,0,0,1,1.066,3.18v.1a5.036,5.036,0,0,1-.473,2.215,3.589,3.589,0,0,1-1.352,1.527,3.743,3.743,0,0,1-2.02.547A3.556,3.556,0,0,1,40,15.961,4.575,4.575,0,0,1,38.938,12.8Zm1.453.172a3.616,3.616,0,0,0,.652,2.258,2.211,2.211,0,0,0,3.5-.012,3.955,3.955,0,0,0,.648-2.418,3.61,3.61,0,0,0-.66-2.254,2.1,2.1,0,0,0-1.754-.863,2.075,2.075,0,0,0-1.727.852A3.925,3.925,0,0,0,40.391,12.867ZM52.055,12.7a4.952,4.952,0,0,1,.922-3.129,3.137,3.137,0,0,1,4.766-.168V5h1.445V17H57.859l-.07-.906a2.943,2.943,0,0,1-2.414,1.063,2.887,2.887,0,0,1-2.395-1.2,5.008,5.008,0,0,1-.926-3.141Zm1.445.164a3.749,3.749,0,0,0,.594,2.25,1.92,1.92,0,0,0,1.641.813A2.108,2.108,0,0,0,57.742,14.7V10.813a2.125,2.125,0,0,0-1.992-1.2,1.929,1.929,0,0,0-1.656.82A4.128,4.128,0,0,0,53.5,12.867Zm11.438,4.289a3.693,3.693,0,0,1-2.8-1.129,4.19,4.19,0,0,1-1.078-3.02v-.266a5.073,5.073,0,0,1,.48-2.246,3.748,3.748,0,0,1,1.344-1.547,3.378,3.378,0,0,1,1.871-.559A3.166,3.166,0,0,1,67.32,9.477a4.7,4.7,0,0,1,.914,3.109v.6H62.508a3,3,0,0,0,.73,2.02,2.3,2.3,0,0,0,1.777.77,2.517,2.517,0,0,0,1.3-.312,3.259,3.259,0,0,0,.93-.828l.883.688A3.55,3.55,0,0,1,64.938,17.156Zm-.18-7.578a1.928,1.928,0,0,0-1.469.637A3.1,3.1,0,0,0,62.555,12h4.234v-.109a2.753,2.753,0,0,0-.594-1.707A1.815,1.815,0,0,0,64.758,9.578Zm11.9,5.461L78.75,8.547h1.477L77.2,17h-1.1L73.031,8.547h1.477ZM83.188,17H81.742V8.547h1.445ZM81.625,6.3a.863.863,0,0,1,.215-.594.807.807,0,0,1,.637-.242.819.819,0,0,1,.641.242.854.854,0,0,1,.219.594.826.826,0,0,1-.219.586.834.834,0,0,1-.641.234.821.821,0,0,1-.637-.234A.834.834,0,0,1,81.625,6.3Zm8.8,8.453a1.064,1.064,0,0,0-.441-.91,4.249,4.249,0,0,0-1.539-.559,7.277,7.277,0,0,1-1.742-.562,2.479,2.479,0,0,1-.953-.781,1.869,1.869,0,0,1-.309-1.078,2.193,2.193,0,0,1,.879-1.758,3.432,3.432,0,0,1,2.246-.719,3.532,3.532,0,0,1,2.332.742,2.357,2.357,0,0,1,.895,1.9H90.336a1.3,1.3,0,0,0-.5-1.023,1.888,1.888,0,0,0-1.27-.43,1.976,1.976,0,0,0-1.234.344,1.082,1.082,0,0,0-.445.9.877.877,0,0,0,.414.789,5.1,5.1,0,0,0,1.5.508,7.8,7.8,0,0,1,1.754.578,2.558,2.558,0,0,1,1,.809,1.988,1.988,0,0,1,.324,1.152,2.163,2.163,0,0,1-.906,1.816,3.8,3.8,0,0,1-2.352.684,4.257,4.257,0,0,1-1.8-.359,2.922,2.922,0,0,1-1.223-1,2.42,2.42,0,0,1-.441-1.395h1.445a1.5,1.5,0,0,0,.582,1.152,2.258,2.258,0,0,0,1.434.426,2.331,2.331,0,0,0,1.316-.332A1.02,1.02,0,0,0,90.422,14.758ZM95.711,6.5V8.547h1.578V9.664H95.711v5.249a1.173,1.173,0,0,0,.211.763.888.888,0,0,0,.719.254,3.5,3.5,0,0,0,.688-.094V17a4.215,4.215,0,0,1-1.109.155,1.8,1.8,0,0,1-1.461-.586,2.517,2.517,0,0,1-.492-1.664V9.664H92.727V8.547h1.539V6.5ZM104.2,17a3.036,3.036,0,0,1-.2-.891,3.225,3.225,0,0,1-2.406,1.047,2.984,2.984,0,0,1-2.051-.707,2.288,2.288,0,0,1-.8-1.793,2.39,2.39,0,0,1,1-2.051,4.733,4.733,0,0,1,2.824-.73h1.406v-.664A1.623,1.623,0,0,0,103.516,10a1.821,1.821,0,0,0-1.336-.449,2.108,2.108,0,0,0-1.3.391,1.151,1.151,0,0,0-.523.945H98.906a2,2,0,0,1,.449-1.223,3.066,3.066,0,0,1,1.219-.934,4.1,4.1,0,0,1,1.691-.344,3.342,3.342,0,0,1,2.289.73,2.635,2.635,0,0,1,.859,2.012v3.891a4.757,4.757,0,0,0,.3,1.852V17Zm-2.4-1.1a2.54,2.54,0,0,0,1.289-.352,2.127,2.127,0,0,0,.883-.914V12.9h-1.133q-2.656,0-2.656,1.555a1.316,1.316,0,0,0,.453,1.063A1.742,1.742,0,0,0,101.8,15.9ZM27.961,35.977a2.082,2.082,0,0,0,1.352-.469,1.649,1.649,0,0,0,.641-1.172H31.32a2.621,2.621,0,0,1-.5,1.383,3.293,3.293,0,0,1-1.23,1.047,3.55,3.55,0,0,1-1.629.391A3.482,3.482,0,0,1,25.215,36a4.59,4.59,0,0,1-1.02-3.152v-.242a5.089,5.089,0,0,1,.453-2.2,3.451,3.451,0,0,1,1.3-1.492,3.7,3.7,0,0,1,2-.531,3.39,3.39,0,0,1,2.363.852,3.043,3.043,0,0,1,1,2.211H29.953a1.992,1.992,0,0,0-.621-1.348,1.932,1.932,0,0,0-1.379-.527,2.023,2.023,0,0,0-1.707.793,3.724,3.724,0,0,0-.605,2.293v.273a3.65,3.65,0,0,0,.6,2.25A2.033,2.033,0,0,0,27.961,35.977Zm4.6-3.281a4.993,4.993,0,0,1,.488-2.234A3.643,3.643,0,0,1,34.41,28.93a3.7,3.7,0,0,1,1.988-.539,3.565,3.565,0,0,1,2.793,1.2,4.6,4.6,0,0,1,1.066,3.18v.1a5.036,5.036,0,0,1-.473,2.215,3.589,3.589,0,0,1-1.352,1.527,3.743,3.743,0,0,1-2.02.547,3.556,3.556,0,0,1-2.785-1.2A4.575,4.575,0,0,1,32.563,32.8Zm1.453.172a3.616,3.616,0,0,0,.652,2.258,2.211,2.211,0,0,0,3.5-.012,3.955,3.955,0,0,0,.648-2.418,3.61,3.61,0,0,0-.66-2.254,2.1,2.1,0,0,0-1.754-.863,2.075,2.075,0,0,0-1.727.852A3.925,3.925,0,0,0,34.016,32.867Zm9.422-4.32.047,1.063a3.08,3.08,0,0,1,2.531-1.219q2.68,0,2.7,3.023V37H47.273V31.406a1.946,1.946,0,0,0-.418-1.352,1.675,1.675,0,0,0-1.277-.437,2.086,2.086,0,0,0-1.234.375,2.546,2.546,0,0,0-.828.984V37H42.07V28.547Zm14.211,6.492,2.094-6.492h1.477L58.188,37h-1.1l-3.062-8.453H55.5ZM67.711,37a3.036,3.036,0,0,1-.2-.891A3.225,3.225,0,0,1,65.1,37.156a2.984,2.984,0,0,1-2.051-.707,2.287,2.287,0,0,1-.8-1.793,2.39,2.39,0,0,1,1-2.051,4.733,4.733,0,0,1,2.824-.73h1.406v-.664A1.623,1.623,0,0,0,67.031,30a1.821,1.821,0,0,0-1.336-.449,2.108,2.108,0,0,0-1.3.391,1.151,1.151,0,0,0-.523.945H62.422a2,2,0,0,1,.449-1.223,3.066,3.066,0,0,1,1.219-.934,4.1,4.1,0,0,1,1.691-.344,3.342,3.342,0,0,1,2.289.73,2.635,2.635,0,0,1,.859,2.012v3.891a4.757,4.757,0,0,0,.3,1.852V37Zm-2.4-1.1a2.54,2.54,0,0,0,1.289-.352,2.127,2.127,0,0,0,.883-.914V32.9H66.352q-2.656,0-2.656,1.555a1.316,1.316,0,0,0,.453,1.063A1.742,1.742,0,0,0,65.313,35.9ZM72.766,37H71.32V25h1.445Zm1.93-4.3a4.993,4.993,0,0,1,.488-2.234,3.643,3.643,0,0,1,1.359-1.531,3.7,3.7,0,0,1,1.988-.539,3.565,3.565,0,0,1,2.793,1.2,4.6,4.6,0,0,1,1.066,3.18v.1a5.036,5.036,0,0,1-.473,2.215,3.589,3.589,0,0,1-1.352,1.527,3.743,3.743,0,0,1-2.02.547,3.556,3.556,0,0,1-2.785-1.2A4.575,4.575,0,0,1,74.7,32.8Zm1.453.172a3.616,3.616,0,0,0,.652,2.258,2.211,2.211,0,0,0,3.5-.012,3.955,3.955,0,0,0,.648-2.418,3.61,3.61,0,0,0-.66-2.254,2.1,2.1,0,0,0-1.754-.863,2.075,2.075,0,0,0-1.727.852A3.925,3.925,0,0,0,76.148,32.867Zm12.141-3.023a4.331,4.331,0,0,0-.711-.055A1.9,1.9,0,0,0,85.648,31v6H84.2V28.547h1.406l.023.977a2.251,2.251,0,0,1,2.016-1.133,1.477,1.477,0,0,1,.641.109Z" transform="translate(310.172 235.608) rotate(-90)" fill="#12263f"/>
          <path id="Path_919059" data-name="Path 919059" d="M26.242,13.391a4.185,4.185,0,0,1-1.332,2.785,4.365,4.365,0,0,1-2.98.98,4.008,4.008,0,0,1-3.23-1.445,5.815,5.815,0,0,1-1.215-3.867V10.75a6.481,6.481,0,0,1,.566-2.789,4.231,4.231,0,0,1,1.605-1.848,4.47,4.47,0,0,1,2.406-.645A4.11,4.11,0,0,1,24.969,6.48a4.235,4.235,0,0,1,1.273,2.8H24.734a3.268,3.268,0,0,0-.848-1.975A2.565,2.565,0,0,0,22.063,6.7a2.684,2.684,0,0,0-2.254,1.063,4.882,4.882,0,0,0-.816,3.026v1.1a5.018,5.018,0,0,0,.773,2.948A2.5,2.5,0,0,0,21.93,15.93a2.886,2.886,0,0,0,1.918-.566,3.143,3.143,0,0,0,.887-1.973Zm1.438-.7a4.993,4.993,0,0,1,.488-2.234A3.643,3.643,0,0,1,29.527,8.93a3.7,3.7,0,0,1,1.988-.539,3.565,3.565,0,0,1,2.793,1.2,4.6,4.6,0,0,1,1.066,3.18v.1a5.036,5.036,0,0,1-.473,2.215,3.589,3.589,0,0,1-1.352,1.527,3.743,3.743,0,0,1-2.02.547,3.556,3.556,0,0,1-2.785-1.2A4.575,4.575,0,0,1,27.68,12.8Zm1.453.172a3.616,3.616,0,0,0,.652,2.258,2.211,2.211,0,0,0,3.5-.012A3.955,3.955,0,0,0,33.93,12.7a3.61,3.61,0,0,0-.66-2.254,2.1,2.1,0,0,0-1.754-.863,2.075,2.075,0,0,0-1.727.852A3.925,3.925,0,0,0,29.133,12.867Zm9.422-4.32L38.6,9.609a3.08,3.08,0,0,1,2.531-1.219q2.68,0,2.7,3.023V17H42.391V11.406a1.946,1.946,0,0,0-.418-1.352A1.675,1.675,0,0,0,40.7,9.617a2.086,2.086,0,0,0-1.234.375,2.546,2.546,0,0,0-.828.984V17H37.188V8.547Zm10.852,7.43a2.082,2.082,0,0,0,1.352-.469,1.649,1.649,0,0,0,.641-1.172h1.367a2.621,2.621,0,0,1-.5,1.383,3.293,3.293,0,0,1-1.23,1.047,3.55,3.55,0,0,1-1.629.391A3.482,3.482,0,0,1,46.66,16a4.59,4.59,0,0,1-1.02-3.152v-.242a5.089,5.089,0,0,1,.453-2.2,3.451,3.451,0,0,1,1.3-1.492,3.7,3.7,0,0,1,2-.531,3.39,3.39,0,0,1,2.363.852,3.043,3.043,0,0,1,1,2.211H51.4a1.992,1.992,0,0,0-.621-1.348A1.932,1.932,0,0,0,49.4,9.578a2.023,2.023,0,0,0-1.707.793,3.724,3.724,0,0,0-.605,2.293v.273a3.65,3.65,0,0,0,.6,2.25A2.033,2.033,0,0,0,49.406,15.977ZM55.961,17H54.516V8.547h1.445ZM54.4,6.3a.863.863,0,0,1,.215-.594.807.807,0,0,1,.637-.242.819.819,0,0,1,.641.242.854.854,0,0,1,.219.594.826.826,0,0,1-.219.586.834.834,0,0,1-.641.234.821.821,0,0,1-.637-.234A.834.834,0,0,1,54.4,6.3Zm7.383,10.852a3.693,3.693,0,0,1-2.8-1.129,4.19,4.19,0,0,1-1.078-3.02v-.266a5.073,5.073,0,0,1,.48-2.246A3.748,3.748,0,0,1,59.73,8.949,3.378,3.378,0,0,1,61.6,8.391a3.166,3.166,0,0,1,2.563,1.086,4.7,4.7,0,0,1,.914,3.109v.6H59.352a3,3,0,0,0,.73,2.02,2.3,2.3,0,0,0,1.777.77,2.517,2.517,0,0,0,1.3-.312,3.259,3.259,0,0,0,.93-.828l.883.688A3.55,3.55,0,0,1,61.781,17.156ZM61.6,9.578a1.928,1.928,0,0,0-1.469.637A3.1,3.1,0,0,0,59.4,12h4.234v-.109a2.753,2.753,0,0,0-.594-1.707A1.815,1.815,0,0,0,61.6,9.578Zm6.516-1.031.047,1.063A3.08,3.08,0,0,1,70.7,8.391q2.68,0,2.7,3.023V17H71.953V11.406a1.946,1.946,0,0,0-.418-1.352,1.675,1.675,0,0,0-1.277-.437,2.086,2.086,0,0,0-1.234.375,2.546,2.546,0,0,0-.828.984V17H66.75V8.547Zm10.852,7.43a2.082,2.082,0,0,0,1.352-.469,1.649,1.649,0,0,0,.641-1.172h1.367a2.621,2.621,0,0,1-.5,1.383,3.293,3.293,0,0,1-1.23,1.047,3.55,3.55,0,0,1-1.629.391A3.482,3.482,0,0,1,76.223,16a4.59,4.59,0,0,1-1.02-3.152v-.242a5.089,5.089,0,0,1,.453-2.2,3.451,3.451,0,0,1,1.3-1.492,3.7,3.7,0,0,1,2-.531,3.39,3.39,0,0,1,2.363.852,3.043,3.043,0,0,1,1,2.211H80.961a1.992,1.992,0,0,0-.621-1.348,1.932,1.932,0,0,0-1.379-.527,2.023,2.023,0,0,0-1.707.793,3.724,3.724,0,0,0-.605,2.293v.273a3.65,3.65,0,0,0,.6,2.25A2.033,2.033,0,0,0,78.969,15.977ZM85.523,17H84.078V8.547h1.445ZM83.961,6.3a.863.863,0,0,1,.215-.594.807.807,0,0,1,.637-.242.819.819,0,0,1,.641.242.854.854,0,0,1,.219.594.826.826,0,0,1-.219.586.834.834,0,0,1-.641.234.821.821,0,0,1-.637-.234A.834.834,0,0,1,83.961,6.3ZM93.055,17a3.036,3.036,0,0,1-.2-.891,3.225,3.225,0,0,1-2.406,1.047,2.984,2.984,0,0,1-2.051-.707,2.288,2.288,0,0,1-.8-1.793,2.39,2.39,0,0,1,1-2.051,4.733,4.733,0,0,1,2.824-.73h1.406v-.664A1.623,1.623,0,0,0,92.375,10a1.821,1.821,0,0,0-1.336-.449,2.108,2.108,0,0,0-1.3.391,1.151,1.151,0,0,0-.523.945H87.766a2,2,0,0,1,.449-1.223,3.066,3.066,0,0,1,1.219-.934,4.1,4.1,0,0,1,1.691-.344,3.342,3.342,0,0,1,2.289.73,2.635,2.635,0,0,1,.859,2.012v3.891a4.757,4.757,0,0,0,.3,1.852V17Zm-2.4-1.1a2.54,2.54,0,0,0,1.289-.352,2.127,2.127,0,0,0,.883-.914V12.9H91.7q-2.656,0-2.656,1.555a1.316,1.316,0,0,0,.453,1.063A1.742,1.742,0,0,0,90.656,15.9Z" transform="translate(146.226 238.655) rotate(-90)" fill="#12263f"/>
          <path id="Path_919060" data-name="Path 919060" d="M13.03,13.742V18H10.54V5.914h4.715a5.455,5.455,0,0,1,2.395.5,3.67,3.67,0,0,1,1.59,1.415,3.946,3.946,0,0,1,.556,2.088,3.47,3.47,0,0,1-1.216,2.8,5.065,5.065,0,0,1-3.366,1.025Zm0-2.017h2.225a2.187,2.187,0,0,0,1.507-.465,1.691,1.691,0,0,0,.519-1.328A1.994,1.994,0,0,0,16.757,8.5a1.953,1.953,0,0,0-1.444-.564H13.03Zm13.364-.457a6.517,6.517,0,0,0-.863-.066,1.757,1.757,0,0,0-1.785.921V18h-2.4V9.019h2.266l.066,1.071a2.223,2.223,0,0,1,2-1.237,2.514,2.514,0,0,1,.747.108Zm.481,2.158a5.327,5.327,0,0,1,.515-2.382,3.768,3.768,0,0,1,1.482-1.619,4.323,4.323,0,0,1,2.245-.573,4.09,4.09,0,0,1,2.968,1.112,4.464,4.464,0,0,1,1.282,3.021l.017.614a4.694,4.694,0,0,1-1.154,3.316,4.011,4.011,0,0,1-3.1,1.249,4.031,4.031,0,0,1-3.1-1.245,4.777,4.777,0,0,1-1.158-3.387Zm2.4.17a3.357,3.357,0,0,0,.481,1.958,1.73,1.73,0,0,0,2.739.008,3.674,3.674,0,0,0,.49-2.141,3.324,3.324,0,0,0-.49-1.945,1.592,1.592,0,0,0-1.378-.69,1.566,1.566,0,0,0-1.361.686A3.735,3.735,0,0,0,29.274,13.6Zm7.213-.154A5.413,5.413,0,0,1,37.43,10.1a3.057,3.057,0,0,1,2.577-1.245,2.751,2.751,0,0,1,2.167.979V5.25h2.407V18H42.415l-.116-.955a2.823,2.823,0,0,1-2.308,1.121,3.049,3.049,0,0,1-2.544-1.249A5.587,5.587,0,0,1,36.488,13.443Zm2.4.179a3.546,3.546,0,0,0,.44,1.937,1.433,1.433,0,0,0,1.278.673,1.605,1.605,0,0,0,1.569-.939v-3.55a1.582,1.582,0,0,0-1.552-.939Q38.887,10.8,38.887,13.621Zm12.933,3.465a3.008,3.008,0,0,1-2.457,1.079,2.837,2.837,0,0,1-2.2-.83,3.543,3.543,0,0,1-.776-2.432V9.019h2.4v5.809q0,1.4,1.278,1.4a1.732,1.732,0,0,0,1.677-.848V9.019h2.407V18H51.886Zm7.869-.855a1.573,1.573,0,0,0,1.079-.365A1.28,1.28,0,0,0,61.2,14.9h2.25a3.077,3.077,0,0,1-.5,1.673,3.286,3.286,0,0,1-1.341,1.179,4.2,4.2,0,0,1-1.88.419,3.9,3.9,0,0,1-3.038-1.224,4.845,4.845,0,0,1-1.112-3.383V13.4a4.79,4.79,0,0,1,1.1-3.312,3.854,3.854,0,0,1,3.03-1.237,3.778,3.778,0,0,1,2.7.959,3.4,3.4,0,0,1,1.033,2.552H61.2a1.648,1.648,0,0,0-.432-1.139,1.6,1.6,0,0,0-2.362.173,3.541,3.541,0,0,0-.427,1.983v.249a3.586,3.586,0,0,0,.423,2A1.463,1.463,0,0,0,59.688,16.232Zm8-9.421V9.019h1.536v1.76H67.69v4.482a1.07,1.07,0,0,0,.191.714.959.959,0,0,0,.73.216,3.826,3.826,0,0,0,.706-.058V17.95a4.938,4.938,0,0,1-1.453.216,2.29,2.29,0,0,1-2.573-2.548V10.778H63.98V9.019h1.312V6.811Zm2.25,6.616a5.326,5.326,0,0,1,.515-2.382,3.768,3.768,0,0,1,1.482-1.619,4.323,4.323,0,0,1,2.245-.573,4.09,4.09,0,0,1,2.968,1.112,4.464,4.464,0,0,1,1.282,3.021l.017.614a4.694,4.694,0,0,1-1.154,3.316,4.472,4.472,0,0,1-6.2,0,4.777,4.777,0,0,1-1.158-3.387Zm2.4.17a3.357,3.357,0,0,0,.481,1.958,1.73,1.73,0,0,0,2.739.008,3.674,3.674,0,0,0,.49-2.141,3.324,3.324,0,0,0-.49-1.945,1.592,1.592,0,0,0-1.378-.69,1.566,1.566,0,0,0-1.361.686A3.736,3.736,0,0,0,72.339,13.6ZM84.79,15.518a.773.773,0,0,0-.436-.693,4.95,4.95,0,0,0-1.4-.452q-3.2-.672-3.2-2.723a2.468,2.468,0,0,1,.992-2,4,4,0,0,1,2.594-.8,4.307,4.307,0,0,1,2.735.805A2.538,2.538,0,0,1,87.1,11.75H84.7a1.161,1.161,0,0,0-.332-.851,1.405,1.405,0,0,0-1.038-.336,1.436,1.436,0,0,0-.938.274.865.865,0,0,0-.332.7.739.739,0,0,0,.378.643,3.885,3.885,0,0,0,1.274.423,10.407,10.407,0,0,1,1.511.4,2.482,2.482,0,0,1,1.9,2.416,2.343,2.343,0,0,1-1.054,1.988,4.548,4.548,0,0,1-2.723.76,4.75,4.75,0,0,1-2-.4,3.363,3.363,0,0,1-1.374-1.1,2.565,2.565,0,0,1-.5-1.515h2.274a1.252,1.252,0,0,0,.473.979,1.877,1.877,0,0,0,1.179.34,1.737,1.737,0,0,0,1.042-.261A.814.814,0,0,0,84.79,15.518Zm16.195-1.926a5.387,5.387,0,0,1-.942,3.324A3.021,3.021,0,0,1,97.5,18.166a2.8,2.8,0,0,1-2.2-.946v4.233H92.9V9.019h2.225l.083.88a2.819,2.819,0,0,1,2.274-1.046,3.041,3.041,0,0,1,2.582,1.229,5.532,5.532,0,0,1,.921,3.387Zm-2.4-.174a3.535,3.535,0,0,0-.444-1.934,1.446,1.446,0,0,0-1.291-.681,1.571,1.571,0,0,0-1.552.863v3.677a1.6,1.6,0,0,0,1.569.888Q98.586,16.232,98.586,13.418Zm3.511.008a5.326,5.326,0,0,1,.515-2.382,3.768,3.768,0,0,1,1.482-1.619,4.323,4.323,0,0,1,2.245-.573,4.09,4.09,0,0,1,2.968,1.112,4.464,4.464,0,0,1,1.282,3.021l.017.614a4.694,4.694,0,0,1-1.154,3.316,4.472,4.472,0,0,1-6.2,0,4.777,4.777,0,0,1-1.158-3.387Zm2.4.17a3.357,3.357,0,0,0,.481,1.958,1.73,1.73,0,0,0,2.739.008,3.674,3.674,0,0,0,.49-2.141,3.324,3.324,0,0,0-.49-1.945,1.592,1.592,0,0,0-1.378-.69,1.566,1.566,0,0,0-1.361.686A3.736,3.736,0,0,0,104.5,13.6Zm10.459-6.786V9.019h1.536v1.76h-1.536v4.482a1.07,1.07,0,0,0,.191.714.959.959,0,0,0,.73.216,3.826,3.826,0,0,0,.706-.058V17.95a4.938,4.938,0,0,1-1.453.216,2.29,2.29,0,0,1-2.573-2.548V10.778h-1.312V9.019h1.312V6.811Zm7.006,11.355a4.409,4.409,0,0,1-3.217-1.212,4.308,4.308,0,0,1-1.241-3.229v-.232a5.426,5.426,0,0,1,.523-2.42,3.838,3.838,0,0,1,1.482-1.644,4.159,4.159,0,0,1,2.187-.577,3.727,3.727,0,0,1,2.9,1.162,4.722,4.722,0,0,1,1.058,3.3v.979h-5.719a2.229,2.229,0,0,0,.7,1.411,2.12,2.12,0,0,0,1.482.531,2.589,2.589,0,0,0,2.167-1l1.179,1.32A3.6,3.6,0,0,1,124,17.739,4.793,4.793,0,0,1,121.961,18.166Zm-.274-7.379a1.5,1.5,0,0,0-1.158.484,2.5,2.5,0,0,0-.569,1.384H123.3v-.192a1.786,1.786,0,0,0-.432-1.238A1.547,1.547,0,0,0,121.687,10.787Zm7.537-1.768.075,1.038a3.136,3.136,0,0,1,2.582-1.2,2.606,2.606,0,0,1,2.125.838,3.912,3.912,0,0,1,.714,2.507V18h-2.4V12.256a1.556,1.556,0,0,0-.332-1.108,1.486,1.486,0,0,0-1.1-.344,1.65,1.65,0,0,0-1.519.863V18h-2.4V9.019Zm11.048,7.213a1.573,1.573,0,0,0,1.079-.365,1.28,1.28,0,0,0,.432-.971h2.25a3.077,3.077,0,0,1-.5,1.673,3.286,3.286,0,0,1-1.341,1.179,4.2,4.2,0,0,1-1.88.419,3.9,3.9,0,0,1-3.038-1.224,4.845,4.845,0,0,1-1.112-3.383V13.4a4.79,4.79,0,0,1,1.1-3.312,3.854,3.854,0,0,1,3.03-1.237,3.778,3.778,0,0,1,2.7.959,3.4,3.4,0,0,1,1.033,2.552h-2.25a1.648,1.648,0,0,0-.432-1.139,1.6,1.6,0,0,0-2.362.173,3.541,3.541,0,0,0-.427,1.983v.249a3.586,3.586,0,0,0,.423,2A1.463,1.463,0,0,0,140.272,16.232ZM147.934,18h-2.407V9.019h2.407ZM145.386,6.694a1.181,1.181,0,0,1,.361-.888,1.556,1.556,0,0,1,1.963,0,1.175,1.175,0,0,1,.365.888,1.178,1.178,0,0,1-.369.9,1.539,1.539,0,0,1-1.951,0A1.178,1.178,0,0,1,145.386,6.694ZM155.114,18a2.664,2.664,0,0,1-.241-.805,2.9,2.9,0,0,1-2.266.971,3.189,3.189,0,0,1-2.187-.764,2.456,2.456,0,0,1-.867-1.926,2.538,2.538,0,0,1,1.058-2.191,5.222,5.222,0,0,1,3.059-.772h1.1V12a1.48,1.48,0,0,0-.32-1,1.257,1.257,0,0,0-1.009-.374,1.429,1.429,0,0,0-.95.291.987.987,0,0,0-.344.8h-2.4a2.41,2.41,0,0,1,.481-1.444,3.182,3.182,0,0,1,1.361-1.042,4.961,4.961,0,0,1,1.976-.378,3.92,3.92,0,0,1,2.635.834,2.918,2.918,0,0,1,.975,2.345v3.893a4.294,4.294,0,0,0,.357,1.934V18Zm-1.984-1.668a2.066,2.066,0,0,0,.979-.237,1.554,1.554,0,0,0,.664-.635V13.916h-.9q-1.8,0-1.917,1.245l-.008.141a.96.96,0,0,0,.315.739A1.225,1.225,0,0,0,153.13,16.332ZM161.556,18h-2.407V5.25h2.407Zm6.109.166a4.409,4.409,0,0,1-3.217-1.212,4.308,4.308,0,0,1-1.241-3.229v-.232a5.426,5.426,0,0,1,.523-2.42,3.838,3.838,0,0,1,1.482-1.644,4.159,4.159,0,0,1,2.187-.577,3.727,3.727,0,0,1,2.9,1.162,4.722,4.722,0,0,1,1.058,3.3v.979H165.64a2.228,2.228,0,0,0,.7,1.411,2.12,2.12,0,0,0,1.482.531,2.589,2.589,0,0,0,2.167-1l1.179,1.32a3.6,3.6,0,0,1-1.461,1.191A4.793,4.793,0,0,1,167.665,18.166Zm-.274-7.379a1.5,1.5,0,0,0-1.158.484,2.5,2.5,0,0,0-.569,1.384H169v-.192a1.786,1.786,0,0,0-.432-1.238A1.547,1.547,0,0,0,167.391,10.787Zm10.193,4.731a.773.773,0,0,0-.436-.693,4.95,4.95,0,0,0-1.4-.452q-3.2-.672-3.2-2.723a2.468,2.468,0,0,1,.992-2,4,4,0,0,1,2.594-.8,4.307,4.307,0,0,1,2.735.805,2.538,2.538,0,0,1,1.025,2.092h-2.4a1.161,1.161,0,0,0-.332-.851,1.405,1.405,0,0,0-1.038-.336,1.436,1.436,0,0,0-.938.274.865.865,0,0,0-.332.7.739.739,0,0,0,.378.643,3.885,3.885,0,0,0,1.274.423,10.407,10.407,0,0,1,1.511.4,2.482,2.482,0,0,1,1.9,2.416,2.343,2.343,0,0,1-1.054,1.988,4.548,4.548,0,0,1-2.723.76,4.75,4.75,0,0,1-2-.4,3.363,3.363,0,0,1-1.374-1.1,2.565,2.565,0,0,1-.5-1.515h2.274a1.252,1.252,0,0,0,.473.979,1.877,1.877,0,0,0,1.179.34,1.737,1.737,0,0,0,1.042-.261A.814.814,0,0,0,177.584,15.518Z" transform="translate(652.003 274.608) rotate(-90)" fill="#12263f"/>
          <path id="Path_919061" data-name="Path 919061" d="M27.934,13.974a4.277,4.277,0,0,1-1.44,3.071,5.058,5.058,0,0,1-3.424,1.121A4.548,4.548,0,0,1,19.413,16.6a6.416,6.416,0,0,1-1.332-4.3v-.739A7.245,7.245,0,0,1,18.7,8.5a4.6,4.6,0,0,1,1.756-2.038,4.918,4.918,0,0,1,2.652-.71,4.927,4.927,0,0,1,3.37,1.121,4.6,4.6,0,0,1,1.478,3.146H25.46a2.524,2.524,0,0,0-.652-1.7A2.413,2.413,0,0,0,23.1,7.79a2.116,2.116,0,0,0-1.864.892,5,5,0,0,0-.635,2.768v.913a5.352,5.352,0,0,0,.594,2.864,2.077,2.077,0,0,0,1.872.9,2.458,2.458,0,0,0,1.722-.527,2.381,2.381,0,0,0,.652-1.631Zm1.1-.548a5.327,5.327,0,0,1,.515-2.382,3.768,3.768,0,0,1,1.482-1.619,4.323,4.323,0,0,1,2.245-.573,4.09,4.09,0,0,1,2.968,1.112,4.464,4.464,0,0,1,1.282,3.021l.017.614a4.694,4.694,0,0,1-1.154,3.316,4.011,4.011,0,0,1-3.1,1.249,4.031,4.031,0,0,1-3.1-1.245,4.777,4.777,0,0,1-1.158-3.387Zm2.4.17a3.357,3.357,0,0,0,.481,1.958,1.73,1.73,0,0,0,2.739.008,3.674,3.674,0,0,0,.49-2.141,3.324,3.324,0,0,0-.49-1.945,1.592,1.592,0,0,0-1.378-.69,1.566,1.566,0,0,0-1.361.686A3.735,3.735,0,0,0,31.437,13.6Zm9.836-4.578.075,1a3.156,3.156,0,0,1,2.582-1.17,2.4,2.4,0,0,1,2.382,1.37,3.084,3.084,0,0,1,2.7-1.37,2.679,2.679,0,0,1,2.175.851,3.911,3.911,0,0,1,.714,2.561V18H49.491V12.272a1.71,1.71,0,0,0-.3-1.116,1.324,1.324,0,0,0-1.054-.353,1.5,1.5,0,0,0-1.494,1.029L46.652,18h-2.4V12.281a1.689,1.689,0,0,0-.307-1.129A1.337,1.337,0,0,0,42.9,10.8a1.555,1.555,0,0,0-1.478.847V18h-2.4V9.019ZM59.12,17.087a3.008,3.008,0,0,1-2.457,1.079,2.837,2.837,0,0,1-2.2-.83,3.543,3.543,0,0,1-.776-2.432V9.019h2.4v5.809q0,1.4,1.278,1.4a1.732,1.732,0,0,0,1.677-.848V9.019h2.407V18H59.186Zm6.342-8.068.075,1.038a3.136,3.136,0,0,1,2.582-1.2,2.606,2.606,0,0,1,2.125.838,3.912,3.912,0,0,1,.714,2.507V18h-2.4V12.256a1.556,1.556,0,0,0-.332-1.108,1.486,1.486,0,0,0-1.1-.344,1.65,1.65,0,0,0-1.519.863V18H63.2V9.019ZM75.306,18H72.9V9.019h2.407ZM72.758,6.694a1.181,1.181,0,0,1,.361-.888,1.556,1.556,0,0,1,1.963,0,1.175,1.175,0,0,1,.365.888,1.178,1.178,0,0,1-.369.9,1.539,1.539,0,0,1-1.951,0A1.178,1.178,0,0,1,72.758,6.694Zm4.15,6.749a5.413,5.413,0,0,1,.942-3.345,3.057,3.057,0,0,1,2.577-1.245,2.751,2.751,0,0,1,2.167.979V5.25H85V18H82.835l-.116-.955a2.823,2.823,0,0,1-2.308,1.121,3.049,3.049,0,0,1-2.544-1.249A5.587,5.587,0,0,1,76.908,13.443Zm2.4.179a3.546,3.546,0,0,0,.44,1.937,1.433,1.433,0,0,0,1.278.673,1.605,1.605,0,0,0,1.569-.939v-3.55a1.582,1.582,0,0,0-1.552-.939Q79.307,10.8,79.307,13.621ZM92.066,18a2.664,2.664,0,0,1-.241-.805,2.9,2.9,0,0,1-2.266.971,3.189,3.189,0,0,1-2.187-.764,2.456,2.456,0,0,1-.867-1.926,2.538,2.538,0,0,1,1.058-2.191,5.222,5.222,0,0,1,3.059-.772h1.1V12a1.48,1.48,0,0,0-.32-1,1.257,1.257,0,0,0-1.009-.374,1.429,1.429,0,0,0-.95.291.987.987,0,0,0-.344.8H86.7a2.41,2.41,0,0,1,.481-1.444A3.182,3.182,0,0,1,88.546,9.23a4.961,4.961,0,0,1,1.976-.378,3.92,3.92,0,0,1,2.635.834,2.918,2.918,0,0,1,.975,2.345v3.893a4.294,4.294,0,0,0,.357,1.934V18Zm-1.984-1.668a2.066,2.066,0,0,0,.979-.237,1.554,1.554,0,0,0,.664-.635V13.916h-.9q-1.8,0-1.917,1.245L88.9,15.3a.96.96,0,0,0,.315.739A1.225,1.225,0,0,0,90.082,16.332Zm5.52-2.889a5.413,5.413,0,0,1,.942-3.345,3.057,3.057,0,0,1,2.577-1.245,2.751,2.751,0,0,1,2.167.979V5.25H103.7V18h-2.167l-.116-.955A2.823,2.823,0,0,1,99.1,18.166a3.049,3.049,0,0,1-2.544-1.249A5.587,5.587,0,0,1,95.6,13.443Zm2.4.179a3.546,3.546,0,0,0,.44,1.937,1.433,1.433,0,0,0,1.278.673,1.605,1.605,0,0,0,1.569-.939v-3.55a1.582,1.582,0,0,0-1.552-.939Q98,10.8,98,13.621Z" transform="translate(107.77 245.993) rotate(-90)" fill="#12263f"/>
          <path id="Path_919062" data-name="Path 919062" d="M32.8,13.576H30.817V18h-2.49V5.914h4.491a5.076,5.076,0,0,1,3.3.955,3.3,3.3,0,0,1,1.162,2.7,3.718,3.718,0,0,1-.535,2.063,3.651,3.651,0,0,1-1.623,1.316l2.615,4.939V18H35.067Zm-1.984-2.017h2.009a2.057,2.057,0,0,0,1.453-.477,1.706,1.706,0,0,0,.515-1.316,1.826,1.826,0,0,0-.486-1.345,2.018,2.018,0,0,0-1.49-.49h-2Zm12.335,6.607a4.409,4.409,0,0,1-3.217-1.212,4.308,4.308,0,0,1-1.241-3.229v-.232a5.426,5.426,0,0,1,.523-2.42A3.838,3.838,0,0,1,40.7,9.429a4.159,4.159,0,0,1,2.187-.577,3.727,3.727,0,0,1,2.9,1.162,4.722,4.722,0,0,1,1.058,3.3v.979H41.126a2.229,2.229,0,0,0,.7,1.411,2.12,2.12,0,0,0,1.482.531,2.589,2.589,0,0,0,2.167-1l1.179,1.32a3.6,3.6,0,0,1-1.461,1.191A4.793,4.793,0,0,1,43.152,18.166Zm-.274-7.379a1.5,1.5,0,0,0-1.158.484,2.5,2.5,0,0,0-.569,1.384h3.337v-.192a1.786,1.786,0,0,0-.432-1.238A1.547,1.547,0,0,0,42.878,10.787Zm9.064,5.445a1.573,1.573,0,0,0,1.079-.365,1.28,1.28,0,0,0,.432-.971H55.7a3.077,3.077,0,0,1-.5,1.673,3.286,3.286,0,0,1-1.341,1.179,4.2,4.2,0,0,1-1.88.419,3.9,3.9,0,0,1-3.038-1.224,4.845,4.845,0,0,1-1.112-3.383V13.4a4.79,4.79,0,0,1,1.1-3.312,3.854,3.854,0,0,1,3.03-1.237,3.778,3.778,0,0,1,2.7.959A3.4,3.4,0,0,1,55.7,12.364h-2.25a1.648,1.648,0,0,0-.432-1.139,1.6,1.6,0,0,0-2.362.173,3.541,3.541,0,0,0-.427,1.983v.249a3.586,3.586,0,0,0,.423,2A1.463,1.463,0,0,0,51.942,16.232Zm10.509.855a3.008,3.008,0,0,1-2.457,1.079,2.837,2.837,0,0,1-2.2-.83,3.543,3.543,0,0,1-.776-2.432V9.019h2.4v5.809q0,1.4,1.278,1.4a1.732,1.732,0,0,0,1.677-.848V9.019h2.407V18H62.518Zm9.181-5.819a6.517,6.517,0,0,0-.863-.066,1.757,1.757,0,0,0-1.785.921V18h-2.4V9.019h2.266l.066,1.071a2.223,2.223,0,0,1,2-1.237,2.514,2.514,0,0,1,.747.108Zm6.018,4.25a.773.773,0,0,0-.436-.693,4.95,4.95,0,0,0-1.4-.452q-3.2-.672-3.2-2.723a2.468,2.468,0,0,1,.992-2,4,4,0,0,1,2.594-.8,4.307,4.307,0,0,1,2.735.805,2.538,2.538,0,0,1,1.025,2.092h-2.4a1.161,1.161,0,0,0-.332-.851,1.405,1.405,0,0,0-1.038-.336,1.436,1.436,0,0,0-.938.274.865.865,0,0,0-.332.7.739.739,0,0,0,.378.643,3.885,3.885,0,0,0,1.274.423,10.407,10.407,0,0,1,1.511.4,2.482,2.482,0,0,1,1.9,2.416,2.343,2.343,0,0,1-1.054,1.988,4.548,4.548,0,0,1-2.723.76,4.75,4.75,0,0,1-2-.4,3.363,3.363,0,0,1-1.374-1.1,2.565,2.565,0,0,1-.5-1.515H74.6a1.252,1.252,0,0,0,.473.979,1.877,1.877,0,0,0,1.179.34A1.737,1.737,0,0,0,77.3,16.2.814.814,0,0,0,77.65,15.518Zm3.5-2.092a5.326,5.326,0,0,1,.515-2.382,3.768,3.768,0,0,1,1.482-1.619,4.323,4.323,0,0,1,2.245-.573,4.09,4.09,0,0,1,2.968,1.112,4.464,4.464,0,0,1,1.282,3.021l.017.614a4.694,4.694,0,0,1-1.154,3.316,4.472,4.472,0,0,1-6.2,0,4.777,4.777,0,0,1-1.158-3.387Zm2.4.17a3.357,3.357,0,0,0,.481,1.958,1.73,1.73,0,0,0,2.739.008,3.674,3.674,0,0,0,.49-2.141,3.324,3.324,0,0,0-.49-1.945,1.592,1.592,0,0,0-1.378-.69,1.566,1.566,0,0,0-1.361.686A3.736,3.736,0,0,0,83.552,13.6ZM96,15.518a.773.773,0,0,0-.436-.693,4.95,4.95,0,0,0-1.4-.452q-3.2-.672-3.2-2.723a2.468,2.468,0,0,1,.992-2,4,4,0,0,1,2.594-.8,4.307,4.307,0,0,1,2.735.805,2.538,2.538,0,0,1,1.025,2.092h-2.4a1.161,1.161,0,0,0-.332-.851,1.405,1.405,0,0,0-1.038-.336,1.436,1.436,0,0,0-.938.274.865.865,0,0,0-.332.7.739.739,0,0,0,.378.643,3.885,3.885,0,0,0,1.274.423,10.407,10.407,0,0,1,1.511.4,2.482,2.482,0,0,1,1.9,2.416,2.343,2.343,0,0,1-1.054,1.988,4.548,4.548,0,0,1-2.723.76,4.75,4.75,0,0,1-2-.4,3.363,3.363,0,0,1-1.374-1.1,2.565,2.565,0,0,1-.5-1.515h2.274a1.252,1.252,0,0,0,.473.979,1.877,1.877,0,0,0,1.179.34A1.737,1.737,0,0,0,95.65,16.2.814.814,0,0,0,96,15.518ZM112.2,13.592a5.387,5.387,0,0,1-.942,3.324,3.021,3.021,0,0,1-2.544,1.249,2.8,2.8,0,0,1-2.2-.946v4.233h-2.4V9.019h2.225l.083.88a2.819,2.819,0,0,1,2.274-1.046,3.041,3.041,0,0,1,2.582,1.229,5.532,5.532,0,0,1,.921,3.387Zm-2.4-.174a3.535,3.535,0,0,0-.444-1.934,1.446,1.446,0,0,0-1.291-.681,1.571,1.571,0,0,0-1.552.863v3.677a1.6,1.6,0,0,0,1.569.888Q109.8,16.232,109.8,13.418Zm3.511.008a5.326,5.326,0,0,1,.515-2.382,3.768,3.768,0,0,1,1.482-1.619,4.323,4.323,0,0,1,2.245-.573,4.09,4.09,0,0,1,2.968,1.112,4.464,4.464,0,0,1,1.282,3.021l.017.614a4.694,4.694,0,0,1-1.154,3.316,4.472,4.472,0,0,1-6.2,0,4.777,4.777,0,0,1-1.158-3.387Zm2.4.17a3.357,3.357,0,0,0,.481,1.958,1.73,1.73,0,0,0,2.739.008,3.674,3.674,0,0,0,.49-2.141,3.324,3.324,0,0,0-.49-1.945,1.592,1.592,0,0,0-1.378-.69,1.566,1.566,0,0,0-1.361.686A3.736,3.736,0,0,0,115.709,13.6Zm10.459-6.786V9.019H127.7v1.76h-1.536v4.482a1.07,1.07,0,0,0,.191.714.959.959,0,0,0,.73.216,3.826,3.826,0,0,0,.706-.058V17.95a4.938,4.938,0,0,1-1.453.216,2.29,2.29,0,0,1-2.573-2.548V10.778h-1.312V9.019h1.312V6.811Zm7.006,11.355a4.409,4.409,0,0,1-3.217-1.212,4.308,4.308,0,0,1-1.241-3.229v-.232a5.426,5.426,0,0,1,.523-2.42,3.838,3.838,0,0,1,1.482-1.644,4.159,4.159,0,0,1,2.187-.577,3.727,3.727,0,0,1,2.9,1.162,4.722,4.722,0,0,1,1.058,3.3v.979h-5.719a2.228,2.228,0,0,0,.7,1.411,2.12,2.12,0,0,0,1.482.531,2.589,2.589,0,0,0,2.167-1l1.179,1.32a3.6,3.6,0,0,1-1.461,1.191A4.793,4.793,0,0,1,133.174,18.166Zm-.274-7.379a1.5,1.5,0,0,0-1.158.484,2.5,2.5,0,0,0-.569,1.384h3.337v-.192a1.786,1.786,0,0,0-.432-1.238A1.547,1.547,0,0,0,132.9,10.787Zm7.537-1.768.075,1.038a3.136,3.136,0,0,1,2.582-1.2,2.606,2.606,0,0,1,2.125.838,3.912,3.912,0,0,1,.714,2.507V18h-2.4V12.256a1.556,1.556,0,0,0-.332-1.108,1.486,1.486,0,0,0-1.1-.344,1.65,1.65,0,0,0-1.519.863V18h-2.4V9.019Zm11.048,7.213a1.573,1.573,0,0,0,1.079-.365A1.28,1.28,0,0,0,153,14.9h2.25a3.077,3.077,0,0,1-.5,1.673,3.286,3.286,0,0,1-1.341,1.179,4.2,4.2,0,0,1-1.88.419,3.9,3.9,0,0,1-3.038-1.224,4.845,4.845,0,0,1-1.112-3.383V13.4a4.79,4.79,0,0,1,1.1-3.312,3.854,3.854,0,0,1,3.03-1.237,3.778,3.778,0,0,1,2.7.959,3.4,3.4,0,0,1,1.033,2.552H153a1.648,1.648,0,0,0-.432-1.139,1.6,1.6,0,0,0-2.362.173,3.541,3.541,0,0,0-.427,1.983v.249a3.586,3.586,0,0,0,.423,2A1.463,1.463,0,0,0,151.485,16.232ZM159.147,18H156.74V9.019h2.407ZM156.6,6.694a1.181,1.181,0,0,1,.361-.888,1.556,1.556,0,0,1,1.963,0,1.175,1.175,0,0,1,.365.888,1.178,1.178,0,0,1-.369.9,1.539,1.539,0,0,1-1.951,0A1.178,1.178,0,0,1,156.6,6.694ZM166.327,18a2.664,2.664,0,0,1-.241-.805,2.9,2.9,0,0,1-2.266.971,3.189,3.189,0,0,1-2.187-.764,2.456,2.456,0,0,1-.867-1.926,2.538,2.538,0,0,1,1.058-2.191,5.222,5.222,0,0,1,3.059-.772h1.1V12a1.48,1.48,0,0,0-.32-1,1.257,1.257,0,0,0-1.009-.374,1.429,1.429,0,0,0-.95.291.987.987,0,0,0-.344.8h-2.4a2.41,2.41,0,0,1,.481-1.444,3.182,3.182,0,0,1,1.361-1.042,4.961,4.961,0,0,1,1.976-.378,3.92,3.92,0,0,1,2.635.834,2.918,2.918,0,0,1,.975,2.345v3.893a4.294,4.294,0,0,0,.357,1.934V18Zm-1.984-1.668a2.066,2.066,0,0,0,.979-.237,1.554,1.554,0,0,0,.664-.635V13.916h-.9q-1.8,0-1.917,1.245l-.008.141a.96.96,0,0,0,.315.739A1.225,1.225,0,0,0,164.343,16.332ZM172.769,18h-2.407V5.25h2.407Zm6.109.166a4.409,4.409,0,0,1-3.217-1.212,4.308,4.308,0,0,1-1.241-3.229v-.232a5.426,5.426,0,0,1,.523-2.42,3.838,3.838,0,0,1,1.482-1.644,4.159,4.159,0,0,1,2.187-.577,3.727,3.727,0,0,1,2.9,1.162,4.722,4.722,0,0,1,1.058,3.3v.979h-5.719a2.228,2.228,0,0,0,.7,1.411,2.12,2.12,0,0,0,1.482.531,2.589,2.589,0,0,0,2.167-1l1.179,1.32a3.6,3.6,0,0,1-1.461,1.191A4.793,4.793,0,0,1,178.878,18.166Zm-.274-7.379a1.5,1.5,0,0,0-1.158.484,2.5,2.5,0,0,0-.569,1.384h3.337v-.192a1.786,1.786,0,0,0-.432-1.238A1.547,1.547,0,0,0,178.6,10.787ZM188.8,15.518a.773.773,0,0,0-.436-.693,4.95,4.95,0,0,0-1.4-.452q-3.2-.672-3.2-2.723a2.468,2.468,0,0,1,.992-2,4,4,0,0,1,2.594-.8,4.307,4.307,0,0,1,2.735.805A2.538,2.538,0,0,1,191.1,11.75h-2.4a1.161,1.161,0,0,0-.332-.851,1.405,1.405,0,0,0-1.038-.336,1.436,1.436,0,0,0-.938.274.865.865,0,0,0-.332.7.739.739,0,0,0,.378.643,3.885,3.885,0,0,0,1.274.423,10.407,10.407,0,0,1,1.511.4,2.482,2.482,0,0,1,1.9,2.416,2.343,2.343,0,0,1-1.054,1.988,4.548,4.548,0,0,1-2.723.76,4.75,4.75,0,0,1-2-.4,3.363,3.363,0,0,1-1.374-1.1,2.565,2.565,0,0,1-.5-1.515h2.274a1.252,1.252,0,0,0,.473.979,1.877,1.877,0,0,0,1.179.34,1.737,1.737,0,0,0,1.042-.261A.814.814,0,0,0,188.8,15.518Z" transform="translate(462.352 289.608) rotate(-90)" fill="#fff"/>
          <path id="Path_919063" data-name="Path 919063" d="M20.813,13.576H18.829V18h-2.49V5.914H20.83a5.076,5.076,0,0,1,3.3.955,3.3,3.3,0,0,1,1.162,2.7,3.718,3.718,0,0,1-.535,2.063,3.651,3.651,0,0,1-1.623,1.316l2.615,4.939V18H23.079Zm-1.984-2.017h2.009a2.057,2.057,0,0,0,1.453-.477,1.706,1.706,0,0,0,.515-1.316,1.826,1.826,0,0,0-.486-1.345,2.018,2.018,0,0,0-1.49-.49h-2Zm12.335,6.607a4.409,4.409,0,0,1-3.217-1.212,4.308,4.308,0,0,1-1.241-3.229v-.232a5.426,5.426,0,0,1,.523-2.42,3.838,3.838,0,0,1,1.482-1.644A4.159,4.159,0,0,1,30.9,8.853a3.727,3.727,0,0,1,2.9,1.162,4.722,4.722,0,0,1,1.058,3.3v.979H29.139a2.229,2.229,0,0,0,.7,1.411,2.12,2.12,0,0,0,1.482.531,2.589,2.589,0,0,0,2.167-1l1.179,1.32a3.6,3.6,0,0,1-1.461,1.191A4.793,4.793,0,0,1,31.164,18.166Zm-.274-7.379a1.5,1.5,0,0,0-1.158.484,2.5,2.5,0,0,0-.569,1.384H32.5v-.192a1.786,1.786,0,0,0-.432-1.238A1.547,1.547,0,0,0,30.89,10.787Zm9.064,5.445a1.573,1.573,0,0,0,1.079-.365,1.28,1.28,0,0,0,.432-.971h2.25a3.077,3.077,0,0,1-.5,1.673,3.286,3.286,0,0,1-1.341,1.179,4.2,4.2,0,0,1-1.88.419,3.9,3.9,0,0,1-3.038-1.224,4.845,4.845,0,0,1-1.112-3.383V13.4a4.79,4.79,0,0,1,1.1-3.312,3.854,3.854,0,0,1,3.03-1.237,3.778,3.778,0,0,1,2.7.959,3.4,3.4,0,0,1,1.033,2.552h-2.25a1.648,1.648,0,0,0-.432-1.139,1.6,1.6,0,0,0-2.362.173,3.541,3.541,0,0,0-.427,1.983v.249a3.586,3.586,0,0,0,.423,2A1.463,1.463,0,0,0,39.955,16.232Zm10.509.855a3.008,3.008,0,0,1-2.457,1.079,2.837,2.837,0,0,1-2.2-.83,3.543,3.543,0,0,1-.776-2.432V9.019h2.4v5.809q0,1.4,1.278,1.4a1.732,1.732,0,0,0,1.677-.848V9.019h2.407V18H50.53Zm9.181-5.819a6.517,6.517,0,0,0-.863-.066A1.757,1.757,0,0,0,57,12.123V18H54.6V9.019h2.266l.066,1.071a2.223,2.223,0,0,1,2-1.237,2.514,2.514,0,0,1,.747.108Zm6.018,4.25a.773.773,0,0,0-.436-.693,4.95,4.95,0,0,0-1.4-.452q-3.2-.672-3.2-2.723a2.468,2.468,0,0,1,.992-2,4,4,0,0,1,2.594-.8,4.307,4.307,0,0,1,2.735.805A2.538,2.538,0,0,1,67.97,11.75h-2.4a1.161,1.161,0,0,0-.332-.851,1.405,1.405,0,0,0-1.038-.336,1.436,1.436,0,0,0-.938.274.865.865,0,0,0-.332.7.739.739,0,0,0,.378.643,3.885,3.885,0,0,0,1.274.423,10.407,10.407,0,0,1,1.511.4,2.482,2.482,0,0,1,1.9,2.416,2.343,2.343,0,0,1-1.054,1.988,4.548,4.548,0,0,1-2.723.76,4.75,4.75,0,0,1-2-.4,3.363,3.363,0,0,1-1.374-1.1,2.565,2.565,0,0,1-.5-1.515h2.274a1.252,1.252,0,0,0,.473.979,1.877,1.877,0,0,0,1.179.34A1.737,1.737,0,0,0,65.31,16.2.814.814,0,0,0,65.662,15.518Zm3.5-2.092a5.326,5.326,0,0,1,.515-2.382,3.768,3.768,0,0,1,1.482-1.619,4.323,4.323,0,0,1,2.245-.573,4.09,4.09,0,0,1,2.968,1.112,4.464,4.464,0,0,1,1.282,3.021l.017.614a4.694,4.694,0,0,1-1.154,3.316,4.472,4.472,0,0,1-6.2,0,4.777,4.777,0,0,1-1.158-3.387Zm2.4.17a3.357,3.357,0,0,0,.481,1.958,1.73,1.73,0,0,0,2.739.008,3.674,3.674,0,0,0,.49-2.141,3.324,3.324,0,0,0-.49-1.945,1.592,1.592,0,0,0-1.378-.69,1.566,1.566,0,0,0-1.361.686A3.736,3.736,0,0,0,71.564,13.6Zm12.451,1.922a.773.773,0,0,0-.436-.693,4.95,4.95,0,0,0-1.4-.452q-3.2-.672-3.2-2.723a2.468,2.468,0,0,1,.992-2,4,4,0,0,1,2.594-.8,4.307,4.307,0,0,1,2.735.805,2.538,2.538,0,0,1,1.025,2.092h-2.4a1.161,1.161,0,0,0-.332-.851,1.405,1.405,0,0,0-1.038-.336,1.436,1.436,0,0,0-.938.274.865.865,0,0,0-.332.7.739.739,0,0,0,.378.643,3.885,3.885,0,0,0,1.274.423,10.407,10.407,0,0,1,1.511.4,2.482,2.482,0,0,1,1.9,2.416,2.343,2.343,0,0,1-1.054,1.988,4.548,4.548,0,0,1-2.723.76,4.75,4.75,0,0,1-2-.4,3.363,3.363,0,0,1-1.374-1.1,2.565,2.565,0,0,1-.5-1.515h2.274a1.252,1.252,0,0,0,.473.979,1.877,1.877,0,0,0,1.179.34,1.737,1.737,0,0,0,1.042-.261A.814.814,0,0,0,84.015,15.518ZM94.657,18H92.25V5.25h2.407Zm1.6-4.574a5.326,5.326,0,0,1,.515-2.382,3.768,3.768,0,0,1,1.482-1.619,4.323,4.323,0,0,1,2.245-.573,4.09,4.09,0,0,1,2.968,1.112,4.464,4.464,0,0,1,1.282,3.021l.017.614a4.694,4.694,0,0,1-1.154,3.316,4.472,4.472,0,0,1-6.2,0,4.777,4.777,0,0,1-1.158-3.387Zm2.4.17a3.357,3.357,0,0,0,.481,1.958,1.73,1.73,0,0,0,2.739.008,3.674,3.674,0,0,0,.49-2.141,3.324,3.324,0,0,0-.49-1.945,1.592,1.592,0,0,0-1.378-.69,1.566,1.566,0,0,0-1.361.686A3.736,3.736,0,0,0,98.658,13.6Zm11.322,2.635a1.573,1.573,0,0,0,1.079-.365,1.28,1.28,0,0,0,.432-.971h2.25a3.077,3.077,0,0,1-.5,1.673,3.286,3.286,0,0,1-1.341,1.179,4.2,4.2,0,0,1-1.88.419,3.9,3.9,0,0,1-3.038-1.224,4.845,4.845,0,0,1-1.112-3.383V13.4a4.79,4.79,0,0,1,1.1-3.312,3.854,3.854,0,0,1,3.03-1.237,3.778,3.778,0,0,1,2.7.959,3.4,3.4,0,0,1,1.033,2.552h-2.25a1.648,1.648,0,0,0-.432-1.139,1.6,1.6,0,0,0-2.362.173,3.541,3.541,0,0,0-.427,1.983v.249a3.586,3.586,0,0,0,.423,2A1.463,1.463,0,0,0,109.98,16.232ZM120.315,18a2.664,2.664,0,0,1-.241-.805,2.9,2.9,0,0,1-2.266.971,3.189,3.189,0,0,1-2.187-.764,2.456,2.456,0,0,1-.867-1.926,2.538,2.538,0,0,1,1.058-2.191,5.222,5.222,0,0,1,3.059-.772h1.1V12a1.48,1.48,0,0,0-.32-1,1.257,1.257,0,0,0-1.009-.374,1.429,1.429,0,0,0-.95.291.987.987,0,0,0-.344.8h-2.4a2.41,2.41,0,0,1,.481-1.444A3.182,3.182,0,0,1,116.8,9.23a4.961,4.961,0,0,1,1.976-.378,3.92,3.92,0,0,1,2.635.834,2.918,2.918,0,0,1,.975,2.345v3.893a4.294,4.294,0,0,0,.357,1.934V18Zm-1.984-1.668a2.066,2.066,0,0,0,.979-.237,1.554,1.554,0,0,0,.664-.635V13.916h-.9q-1.8,0-1.917,1.245l-.008.141a.96.96,0,0,0,.315.739A1.225,1.225,0,0,0,118.331,16.332ZM126.756,18h-2.407V5.25h2.407Zm6.109.166a4.409,4.409,0,0,1-3.217-1.212,4.308,4.308,0,0,1-1.241-3.229v-.232a5.426,5.426,0,0,1,.523-2.42,3.838,3.838,0,0,1,1.482-1.644,4.159,4.159,0,0,1,2.187-.577,3.727,3.727,0,0,1,2.9,1.162,4.722,4.722,0,0,1,1.058,3.3v.979H130.84a2.228,2.228,0,0,0,.7,1.411,2.12,2.12,0,0,0,1.482.531,2.589,2.589,0,0,0,2.167-1l1.179,1.32a3.6,3.6,0,0,1-1.461,1.191A4.793,4.793,0,0,1,132.865,18.166Zm-.274-7.379a1.5,1.5,0,0,0-1.158.484,2.5,2.5,0,0,0-.569,1.384H134.2v-.192a1.786,1.786,0,0,0-.432-1.238A1.547,1.547,0,0,0,132.592,10.787Zm10.193,4.731a.773.773,0,0,0-.436-.693,4.95,4.95,0,0,0-1.4-.452q-3.2-.672-3.2-2.723a2.468,2.468,0,0,1,.992-2,4,4,0,0,1,2.594-.8,4.307,4.307,0,0,1,2.735.805,2.538,2.538,0,0,1,1.025,2.092h-2.4a1.161,1.161,0,0,0-.332-.851,1.405,1.405,0,0,0-1.038-.336,1.436,1.436,0,0,0-.938.274.865.865,0,0,0-.332.7.739.739,0,0,0,.378.643,3.885,3.885,0,0,0,1.274.423,10.407,10.407,0,0,1,1.511.4,2.482,2.482,0,0,1,1.9,2.416,2.343,2.343,0,0,1-1.054,1.988,4.548,4.548,0,0,1-2.723.76,4.75,4.75,0,0,1-2-.4,3.363,3.363,0,0,1-1.374-1.1,2.565,2.565,0,0,1-.5-1.515h2.274a1.252,1.252,0,0,0,.473.979,1.877,1.877,0,0,0,1.179.34,1.737,1.737,0,0,0,1.042-.261A.814.814,0,0,0,142.785,15.518Z" transform="translate(279.975 260.608) rotate(-90)" fill="#fff"/>
          <g id="Group_1117823" data-name="Group 1117823" transform="translate(646.718 149.507) rotate(90)">
            <g id="Group_1117822" data-name="Group 1117822" clip-path="url(#clip-path-5)">
              <path id="Path_918782" data-name="Path 918782" d="M32.53,76.65C26.907,77.222,23.3,74.835,19.62,71,12.95,64.062,6.852,56.466.263,49.464c.188-8.606-.59-17.714-.1-26.283.4-6.887,3.647-12.941,10.071-15.873,4.652-2.124,9-1.556,13.973-1.638a32.623,32.623,0,0,1,1.807-3.03c2.827-3.519,7.249-3.52,10.077,0A32.625,32.625,0,0,1,37.9,5.67c5.022.086,9.447-.506,14.12,1.71,6.614,3.135,9.592,9.137,9.934,16.229.415,8.582-.191,17.436-.175,26.006C55.122,56.513,49.129,64.1,42.492,71c-2.876,2.993-5.618,5.207-9.962,5.649M4.782,45.714l.21,2.318c6.3,6.506,11.916,13.763,18.253,20.223,5.276,5.379,10.346,5.379,15.622,0C45.2,61.8,50.817,54.539,57.119,48.033l.21-2.318Zm0-4.4H57.329V37.579c-1.907-.336-3.082-2.922-4.947-2.878-1.378.032-2.275,1.566-3.464,2.272-2.968,1.761-5.54,1.237-8.184-.718-.458-.339-.879-1.043-1.352-1.286C37.123,33.805,35.905,36.4,34.07,37.3c-2.811,1.37-5.229.707-7.626-1.04-1.009-.735-1.026-1.6-2.645-1.553-1.406.043-1.6.952-2.545,1.649-2.342,1.727-4.772,2.291-7.5.943-1.483-.732-2.6-2.669-4.247-2.6-1.621.072-2.96,2.615-4.722,2.88Zm0-9.234a7.222,7.222,0,0,1,7.622-1.358c1.916.843,2.669,3.048,5.007,2.663.98-.161,1.3-1.014,2-1.52,2.339-1.705,4.668-2.309,7.407-1.04,1.77.819,2.632,2.844,4.69,2.585,1.117-.141,2.417-1.916,3.644-2.513,2.78-1.353,5.155-.781,7.555.969.485.354.959,1.153,1.49,1.368,2.434.988,3.229-1.281,4.925-2.218a6.95,6.95,0,0,1,8.1,1.064,4.154,4.154,0,0,0-1.67-4.267c-3.235-2.488-6.87-.409-10.427-.133-5.12.4-9.353-1.769-11.091-6.711-.934-.066-5.677-.343-6.057.117-.225.273-.624,1.606-.945,2.133-2.135,3.507-6.085,4.768-10.043,4.461-3.6-.279-7.5-2.463-10.669.331a4.527,4.527,0,0,0-1.535,4.069m34.3-11.213c.069.705,1.27,1.472,1.862,1.765,3.048,1.506,6.318-.2,9.464-.443a11.626,11.626,0,0,1,6.92,1.316,12.75,12.75,0,0,0-9.454-12.86,18.074,18.074,0,0,0-2.526-.552H38.861a17.115,17.115,0,0,1-.22,6.376h3.738v4.4ZM23.251,10.1H16.765a18.074,18.074,0,0,0-2.526.552,12.75,12.75,0,0,0-9.454,12.86,11.626,11.626,0,0,1,6.92-1.316c3.146.238,6.416,1.949,9.464.443.593-.293,1.794-1.06,1.862-1.765h-3.3v-4.4H23.47a17.535,17.535,0,0,1-.22-6.376m4.837,6.376h5.936a15.977,15.977,0,0,0,.028-7.614c-.407-1.692-1.174-3.842-2.994-4.388-.984-.035-1.987,1.59-2.353,2.395a15.546,15.546,0,0,0-.617,9.606" transform="translate(0 0)" fill="#12263f"/>
            </g>
          </g>
          <g id="Group_1117827" data-name="Group 1117827" transform="translate(456.627 175.084) rotate(90)">
            <g id="Group_1117826" data-name="Group 1117826" transform="translate(-38.109)" clip-path="url(#clip-path-6)">
              <path id="Path_918783" data-name="Path 918783" d="M6.318,17.277h-4.3A5.506,5.506,0,0,1,.56,16.285C-.813,14.616.6,10.945,2.024,9.669c2.516-2.25,7.587-.784,10.749-1.279C15.431,6.2,17.065,1.492,20.6.506,35.234-.214,50.117-.1,64.759.447c3.6.941,5.292,5.48,7.847,7.865,3.268.687,8.482-1,11.05,1.469a9.741,9.741,0,0,1,1.977,4.675c-.006,1.027-1.1,2.821-2.108,2.821h-9.7c.8,1.9,3.233,3.611,4.141,5.309a1.584,1.584,0,0,1,.286.943c-.093.848-5.014,6.415-6.14,7.128a32.65,32.65,0,0,1,5.251,5.791c.392.584,1.023,1.188.784,1.947-.107.341-3.914,5.077-4.408,5.555a9.311,9.311,0,0,1-5.194,2.539,67.889,67.889,0,0,1-8.468-.119A1.265,1.265,0,0,1,60.5,44.09c4.149-.9,7.878,1.546,11.613-2.134a42.64,42.64,0,0,0,3.072-3.825c.057-.17.169-.291.007-.473-1.4-1.225-2.344-3.179-3.816-4.307A11.455,11.455,0,0,0,68.8,32.007H56.152V45.631a2.34,2.34,0,0,1-.312.549l-3.616.312c.432,1.342,3.132,4.311,2.334,5.646-2.122,1.767-3.108-2.3-4.057-3.684-.353-.079-.4.034-.6.254-.772.842-2.23,5.615-3.927,3.41C45,50.85,47.841,47.845,48.3,46.49H37.5V67.725c0,1.04-1.565,2.27-2.6,2.318-1.481.068-4.132-2.44-5.571-2.986-.832-.315-13.031-.412-14.282-.18-2.77.513-7.6,7.1-8.737-.368Zm2.7,50.079c1.568-.438,3.82-2.7,5.294-2.93,1.689-.264,14.785-.189,15.916.255,1.518.6,2.956,2.157,4.567,2.675V43.79l-2.946,0c.935,2.632.987,6.631-2.038,7.9-3.9,1.636-6.65-3.227-8.4-5.935-1.184,1.587-2.017,3.475-3.557,4.785-5.171,4.4-9.139-1.831-6.876-6.751l-1.964,0ZM23.5,43.79c.407,1.622,3.093,5.615,4.786,5.655,2.4.056,1.638-4.281.86-5.655Zm-4.173,0H13.806c-1.086,1.3-1.561,5.709.738,5.655,1.724-.041,4.383-4.013,4.786-5.655m32.159.245H53.7V32.007H51.488Zm-4.664,0h2.209V32.007H46.824Zm-9.329,0h6.874V32.007H37.5Zm-7-2.7h4.3V39.126H28.412c-.17.653.283.435.608.73.289.262,1.333,1.438,1.479,1.479m-7.733,0h3.928l-2.29-1.27-1.512-.452Zm-6.628,0h3.928l-.126-1.722-1.512.452ZM14.42,39.126h-5.4v2.211c1.065-.139,2.648.3,3.574-.233Zm8.347-2.455H34.8V34.707H22.766Zm-13.747,0H20.066V34.707H9.019ZM23.5,32.007H34.8V17.277H31.358c.172,1.917.046,4.205-2.335,2.7l-.119-2.7H25.956c.653,4.349-3.243,4.295-2.7,0l-2.56,0c.237,4.325-3.351,4.337-2.84,0H14.909c.783,4.5-3.1,4.2-2.454,0H9.019V32.007h10.31c-.448-1.19-2.848-4.008-2.334-5.147,2.064-2.476,3.381,2.281,4.3,3.672,1.123-.786,2.475-6.107,4.312-3.945,1.074,1.264-1.624,4.045-2.106,5.42m32.65-2.7H68.8c2.218,0,5.241-4.323,6.486-5.979-1.551-1.623-2.787-4.233-4.839-5.242a11.566,11.566,0,0,0-2.383-.808H56.152Zm-4.664,0H53.7V17.277H51.488Zm-4.664,0h2.209V17.277H46.824Zm-9.329,0h6.874V17.277H37.5ZM2.759,14.823H82.788l.271-.508c-.583-1.613-.747-3.113-2.748-3.4l-49.343-.244c-.705-.507-.272-2.233.513-2.233H69.409c-1.515-1.482-3.344-5.291-5.539-5.631l-42.584.1C18.942,4.035,17.86,6.628,16.138,8.44H26.326c.95,0,1.265,2.221,0,2.455L4.828,11c-1.68.4-1.8,1.947-2.34,3.314Z" transform="translate(0 0)" fill="#fff"/>
              <path id="Path_918784" data-name="Path 918784" d="M4.074.325c.49-.488,1.855-.472,2.1.359A29.983,29.983,0,0,1,6.2,6.008c-.39,3.266-3.332,4.31-3.651,7.887-.136,1.524.765,4.727-1.594,4.3C-.3,17.966,0,14.025.119,12.94.5,9.44,3.153,8.405,3.662,5.926c.255-1.242-.184-5.006.412-5.6" transform="translate(58.274 57.517)" fill="#fff"/>
              <path id="Path_918785" data-name="Path 918785" d="M1.876,11.992c-.615.152-1.537.105-1.751-.624A27.651,27.651,0,0,1,.184,5.634C.465,4.282,3.074.675,4.253.128A1.292,1.292,0,0,1,6.115,1.482C5.87,2.36,3.441,4.059,2.85,5.6c-.58,1.513.152,6-.974,6.393" transform="translate(49.449 63.673)" fill="#fff"/>
              <path id="Path_918786" data-name="Path 918786" d="M1.851,5.627a1.264,1.264,0,0,1-1.2-.18c-1-1.181-1.08-6.4,1.368-5.295,1.156.521,1.165,5.087-.172,5.475" transform="translate(23.193 55.548)" fill="#fff"/>
              <path id="Path_918787" data-name="Path 918787" d="M1.912,5.669C-.909,6.522-.442-1.619,2.226.292c.913.654.981,4.985-.314,5.377" transform="translate(17.736 55.511)" fill="#fff"/>
              <path id="Path_918788" data-name="Path 918788" d="M2.258.287c.431.433,1.2,6.06-1.484,5.3C-.14,5.329-.09,1.335.147.635S1.775-.2,2.258.287" transform="translate(28.797 55.592)" fill="#fff"/>
              <path id="Path_918789" data-name="Path 918789" d="M1.929,5.625C-.276,6.332-.148,2.112.192.932.5-.153,2.337-.442,2.587.887c.16.846.273,4.462-.658,4.738" transform="translate(12.316 55.553)" fill="#fff"/>
            </g>
          </g>
          <g id="Group_1117831" data-name="Group 1117831" transform="translate(276.56 142.198) rotate(90)">
            <g id="Group_1117830" data-name="Group 1117830" clip-path="url(#clip-path-7)">
              <path id="Path_918790" data-name="Path 918790" d="M42.791,55.9c-.388,2.307-2.972,5.966-3.275,8.511-.07.59.041,1.254,0,1.855,1.139-.053,2.339.228,2.152,1.593a2.014,2.014,0,0,1-2.155.808c.281,2.924-2.6,2.994-2.4,0-2.858.3-2.9-2.638,0-2.4-.039-.6.072-1.266,0-1.855-.261-2.2-3.275-7.241-3.275-8.73V50.774c-1.25-.446-1.431.734-2.121.834-.366.053-.96.007-1.171-.326a24.317,24.317,0,0,1-.093-6.184,1.138,1.138,0,0,1,1.967,0c.368.762-.044,2.583.108,3.493H35.7c.42,0,1.83.879,2.619.879s2.2-.879,2.619-.879H44.1V37.46a36.6,36.6,0,0,1-11.568,0V41.5c0,.752-1.47,1.107-1.986.457-.547-.69.026-4.064-.227-5.12-.152-.237-4.538-1.344-5.21-2.1-1.116-1.256.657-1.739.657-1.859V25.455H12.56L2.411,19.78V30.912a6.9,6.9,0,0,0,2.709-2.42c.455-.7,1.135-2.854,1.321-3.043a1.16,1.16,0,0,1,1.861.562c.382,2.066-2.432,5.471-4.141,6.538,1.5.862,3.38.588,4.968.17.943-.248,1.67-1.061,2.572-.509,1.022.625.426,1.563-.362,2.064-2.076,1.32-5.765,1.179-8.055.569-.222.174,2.022,2.4,2.3,2.612C6.93,38.5,9.588,38.675,8.469,40.68c-.907.927-4.158-1.307-4.97-2.017A9.681,9.681,0,0,1,.219,32.34c-.7-9.669.551-20.165,0-29.923A2.384,2.384,0,0,1,2.3.131c3.4-.4,7.61.274,11.094.047a1.506,1.506,0,0,1,.794,1.171c.386,2.348-.253,5.6.013,8.063a3.381,3.381,0,0,0,5.567,2.076,5.81,5.81,0,0,0,.98-1.639V2.318h-3.82c-.591,0-1.062-1.971.643-2.194L75.039.3a2.582,2.582,0,0,1,1.37,1.9l-.17,28.215c-1.439,2.411-4.829,1.818-6.71.274-.358-.294-.609-.955-.908-1.056-.457-.154-1.386-.015-2.05-.132-2.288-.4-3.626-2.007-4.463-4.05H50.867v7.421c0,.029.369.025.547.206,2.212,2.248-5,3.28-5.141,3.867l-.036,14.107c-1.332,2.119-1.776-.837-3.446-.282-.184,1.558.249,3.646,0,5.129m-6.112.764,1.637,4.149,1.637-4.149Zm-.327-2.183h4.256V51.211a5.592,5.592,0,0,1-4.583,0c.106.615-.286,3.084.326,3.273m12.114-29.03H41.7v6.221c0,.818-2.572,1.874-3.383,1.874s-3.383-1.055-3.383-1.874V25.455H28.167l.025,1.722c3.685.768,4.562,4.56,4.37,7.852a23.147,23.147,0,0,0,11.509,0c-.125-3.246.707-7.078,4.365-7.857Zm0,8.294V29.6c-1.576-.228-2.635,4.815-2.07,4.805Zm-20.3,0,2.181.654c.4-.457-.6-5.113-2.181-4.8ZM39.517,30.8v-5.02c-.277-.414-.753-.341-1.2-.341a3.824,3.824,0,0,0-.839.048l-.362.292V30.8a1.7,1.7,0,0,0,2.4,0m34.7-1.2V19.78L64.6,25.148c.083,1.279,1.638,2.1,2.765,2.252.76.1,2.141-.167,2.714.124.346.176.452.859.751,1.214a2.8,2.8,0,0,0,3.392.864m-23.355-6.33H63.417l10.8-6.221V13.014L63.636,18.907H50.867Zm-22.7,0h20.3V2.318H43.882V15.96a18.293,18.293,0,0,1-.689,1.712,5.666,5.666,0,0,1-9.833-.139c-.1-.189-.61-1.489-.61-1.573V2.318H28.167ZM2.411,13.014v4.038l10.8,6.221H25.766V18.907H21.728c-1.1,0-1-2.183-.218-2.183h4.256V2.318H23.146V9.412a6.584,6.584,0,0,1-2.292,4.038A5.731,5.731,0,0,1,11.8,8.976V2.318H2.411v8.294a2.133,2.133,0,0,1,.879.317c2.325,1.362,7.677,4.907,9.874,5.627,1.321.433,6.893-.678,5.2,1.987-.361.567-4.661.436-5.485.267a6.281,6.281,0,0,1-1.228-.518c-3.066-1.387-6.175-3.77-9.236-5.279M41.7,15.524V2.646l-.327-.327H35.26l-.327.327V15.524a8.567,8.567,0,0,0,.555,1.191A3.455,3.455,0,0,0,41.7,15.524m9.167,1.2H63.2l11.023-6.112V2.318H64.836V8.976a5.731,5.731,0,0,1-9.058,4.474,6.585,6.585,0,0,1-2.292-4.038V2.318H50.867Zm5.02-14.406v7.53c0,1.178,2.024,2.5,3.162,2.512,1.156.009,3.386-1.263,3.386-2.512V2.318Z" transform="translate(0 0)" fill="#fff"/>
              <path id="Path_918791" data-name="Path 918791" d="M3.737,6.8C.411,7.264-1.6,2.438,1.645.545c4.635-2.7,7.5,5.5,2.092,6.255M3.75,4.405a1.094,1.094,0,0,0-.724-2.061A1.092,1.092,0,1,0,3.75,4.405" transform="translate(34.958 40.004)" fill="#fff"/>
            </g>
          </g>
          <g id="Group_1117834" data-name="Group 1117834" transform="translate(92.474 148.407) rotate(90)">
            <g id="Group_1117833" data-name="Group 1117833" transform="translate(0 -14)" clip-path="url(#clip-path-8)">
              <path id="Path_918792" data-name="Path 918792" d="M41.029,26.421c-.963.051-2.565-1.614-3.11-1.757-.191-.05-2.291.751-3.118.775a6.621,6.621,0,0,1-3.223-.775l-3.413,1.756c4.961,4.924.526,13.327-6.335,11.578A6.7,6.7,0,0,1,18.74,26.815l.121-.393c-.876.081-2.67-1.659-3.1-1.743-.266-.053-2.067.691-2.744.748A6.774,6.774,0,0,1,7.776,13.848l0-.293C3.473,12.2.3,7.413.05,2.973-.011,1.868-.185.634.854,0H68.339c1.066.646.871,2.03.794,3.16-.3,4.353-3.5,9.084-7.717,10.4l0,.293a6.771,6.771,0,0,1-5.245,11.579c-.677-.057-2.478-.8-2.745-.748-.425.085-2.219,1.824-3.095,1.743l1.554,2.5a6.746,6.746,0,0,1-9.212,8.619c-4.315-2.006-4.955-7.85-1.645-11.119m1.653,7.846c3.32,3.568,9.251-1.013,6.263-5.175-3.3-4.593-10.094,1.06-6.263,5.175m-16.17,0c3.83-4.116-2.968-9.768-6.264-5.175-2.987,4.162,2.943,8.744,6.264,5.175M40.063,23.031c3.313,2.1,8.128,2.4,11.211-.27a7.035,7.035,0,0,1-.645-7.029c.247-.532,1.509-1.831,1.277-2.168-2.713-.947-4.7-3.207-6.226-5.548a15.8,15.8,0,0,1-6.429,5.835,6.643,6.643,0,0,1,.825,8.756ZM17.286,13.563c-.231.337,1.03,1.636,1.277,2.168a7.034,7.034,0,0,1-.645,7.029c3.046,2.663,7.9,2.4,11.211.27.171-.293-.739-1.6-.912-2.109a6.653,6.653,0,0,1,1.723-7.071,15.663,15.663,0,0,1-6.429-5.835c-1.525,2.341-3.513,4.6-6.226,5.548M59.567,21.6c4.022-3.844-2.371-9.936-5.973-5.478-3.212,3.976,2.388,8.9,5.973,5.478m-24.028,1.01c4.59-.794,3.8-8.3-1.114-8.056-5.459.27-5.037,9.12,1.114,8.056M9.627,21.6c3.585,3.426,9.185-1.5,5.973-5.478C12,11.664,5.6,17.756,9.627,21.6M46.967,2.668a9.766,9.766,0,0,0,14.949,7.725,9.311,9.311,0,0,0,4.448-7.725ZM25,2.668a9.465,9.465,0,0,0,6.279,8.664c6.337,2.221,12.487-2.151,13.118-8.664Zm-22.168,0a9.368,9.368,0,0,0,4.448,7.725A9.766,9.766,0,0,0,22.226,2.668Z" transform="translate(0 0)" fill="#12263f"/>
              <path id="Path_918793" data-name="Path 918793" d="M17.958,10.189a24.251,24.251,0,0,0,.74,3.021A19.828,19.828,0,0,0,42.089,26.9a28.163,28.163,0,0,0,.421-5.633c-.078-1.221-.88-3.653-.8-4.526a1.45,1.45,0,0,1,2.258-.893c.384.266.56,1.212.682,1.692a23.6,23.6,0,0,1,.4,7.866,12.29,12.29,0,0,1-.79,3.367c-.845,1.189-6.519,1.406-8,1.318A23.756,23.756,0,0,1,22.61,24.4,23.4,23.4,0,0,1,6.173,30.089c-1.073-.064-4.624-.5-5.213-1.318a14.623,14.623,0,0,1-.812-3.542A22.679,22.679,0,0,1,33.994,3.06c1.253.719,5.112,2.91,3.762,4.563-1.145,1.4-2.976-.86-4.018-1.536-3.884-2.52-9.01-4.016-13.6-3.024l4.691,4.612c1.676.362,6.093-.474,7.37.349a1.462,1.462,0,0,1-.286,2.463H27.657l3.7,3.72c1.537.273,3.642-.228,5.1.046a1.606,1.606,0,0,1,1.092,1.465c-.1,1.52-2.286,1.334-3.363,1.3.671,1.1,3.928,3.046,2.471,4.547S33.109,19.66,32.013,19c-.1,1.128.485,3.153-1.109,3.359-2.549.33-1.048-4.446-1.507-5.991l-3.72-3.7v3.86c0,.784-1.722,1.654-2.471.69-.779-1,0-5.881-.34-7.379l-4.908-4.89c.128,1.681-.174,3.594,0,5.245M3.125,26.9c5.391,1.173,12.17-.008,16.482-3.587.4-.333,1.143-.753.832-1.347-1.839-1.839-2.791-4.269-3.965-6.532-1.779,1.071.755,7.62-2.529,6.883-1.4-.315-.824-2.309-.937-3.325-1.239.747-2.971,3.934-4.608,2.583-1.605-1.325,1.8-3.551,2.432-4.56-1.076.031-3.265.217-3.363-1.3a1.606,1.606,0,0,1,1.092-1.465c1.379-.259,3.866.321,5.1-.046a11.14,11.14,0,0,0,1.889-1.885c.159-.557-.276-1.236-.168-1.834-4.037.742-4.332-3.281-.2-2.772l.195-3.564C6.233,7.511,1.182,17.427,3.125,26.9" transform="translate(11.987 38.892)" fill="#12263f"/>
              <path id="Path_918794" data-name="Path 918794" d="M1.656,2.648A1.342,1.342,0,1,1,1.181.01c1.532-.189,2.1,2.309.475,2.638" transform="translate(51.301 48.873)" fill="#12263f"/>
            </g>
          </g>
        </g>
      </g>
    </g>
  </g>
</svg>
